%TF.GenerationSoftware,KiCad,Pcbnew,7.0.7*%
%TF.CreationDate,2023-08-21T16:40:19+01:00*%
%TF.ProjectId,QuadEnv_Components_2,51756164-456e-4765-9f43-6f6d706f6e65,rev?*%
%TF.SameCoordinates,Original*%
%TF.FileFunction,Legend,Bot*%
%TF.FilePolarity,Positive*%
%FSLAX46Y46*%
G04 Gerber Fmt 4.6, Leading zero omitted, Abs format (unit mm)*
G04 Created by KiCad (PCBNEW 7.0.7) date 2023-08-21 16:40:19*
%MOMM*%
%LPD*%
G01*
G04 APERTURE LIST*
%ADD10C,0.150000*%
%ADD11C,0.120000*%
G04 APERTURE END LIST*
D10*
X52533333Y-72124819D02*
X52533333Y-72839104D01*
X52533333Y-72839104D02*
X52580952Y-72981961D01*
X52580952Y-72981961D02*
X52676190Y-73077200D01*
X52676190Y-73077200D02*
X52819047Y-73124819D01*
X52819047Y-73124819D02*
X52914285Y-73124819D01*
X51533333Y-73124819D02*
X52104761Y-73124819D01*
X51819047Y-73124819D02*
X51819047Y-72124819D01*
X51819047Y-72124819D02*
X51914285Y-72267676D01*
X51914285Y-72267676D02*
X52009523Y-72362914D01*
X52009523Y-72362914D02*
X52104761Y-72410533D01*
X52833333Y-152154819D02*
X52833333Y-152869104D01*
X52833333Y-152869104D02*
X52880952Y-153011961D01*
X52880952Y-153011961D02*
X52976190Y-153107200D01*
X52976190Y-153107200D02*
X53119047Y-153154819D01*
X53119047Y-153154819D02*
X53214285Y-153154819D01*
X51928571Y-152488152D02*
X51928571Y-153154819D01*
X52166666Y-152107200D02*
X52404761Y-152821485D01*
X52404761Y-152821485D02*
X51785714Y-152821485D01*
X66933333Y-72124819D02*
X66933333Y-72839104D01*
X66933333Y-72839104D02*
X66980952Y-72981961D01*
X66980952Y-72981961D02*
X67076190Y-73077200D01*
X67076190Y-73077200D02*
X67219047Y-73124819D01*
X67219047Y-73124819D02*
X67314285Y-73124819D01*
X66504761Y-72220057D02*
X66457142Y-72172438D01*
X66457142Y-72172438D02*
X66361904Y-72124819D01*
X66361904Y-72124819D02*
X66123809Y-72124819D01*
X66123809Y-72124819D02*
X66028571Y-72172438D01*
X66028571Y-72172438D02*
X65980952Y-72220057D01*
X65980952Y-72220057D02*
X65933333Y-72315295D01*
X65933333Y-72315295D02*
X65933333Y-72410533D01*
X65933333Y-72410533D02*
X65980952Y-72553390D01*
X65980952Y-72553390D02*
X66552380Y-73124819D01*
X66552380Y-73124819D02*
X65933333Y-73124819D01*
X67143333Y-136654819D02*
X67143333Y-137369104D01*
X67143333Y-137369104D02*
X67190952Y-137511961D01*
X67190952Y-137511961D02*
X67286190Y-137607200D01*
X67286190Y-137607200D02*
X67429047Y-137654819D01*
X67429047Y-137654819D02*
X67524285Y-137654819D01*
X66762380Y-136654819D02*
X66143333Y-136654819D01*
X66143333Y-136654819D02*
X66476666Y-137035771D01*
X66476666Y-137035771D02*
X66333809Y-137035771D01*
X66333809Y-137035771D02*
X66238571Y-137083390D01*
X66238571Y-137083390D02*
X66190952Y-137131009D01*
X66190952Y-137131009D02*
X66143333Y-137226247D01*
X66143333Y-137226247D02*
X66143333Y-137464342D01*
X66143333Y-137464342D02*
X66190952Y-137559580D01*
X66190952Y-137559580D02*
X66238571Y-137607200D01*
X66238571Y-137607200D02*
X66333809Y-137654819D01*
X66333809Y-137654819D02*
X66619523Y-137654819D01*
X66619523Y-137654819D02*
X66714761Y-137607200D01*
X66714761Y-137607200D02*
X66762380Y-137559580D01*
D11*
%TO.C,J1*%
X53530000Y-94110000D02*
X50870000Y-94110000D01*
X53530000Y-76270000D02*
X53530000Y-94110000D01*
X53530000Y-76270000D02*
X50870000Y-76270000D01*
X53530000Y-75000000D02*
X53530000Y-73670000D01*
X53530000Y-73670000D02*
X52200000Y-73670000D01*
X50870000Y-76270000D02*
X50870000Y-94110000D01*
%TO.C,J4*%
X64550000Y-151370000D02*
X64550000Y-154030000D01*
X56870000Y-151370000D02*
X64550000Y-151370000D01*
X56870000Y-151370000D02*
X56870000Y-154030000D01*
X55600000Y-151370000D02*
X54270000Y-151370000D01*
X54270000Y-151370000D02*
X54270000Y-152700000D01*
X56870000Y-154030000D02*
X64550000Y-154030000D01*
%TO.C,J2*%
X67930000Y-83950000D02*
X65270000Y-83950000D01*
X67930000Y-76270000D02*
X67930000Y-83950000D01*
X67930000Y-76270000D02*
X65270000Y-76270000D01*
X67930000Y-75000000D02*
X67930000Y-73670000D01*
X67930000Y-73670000D02*
X66600000Y-73670000D01*
X65270000Y-76270000D02*
X65270000Y-83950000D01*
%TO.C,J3*%
X52990000Y-138530000D02*
X52990000Y-135870000D01*
X63210000Y-138530000D02*
X52990000Y-138530000D01*
X63210000Y-138530000D02*
X63210000Y-135870000D01*
X64480000Y-138530000D02*
X65810000Y-138530000D01*
X65810000Y-138530000D02*
X65810000Y-137200000D01*
X63210000Y-135870000D02*
X52990000Y-135870000D01*
%TD*%
M02*
