M48
; DRILL file {KiCad 7.0.7} date Mon Aug 21 16:48:40 2023
; FORMAT={-:-/ absolute / inch / decimal}
; #@! TF.CreationDate,2023-08-21T16:48:40+01:00
; #@! TF.GenerationSoftware,Kicad,Pcbnew,7.0.7
; #@! TF.FileFunction,Plated,1,2,PTH
FMAT,2
INCH
; #@! TA.AperFunction,Plated,PTH,ViaDrill
T1C0.0118
; #@! TA.AperFunction,Plated,PTH,ViaDrill
T2C0.0157
; #@! TA.AperFunction,Plated,PTH,ComponentDrill
T3C0.0354
; #@! TA.AperFunction,Plated,PTH,ComponentDrill
T4C0.0394
%
G90
G05
T1
X2.0236Y-5.7244
X2.0236Y-6.0118
X2.0748Y-2.4409
X2.0748Y-5.0079
X2.0906Y-4.5118
X2.1614Y-3.374
X2.1969Y-2.5394
X2.2323Y-3.7047
X2.2402Y-4.0669
X2.2677Y-2.7598
X2.4882Y-5.0354
X2.5512Y-4.0906
X2.5551Y-3.7953
X2.6024Y-4.8937
X2.6024Y-5.1299
X2.6102Y-2.752
X2.6339Y-5.6378
X2.6457Y-6.0118
T2
X2.1884Y-5.7545
X2.4961Y-3.2402
X2.5276Y-3.4724
T3
X2.0591Y-1.7807
X2.0591Y-1.8807
X2.0669Y-3.7846
X2.0669Y-3.8846
X2.1941Y-1.8307
X2.1984Y-5.1248
X2.1988Y-5.5783
X2.239Y-5.2248
X2.239Y-5.6783
X2.2783Y-5.1248
X2.2787Y-5.5783
X2.2941Y-1.8307
X2.3185Y-5.2248
X2.3189Y-5.6783
X2.3583Y-5.1248
X2.3587Y-5.5783
X2.3811Y-1.8307
X2.3984Y-5.2248
X2.3988Y-5.6783
X2.4382Y-5.1248
X2.4382Y-5.5783
X2.4783Y-5.2248
X2.4787Y-5.6783
X2.4811Y-1.8307
X2.6142Y-1.7807
X2.6142Y-1.8807
T4
X2.0551Y-2.9528
X2.0551Y-3.0528
X2.0551Y-3.1528
X2.0551Y-3.2528
X2.0551Y-3.3528
X2.0551Y-3.4528
X2.0551Y-3.5528
X2.0551Y-3.6528
X2.1386Y-5.4016
X2.189Y-6.0118
X2.2386Y-5.4016
X2.2402Y-2.4213
X2.2402Y-3.1299
X2.2402Y-3.3071
X2.2402Y-3.878
X2.2402Y-4.626
X2.289Y-6.0118
X2.3386Y-2.4213
X2.3386Y-3.1299
X2.3386Y-3.878
X2.3386Y-4.626
X2.3386Y-5.4016
X2.389Y-6.0118
X2.437Y-2.4213
X2.437Y-3.1299
X2.437Y-3.3071
X2.437Y-3.878
X2.437Y-4.626
X2.4386Y-5.4016
X2.489Y-6.0118
X2.5386Y-5.4016
X2.622Y-2.9528
X2.622Y-3.0528
X2.622Y-3.1528
X2.622Y-3.2528
T0
M30
