%TF.GenerationSoftware,KiCad,Pcbnew,7.0.7*%
%TF.CreationDate,2023-08-21T13:21:59+01:00*%
%TF.ProjectId,QuadEnv_Controls_2,51756164-456e-4765-9f43-6f6e74726f6c,rev?*%
%TF.SameCoordinates,Original*%
%TF.FileFunction,Copper,L2,Bot*%
%TF.FilePolarity,Positive*%
%FSLAX46Y46*%
G04 Gerber Fmt 4.6, Leading zero omitted, Abs format (unit mm)*
G04 Created by KiCad (PCBNEW 7.0.7) date 2023-08-21 13:21:59*
%MOMM*%
%LPD*%
G01*
G04 APERTURE LIST*
%TA.AperFunction,ComponentPad*%
%ADD10R,1.700000X1.700000*%
%TD*%
%TA.AperFunction,ComponentPad*%
%ADD11O,1.700000X1.700000*%
%TD*%
%TA.AperFunction,ComponentPad*%
%ADD12R,1.800000X1.800000*%
%TD*%
%TA.AperFunction,ComponentPad*%
%ADD13C,1.800000*%
%TD*%
%TA.AperFunction,WasherPad*%
%ADD14C,3.500000*%
%TD*%
%TA.AperFunction,ComponentPad*%
%ADD15C,1.500000*%
%TD*%
%TA.AperFunction,ComponentPad*%
%ADD16R,1.500000X1.500000*%
%TD*%
%TA.AperFunction,ViaPad*%
%ADD17C,0.800000*%
%TD*%
%TA.AperFunction,Conductor*%
%ADD18C,0.250000*%
%TD*%
%TA.AperFunction,Conductor*%
%ADD19C,0.300000*%
%TD*%
G04 APERTURE END LIST*
D10*
%TO.P,J1,1,Pin_1*%
%TO.N,+3.3VA*%
X52200000Y-75000000D03*
D11*
%TO.P,J1,2,Pin_2*%
%TO.N,GND*%
X52200000Y-77540000D03*
%TO.P,J1,3,Pin_3*%
%TO.N,/Mode_Led*%
X52200000Y-80080000D03*
%TO.P,J1,4,Pin_4*%
%TO.N,/Mode_Btn*%
X52200000Y-82620000D03*
%TO.P,J1,5,Pin_5*%
%TO.N,/Attack_Pot*%
X52200000Y-85160000D03*
%TO.P,J1,6,Pin_6*%
%TO.N,/Decay_Pot*%
X52200000Y-87700000D03*
%TO.P,J1,7,Pin_7*%
%TO.N,/Sustain_Pot*%
X52200000Y-90240000D03*
%TO.P,J1,8,Pin_8*%
%TO.N,/Release_Pot*%
X52200000Y-92780000D03*
%TD*%
D10*
%TO.P,J3,1,Pin_1*%
%TO.N,/Led2_Out*%
X64480000Y-137200000D03*
D11*
%TO.P,J3,2,Pin_2*%
%TO.N,/Env2_Out*%
X61940000Y-137200000D03*
%TO.P,J3,3,Pin_3*%
%TO.N,GND*%
X59400000Y-137200000D03*
%TO.P,J3,4,Pin_4*%
%TO.N,/Led1_Out*%
X56860000Y-137200000D03*
%TO.P,J3,5,Pin_5*%
%TO.N,/Env1_Out*%
X54320000Y-137200000D03*
%TD*%
D10*
%TO.P,J4,1,Pin_1*%
%TO.N,/Led3_Out*%
X55600000Y-152700000D03*
D11*
%TO.P,J4,2,Pin_2*%
%TO.N,/Env3_Out*%
X58140000Y-152700000D03*
%TO.P,J4,3,Pin_3*%
%TO.N,/Led4_Out*%
X60680000Y-152700000D03*
%TO.P,J4,4,Pin_4*%
%TO.N,/Env4_Out*%
X63220000Y-152700000D03*
%TD*%
D10*
%TO.P,J2,1,Pin_1*%
%TO.N,/Gate1_In*%
X66600000Y-75000000D03*
D11*
%TO.P,J2,2,Pin_2*%
%TO.N,/Gate2_In*%
X66600000Y-77540000D03*
%TO.P,J2,3,Pin_3*%
%TO.N,/Gate3_In*%
X66600000Y-80080000D03*
%TO.P,J2,4,Pin_4*%
%TO.N,/Gate4_In*%
X66600000Y-82620000D03*
%TD*%
D12*
%TO.P,D2,1,K*%
%TO.N,GND*%
X60480000Y-46500000D03*
D13*
%TO.P,D2,2,A*%
%TO.N,/Led2_Out*%
X63020000Y-46500000D03*
%TD*%
D12*
%TO.P,D1,1,K*%
%TO.N,GND*%
X66400000Y-47770000D03*
D13*
%TO.P,D1,2,A*%
%TO.N,/Led1_Out*%
X66400000Y-45230000D03*
%TD*%
D14*
%TO.P,RV4,*%
%TO.N,*%
X63800000Y-110500000D03*
X55000000Y-110500000D03*
D13*
%TO.P,RV4,1,1*%
%TO.N,+3.3VA*%
X56900000Y-117500000D03*
%TO.P,RV4,2,2*%
%TO.N,/Release_Pot*%
X59400000Y-117500000D03*
%TO.P,RV4,3,3*%
%TO.N,GND*%
X61900000Y-117500000D03*
%TD*%
D14*
%TO.P,RV3,*%
%TO.N,*%
X63800000Y-91500000D03*
X55000000Y-91500000D03*
D13*
%TO.P,RV3,1,1*%
%TO.N,+3.3VA*%
X56900000Y-98500000D03*
%TO.P,RV3,2,2*%
%TO.N,/Sustain_Pot*%
X59400000Y-98500000D03*
%TO.P,RV3,3,3*%
%TO.N,GND*%
X61900000Y-98500000D03*
%TO.P,RV3,4,1*%
X61900000Y-84000000D03*
%TO.P,RV3,5,2*%
%TO.N,/Mode_Btn*%
X56900000Y-84000000D03*
%TD*%
D12*
%TO.P,D4,1,K*%
%TO.N,GND*%
X52300000Y-47770000D03*
D13*
%TO.P,D4,2,A*%
%TO.N,/Led4_Out*%
X52300000Y-45230000D03*
%TD*%
D12*
%TO.P,D5,1,K*%
%TO.N,GND*%
X52500000Y-98670000D03*
D13*
%TO.P,D5,2,A*%
%TO.N,/Mode_Led*%
X52500000Y-96130000D03*
%TD*%
D15*
%TO.P,J6,1*%
%TO.N,/Env1_Out*%
X62960000Y-144230000D03*
%TO.P,J6,2*%
%TO.N,/Env2_Out*%
X61930000Y-141690000D03*
%TO.P,J6,3*%
%TO.N,/Env3_Out*%
X60930000Y-144230000D03*
%TO.P,J6,4*%
%TO.N,/Env4_Out*%
X59910000Y-141690000D03*
%TO.P,J6,5*%
%TO.N,unconnected-(J6-Pad5)*%
X58900000Y-144230000D03*
%TO.P,J6,6*%
%TO.N,unconnected-(J6-Pad6)*%
X57880000Y-141690000D03*
%TO.P,J6,7*%
%TO.N,unconnected-(J6-Pad7)*%
X56870000Y-144230000D03*
D16*
%TO.P,J6,8*%
%TO.N,unconnected-(J6-Pad8)*%
X55850000Y-141690000D03*
%TD*%
D14*
%TO.P,RV2,*%
%TO.N,*%
X63800000Y-72500000D03*
X55000000Y-72500000D03*
D13*
%TO.P,RV2,1,1*%
%TO.N,+3.3VA*%
X56900000Y-79500000D03*
%TO.P,RV2,2,2*%
%TO.N,/Decay_Pot*%
X59400000Y-79500000D03*
%TO.P,RV2,3,3*%
%TO.N,GND*%
X61900000Y-79500000D03*
%TD*%
D12*
%TO.P,D3,1,K*%
%TO.N,GND*%
X58270000Y-46500000D03*
D13*
%TO.P,D3,2,A*%
%TO.N,/Led3_Out*%
X55730000Y-46500000D03*
%TD*%
D14*
%TO.P,RV1,*%
%TO.N,*%
X63800000Y-54500000D03*
X55000000Y-54500000D03*
D13*
%TO.P,RV1,1,1*%
%TO.N,+3.3VA*%
X56900000Y-61500000D03*
%TO.P,RV1,2,2*%
%TO.N,/Attack_Pot*%
X59400000Y-61500000D03*
%TO.P,RV1,3,3*%
%TO.N,GND*%
X61900000Y-61500000D03*
%TD*%
D15*
%TO.P,J5,1*%
%TO.N,/Gate1_In*%
X55840000Y-130170000D03*
%TO.P,J5,2*%
%TO.N,/Gate2_In*%
X56870000Y-132710000D03*
%TO.P,J5,3*%
%TO.N,/Gate3_In*%
X57870000Y-130170000D03*
%TO.P,J5,4*%
%TO.N,/Gate4_In*%
X58890000Y-132710000D03*
%TO.P,J5,5*%
%TO.N,unconnected-(J5-Pad5)*%
X59900000Y-130170000D03*
%TO.P,J5,6*%
%TO.N,unconnected-(J5-Pad6)*%
X60920000Y-132710000D03*
%TO.P,J5,7*%
%TO.N,unconnected-(J5-Pad7)*%
X61930000Y-130170000D03*
D16*
%TO.P,J5,8*%
%TO.N,unconnected-(J5-Pad8)*%
X62950000Y-132710000D03*
%TD*%
D17*
%TO.N,GND*%
X63400000Y-82300000D03*
X64200000Y-88200000D03*
%TO.N,/Led3_Out*%
X55585785Y-146164215D03*
%TD*%
D18*
%TO.N,/Led1_Out*%
X66400000Y-45230000D02*
X68279502Y-47109502D01*
X68279502Y-136820498D02*
X66400000Y-138700000D01*
X68279502Y-47109502D02*
X68279502Y-136820498D01*
X66400000Y-138700000D02*
X58360000Y-138700000D01*
X58360000Y-138700000D02*
X56860000Y-137200000D01*
%TO.N,/Led2_Out*%
X64480000Y-137200000D02*
X66550000Y-137200000D01*
X64150000Y-49400000D02*
X64150000Y-47650000D01*
X67830001Y-135919999D02*
X67830001Y-53080001D01*
X64120000Y-47650000D02*
X62970000Y-46500000D01*
X67830001Y-53080001D02*
X64150000Y-49400000D01*
X64150000Y-47650000D02*
X64120000Y-47650000D01*
X66550000Y-137200000D02*
X67830001Y-135919999D01*
%TO.N,/Led3_Out*%
X54500000Y-47730000D02*
X54500000Y-49350000D01*
X54500000Y-49350000D02*
X51000000Y-52850000D01*
X55464215Y-146164215D02*
X55585785Y-146164215D01*
X51000000Y-52850000D02*
X51000000Y-141700000D01*
X51000000Y-141700000D02*
X55464215Y-146164215D01*
X55730000Y-46500000D02*
X54500000Y-47730000D01*
%TO.N,/Led4_Out*%
X52300000Y-45230000D02*
X50500000Y-47030000D01*
X50500000Y-47030000D02*
X50500000Y-142520000D01*
X50500000Y-142520000D02*
X60680000Y-152700000D01*
D19*
%TO.N,+3.3VA*%
X55300000Y-107000000D02*
X55300000Y-100100000D01*
X52400000Y-75000000D02*
X56900000Y-79500000D01*
X58600000Y-81200000D02*
X58600000Y-96800000D01*
X55300000Y-100100000D02*
X56900000Y-98500000D01*
X57600000Y-116800000D02*
X57600000Y-109300000D01*
X56900000Y-61500000D02*
X55900000Y-61500000D01*
X56900000Y-79500000D02*
X58600000Y-81200000D01*
X52200000Y-65200000D02*
X52200000Y-75000000D01*
X58600000Y-96800000D02*
X56900000Y-98500000D01*
X56900000Y-117500000D02*
X57600000Y-116800000D01*
X57600000Y-109300000D02*
X55300000Y-107000000D01*
X52200000Y-75000000D02*
X52400000Y-75000000D01*
X55900000Y-61500000D02*
X52200000Y-65200000D01*
D18*
%TO.N,/Env1_Out*%
X63630000Y-143480000D02*
X63630000Y-140930000D01*
X62100000Y-139400000D02*
X56520000Y-139400000D01*
X63630000Y-140930000D02*
X62100000Y-139400000D01*
X62880000Y-144230000D02*
X63630000Y-143480000D01*
X56520000Y-139400000D02*
X54320000Y-137200000D01*
%TO.N,/Gate1_In*%
X66900000Y-119190000D02*
X66900000Y-87900000D01*
X55920000Y-130170000D02*
X66900000Y-119190000D01*
X64200000Y-85200000D02*
X64200000Y-77400000D01*
X66900000Y-87900000D02*
X64200000Y-85200000D01*
X64200000Y-77400000D02*
X66600000Y-75000000D01*
%TO.N,/Mode_Btn*%
X56900000Y-84000000D02*
X55520000Y-82620000D01*
X55520000Y-82620000D02*
X52200000Y-82620000D01*
%TD*%
%TA.AperFunction,Conductor*%
%TO.N,GND*%
G36*
X60389130Y-46942892D02*
G01*
X60412173Y-46950000D01*
X60412174Y-46950000D01*
X60513724Y-46950000D01*
X60589222Y-46938620D01*
X60659560Y-46948244D01*
X60713531Y-46994371D01*
X60733997Y-47062354D01*
X60734000Y-47063212D01*
X60734000Y-47908000D01*
X61428585Y-47908000D01*
X61428597Y-47907999D01*
X61489093Y-47901494D01*
X61625964Y-47850444D01*
X61625965Y-47850444D01*
X61742904Y-47762904D01*
X61830444Y-47645965D01*
X61853877Y-47583138D01*
X61896423Y-47526302D01*
X61962943Y-47501491D01*
X62032318Y-47516582D01*
X62058356Y-47536929D01*
X62058946Y-47536289D01*
X62062778Y-47539817D01*
X62118436Y-47583137D01*
X62246983Y-47683190D01*
X62452273Y-47794287D01*
X62673049Y-47870080D01*
X62903288Y-47908500D01*
X62903292Y-47908500D01*
X63136708Y-47908500D01*
X63136712Y-47908500D01*
X63366951Y-47870080D01*
X63366954Y-47870078D01*
X63369159Y-47869711D01*
X63439643Y-47878228D01*
X63478919Y-47904824D01*
X63479521Y-47905425D01*
X63513598Y-47967708D01*
X63516500Y-47994594D01*
X63516500Y-49316146D01*
X63514751Y-49331988D01*
X63515044Y-49332016D01*
X63514297Y-49339908D01*
X63516499Y-49409957D01*
X63516499Y-49439861D01*
X63517378Y-49446821D01*
X63517844Y-49452733D01*
X63519326Y-49499888D01*
X63519327Y-49499893D01*
X63524977Y-49519339D01*
X63528986Y-49538697D01*
X63531525Y-49558793D01*
X63531526Y-49558799D01*
X63548893Y-49602662D01*
X63550816Y-49608279D01*
X63563982Y-49653593D01*
X63574294Y-49671031D01*
X63582988Y-49688779D01*
X63590444Y-49707609D01*
X63590450Y-49707620D01*
X63618177Y-49745783D01*
X63621437Y-49750746D01*
X63645460Y-49791365D01*
X63659779Y-49805684D01*
X63672617Y-49820714D01*
X63682156Y-49833843D01*
X63684528Y-49837107D01*
X63690443Y-49842000D01*
X63720886Y-49867185D01*
X63725267Y-49871171D01*
X65446009Y-51591913D01*
X67159596Y-53305500D01*
X67193622Y-53367812D01*
X67196501Y-53394595D01*
X67196501Y-73515500D01*
X67176499Y-73583621D01*
X67122843Y-73630114D01*
X67070501Y-73641500D01*
X65957893Y-73641500D01*
X65889772Y-73621498D01*
X65843279Y-73567842D01*
X65833175Y-73497568D01*
X65844887Y-73459772D01*
X65891059Y-73366145D01*
X65986224Y-73085797D01*
X66043983Y-72795426D01*
X66063346Y-72500000D01*
X66043983Y-72204574D01*
X65986224Y-71914203D01*
X65891059Y-71633855D01*
X65760115Y-71368327D01*
X65595633Y-71122162D01*
X65400427Y-70899573D01*
X65177838Y-70704367D01*
X65177830Y-70704361D01*
X65177827Y-70704359D01*
X64931670Y-70539883D01*
X64666151Y-70408944D01*
X64666145Y-70408941D01*
X64666140Y-70408939D01*
X64666137Y-70408938D01*
X64385805Y-70313778D01*
X64385799Y-70313776D01*
X64385797Y-70313776D01*
X64288566Y-70294435D01*
X64095435Y-70256018D01*
X64095421Y-70256016D01*
X63800003Y-70236654D01*
X63799997Y-70236654D01*
X63504578Y-70256016D01*
X63504564Y-70256018D01*
X63262818Y-70304105D01*
X63214203Y-70313776D01*
X63214201Y-70313776D01*
X63214194Y-70313778D01*
X62933862Y-70408938D01*
X62933848Y-70408944D01*
X62668329Y-70539883D01*
X62422172Y-70704359D01*
X62422165Y-70704364D01*
X62422162Y-70704367D01*
X62199573Y-70899573D01*
X62004367Y-71122162D01*
X62004364Y-71122165D01*
X62004359Y-71122172D01*
X61839883Y-71368329D01*
X61708944Y-71633848D01*
X61708938Y-71633862D01*
X61613778Y-71914194D01*
X61613776Y-71914204D01*
X61556018Y-72204564D01*
X61556016Y-72204578D01*
X61536654Y-72499996D01*
X61536654Y-72500003D01*
X61556016Y-72795421D01*
X61556018Y-72795435D01*
X61613776Y-73085795D01*
X61613778Y-73085805D01*
X61708938Y-73366137D01*
X61708944Y-73366151D01*
X61839883Y-73631670D01*
X62004359Y-73877827D01*
X62004361Y-73877830D01*
X62004367Y-73877838D01*
X62199573Y-74100427D01*
X62422162Y-74295633D01*
X62668327Y-74460115D01*
X62933855Y-74591059D01*
X63214203Y-74686224D01*
X63504574Y-74743983D01*
X63673388Y-74755047D01*
X63799997Y-74763346D01*
X63800000Y-74763346D01*
X63800003Y-74763346D01*
X63910784Y-74756084D01*
X64095426Y-74743983D01*
X64385797Y-74686224D01*
X64666145Y-74591059D01*
X64873457Y-74488824D01*
X64931670Y-74460117D01*
X65045497Y-74384060D01*
X65113250Y-74362845D01*
X65181717Y-74381628D01*
X65229160Y-74434445D01*
X65241499Y-74488825D01*
X65241499Y-75410405D01*
X65221497Y-75478526D01*
X65204594Y-75499500D01*
X63811336Y-76892757D01*
X63798901Y-76902721D01*
X63799089Y-76902948D01*
X63792980Y-76908001D01*
X63745016Y-76959078D01*
X63723866Y-76980227D01*
X63719560Y-76985777D01*
X63715714Y-76990279D01*
X63683417Y-77024674D01*
X63683411Y-77024683D01*
X63673651Y-77042435D01*
X63662803Y-77058950D01*
X63650386Y-77074958D01*
X63631645Y-77118264D01*
X63629034Y-77123594D01*
X63606305Y-77164939D01*
X63606303Y-77164944D01*
X63601267Y-77184559D01*
X63594864Y-77203262D01*
X63586819Y-77221852D01*
X63579437Y-77268456D01*
X63578233Y-77274268D01*
X63566500Y-77319968D01*
X63566500Y-77340223D01*
X63564949Y-77359933D01*
X63561780Y-77379942D01*
X63561780Y-77379943D01*
X63566220Y-77426917D01*
X63566500Y-77432850D01*
X63566500Y-85116146D01*
X63564751Y-85131988D01*
X63565044Y-85132016D01*
X63564298Y-85139907D01*
X63566500Y-85209957D01*
X63566500Y-85239851D01*
X63566501Y-85239872D01*
X63567378Y-85246820D01*
X63567844Y-85252732D01*
X63569326Y-85299888D01*
X63569327Y-85299893D01*
X63574977Y-85319339D01*
X63578986Y-85338697D01*
X63581525Y-85358793D01*
X63581526Y-85358799D01*
X63598893Y-85402662D01*
X63600816Y-85408279D01*
X63613982Y-85453593D01*
X63624294Y-85471031D01*
X63632988Y-85488779D01*
X63640444Y-85507609D01*
X63640450Y-85507620D01*
X63668177Y-85545783D01*
X63671437Y-85550746D01*
X63695460Y-85591365D01*
X63709779Y-85605684D01*
X63722617Y-85620714D01*
X63732156Y-85633843D01*
X63734528Y-85637107D01*
X63762794Y-85660491D01*
X63770886Y-85667185D01*
X63775267Y-85671171D01*
X66229595Y-88125500D01*
X66263620Y-88187810D01*
X66266499Y-88214593D01*
X66266499Y-91043939D01*
X66246497Y-91112060D01*
X66192841Y-91158553D01*
X66122567Y-91168657D01*
X66057987Y-91139163D01*
X66019603Y-91079437D01*
X66016920Y-91068521D01*
X66012030Y-91043939D01*
X65986224Y-90914203D01*
X65891059Y-90633855D01*
X65760115Y-90368327D01*
X65595633Y-90122162D01*
X65400427Y-89899573D01*
X65177838Y-89704367D01*
X65177830Y-89704361D01*
X65177827Y-89704359D01*
X64931670Y-89539883D01*
X64666151Y-89408944D01*
X64666145Y-89408941D01*
X64666140Y-89408939D01*
X64666137Y-89408938D01*
X64385805Y-89313778D01*
X64385799Y-89313776D01*
X64385797Y-89313776D01*
X64288566Y-89294435D01*
X64095435Y-89256018D01*
X64095421Y-89256016D01*
X63800003Y-89236654D01*
X63799997Y-89236654D01*
X63504578Y-89256016D01*
X63504564Y-89256018D01*
X63262818Y-89304105D01*
X63214203Y-89313776D01*
X63214201Y-89313776D01*
X63214194Y-89313778D01*
X62933862Y-89408938D01*
X62933848Y-89408944D01*
X62668329Y-89539883D01*
X62422172Y-89704359D01*
X62422165Y-89704364D01*
X62422162Y-89704367D01*
X62199573Y-89899573D01*
X62004367Y-90122162D01*
X62004364Y-90122165D01*
X62004359Y-90122172D01*
X61839883Y-90368329D01*
X61708944Y-90633848D01*
X61708938Y-90633862D01*
X61613778Y-90914194D01*
X61613776Y-90914204D01*
X61556018Y-91204564D01*
X61556016Y-91204578D01*
X61536654Y-91499996D01*
X61536654Y-91500003D01*
X61556016Y-91795421D01*
X61556018Y-91795435D01*
X61613776Y-92085795D01*
X61613778Y-92085805D01*
X61708938Y-92366137D01*
X61708944Y-92366151D01*
X61839883Y-92631670D01*
X62004359Y-92877827D01*
X62004361Y-92877830D01*
X62004367Y-92877838D01*
X62199573Y-93100427D01*
X62422162Y-93295633D01*
X62668327Y-93460115D01*
X62933855Y-93591059D01*
X63214203Y-93686224D01*
X63504574Y-93743983D01*
X63673388Y-93755047D01*
X63799997Y-93763346D01*
X63800000Y-93763346D01*
X63800003Y-93763346D01*
X63910784Y-93756084D01*
X64095426Y-93743983D01*
X64385797Y-93686224D01*
X64666145Y-93591059D01*
X64931673Y-93460115D01*
X65177838Y-93295633D01*
X65400427Y-93100427D01*
X65595633Y-92877838D01*
X65760115Y-92631673D01*
X65891059Y-92366145D01*
X65986224Y-92085797D01*
X66016920Y-91931477D01*
X66049828Y-91868569D01*
X66111523Y-91833437D01*
X66182418Y-91837237D01*
X66240004Y-91878763D01*
X66265998Y-91944830D01*
X66266499Y-91956060D01*
X66266499Y-110043942D01*
X66246497Y-110112063D01*
X66192841Y-110158556D01*
X66122567Y-110168660D01*
X66057987Y-110139166D01*
X66019603Y-110079440D01*
X66016920Y-110068523D01*
X65986224Y-109914203D01*
X65891059Y-109633855D01*
X65760115Y-109368327D01*
X65631326Y-109175580D01*
X65595640Y-109122172D01*
X65595638Y-109122170D01*
X65595633Y-109122162D01*
X65400427Y-108899573D01*
X65177838Y-108704367D01*
X65177830Y-108704361D01*
X65177827Y-108704359D01*
X64931670Y-108539883D01*
X64666151Y-108408944D01*
X64666145Y-108408941D01*
X64666140Y-108408939D01*
X64666137Y-108408938D01*
X64385805Y-108313778D01*
X64385799Y-108313776D01*
X64385797Y-108313776D01*
X64288566Y-108294435D01*
X64095435Y-108256018D01*
X64095421Y-108256016D01*
X63800003Y-108236654D01*
X63799997Y-108236654D01*
X63504578Y-108256016D01*
X63504564Y-108256018D01*
X63262818Y-108304105D01*
X63214203Y-108313776D01*
X63214201Y-108313776D01*
X63214194Y-108313778D01*
X62933862Y-108408938D01*
X62933848Y-108408944D01*
X62668329Y-108539883D01*
X62422172Y-108704359D01*
X62422165Y-108704364D01*
X62422162Y-108704367D01*
X62199573Y-108899573D01*
X62004367Y-109122162D01*
X62004364Y-109122165D01*
X62004359Y-109122172D01*
X61839883Y-109368329D01*
X61708944Y-109633848D01*
X61708938Y-109633862D01*
X61613778Y-109914194D01*
X61613776Y-109914204D01*
X61556018Y-110204564D01*
X61556016Y-110204578D01*
X61536654Y-110499996D01*
X61536654Y-110500003D01*
X61556016Y-110795421D01*
X61556018Y-110795435D01*
X61613776Y-111085795D01*
X61613778Y-111085805D01*
X61708938Y-111366137D01*
X61708944Y-111366151D01*
X61839883Y-111631670D01*
X62004359Y-111877827D01*
X62004361Y-111877830D01*
X62004367Y-111877838D01*
X62199573Y-112100427D01*
X62422162Y-112295633D01*
X62668327Y-112460115D01*
X62933855Y-112591059D01*
X63214203Y-112686224D01*
X63504574Y-112743983D01*
X63673388Y-112755047D01*
X63799997Y-112763346D01*
X63800000Y-112763346D01*
X63800003Y-112763346D01*
X63910784Y-112756084D01*
X64095426Y-112743983D01*
X64385797Y-112686224D01*
X64666145Y-112591059D01*
X64931673Y-112460115D01*
X65177838Y-112295633D01*
X65400427Y-112100427D01*
X65595633Y-111877838D01*
X65760115Y-111631673D01*
X65891059Y-111366145D01*
X65986224Y-111085797D01*
X66016921Y-110931473D01*
X66049827Y-110868566D01*
X66111522Y-110833434D01*
X66182417Y-110837234D01*
X66240003Y-110878760D01*
X66265997Y-110944826D01*
X66266499Y-110956057D01*
X66266499Y-118875404D01*
X66246497Y-118943525D01*
X66229594Y-118964499D01*
X56275515Y-128918578D01*
X56213203Y-128952604D01*
X56153809Y-128951190D01*
X56059371Y-128925885D01*
X55840000Y-128906693D01*
X55620629Y-128925885D01*
X55407926Y-128982879D01*
X55407920Y-128982881D01*
X55208346Y-129075944D01*
X55027965Y-129202248D01*
X55027959Y-129202253D01*
X54872253Y-129357959D01*
X54872248Y-129357965D01*
X54745944Y-129538346D01*
X54652881Y-129737920D01*
X54652880Y-129737924D01*
X54595885Y-129950629D01*
X54576693Y-130170000D01*
X54595885Y-130389371D01*
X54652880Y-130602076D01*
X54745944Y-130801654D01*
X54872250Y-130982038D01*
X54872251Y-130982038D01*
X54872254Y-130982042D01*
X55027957Y-131137745D01*
X55027961Y-131137748D01*
X55027962Y-131137749D01*
X55208346Y-131264056D01*
X55407924Y-131357120D01*
X55620629Y-131414115D01*
X55840000Y-131433307D01*
X56059371Y-131414115D01*
X56125975Y-131396268D01*
X56196951Y-131397957D01*
X56255747Y-131437750D01*
X56283696Y-131503014D01*
X56271923Y-131573028D01*
X56230858Y-131621187D01*
X56057965Y-131742248D01*
X56057959Y-131742253D01*
X55902253Y-131897959D01*
X55902248Y-131897965D01*
X55775944Y-132078346D01*
X55682881Y-132277920D01*
X55682879Y-132277926D01*
X55625885Y-132490629D01*
X55606693Y-132709999D01*
X55625885Y-132929370D01*
X55682879Y-133142073D01*
X55682881Y-133142079D01*
X55775942Y-133341650D01*
X55775944Y-133341654D01*
X55860000Y-133461697D01*
X55902251Y-133522038D01*
X55902254Y-133522042D01*
X56057957Y-133677745D01*
X56057961Y-133677748D01*
X56057962Y-133677749D01*
X56238346Y-133804056D01*
X56437924Y-133897120D01*
X56650629Y-133954115D01*
X56870000Y-133973307D01*
X57089371Y-133954115D01*
X57302076Y-133897120D01*
X57501654Y-133804056D01*
X57682038Y-133677749D01*
X57686743Y-133673044D01*
X57790905Y-133568883D01*
X57853217Y-133534857D01*
X57924032Y-133539922D01*
X57969095Y-133568883D01*
X58077957Y-133677745D01*
X58077961Y-133677748D01*
X58077962Y-133677749D01*
X58258346Y-133804056D01*
X58457924Y-133897120D01*
X58670629Y-133954115D01*
X58890000Y-133973307D01*
X59109371Y-133954115D01*
X59322076Y-133897120D01*
X59521654Y-133804056D01*
X59702038Y-133677749D01*
X59706743Y-133673044D01*
X59815905Y-133563883D01*
X59878217Y-133529857D01*
X59949032Y-133534922D01*
X59994095Y-133563883D01*
X60107957Y-133677745D01*
X60107961Y-133677748D01*
X60107962Y-133677749D01*
X60288346Y-133804056D01*
X60487924Y-133897120D01*
X60700629Y-133954115D01*
X60920000Y-133973307D01*
X61139371Y-133954115D01*
X61352076Y-133897120D01*
X61551654Y-133804056D01*
X61629277Y-133749703D01*
X61696549Y-133727016D01*
X61765409Y-133744301D01*
X61802413Y-133777407D01*
X61836739Y-133823260D01*
X61836739Y-133823261D01*
X61953792Y-133910887D01*
X61953794Y-133910888D01*
X61953796Y-133910889D01*
X62012875Y-133932924D01*
X62090795Y-133961988D01*
X62090803Y-133961990D01*
X62151350Y-133968499D01*
X62151355Y-133968499D01*
X62151362Y-133968500D01*
X62151368Y-133968500D01*
X63748632Y-133968500D01*
X63748638Y-133968500D01*
X63795534Y-133963458D01*
X63865402Y-133976063D01*
X63917364Y-134024441D01*
X63930906Y-134056866D01*
X63970204Y-134207184D01*
X64024724Y-134335479D01*
X64077577Y-134459852D01*
X64220595Y-134694196D01*
X64396209Y-134905218D01*
X64396211Y-134905220D01*
X64396213Y-134905222D01*
X64600666Y-135088414D01*
X64600672Y-135088419D01*
X64600677Y-135088423D01*
X64829641Y-135239904D01*
X65078221Y-135356433D01*
X65341119Y-135435527D01*
X65341122Y-135435527D01*
X65341124Y-135435528D01*
X65612727Y-135475500D01*
X65612731Y-135475500D01*
X65818549Y-135475500D01*
X65850967Y-135473127D01*
X66023805Y-135460477D01*
X66291775Y-135400784D01*
X66548198Y-135302711D01*
X66787609Y-135168347D01*
X66993493Y-135009367D01*
X67059635Y-134983565D01*
X67129227Y-134997618D01*
X67180174Y-135047064D01*
X67196501Y-135109096D01*
X67196501Y-135605403D01*
X67176499Y-135673524D01*
X67159597Y-135694498D01*
X66324498Y-136529596D01*
X66262188Y-136563620D01*
X66235405Y-136566500D01*
X65964500Y-136566500D01*
X65896379Y-136546498D01*
X65849886Y-136492842D01*
X65838500Y-136440500D01*
X65838500Y-136301367D01*
X65838499Y-136301350D01*
X65831990Y-136240803D01*
X65831988Y-136240795D01*
X65780889Y-136103797D01*
X65780887Y-136103792D01*
X65693261Y-135986738D01*
X65576207Y-135899112D01*
X65576202Y-135899110D01*
X65439204Y-135848011D01*
X65439196Y-135848009D01*
X65378649Y-135841500D01*
X65378638Y-135841500D01*
X63581362Y-135841500D01*
X63581350Y-135841500D01*
X63520803Y-135848009D01*
X63520795Y-135848011D01*
X63383797Y-135899110D01*
X63383792Y-135899112D01*
X63266738Y-135986738D01*
X63179112Y-136103792D01*
X63179111Y-136103795D01*
X63135000Y-136222058D01*
X63092453Y-136278893D01*
X63025932Y-136303703D01*
X62956558Y-136288611D01*
X62924246Y-136263363D01*
X62863240Y-136197094D01*
X62863239Y-136197093D01*
X62863237Y-136197091D01*
X62743372Y-136103796D01*
X62685576Y-136058811D01*
X62487574Y-135951658D01*
X62487572Y-135951657D01*
X62487571Y-135951656D01*
X62274639Y-135878557D01*
X62274630Y-135878555D01*
X62197029Y-135865606D01*
X62052569Y-135841500D01*
X61827431Y-135841500D01*
X61682971Y-135865606D01*
X61605369Y-135878555D01*
X61605360Y-135878557D01*
X61392428Y-135951656D01*
X61392426Y-135951658D01*
X61194426Y-136058810D01*
X61194424Y-136058811D01*
X61016762Y-136197091D01*
X60864279Y-136362729D01*
X60775183Y-136499101D01*
X60721179Y-136545189D01*
X60650831Y-136554764D01*
X60586474Y-136524786D01*
X60564217Y-136499100D01*
X60475327Y-136363044D01*
X60322902Y-136197465D01*
X60145301Y-136059232D01*
X60145300Y-136059231D01*
X59947371Y-135952117D01*
X59947369Y-135952116D01*
X59734512Y-135879043D01*
X59734501Y-135879040D01*
X59653999Y-135865606D01*
X59654000Y-136585966D01*
X59633998Y-136654087D01*
X59580342Y-136700580D01*
X59510069Y-136710683D01*
X59510068Y-136710683D01*
X59435768Y-136700000D01*
X59435763Y-136700000D01*
X59364237Y-136700000D01*
X59364231Y-136700000D01*
X59289932Y-136710683D01*
X59219658Y-136700580D01*
X59166002Y-136654087D01*
X59146000Y-136585966D01*
X59146000Y-135865607D01*
X59145999Y-135865606D01*
X59065498Y-135879040D01*
X59065487Y-135879043D01*
X58852630Y-135952116D01*
X58852628Y-135952117D01*
X58654699Y-136059231D01*
X58654698Y-136059232D01*
X58477097Y-136197465D01*
X58324670Y-136363045D01*
X58235780Y-136499101D01*
X58181776Y-136545189D01*
X58111428Y-136554764D01*
X58047071Y-136524786D01*
X58024816Y-136499101D01*
X57985884Y-136439511D01*
X57935724Y-136362734D01*
X57935720Y-136362729D01*
X57806221Y-136222058D01*
X57783240Y-136197094D01*
X57783239Y-136197093D01*
X57783237Y-136197091D01*
X57663372Y-136103796D01*
X57605576Y-136058811D01*
X57407574Y-135951658D01*
X57407572Y-135951657D01*
X57407571Y-135951656D01*
X57194639Y-135878557D01*
X57194630Y-135878555D01*
X57117029Y-135865606D01*
X56972569Y-135841500D01*
X56747431Y-135841500D01*
X56602971Y-135865606D01*
X56525369Y-135878555D01*
X56525360Y-135878557D01*
X56312428Y-135951656D01*
X56312426Y-135951658D01*
X56114426Y-136058810D01*
X56114424Y-136058811D01*
X55936762Y-136197091D01*
X55784279Y-136362729D01*
X55695483Y-136498643D01*
X55641479Y-136544731D01*
X55571131Y-136554306D01*
X55506774Y-136524329D01*
X55484517Y-136498643D01*
X55395720Y-136362729D01*
X55266221Y-136222058D01*
X55243240Y-136197094D01*
X55243239Y-136197093D01*
X55243237Y-136197091D01*
X55123372Y-136103796D01*
X55065576Y-136058811D01*
X54867574Y-135951658D01*
X54867572Y-135951657D01*
X54867571Y-135951656D01*
X54654639Y-135878557D01*
X54654630Y-135878555D01*
X54577029Y-135865606D01*
X54432569Y-135841500D01*
X54207431Y-135841500D01*
X54062971Y-135865606D01*
X53985369Y-135878555D01*
X53985360Y-135878557D01*
X53772428Y-135951656D01*
X53772426Y-135951658D01*
X53574426Y-136058810D01*
X53574424Y-136058811D01*
X53396762Y-136197091D01*
X53244279Y-136362729D01*
X53244275Y-136362734D01*
X53121141Y-136551206D01*
X53030703Y-136757386D01*
X53030702Y-136757387D01*
X52975437Y-136975624D01*
X52975436Y-136975630D01*
X52975436Y-136975632D01*
X52956844Y-137200000D01*
X52974232Y-137409844D01*
X52975437Y-137424375D01*
X53030702Y-137642612D01*
X53030703Y-137642613D01*
X53121141Y-137848793D01*
X53244275Y-138037265D01*
X53244279Y-138037270D01*
X53396762Y-138202908D01*
X53451331Y-138245381D01*
X53574424Y-138341189D01*
X53772426Y-138448342D01*
X53772427Y-138448342D01*
X53772428Y-138448343D01*
X53884227Y-138486723D01*
X53985365Y-138521444D01*
X54207431Y-138558500D01*
X54207435Y-138558500D01*
X54432565Y-138558500D01*
X54432569Y-138558500D01*
X54654635Y-138521444D01*
X54654651Y-138521438D01*
X54657751Y-138520654D01*
X54659072Y-138520703D01*
X54659777Y-138520586D01*
X54659801Y-138520730D01*
X54728698Y-138523311D01*
X54777794Y-138553698D01*
X55407301Y-139183206D01*
X56012755Y-139788660D01*
X56022723Y-139801102D01*
X56022951Y-139800914D01*
X56027998Y-139807015D01*
X56028000Y-139807018D01*
X56028002Y-139807020D01*
X56028003Y-139807021D01*
X56079079Y-139854983D01*
X56100224Y-139876130D01*
X56100228Y-139876133D01*
X56100230Y-139876135D01*
X56105782Y-139880442D01*
X56110269Y-139884273D01*
X56132959Y-139905581D01*
X56144677Y-139916585D01*
X56144679Y-139916586D01*
X56162428Y-139926343D01*
X56178953Y-139937198D01*
X56194959Y-139949614D01*
X56236686Y-139967670D01*
X56238262Y-139968352D01*
X56243583Y-139970958D01*
X56284940Y-139993695D01*
X56284948Y-139993697D01*
X56304558Y-139998732D01*
X56323267Y-140005137D01*
X56341855Y-140013181D01*
X56388477Y-140020564D01*
X56394262Y-140021763D01*
X56439970Y-140033500D01*
X56460224Y-140033500D01*
X56479934Y-140035051D01*
X56482141Y-140035400D01*
X56499943Y-140038220D01*
X56533870Y-140035012D01*
X56546917Y-140033780D01*
X56552850Y-140033500D01*
X61785405Y-140033500D01*
X61853526Y-140053502D01*
X61874500Y-140070405D01*
X62015693Y-140211598D01*
X62049719Y-140273910D01*
X62044654Y-140344725D01*
X62002107Y-140401561D01*
X61935587Y-140426372D01*
X61932354Y-140426487D01*
X61710629Y-140445885D01*
X61497926Y-140502879D01*
X61497920Y-140502881D01*
X61298346Y-140595944D01*
X61117965Y-140722248D01*
X61009095Y-140831118D01*
X60946783Y-140865143D01*
X60875967Y-140860077D01*
X60830905Y-140831117D01*
X60722042Y-140722254D01*
X60722038Y-140722251D01*
X60651676Y-140672983D01*
X60541654Y-140595944D01*
X60541650Y-140595942D01*
X60342079Y-140502881D01*
X60342073Y-140502879D01*
X60252178Y-140478791D01*
X60129371Y-140445885D01*
X59910000Y-140426693D01*
X59690629Y-140445885D01*
X59477926Y-140502879D01*
X59477920Y-140502881D01*
X59278346Y-140595944D01*
X59097965Y-140722248D01*
X58984095Y-140836118D01*
X58921783Y-140870143D01*
X58850967Y-140865077D01*
X58805905Y-140836117D01*
X58692042Y-140722254D01*
X58692038Y-140722251D01*
X58621676Y-140672983D01*
X58511654Y-140595944D01*
X58511650Y-140595942D01*
X58312079Y-140502881D01*
X58312073Y-140502879D01*
X58222178Y-140478791D01*
X58099371Y-140445885D01*
X57880000Y-140426693D01*
X57660629Y-140445885D01*
X57447926Y-140502879D01*
X57447920Y-140502881D01*
X57248347Y-140595943D01*
X57170723Y-140650296D01*
X57103449Y-140672983D01*
X57034588Y-140655697D01*
X56997586Y-140622591D01*
X56963261Y-140576739D01*
X56963260Y-140576738D01*
X56846207Y-140489112D01*
X56846202Y-140489110D01*
X56709204Y-140438011D01*
X56709196Y-140438009D01*
X56648649Y-140431500D01*
X56648638Y-140431500D01*
X55051362Y-140431500D01*
X55051357Y-140431500D01*
X55051347Y-140431501D01*
X55004463Y-140436541D01*
X54934595Y-140423935D01*
X54882633Y-140375555D01*
X54869093Y-140343132D01*
X54829796Y-140192818D01*
X54722423Y-139940148D01*
X54579405Y-139705804D01*
X54403791Y-139494782D01*
X54403787Y-139494779D01*
X54403786Y-139494777D01*
X54199333Y-139311585D01*
X54199320Y-139311575D01*
X53970359Y-139160096D01*
X53878217Y-139116902D01*
X53721779Y-139043567D01*
X53562223Y-138995564D01*
X53458875Y-138964471D01*
X53187272Y-138924500D01*
X53187269Y-138924500D01*
X52981453Y-138924500D01*
X52981451Y-138924500D01*
X52776191Y-138939523D01*
X52508231Y-138999214D01*
X52508219Y-138999218D01*
X52251801Y-139097289D01*
X52012397Y-139231649D01*
X52012393Y-139231651D01*
X51913602Y-139307935D01*
X51854592Y-139353502D01*
X51836508Y-139367466D01*
X51770366Y-139393268D01*
X51700774Y-139379215D01*
X51649827Y-139329768D01*
X51633500Y-139267737D01*
X51633500Y-135131106D01*
X51653502Y-135062985D01*
X51707158Y-135016492D01*
X51777432Y-135006388D01*
X51842012Y-135035882D01*
X51843583Y-135037266D01*
X51900665Y-135088413D01*
X51900671Y-135088418D01*
X51900677Y-135088423D01*
X52129641Y-135239904D01*
X52378221Y-135356433D01*
X52641119Y-135435527D01*
X52641122Y-135435527D01*
X52641124Y-135435528D01*
X52912727Y-135475500D01*
X52912731Y-135475500D01*
X53118549Y-135475500D01*
X53150967Y-135473127D01*
X53323805Y-135460477D01*
X53591775Y-135400784D01*
X53848198Y-135302711D01*
X54087609Y-135168347D01*
X54304904Y-135000557D01*
X54495454Y-134802916D01*
X54655196Y-134579637D01*
X54780727Y-134335479D01*
X54780727Y-134335478D01*
X54780729Y-134335475D01*
X54869368Y-134075651D01*
X54869370Y-134075646D01*
X54919236Y-133805674D01*
X54929262Y-133531320D01*
X54908393Y-133341650D01*
X54899237Y-133258433D01*
X54829795Y-132992815D01*
X54802834Y-132929370D01*
X54722423Y-132740148D01*
X54579405Y-132505804D01*
X54403791Y-132294782D01*
X54403787Y-132294779D01*
X54403786Y-132294777D01*
X54199333Y-132111585D01*
X54199320Y-132111575D01*
X53970359Y-131960096D01*
X53866399Y-131911362D01*
X53721779Y-131843567D01*
X53562223Y-131795564D01*
X53458875Y-131764471D01*
X53187272Y-131724500D01*
X53187269Y-131724500D01*
X52981453Y-131724500D01*
X52981451Y-131724500D01*
X52776191Y-131739523D01*
X52508231Y-131799214D01*
X52508219Y-131799218D01*
X52251801Y-131897289D01*
X52012397Y-132031649D01*
X52012393Y-132031651D01*
X51836507Y-132167466D01*
X51770364Y-132193268D01*
X51700773Y-132179214D01*
X51649826Y-132129768D01*
X51633500Y-132067740D01*
X51633500Y-100204000D01*
X51653502Y-100135879D01*
X51707158Y-100089386D01*
X51759500Y-100078000D01*
X52246000Y-100078000D01*
X52246000Y-99233296D01*
X52266002Y-99165175D01*
X52319658Y-99118682D01*
X52389932Y-99108578D01*
X52409130Y-99112892D01*
X52432173Y-99120000D01*
X52432174Y-99120000D01*
X52533724Y-99120000D01*
X52609222Y-99108620D01*
X52679560Y-99118244D01*
X52733531Y-99164371D01*
X52753997Y-99232354D01*
X52754000Y-99233212D01*
X52754000Y-100078000D01*
X53448585Y-100078000D01*
X53448597Y-100077999D01*
X53509093Y-100071494D01*
X53645964Y-100020444D01*
X53645965Y-100020444D01*
X53762904Y-99932904D01*
X53850444Y-99815965D01*
X53850444Y-99815964D01*
X53901494Y-99679093D01*
X53907999Y-99618597D01*
X53908000Y-99618585D01*
X53908000Y-98924000D01*
X53061598Y-98924000D01*
X52993477Y-98903998D01*
X52946984Y-98850342D01*
X52936880Y-98780068D01*
X52938757Y-98769964D01*
X52950233Y-98719681D01*
X52953810Y-98704008D01*
X52943673Y-98568735D01*
X52943672Y-98568733D01*
X52942967Y-98559319D01*
X52944635Y-98559193D01*
X52948311Y-98499177D01*
X52990275Y-98441909D01*
X53056538Y-98416419D01*
X53066811Y-98416000D01*
X53908000Y-98416000D01*
X53908000Y-97721414D01*
X53907999Y-97721402D01*
X53901494Y-97660906D01*
X53850444Y-97524035D01*
X53850444Y-97524034D01*
X53762904Y-97407095D01*
X53645965Y-97319555D01*
X53645960Y-97319553D01*
X53578459Y-97294376D01*
X53521623Y-97251829D01*
X53496813Y-97185309D01*
X53511905Y-97115935D01*
X53529784Y-97090991D01*
X53615314Y-96998083D01*
X53742984Y-96802669D01*
X53836749Y-96588907D01*
X53894051Y-96362626D01*
X53913327Y-96130000D01*
X53894051Y-95897374D01*
X53836749Y-95671093D01*
X53742984Y-95457331D01*
X53742983Y-95457330D01*
X53615314Y-95261916D01*
X53457225Y-95090186D01*
X53457221Y-95090182D01*
X53365118Y-95018496D01*
X53273017Y-94946810D01*
X53067727Y-94835713D01*
X53067724Y-94835712D01*
X53067723Y-94835711D01*
X52846955Y-94759921D01*
X52846948Y-94759919D01*
X52748411Y-94743476D01*
X52616712Y-94721500D01*
X52383288Y-94721500D01*
X52268066Y-94740727D01*
X52153051Y-94759919D01*
X52153044Y-94759921D01*
X51932276Y-94835711D01*
X51932273Y-94835713D01*
X51819469Y-94896759D01*
X51750038Y-94911589D01*
X51683612Y-94886528D01*
X51641280Y-94829533D01*
X51633500Y-94785945D01*
X51633500Y-94198318D01*
X51653502Y-94130197D01*
X51707158Y-94083704D01*
X51777432Y-94073600D01*
X51800403Y-94079142D01*
X51865365Y-94101444D01*
X52087431Y-94138500D01*
X52087435Y-94138500D01*
X52312565Y-94138500D01*
X52312569Y-94138500D01*
X52534635Y-94101444D01*
X52747574Y-94028342D01*
X52945576Y-93921189D01*
X53123240Y-93782906D01*
X53275722Y-93617268D01*
X53398860Y-93428791D01*
X53434253Y-93348101D01*
X53479933Y-93293754D01*
X53547745Y-93272729D01*
X53616159Y-93291704D01*
X53619642Y-93293950D01*
X53795244Y-93411283D01*
X53868327Y-93460115D01*
X54133855Y-93591059D01*
X54414203Y-93686224D01*
X54704574Y-93743983D01*
X54873388Y-93755047D01*
X54999997Y-93763346D01*
X55000000Y-93763346D01*
X55000003Y-93763346D01*
X55110784Y-93756084D01*
X55295426Y-93743983D01*
X55585797Y-93686224D01*
X55866145Y-93591059D01*
X56131673Y-93460115D01*
X56377838Y-93295633D01*
X56600427Y-93100427D01*
X56795633Y-92877838D01*
X56960115Y-92631673D01*
X57091059Y-92366145D01*
X57186224Y-92085797D01*
X57243983Y-91795426D01*
X57263346Y-91500000D01*
X57243983Y-91204574D01*
X57186224Y-90914203D01*
X57091059Y-90633855D01*
X56960115Y-90368327D01*
X56795633Y-90122162D01*
X56600427Y-89899573D01*
X56377838Y-89704367D01*
X56377830Y-89704361D01*
X56377827Y-89704359D01*
X56131670Y-89539883D01*
X55866151Y-89408944D01*
X55866145Y-89408941D01*
X55866140Y-89408939D01*
X55866137Y-89408938D01*
X55585805Y-89313778D01*
X55585799Y-89313776D01*
X55585797Y-89313776D01*
X55488566Y-89294435D01*
X55295435Y-89256018D01*
X55295421Y-89256016D01*
X55000003Y-89236654D01*
X54999997Y-89236654D01*
X54704578Y-89256016D01*
X54704564Y-89256018D01*
X54462818Y-89304105D01*
X54414203Y-89313776D01*
X54414201Y-89313776D01*
X54414194Y-89313778D01*
X54133862Y-89408938D01*
X54133848Y-89408944D01*
X53868329Y-89539883D01*
X53622149Y-89704375D01*
X53619734Y-89706228D01*
X53618886Y-89706555D01*
X53618733Y-89706658D01*
X53618710Y-89706623D01*
X53553510Y-89731818D01*
X53483964Y-89717542D01*
X53433176Y-89667932D01*
X53427663Y-89656875D01*
X53398860Y-89591209D01*
X53392140Y-89580924D01*
X53275724Y-89402734D01*
X53275720Y-89402729D01*
X53123237Y-89237091D01*
X53041382Y-89173381D01*
X52945576Y-89098811D01*
X52912319Y-89080813D01*
X52861929Y-89030802D01*
X52846576Y-88961485D01*
X52871136Y-88894872D01*
X52912320Y-88859186D01*
X52945576Y-88841189D01*
X53123240Y-88702906D01*
X53275722Y-88537268D01*
X53398860Y-88348791D01*
X53489296Y-88142616D01*
X53544564Y-87924368D01*
X53563156Y-87700000D01*
X53544564Y-87475632D01*
X53489296Y-87257384D01*
X53398860Y-87051209D01*
X53392140Y-87040924D01*
X53275724Y-86862734D01*
X53275720Y-86862729D01*
X53123237Y-86697091D01*
X53041382Y-86633381D01*
X52945576Y-86558811D01*
X52912319Y-86540813D01*
X52861929Y-86490802D01*
X52846576Y-86421485D01*
X52871136Y-86354872D01*
X52912320Y-86319186D01*
X52945576Y-86301189D01*
X53123240Y-86162906D01*
X53275722Y-85997268D01*
X53398860Y-85808791D01*
X53489296Y-85602616D01*
X53544564Y-85384368D01*
X53563156Y-85160000D01*
X53544564Y-84935632D01*
X53489296Y-84717384D01*
X53398860Y-84511209D01*
X53375326Y-84475187D01*
X53275724Y-84322734D01*
X53275720Y-84322729D01*
X53123237Y-84157091D01*
X53013770Y-84071889D01*
X52945576Y-84018811D01*
X52912319Y-84000813D01*
X52861929Y-83950802D01*
X52846576Y-83881485D01*
X52871136Y-83814872D01*
X52912320Y-83779186D01*
X52945576Y-83761189D01*
X53123240Y-83622906D01*
X53275722Y-83457268D01*
X53360453Y-83327578D01*
X53371555Y-83310585D01*
X53425558Y-83264496D01*
X53477038Y-83253500D01*
X55205406Y-83253500D01*
X55273527Y-83273502D01*
X55294501Y-83290405D01*
X55508976Y-83504880D01*
X55543002Y-83567192D01*
X55542026Y-83624905D01*
X55505949Y-83767370D01*
X55492630Y-83928111D01*
X55486673Y-84000000D01*
X55505581Y-84228188D01*
X55505950Y-84232633D01*
X55563249Y-84458903D01*
X55563252Y-84458910D01*
X55657015Y-84672668D01*
X55784685Y-84868083D01*
X55942774Y-85039813D01*
X55942778Y-85039817D01*
X56008650Y-85091087D01*
X56126983Y-85183190D01*
X56332273Y-85294287D01*
X56553049Y-85370080D01*
X56783288Y-85408500D01*
X56783292Y-85408500D01*
X57016708Y-85408500D01*
X57016712Y-85408500D01*
X57246951Y-85370080D01*
X57467727Y-85294287D01*
X57673017Y-85183190D01*
X57728627Y-85139907D01*
X57738109Y-85132527D01*
X57804151Y-85106470D01*
X57873797Y-85120255D01*
X57924933Y-85169505D01*
X57941500Y-85231958D01*
X57941500Y-96475048D01*
X57921498Y-96543169D01*
X57904595Y-96564144D01*
X57370879Y-97097859D01*
X57308567Y-97131884D01*
X57250859Y-97130909D01*
X57246959Y-97129921D01*
X57163143Y-97115935D01*
X57016712Y-97091500D01*
X56783288Y-97091500D01*
X56684217Y-97108032D01*
X56553051Y-97129919D01*
X56553044Y-97129921D01*
X56332276Y-97205711D01*
X56332273Y-97205713D01*
X56126985Y-97316809D01*
X56126983Y-97316810D01*
X55942778Y-97460182D01*
X55942774Y-97460186D01*
X55784685Y-97631916D01*
X55657015Y-97827331D01*
X55563252Y-98041089D01*
X55563249Y-98041096D01*
X55505950Y-98267366D01*
X55505949Y-98267372D01*
X55505949Y-98267374D01*
X55493599Y-98416419D01*
X55486673Y-98500000D01*
X55505949Y-98732627D01*
X55534882Y-98846880D01*
X55532214Y-98917827D01*
X55501832Y-98966906D01*
X54895611Y-99573127D01*
X54882865Y-99583340D01*
X54883025Y-99583533D01*
X54876921Y-99588582D01*
X54827054Y-99641685D01*
X54805071Y-99663668D01*
X54800527Y-99669525D01*
X54796678Y-99674031D01*
X54763029Y-99709865D01*
X54763027Y-99709867D01*
X54752691Y-99728667D01*
X54741843Y-99745180D01*
X54728699Y-99762126D01*
X54728694Y-99762135D01*
X54709172Y-99807247D01*
X54706560Y-99812577D01*
X54682877Y-99855660D01*
X54682873Y-99855670D01*
X54677541Y-99876436D01*
X54671139Y-99895136D01*
X54662620Y-99914820D01*
X54662619Y-99914824D01*
X54654928Y-99963384D01*
X54653724Y-99969197D01*
X54641500Y-100016810D01*
X54641500Y-100038258D01*
X54639949Y-100057967D01*
X54636594Y-100079150D01*
X54636594Y-100079152D01*
X54641220Y-100128094D01*
X54641500Y-100134027D01*
X54641500Y-106913389D01*
X54639708Y-106929620D01*
X54639958Y-106929644D01*
X54639211Y-106937536D01*
X54641500Y-107010341D01*
X54641500Y-107041430D01*
X54642427Y-107048776D01*
X54642893Y-107054690D01*
X54644437Y-107103829D01*
X54644438Y-107103832D01*
X54650421Y-107124429D01*
X54654428Y-107143780D01*
X54657117Y-107165060D01*
X54657117Y-107165062D01*
X54675216Y-107210778D01*
X54677139Y-107216394D01*
X54690853Y-107263597D01*
X54690853Y-107263598D01*
X54701771Y-107282058D01*
X54710468Y-107299811D01*
X54718364Y-107319755D01*
X54718367Y-107319760D01*
X54736352Y-107344513D01*
X54747265Y-107359532D01*
X54750521Y-107364490D01*
X54775547Y-107406807D01*
X54790714Y-107421974D01*
X54803552Y-107437005D01*
X54816158Y-107454356D01*
X54854039Y-107485694D01*
X54858420Y-107489680D01*
X55412821Y-108044082D01*
X55412822Y-108044082D01*
X55446848Y-108106394D01*
X55441783Y-108177209D01*
X55399236Y-108234045D01*
X55332716Y-108258856D01*
X55299154Y-108256758D01*
X55295437Y-108256018D01*
X55295421Y-108256016D01*
X55000003Y-108236654D01*
X54999997Y-108236654D01*
X54704578Y-108256016D01*
X54704564Y-108256018D01*
X54462818Y-108304105D01*
X54414203Y-108313776D01*
X54414201Y-108313776D01*
X54414194Y-108313778D01*
X54133862Y-108408938D01*
X54133848Y-108408944D01*
X53868329Y-108539883D01*
X53622172Y-108704359D01*
X53622165Y-108704364D01*
X53622162Y-108704367D01*
X53399573Y-108899573D01*
X53204367Y-109122162D01*
X53204364Y-109122165D01*
X53204359Y-109122172D01*
X53039883Y-109368329D01*
X52908944Y-109633848D01*
X52908938Y-109633862D01*
X52813778Y-109914194D01*
X52813776Y-109914204D01*
X52756018Y-110204564D01*
X52756016Y-110204578D01*
X52736654Y-110499996D01*
X52736654Y-110500003D01*
X52756016Y-110795421D01*
X52756018Y-110795435D01*
X52813776Y-111085795D01*
X52813778Y-111085805D01*
X52908938Y-111366137D01*
X52908944Y-111366151D01*
X53039883Y-111631670D01*
X53204359Y-111877827D01*
X53204361Y-111877830D01*
X53204367Y-111877838D01*
X53399573Y-112100427D01*
X53622162Y-112295633D01*
X53868327Y-112460115D01*
X54133855Y-112591059D01*
X54414203Y-112686224D01*
X54704574Y-112743983D01*
X54873388Y-112755047D01*
X54999997Y-112763346D01*
X55000000Y-112763346D01*
X55000003Y-112763346D01*
X55110784Y-112756084D01*
X55295426Y-112743983D01*
X55585797Y-112686224D01*
X55866145Y-112591059D01*
X56131673Y-112460115D01*
X56377838Y-112295633D01*
X56600427Y-112100427D01*
X56720769Y-111963202D01*
X56780721Y-111925176D01*
X56851717Y-111925598D01*
X56911213Y-111964336D01*
X56940322Y-112029091D01*
X56941500Y-112046281D01*
X56941500Y-115965500D01*
X56921498Y-116033621D01*
X56867842Y-116080114D01*
X56815500Y-116091500D01*
X56783288Y-116091500D01*
X56668066Y-116110727D01*
X56553051Y-116129919D01*
X56553044Y-116129921D01*
X56332276Y-116205711D01*
X56332273Y-116205713D01*
X56126985Y-116316809D01*
X56126983Y-116316810D01*
X55942778Y-116460182D01*
X55942774Y-116460186D01*
X55784685Y-116631916D01*
X55657015Y-116827331D01*
X55563252Y-117041089D01*
X55563249Y-117041096D01*
X55505950Y-117267366D01*
X55505949Y-117267372D01*
X55505949Y-117267374D01*
X55486673Y-117500000D01*
X55505581Y-117728188D01*
X55505950Y-117732633D01*
X55563249Y-117958903D01*
X55563252Y-117958910D01*
X55657015Y-118172668D01*
X55784685Y-118368083D01*
X55942774Y-118539813D01*
X55942778Y-118539817D01*
X56008650Y-118591087D01*
X56126983Y-118683190D01*
X56332273Y-118794287D01*
X56553049Y-118870080D01*
X56783288Y-118908500D01*
X56783292Y-118908500D01*
X57016708Y-118908500D01*
X57016712Y-118908500D01*
X57246951Y-118870080D01*
X57467727Y-118794287D01*
X57673017Y-118683190D01*
X57857220Y-118539818D01*
X58015314Y-118368083D01*
X58044517Y-118323383D01*
X58098519Y-118277296D01*
X58168867Y-118267720D01*
X58233225Y-118297696D01*
X58255481Y-118323382D01*
X58284686Y-118368083D01*
X58284687Y-118368084D01*
X58442774Y-118539813D01*
X58442778Y-118539817D01*
X58508650Y-118591087D01*
X58626983Y-118683190D01*
X58832273Y-118794287D01*
X59053049Y-118870080D01*
X59283288Y-118908500D01*
X59283292Y-118908500D01*
X59516708Y-118908500D01*
X59516712Y-118908500D01*
X59746951Y-118870080D01*
X59967727Y-118794287D01*
X60173017Y-118683190D01*
X60357220Y-118539818D01*
X60515314Y-118368083D01*
X60544814Y-118322928D01*
X60598816Y-118276841D01*
X60669164Y-118267265D01*
X60733521Y-118297241D01*
X60735421Y-118299434D01*
X60740795Y-118299991D01*
X61287080Y-117753706D01*
X61349393Y-117719681D01*
X61420208Y-117724745D01*
X61477044Y-117767292D01*
X61482174Y-117774680D01*
X61482175Y-117774682D01*
X61518239Y-117830798D01*
X61626900Y-117924952D01*
X61626901Y-117924952D01*
X61633711Y-117930853D01*
X61631686Y-117933189D01*
X61668084Y-117975187D01*
X61678195Y-118045460D01*
X61648709Y-118110043D01*
X61642572Y-118116636D01*
X61098680Y-118660528D01*
X61098681Y-118660529D01*
X61127249Y-118682765D01*
X61127258Y-118682771D01*
X61332474Y-118793827D01*
X61332477Y-118793829D01*
X61553167Y-118869592D01*
X61553176Y-118869594D01*
X61783334Y-118908000D01*
X62016666Y-118908000D01*
X62246823Y-118869594D01*
X62246832Y-118869592D01*
X62467522Y-118793829D01*
X62467525Y-118793827D01*
X62672738Y-118682772D01*
X62701317Y-118660527D01*
X62157427Y-118116637D01*
X62123401Y-118054325D01*
X62128466Y-117983510D01*
X62167145Y-117931840D01*
X62166289Y-117930853D01*
X62170830Y-117926917D01*
X62171013Y-117926674D01*
X62171510Y-117926328D01*
X62173095Y-117924953D01*
X62173100Y-117924952D01*
X62281761Y-117830798D01*
X62317826Y-117774679D01*
X62371477Y-117728188D01*
X62441751Y-117718083D01*
X62506332Y-117747575D01*
X62512917Y-117753706D01*
X63059202Y-118299991D01*
X63142544Y-118172427D01*
X63236273Y-117958747D01*
X63236275Y-117958743D01*
X63293555Y-117732549D01*
X63312825Y-117500000D01*
X63293555Y-117267450D01*
X63236275Y-117041256D01*
X63236273Y-117041252D01*
X63142547Y-116827578D01*
X63142540Y-116827566D01*
X63059202Y-116700007D01*
X62512917Y-117246292D01*
X62450605Y-117280318D01*
X62379790Y-117275253D01*
X62322954Y-117232706D01*
X62317824Y-117225317D01*
X62281762Y-117169203D01*
X62281761Y-117169202D01*
X62173100Y-117075048D01*
X62173098Y-117075047D01*
X62166289Y-117069147D01*
X62168310Y-117066813D01*
X62131902Y-117024786D01*
X62121807Y-116954511D01*
X62151307Y-116889933D01*
X62157427Y-116883362D01*
X62701318Y-116339470D01*
X62672743Y-116317229D01*
X62672741Y-116317228D01*
X62467525Y-116206172D01*
X62467522Y-116206170D01*
X62246832Y-116130407D01*
X62246823Y-116130405D01*
X62016666Y-116092000D01*
X61783334Y-116092000D01*
X61553176Y-116130405D01*
X61553167Y-116130407D01*
X61332477Y-116206170D01*
X61332474Y-116206172D01*
X61127259Y-116317227D01*
X61098681Y-116339470D01*
X61098680Y-116339470D01*
X61642572Y-116883362D01*
X61676598Y-116945674D01*
X61671533Y-117016489D01*
X61632854Y-117068157D01*
X61633711Y-117069147D01*
X61629164Y-117073086D01*
X61628986Y-117073325D01*
X61628498Y-117073663D01*
X61518238Y-117169202D01*
X61482175Y-117225318D01*
X61428519Y-117271811D01*
X61358245Y-117281914D01*
X61293664Y-117252421D01*
X61287082Y-117246292D01*
X60740796Y-116700006D01*
X60727258Y-116701411D01*
X60701775Y-116723159D01*
X60631427Y-116732734D01*
X60567070Y-116702756D01*
X60544814Y-116677070D01*
X60515314Y-116631916D01*
X60357225Y-116460186D01*
X60357221Y-116460182D01*
X60202130Y-116339470D01*
X60173017Y-116316810D01*
X59967727Y-116205713D01*
X59967724Y-116205712D01*
X59967723Y-116205711D01*
X59746955Y-116129921D01*
X59746948Y-116129919D01*
X59648411Y-116113476D01*
X59516712Y-116091500D01*
X59283288Y-116091500D01*
X59168066Y-116110727D01*
X59053051Y-116129919D01*
X59053044Y-116129921D01*
X58832276Y-116205711D01*
X58832273Y-116205713D01*
X58626985Y-116316809D01*
X58626983Y-116316810D01*
X58461891Y-116445307D01*
X58395849Y-116471363D01*
X58326203Y-116457578D01*
X58275067Y-116408328D01*
X58258500Y-116345875D01*
X58258500Y-109386610D01*
X58260292Y-109370381D01*
X58260042Y-109370358D01*
X58260786Y-109362469D01*
X58260788Y-109362463D01*
X58258499Y-109289657D01*
X58258500Y-109258568D01*
X58257571Y-109251220D01*
X58257106Y-109245313D01*
X58255562Y-109196169D01*
X58249579Y-109175576D01*
X58245571Y-109156218D01*
X58242882Y-109134939D01*
X58242882Y-109134936D01*
X58224777Y-109089208D01*
X58222863Y-109083619D01*
X58209145Y-109036400D01*
X58198226Y-109017939D01*
X58189528Y-109000182D01*
X58181635Y-108980244D01*
X58152731Y-108940461D01*
X58149471Y-108935498D01*
X58124450Y-108893190D01*
X58109291Y-108878031D01*
X58096450Y-108862998D01*
X58083841Y-108845643D01*
X58045953Y-108814299D01*
X58041571Y-108810312D01*
X55995402Y-106764142D01*
X55961378Y-106701833D01*
X55958500Y-106675059D01*
X55958500Y-100424948D01*
X55978502Y-100356828D01*
X55995399Y-100335859D01*
X56429121Y-99902137D01*
X56491430Y-99868115D01*
X56549154Y-99869093D01*
X56553037Y-99870076D01*
X56553049Y-99870080D01*
X56783288Y-99908500D01*
X56783292Y-99908500D01*
X57016708Y-99908500D01*
X57016712Y-99908500D01*
X57246951Y-99870080D01*
X57467727Y-99794287D01*
X57673017Y-99683190D01*
X57857220Y-99539818D01*
X58015314Y-99368083D01*
X58044517Y-99323384D01*
X58098518Y-99277297D01*
X58168865Y-99267720D01*
X58233223Y-99297697D01*
X58255481Y-99323383D01*
X58284686Y-99368084D01*
X58442774Y-99539813D01*
X58442778Y-99539817D01*
X58505434Y-99588584D01*
X58626983Y-99683190D01*
X58832273Y-99794287D01*
X59053049Y-99870080D01*
X59283288Y-99908500D01*
X59283292Y-99908500D01*
X59516708Y-99908500D01*
X59516712Y-99908500D01*
X59746951Y-99870080D01*
X59967727Y-99794287D01*
X60173017Y-99683190D01*
X60357220Y-99539818D01*
X60515314Y-99368083D01*
X60544814Y-99322928D01*
X60598816Y-99276841D01*
X60669164Y-99267265D01*
X60733521Y-99297241D01*
X60735421Y-99299434D01*
X60740795Y-99299991D01*
X61287080Y-98753706D01*
X61349393Y-98719681D01*
X61420208Y-98724745D01*
X61477044Y-98767292D01*
X61482174Y-98774680D01*
X61482175Y-98774682D01*
X61518239Y-98830798D01*
X61626900Y-98924952D01*
X61626901Y-98924952D01*
X61633711Y-98930853D01*
X61631686Y-98933189D01*
X61668084Y-98975187D01*
X61678195Y-99045460D01*
X61648709Y-99110043D01*
X61642572Y-99116636D01*
X61098680Y-99660528D01*
X61098681Y-99660529D01*
X61127249Y-99682765D01*
X61127258Y-99682771D01*
X61332474Y-99793827D01*
X61332477Y-99793829D01*
X61553167Y-99869592D01*
X61553176Y-99869594D01*
X61783334Y-99908000D01*
X62016666Y-99908000D01*
X62246823Y-99869594D01*
X62246832Y-99869592D01*
X62467522Y-99793829D01*
X62467525Y-99793827D01*
X62672738Y-99682772D01*
X62701317Y-99660527D01*
X62157427Y-99116637D01*
X62123401Y-99054325D01*
X62128466Y-98983510D01*
X62167145Y-98931840D01*
X62166289Y-98930853D01*
X62170830Y-98926917D01*
X62171013Y-98926674D01*
X62171510Y-98926328D01*
X62173095Y-98924953D01*
X62173100Y-98924952D01*
X62281761Y-98830798D01*
X62317826Y-98774679D01*
X62371477Y-98728188D01*
X62441751Y-98718083D01*
X62506332Y-98747575D01*
X62512917Y-98753706D01*
X63059202Y-99299991D01*
X63142544Y-99172427D01*
X63236273Y-98958747D01*
X63236275Y-98958743D01*
X63293555Y-98732549D01*
X63312825Y-98500000D01*
X63293555Y-98267450D01*
X63236275Y-98041256D01*
X63236273Y-98041252D01*
X63142547Y-97827578D01*
X63142540Y-97827566D01*
X63059202Y-97700007D01*
X63059201Y-97700007D01*
X62512917Y-98246292D01*
X62450605Y-98280318D01*
X62379790Y-98275253D01*
X62322954Y-98232706D01*
X62317824Y-98225317D01*
X62281762Y-98169203D01*
X62281761Y-98169202D01*
X62173100Y-98075048D01*
X62173098Y-98075047D01*
X62166289Y-98069147D01*
X62168310Y-98066813D01*
X62131902Y-98024786D01*
X62121807Y-97954511D01*
X62151307Y-97889933D01*
X62157427Y-97883362D01*
X62701318Y-97339470D01*
X62672743Y-97317229D01*
X62672741Y-97317228D01*
X62467525Y-97206172D01*
X62467522Y-97206170D01*
X62246832Y-97130407D01*
X62246823Y-97130405D01*
X62016666Y-97092000D01*
X61783334Y-97092000D01*
X61553176Y-97130405D01*
X61553167Y-97130407D01*
X61332477Y-97206170D01*
X61332474Y-97206172D01*
X61127259Y-97317227D01*
X61098681Y-97339470D01*
X61098680Y-97339470D01*
X61642572Y-97883362D01*
X61676598Y-97945674D01*
X61671533Y-98016489D01*
X61632854Y-98068157D01*
X61633711Y-98069147D01*
X61629164Y-98073086D01*
X61628986Y-98073325D01*
X61628498Y-98073663D01*
X61518238Y-98169202D01*
X61482175Y-98225318D01*
X61428519Y-98271811D01*
X61358245Y-98281914D01*
X61293664Y-98252421D01*
X61287082Y-98246292D01*
X60740796Y-97700006D01*
X60727258Y-97701411D01*
X60701775Y-97723159D01*
X60631427Y-97732734D01*
X60567070Y-97702756D01*
X60544814Y-97677070D01*
X60515314Y-97631916D01*
X60357225Y-97460186D01*
X60357221Y-97460182D01*
X60202130Y-97339470D01*
X60173017Y-97316810D01*
X59967727Y-97205713D01*
X59967724Y-97205712D01*
X59967723Y-97205711D01*
X59746955Y-97129921D01*
X59746948Y-97129919D01*
X59648411Y-97113476D01*
X59516712Y-97091500D01*
X59368066Y-97091500D01*
X59299945Y-97071498D01*
X59253452Y-97017842D01*
X59243348Y-96947568D01*
X59243614Y-96945812D01*
X59243836Y-96944406D01*
X59245071Y-96936605D01*
X59246265Y-96930833D01*
X59258500Y-96883188D01*
X59258500Y-96861741D01*
X59260051Y-96842030D01*
X59263406Y-96820848D01*
X59258780Y-96771903D01*
X59258500Y-96765971D01*
X59258500Y-84000000D01*
X60487174Y-84000000D01*
X60506444Y-84232549D01*
X60563724Y-84458743D01*
X60563726Y-84458747D01*
X60657454Y-84672425D01*
X60657461Y-84672439D01*
X60740795Y-84799991D01*
X61287080Y-84253706D01*
X61349393Y-84219681D01*
X61420208Y-84224745D01*
X61477044Y-84267292D01*
X61482174Y-84274680D01*
X61513056Y-84322734D01*
X61518239Y-84330798D01*
X61626900Y-84424952D01*
X61626901Y-84424952D01*
X61633711Y-84430853D01*
X61631686Y-84433189D01*
X61668084Y-84475187D01*
X61678195Y-84545460D01*
X61648709Y-84610043D01*
X61642572Y-84616636D01*
X61098680Y-85160528D01*
X61098681Y-85160529D01*
X61127249Y-85182765D01*
X61127258Y-85182771D01*
X61332474Y-85293827D01*
X61332477Y-85293829D01*
X61553167Y-85369592D01*
X61553176Y-85369594D01*
X61783334Y-85408000D01*
X62016666Y-85408000D01*
X62246823Y-85369594D01*
X62246832Y-85369592D01*
X62467522Y-85293829D01*
X62467525Y-85293827D01*
X62672738Y-85182772D01*
X62701317Y-85160527D01*
X62157427Y-84616637D01*
X62123401Y-84554325D01*
X62128466Y-84483510D01*
X62167145Y-84431840D01*
X62166289Y-84430853D01*
X62170830Y-84426917D01*
X62171013Y-84426674D01*
X62171510Y-84426328D01*
X62173095Y-84424953D01*
X62173100Y-84424952D01*
X62281761Y-84330798D01*
X62317826Y-84274679D01*
X62371477Y-84228188D01*
X62441751Y-84218083D01*
X62506332Y-84247575D01*
X62512917Y-84253706D01*
X63059202Y-84799991D01*
X63142544Y-84672427D01*
X63236273Y-84458747D01*
X63236275Y-84458743D01*
X63293555Y-84232549D01*
X63312825Y-84000000D01*
X63293555Y-83767450D01*
X63236275Y-83541256D01*
X63236273Y-83541252D01*
X63142547Y-83327578D01*
X63142540Y-83327566D01*
X63059202Y-83200007D01*
X63059201Y-83200007D01*
X62512917Y-83746292D01*
X62450605Y-83780318D01*
X62379790Y-83775253D01*
X62322954Y-83732706D01*
X62317824Y-83725317D01*
X62281762Y-83669203D01*
X62281761Y-83669202D01*
X62173100Y-83575048D01*
X62173098Y-83575047D01*
X62166289Y-83569147D01*
X62168310Y-83566813D01*
X62131902Y-83524786D01*
X62121807Y-83454511D01*
X62151307Y-83389933D01*
X62157427Y-83383362D01*
X62701318Y-82839470D01*
X62672743Y-82817229D01*
X62672741Y-82817228D01*
X62467525Y-82706172D01*
X62467522Y-82706170D01*
X62246832Y-82630407D01*
X62246823Y-82630405D01*
X62016666Y-82592000D01*
X61783334Y-82592000D01*
X61553176Y-82630405D01*
X61553167Y-82630407D01*
X61332477Y-82706170D01*
X61332474Y-82706172D01*
X61127259Y-82817227D01*
X61098681Y-82839470D01*
X61098680Y-82839470D01*
X61642572Y-83383362D01*
X61676598Y-83445674D01*
X61671533Y-83516489D01*
X61632854Y-83568157D01*
X61633711Y-83569147D01*
X61629164Y-83573086D01*
X61628986Y-83573325D01*
X61628498Y-83573663D01*
X61518238Y-83669202D01*
X61482175Y-83725318D01*
X61428519Y-83771811D01*
X61358245Y-83781914D01*
X61293664Y-83752421D01*
X61287082Y-83746292D01*
X60740796Y-83200006D01*
X60740795Y-83200007D01*
X60657461Y-83327560D01*
X60657454Y-83327574D01*
X60563726Y-83541252D01*
X60563724Y-83541256D01*
X60506444Y-83767450D01*
X60487174Y-84000000D01*
X59258500Y-84000000D01*
X59258500Y-81286610D01*
X59260292Y-81270381D01*
X59260042Y-81270358D01*
X59260786Y-81262469D01*
X59260788Y-81262463D01*
X59258499Y-81189657D01*
X59258500Y-81158568D01*
X59257571Y-81151220D01*
X59257106Y-81145313D01*
X59255562Y-81096169D01*
X59249579Y-81075576D01*
X59245572Y-81056226D01*
X59244823Y-81050300D01*
X59256125Y-80980209D01*
X59303527Y-80927354D01*
X59369828Y-80908500D01*
X59516708Y-80908500D01*
X59516712Y-80908500D01*
X59746951Y-80870080D01*
X59967727Y-80794287D01*
X60173017Y-80683190D01*
X60357220Y-80539818D01*
X60373059Y-80522613D01*
X60399745Y-80493623D01*
X60515314Y-80368083D01*
X60544814Y-80322928D01*
X60598816Y-80276841D01*
X60669164Y-80267265D01*
X60733521Y-80297241D01*
X60735421Y-80299434D01*
X60740795Y-80299991D01*
X61287080Y-79753706D01*
X61349393Y-79719681D01*
X61420208Y-79724745D01*
X61477044Y-79767292D01*
X61482174Y-79774680D01*
X61482175Y-79774682D01*
X61518239Y-79830798D01*
X61626900Y-79924952D01*
X61626901Y-79924952D01*
X61633711Y-79930853D01*
X61631686Y-79933189D01*
X61668084Y-79975187D01*
X61678195Y-80045460D01*
X61648709Y-80110043D01*
X61642572Y-80116636D01*
X61098680Y-80660528D01*
X61098681Y-80660529D01*
X61127249Y-80682765D01*
X61127258Y-80682771D01*
X61332474Y-80793827D01*
X61332477Y-80793829D01*
X61553167Y-80869592D01*
X61553176Y-80869594D01*
X61783334Y-80908000D01*
X62016666Y-80908000D01*
X62246823Y-80869594D01*
X62246832Y-80869592D01*
X62467522Y-80793829D01*
X62467525Y-80793827D01*
X62672738Y-80682772D01*
X62701317Y-80660527D01*
X62157427Y-80116637D01*
X62123401Y-80054325D01*
X62128466Y-79983510D01*
X62167145Y-79931840D01*
X62166289Y-79930853D01*
X62170830Y-79926917D01*
X62171013Y-79926674D01*
X62171510Y-79926328D01*
X62173095Y-79924953D01*
X62173100Y-79924952D01*
X62281761Y-79830798D01*
X62317826Y-79774679D01*
X62371477Y-79728188D01*
X62441751Y-79718083D01*
X62506332Y-79747575D01*
X62512917Y-79753706D01*
X63059202Y-80299991D01*
X63142544Y-80172427D01*
X63236273Y-79958747D01*
X63236275Y-79958743D01*
X63293555Y-79732549D01*
X63312825Y-79500000D01*
X63293555Y-79267450D01*
X63236275Y-79041256D01*
X63236273Y-79041252D01*
X63142547Y-78827578D01*
X63142540Y-78827566D01*
X63059202Y-78700007D01*
X63059202Y-78700006D01*
X62512917Y-79246292D01*
X62450605Y-79280318D01*
X62379790Y-79275253D01*
X62322954Y-79232706D01*
X62317824Y-79225317D01*
X62281762Y-79169203D01*
X62281761Y-79169202D01*
X62173100Y-79075048D01*
X62173098Y-79075047D01*
X62166289Y-79069147D01*
X62168310Y-79066813D01*
X62131902Y-79024786D01*
X62121807Y-78954511D01*
X62151307Y-78889933D01*
X62157427Y-78883362D01*
X62701318Y-78339470D01*
X62672743Y-78317229D01*
X62672741Y-78317228D01*
X62467525Y-78206172D01*
X62467522Y-78206170D01*
X62246832Y-78130407D01*
X62246823Y-78130405D01*
X62016666Y-78092000D01*
X61783334Y-78092000D01*
X61553176Y-78130405D01*
X61553167Y-78130407D01*
X61332477Y-78206170D01*
X61332474Y-78206172D01*
X61127259Y-78317227D01*
X61098681Y-78339470D01*
X61098680Y-78339470D01*
X61642572Y-78883362D01*
X61676598Y-78945674D01*
X61671533Y-79016489D01*
X61632854Y-79068157D01*
X61633711Y-79069147D01*
X61629164Y-79073086D01*
X61628986Y-79073325D01*
X61628498Y-79073663D01*
X61518238Y-79169202D01*
X61482175Y-79225318D01*
X61428519Y-79271811D01*
X61358245Y-79281914D01*
X61293664Y-79252421D01*
X61287082Y-79246292D01*
X60740796Y-78700006D01*
X60727258Y-78701411D01*
X60701775Y-78723159D01*
X60631427Y-78732734D01*
X60567070Y-78702756D01*
X60544814Y-78677070D01*
X60515314Y-78631916D01*
X60357225Y-78460186D01*
X60357221Y-78460182D01*
X60250689Y-78377265D01*
X60173017Y-78316810D01*
X59967727Y-78205713D01*
X59967724Y-78205712D01*
X59967723Y-78205711D01*
X59746955Y-78129921D01*
X59746948Y-78129919D01*
X59648411Y-78113476D01*
X59516712Y-78091500D01*
X59283288Y-78091500D01*
X59168066Y-78110727D01*
X59053051Y-78129919D01*
X59053044Y-78129921D01*
X58832276Y-78205711D01*
X58832273Y-78205713D01*
X58626985Y-78316809D01*
X58626983Y-78316810D01*
X58442778Y-78460182D01*
X58442774Y-78460186D01*
X58284685Y-78631916D01*
X58255483Y-78676615D01*
X58201480Y-78722704D01*
X58131132Y-78732279D01*
X58066774Y-78702302D01*
X58044517Y-78676615D01*
X58015314Y-78631916D01*
X57857225Y-78460186D01*
X57857221Y-78460182D01*
X57750689Y-78377265D01*
X57673017Y-78316810D01*
X57467727Y-78205713D01*
X57467724Y-78205712D01*
X57467723Y-78205711D01*
X57246955Y-78129921D01*
X57246948Y-78129919D01*
X57148411Y-78113476D01*
X57016712Y-78091500D01*
X56783288Y-78091500D01*
X56629978Y-78117082D01*
X56553041Y-78129921D01*
X56549146Y-78130908D01*
X56478199Y-78128241D01*
X56429119Y-78097859D01*
X53595404Y-75264144D01*
X53561378Y-75201832D01*
X53558499Y-75175057D01*
X53558499Y-74488823D01*
X53578501Y-74420703D01*
X53632157Y-74374210D01*
X53702431Y-74364106D01*
X53754501Y-74384059D01*
X53758342Y-74386625D01*
X53868327Y-74460115D01*
X54133855Y-74591059D01*
X54414203Y-74686224D01*
X54704574Y-74743983D01*
X54873388Y-74755047D01*
X54999997Y-74763346D01*
X55000000Y-74763346D01*
X55000003Y-74763346D01*
X55110784Y-74756084D01*
X55295426Y-74743983D01*
X55585797Y-74686224D01*
X55866145Y-74591059D01*
X56131673Y-74460115D01*
X56377838Y-74295633D01*
X56600427Y-74100427D01*
X56795633Y-73877838D01*
X56960115Y-73631673D01*
X57091059Y-73366145D01*
X57186224Y-73085797D01*
X57243983Y-72795426D01*
X57263346Y-72500000D01*
X57243983Y-72204574D01*
X57186224Y-71914203D01*
X57091059Y-71633855D01*
X56960115Y-71368327D01*
X56795633Y-71122162D01*
X56600427Y-70899573D01*
X56377838Y-70704367D01*
X56377830Y-70704361D01*
X56377827Y-70704359D01*
X56131670Y-70539883D01*
X55866151Y-70408944D01*
X55866145Y-70408941D01*
X55866140Y-70408939D01*
X55866137Y-70408938D01*
X55585805Y-70313778D01*
X55585799Y-70313776D01*
X55585797Y-70313776D01*
X55488566Y-70294435D01*
X55295435Y-70256018D01*
X55295421Y-70256016D01*
X55000003Y-70236654D01*
X54999997Y-70236654D01*
X54704578Y-70256016D01*
X54704564Y-70256018D01*
X54462818Y-70304105D01*
X54414203Y-70313776D01*
X54414201Y-70313776D01*
X54414194Y-70313778D01*
X54133862Y-70408938D01*
X54133848Y-70408944D01*
X53868329Y-70539883D01*
X53622172Y-70704359D01*
X53622165Y-70704364D01*
X53622162Y-70704367D01*
X53399573Y-70899573D01*
X53204367Y-71122162D01*
X53204364Y-71122165D01*
X53204359Y-71122172D01*
X53089265Y-71294423D01*
X53034788Y-71339951D01*
X52964345Y-71348799D01*
X52900301Y-71318158D01*
X52862990Y-71257756D01*
X52858500Y-71224421D01*
X52858500Y-65524949D01*
X52878502Y-65456828D01*
X52895400Y-65435859D01*
X55779000Y-62552258D01*
X55841310Y-62518234D01*
X55912125Y-62523299D01*
X55945485Y-62541923D01*
X56126983Y-62683190D01*
X56332273Y-62794287D01*
X56553049Y-62870080D01*
X56783288Y-62908500D01*
X56783292Y-62908500D01*
X57016708Y-62908500D01*
X57016712Y-62908500D01*
X57246951Y-62870080D01*
X57467727Y-62794287D01*
X57673017Y-62683190D01*
X57857220Y-62539818D01*
X58015314Y-62368083D01*
X58044517Y-62323384D01*
X58098518Y-62277297D01*
X58168865Y-62267720D01*
X58233223Y-62297697D01*
X58255481Y-62323383D01*
X58284686Y-62368084D01*
X58442774Y-62539813D01*
X58442778Y-62539817D01*
X58445484Y-62541923D01*
X58626983Y-62683190D01*
X58832273Y-62794287D01*
X59053049Y-62870080D01*
X59283288Y-62908500D01*
X59283292Y-62908500D01*
X59516708Y-62908500D01*
X59516712Y-62908500D01*
X59746951Y-62870080D01*
X59967727Y-62794287D01*
X60173017Y-62683190D01*
X60357220Y-62539818D01*
X60515314Y-62368083D01*
X60544814Y-62322928D01*
X60598816Y-62276841D01*
X60669164Y-62267265D01*
X60733521Y-62297241D01*
X60735421Y-62299434D01*
X60740795Y-62299991D01*
X61287080Y-61753706D01*
X61349393Y-61719681D01*
X61420208Y-61724745D01*
X61477044Y-61767292D01*
X61482174Y-61774680D01*
X61482175Y-61774682D01*
X61518239Y-61830798D01*
X61626900Y-61924952D01*
X61626901Y-61924952D01*
X61633711Y-61930853D01*
X61631686Y-61933189D01*
X61668084Y-61975187D01*
X61678195Y-62045460D01*
X61648709Y-62110043D01*
X61642572Y-62116636D01*
X61098680Y-62660528D01*
X61098681Y-62660529D01*
X61127249Y-62682765D01*
X61127258Y-62682771D01*
X61332474Y-62793827D01*
X61332477Y-62793829D01*
X61553167Y-62869592D01*
X61553176Y-62869594D01*
X61783334Y-62908000D01*
X62016666Y-62908000D01*
X62246823Y-62869594D01*
X62246832Y-62869592D01*
X62467522Y-62793829D01*
X62467525Y-62793827D01*
X62672738Y-62682772D01*
X62701317Y-62660527D01*
X62157427Y-62116637D01*
X62123401Y-62054325D01*
X62128466Y-61983510D01*
X62167145Y-61931840D01*
X62166289Y-61930853D01*
X62170830Y-61926917D01*
X62171013Y-61926674D01*
X62171510Y-61926328D01*
X62173095Y-61924953D01*
X62173100Y-61924952D01*
X62281761Y-61830798D01*
X62317826Y-61774679D01*
X62371477Y-61728188D01*
X62441751Y-61718083D01*
X62506332Y-61747575D01*
X62512917Y-61753706D01*
X63059202Y-62299991D01*
X63142544Y-62172427D01*
X63236273Y-61958747D01*
X63236275Y-61958743D01*
X63293555Y-61732549D01*
X63312825Y-61500000D01*
X63293555Y-61267450D01*
X63236275Y-61041256D01*
X63236273Y-61041252D01*
X63142547Y-60827578D01*
X63142540Y-60827566D01*
X63059202Y-60700007D01*
X62512917Y-61246292D01*
X62450605Y-61280318D01*
X62379790Y-61275253D01*
X62322954Y-61232706D01*
X62317824Y-61225317D01*
X62281762Y-61169203D01*
X62281761Y-61169202D01*
X62173100Y-61075048D01*
X62173098Y-61075047D01*
X62166289Y-61069147D01*
X62168310Y-61066813D01*
X62131902Y-61024786D01*
X62121807Y-60954511D01*
X62151307Y-60889933D01*
X62157427Y-60883362D01*
X62701318Y-60339470D01*
X62672743Y-60317229D01*
X62672741Y-60317228D01*
X62467525Y-60206172D01*
X62467522Y-60206170D01*
X62246832Y-60130407D01*
X62246823Y-60130405D01*
X62016666Y-60092000D01*
X61783334Y-60092000D01*
X61553176Y-60130405D01*
X61553167Y-60130407D01*
X61332477Y-60206170D01*
X61332474Y-60206172D01*
X61127259Y-60317227D01*
X61098681Y-60339470D01*
X61098680Y-60339470D01*
X61642572Y-60883362D01*
X61676598Y-60945674D01*
X61671533Y-61016489D01*
X61632854Y-61068157D01*
X61633711Y-61069147D01*
X61629164Y-61073086D01*
X61628986Y-61073325D01*
X61628498Y-61073663D01*
X61518238Y-61169202D01*
X61482175Y-61225318D01*
X61428519Y-61271811D01*
X61358245Y-61281914D01*
X61293664Y-61252421D01*
X61287082Y-61246292D01*
X60740796Y-60700006D01*
X60727258Y-60701411D01*
X60701775Y-60723159D01*
X60631427Y-60732734D01*
X60567070Y-60702756D01*
X60544814Y-60677070D01*
X60515314Y-60631916D01*
X60357225Y-60460186D01*
X60357221Y-60460182D01*
X60202130Y-60339470D01*
X60173017Y-60316810D01*
X59967727Y-60205713D01*
X59967724Y-60205712D01*
X59967723Y-60205711D01*
X59746955Y-60129921D01*
X59746948Y-60129919D01*
X59648411Y-60113476D01*
X59516712Y-60091500D01*
X59283288Y-60091500D01*
X59168066Y-60110727D01*
X59053051Y-60129919D01*
X59053044Y-60129921D01*
X58832276Y-60205711D01*
X58832273Y-60205713D01*
X58626985Y-60316809D01*
X58626983Y-60316810D01*
X58442778Y-60460182D01*
X58442774Y-60460186D01*
X58284685Y-60631916D01*
X58255483Y-60676615D01*
X58201480Y-60722704D01*
X58131132Y-60732279D01*
X58066774Y-60702302D01*
X58044517Y-60676615D01*
X58015314Y-60631916D01*
X57857225Y-60460186D01*
X57857221Y-60460182D01*
X57702130Y-60339470D01*
X57673017Y-60316810D01*
X57467727Y-60205713D01*
X57467724Y-60205712D01*
X57467723Y-60205711D01*
X57246955Y-60129921D01*
X57246948Y-60129919D01*
X57148411Y-60113476D01*
X57016712Y-60091500D01*
X56783288Y-60091500D01*
X56668066Y-60110727D01*
X56553051Y-60129919D01*
X56553044Y-60129921D01*
X56332276Y-60205711D01*
X56332273Y-60205713D01*
X56126985Y-60316809D01*
X56126983Y-60316810D01*
X55942778Y-60460182D01*
X55942774Y-60460186D01*
X55784685Y-60631916D01*
X55657018Y-60827327D01*
X55657012Y-60827337D01*
X55645643Y-60853256D01*
X55599961Y-60907603D01*
X55587078Y-60914336D01*
X55587193Y-60914545D01*
X55580239Y-60918368D01*
X55540461Y-60947268D01*
X55535510Y-60950520D01*
X55501289Y-60970759D01*
X55493191Y-60975549D01*
X55478029Y-60990711D01*
X55463002Y-61003545D01*
X55445646Y-61016156D01*
X55445643Y-61016158D01*
X55414294Y-61054051D01*
X55410298Y-61058442D01*
X51848595Y-64620144D01*
X51786283Y-64654170D01*
X51715468Y-64649105D01*
X51658632Y-64606558D01*
X51633821Y-64540038D01*
X51633500Y-64531049D01*
X51633500Y-54500003D01*
X52736654Y-54500003D01*
X52756016Y-54795421D01*
X52756018Y-54795435D01*
X52813776Y-55085795D01*
X52813778Y-55085805D01*
X52908938Y-55366137D01*
X52908944Y-55366151D01*
X53039883Y-55631670D01*
X53204359Y-55877827D01*
X53204361Y-55877830D01*
X53204367Y-55877838D01*
X53399573Y-56100427D01*
X53622162Y-56295633D01*
X53868327Y-56460115D01*
X54133855Y-56591059D01*
X54414203Y-56686224D01*
X54704574Y-56743983D01*
X54873388Y-56755047D01*
X54999997Y-56763346D01*
X55000000Y-56763346D01*
X55000003Y-56763346D01*
X55110784Y-56756084D01*
X55295426Y-56743983D01*
X55585797Y-56686224D01*
X55866145Y-56591059D01*
X56131673Y-56460115D01*
X56377838Y-56295633D01*
X56600427Y-56100427D01*
X56795633Y-55877838D01*
X56960115Y-55631673D01*
X57091059Y-55366145D01*
X57186224Y-55085797D01*
X57243983Y-54795426D01*
X57263346Y-54500003D01*
X61536654Y-54500003D01*
X61556016Y-54795421D01*
X61556018Y-54795435D01*
X61613776Y-55085795D01*
X61613778Y-55085805D01*
X61708938Y-55366137D01*
X61708944Y-55366151D01*
X61839883Y-55631670D01*
X62004359Y-55877827D01*
X62004361Y-55877830D01*
X62004367Y-55877838D01*
X62199573Y-56100427D01*
X62422162Y-56295633D01*
X62668327Y-56460115D01*
X62933855Y-56591059D01*
X63214203Y-56686224D01*
X63504574Y-56743983D01*
X63673388Y-56755047D01*
X63799997Y-56763346D01*
X63800000Y-56763346D01*
X63800003Y-56763346D01*
X63910784Y-56756084D01*
X64095426Y-56743983D01*
X64385797Y-56686224D01*
X64666145Y-56591059D01*
X64931673Y-56460115D01*
X65177838Y-56295633D01*
X65400427Y-56100427D01*
X65595633Y-55877838D01*
X65760115Y-55631673D01*
X65891059Y-55366145D01*
X65986224Y-55085797D01*
X66043983Y-54795426D01*
X66063346Y-54500000D01*
X66043983Y-54204574D01*
X65986224Y-53914203D01*
X65891059Y-53633855D01*
X65760115Y-53368327D01*
X65595633Y-53122162D01*
X65400427Y-52899573D01*
X65177838Y-52704367D01*
X65177830Y-52704361D01*
X65177827Y-52704359D01*
X64931670Y-52539883D01*
X64666151Y-52408944D01*
X64666145Y-52408941D01*
X64666140Y-52408939D01*
X64666137Y-52408938D01*
X64385805Y-52313778D01*
X64385799Y-52313776D01*
X64385797Y-52313776D01*
X64288566Y-52294435D01*
X64095435Y-52256018D01*
X64095421Y-52256016D01*
X63800003Y-52236654D01*
X63799997Y-52236654D01*
X63504578Y-52256016D01*
X63504564Y-52256018D01*
X63262818Y-52304105D01*
X63214203Y-52313776D01*
X63214201Y-52313776D01*
X63214194Y-52313778D01*
X62933862Y-52408938D01*
X62933848Y-52408944D01*
X62668329Y-52539883D01*
X62422172Y-52704359D01*
X62422165Y-52704364D01*
X62422162Y-52704367D01*
X62199573Y-52899573D01*
X62004367Y-53122162D01*
X62004364Y-53122165D01*
X62004359Y-53122172D01*
X61839883Y-53368329D01*
X61708944Y-53633848D01*
X61708938Y-53633862D01*
X61613778Y-53914194D01*
X61613776Y-53914204D01*
X61556018Y-54204564D01*
X61556016Y-54204578D01*
X61536654Y-54499996D01*
X61536654Y-54500003D01*
X57263346Y-54500003D01*
X57263346Y-54500000D01*
X57243983Y-54204574D01*
X57186224Y-53914203D01*
X57091059Y-53633855D01*
X56960115Y-53368327D01*
X56795633Y-53122162D01*
X56600427Y-52899573D01*
X56377838Y-52704367D01*
X56377830Y-52704361D01*
X56377827Y-52704359D01*
X56131670Y-52539883D01*
X55866151Y-52408944D01*
X55866145Y-52408941D01*
X55866140Y-52408939D01*
X55866137Y-52408938D01*
X55585805Y-52313778D01*
X55585799Y-52313776D01*
X55585797Y-52313776D01*
X55488566Y-52294435D01*
X55295435Y-52256018D01*
X55295421Y-52256016D01*
X55000003Y-52236654D01*
X54999997Y-52236654D01*
X54704578Y-52256016D01*
X54704564Y-52256018D01*
X54462818Y-52304105D01*
X54414203Y-52313776D01*
X54414201Y-52313776D01*
X54414194Y-52313778D01*
X54133862Y-52408938D01*
X54133848Y-52408944D01*
X53868329Y-52539883D01*
X53622172Y-52704359D01*
X53622165Y-52704364D01*
X53622162Y-52704367D01*
X53399573Y-52899573D01*
X53204367Y-53122162D01*
X53204364Y-53122165D01*
X53204359Y-53122172D01*
X53039883Y-53368329D01*
X52908944Y-53633848D01*
X52908938Y-53633862D01*
X52813778Y-53914194D01*
X52813776Y-53914204D01*
X52756018Y-54204564D01*
X52756016Y-54204578D01*
X52736654Y-54499996D01*
X52736654Y-54500003D01*
X51633500Y-54500003D01*
X51633500Y-53164592D01*
X51653502Y-53096471D01*
X51670400Y-53075502D01*
X54888657Y-49857245D01*
X54901092Y-49847284D01*
X54900905Y-49847057D01*
X54907009Y-49842005D01*
X54907018Y-49842000D01*
X54954999Y-49790904D01*
X54976134Y-49769770D01*
X54980429Y-49764232D01*
X54984271Y-49759731D01*
X55016586Y-49725321D01*
X55026345Y-49707567D01*
X55037197Y-49691046D01*
X55049613Y-49675041D01*
X55068347Y-49631748D01*
X55070961Y-49626412D01*
X55093694Y-49585061D01*
X55093695Y-49585060D01*
X55098733Y-49565435D01*
X55105138Y-49546730D01*
X55113181Y-49528145D01*
X55120563Y-49481525D01*
X55121756Y-49475764D01*
X55133500Y-49430030D01*
X55133499Y-49409768D01*
X55135051Y-49390052D01*
X55138219Y-49370057D01*
X55133780Y-49323090D01*
X55133500Y-49317158D01*
X55133500Y-48044594D01*
X55153502Y-47976473D01*
X55170405Y-47955499D01*
X55232722Y-47893182D01*
X55295034Y-47859156D01*
X55362731Y-47863105D01*
X55373541Y-47866816D01*
X55383049Y-47870080D01*
X55613288Y-47908500D01*
X55613292Y-47908500D01*
X55846708Y-47908500D01*
X55846712Y-47908500D01*
X56076951Y-47870080D01*
X56297727Y-47794287D01*
X56503017Y-47683190D01*
X56687220Y-47539818D01*
X56687220Y-47539817D01*
X56691054Y-47536289D01*
X56692321Y-47537665D01*
X56746166Y-47505275D01*
X56817131Y-47507379D01*
X56875694Y-47547516D01*
X56896121Y-47583137D01*
X56919553Y-47645961D01*
X56919555Y-47645965D01*
X57007095Y-47762904D01*
X57124034Y-47850444D01*
X57260906Y-47901494D01*
X57321402Y-47907999D01*
X57321415Y-47908000D01*
X58016000Y-47908000D01*
X58016000Y-47063296D01*
X58036002Y-46995175D01*
X58089658Y-46948682D01*
X58159932Y-46938578D01*
X58179130Y-46942892D01*
X58202173Y-46950000D01*
X58202174Y-46950000D01*
X58303724Y-46950000D01*
X58379222Y-46938620D01*
X58449560Y-46948244D01*
X58503531Y-46994371D01*
X58523997Y-47062354D01*
X58524000Y-47063212D01*
X58524000Y-47908000D01*
X59218585Y-47908000D01*
X59218597Y-47907999D01*
X59279093Y-47901494D01*
X59279098Y-47901493D01*
X59330966Y-47882147D01*
X59401782Y-47877081D01*
X59419034Y-47882147D01*
X59470901Y-47901493D01*
X59470906Y-47901494D01*
X59531402Y-47907999D01*
X59531415Y-47908000D01*
X60226000Y-47908000D01*
X60226000Y-47063296D01*
X60246002Y-46995175D01*
X60299658Y-46948682D01*
X60369932Y-46938578D01*
X60389130Y-46942892D01*
G37*
%TD.AperFunction*%
%TA.AperFunction,Conductor*%
G36*
X53732933Y-77264193D02*
G01*
X55501832Y-79033092D01*
X55535858Y-79095404D01*
X55534882Y-79153117D01*
X55505949Y-79267370D01*
X55505581Y-79271811D01*
X55486673Y-79500000D01*
X55505581Y-79728188D01*
X55505950Y-79732633D01*
X55563249Y-79958903D01*
X55563252Y-79958910D01*
X55657015Y-80172668D01*
X55784685Y-80368083D01*
X55942774Y-80539813D01*
X55942778Y-80539817D01*
X56008650Y-80591087D01*
X56126983Y-80683190D01*
X56332273Y-80794287D01*
X56553049Y-80870080D01*
X56783288Y-80908500D01*
X56783292Y-80908500D01*
X57016708Y-80908500D01*
X57016712Y-80908500D01*
X57246951Y-80870080D01*
X57246964Y-80870075D01*
X57250837Y-80869095D01*
X57321784Y-80871753D01*
X57370880Y-80902140D01*
X57904595Y-81435855D01*
X57938621Y-81498167D01*
X57941500Y-81524950D01*
X57941500Y-82768041D01*
X57921498Y-82836162D01*
X57867842Y-82882655D01*
X57797568Y-82892759D01*
X57738110Y-82867473D01*
X57673023Y-82816814D01*
X57673019Y-82816812D01*
X57673017Y-82816810D01*
X57467727Y-82705713D01*
X57467724Y-82705712D01*
X57467723Y-82705711D01*
X57246955Y-82629921D01*
X57246948Y-82629919D01*
X57148411Y-82613476D01*
X57016712Y-82591500D01*
X56783288Y-82591500D01*
X56668066Y-82610727D01*
X56553051Y-82629919D01*
X56553038Y-82629923D01*
X56532725Y-82636896D01*
X56461800Y-82640094D01*
X56402721Y-82606817D01*
X56027241Y-82231336D01*
X56017279Y-82218901D01*
X56017052Y-82219090D01*
X56012001Y-82212984D01*
X56012000Y-82212982D01*
X55960920Y-82165015D01*
X55939777Y-82143871D01*
X55939772Y-82143866D01*
X55934225Y-82139563D01*
X55929717Y-82135712D01*
X55895325Y-82103417D01*
X55895319Y-82103413D01*
X55877563Y-82093651D01*
X55861047Y-82082802D01*
X55845041Y-82070386D01*
X55814289Y-82057078D01*
X55801740Y-82051648D01*
X55796408Y-82049036D01*
X55755061Y-82026305D01*
X55735436Y-82021266D01*
X55716736Y-82014864D01*
X55698145Y-82006819D01*
X55698143Y-82006818D01*
X55698142Y-82006818D01*
X55651542Y-81999437D01*
X55645729Y-81998233D01*
X55600030Y-81986500D01*
X55579776Y-81986500D01*
X55560066Y-81984949D01*
X55540057Y-81981780D01*
X55540056Y-81981780D01*
X55493083Y-81986220D01*
X55487150Y-81986500D01*
X53477038Y-81986500D01*
X53408917Y-81966498D01*
X53371555Y-81929415D01*
X53275724Y-81782734D01*
X53275720Y-81782729D01*
X53123237Y-81617091D01*
X53041382Y-81553381D01*
X52945576Y-81478811D01*
X52912319Y-81460813D01*
X52861929Y-81410802D01*
X52846576Y-81341485D01*
X52871136Y-81274872D01*
X52912320Y-81239186D01*
X52945576Y-81221189D01*
X53123240Y-81082906D01*
X53275722Y-80917268D01*
X53398860Y-80728791D01*
X53489296Y-80522616D01*
X53544564Y-80304368D01*
X53563156Y-80080000D01*
X53544564Y-79855632D01*
X53517200Y-79747575D01*
X53489297Y-79637387D01*
X53489296Y-79637386D01*
X53489296Y-79637384D01*
X53398860Y-79431209D01*
X53301321Y-79281914D01*
X53275724Y-79242734D01*
X53275720Y-79242729D01*
X53123237Y-79077091D01*
X53024191Y-79000000D01*
X52945576Y-78938811D01*
X52911792Y-78920528D01*
X52861402Y-78870516D01*
X52846050Y-78801199D01*
X52870610Y-78734586D01*
X52911793Y-78698901D01*
X52945300Y-78680767D01*
X52945301Y-78680767D01*
X53122902Y-78542534D01*
X53275325Y-78376958D01*
X53398419Y-78188548D01*
X53488820Y-77982456D01*
X53488823Y-77982449D01*
X53536544Y-77794000D01*
X52814844Y-77794000D01*
X52746723Y-77773998D01*
X52700230Y-77720342D01*
X52690126Y-77650068D01*
X52693947Y-77632504D01*
X52700000Y-77611888D01*
X52700000Y-77468111D01*
X52693947Y-77447496D01*
X52693948Y-77376500D01*
X52732333Y-77316774D01*
X52796914Y-77287282D01*
X52814844Y-77286000D01*
X53536543Y-77286000D01*
X53544406Y-77275898D01*
X53602031Y-77234426D01*
X53672929Y-77230692D01*
X53732933Y-77264193D01*
G37*
%TD.AperFunction*%
%TA.AperFunction,Conductor*%
G36*
X66309130Y-48212892D02*
G01*
X66332173Y-48220000D01*
X66332174Y-48220000D01*
X66433724Y-48220000D01*
X66509222Y-48208620D01*
X66579560Y-48218244D01*
X66633531Y-48264371D01*
X66653997Y-48332354D01*
X66654000Y-48333212D01*
X66654000Y-49178000D01*
X67348585Y-49178000D01*
X67348597Y-49177999D01*
X67409092Y-49171494D01*
X67475969Y-49146551D01*
X67546785Y-49141486D01*
X67609097Y-49175511D01*
X67643122Y-49237824D01*
X67646002Y-49264607D01*
X67646002Y-51695906D01*
X67626000Y-51764027D01*
X67572344Y-51810520D01*
X67502070Y-51820624D01*
X67437490Y-51791130D01*
X67430907Y-51785001D01*
X64820405Y-49174499D01*
X64786379Y-49112187D01*
X64783500Y-49085404D01*
X64783500Y-48901013D01*
X64803502Y-48832892D01*
X64857158Y-48786399D01*
X64927432Y-48776295D01*
X64992012Y-48805789D01*
X65027556Y-48856981D01*
X65049555Y-48915965D01*
X65137095Y-49032904D01*
X65254034Y-49120444D01*
X65390906Y-49171494D01*
X65451402Y-49177999D01*
X65451415Y-49178000D01*
X66146000Y-49178000D01*
X66146000Y-48333296D01*
X66166002Y-48265175D01*
X66219658Y-48218682D01*
X66289932Y-48208578D01*
X66309130Y-48212892D01*
G37*
%TD.AperFunction*%
%TA.AperFunction,Conductor*%
G36*
X52209130Y-48212892D02*
G01*
X52232173Y-48220000D01*
X52232174Y-48220000D01*
X52333724Y-48220000D01*
X52409222Y-48208620D01*
X52479560Y-48218244D01*
X52533531Y-48264371D01*
X52553997Y-48332354D01*
X52554000Y-48333212D01*
X52554000Y-49178000D01*
X53248585Y-49178000D01*
X53248597Y-49177999D01*
X53309093Y-49171494D01*
X53445964Y-49120444D01*
X53445965Y-49120444D01*
X53562904Y-49032904D01*
X53639632Y-48930408D01*
X53696468Y-48887861D01*
X53767283Y-48882797D01*
X53829596Y-48916822D01*
X53863621Y-48979134D01*
X53866500Y-49005917D01*
X53866500Y-49035404D01*
X53846498Y-49103525D01*
X53829595Y-49124499D01*
X51348595Y-51605499D01*
X51286283Y-51639525D01*
X51215468Y-51634460D01*
X51158632Y-51591913D01*
X51133821Y-51525393D01*
X51133500Y-51516404D01*
X51133500Y-49293543D01*
X51153502Y-49225422D01*
X51207158Y-49178929D01*
X51277432Y-49168825D01*
X51288480Y-49170921D01*
X51290907Y-49171494D01*
X51351402Y-49177999D01*
X51351415Y-49178000D01*
X52046000Y-49178000D01*
X52046000Y-48333296D01*
X52066002Y-48265175D01*
X52119658Y-48218682D01*
X52189932Y-48208578D01*
X52209130Y-48212892D01*
G37*
%TD.AperFunction*%
%TA.AperFunction,Conductor*%
G36*
X65160105Y-44320502D02*
G01*
X65206598Y-44374158D01*
X65216702Y-44444432D01*
X65197467Y-44495415D01*
X65157015Y-44557331D01*
X65063252Y-44771089D01*
X65063249Y-44771096D01*
X65005950Y-44997366D01*
X65005949Y-44997372D01*
X65005949Y-44997374D01*
X64986673Y-45230000D01*
X65005949Y-45462626D01*
X65005949Y-45462628D01*
X65005950Y-45462633D01*
X65063249Y-45688903D01*
X65063252Y-45688910D01*
X65157015Y-45902668D01*
X65279394Y-46089984D01*
X65284686Y-46098083D01*
X65370209Y-46190985D01*
X65401629Y-46254648D01*
X65393642Y-46325194D01*
X65348784Y-46380223D01*
X65321541Y-46394376D01*
X65254037Y-46419554D01*
X65254034Y-46419555D01*
X65137095Y-46507095D01*
X65049555Y-46624034D01*
X65049555Y-46624035D01*
X64998505Y-46760906D01*
X64992000Y-46821402D01*
X64992000Y-47395249D01*
X64971998Y-47463370D01*
X64918342Y-47509863D01*
X64848068Y-47519967D01*
X64783488Y-47490473D01*
X64748854Y-47441647D01*
X64747076Y-47437157D01*
X64745732Y-47433426D01*
X64727764Y-47378125D01*
X64723349Y-47371168D01*
X64712582Y-47350037D01*
X64709552Y-47342383D01*
X64675379Y-47295348D01*
X64673155Y-47292075D01*
X64671254Y-47289079D01*
X64642000Y-47242982D01*
X64635992Y-47237340D01*
X64620309Y-47219550D01*
X64615474Y-47212895D01*
X64615472Y-47212893D01*
X64570676Y-47175835D01*
X64567707Y-47173217D01*
X64525325Y-47133418D01*
X64525321Y-47133414D01*
X64518096Y-47129442D01*
X64498490Y-47116117D01*
X64492144Y-47110867D01*
X64492140Y-47110864D01*
X64483003Y-47106565D01*
X64447556Y-47081651D01*
X64400919Y-47035013D01*
X64366894Y-46972701D01*
X64367871Y-46914988D01*
X64401107Y-46783740D01*
X64414051Y-46732626D01*
X64433327Y-46500000D01*
X64414051Y-46267374D01*
X64410695Y-46254121D01*
X64356750Y-46041096D01*
X64356747Y-46041089D01*
X64355564Y-46038393D01*
X64262984Y-45827331D01*
X64262983Y-45827330D01*
X64135314Y-45631916D01*
X63977225Y-45460186D01*
X63977221Y-45460182D01*
X63885118Y-45388496D01*
X63793017Y-45316810D01*
X63587727Y-45205713D01*
X63587724Y-45205712D01*
X63587723Y-45205711D01*
X63366955Y-45129921D01*
X63366948Y-45129919D01*
X63268411Y-45113476D01*
X63136712Y-45091500D01*
X62903288Y-45091500D01*
X62788066Y-45110727D01*
X62673051Y-45129919D01*
X62673044Y-45129921D01*
X62452276Y-45205711D01*
X62452273Y-45205713D01*
X62246985Y-45316809D01*
X62246983Y-45316810D01*
X62062778Y-45460182D01*
X62058946Y-45463711D01*
X62057688Y-45462345D01*
X62003763Y-45494742D01*
X61932799Y-45492598D01*
X61874260Y-45452428D01*
X61853877Y-45416861D01*
X61830444Y-45354034D01*
X61742904Y-45237095D01*
X61625965Y-45149555D01*
X61489093Y-45098505D01*
X61428597Y-45092000D01*
X60734000Y-45092000D01*
X60734000Y-45936703D01*
X60713998Y-46004824D01*
X60660342Y-46051317D01*
X60590068Y-46061421D01*
X60570862Y-46057105D01*
X60547827Y-46050000D01*
X60446276Y-46050000D01*
X60370776Y-46061379D01*
X60300438Y-46051754D01*
X60246468Y-46005627D01*
X60226003Y-45937644D01*
X60226000Y-45936787D01*
X60226000Y-45092000D01*
X59531402Y-45092000D01*
X59470904Y-45098505D01*
X59419030Y-45117853D01*
X59348214Y-45122917D01*
X59330967Y-45117853D01*
X59279093Y-45098505D01*
X59218597Y-45092000D01*
X58524000Y-45092000D01*
X58523999Y-45936702D01*
X58503997Y-46004823D01*
X58450341Y-46051316D01*
X58380067Y-46061419D01*
X58360863Y-46057105D01*
X58337827Y-46050000D01*
X58236276Y-46050000D01*
X58160776Y-46061379D01*
X58090438Y-46051754D01*
X58036468Y-46005627D01*
X58016003Y-45937644D01*
X58016000Y-45936787D01*
X58016000Y-45092000D01*
X57321402Y-45092000D01*
X57260906Y-45098505D01*
X57124035Y-45149555D01*
X57124034Y-45149555D01*
X57007095Y-45237095D01*
X56919555Y-45354034D01*
X56919554Y-45354037D01*
X56896121Y-45416863D01*
X56853574Y-45473698D01*
X56787054Y-45498508D01*
X56717680Y-45483416D01*
X56691644Y-45463069D01*
X56691054Y-45463711D01*
X56687221Y-45460182D01*
X56595118Y-45388496D01*
X56503017Y-45316810D01*
X56297727Y-45205713D01*
X56297724Y-45205712D01*
X56297723Y-45205711D01*
X56076955Y-45129921D01*
X56076948Y-45129919D01*
X55978411Y-45113476D01*
X55846712Y-45091500D01*
X55613288Y-45091500D01*
X55498066Y-45110727D01*
X55383051Y-45129919D01*
X55383044Y-45129921D01*
X55162276Y-45205711D01*
X55162273Y-45205713D01*
X54956985Y-45316809D01*
X54956983Y-45316810D01*
X54772778Y-45460182D01*
X54772774Y-45460186D01*
X54614685Y-45631916D01*
X54487015Y-45827331D01*
X54393252Y-46041089D01*
X54393249Y-46041096D01*
X54335950Y-46267366D01*
X54335949Y-46267372D01*
X54335949Y-46267374D01*
X54335528Y-46272459D01*
X54316673Y-46500000D01*
X54335949Y-46732627D01*
X54372026Y-46875091D01*
X54369358Y-46946038D01*
X54338976Y-46995118D01*
X54111333Y-47222760D01*
X54098901Y-47232721D01*
X54099089Y-47232948D01*
X54092980Y-47238001D01*
X54045015Y-47289079D01*
X54023866Y-47310227D01*
X54019560Y-47315777D01*
X54015714Y-47320279D01*
X53983417Y-47354674D01*
X53983411Y-47354683D01*
X53973651Y-47372435D01*
X53962803Y-47388950D01*
X53950385Y-47404959D01*
X53949636Y-47406692D01*
X53948685Y-47407833D01*
X53946351Y-47411782D01*
X53945713Y-47411405D01*
X53904224Y-47461265D01*
X53836517Y-47482624D01*
X53768010Y-47463986D01*
X53720455Y-47411270D01*
X53708000Y-47356649D01*
X53708000Y-46821414D01*
X53707999Y-46821402D01*
X53701494Y-46760906D01*
X53650444Y-46624035D01*
X53650444Y-46624034D01*
X53562904Y-46507095D01*
X53445965Y-46419555D01*
X53445960Y-46419553D01*
X53378459Y-46394376D01*
X53321623Y-46351829D01*
X53296813Y-46285309D01*
X53311905Y-46215935D01*
X53329784Y-46190991D01*
X53415314Y-46098083D01*
X53542984Y-45902669D01*
X53636749Y-45688907D01*
X53694051Y-45462626D01*
X53713327Y-45230000D01*
X53694051Y-44997374D01*
X53636749Y-44771093D01*
X53542984Y-44557331D01*
X53542984Y-44557330D01*
X53502533Y-44495415D01*
X53482020Y-44427446D01*
X53501509Y-44359177D01*
X53554814Y-44312283D01*
X53608016Y-44300500D01*
X65091984Y-44300500D01*
X65160105Y-44320502D01*
G37*
%TD.AperFunction*%
%TA.AperFunction,Conductor*%
G36*
X59986523Y-46266002D02*
G01*
X60033016Y-46319658D01*
X60043120Y-46389932D01*
X60041243Y-46400036D01*
X60026190Y-46465987D01*
X60026190Y-46465990D01*
X60026190Y-46465992D01*
X60036238Y-46600080D01*
X60037033Y-46610681D01*
X60035364Y-46610806D01*
X60031689Y-46670823D01*
X59989725Y-46728091D01*
X59923462Y-46753581D01*
X59913189Y-46754000D01*
X58831598Y-46754000D01*
X58763477Y-46733998D01*
X58716984Y-46680342D01*
X58706880Y-46610068D01*
X58708757Y-46599964D01*
X58723809Y-46534011D01*
X58723810Y-46534008D01*
X58713673Y-46398735D01*
X58713672Y-46398733D01*
X58712967Y-46389319D01*
X58714635Y-46389193D01*
X58718311Y-46329177D01*
X58760275Y-46271909D01*
X58826538Y-46246419D01*
X58836811Y-46246000D01*
X59918402Y-46246000D01*
X59986523Y-46266002D01*
G37*
%TD.AperFunction*%
%TD*%
M02*
