%TF.GenerationSoftware,KiCad,Pcbnew,(6.0.11)*%
%TF.CreationDate,2023-03-29T15:08:17+01:00*%
%TF.ProjectId,QuadEnv_Controls,51756164-456e-4765-9f43-6f6e74726f6c,rev?*%
%TF.SameCoordinates,Original*%
%TF.FileFunction,Copper,L1,Top*%
%TF.FilePolarity,Positive*%
%FSLAX46Y46*%
G04 Gerber Fmt 4.6, Leading zero omitted, Abs format (unit mm)*
G04 Created by KiCad (PCBNEW (6.0.11)) date 2023-03-29 15:08:17*
%MOMM*%
%LPD*%
G01*
G04 APERTURE LIST*
%TA.AperFunction,ComponentPad*%
%ADD10R,1.700000X1.700000*%
%TD*%
%TA.AperFunction,ComponentPad*%
%ADD11O,1.700000X1.700000*%
%TD*%
%TA.AperFunction,ComponentPad*%
%ADD12R,1.800000X1.800000*%
%TD*%
%TA.AperFunction,ComponentPad*%
%ADD13C,1.800000*%
%TD*%
%TA.AperFunction,WasherPad*%
%ADD14C,3.500000*%
%TD*%
%TA.AperFunction,ComponentPad*%
%ADD15C,1.500000*%
%TD*%
%TA.AperFunction,ComponentPad*%
%ADD16R,1.500000X1.500000*%
%TD*%
%TA.AperFunction,ViaPad*%
%ADD17C,0.800000*%
%TD*%
%TA.AperFunction,Conductor*%
%ADD18C,0.250000*%
%TD*%
G04 APERTURE END LIST*
D10*
%TO.P,J1,1,Pin_1*%
%TO.N,+3.3VA*%
X52200000Y-74400000D03*
D11*
%TO.P,J1,2,Pin_2*%
%TO.N,GND*%
X52200000Y-76940000D03*
%TO.P,J1,3,Pin_3*%
%TO.N,/Attack_Pot*%
X52200000Y-79480000D03*
%TO.P,J1,4,Pin_4*%
%TO.N,/Decay_Pot*%
X52200000Y-82020000D03*
%TO.P,J1,5,Pin_5*%
%TO.N,/Release_Pot*%
X52200000Y-84560000D03*
%TO.P,J1,6,Pin_6*%
%TO.N,/Sustain_Pot*%
X52200000Y-87100000D03*
%TD*%
D10*
%TO.P,J3,1,Pin_1*%
%TO.N,/Led2_Out*%
X63200000Y-137200000D03*
D11*
%TO.P,J3,2,Pin_2*%
%TO.N,/Env2_Out*%
X60660000Y-137200000D03*
%TO.P,J3,3,Pin_3*%
%TO.N,/Led1_Out*%
X58120000Y-137200000D03*
%TO.P,J3,4,Pin_4*%
%TO.N,/Env1_Out*%
X55580000Y-137200000D03*
%TD*%
D10*
%TO.P,J4,1,Pin_1*%
%TO.N,/Led3_Out*%
X55600000Y-152700000D03*
D11*
%TO.P,J4,2,Pin_2*%
%TO.N,/Env3_Out*%
X58140000Y-152700000D03*
%TO.P,J4,3,Pin_3*%
%TO.N,/Led4_Out*%
X60680000Y-152700000D03*
%TO.P,J4,4,Pin_4*%
%TO.N,/Env4_Out*%
X63220000Y-152700000D03*
%TD*%
D10*
%TO.P,J2,1,Pin_1*%
%TO.N,/Gate1_In*%
X66600000Y-74400000D03*
D11*
%TO.P,J2,2,Pin_2*%
%TO.N,/Gate2_In*%
X66600000Y-76940000D03*
%TO.P,J2,3,Pin_3*%
%TO.N,/Gate3_In*%
X66600000Y-79480000D03*
%TO.P,J2,4,Pin_4*%
%TO.N,/Gate4_In*%
X66600000Y-82020000D03*
%TO.P,J2,5,Pin_5*%
%TO.N,GND*%
X66600000Y-84560000D03*
%TD*%
D12*
%TO.P,D2,1,K*%
%TO.N,GND*%
X60480000Y-46500000D03*
D13*
%TO.P,D2,2,A*%
%TO.N,/Led2_Out*%
X63020000Y-46500000D03*
%TD*%
D12*
%TO.P,D1,1,K*%
%TO.N,GND*%
X66400000Y-47770000D03*
D13*
%TO.P,D1,2,A*%
%TO.N,/Led1_Out*%
X66400000Y-45230000D03*
%TD*%
D14*
%TO.P,RV4,*%
%TO.N,*%
X63800000Y-110500000D03*
X55000000Y-110500000D03*
D13*
%TO.P,RV4,1,1*%
%TO.N,+3.3VA*%
X56900000Y-117500000D03*
%TO.P,RV4,2,2*%
%TO.N,/Sustain_Pot*%
X59400000Y-117500000D03*
%TO.P,RV4,3,3*%
%TO.N,GND*%
X61900000Y-117500000D03*
%TD*%
D12*
%TO.P,D4,1,K*%
%TO.N,GND*%
X52300000Y-47770000D03*
D13*
%TO.P,D4,2,A*%
%TO.N,/Led4_Out*%
X52300000Y-45230000D03*
%TD*%
D14*
%TO.P,RV3,*%
%TO.N,*%
X55000000Y-91500000D03*
X63800000Y-91500000D03*
D13*
%TO.P,RV3,1,1*%
%TO.N,+3.3VA*%
X56900000Y-98500000D03*
%TO.P,RV3,2,2*%
%TO.N,/Release_Pot*%
X59400000Y-98500000D03*
%TO.P,RV3,3,3*%
%TO.N,GND*%
X61900000Y-98500000D03*
%TD*%
D15*
%TO.P,J6,1*%
%TO.N,/Env1_Out*%
X62960000Y-144230000D03*
%TO.P,J6,2*%
%TO.N,/Env2_Out*%
X61930000Y-141690000D03*
%TO.P,J6,3*%
%TO.N,/Env3_Out*%
X60930000Y-144230000D03*
%TO.P,J6,4*%
%TO.N,/Env4_Out*%
X59910000Y-141690000D03*
%TO.P,J6,5*%
%TO.N,unconnected-(J6-Pad5)*%
X58900000Y-144230000D03*
%TO.P,J6,6*%
%TO.N,unconnected-(J6-Pad6)*%
X57880000Y-141690000D03*
%TO.P,J6,7*%
%TO.N,unconnected-(J6-Pad7)*%
X56870000Y-144230000D03*
D16*
%TO.P,J6,8*%
%TO.N,unconnected-(J6-Pad8)*%
X55850000Y-141690000D03*
%TD*%
D14*
%TO.P,RV2,*%
%TO.N,*%
X55000000Y-72500000D03*
X63800000Y-72500000D03*
D13*
%TO.P,RV2,1,1*%
%TO.N,+3.3VA*%
X56900000Y-79500000D03*
%TO.P,RV2,2,2*%
%TO.N,/Decay_Pot*%
X59400000Y-79500000D03*
%TO.P,RV2,3,3*%
%TO.N,GND*%
X61900000Y-79500000D03*
%TD*%
D12*
%TO.P,D3,1,K*%
%TO.N,GND*%
X58270000Y-46500000D03*
D13*
%TO.P,D3,2,A*%
%TO.N,/Led3_Out*%
X55730000Y-46500000D03*
%TD*%
D14*
%TO.P,RV1,*%
%TO.N,*%
X63800000Y-54500000D03*
X55000000Y-54500000D03*
D13*
%TO.P,RV1,1,1*%
%TO.N,+3.3VA*%
X56900000Y-61500000D03*
%TO.P,RV1,2,2*%
%TO.N,/Attack_Pot*%
X59400000Y-61500000D03*
%TO.P,RV1,3,3*%
%TO.N,GND*%
X61900000Y-61500000D03*
%TD*%
D15*
%TO.P,J5,1*%
%TO.N,/Gate1_In*%
X55840000Y-130170000D03*
%TO.P,J5,2*%
%TO.N,/Gate2_In*%
X56870000Y-132710000D03*
%TO.P,J5,3*%
%TO.N,/Gate3_In*%
X57870000Y-130170000D03*
%TO.P,J5,4*%
%TO.N,/Gate4_In*%
X58890000Y-132710000D03*
%TO.P,J5,5*%
%TO.N,unconnected-(J5-Pad5)*%
X59900000Y-130170000D03*
%TO.P,J5,6*%
%TO.N,unconnected-(J5-Pad6)*%
X60920000Y-132710000D03*
%TO.P,J5,7*%
%TO.N,unconnected-(J5-Pad7)*%
X61930000Y-130170000D03*
D16*
%TO.P,J5,8*%
%TO.N,unconnected-(J5-Pad8)*%
X62950000Y-132710000D03*
%TD*%
D17*
%TO.N,/Led3_Out*%
X55585785Y-146164215D03*
%TO.N,GND*%
X61800000Y-83700000D03*
X64200000Y-88200000D03*
%TD*%
D18*
%TO.N,/Led3_Out*%
X55600000Y-146178430D02*
X55585785Y-146164215D01*
X55600000Y-152700000D02*
X55600000Y-146178430D01*
%TO.N,/Attack_Pot*%
X59400000Y-61500000D02*
X59400000Y-72280000D01*
X59400000Y-72280000D02*
X52200000Y-79480000D01*
%TO.N,/Decay_Pot*%
X56880000Y-82020000D02*
X52200000Y-82020000D01*
X59400000Y-79500000D02*
X56880000Y-82020000D01*
%TO.N,/Release_Pot*%
X59400000Y-91760000D02*
X52200000Y-84560000D01*
X59400000Y-98500000D02*
X59400000Y-91760000D01*
%TO.N,/Sustain_Pot*%
X59400000Y-117500000D02*
X59400000Y-103900000D01*
X52200000Y-96700000D02*
X52200000Y-87100000D01*
X59400000Y-103900000D02*
X52200000Y-96700000D01*
%TO.N,/Env2_Out*%
X60660000Y-140500000D02*
X61850000Y-141690000D01*
X60660000Y-137200000D02*
X60660000Y-140500000D01*
%TO.N,/Gate2_In*%
X60675000Y-82865000D02*
X66600000Y-76940000D01*
X60675000Y-122925000D02*
X60675000Y-82865000D01*
X54400000Y-131100000D02*
X54400000Y-129200000D01*
X56010000Y-132710000D02*
X54400000Y-131100000D01*
X54400000Y-129200000D02*
X60675000Y-122925000D01*
X56950000Y-132710000D02*
X56010000Y-132710000D01*
%TO.N,/Gate3_In*%
X64500000Y-81580000D02*
X66600000Y-79480000D01*
X66800000Y-121320000D02*
X66800000Y-88700000D01*
X64500000Y-86400000D02*
X64500000Y-81580000D01*
X66800000Y-88700000D02*
X64500000Y-86400000D01*
X57950000Y-130170000D02*
X66800000Y-121320000D01*
%TO.N,/Gate4_In*%
X62500000Y-131400000D02*
X60280000Y-131400000D01*
X67900000Y-83320000D02*
X67900000Y-126000000D01*
X60280000Y-131400000D02*
X58970000Y-132710000D01*
X67900000Y-126000000D02*
X62500000Y-131400000D01*
X66600000Y-82020000D02*
X67900000Y-83320000D01*
%TO.N,/Env3_Out*%
X58140000Y-152700000D02*
X60850000Y-149990000D01*
X60850000Y-149990000D02*
X60850000Y-144230000D01*
%TO.N,/Env4_Out*%
X63300000Y-143000000D02*
X61140000Y-143000000D01*
X64070000Y-143770000D02*
X63300000Y-143000000D01*
X64070000Y-151850000D02*
X64070000Y-143770000D01*
X63220000Y-152700000D02*
X64070000Y-151850000D01*
X61140000Y-143000000D02*
X59830000Y-141690000D01*
%TD*%
%TA.AperFunction,Conductor*%
%TO.N,GND*%
G36*
X50952701Y-44528502D02*
G01*
X50999194Y-44582158D01*
X51009298Y-44652432D01*
X50998867Y-44687551D01*
X50975778Y-44737291D01*
X50975774Y-44737302D01*
X50973602Y-44741981D01*
X50911707Y-44965169D01*
X50887095Y-45195469D01*
X50887392Y-45200622D01*
X50887392Y-45200625D01*
X50894293Y-45320315D01*
X50900427Y-45426697D01*
X50901564Y-45431743D01*
X50901565Y-45431749D01*
X50933741Y-45574523D01*
X50951346Y-45652642D01*
X50953288Y-45657424D01*
X50953289Y-45657428D01*
X51022467Y-45827793D01*
X51038484Y-45867237D01*
X51159501Y-46064719D01*
X51162882Y-46068622D01*
X51271653Y-46194191D01*
X51301135Y-46258776D01*
X51291020Y-46329049D01*
X51244519Y-46382697D01*
X51220646Y-46394670D01*
X51161944Y-46416677D01*
X51146351Y-46425214D01*
X51044276Y-46501715D01*
X51031715Y-46514276D01*
X50955214Y-46616351D01*
X50946676Y-46631946D01*
X50901522Y-46752394D01*
X50897895Y-46767649D01*
X50892369Y-46818514D01*
X50892000Y-46825328D01*
X50892000Y-47497885D01*
X50896475Y-47513124D01*
X50897865Y-47514329D01*
X50905548Y-47516000D01*
X53689884Y-47516000D01*
X53705123Y-47511525D01*
X53706328Y-47510135D01*
X53707999Y-47502452D01*
X53707999Y-46825331D01*
X53707629Y-46818510D01*
X53702105Y-46767648D01*
X53698479Y-46752396D01*
X53653324Y-46631946D01*
X53644786Y-46616351D01*
X53568285Y-46514276D01*
X53555724Y-46501715D01*
X53507361Y-46465469D01*
X54317095Y-46465469D01*
X54317392Y-46470622D01*
X54317392Y-46470625D01*
X54323067Y-46569041D01*
X54330427Y-46696697D01*
X54331564Y-46701743D01*
X54331565Y-46701749D01*
X54357879Y-46818510D01*
X54381346Y-46922642D01*
X54383288Y-46927424D01*
X54383289Y-46927428D01*
X54466540Y-47132450D01*
X54468484Y-47137237D01*
X54589501Y-47334719D01*
X54741147Y-47509784D01*
X54919349Y-47657730D01*
X55119322Y-47774584D01*
X55335694Y-47857209D01*
X55340760Y-47858240D01*
X55340761Y-47858240D01*
X55393846Y-47869040D01*
X55562656Y-47903385D01*
X55693324Y-47908176D01*
X55788949Y-47911683D01*
X55788953Y-47911683D01*
X55794113Y-47911872D01*
X55799233Y-47911216D01*
X55799235Y-47911216D01*
X55898668Y-47898478D01*
X56023847Y-47882442D01*
X56028795Y-47880957D01*
X56028802Y-47880956D01*
X56240747Y-47817369D01*
X56245690Y-47815886D01*
X56326236Y-47776427D01*
X56449049Y-47716262D01*
X56449052Y-47716260D01*
X56453684Y-47713991D01*
X56642243Y-47579494D01*
X56645900Y-47575850D01*
X56645906Y-47575845D01*
X56687697Y-47534199D01*
X56750068Y-47500282D01*
X56820875Y-47505470D01*
X56877637Y-47548116D01*
X56894619Y-47579218D01*
X56916677Y-47638056D01*
X56925214Y-47653649D01*
X57001715Y-47755724D01*
X57014276Y-47768285D01*
X57116351Y-47844786D01*
X57131946Y-47853324D01*
X57252394Y-47898478D01*
X57267649Y-47902105D01*
X57318514Y-47907631D01*
X57325328Y-47908000D01*
X57997885Y-47908000D01*
X58013124Y-47903525D01*
X58014329Y-47902135D01*
X58016000Y-47894452D01*
X58016000Y-47889884D01*
X58524000Y-47889884D01*
X58528475Y-47905123D01*
X58529865Y-47906328D01*
X58537548Y-47907999D01*
X59214669Y-47907999D01*
X59221490Y-47907629D01*
X59272352Y-47902105D01*
X59287607Y-47898478D01*
X59330769Y-47882297D01*
X59401576Y-47877113D01*
X59419231Y-47882297D01*
X59462390Y-47898477D01*
X59477649Y-47902105D01*
X59528514Y-47907631D01*
X59535328Y-47908000D01*
X60207885Y-47908000D01*
X60223124Y-47903525D01*
X60224329Y-47902135D01*
X60226000Y-47894452D01*
X60226000Y-47889884D01*
X60734000Y-47889884D01*
X60738475Y-47905123D01*
X60739865Y-47906328D01*
X60747548Y-47907999D01*
X61424669Y-47907999D01*
X61431490Y-47907629D01*
X61482352Y-47902105D01*
X61497604Y-47898479D01*
X61618054Y-47853324D01*
X61633649Y-47844786D01*
X61735724Y-47768285D01*
X61748285Y-47755724D01*
X61824786Y-47653649D01*
X61833324Y-47638054D01*
X61854773Y-47580840D01*
X61897415Y-47524075D01*
X61963977Y-47499376D01*
X62033325Y-47514584D01*
X62053240Y-47528126D01*
X62185652Y-47638056D01*
X62209349Y-47657730D01*
X62409322Y-47774584D01*
X62625694Y-47857209D01*
X62630760Y-47858240D01*
X62630761Y-47858240D01*
X62683846Y-47869040D01*
X62852656Y-47903385D01*
X62983324Y-47908176D01*
X63078949Y-47911683D01*
X63078953Y-47911683D01*
X63084113Y-47911872D01*
X63089233Y-47911216D01*
X63089235Y-47911216D01*
X63188668Y-47898478D01*
X63313847Y-47882442D01*
X63318795Y-47880957D01*
X63318802Y-47880956D01*
X63530747Y-47817369D01*
X63535690Y-47815886D01*
X63616236Y-47776427D01*
X63739049Y-47716262D01*
X63739052Y-47716260D01*
X63743684Y-47713991D01*
X63932243Y-47579494D01*
X64096303Y-47416005D01*
X64231458Y-47227917D01*
X64278641Y-47132450D01*
X64331784Y-47024922D01*
X64331785Y-47024920D01*
X64334078Y-47020280D01*
X64401408Y-46798671D01*
X64431640Y-46569041D01*
X64433327Y-46500000D01*
X64423683Y-46382697D01*
X64414773Y-46274318D01*
X64414772Y-46274312D01*
X64414349Y-46269167D01*
X64386137Y-46156850D01*
X64359184Y-46049544D01*
X64359183Y-46049540D01*
X64357925Y-46044533D01*
X64355866Y-46039797D01*
X64267630Y-45836868D01*
X64267628Y-45836865D01*
X64265570Y-45832131D01*
X64139764Y-45637665D01*
X63983887Y-45466358D01*
X63979836Y-45463159D01*
X63979832Y-45463155D01*
X63806177Y-45326011D01*
X63806172Y-45326008D01*
X63802123Y-45322810D01*
X63797607Y-45320317D01*
X63797604Y-45320315D01*
X63603879Y-45213373D01*
X63603875Y-45213371D01*
X63599355Y-45210876D01*
X63594486Y-45209152D01*
X63594482Y-45209150D01*
X63385903Y-45135288D01*
X63385899Y-45135287D01*
X63381028Y-45133562D01*
X63375935Y-45132655D01*
X63375932Y-45132654D01*
X63158095Y-45093851D01*
X63158089Y-45093850D01*
X63153006Y-45092945D01*
X63075644Y-45092000D01*
X62926581Y-45090179D01*
X62926579Y-45090179D01*
X62921411Y-45090116D01*
X62692464Y-45125150D01*
X62472314Y-45197106D01*
X62467726Y-45199494D01*
X62467722Y-45199496D01*
X62282933Y-45295691D01*
X62266872Y-45304052D01*
X62262739Y-45307155D01*
X62262736Y-45307157D01*
X62085790Y-45440012D01*
X62081655Y-45443117D01*
X62078083Y-45446855D01*
X62063787Y-45461815D01*
X62002263Y-45497245D01*
X61931351Y-45493788D01*
X61873564Y-45452543D01*
X61854711Y-45418994D01*
X61833324Y-45361946D01*
X61824786Y-45346351D01*
X61748285Y-45244276D01*
X61735724Y-45231715D01*
X61633649Y-45155214D01*
X61618054Y-45146676D01*
X61497606Y-45101522D01*
X61482351Y-45097895D01*
X61431486Y-45092369D01*
X61424672Y-45092000D01*
X60752115Y-45092000D01*
X60736876Y-45096475D01*
X60735671Y-45097865D01*
X60734000Y-45105548D01*
X60734000Y-47889884D01*
X60226000Y-47889884D01*
X60226000Y-46772115D01*
X60221525Y-46756876D01*
X60220135Y-46755671D01*
X60212452Y-46754000D01*
X58542115Y-46754000D01*
X58526876Y-46758475D01*
X58525671Y-46759865D01*
X58524000Y-46767548D01*
X58524000Y-47889884D01*
X58016000Y-47889884D01*
X58016000Y-46227885D01*
X58524000Y-46227885D01*
X58528475Y-46243124D01*
X58529865Y-46244329D01*
X58537548Y-46246000D01*
X60207885Y-46246000D01*
X60223124Y-46241525D01*
X60224329Y-46240135D01*
X60226000Y-46232452D01*
X60226000Y-45110116D01*
X60221525Y-45094877D01*
X60220135Y-45093672D01*
X60212452Y-45092001D01*
X59535331Y-45092001D01*
X59528510Y-45092371D01*
X59477648Y-45097895D01*
X59462393Y-45101522D01*
X59419231Y-45117703D01*
X59348424Y-45122887D01*
X59330769Y-45117703D01*
X59287610Y-45101523D01*
X59272351Y-45097895D01*
X59221486Y-45092369D01*
X59214672Y-45092000D01*
X58542115Y-45092000D01*
X58526876Y-45096475D01*
X58525671Y-45097865D01*
X58524000Y-45105548D01*
X58524000Y-46227885D01*
X58016000Y-46227885D01*
X58016000Y-45110116D01*
X58011525Y-45094877D01*
X58010135Y-45093672D01*
X58002452Y-45092001D01*
X57325331Y-45092001D01*
X57318510Y-45092371D01*
X57267648Y-45097895D01*
X57252396Y-45101521D01*
X57131946Y-45146676D01*
X57116351Y-45155214D01*
X57014276Y-45231715D01*
X57001715Y-45244276D01*
X56925214Y-45346351D01*
X56916675Y-45361948D01*
X56895934Y-45417275D01*
X56853293Y-45474040D01*
X56786731Y-45498740D01*
X56717383Y-45483533D01*
X56694388Y-45466909D01*
X56693887Y-45466358D01*
X56650064Y-45431749D01*
X56516177Y-45326011D01*
X56516172Y-45326008D01*
X56512123Y-45322810D01*
X56507607Y-45320317D01*
X56507604Y-45320315D01*
X56313879Y-45213373D01*
X56313875Y-45213371D01*
X56309355Y-45210876D01*
X56304486Y-45209152D01*
X56304482Y-45209150D01*
X56095903Y-45135288D01*
X56095899Y-45135287D01*
X56091028Y-45133562D01*
X56085935Y-45132655D01*
X56085932Y-45132654D01*
X55868095Y-45093851D01*
X55868089Y-45093850D01*
X55863006Y-45092945D01*
X55785644Y-45092000D01*
X55636581Y-45090179D01*
X55636579Y-45090179D01*
X55631411Y-45090116D01*
X55402464Y-45125150D01*
X55182314Y-45197106D01*
X55177726Y-45199494D01*
X55177722Y-45199496D01*
X54992933Y-45295691D01*
X54976872Y-45304052D01*
X54972739Y-45307155D01*
X54972736Y-45307157D01*
X54795790Y-45440012D01*
X54791655Y-45443117D01*
X54631639Y-45610564D01*
X54628725Y-45614836D01*
X54628724Y-45614837D01*
X54555348Y-45722402D01*
X54501119Y-45801899D01*
X54403602Y-46011981D01*
X54341707Y-46235169D01*
X54317095Y-46465469D01*
X53507361Y-46465469D01*
X53453649Y-46425214D01*
X53438052Y-46416675D01*
X53379415Y-46394693D01*
X53322650Y-46352052D01*
X53297950Y-46285490D01*
X53313157Y-46216141D01*
X53334703Y-46187461D01*
X53372641Y-46149654D01*
X53376303Y-46146005D01*
X53511458Y-45957917D01*
X53558641Y-45862450D01*
X53611784Y-45754922D01*
X53611785Y-45754920D01*
X53614078Y-45750280D01*
X53681408Y-45528671D01*
X53711640Y-45299041D01*
X53713327Y-45230000D01*
X53707032Y-45153434D01*
X53694773Y-45004318D01*
X53694772Y-45004312D01*
X53694349Y-44999167D01*
X53637925Y-44774533D01*
X53635869Y-44769803D01*
X53635866Y-44769796D01*
X53598883Y-44684742D01*
X53590063Y-44614295D01*
X53620730Y-44550264D01*
X53681147Y-44512976D01*
X53714433Y-44508500D01*
X64984580Y-44508500D01*
X65052701Y-44528502D01*
X65099194Y-44582158D01*
X65109298Y-44652432D01*
X65098867Y-44687551D01*
X65075778Y-44737291D01*
X65075774Y-44737302D01*
X65073602Y-44741981D01*
X65011707Y-44965169D01*
X64987095Y-45195469D01*
X64987392Y-45200622D01*
X64987392Y-45200625D01*
X64994293Y-45320315D01*
X65000427Y-45426697D01*
X65001564Y-45431743D01*
X65001565Y-45431749D01*
X65033741Y-45574523D01*
X65051346Y-45652642D01*
X65053288Y-45657424D01*
X65053289Y-45657428D01*
X65122467Y-45827793D01*
X65138484Y-45867237D01*
X65259501Y-46064719D01*
X65262882Y-46068622D01*
X65371653Y-46194191D01*
X65401135Y-46258776D01*
X65391020Y-46329049D01*
X65344519Y-46382697D01*
X65320646Y-46394670D01*
X65261944Y-46416677D01*
X65246351Y-46425214D01*
X65144276Y-46501715D01*
X65131715Y-46514276D01*
X65055214Y-46616351D01*
X65046676Y-46631946D01*
X65001522Y-46752394D01*
X64997895Y-46767649D01*
X64992369Y-46818514D01*
X64992000Y-46825328D01*
X64992000Y-47497885D01*
X64996475Y-47513124D01*
X64997865Y-47514329D01*
X65005548Y-47516000D01*
X67789884Y-47516000D01*
X67805123Y-47511525D01*
X67806328Y-47510135D01*
X67807999Y-47502452D01*
X67807999Y-46825331D01*
X67807629Y-46818510D01*
X67802105Y-46767648D01*
X67798479Y-46752396D01*
X67753324Y-46631946D01*
X67744786Y-46616351D01*
X67668285Y-46514276D01*
X67655724Y-46501715D01*
X67553649Y-46425214D01*
X67538052Y-46416675D01*
X67479415Y-46394693D01*
X67422650Y-46352052D01*
X67397950Y-46285490D01*
X67413157Y-46216141D01*
X67434703Y-46187461D01*
X67472641Y-46149654D01*
X67476303Y-46146005D01*
X67611458Y-45957917D01*
X67658641Y-45862450D01*
X67711784Y-45754922D01*
X67711785Y-45754920D01*
X67714078Y-45750280D01*
X67781408Y-45528671D01*
X67811640Y-45299041D01*
X67813327Y-45230000D01*
X67807032Y-45153434D01*
X67794773Y-45004318D01*
X67794772Y-45004312D01*
X67794349Y-44999167D01*
X67737925Y-44774533D01*
X67735869Y-44769803D01*
X67735866Y-44769796D01*
X67698883Y-44684742D01*
X67690063Y-44614295D01*
X67720730Y-44550264D01*
X67781147Y-44512976D01*
X67814433Y-44508500D01*
X68165500Y-44508500D01*
X68233621Y-44528502D01*
X68280114Y-44582158D01*
X68291500Y-44634500D01*
X68291500Y-82511404D01*
X68271498Y-82579525D01*
X68217842Y-82626018D01*
X68147568Y-82636122D01*
X68082988Y-82606628D01*
X68076405Y-82600500D01*
X67951217Y-82475312D01*
X67917193Y-82413002D01*
X67919755Y-82349589D01*
X67930865Y-82313022D01*
X67932370Y-82308069D01*
X67961529Y-82086590D01*
X67963156Y-82020000D01*
X67944852Y-81797361D01*
X67890431Y-81580702D01*
X67801354Y-81375840D01*
X67712798Y-81238953D01*
X67682822Y-81192617D01*
X67682820Y-81192614D01*
X67680014Y-81188277D01*
X67529670Y-81023051D01*
X67525619Y-81019852D01*
X67525615Y-81019848D01*
X67358414Y-80887800D01*
X67358410Y-80887798D01*
X67354359Y-80884598D01*
X67313053Y-80861796D01*
X67263084Y-80811364D01*
X67248312Y-80741921D01*
X67273428Y-80675516D01*
X67300780Y-80648909D01*
X67344603Y-80617650D01*
X67479860Y-80521173D01*
X67487976Y-80513086D01*
X67634435Y-80367137D01*
X67638096Y-80363489D01*
X67697594Y-80280689D01*
X67765435Y-80186277D01*
X67768453Y-80182077D01*
X67867430Y-79981811D01*
X67932370Y-79768069D01*
X67961529Y-79546590D01*
X67961611Y-79543240D01*
X67963074Y-79483365D01*
X67963074Y-79483361D01*
X67963156Y-79480000D01*
X67944852Y-79257361D01*
X67890431Y-79040702D01*
X67801354Y-78835840D01*
X67761906Y-78774862D01*
X67682822Y-78652617D01*
X67682820Y-78652614D01*
X67680014Y-78648277D01*
X67529670Y-78483051D01*
X67525619Y-78479852D01*
X67525615Y-78479848D01*
X67358414Y-78347800D01*
X67358410Y-78347798D01*
X67354359Y-78344598D01*
X67313053Y-78321796D01*
X67263084Y-78271364D01*
X67248312Y-78201921D01*
X67273428Y-78135516D01*
X67300780Y-78108909D01*
X67379279Y-78052916D01*
X67479860Y-77981173D01*
X67638096Y-77823489D01*
X67768453Y-77642077D01*
X67867430Y-77441811D01*
X67932370Y-77228069D01*
X67961529Y-77006590D01*
X67963156Y-76940000D01*
X67944852Y-76717361D01*
X67890431Y-76500702D01*
X67801354Y-76295840D01*
X67680014Y-76108277D01*
X67660405Y-76086727D01*
X67532798Y-75946488D01*
X67501746Y-75882642D01*
X67510141Y-75812143D01*
X67555317Y-75757375D01*
X67581761Y-75743706D01*
X67688297Y-75703767D01*
X67696705Y-75700615D01*
X67813261Y-75613261D01*
X67900615Y-75496705D01*
X67951745Y-75360316D01*
X67958500Y-75298134D01*
X67958500Y-73501866D01*
X67951745Y-73439684D01*
X67900615Y-73303295D01*
X67813261Y-73186739D01*
X67696705Y-73099385D01*
X67560316Y-73048255D01*
X67498134Y-73041500D01*
X66148567Y-73041500D01*
X66080446Y-73021498D01*
X66033953Y-72967842D01*
X66024988Y-72890918D01*
X66043180Y-72799465D01*
X66043181Y-72799459D01*
X66043983Y-72795426D01*
X66044755Y-72783657D01*
X66063076Y-72504119D01*
X66063346Y-72500000D01*
X66056979Y-72402856D01*
X66044253Y-72208686D01*
X66044252Y-72208679D01*
X66043983Y-72204574D01*
X66014132Y-72054501D01*
X65987030Y-71918253D01*
X65987028Y-71918247D01*
X65986224Y-71914203D01*
X65891059Y-71633855D01*
X65760115Y-71368327D01*
X65595633Y-71122162D01*
X65592919Y-71119068D01*
X65592915Y-71119062D01*
X65403136Y-70902662D01*
X65400427Y-70899573D01*
X65397338Y-70896864D01*
X65180938Y-70707085D01*
X65180932Y-70707081D01*
X65177838Y-70704367D01*
X65174412Y-70702078D01*
X65174407Y-70702074D01*
X64935106Y-70542179D01*
X64931673Y-70539885D01*
X64927974Y-70538061D01*
X64927969Y-70538058D01*
X64791687Y-70470852D01*
X64666145Y-70408941D01*
X64662239Y-70407615D01*
X64389710Y-70315104D01*
X64389706Y-70315103D01*
X64385797Y-70313776D01*
X64381753Y-70312972D01*
X64381747Y-70312970D01*
X64099465Y-70256820D01*
X64099459Y-70256819D01*
X64095426Y-70256017D01*
X64091321Y-70255748D01*
X64091314Y-70255747D01*
X63804119Y-70236924D01*
X63800000Y-70236654D01*
X63795881Y-70236924D01*
X63508686Y-70255747D01*
X63508679Y-70255748D01*
X63504574Y-70256017D01*
X63500541Y-70256819D01*
X63500535Y-70256820D01*
X63218253Y-70312970D01*
X63218247Y-70312972D01*
X63214203Y-70313776D01*
X63210294Y-70315103D01*
X63210290Y-70315104D01*
X62937761Y-70407615D01*
X62933855Y-70408941D01*
X62808313Y-70470852D01*
X62672031Y-70538058D01*
X62672026Y-70538061D01*
X62668327Y-70539885D01*
X62664894Y-70542179D01*
X62425593Y-70702074D01*
X62425588Y-70702078D01*
X62422162Y-70704367D01*
X62419068Y-70707081D01*
X62419062Y-70707085D01*
X62202662Y-70896864D01*
X62199573Y-70899573D01*
X62196864Y-70902662D01*
X62007085Y-71119062D01*
X62007081Y-71119068D01*
X62004367Y-71122162D01*
X61839885Y-71368327D01*
X61708941Y-71633855D01*
X61613776Y-71914203D01*
X61612972Y-71918247D01*
X61612970Y-71918253D01*
X61585869Y-72054501D01*
X61556017Y-72204574D01*
X61555748Y-72208679D01*
X61555747Y-72208686D01*
X61543021Y-72402856D01*
X61536654Y-72500000D01*
X61536924Y-72504119D01*
X61555246Y-72783657D01*
X61556017Y-72795426D01*
X61556819Y-72799459D01*
X61556820Y-72799465D01*
X61606308Y-73048255D01*
X61613776Y-73085797D01*
X61615103Y-73089706D01*
X61615104Y-73089710D01*
X61618388Y-73099385D01*
X61708941Y-73366145D01*
X61749081Y-73447540D01*
X61778837Y-73507879D01*
X61839885Y-73631673D01*
X62004367Y-73877838D01*
X62007081Y-73880932D01*
X62007085Y-73880938D01*
X62196864Y-74097338D01*
X62199573Y-74100427D01*
X62202662Y-74103136D01*
X62419062Y-74292915D01*
X62419068Y-74292919D01*
X62422162Y-74295633D01*
X62425588Y-74297922D01*
X62425593Y-74297926D01*
X62609344Y-74420704D01*
X62668327Y-74460115D01*
X62672026Y-74461939D01*
X62672031Y-74461942D01*
X62726545Y-74488825D01*
X62933855Y-74591059D01*
X62937760Y-74592384D01*
X62937761Y-74592385D01*
X63210290Y-74684896D01*
X63210294Y-74684897D01*
X63214203Y-74686224D01*
X63218247Y-74687028D01*
X63218253Y-74687030D01*
X63500535Y-74743180D01*
X63500541Y-74743181D01*
X63504574Y-74743983D01*
X63508679Y-74744252D01*
X63508686Y-74744253D01*
X63795881Y-74763076D01*
X63800000Y-74763346D01*
X63804119Y-74763076D01*
X64091314Y-74744253D01*
X64091321Y-74744252D01*
X64095426Y-74743983D01*
X64099459Y-74743181D01*
X64099465Y-74743180D01*
X64381747Y-74687030D01*
X64381753Y-74687028D01*
X64385797Y-74686224D01*
X64389706Y-74684897D01*
X64389710Y-74684896D01*
X64662239Y-74592385D01*
X64662240Y-74592384D01*
X64666145Y-74591059D01*
X64873455Y-74488825D01*
X64927969Y-74461942D01*
X64927974Y-74461939D01*
X64931673Y-74460115D01*
X64990656Y-74420704D01*
X65045498Y-74384060D01*
X65113251Y-74362845D01*
X65181718Y-74381628D01*
X65229161Y-74434446D01*
X65241500Y-74488825D01*
X65241500Y-75298134D01*
X65248255Y-75360316D01*
X65299385Y-75496705D01*
X65386739Y-75613261D01*
X65503295Y-75700615D01*
X65511704Y-75703767D01*
X65511705Y-75703768D01*
X65620451Y-75744535D01*
X65677216Y-75787176D01*
X65701916Y-75853738D01*
X65686709Y-75923087D01*
X65667316Y-75949568D01*
X65540629Y-76082138D01*
X65537715Y-76086410D01*
X65537714Y-76086411D01*
X65525409Y-76104450D01*
X65414743Y-76266680D01*
X65320688Y-76469305D01*
X65260989Y-76684570D01*
X65237251Y-76906695D01*
X65237548Y-76911848D01*
X65237548Y-76911851D01*
X65243011Y-77006590D01*
X65250110Y-77129715D01*
X65251247Y-77134761D01*
X65251248Y-77134767D01*
X65283453Y-77277668D01*
X65278917Y-77348520D01*
X65249631Y-77394464D01*
X63467270Y-79176825D01*
X63404958Y-79210851D01*
X63334143Y-79205786D01*
X63277307Y-79163239D01*
X63255971Y-79118426D01*
X63238709Y-79049706D01*
X63235389Y-79039953D01*
X63147193Y-78837118D01*
X63142315Y-78828020D01*
X63069224Y-78715038D01*
X63058538Y-78705835D01*
X63048973Y-78710238D01*
X61900000Y-79859210D01*
X61110182Y-80649029D01*
X61103423Y-80661406D01*
X61108705Y-80668461D01*
X61285080Y-80771527D01*
X61294363Y-80775974D01*
X61501003Y-80854883D01*
X61515868Y-80859202D01*
X61515495Y-80860486D01*
X61572749Y-80890756D01*
X61607611Y-80952604D01*
X61603500Y-81023482D01*
X61573957Y-81070138D01*
X60282747Y-82361348D01*
X60274461Y-82368888D01*
X60267982Y-82373000D01*
X60262557Y-82378777D01*
X60221357Y-82422651D01*
X60218602Y-82425493D01*
X60198865Y-82445230D01*
X60196385Y-82448427D01*
X60188682Y-82457447D01*
X60158414Y-82489679D01*
X60154595Y-82496625D01*
X60154593Y-82496628D01*
X60148652Y-82507434D01*
X60137801Y-82523953D01*
X60125386Y-82539959D01*
X60122241Y-82547228D01*
X60122238Y-82547232D01*
X60107826Y-82580537D01*
X60102609Y-82591187D01*
X60081305Y-82629940D01*
X60079334Y-82637615D01*
X60079334Y-82637616D01*
X60076267Y-82649562D01*
X60069863Y-82668266D01*
X60061819Y-82686855D01*
X60060580Y-82694678D01*
X60060577Y-82694688D01*
X60054901Y-82730524D01*
X60052495Y-82742144D01*
X60041500Y-82784970D01*
X60041500Y-82805224D01*
X60039949Y-82824934D01*
X60036780Y-82844943D01*
X60037526Y-82852835D01*
X60040941Y-82888961D01*
X60041500Y-82900819D01*
X60041500Y-91200752D01*
X60021498Y-91268873D01*
X59967842Y-91315366D01*
X59897568Y-91325470D01*
X59835177Y-91297831D01*
X59831388Y-91294696D01*
X59822616Y-91286712D01*
X53551218Y-85015313D01*
X53517192Y-84953001D01*
X53519755Y-84889589D01*
X53530865Y-84853022D01*
X53532370Y-84848069D01*
X53561529Y-84626590D01*
X53563156Y-84560000D01*
X53544852Y-84337361D01*
X53490431Y-84120702D01*
X53401354Y-83915840D01*
X53280014Y-83728277D01*
X53129670Y-83563051D01*
X53125619Y-83559852D01*
X53125615Y-83559848D01*
X52958414Y-83427800D01*
X52958410Y-83427798D01*
X52954359Y-83424598D01*
X52913053Y-83401796D01*
X52863084Y-83351364D01*
X52848312Y-83281921D01*
X52873428Y-83215516D01*
X52900780Y-83188909D01*
X52944603Y-83157650D01*
X53079860Y-83061173D01*
X53238096Y-82903489D01*
X53248536Y-82888961D01*
X53365435Y-82726277D01*
X53368453Y-82722077D01*
X53370746Y-82717437D01*
X53372446Y-82714608D01*
X53424674Y-82666518D01*
X53480451Y-82653500D01*
X56801233Y-82653500D01*
X56812416Y-82654027D01*
X56819909Y-82655702D01*
X56827835Y-82655453D01*
X56827836Y-82655453D01*
X56887986Y-82653562D01*
X56891945Y-82653500D01*
X56919856Y-82653500D01*
X56923791Y-82653003D01*
X56923856Y-82652995D01*
X56935693Y-82652062D01*
X56967951Y-82651048D01*
X56971970Y-82650922D01*
X56979889Y-82650673D01*
X56999343Y-82645021D01*
X57018700Y-82641013D01*
X57030930Y-82639468D01*
X57030931Y-82639468D01*
X57038797Y-82638474D01*
X57046168Y-82635555D01*
X57046170Y-82635555D01*
X57079912Y-82622196D01*
X57091142Y-82618351D01*
X57125983Y-82608229D01*
X57125984Y-82608229D01*
X57133593Y-82606018D01*
X57140412Y-82601985D01*
X57140417Y-82601983D01*
X57151028Y-82595707D01*
X57168776Y-82587012D01*
X57187617Y-82579552D01*
X57223387Y-82553564D01*
X57233307Y-82547048D01*
X57264535Y-82528580D01*
X57264538Y-82528578D01*
X57271362Y-82524542D01*
X57285683Y-82510221D01*
X57300717Y-82497380D01*
X57310694Y-82490131D01*
X57317107Y-82485472D01*
X57345298Y-82451395D01*
X57353288Y-82442616D01*
X58902148Y-80893756D01*
X58964460Y-80859730D01*
X59016363Y-80859380D01*
X59122414Y-80880956D01*
X59232656Y-80903385D01*
X59363324Y-80908176D01*
X59458949Y-80911683D01*
X59458953Y-80911683D01*
X59464113Y-80911872D01*
X59469233Y-80911216D01*
X59469235Y-80911216D01*
X59542270Y-80901860D01*
X59693847Y-80882442D01*
X59698795Y-80880957D01*
X59698802Y-80880956D01*
X59910747Y-80817369D01*
X59915690Y-80815886D01*
X59924921Y-80811364D01*
X60119049Y-80716262D01*
X60119052Y-80716260D01*
X60123684Y-80713991D01*
X60312243Y-80579494D01*
X60476303Y-80416005D01*
X60550714Y-80312451D01*
X60606709Y-80268803D01*
X60677412Y-80262357D01*
X60737572Y-80292543D01*
X60740555Y-80295242D01*
X60749330Y-80291459D01*
X61527979Y-79512811D01*
X61535592Y-79498868D01*
X61535461Y-79497034D01*
X61531210Y-79490420D01*
X60753862Y-78713073D01*
X60742331Y-78706776D01*
X60732877Y-78714183D01*
X60666918Y-78740450D01*
X60597229Y-78726887D01*
X60549377Y-78683440D01*
X60522571Y-78642004D01*
X60519764Y-78637665D01*
X60363887Y-78466358D01*
X60359836Y-78463159D01*
X60359832Y-78463155D01*
X60204790Y-78340711D01*
X61105508Y-78340711D01*
X61112251Y-78353040D01*
X61887189Y-79127979D01*
X61901132Y-79135592D01*
X61902966Y-79135461D01*
X61909580Y-79131210D01*
X62688994Y-78351795D01*
X62696011Y-78338944D01*
X62688237Y-78328274D01*
X62685902Y-78326430D01*
X62677320Y-78320729D01*
X62483678Y-78213833D01*
X62474272Y-78209606D01*
X62265772Y-78135772D01*
X62255809Y-78133140D01*
X62038047Y-78094350D01*
X62027796Y-78093381D01*
X61806616Y-78090679D01*
X61796332Y-78091399D01*
X61577693Y-78124855D01*
X61567666Y-78127244D01*
X61357426Y-78195961D01*
X61347916Y-78199958D01*
X61151725Y-78302089D01*
X61143007Y-78307578D01*
X61113961Y-78329386D01*
X61105508Y-78340711D01*
X60204790Y-78340711D01*
X60186177Y-78326011D01*
X60186172Y-78326008D01*
X60182123Y-78322810D01*
X60177607Y-78320317D01*
X60177604Y-78320315D01*
X59983879Y-78213373D01*
X59983875Y-78213371D01*
X59979355Y-78210876D01*
X59974486Y-78209152D01*
X59974482Y-78209150D01*
X59765903Y-78135288D01*
X59765899Y-78135287D01*
X59761028Y-78133562D01*
X59755935Y-78132655D01*
X59755932Y-78132654D01*
X59538095Y-78093851D01*
X59538089Y-78093850D01*
X59533006Y-78092945D01*
X59460096Y-78092054D01*
X59306581Y-78090179D01*
X59306579Y-78090179D01*
X59301411Y-78090116D01*
X59072464Y-78125150D01*
X58852314Y-78197106D01*
X58847726Y-78199494D01*
X58847722Y-78199496D01*
X58776373Y-78236638D01*
X58646872Y-78304052D01*
X58642739Y-78307155D01*
X58642736Y-78307157D01*
X58588605Y-78347800D01*
X58461655Y-78443117D01*
X58301639Y-78610564D01*
X58254836Y-78679174D01*
X58199927Y-78724175D01*
X58129402Y-78732346D01*
X58065655Y-78701092D01*
X58044959Y-78676609D01*
X58022577Y-78642013D01*
X58022576Y-78642012D01*
X58019764Y-78637665D01*
X57863887Y-78466358D01*
X57859836Y-78463159D01*
X57859832Y-78463155D01*
X57686177Y-78326011D01*
X57686172Y-78326008D01*
X57682123Y-78322810D01*
X57677607Y-78320317D01*
X57677604Y-78320315D01*
X57483879Y-78213373D01*
X57483875Y-78213371D01*
X57479355Y-78210876D01*
X57474486Y-78209152D01*
X57474482Y-78209150D01*
X57265903Y-78135288D01*
X57265899Y-78135287D01*
X57261028Y-78133562D01*
X57255935Y-78132655D01*
X57255932Y-78132654D01*
X57038095Y-78093851D01*
X57038089Y-78093850D01*
X57033006Y-78092945D01*
X56960096Y-78092054D01*
X56806581Y-78090179D01*
X56806579Y-78090179D01*
X56801411Y-78090116D01*
X56572464Y-78125150D01*
X56352314Y-78197106D01*
X56347726Y-78199494D01*
X56347722Y-78199496D01*
X56276373Y-78236638D01*
X56146872Y-78304052D01*
X56142739Y-78307155D01*
X56142736Y-78307157D01*
X56088605Y-78347800D01*
X55961655Y-78443117D01*
X55801639Y-78610564D01*
X55798730Y-78614829D01*
X55798724Y-78614837D01*
X55783152Y-78637665D01*
X55671119Y-78801899D01*
X55573602Y-79011981D01*
X55511707Y-79235169D01*
X55487095Y-79465469D01*
X55487392Y-79470622D01*
X55487392Y-79470625D01*
X55493067Y-79569041D01*
X55500427Y-79696697D01*
X55501564Y-79701743D01*
X55501565Y-79701749D01*
X55515355Y-79762939D01*
X55551346Y-79922642D01*
X55553288Y-79927424D01*
X55553289Y-79927428D01*
X55636540Y-80132450D01*
X55638484Y-80137237D01*
X55759501Y-80334719D01*
X55911147Y-80509784D01*
X56089349Y-80657730D01*
X56289322Y-80774584D01*
X56505694Y-80857209D01*
X56510760Y-80858240D01*
X56510761Y-80858240D01*
X56539653Y-80864118D01*
X56732656Y-80903385D01*
X56798798Y-80905810D01*
X56866139Y-80928294D01*
X56910634Y-80983617D01*
X56918157Y-81054214D01*
X56883275Y-81120820D01*
X56654500Y-81349595D01*
X56592188Y-81383621D01*
X56565405Y-81386500D01*
X53476805Y-81386500D01*
X53408684Y-81366498D01*
X53371013Y-81328940D01*
X53282822Y-81192617D01*
X53282820Y-81192614D01*
X53280014Y-81188277D01*
X53129670Y-81023051D01*
X53125619Y-81019852D01*
X53125615Y-81019848D01*
X52958414Y-80887800D01*
X52958410Y-80887798D01*
X52954359Y-80884598D01*
X52913053Y-80861796D01*
X52863084Y-80811364D01*
X52848312Y-80741921D01*
X52873428Y-80675516D01*
X52900780Y-80648909D01*
X52944603Y-80617650D01*
X53079860Y-80521173D01*
X53087976Y-80513086D01*
X53234435Y-80367137D01*
X53238096Y-80363489D01*
X53297594Y-80280689D01*
X53365435Y-80186277D01*
X53368453Y-80182077D01*
X53467430Y-79981811D01*
X53532370Y-79768069D01*
X53561529Y-79546590D01*
X53561611Y-79543240D01*
X53563074Y-79483365D01*
X53563074Y-79483361D01*
X53563156Y-79480000D01*
X53544852Y-79257361D01*
X53516821Y-79145765D01*
X53519625Y-79074823D01*
X53549930Y-79025974D01*
X59792247Y-72783657D01*
X59800537Y-72776113D01*
X59807018Y-72772000D01*
X59853659Y-72722332D01*
X59856413Y-72719491D01*
X59876135Y-72699769D01*
X59878612Y-72696576D01*
X59886317Y-72687555D01*
X59911159Y-72661100D01*
X59916586Y-72655321D01*
X59920407Y-72648371D01*
X59926346Y-72637568D01*
X59937202Y-72621041D01*
X59944757Y-72611302D01*
X59944758Y-72611300D01*
X59949614Y-72605040D01*
X59967174Y-72564460D01*
X59972391Y-72553812D01*
X59989875Y-72522009D01*
X59989876Y-72522007D01*
X59993695Y-72515060D01*
X59998733Y-72495437D01*
X60005137Y-72476734D01*
X60010033Y-72465420D01*
X60010033Y-72465419D01*
X60013181Y-72458145D01*
X60014420Y-72450322D01*
X60014423Y-72450312D01*
X60020099Y-72414476D01*
X60022505Y-72402856D01*
X60031528Y-72367711D01*
X60031528Y-72367710D01*
X60033500Y-72360030D01*
X60033500Y-72339776D01*
X60035051Y-72320065D01*
X60036980Y-72307886D01*
X60038220Y-72300057D01*
X60034059Y-72256038D01*
X60033500Y-72244181D01*
X60033500Y-62836752D01*
X60053502Y-62768631D01*
X60104068Y-62723601D01*
X60111316Y-62720050D01*
X60119043Y-62716265D01*
X60119048Y-62716262D01*
X60123684Y-62713991D01*
X60127888Y-62710993D01*
X60127892Y-62710990D01*
X60197406Y-62661406D01*
X61103423Y-62661406D01*
X61108704Y-62668461D01*
X61285080Y-62771527D01*
X61294363Y-62775974D01*
X61501003Y-62854883D01*
X61510901Y-62857759D01*
X61727653Y-62901857D01*
X61737883Y-62903076D01*
X61958914Y-62911182D01*
X61969223Y-62910714D01*
X62188623Y-62882608D01*
X62198688Y-62880468D01*
X62410557Y-62816905D01*
X62420152Y-62813144D01*
X62618778Y-62715838D01*
X62627636Y-62710559D01*
X62685097Y-62669572D01*
X62693497Y-62658874D01*
X62686510Y-62645721D01*
X61912811Y-61872021D01*
X61898868Y-61864408D01*
X61897034Y-61864539D01*
X61890420Y-61868790D01*
X61110180Y-62649031D01*
X61103423Y-62661406D01*
X60197406Y-62661406D01*
X60214755Y-62649031D01*
X60312243Y-62579494D01*
X60476303Y-62416005D01*
X60550714Y-62312451D01*
X60606709Y-62268803D01*
X60677412Y-62262357D01*
X60737572Y-62292543D01*
X60740555Y-62295242D01*
X60749330Y-62291459D01*
X61527979Y-61512811D01*
X61534356Y-61501132D01*
X62264408Y-61501132D01*
X62264539Y-61502966D01*
X62268790Y-61509580D01*
X63046307Y-62287096D01*
X63058313Y-62293652D01*
X63070052Y-62284684D01*
X63108010Y-62231859D01*
X63113321Y-62223020D01*
X63211318Y-62024737D01*
X63215117Y-62015142D01*
X63279415Y-61803517D01*
X63281594Y-61793436D01*
X63310702Y-61572338D01*
X63311221Y-61565663D01*
X63312744Y-61503364D01*
X63312550Y-61496646D01*
X63294279Y-61274400D01*
X63292596Y-61264238D01*
X63238710Y-61049708D01*
X63235389Y-61039953D01*
X63147193Y-60837118D01*
X63142315Y-60828020D01*
X63069224Y-60715038D01*
X63058538Y-60705835D01*
X63048973Y-60710238D01*
X62272021Y-61487189D01*
X62264408Y-61501132D01*
X61534356Y-61501132D01*
X61535592Y-61498868D01*
X61535461Y-61497034D01*
X61531210Y-61490420D01*
X60753862Y-60713073D01*
X60742331Y-60706776D01*
X60732877Y-60714183D01*
X60666918Y-60740450D01*
X60597229Y-60726887D01*
X60549377Y-60683440D01*
X60522571Y-60642004D01*
X60519764Y-60637665D01*
X60363887Y-60466358D01*
X60359836Y-60463159D01*
X60359832Y-60463155D01*
X60204790Y-60340711D01*
X61105508Y-60340711D01*
X61112251Y-60353040D01*
X61887189Y-61127979D01*
X61901132Y-61135592D01*
X61902966Y-61135461D01*
X61909580Y-61131210D01*
X62688994Y-60351795D01*
X62696011Y-60338944D01*
X62688237Y-60328274D01*
X62685902Y-60326430D01*
X62677320Y-60320729D01*
X62483678Y-60213833D01*
X62474272Y-60209606D01*
X62265772Y-60135772D01*
X62255809Y-60133140D01*
X62038047Y-60094350D01*
X62027796Y-60093381D01*
X61806616Y-60090679D01*
X61796332Y-60091399D01*
X61577693Y-60124855D01*
X61567666Y-60127244D01*
X61357426Y-60195961D01*
X61347916Y-60199958D01*
X61151725Y-60302089D01*
X61143007Y-60307578D01*
X61113961Y-60329386D01*
X61105508Y-60340711D01*
X60204790Y-60340711D01*
X60186177Y-60326011D01*
X60186172Y-60326008D01*
X60182123Y-60322810D01*
X60177607Y-60320317D01*
X60177604Y-60320315D01*
X59983879Y-60213373D01*
X59983875Y-60213371D01*
X59979355Y-60210876D01*
X59974486Y-60209152D01*
X59974482Y-60209150D01*
X59765903Y-60135288D01*
X59765899Y-60135287D01*
X59761028Y-60133562D01*
X59755935Y-60132655D01*
X59755932Y-60132654D01*
X59538095Y-60093851D01*
X59538089Y-60093850D01*
X59533006Y-60092945D01*
X59460096Y-60092054D01*
X59306581Y-60090179D01*
X59306579Y-60090179D01*
X59301411Y-60090116D01*
X59072464Y-60125150D01*
X58852314Y-60197106D01*
X58847726Y-60199494D01*
X58847722Y-60199496D01*
X58651461Y-60301663D01*
X58646872Y-60304052D01*
X58642739Y-60307155D01*
X58642736Y-60307157D01*
X58583284Y-60351795D01*
X58461655Y-60443117D01*
X58301639Y-60610564D01*
X58254836Y-60679174D01*
X58199927Y-60724175D01*
X58129402Y-60732346D01*
X58065655Y-60701092D01*
X58044959Y-60676609D01*
X58022577Y-60642013D01*
X58022576Y-60642012D01*
X58019764Y-60637665D01*
X57863887Y-60466358D01*
X57859836Y-60463159D01*
X57859832Y-60463155D01*
X57686177Y-60326011D01*
X57686172Y-60326008D01*
X57682123Y-60322810D01*
X57677607Y-60320317D01*
X57677604Y-60320315D01*
X57483879Y-60213373D01*
X57483875Y-60213371D01*
X57479355Y-60210876D01*
X57474486Y-60209152D01*
X57474482Y-60209150D01*
X57265903Y-60135288D01*
X57265899Y-60135287D01*
X57261028Y-60133562D01*
X57255935Y-60132655D01*
X57255932Y-60132654D01*
X57038095Y-60093851D01*
X57038089Y-60093850D01*
X57033006Y-60092945D01*
X56960096Y-60092054D01*
X56806581Y-60090179D01*
X56806579Y-60090179D01*
X56801411Y-60090116D01*
X56572464Y-60125150D01*
X56352314Y-60197106D01*
X56347726Y-60199494D01*
X56347722Y-60199496D01*
X56151461Y-60301663D01*
X56146872Y-60304052D01*
X56142739Y-60307155D01*
X56142736Y-60307157D01*
X56083284Y-60351795D01*
X55961655Y-60443117D01*
X55801639Y-60610564D01*
X55798730Y-60614829D01*
X55798724Y-60614837D01*
X55783152Y-60637665D01*
X55671119Y-60801899D01*
X55573602Y-61011981D01*
X55511707Y-61235169D01*
X55487095Y-61465469D01*
X55487392Y-61470622D01*
X55487392Y-61470625D01*
X55492872Y-61565663D01*
X55500427Y-61696697D01*
X55501564Y-61701743D01*
X55501565Y-61701749D01*
X55522228Y-61793436D01*
X55551346Y-61922642D01*
X55553288Y-61927424D01*
X55553289Y-61927428D01*
X55592802Y-62024737D01*
X55638484Y-62137237D01*
X55759501Y-62334719D01*
X55911147Y-62509784D01*
X56089349Y-62657730D01*
X56289322Y-62774584D01*
X56505694Y-62857209D01*
X56510760Y-62858240D01*
X56510761Y-62858240D01*
X56563846Y-62869040D01*
X56732656Y-62903385D01*
X56863324Y-62908176D01*
X56958949Y-62911683D01*
X56958953Y-62911683D01*
X56964113Y-62911872D01*
X56969233Y-62911216D01*
X56969235Y-62911216D01*
X57042291Y-62901857D01*
X57193847Y-62882442D01*
X57198795Y-62880957D01*
X57198802Y-62880956D01*
X57410747Y-62817369D01*
X57415690Y-62815886D01*
X57497161Y-62775974D01*
X57619049Y-62716262D01*
X57619052Y-62716260D01*
X57623684Y-62713991D01*
X57812243Y-62579494D01*
X57976303Y-62416005D01*
X58045370Y-62319888D01*
X58101365Y-62276240D01*
X58172068Y-62269794D01*
X58235033Y-62302597D01*
X58255128Y-62327584D01*
X58256799Y-62330311D01*
X58256804Y-62330317D01*
X58259501Y-62334719D01*
X58411147Y-62509784D01*
X58589349Y-62657730D01*
X58702073Y-62723600D01*
X58704070Y-62724767D01*
X58752794Y-62776405D01*
X58766500Y-62833555D01*
X58766500Y-71965406D01*
X58746498Y-72033527D01*
X58729595Y-72054501D01*
X57305178Y-73478918D01*
X57242866Y-73512944D01*
X57172051Y-73507879D01*
X57115215Y-73465332D01*
X57090404Y-73398812D01*
X57096770Y-73349322D01*
X57184896Y-73089710D01*
X57184897Y-73089706D01*
X57186224Y-73085797D01*
X57193692Y-73048255D01*
X57243180Y-72799465D01*
X57243181Y-72799459D01*
X57243983Y-72795426D01*
X57244755Y-72783657D01*
X57263076Y-72504119D01*
X57263346Y-72500000D01*
X57256979Y-72402856D01*
X57244253Y-72208686D01*
X57244252Y-72208679D01*
X57243983Y-72204574D01*
X57214132Y-72054501D01*
X57187030Y-71918253D01*
X57187028Y-71918247D01*
X57186224Y-71914203D01*
X57091059Y-71633855D01*
X56960115Y-71368327D01*
X56795633Y-71122162D01*
X56792919Y-71119068D01*
X56792915Y-71119062D01*
X56603136Y-70902662D01*
X56600427Y-70899573D01*
X56597338Y-70896864D01*
X56380938Y-70707085D01*
X56380932Y-70707081D01*
X56377838Y-70704367D01*
X56374412Y-70702078D01*
X56374407Y-70702074D01*
X56135106Y-70542179D01*
X56131673Y-70539885D01*
X56127974Y-70538061D01*
X56127969Y-70538058D01*
X55991687Y-70470852D01*
X55866145Y-70408941D01*
X55862239Y-70407615D01*
X55589710Y-70315104D01*
X55589706Y-70315103D01*
X55585797Y-70313776D01*
X55581753Y-70312972D01*
X55581747Y-70312970D01*
X55299465Y-70256820D01*
X55299459Y-70256819D01*
X55295426Y-70256017D01*
X55291321Y-70255748D01*
X55291314Y-70255747D01*
X55004119Y-70236924D01*
X55000000Y-70236654D01*
X54995881Y-70236924D01*
X54708686Y-70255747D01*
X54708679Y-70255748D01*
X54704574Y-70256017D01*
X54700541Y-70256819D01*
X54700535Y-70256820D01*
X54418253Y-70312970D01*
X54418247Y-70312972D01*
X54414203Y-70313776D01*
X54410294Y-70315103D01*
X54410290Y-70315104D01*
X54137761Y-70407615D01*
X54133855Y-70408941D01*
X54008313Y-70470852D01*
X53872031Y-70538058D01*
X53872026Y-70538061D01*
X53868327Y-70539885D01*
X53864894Y-70542179D01*
X53625593Y-70702074D01*
X53625588Y-70702078D01*
X53622162Y-70704367D01*
X53619068Y-70707081D01*
X53619062Y-70707085D01*
X53402662Y-70896864D01*
X53399573Y-70899573D01*
X53396864Y-70902662D01*
X53207085Y-71119062D01*
X53207081Y-71119068D01*
X53204367Y-71122162D01*
X53039885Y-71368327D01*
X52908941Y-71633855D01*
X52813776Y-71914203D01*
X52812972Y-71918247D01*
X52812970Y-71918253D01*
X52785869Y-72054501D01*
X52756017Y-72204574D01*
X52755748Y-72208679D01*
X52755747Y-72208686D01*
X52743021Y-72402856D01*
X52736654Y-72500000D01*
X52736924Y-72504119D01*
X52755246Y-72783657D01*
X52756017Y-72795426D01*
X52756819Y-72799459D01*
X52756820Y-72799465D01*
X52775012Y-72890918D01*
X52768684Y-72961632D01*
X52725130Y-73017700D01*
X52651433Y-73041500D01*
X51301866Y-73041500D01*
X51239684Y-73048255D01*
X51103295Y-73099385D01*
X50986739Y-73186739D01*
X50899385Y-73303295D01*
X50848255Y-73439684D01*
X50841500Y-73501866D01*
X50841500Y-75298134D01*
X50848255Y-75360316D01*
X50899385Y-75496705D01*
X50986739Y-75613261D01*
X51103295Y-75700615D01*
X51111704Y-75703767D01*
X51111705Y-75703768D01*
X51220960Y-75744726D01*
X51277725Y-75787367D01*
X51302425Y-75853929D01*
X51287218Y-75923278D01*
X51267825Y-75949759D01*
X51144590Y-76078717D01*
X51138104Y-76086727D01*
X51018098Y-76262649D01*
X51013000Y-76271623D01*
X50923338Y-76464783D01*
X50919775Y-76474470D01*
X50864389Y-76674183D01*
X50865912Y-76682607D01*
X50878292Y-76686000D01*
X53518344Y-76686000D01*
X53531875Y-76682027D01*
X53533180Y-76672947D01*
X53491214Y-76505875D01*
X53487894Y-76496124D01*
X53402972Y-76300814D01*
X53398105Y-76291739D01*
X53282426Y-76112926D01*
X53276136Y-76104757D01*
X53132293Y-75946677D01*
X53101241Y-75882831D01*
X53109635Y-75812333D01*
X53154812Y-75757564D01*
X53181256Y-75743895D01*
X53288297Y-75703767D01*
X53296705Y-75700615D01*
X53413261Y-75613261D01*
X53500615Y-75496705D01*
X53551745Y-75360316D01*
X53558500Y-75298134D01*
X53558500Y-74488825D01*
X53578502Y-74420704D01*
X53632158Y-74374211D01*
X53702432Y-74364107D01*
X53754502Y-74384060D01*
X53809344Y-74420704D01*
X53868327Y-74460115D01*
X53872026Y-74461939D01*
X53872031Y-74461942D01*
X53926545Y-74488825D01*
X54133855Y-74591059D01*
X54137760Y-74592384D01*
X54137761Y-74592385D01*
X54410290Y-74684896D01*
X54410294Y-74684897D01*
X54414203Y-74686224D01*
X54418247Y-74687028D01*
X54418253Y-74687030D01*
X54700535Y-74743180D01*
X54700541Y-74743181D01*
X54704574Y-74743983D01*
X54708679Y-74744252D01*
X54708686Y-74744253D01*
X54995881Y-74763076D01*
X55000000Y-74763346D01*
X55004119Y-74763076D01*
X55291314Y-74744253D01*
X55291321Y-74744252D01*
X55295426Y-74743983D01*
X55299459Y-74743181D01*
X55299465Y-74743180D01*
X55581747Y-74687030D01*
X55581753Y-74687028D01*
X55585797Y-74686224D01*
X55589706Y-74684897D01*
X55589710Y-74684896D01*
X55849322Y-74596770D01*
X55920257Y-74593814D01*
X55981529Y-74629677D01*
X56013686Y-74692974D01*
X56006517Y-74763608D01*
X55978919Y-74805177D01*
X54705694Y-76078401D01*
X53626653Y-77157442D01*
X53564341Y-77191468D01*
X53536351Y-77190547D01*
X53536351Y-77194000D01*
X50883225Y-77194000D01*
X50869694Y-77197973D01*
X50868257Y-77207966D01*
X50898565Y-77342446D01*
X50901645Y-77352275D01*
X50981770Y-77549603D01*
X50986413Y-77558794D01*
X51097694Y-77740388D01*
X51103777Y-77748699D01*
X51243213Y-77909667D01*
X51250580Y-77916883D01*
X51414434Y-78052916D01*
X51422881Y-78058831D01*
X51491969Y-78099203D01*
X51540693Y-78150842D01*
X51553764Y-78220625D01*
X51527033Y-78286396D01*
X51486584Y-78319752D01*
X51473607Y-78326507D01*
X51469474Y-78329610D01*
X51469471Y-78329612D01*
X51313318Y-78446855D01*
X51294965Y-78460635D01*
X51291393Y-78464373D01*
X51147614Y-78614829D01*
X51140629Y-78622138D01*
X51014743Y-78806680D01*
X50920688Y-79009305D01*
X50860989Y-79224570D01*
X50837251Y-79446695D01*
X50837548Y-79451848D01*
X50837548Y-79451851D01*
X50843011Y-79546590D01*
X50850110Y-79669715D01*
X50851247Y-79674761D01*
X50851248Y-79674767D01*
X50857329Y-79701749D01*
X50899222Y-79887639D01*
X50983266Y-80094616D01*
X50985965Y-80099020D01*
X51090008Y-80268803D01*
X51099987Y-80285088D01*
X51246250Y-80453938D01*
X51418126Y-80596632D01*
X51488595Y-80637811D01*
X51491445Y-80639476D01*
X51540169Y-80691114D01*
X51553240Y-80760897D01*
X51526509Y-80826669D01*
X51486055Y-80860027D01*
X51473607Y-80866507D01*
X51469474Y-80869610D01*
X51469471Y-80869612D01*
X51299100Y-80997530D01*
X51294965Y-81000635D01*
X51140629Y-81162138D01*
X51137715Y-81166410D01*
X51137714Y-81166411D01*
X51052556Y-81291249D01*
X51014743Y-81346680D01*
X50920688Y-81549305D01*
X50860989Y-81764570D01*
X50837251Y-81986695D01*
X50837548Y-81991848D01*
X50837548Y-81991851D01*
X50843011Y-82086590D01*
X50850110Y-82209715D01*
X50851247Y-82214761D01*
X50851248Y-82214767D01*
X50871119Y-82302939D01*
X50899222Y-82427639D01*
X50956825Y-82569500D01*
X50976662Y-82618351D01*
X50983266Y-82634616D01*
X50998310Y-82659166D01*
X51080262Y-82792899D01*
X51099987Y-82825088D01*
X51246250Y-82993938D01*
X51418126Y-83136632D01*
X51488595Y-83177811D01*
X51491445Y-83179476D01*
X51540169Y-83231114D01*
X51553240Y-83300897D01*
X51526509Y-83366669D01*
X51486055Y-83400027D01*
X51473607Y-83406507D01*
X51469474Y-83409610D01*
X51469471Y-83409612D01*
X51445247Y-83427800D01*
X51294965Y-83540635D01*
X51140629Y-83702138D01*
X51137715Y-83706410D01*
X51137714Y-83706411D01*
X51125404Y-83724457D01*
X51014743Y-83886680D01*
X50999003Y-83920590D01*
X50939376Y-84049046D01*
X50920688Y-84089305D01*
X50860989Y-84304570D01*
X50837251Y-84526695D01*
X50837548Y-84531848D01*
X50837548Y-84531851D01*
X50843011Y-84626590D01*
X50850110Y-84749715D01*
X50851247Y-84754761D01*
X50851248Y-84754767D01*
X50871119Y-84842939D01*
X50899222Y-84967639D01*
X50983266Y-85174616D01*
X51099987Y-85365088D01*
X51246250Y-85533938D01*
X51418126Y-85676632D01*
X51488595Y-85717811D01*
X51491445Y-85719476D01*
X51540169Y-85771114D01*
X51553240Y-85840897D01*
X51526509Y-85906669D01*
X51486055Y-85940027D01*
X51473607Y-85946507D01*
X51469474Y-85949610D01*
X51469471Y-85949612D01*
X51299100Y-86077530D01*
X51294965Y-86080635D01*
X51140629Y-86242138D01*
X51014743Y-86426680D01*
X51006770Y-86443856D01*
X50934332Y-86599912D01*
X50920688Y-86629305D01*
X50860989Y-86844570D01*
X50837251Y-87066695D01*
X50837548Y-87071848D01*
X50837548Y-87071851D01*
X50843011Y-87166590D01*
X50850110Y-87289715D01*
X50851247Y-87294761D01*
X50851248Y-87294767D01*
X50871119Y-87382939D01*
X50899222Y-87507639D01*
X50983266Y-87714616D01*
X51099987Y-87905088D01*
X51246250Y-88073938D01*
X51418126Y-88216632D01*
X51504070Y-88266853D01*
X51552794Y-88318491D01*
X51566500Y-88375641D01*
X51566500Y-96621233D01*
X51565973Y-96632416D01*
X51564298Y-96639909D01*
X51564547Y-96647835D01*
X51564547Y-96647836D01*
X51566438Y-96707986D01*
X51566500Y-96711945D01*
X51566500Y-96739856D01*
X51566997Y-96743790D01*
X51566997Y-96743791D01*
X51567005Y-96743856D01*
X51567938Y-96755693D01*
X51569327Y-96799889D01*
X51574978Y-96819339D01*
X51578987Y-96838700D01*
X51581526Y-96858797D01*
X51584445Y-96866168D01*
X51584445Y-96866170D01*
X51597804Y-96899912D01*
X51601649Y-96911142D01*
X51613982Y-96953593D01*
X51618015Y-96960412D01*
X51618017Y-96960417D01*
X51624293Y-96971028D01*
X51632988Y-96988776D01*
X51640448Y-97007617D01*
X51645110Y-97014033D01*
X51645110Y-97014034D01*
X51666436Y-97043387D01*
X51672952Y-97053307D01*
X51695458Y-97091362D01*
X51709779Y-97105683D01*
X51722619Y-97120716D01*
X51734528Y-97137107D01*
X51740634Y-97142158D01*
X51768605Y-97165298D01*
X51777384Y-97173288D01*
X58729595Y-104125499D01*
X58763621Y-104187811D01*
X58766500Y-104214594D01*
X58766500Y-116165319D01*
X58746498Y-116233440D01*
X58698679Y-116277083D01*
X58646872Y-116304052D01*
X58461655Y-116443117D01*
X58301639Y-116610564D01*
X58254836Y-116679174D01*
X58199927Y-116724175D01*
X58129402Y-116732346D01*
X58065655Y-116701092D01*
X58044959Y-116676609D01*
X58022577Y-116642013D01*
X58022576Y-116642012D01*
X58019764Y-116637665D01*
X57863887Y-116466358D01*
X57859836Y-116463159D01*
X57859832Y-116463155D01*
X57686177Y-116326011D01*
X57686172Y-116326008D01*
X57682123Y-116322810D01*
X57677607Y-116320317D01*
X57677604Y-116320315D01*
X57483879Y-116213373D01*
X57483875Y-116213371D01*
X57479355Y-116210876D01*
X57474486Y-116209152D01*
X57474482Y-116209150D01*
X57265903Y-116135288D01*
X57265899Y-116135287D01*
X57261028Y-116133562D01*
X57255935Y-116132655D01*
X57255932Y-116132654D01*
X57038095Y-116093851D01*
X57038089Y-116093850D01*
X57033006Y-116092945D01*
X56960096Y-116092054D01*
X56806581Y-116090179D01*
X56806579Y-116090179D01*
X56801411Y-116090116D01*
X56572464Y-116125150D01*
X56352314Y-116197106D01*
X56347726Y-116199494D01*
X56347722Y-116199496D01*
X56198679Y-116277083D01*
X56146872Y-116304052D01*
X56142739Y-116307155D01*
X56142736Y-116307157D01*
X56083279Y-116351799D01*
X55961655Y-116443117D01*
X55801639Y-116610564D01*
X55798730Y-116614829D01*
X55798724Y-116614837D01*
X55783152Y-116637665D01*
X55671119Y-116801899D01*
X55573602Y-117011981D01*
X55511707Y-117235169D01*
X55487095Y-117465469D01*
X55487392Y-117470622D01*
X55487392Y-117470625D01*
X55489151Y-117501132D01*
X55500427Y-117696697D01*
X55501564Y-117701743D01*
X55501565Y-117701749D01*
X55522228Y-117793436D01*
X55551346Y-117922642D01*
X55638484Y-118137237D01*
X55759501Y-118334719D01*
X55911147Y-118509784D01*
X56089349Y-118657730D01*
X56289322Y-118774584D01*
X56505694Y-118857209D01*
X56510760Y-118858240D01*
X56510761Y-118858240D01*
X56541147Y-118864422D01*
X56732656Y-118903385D01*
X56863324Y-118908176D01*
X56958949Y-118911683D01*
X56958953Y-118911683D01*
X56964113Y-118911872D01*
X56969233Y-118911216D01*
X56969235Y-118911216D01*
X57086130Y-118896241D01*
X57193847Y-118882442D01*
X57198795Y-118880957D01*
X57198802Y-118880956D01*
X57410747Y-118817369D01*
X57415690Y-118815886D01*
X57496236Y-118776427D01*
X57619049Y-118716262D01*
X57619052Y-118716260D01*
X57623684Y-118713991D01*
X57812243Y-118579494D01*
X57976303Y-118416005D01*
X58045370Y-118319888D01*
X58101365Y-118276240D01*
X58172068Y-118269794D01*
X58235033Y-118302597D01*
X58255128Y-118327584D01*
X58256799Y-118330311D01*
X58256804Y-118330317D01*
X58259501Y-118334719D01*
X58411147Y-118509784D01*
X58589349Y-118657730D01*
X58789322Y-118774584D01*
X59005694Y-118857209D01*
X59010760Y-118858240D01*
X59010761Y-118858240D01*
X59041147Y-118864422D01*
X59232656Y-118903385D01*
X59363324Y-118908176D01*
X59458949Y-118911683D01*
X59458953Y-118911683D01*
X59464113Y-118911872D01*
X59469233Y-118911216D01*
X59469235Y-118911216D01*
X59586130Y-118896241D01*
X59693847Y-118882442D01*
X59698795Y-118880957D01*
X59698802Y-118880956D01*
X59879293Y-118826806D01*
X59950288Y-118826390D01*
X60010239Y-118864422D01*
X60040110Y-118928829D01*
X60041500Y-118947492D01*
X60041500Y-122610406D01*
X60021498Y-122678527D01*
X60004595Y-122699501D01*
X56966500Y-125737595D01*
X54007747Y-128696348D01*
X53999461Y-128703888D01*
X53992982Y-128708000D01*
X53987557Y-128713777D01*
X53946357Y-128757651D01*
X53943602Y-128760493D01*
X53923865Y-128780230D01*
X53921385Y-128783427D01*
X53913682Y-128792447D01*
X53883414Y-128824679D01*
X53879595Y-128831625D01*
X53879593Y-128831628D01*
X53873652Y-128842434D01*
X53862801Y-128858953D01*
X53850386Y-128874959D01*
X53847241Y-128882228D01*
X53847238Y-128882232D01*
X53832826Y-128915537D01*
X53827609Y-128926187D01*
X53806305Y-128964940D01*
X53804334Y-128972615D01*
X53804334Y-128972616D01*
X53801267Y-128984562D01*
X53794863Y-129003266D01*
X53786819Y-129021855D01*
X53785580Y-129029678D01*
X53785577Y-129029688D01*
X53779901Y-129065524D01*
X53777495Y-129077144D01*
X53766500Y-129119970D01*
X53766500Y-129140224D01*
X53764949Y-129159934D01*
X53761780Y-129179943D01*
X53762526Y-129187835D01*
X53765941Y-129223961D01*
X53766500Y-129235819D01*
X53766500Y-131021233D01*
X53765973Y-131032416D01*
X53764298Y-131039909D01*
X53764547Y-131047835D01*
X53764547Y-131047836D01*
X53766438Y-131107986D01*
X53766500Y-131111945D01*
X53766500Y-131139856D01*
X53766997Y-131143790D01*
X53766997Y-131143791D01*
X53767005Y-131143856D01*
X53767938Y-131155693D01*
X53769327Y-131199889D01*
X53774978Y-131219339D01*
X53778987Y-131238700D01*
X53781526Y-131258797D01*
X53784445Y-131266168D01*
X53784445Y-131266170D01*
X53797804Y-131299912D01*
X53801649Y-131311142D01*
X53811771Y-131345983D01*
X53813982Y-131353593D01*
X53818015Y-131360412D01*
X53818017Y-131360417D01*
X53824293Y-131371028D01*
X53832994Y-131388791D01*
X53834116Y-131391623D01*
X53840589Y-131462324D01*
X53807811Y-131525301D01*
X53746188Y-131560559D01*
X53673657Y-131556321D01*
X53650652Y-131547902D01*
X53650649Y-131547901D01*
X53646618Y-131546426D01*
X53362396Y-131484456D01*
X53318598Y-131481009D01*
X53136703Y-131466693D01*
X53136696Y-131466693D01*
X53134247Y-131466500D01*
X52976879Y-131466500D01*
X52974743Y-131466646D01*
X52974732Y-131466646D01*
X52764051Y-131481009D01*
X52764045Y-131481010D01*
X52759774Y-131481301D01*
X52755579Y-131482170D01*
X52755577Y-131482170D01*
X52654920Y-131503015D01*
X52474919Y-131540291D01*
X52200705Y-131637395D01*
X52196896Y-131639361D01*
X51997551Y-131742251D01*
X51942207Y-131770816D01*
X51938706Y-131773277D01*
X51938702Y-131773279D01*
X51827949Y-131851118D01*
X51704208Y-131938085D01*
X51491112Y-132136106D01*
X51488398Y-132139422D01*
X51488395Y-132139425D01*
X51474936Y-132155869D01*
X51306861Y-132361216D01*
X51154867Y-132609248D01*
X51153148Y-132613165D01*
X51153146Y-132613168D01*
X51144397Y-132633100D01*
X51037941Y-132875614D01*
X51036765Y-132879742D01*
X51036764Y-132879745D01*
X51029080Y-132906720D01*
X50958246Y-133155384D01*
X50957642Y-133159626D01*
X50957641Y-133159632D01*
X50933170Y-133331575D01*
X50917258Y-133443381D01*
X50917141Y-133465723D01*
X50915773Y-133727035D01*
X50915735Y-133734277D01*
X50916294Y-133738521D01*
X50916294Y-133738525D01*
X50925228Y-133806381D01*
X50953705Y-134022687D01*
X51030465Y-134303276D01*
X51144596Y-134570852D01*
X51293985Y-134820462D01*
X51296669Y-134823813D01*
X51296671Y-134823815D01*
X51311322Y-134842102D01*
X51475867Y-135047489D01*
X51686878Y-135247731D01*
X51923113Y-135417483D01*
X52180200Y-135553603D01*
X52184223Y-135555075D01*
X52184227Y-135555077D01*
X52208709Y-135564036D01*
X52453382Y-135653574D01*
X52737604Y-135715544D01*
X52766650Y-135717830D01*
X52963297Y-135733307D01*
X52963304Y-135733307D01*
X52965753Y-135733500D01*
X53123121Y-135733500D01*
X53125257Y-135733354D01*
X53125268Y-135733354D01*
X53335949Y-135718991D01*
X53335955Y-135718990D01*
X53340226Y-135718699D01*
X53344421Y-135717830D01*
X53344423Y-135717830D01*
X53482653Y-135689204D01*
X53625081Y-135659709D01*
X53899295Y-135562605D01*
X54157793Y-135429184D01*
X54161294Y-135426723D01*
X54161298Y-135426721D01*
X54276793Y-135345549D01*
X54395792Y-135261915D01*
X54608888Y-135063894D01*
X54619895Y-135050447D01*
X54790423Y-134842102D01*
X54793139Y-134838784D01*
X54945133Y-134590752D01*
X54953869Y-134570852D01*
X55060334Y-134328315D01*
X55062059Y-134324386D01*
X55068073Y-134303276D01*
X55137015Y-134061252D01*
X55141754Y-134044616D01*
X55144286Y-134026829D01*
X55182137Y-133760870D01*
X55182742Y-133756619D01*
X55184265Y-133465723D01*
X55146295Y-133177313D01*
X55107830Y-133036708D01*
X55109148Y-132965723D01*
X55148634Y-132906720D01*
X55213751Y-132878431D01*
X55283825Y-132889838D01*
X55318459Y-132914365D01*
X55506352Y-133102258D01*
X55513887Y-133110538D01*
X55518000Y-133117018D01*
X55554458Y-133151254D01*
X55567651Y-133163643D01*
X55570493Y-133166398D01*
X55590230Y-133186135D01*
X55593427Y-133188615D01*
X55602447Y-133196318D01*
X55634679Y-133226586D01*
X55641625Y-133230405D01*
X55641628Y-133230407D01*
X55652434Y-133236348D01*
X55668953Y-133247199D01*
X55684959Y-133259614D01*
X55702903Y-133267379D01*
X55707092Y-133269192D01*
X55761667Y-133314604D01*
X55771244Y-133331575D01*
X55775944Y-133341653D01*
X55779100Y-133346160D01*
X55779101Y-133346162D01*
X55862819Y-133465723D01*
X55902251Y-133522038D01*
X56057962Y-133677749D01*
X56238346Y-133804056D01*
X56437924Y-133897120D01*
X56650629Y-133954115D01*
X56870000Y-133973307D01*
X57089371Y-133954115D01*
X57302076Y-133897120D01*
X57501654Y-133804056D01*
X57682038Y-133677749D01*
X57790905Y-133568882D01*
X57853217Y-133534856D01*
X57924032Y-133539921D01*
X57969095Y-133568882D01*
X58077962Y-133677749D01*
X58258346Y-133804056D01*
X58457924Y-133897120D01*
X58670629Y-133954115D01*
X58890000Y-133973307D01*
X59109371Y-133954115D01*
X59322076Y-133897120D01*
X59521654Y-133804056D01*
X59702038Y-133677749D01*
X59815905Y-133563882D01*
X59878217Y-133529856D01*
X59949032Y-133534921D01*
X59994095Y-133563882D01*
X60107962Y-133677749D01*
X60288346Y-133804056D01*
X60487924Y-133897120D01*
X60700629Y-133954115D01*
X60920000Y-133973307D01*
X61139371Y-133954115D01*
X61352076Y-133897120D01*
X61551654Y-133804056D01*
X61629249Y-133749723D01*
X61696523Y-133727035D01*
X61765383Y-133744320D01*
X61802345Y-133777369D01*
X61836739Y-133823261D01*
X61953295Y-133910615D01*
X62089684Y-133961745D01*
X62151866Y-133968500D01*
X63542721Y-133968500D01*
X63610842Y-133988502D01*
X63657335Y-134042158D01*
X63664255Y-134061252D01*
X63730465Y-134303276D01*
X63844596Y-134570852D01*
X63993985Y-134820462D01*
X63996669Y-134823813D01*
X63996671Y-134823815D01*
X64011322Y-134842102D01*
X64175867Y-135047489D01*
X64386878Y-135247731D01*
X64623113Y-135417483D01*
X64880200Y-135553603D01*
X64884223Y-135555075D01*
X64884227Y-135555077D01*
X64908709Y-135564036D01*
X65153382Y-135653574D01*
X65437604Y-135715544D01*
X65466650Y-135717830D01*
X65663297Y-135733307D01*
X65663304Y-135733307D01*
X65665753Y-135733500D01*
X65823121Y-135733500D01*
X65825257Y-135733354D01*
X65825268Y-135733354D01*
X66035949Y-135718991D01*
X66035955Y-135718990D01*
X66040226Y-135718699D01*
X66044421Y-135717830D01*
X66044423Y-135717830D01*
X66182653Y-135689204D01*
X66325081Y-135659709D01*
X66599295Y-135562605D01*
X66857793Y-135429184D01*
X66861294Y-135426723D01*
X66861298Y-135426721D01*
X66976793Y-135345549D01*
X67095792Y-135261915D01*
X67308888Y-135063894D01*
X67319895Y-135050447D01*
X67490423Y-134842102D01*
X67493139Y-134838784D01*
X67645133Y-134590752D01*
X67653869Y-134570852D01*
X67760334Y-134328315D01*
X67762059Y-134324386D01*
X67768073Y-134303276D01*
X67837015Y-134061252D01*
X67841754Y-134044616D01*
X67844286Y-134026829D01*
X67882137Y-133760870D01*
X67882742Y-133756619D01*
X67884265Y-133465723D01*
X67846295Y-133177313D01*
X67769535Y-132896724D01*
X67655404Y-132629148D01*
X67506015Y-132379538D01*
X67491337Y-132361216D01*
X67326823Y-132155869D01*
X67324133Y-132152511D01*
X67113122Y-131952269D01*
X66876887Y-131782517D01*
X66619800Y-131646397D01*
X66615777Y-131644925D01*
X66615773Y-131644923D01*
X66350649Y-131547901D01*
X66350647Y-131547900D01*
X66346618Y-131546426D01*
X66062396Y-131484456D01*
X66018598Y-131481009D01*
X65836703Y-131466693D01*
X65836696Y-131466693D01*
X65834247Y-131466500D01*
X65676879Y-131466500D01*
X65674743Y-131466646D01*
X65674732Y-131466646D01*
X65464051Y-131481009D01*
X65464045Y-131481010D01*
X65459774Y-131481301D01*
X65455579Y-131482170D01*
X65455577Y-131482170D01*
X65354920Y-131503015D01*
X65174919Y-131540291D01*
X64900705Y-131637395D01*
X64896896Y-131639361D01*
X64697551Y-131742251D01*
X64642207Y-131770816D01*
X64638706Y-131773277D01*
X64638702Y-131773279D01*
X64527949Y-131851118D01*
X64404208Y-131938085D01*
X64403906Y-131937655D01*
X64341048Y-131963866D01*
X64271150Y-131951425D01*
X64219074Y-131903169D01*
X64206230Y-131864793D01*
X64204425Y-131865222D01*
X64202598Y-131857540D01*
X64201745Y-131849684D01*
X64150615Y-131713295D01*
X64063261Y-131596739D01*
X63946705Y-131509385D01*
X63810316Y-131458255D01*
X63748134Y-131451500D01*
X63648594Y-131451500D01*
X63580473Y-131431498D01*
X63533980Y-131377842D01*
X63523876Y-131307568D01*
X63553370Y-131242988D01*
X63559499Y-131236405D01*
X68076405Y-126719499D01*
X68138717Y-126685473D01*
X68209532Y-126690538D01*
X68266368Y-126733085D01*
X68291179Y-126799605D01*
X68291500Y-126808594D01*
X68291500Y-153365500D01*
X68271498Y-153433621D01*
X68217842Y-153480114D01*
X68165500Y-153491500D01*
X64547079Y-153491500D01*
X64478958Y-153471498D01*
X64432465Y-153417842D01*
X64422361Y-153347568D01*
X64434121Y-153309674D01*
X64485138Y-153206448D01*
X64487430Y-153201811D01*
X64552370Y-152988069D01*
X64581529Y-152766590D01*
X64583156Y-152700000D01*
X64564852Y-152477361D01*
X64536261Y-152363536D01*
X64539065Y-152292595D01*
X64566615Y-152246588D01*
X64581159Y-152231100D01*
X64586586Y-152225321D01*
X64594236Y-152211406D01*
X64596346Y-152207568D01*
X64607202Y-152191041D01*
X64614757Y-152181302D01*
X64614758Y-152181300D01*
X64619614Y-152175040D01*
X64637174Y-152134460D01*
X64642391Y-152123812D01*
X64659875Y-152092009D01*
X64659876Y-152092007D01*
X64663695Y-152085060D01*
X64668733Y-152065437D01*
X64675137Y-152046734D01*
X64680033Y-152035420D01*
X64680033Y-152035419D01*
X64683181Y-152028145D01*
X64684420Y-152020322D01*
X64684423Y-152020312D01*
X64690099Y-151984476D01*
X64692505Y-151972856D01*
X64701528Y-151937711D01*
X64701528Y-151937710D01*
X64703500Y-151930030D01*
X64703500Y-151909776D01*
X64705051Y-151890065D01*
X64706980Y-151877886D01*
X64708220Y-151870057D01*
X64704059Y-151826038D01*
X64703500Y-151814181D01*
X64703500Y-143848763D01*
X64704027Y-143837579D01*
X64705701Y-143830091D01*
X64703562Y-143762032D01*
X64703500Y-143758075D01*
X64703500Y-143730144D01*
X64702994Y-143726138D01*
X64702061Y-143714292D01*
X64700922Y-143678037D01*
X64700673Y-143670110D01*
X64695022Y-143650658D01*
X64691014Y-143631306D01*
X64689468Y-143619068D01*
X64689467Y-143619066D01*
X64688474Y-143611203D01*
X64672194Y-143570086D01*
X64668359Y-143558885D01*
X64656018Y-143516406D01*
X64651985Y-143509587D01*
X64651983Y-143509582D01*
X64645707Y-143498971D01*
X64637010Y-143481221D01*
X64629552Y-143462383D01*
X64603571Y-143426623D01*
X64597053Y-143416701D01*
X64578578Y-143385460D01*
X64578574Y-143385455D01*
X64574542Y-143378637D01*
X64560218Y-143364313D01*
X64547376Y-143349278D01*
X64535472Y-143332893D01*
X64501406Y-143304711D01*
X64492627Y-143296722D01*
X63803652Y-142607747D01*
X63796112Y-142599461D01*
X63792000Y-142592982D01*
X63742348Y-142546356D01*
X63739507Y-142543602D01*
X63719770Y-142523865D01*
X63716573Y-142521385D01*
X63707551Y-142513680D01*
X63703479Y-142509856D01*
X63675321Y-142483414D01*
X63668375Y-142479595D01*
X63668372Y-142479593D01*
X63657566Y-142473652D01*
X63641047Y-142462801D01*
X63636141Y-142458996D01*
X63625041Y-142450386D01*
X63617772Y-142447241D01*
X63617768Y-142447238D01*
X63584463Y-142432826D01*
X63573813Y-142427609D01*
X63535060Y-142406305D01*
X63515437Y-142401267D01*
X63496734Y-142394863D01*
X63485420Y-142389967D01*
X63485419Y-142389967D01*
X63478145Y-142386819D01*
X63470322Y-142385580D01*
X63470312Y-142385577D01*
X63434476Y-142379901D01*
X63422856Y-142377495D01*
X63387711Y-142368472D01*
X63387710Y-142368472D01*
X63380030Y-142366500D01*
X63359776Y-142366500D01*
X63340065Y-142364949D01*
X63327886Y-142363020D01*
X63320057Y-142361780D01*
X63312165Y-142362526D01*
X63276039Y-142365941D01*
X63264181Y-142366500D01*
X63200924Y-142366500D01*
X63132803Y-142346498D01*
X63086310Y-142292842D01*
X63076206Y-142222568D01*
X63086729Y-142187250D01*
X63114795Y-142127061D01*
X63117120Y-142122076D01*
X63174115Y-141909371D01*
X63193307Y-141690000D01*
X63174115Y-141470629D01*
X63117120Y-141257924D01*
X63114794Y-141252935D01*
X63026382Y-141063334D01*
X63026379Y-141063329D01*
X63024056Y-141058347D01*
X62955802Y-140960870D01*
X62937181Y-140934277D01*
X63615735Y-140934277D01*
X63653705Y-141222687D01*
X63730465Y-141503276D01*
X63732149Y-141507224D01*
X63810110Y-141690000D01*
X63844596Y-141770852D01*
X63993985Y-142020462D01*
X63996669Y-142023813D01*
X63996671Y-142023815D01*
X64011322Y-142042102D01*
X64175867Y-142247489D01*
X64312865Y-142377495D01*
X64372996Y-142434557D01*
X64386878Y-142447731D01*
X64623113Y-142617483D01*
X64880200Y-142753603D01*
X64884223Y-142755075D01*
X64884227Y-142755077D01*
X65076904Y-142825587D01*
X65153382Y-142853574D01*
X65437604Y-142915544D01*
X65466650Y-142917830D01*
X65663297Y-142933307D01*
X65663304Y-142933307D01*
X65665753Y-142933500D01*
X65823121Y-142933500D01*
X65825257Y-142933354D01*
X65825268Y-142933354D01*
X66035949Y-142918991D01*
X66035955Y-142918990D01*
X66040226Y-142918699D01*
X66044421Y-142917830D01*
X66044423Y-142917830D01*
X66201848Y-142885229D01*
X66325081Y-142859709D01*
X66599295Y-142762605D01*
X66746348Y-142686705D01*
X66853986Y-142631149D01*
X66853987Y-142631149D01*
X66857793Y-142629184D01*
X66861294Y-142626723D01*
X66861298Y-142626721D01*
X66979165Y-142543882D01*
X67095792Y-142461915D01*
X67203550Y-142361780D01*
X67305745Y-142266815D01*
X67305748Y-142266812D01*
X67308888Y-142263894D01*
X67319895Y-142250447D01*
X67490423Y-142042102D01*
X67493139Y-142038784D01*
X67645133Y-141790752D01*
X67653869Y-141770852D01*
X67760334Y-141528315D01*
X67762059Y-141524386D01*
X67768073Y-141503276D01*
X67839384Y-141252935D01*
X67841754Y-141244616D01*
X67844286Y-141226829D01*
X67882137Y-140960870D01*
X67882742Y-140956619D01*
X67883545Y-140803232D01*
X67884243Y-140670009D01*
X67884243Y-140670003D01*
X67884265Y-140665723D01*
X67882232Y-140650277D01*
X67855323Y-140445885D01*
X67846295Y-140377313D01*
X67769535Y-140096724D01*
X67655404Y-139829148D01*
X67506015Y-139579538D01*
X67491337Y-139561216D01*
X67326823Y-139355869D01*
X67324133Y-139352511D01*
X67113122Y-139152269D01*
X66876887Y-138982517D01*
X66619800Y-138846397D01*
X66615777Y-138844925D01*
X66615773Y-138844923D01*
X66350649Y-138747901D01*
X66350647Y-138747900D01*
X66346618Y-138746426D01*
X66062396Y-138684456D01*
X66018598Y-138681009D01*
X65836703Y-138666693D01*
X65836696Y-138666693D01*
X65834247Y-138666500D01*
X65676879Y-138666500D01*
X65674743Y-138666646D01*
X65674732Y-138666646D01*
X65464051Y-138681009D01*
X65464045Y-138681010D01*
X65459774Y-138681301D01*
X65455579Y-138682170D01*
X65455577Y-138682170D01*
X65440130Y-138685369D01*
X65174919Y-138740291D01*
X64900705Y-138837395D01*
X64642207Y-138970816D01*
X64638706Y-138973277D01*
X64638702Y-138973279D01*
X64625558Y-138982517D01*
X64404208Y-139138085D01*
X64191112Y-139336106D01*
X64188398Y-139339422D01*
X64188395Y-139339425D01*
X64174936Y-139355869D01*
X64006861Y-139561216D01*
X63854867Y-139809248D01*
X63853148Y-139813165D01*
X63853146Y-139813168D01*
X63844397Y-139833100D01*
X63737941Y-140075614D01*
X63736765Y-140079742D01*
X63736764Y-140079745D01*
X63712218Y-140165913D01*
X63658246Y-140355384D01*
X63657642Y-140359626D01*
X63657641Y-140359632D01*
X63620211Y-140622630D01*
X63617258Y-140643381D01*
X63615735Y-140934277D01*
X62937181Y-140934277D01*
X62900908Y-140882473D01*
X62900906Y-140882470D01*
X62897749Y-140877962D01*
X62742038Y-140722251D01*
X62561654Y-140595944D01*
X62362076Y-140502880D01*
X62149371Y-140445885D01*
X61930000Y-140426693D01*
X61710629Y-140445885D01*
X61648224Y-140462606D01*
X61616189Y-140471190D01*
X61545213Y-140469500D01*
X61494483Y-140438578D01*
X61330405Y-140274500D01*
X61296379Y-140212188D01*
X61293500Y-140185405D01*
X61293500Y-138480427D01*
X61313502Y-138412306D01*
X61354618Y-138372550D01*
X61357994Y-138370896D01*
X61539860Y-138241173D01*
X61648091Y-138133319D01*
X61710462Y-138099404D01*
X61781268Y-138104592D01*
X61838030Y-138147238D01*
X61855012Y-138178341D01*
X61899385Y-138296705D01*
X61986739Y-138413261D01*
X62103295Y-138500615D01*
X62239684Y-138551745D01*
X62301866Y-138558500D01*
X64098134Y-138558500D01*
X64160316Y-138551745D01*
X64296705Y-138500615D01*
X64413261Y-138413261D01*
X64500615Y-138296705D01*
X64551745Y-138160316D01*
X64558500Y-138098134D01*
X64558500Y-136301866D01*
X64551745Y-136239684D01*
X64500615Y-136103295D01*
X64413261Y-135986739D01*
X64296705Y-135899385D01*
X64160316Y-135848255D01*
X64098134Y-135841500D01*
X62301866Y-135841500D01*
X62239684Y-135848255D01*
X62103295Y-135899385D01*
X61986739Y-135986739D01*
X61899385Y-136103295D01*
X61896233Y-136111703D01*
X61854919Y-136221907D01*
X61812277Y-136278671D01*
X61745716Y-136303371D01*
X61676367Y-136288163D01*
X61643743Y-136262476D01*
X61593151Y-136206875D01*
X61593142Y-136206866D01*
X61589670Y-136203051D01*
X61585619Y-136199852D01*
X61585615Y-136199848D01*
X61418414Y-136067800D01*
X61418410Y-136067798D01*
X61414359Y-136064598D01*
X61218789Y-135956638D01*
X61213920Y-135954914D01*
X61213916Y-135954912D01*
X61013087Y-135883795D01*
X61013083Y-135883794D01*
X61008212Y-135882069D01*
X61003119Y-135881162D01*
X61003116Y-135881161D01*
X60793373Y-135843800D01*
X60793367Y-135843799D01*
X60788284Y-135842894D01*
X60714452Y-135841992D01*
X60570081Y-135840228D01*
X60570079Y-135840228D01*
X60564911Y-135840165D01*
X60344091Y-135873955D01*
X60131756Y-135943357D01*
X59933607Y-136046507D01*
X59929474Y-136049610D01*
X59929471Y-136049612D01*
X59759100Y-136177530D01*
X59754965Y-136180635D01*
X59715525Y-136221907D01*
X59661280Y-136278671D01*
X59600629Y-136342138D01*
X59493201Y-136499621D01*
X59438293Y-136544621D01*
X59367768Y-136552792D01*
X59304021Y-136521538D01*
X59283324Y-136497054D01*
X59202822Y-136372617D01*
X59202820Y-136372614D01*
X59200014Y-136368277D01*
X59049670Y-136203051D01*
X59045619Y-136199852D01*
X59045615Y-136199848D01*
X58878414Y-136067800D01*
X58878410Y-136067798D01*
X58874359Y-136064598D01*
X58678789Y-135956638D01*
X58673920Y-135954914D01*
X58673916Y-135954912D01*
X58473087Y-135883795D01*
X58473083Y-135883794D01*
X58468212Y-135882069D01*
X58463119Y-135881162D01*
X58463116Y-135881161D01*
X58253373Y-135843800D01*
X58253367Y-135843799D01*
X58248284Y-135842894D01*
X58174452Y-135841992D01*
X58030081Y-135840228D01*
X58030079Y-135840228D01*
X58024911Y-135840165D01*
X57804091Y-135873955D01*
X57591756Y-135943357D01*
X57393607Y-136046507D01*
X57389474Y-136049610D01*
X57389471Y-136049612D01*
X57219100Y-136177530D01*
X57214965Y-136180635D01*
X57175525Y-136221907D01*
X57121280Y-136278671D01*
X57060629Y-136342138D01*
X56953201Y-136499621D01*
X56898293Y-136544621D01*
X56827768Y-136552792D01*
X56764021Y-136521538D01*
X56743324Y-136497054D01*
X56662822Y-136372617D01*
X56662820Y-136372614D01*
X56660014Y-136368277D01*
X56509670Y-136203051D01*
X56505619Y-136199852D01*
X56505615Y-136199848D01*
X56338414Y-136067800D01*
X56338410Y-136067798D01*
X56334359Y-136064598D01*
X56138789Y-135956638D01*
X56133920Y-135954914D01*
X56133916Y-135954912D01*
X55933087Y-135883795D01*
X55933083Y-135883794D01*
X55928212Y-135882069D01*
X55923119Y-135881162D01*
X55923116Y-135881161D01*
X55713373Y-135843800D01*
X55713367Y-135843799D01*
X55708284Y-135842894D01*
X55634452Y-135841992D01*
X55490081Y-135840228D01*
X55490079Y-135840228D01*
X55484911Y-135840165D01*
X55264091Y-135873955D01*
X55051756Y-135943357D01*
X54853607Y-136046507D01*
X54849474Y-136049610D01*
X54849471Y-136049612D01*
X54679100Y-136177530D01*
X54674965Y-136180635D01*
X54635525Y-136221907D01*
X54581280Y-136278671D01*
X54520629Y-136342138D01*
X54394743Y-136526680D01*
X54300688Y-136729305D01*
X54240989Y-136944570D01*
X54217251Y-137166695D01*
X54230110Y-137389715D01*
X54231247Y-137394761D01*
X54231248Y-137394767D01*
X54255304Y-137501508D01*
X54279222Y-137607639D01*
X54363266Y-137814616D01*
X54400685Y-137875678D01*
X54477291Y-138000688D01*
X54479987Y-138005088D01*
X54626250Y-138173938D01*
X54798126Y-138316632D01*
X54991000Y-138429338D01*
X55199692Y-138509030D01*
X55204760Y-138510061D01*
X55204763Y-138510062D01*
X55312017Y-138531883D01*
X55418597Y-138553567D01*
X55423772Y-138553757D01*
X55423774Y-138553757D01*
X55636673Y-138561564D01*
X55636677Y-138561564D01*
X55641837Y-138561753D01*
X55646957Y-138561097D01*
X55646959Y-138561097D01*
X55858288Y-138534025D01*
X55858289Y-138534025D01*
X55863416Y-138533368D01*
X55868366Y-138531883D01*
X56072429Y-138470661D01*
X56072434Y-138470659D01*
X56077384Y-138469174D01*
X56277994Y-138370896D01*
X56459860Y-138241173D01*
X56618096Y-138083489D01*
X56677594Y-138000689D01*
X56748453Y-137902077D01*
X56749776Y-137903028D01*
X56796645Y-137859857D01*
X56866580Y-137847625D01*
X56932026Y-137875144D01*
X56959875Y-137906994D01*
X57019987Y-138005088D01*
X57166250Y-138173938D01*
X57338126Y-138316632D01*
X57531000Y-138429338D01*
X57739692Y-138509030D01*
X57744760Y-138510061D01*
X57744763Y-138510062D01*
X57852017Y-138531883D01*
X57958597Y-138553567D01*
X57963772Y-138553757D01*
X57963774Y-138553757D01*
X58176673Y-138561564D01*
X58176677Y-138561564D01*
X58181837Y-138561753D01*
X58186957Y-138561097D01*
X58186959Y-138561097D01*
X58398288Y-138534025D01*
X58398289Y-138534025D01*
X58403416Y-138533368D01*
X58408366Y-138531883D01*
X58612429Y-138470661D01*
X58612434Y-138470659D01*
X58617384Y-138469174D01*
X58817994Y-138370896D01*
X58999860Y-138241173D01*
X59158096Y-138083489D01*
X59217594Y-138000689D01*
X59288453Y-137902077D01*
X59289776Y-137903028D01*
X59336645Y-137859857D01*
X59406580Y-137847625D01*
X59472026Y-137875144D01*
X59499875Y-137906994D01*
X59559987Y-138005088D01*
X59706250Y-138173938D01*
X59878126Y-138316632D01*
X59882593Y-138319242D01*
X59964070Y-138366853D01*
X60012794Y-138418491D01*
X60026500Y-138475641D01*
X60026500Y-140301172D01*
X60006498Y-140369293D01*
X59952842Y-140415786D01*
X59909864Y-140425135D01*
X59910000Y-140426693D01*
X59690629Y-140445885D01*
X59477924Y-140502880D01*
X59384562Y-140546415D01*
X59283334Y-140593618D01*
X59283329Y-140593621D01*
X59278347Y-140595944D01*
X59273840Y-140599100D01*
X59273838Y-140599101D01*
X59102473Y-140719092D01*
X59102470Y-140719094D01*
X59097962Y-140722251D01*
X58984095Y-140836118D01*
X58921783Y-140870144D01*
X58850968Y-140865079D01*
X58805905Y-140836118D01*
X58692038Y-140722251D01*
X58511654Y-140595944D01*
X58312076Y-140502880D01*
X58099371Y-140445885D01*
X57880000Y-140426693D01*
X57660629Y-140445885D01*
X57447924Y-140502880D01*
X57354562Y-140546415D01*
X57253334Y-140593618D01*
X57253329Y-140593621D01*
X57248347Y-140595944D01*
X57243839Y-140599101D01*
X57243833Y-140599104D01*
X57170750Y-140650277D01*
X57103476Y-140672965D01*
X57034616Y-140655680D01*
X56997654Y-140622630D01*
X56963261Y-140576739D01*
X56846705Y-140489385D01*
X56710316Y-140438255D01*
X56648134Y-140431500D01*
X55257279Y-140431500D01*
X55189158Y-140411498D01*
X55142665Y-140357842D01*
X55135745Y-140338748D01*
X55070667Y-140100863D01*
X55069535Y-140096724D01*
X54955404Y-139829148D01*
X54806015Y-139579538D01*
X54791337Y-139561216D01*
X54626823Y-139355869D01*
X54624133Y-139352511D01*
X54413122Y-139152269D01*
X54176887Y-138982517D01*
X53919800Y-138846397D01*
X53915777Y-138844925D01*
X53915773Y-138844923D01*
X53650649Y-138747901D01*
X53650647Y-138747900D01*
X53646618Y-138746426D01*
X53362396Y-138684456D01*
X53318598Y-138681009D01*
X53136703Y-138666693D01*
X53136696Y-138666693D01*
X53134247Y-138666500D01*
X52976879Y-138666500D01*
X52974743Y-138666646D01*
X52974732Y-138666646D01*
X52764051Y-138681009D01*
X52764045Y-138681010D01*
X52759774Y-138681301D01*
X52755579Y-138682170D01*
X52755577Y-138682170D01*
X52740130Y-138685369D01*
X52474919Y-138740291D01*
X52200705Y-138837395D01*
X51942207Y-138970816D01*
X51938706Y-138973277D01*
X51938702Y-138973279D01*
X51925558Y-138982517D01*
X51704208Y-139138085D01*
X51491112Y-139336106D01*
X51488398Y-139339422D01*
X51488395Y-139339425D01*
X51474936Y-139355869D01*
X51306861Y-139561216D01*
X51154867Y-139809248D01*
X51153148Y-139813165D01*
X51153146Y-139813168D01*
X51144397Y-139833100D01*
X51037941Y-140075614D01*
X51036765Y-140079742D01*
X51036764Y-140079745D01*
X51012218Y-140165913D01*
X50958246Y-140355384D01*
X50957642Y-140359626D01*
X50957641Y-140359632D01*
X50920211Y-140622630D01*
X50917258Y-140643381D01*
X50915735Y-140934277D01*
X50953705Y-141222687D01*
X51030465Y-141503276D01*
X51032149Y-141507224D01*
X51110110Y-141690000D01*
X51144596Y-141770852D01*
X51293985Y-142020462D01*
X51296669Y-142023813D01*
X51296671Y-142023815D01*
X51311322Y-142042102D01*
X51475867Y-142247489D01*
X51612865Y-142377495D01*
X51672996Y-142434557D01*
X51686878Y-142447731D01*
X51923113Y-142617483D01*
X52180200Y-142753603D01*
X52184223Y-142755075D01*
X52184227Y-142755077D01*
X52376904Y-142825587D01*
X52453382Y-142853574D01*
X52737604Y-142915544D01*
X52766650Y-142917830D01*
X52963297Y-142933307D01*
X52963304Y-142933307D01*
X52965753Y-142933500D01*
X53123121Y-142933500D01*
X53125257Y-142933354D01*
X53125268Y-142933354D01*
X53335949Y-142918991D01*
X53335955Y-142918990D01*
X53340226Y-142918699D01*
X53344421Y-142917830D01*
X53344423Y-142917830D01*
X53501848Y-142885229D01*
X53625081Y-142859709D01*
X53899295Y-142762605D01*
X54046348Y-142686705D01*
X54153986Y-142631149D01*
X54153987Y-142631149D01*
X54157793Y-142629184D01*
X54161294Y-142626723D01*
X54161298Y-142626721D01*
X54385883Y-142468879D01*
X54395792Y-142461915D01*
X54396094Y-142462345D01*
X54458952Y-142436134D01*
X54528850Y-142448575D01*
X54580926Y-142496831D01*
X54593770Y-142535207D01*
X54595575Y-142534778D01*
X54597402Y-142542460D01*
X54598255Y-142550316D01*
X54649385Y-142686705D01*
X54736739Y-142803261D01*
X54853295Y-142890615D01*
X54989684Y-142941745D01*
X55051866Y-142948500D01*
X56106424Y-142948500D01*
X56174545Y-142968502D01*
X56221038Y-143022158D01*
X56231142Y-143092432D01*
X56201648Y-143157012D01*
X56178695Y-143177713D01*
X56062473Y-143259092D01*
X56062470Y-143259094D01*
X56057962Y-143262251D01*
X55902251Y-143417962D01*
X55899094Y-143422470D01*
X55899092Y-143422473D01*
X55795723Y-143570100D01*
X55775944Y-143598347D01*
X55773621Y-143603329D01*
X55773618Y-143603334D01*
X55751551Y-143650658D01*
X55682880Y-143797924D01*
X55625885Y-144010629D01*
X55606693Y-144230000D01*
X55625885Y-144449371D01*
X55682880Y-144662076D01*
X55685205Y-144667061D01*
X55773618Y-144856666D01*
X55773621Y-144856671D01*
X55775944Y-144861653D01*
X55902251Y-145042038D01*
X55932475Y-145072262D01*
X55966501Y-145134574D01*
X55961436Y-145205389D01*
X55918889Y-145262225D01*
X55852369Y-145287036D01*
X55817183Y-145284604D01*
X55817085Y-145284583D01*
X55802138Y-145281406D01*
X55687729Y-145257087D01*
X55687724Y-145257087D01*
X55681272Y-145255715D01*
X55490298Y-145255715D01*
X55483846Y-145257087D01*
X55483841Y-145257087D01*
X55396897Y-145275568D01*
X55303497Y-145295421D01*
X55297467Y-145298106D01*
X55297466Y-145298106D01*
X55135063Y-145370412D01*
X55135061Y-145370413D01*
X55129033Y-145373097D01*
X54974532Y-145485349D01*
X54970111Y-145490259D01*
X54970110Y-145490260D01*
X54898831Y-145569424D01*
X54846745Y-145627271D01*
X54751258Y-145792659D01*
X54692243Y-145974287D01*
X54672281Y-146164215D01*
X54692243Y-146354143D01*
X54751258Y-146535771D01*
X54846745Y-146701159D01*
X54851163Y-146706066D01*
X54851164Y-146706067D01*
X54934136Y-146798217D01*
X54964854Y-146862224D01*
X54966500Y-146882527D01*
X54966500Y-151215500D01*
X54946498Y-151283621D01*
X54892842Y-151330114D01*
X54840500Y-151341500D01*
X54701866Y-151341500D01*
X54639684Y-151348255D01*
X54503295Y-151399385D01*
X54386739Y-151486739D01*
X54299385Y-151603295D01*
X54248255Y-151739684D01*
X54241500Y-151801866D01*
X54241500Y-153365500D01*
X54221498Y-153433621D01*
X54167842Y-153480114D01*
X54115500Y-153491500D01*
X50634500Y-153491500D01*
X50566379Y-153471498D01*
X50519886Y-153417842D01*
X50508500Y-153365500D01*
X50508500Y-110500000D01*
X52736654Y-110500000D01*
X52736924Y-110504119D01*
X52753843Y-110762253D01*
X52756017Y-110795426D01*
X52756819Y-110799459D01*
X52756820Y-110799465D01*
X52812970Y-111081747D01*
X52813776Y-111085797D01*
X52815103Y-111089706D01*
X52815104Y-111089710D01*
X52878813Y-111277390D01*
X52908941Y-111366145D01*
X53039885Y-111631673D01*
X53204367Y-111877838D01*
X53207081Y-111880932D01*
X53207085Y-111880938D01*
X53396864Y-112097338D01*
X53399573Y-112100427D01*
X53402662Y-112103136D01*
X53619062Y-112292915D01*
X53619068Y-112292919D01*
X53622162Y-112295633D01*
X53625588Y-112297922D01*
X53625593Y-112297926D01*
X53809405Y-112420744D01*
X53868327Y-112460115D01*
X53872026Y-112461939D01*
X53872031Y-112461942D01*
X54008313Y-112529148D01*
X54133855Y-112591059D01*
X54137760Y-112592384D01*
X54137761Y-112592385D01*
X54410290Y-112684896D01*
X54410294Y-112684897D01*
X54414203Y-112686224D01*
X54418247Y-112687028D01*
X54418253Y-112687030D01*
X54700535Y-112743180D01*
X54700541Y-112743181D01*
X54704574Y-112743983D01*
X54708679Y-112744252D01*
X54708686Y-112744253D01*
X54995881Y-112763076D01*
X55000000Y-112763346D01*
X55004119Y-112763076D01*
X55291314Y-112744253D01*
X55291321Y-112744252D01*
X55295426Y-112743983D01*
X55299459Y-112743181D01*
X55299465Y-112743180D01*
X55581747Y-112687030D01*
X55581753Y-112687028D01*
X55585797Y-112686224D01*
X55589706Y-112684897D01*
X55589710Y-112684896D01*
X55862239Y-112592385D01*
X55862240Y-112592384D01*
X55866145Y-112591059D01*
X55991687Y-112529148D01*
X56127969Y-112461942D01*
X56127974Y-112461939D01*
X56131673Y-112460115D01*
X56190595Y-112420744D01*
X56374407Y-112297926D01*
X56374412Y-112297922D01*
X56377838Y-112295633D01*
X56380932Y-112292919D01*
X56380938Y-112292915D01*
X56597338Y-112103136D01*
X56600427Y-112100427D01*
X56603136Y-112097338D01*
X56792915Y-111880938D01*
X56792919Y-111880932D01*
X56795633Y-111877838D01*
X56960115Y-111631673D01*
X57091059Y-111366145D01*
X57121187Y-111277390D01*
X57184896Y-111089710D01*
X57184897Y-111089706D01*
X57186224Y-111085797D01*
X57187030Y-111081747D01*
X57243180Y-110799465D01*
X57243181Y-110799459D01*
X57243983Y-110795426D01*
X57246158Y-110762253D01*
X57263076Y-110504119D01*
X57263346Y-110500000D01*
X57261992Y-110479340D01*
X57244253Y-110208686D01*
X57244252Y-110208679D01*
X57243983Y-110204574D01*
X57239266Y-110180856D01*
X57187030Y-109918253D01*
X57187028Y-109918247D01*
X57186224Y-109914203D01*
X57091059Y-109633855D01*
X56960115Y-109368327D01*
X56795633Y-109122162D01*
X56792919Y-109119068D01*
X56792915Y-109119062D01*
X56603136Y-108902662D01*
X56600427Y-108899573D01*
X56597338Y-108896864D01*
X56380938Y-108707085D01*
X56380932Y-108707081D01*
X56377838Y-108704367D01*
X56374412Y-108702078D01*
X56374407Y-108702074D01*
X56135106Y-108542179D01*
X56131673Y-108539885D01*
X56127974Y-108538061D01*
X56127969Y-108538058D01*
X55991687Y-108470852D01*
X55866145Y-108408941D01*
X55862239Y-108407615D01*
X55589710Y-108315104D01*
X55589706Y-108315103D01*
X55585797Y-108313776D01*
X55581753Y-108312972D01*
X55581747Y-108312970D01*
X55299465Y-108256820D01*
X55299459Y-108256819D01*
X55295426Y-108256017D01*
X55291321Y-108255748D01*
X55291314Y-108255747D01*
X55004119Y-108236924D01*
X55000000Y-108236654D01*
X54995881Y-108236924D01*
X54708686Y-108255747D01*
X54708679Y-108255748D01*
X54704574Y-108256017D01*
X54700541Y-108256819D01*
X54700535Y-108256820D01*
X54418253Y-108312970D01*
X54418247Y-108312972D01*
X54414203Y-108313776D01*
X54410294Y-108315103D01*
X54410290Y-108315104D01*
X54137761Y-108407615D01*
X54133855Y-108408941D01*
X54008313Y-108470852D01*
X53872031Y-108538058D01*
X53872026Y-108538061D01*
X53868327Y-108539885D01*
X53864894Y-108542179D01*
X53625593Y-108702074D01*
X53625588Y-108702078D01*
X53622162Y-108704367D01*
X53619068Y-108707081D01*
X53619062Y-108707085D01*
X53402662Y-108896864D01*
X53399573Y-108899573D01*
X53396864Y-108902662D01*
X53207085Y-109119062D01*
X53207081Y-109119068D01*
X53204367Y-109122162D01*
X53039885Y-109368327D01*
X52908941Y-109633855D01*
X52813776Y-109914203D01*
X52812972Y-109918247D01*
X52812970Y-109918253D01*
X52760735Y-110180856D01*
X52756017Y-110204574D01*
X52755748Y-110208679D01*
X52755747Y-110208686D01*
X52738008Y-110479340D01*
X52736654Y-110500000D01*
X50508500Y-110500000D01*
X50508500Y-54500000D01*
X52736654Y-54500000D01*
X52756017Y-54795426D01*
X52813776Y-55085797D01*
X52908941Y-55366145D01*
X53039885Y-55631673D01*
X53204367Y-55877838D01*
X53207081Y-55880932D01*
X53207085Y-55880938D01*
X53396864Y-56097338D01*
X53399573Y-56100427D01*
X53402662Y-56103136D01*
X53619062Y-56292915D01*
X53619068Y-56292919D01*
X53622162Y-56295633D01*
X53625588Y-56297922D01*
X53625593Y-56297926D01*
X53809405Y-56420744D01*
X53868327Y-56460115D01*
X53872026Y-56461939D01*
X53872031Y-56461942D01*
X54008313Y-56529148D01*
X54133855Y-56591059D01*
X54137760Y-56592384D01*
X54137761Y-56592385D01*
X54410290Y-56684896D01*
X54410294Y-56684897D01*
X54414203Y-56686224D01*
X54418247Y-56687028D01*
X54418253Y-56687030D01*
X54700535Y-56743180D01*
X54700541Y-56743181D01*
X54704574Y-56743983D01*
X54708679Y-56744252D01*
X54708686Y-56744253D01*
X54995881Y-56763076D01*
X55000000Y-56763346D01*
X55004119Y-56763076D01*
X55291314Y-56744253D01*
X55291321Y-56744252D01*
X55295426Y-56743983D01*
X55299459Y-56743181D01*
X55299465Y-56743180D01*
X55581747Y-56687030D01*
X55581753Y-56687028D01*
X55585797Y-56686224D01*
X55589706Y-56684897D01*
X55589710Y-56684896D01*
X55862239Y-56592385D01*
X55862240Y-56592384D01*
X55866145Y-56591059D01*
X55991687Y-56529148D01*
X56127969Y-56461942D01*
X56127974Y-56461939D01*
X56131673Y-56460115D01*
X56190595Y-56420744D01*
X56374407Y-56297926D01*
X56374412Y-56297922D01*
X56377838Y-56295633D01*
X56380932Y-56292919D01*
X56380938Y-56292915D01*
X56597338Y-56103136D01*
X56600427Y-56100427D01*
X56603136Y-56097338D01*
X56792915Y-55880938D01*
X56792919Y-55880932D01*
X56795633Y-55877838D01*
X56960115Y-55631673D01*
X57091059Y-55366145D01*
X57186224Y-55085797D01*
X57243983Y-54795426D01*
X57263346Y-54500000D01*
X61536654Y-54500000D01*
X61556017Y-54795426D01*
X61613776Y-55085797D01*
X61708941Y-55366145D01*
X61839885Y-55631673D01*
X62004367Y-55877838D01*
X62007081Y-55880932D01*
X62007085Y-55880938D01*
X62196864Y-56097338D01*
X62199573Y-56100427D01*
X62202662Y-56103136D01*
X62419062Y-56292915D01*
X62419068Y-56292919D01*
X62422162Y-56295633D01*
X62425588Y-56297922D01*
X62425593Y-56297926D01*
X62609405Y-56420744D01*
X62668327Y-56460115D01*
X62672026Y-56461939D01*
X62672031Y-56461942D01*
X62808313Y-56529148D01*
X62933855Y-56591059D01*
X62937760Y-56592384D01*
X62937761Y-56592385D01*
X63210290Y-56684896D01*
X63210294Y-56684897D01*
X63214203Y-56686224D01*
X63218247Y-56687028D01*
X63218253Y-56687030D01*
X63500535Y-56743180D01*
X63500541Y-56743181D01*
X63504574Y-56743983D01*
X63508679Y-56744252D01*
X63508686Y-56744253D01*
X63795881Y-56763076D01*
X63800000Y-56763346D01*
X63804119Y-56763076D01*
X64091314Y-56744253D01*
X64091321Y-56744252D01*
X64095426Y-56743983D01*
X64099459Y-56743181D01*
X64099465Y-56743180D01*
X64381747Y-56687030D01*
X64381753Y-56687028D01*
X64385797Y-56686224D01*
X64389706Y-56684897D01*
X64389710Y-56684896D01*
X64662239Y-56592385D01*
X64662240Y-56592384D01*
X64666145Y-56591059D01*
X64791687Y-56529148D01*
X64927969Y-56461942D01*
X64927974Y-56461939D01*
X64931673Y-56460115D01*
X64990595Y-56420744D01*
X65174407Y-56297926D01*
X65174412Y-56297922D01*
X65177838Y-56295633D01*
X65180932Y-56292919D01*
X65180938Y-56292915D01*
X65397338Y-56103136D01*
X65400427Y-56100427D01*
X65403136Y-56097338D01*
X65592915Y-55880938D01*
X65592919Y-55880932D01*
X65595633Y-55877838D01*
X65760115Y-55631673D01*
X65891059Y-55366145D01*
X65986224Y-55085797D01*
X66043983Y-54795426D01*
X66063346Y-54500000D01*
X66043983Y-54204574D01*
X65986224Y-53914203D01*
X65891059Y-53633855D01*
X65760115Y-53368327D01*
X65595633Y-53122162D01*
X65592919Y-53119068D01*
X65592915Y-53119062D01*
X65403136Y-52902662D01*
X65400427Y-52899573D01*
X65397338Y-52896864D01*
X65180938Y-52707085D01*
X65180932Y-52707081D01*
X65177838Y-52704367D01*
X65174412Y-52702078D01*
X65174407Y-52702074D01*
X64935106Y-52542179D01*
X64931673Y-52539885D01*
X64927974Y-52538061D01*
X64927969Y-52538058D01*
X64791687Y-52470852D01*
X64666145Y-52408941D01*
X64662239Y-52407615D01*
X64389710Y-52315104D01*
X64389706Y-52315103D01*
X64385797Y-52313776D01*
X64381753Y-52312972D01*
X64381747Y-52312970D01*
X64099465Y-52256820D01*
X64099459Y-52256819D01*
X64095426Y-52256017D01*
X64091321Y-52255748D01*
X64091314Y-52255747D01*
X63804119Y-52236924D01*
X63800000Y-52236654D01*
X63795881Y-52236924D01*
X63508686Y-52255747D01*
X63508679Y-52255748D01*
X63504574Y-52256017D01*
X63500541Y-52256819D01*
X63500535Y-52256820D01*
X63218253Y-52312970D01*
X63218247Y-52312972D01*
X63214203Y-52313776D01*
X63210294Y-52315103D01*
X63210290Y-52315104D01*
X62937761Y-52407615D01*
X62933855Y-52408941D01*
X62808313Y-52470852D01*
X62672031Y-52538058D01*
X62672026Y-52538061D01*
X62668327Y-52539885D01*
X62664894Y-52542179D01*
X62425593Y-52702074D01*
X62425588Y-52702078D01*
X62422162Y-52704367D01*
X62419068Y-52707081D01*
X62419062Y-52707085D01*
X62202662Y-52896864D01*
X62199573Y-52899573D01*
X62196864Y-52902662D01*
X62007085Y-53119062D01*
X62007081Y-53119068D01*
X62004367Y-53122162D01*
X61839885Y-53368327D01*
X61708941Y-53633855D01*
X61613776Y-53914203D01*
X61556017Y-54204574D01*
X61536654Y-54500000D01*
X57263346Y-54500000D01*
X57243983Y-54204574D01*
X57186224Y-53914203D01*
X57091059Y-53633855D01*
X56960115Y-53368327D01*
X56795633Y-53122162D01*
X56792919Y-53119068D01*
X56792915Y-53119062D01*
X56603136Y-52902662D01*
X56600427Y-52899573D01*
X56597338Y-52896864D01*
X56380938Y-52707085D01*
X56380932Y-52707081D01*
X56377838Y-52704367D01*
X56374412Y-52702078D01*
X56374407Y-52702074D01*
X56135106Y-52542179D01*
X56131673Y-52539885D01*
X56127974Y-52538061D01*
X56127969Y-52538058D01*
X55991687Y-52470852D01*
X55866145Y-52408941D01*
X55862239Y-52407615D01*
X55589710Y-52315104D01*
X55589706Y-52315103D01*
X55585797Y-52313776D01*
X55581753Y-52312972D01*
X55581747Y-52312970D01*
X55299465Y-52256820D01*
X55299459Y-52256819D01*
X55295426Y-52256017D01*
X55291321Y-52255748D01*
X55291314Y-52255747D01*
X55004119Y-52236924D01*
X55000000Y-52236654D01*
X54995881Y-52236924D01*
X54708686Y-52255747D01*
X54708679Y-52255748D01*
X54704574Y-52256017D01*
X54700541Y-52256819D01*
X54700535Y-52256820D01*
X54418253Y-52312970D01*
X54418247Y-52312972D01*
X54414203Y-52313776D01*
X54410294Y-52315103D01*
X54410290Y-52315104D01*
X54137761Y-52407615D01*
X54133855Y-52408941D01*
X54008313Y-52470852D01*
X53872031Y-52538058D01*
X53872026Y-52538061D01*
X53868327Y-52539885D01*
X53864894Y-52542179D01*
X53625593Y-52702074D01*
X53625588Y-52702078D01*
X53622162Y-52704367D01*
X53619068Y-52707081D01*
X53619062Y-52707085D01*
X53402662Y-52896864D01*
X53399573Y-52899573D01*
X53396864Y-52902662D01*
X53207085Y-53119062D01*
X53207081Y-53119068D01*
X53204367Y-53122162D01*
X53039885Y-53368327D01*
X52908941Y-53633855D01*
X52813776Y-53914203D01*
X52756017Y-54204574D01*
X52736654Y-54500000D01*
X50508500Y-54500000D01*
X50508500Y-48714669D01*
X50892001Y-48714669D01*
X50892371Y-48721490D01*
X50897895Y-48772352D01*
X50901521Y-48787604D01*
X50946676Y-48908054D01*
X50955214Y-48923649D01*
X51031715Y-49025724D01*
X51044276Y-49038285D01*
X51146351Y-49114786D01*
X51161946Y-49123324D01*
X51282394Y-49168478D01*
X51297649Y-49172105D01*
X51348514Y-49177631D01*
X51355328Y-49178000D01*
X52027885Y-49178000D01*
X52043124Y-49173525D01*
X52044329Y-49172135D01*
X52046000Y-49164452D01*
X52046000Y-49159884D01*
X52554000Y-49159884D01*
X52558475Y-49175123D01*
X52559865Y-49176328D01*
X52567548Y-49177999D01*
X53244669Y-49177999D01*
X53251490Y-49177629D01*
X53302352Y-49172105D01*
X53317604Y-49168479D01*
X53438054Y-49123324D01*
X53453649Y-49114786D01*
X53555724Y-49038285D01*
X53568285Y-49025724D01*
X53644786Y-48923649D01*
X53653324Y-48908054D01*
X53698478Y-48787606D01*
X53702105Y-48772351D01*
X53707631Y-48721486D01*
X53708000Y-48714672D01*
X53708000Y-48714669D01*
X64992001Y-48714669D01*
X64992371Y-48721490D01*
X64997895Y-48772352D01*
X65001521Y-48787604D01*
X65046676Y-48908054D01*
X65055214Y-48923649D01*
X65131715Y-49025724D01*
X65144276Y-49038285D01*
X65246351Y-49114786D01*
X65261946Y-49123324D01*
X65382394Y-49168478D01*
X65397649Y-49172105D01*
X65448514Y-49177631D01*
X65455328Y-49178000D01*
X66127885Y-49178000D01*
X66143124Y-49173525D01*
X66144329Y-49172135D01*
X66146000Y-49164452D01*
X66146000Y-49159884D01*
X66654000Y-49159884D01*
X66658475Y-49175123D01*
X66659865Y-49176328D01*
X66667548Y-49177999D01*
X67344669Y-49177999D01*
X67351490Y-49177629D01*
X67402352Y-49172105D01*
X67417604Y-49168479D01*
X67538054Y-49123324D01*
X67553649Y-49114786D01*
X67655724Y-49038285D01*
X67668285Y-49025724D01*
X67744786Y-48923649D01*
X67753324Y-48908054D01*
X67798478Y-48787606D01*
X67802105Y-48772351D01*
X67807631Y-48721486D01*
X67808000Y-48714672D01*
X67808000Y-48042115D01*
X67803525Y-48026876D01*
X67802135Y-48025671D01*
X67794452Y-48024000D01*
X66672115Y-48024000D01*
X66656876Y-48028475D01*
X66655671Y-48029865D01*
X66654000Y-48037548D01*
X66654000Y-49159884D01*
X66146000Y-49159884D01*
X66146000Y-48042115D01*
X66141525Y-48026876D01*
X66140135Y-48025671D01*
X66132452Y-48024000D01*
X65010116Y-48024000D01*
X64994877Y-48028475D01*
X64993672Y-48029865D01*
X64992001Y-48037548D01*
X64992001Y-48714669D01*
X53708000Y-48714669D01*
X53708000Y-48042115D01*
X53703525Y-48026876D01*
X53702135Y-48025671D01*
X53694452Y-48024000D01*
X52572115Y-48024000D01*
X52556876Y-48028475D01*
X52555671Y-48029865D01*
X52554000Y-48037548D01*
X52554000Y-49159884D01*
X52046000Y-49159884D01*
X52046000Y-48042115D01*
X52041525Y-48026876D01*
X52040135Y-48025671D01*
X52032452Y-48024000D01*
X50910116Y-48024000D01*
X50894877Y-48028475D01*
X50893672Y-48029865D01*
X50892001Y-48037548D01*
X50892001Y-48714669D01*
X50508500Y-48714669D01*
X50508500Y-44634500D01*
X50528502Y-44566379D01*
X50582158Y-44519886D01*
X50634500Y-44508500D01*
X50884580Y-44508500D01*
X50952701Y-44528502D01*
G37*
%TD.AperFunction*%
%TA.AperFunction,Conductor*%
G36*
X61517012Y-110735150D02*
G01*
X61555396Y-110794876D01*
X61558079Y-110805791D01*
X61613776Y-111085797D01*
X61615103Y-111089706D01*
X61615104Y-111089710D01*
X61678813Y-111277390D01*
X61708941Y-111366145D01*
X61839885Y-111631673D01*
X62004367Y-111877838D01*
X62007081Y-111880932D01*
X62007085Y-111880938D01*
X62196864Y-112097338D01*
X62199573Y-112100427D01*
X62202662Y-112103136D01*
X62419062Y-112292915D01*
X62419068Y-112292919D01*
X62422162Y-112295633D01*
X62425588Y-112297922D01*
X62425593Y-112297926D01*
X62609405Y-112420744D01*
X62668327Y-112460115D01*
X62672026Y-112461939D01*
X62672031Y-112461942D01*
X62808313Y-112529148D01*
X62933855Y-112591059D01*
X62937760Y-112592384D01*
X62937761Y-112592385D01*
X63210290Y-112684896D01*
X63210294Y-112684897D01*
X63214203Y-112686224D01*
X63218247Y-112687028D01*
X63218253Y-112687030D01*
X63500535Y-112743180D01*
X63500541Y-112743181D01*
X63504574Y-112743983D01*
X63508679Y-112744252D01*
X63508686Y-112744253D01*
X63795881Y-112763076D01*
X63800000Y-112763346D01*
X63804119Y-112763076D01*
X64091314Y-112744253D01*
X64091321Y-112744252D01*
X64095426Y-112743983D01*
X64099459Y-112743181D01*
X64099465Y-112743180D01*
X64381747Y-112687030D01*
X64381753Y-112687028D01*
X64385797Y-112686224D01*
X64389706Y-112684897D01*
X64389710Y-112684896D01*
X64662239Y-112592385D01*
X64662240Y-112592384D01*
X64666145Y-112591059D01*
X64791687Y-112529148D01*
X64927969Y-112461942D01*
X64927974Y-112461939D01*
X64931673Y-112460115D01*
X64990595Y-112420744D01*
X65174407Y-112297926D01*
X65174412Y-112297922D01*
X65177838Y-112295633D01*
X65180932Y-112292919D01*
X65180938Y-112292915D01*
X65397338Y-112103136D01*
X65400427Y-112100427D01*
X65403136Y-112097338D01*
X65592915Y-111880938D01*
X65592919Y-111880932D01*
X65595633Y-111877838D01*
X65760115Y-111631673D01*
X65891059Y-111366145D01*
X65921187Y-111277390D01*
X65962024Y-111219314D01*
X66027777Y-111192535D01*
X66097569Y-111205556D01*
X66149242Y-111254243D01*
X66166500Y-111317891D01*
X66166500Y-121005406D01*
X66146498Y-121073527D01*
X66129595Y-121094501D01*
X58305517Y-128918578D01*
X58243205Y-128952604D01*
X58183811Y-128951190D01*
X58139119Y-128939215D01*
X58089371Y-128925885D01*
X57870000Y-128906693D01*
X57650629Y-128925885D01*
X57437924Y-128982880D01*
X57369943Y-129014580D01*
X57243334Y-129073618D01*
X57243329Y-129073621D01*
X57238347Y-129075944D01*
X57233840Y-129079100D01*
X57233838Y-129079101D01*
X57062473Y-129199092D01*
X57062470Y-129199094D01*
X57057962Y-129202251D01*
X56944095Y-129316118D01*
X56881783Y-129350144D01*
X56810968Y-129345079D01*
X56765905Y-129316118D01*
X56652038Y-129202251D01*
X56471654Y-129075944D01*
X56272076Y-128982880D01*
X56059371Y-128925885D01*
X55941090Y-128915537D01*
X55878567Y-128910067D01*
X55812448Y-128884204D01*
X55770809Y-128826700D01*
X55766868Y-128755813D01*
X55800453Y-128695451D01*
X61067253Y-123428652D01*
X61075539Y-123421112D01*
X61082018Y-123417000D01*
X61128644Y-123367348D01*
X61131398Y-123364507D01*
X61151135Y-123344770D01*
X61153615Y-123341573D01*
X61161320Y-123332551D01*
X61186159Y-123306100D01*
X61191586Y-123300321D01*
X61195405Y-123293375D01*
X61195407Y-123293372D01*
X61201348Y-123282566D01*
X61212199Y-123266047D01*
X61219758Y-123256301D01*
X61224614Y-123250041D01*
X61227759Y-123242772D01*
X61227762Y-123242768D01*
X61242174Y-123209463D01*
X61247391Y-123198813D01*
X61268695Y-123160060D01*
X61273733Y-123140437D01*
X61280137Y-123121734D01*
X61285033Y-123110420D01*
X61285033Y-123110419D01*
X61288181Y-123103145D01*
X61289420Y-123095322D01*
X61289423Y-123095312D01*
X61295099Y-123059476D01*
X61297505Y-123047856D01*
X61306528Y-123012711D01*
X61306528Y-123012710D01*
X61308500Y-123005030D01*
X61308500Y-122984776D01*
X61310051Y-122965065D01*
X61311980Y-122952886D01*
X61313220Y-122945057D01*
X61309059Y-122901038D01*
X61308500Y-122889181D01*
X61308500Y-118964362D01*
X61328502Y-118896241D01*
X61382158Y-118849748D01*
X61452432Y-118839644D01*
X61479451Y-118846653D01*
X61501001Y-118854883D01*
X61510901Y-118857759D01*
X61727653Y-118901857D01*
X61737883Y-118903076D01*
X61958914Y-118911182D01*
X61969223Y-118910714D01*
X62188623Y-118882608D01*
X62198688Y-118880468D01*
X62410557Y-118816905D01*
X62420152Y-118813144D01*
X62618778Y-118715838D01*
X62627636Y-118710559D01*
X62685097Y-118669572D01*
X62693497Y-118658874D01*
X62686509Y-118645720D01*
X61629885Y-117589095D01*
X61595859Y-117526783D01*
X61597694Y-117501132D01*
X62264408Y-117501132D01*
X62264539Y-117502966D01*
X62268790Y-117509580D01*
X63046307Y-118287096D01*
X63058313Y-118293652D01*
X63070052Y-118284684D01*
X63108010Y-118231859D01*
X63113321Y-118223020D01*
X63211318Y-118024737D01*
X63215117Y-118015142D01*
X63279415Y-117803517D01*
X63281594Y-117793436D01*
X63310702Y-117572338D01*
X63311221Y-117565663D01*
X63312744Y-117503364D01*
X63312550Y-117496646D01*
X63294279Y-117274400D01*
X63292596Y-117264238D01*
X63238710Y-117049708D01*
X63235389Y-117039953D01*
X63147193Y-116837118D01*
X63142315Y-116828020D01*
X63069224Y-116715038D01*
X63058538Y-116705835D01*
X63048973Y-116710238D01*
X62272021Y-117487189D01*
X62264408Y-117501132D01*
X61597694Y-117501132D01*
X61600924Y-117455967D01*
X61629885Y-117410905D01*
X61900000Y-117140790D01*
X62688990Y-116351799D01*
X62696010Y-116338943D01*
X62688236Y-116328273D01*
X62685902Y-116326430D01*
X62677320Y-116320729D01*
X62483678Y-116213833D01*
X62474272Y-116209606D01*
X62265772Y-116135772D01*
X62255809Y-116133140D01*
X62038047Y-116094350D01*
X62027796Y-116093381D01*
X61806616Y-116090679D01*
X61796332Y-116091399D01*
X61577693Y-116124855D01*
X61567666Y-116127244D01*
X61473645Y-116157974D01*
X61402681Y-116160125D01*
X61341819Y-116123569D01*
X61310383Y-116059911D01*
X61308500Y-116038209D01*
X61308500Y-110830374D01*
X61328502Y-110762253D01*
X61382158Y-110715760D01*
X61452432Y-110705656D01*
X61517012Y-110735150D01*
G37*
%TD.AperFunction*%
%TA.AperFunction,Conductor*%
G36*
X61517012Y-91735150D02*
G01*
X61555396Y-91794876D01*
X61558079Y-91805792D01*
X61611548Y-92074594D01*
X61613776Y-92085797D01*
X61615103Y-92089706D01*
X61615104Y-92089710D01*
X61678813Y-92277390D01*
X61708941Y-92366145D01*
X61839885Y-92631673D01*
X61842179Y-92635106D01*
X61911039Y-92738162D01*
X62004367Y-92877838D01*
X62007081Y-92880932D01*
X62007085Y-92880938D01*
X62196864Y-93097338D01*
X62199573Y-93100427D01*
X62202662Y-93103136D01*
X62419062Y-93292915D01*
X62419068Y-93292919D01*
X62422162Y-93295633D01*
X62425588Y-93297922D01*
X62425593Y-93297926D01*
X62609405Y-93420744D01*
X62668327Y-93460115D01*
X62672026Y-93461939D01*
X62672031Y-93461942D01*
X62808313Y-93529148D01*
X62933855Y-93591059D01*
X62937760Y-93592384D01*
X62937761Y-93592385D01*
X63210290Y-93684896D01*
X63210294Y-93684897D01*
X63214203Y-93686224D01*
X63218247Y-93687028D01*
X63218253Y-93687030D01*
X63500535Y-93743180D01*
X63500541Y-93743181D01*
X63504574Y-93743983D01*
X63508679Y-93744252D01*
X63508686Y-93744253D01*
X63795881Y-93763076D01*
X63800000Y-93763346D01*
X63804119Y-93763076D01*
X64091314Y-93744253D01*
X64091321Y-93744252D01*
X64095426Y-93743983D01*
X64099459Y-93743181D01*
X64099465Y-93743180D01*
X64381747Y-93687030D01*
X64381753Y-93687028D01*
X64385797Y-93686224D01*
X64389706Y-93684897D01*
X64389710Y-93684896D01*
X64662239Y-93592385D01*
X64662240Y-93592384D01*
X64666145Y-93591059D01*
X64791687Y-93529148D01*
X64927969Y-93461942D01*
X64927974Y-93461939D01*
X64931673Y-93460115D01*
X64990595Y-93420744D01*
X65174407Y-93297926D01*
X65174412Y-93297922D01*
X65177838Y-93295633D01*
X65180932Y-93292919D01*
X65180938Y-93292915D01*
X65397338Y-93103136D01*
X65400427Y-93100427D01*
X65403136Y-93097338D01*
X65592915Y-92880938D01*
X65592919Y-92880932D01*
X65595633Y-92877838D01*
X65688962Y-92738162D01*
X65757821Y-92635106D01*
X65760115Y-92631673D01*
X65891059Y-92366145D01*
X65921187Y-92277390D01*
X65962024Y-92219314D01*
X66027777Y-92192535D01*
X66097569Y-92205556D01*
X66149242Y-92254243D01*
X66166500Y-92317891D01*
X66166500Y-109682109D01*
X66146498Y-109750230D01*
X66092842Y-109796723D01*
X66022568Y-109806827D01*
X65957988Y-109777333D01*
X65921187Y-109722610D01*
X65892385Y-109637761D01*
X65892384Y-109637760D01*
X65891059Y-109633855D01*
X65760115Y-109368327D01*
X65595633Y-109122162D01*
X65592919Y-109119068D01*
X65592915Y-109119062D01*
X65403136Y-108902662D01*
X65400427Y-108899573D01*
X65397338Y-108896864D01*
X65180938Y-108707085D01*
X65180932Y-108707081D01*
X65177838Y-108704367D01*
X65174412Y-108702078D01*
X65174407Y-108702074D01*
X64935106Y-108542179D01*
X64931673Y-108539885D01*
X64927974Y-108538061D01*
X64927969Y-108538058D01*
X64791687Y-108470852D01*
X64666145Y-108408941D01*
X64662239Y-108407615D01*
X64389710Y-108315104D01*
X64389706Y-108315103D01*
X64385797Y-108313776D01*
X64381753Y-108312972D01*
X64381747Y-108312970D01*
X64099465Y-108256820D01*
X64099459Y-108256819D01*
X64095426Y-108256017D01*
X64091321Y-108255748D01*
X64091314Y-108255747D01*
X63804119Y-108236924D01*
X63800000Y-108236654D01*
X63795881Y-108236924D01*
X63508686Y-108255747D01*
X63508679Y-108255748D01*
X63504574Y-108256017D01*
X63500541Y-108256819D01*
X63500535Y-108256820D01*
X63218253Y-108312970D01*
X63218247Y-108312972D01*
X63214203Y-108313776D01*
X63210294Y-108315103D01*
X63210290Y-108315104D01*
X62937761Y-108407615D01*
X62933855Y-108408941D01*
X62808313Y-108470852D01*
X62672031Y-108538058D01*
X62672026Y-108538061D01*
X62668327Y-108539885D01*
X62664894Y-108542179D01*
X62425593Y-108702074D01*
X62425588Y-108702078D01*
X62422162Y-108704367D01*
X62419068Y-108707081D01*
X62419062Y-108707085D01*
X62202662Y-108896864D01*
X62199573Y-108899573D01*
X62196864Y-108902662D01*
X62007085Y-109119062D01*
X62007081Y-109119068D01*
X62004367Y-109122162D01*
X61839885Y-109368327D01*
X61708941Y-109633855D01*
X61613776Y-109914203D01*
X61612972Y-109918247D01*
X61612970Y-109918253D01*
X61558079Y-110194208D01*
X61525171Y-110257117D01*
X61463476Y-110292249D01*
X61392581Y-110288449D01*
X61334995Y-110246923D01*
X61309001Y-110180856D01*
X61308500Y-110169626D01*
X61308500Y-99964362D01*
X61328502Y-99896241D01*
X61382158Y-99849748D01*
X61452432Y-99839644D01*
X61479451Y-99846653D01*
X61501001Y-99854883D01*
X61510901Y-99857759D01*
X61727653Y-99901857D01*
X61737883Y-99903076D01*
X61958914Y-99911182D01*
X61969223Y-99910714D01*
X62188623Y-99882608D01*
X62198688Y-99880468D01*
X62410557Y-99816905D01*
X62420152Y-99813144D01*
X62618778Y-99715838D01*
X62627636Y-99710559D01*
X62685097Y-99669572D01*
X62693497Y-99658874D01*
X62686509Y-99645720D01*
X61629885Y-98589095D01*
X61595859Y-98526783D01*
X61597694Y-98501132D01*
X62264408Y-98501132D01*
X62264539Y-98502966D01*
X62268790Y-98509580D01*
X63046307Y-99287096D01*
X63058313Y-99293652D01*
X63070052Y-99284684D01*
X63108010Y-99231859D01*
X63113321Y-99223020D01*
X63211318Y-99024737D01*
X63215117Y-99015142D01*
X63279415Y-98803517D01*
X63281594Y-98793436D01*
X63310702Y-98572338D01*
X63311221Y-98565663D01*
X63312744Y-98503364D01*
X63312550Y-98496646D01*
X63294279Y-98274400D01*
X63292596Y-98264238D01*
X63238710Y-98049708D01*
X63235389Y-98039953D01*
X63147193Y-97837118D01*
X63142315Y-97828020D01*
X63069224Y-97715038D01*
X63058538Y-97705835D01*
X63048973Y-97710238D01*
X62272021Y-98487189D01*
X62264408Y-98501132D01*
X61597694Y-98501132D01*
X61600924Y-98455967D01*
X61629885Y-98410905D01*
X61900000Y-98140790D01*
X62688990Y-97351799D01*
X62696010Y-97338943D01*
X62688236Y-97328273D01*
X62685902Y-97326430D01*
X62677320Y-97320729D01*
X62483678Y-97213833D01*
X62474272Y-97209606D01*
X62265772Y-97135772D01*
X62255809Y-97133140D01*
X62038047Y-97094350D01*
X62027796Y-97093381D01*
X61806616Y-97090679D01*
X61796332Y-97091399D01*
X61577693Y-97124855D01*
X61567666Y-97127244D01*
X61473645Y-97157974D01*
X61402681Y-97160125D01*
X61341819Y-97123569D01*
X61310383Y-97059911D01*
X61308500Y-97038209D01*
X61308500Y-91830374D01*
X61328502Y-91762253D01*
X61382158Y-91715760D01*
X61452432Y-91705656D01*
X61517012Y-91735150D01*
G37*
%TD.AperFunction*%
%TA.AperFunction,Conductor*%
G36*
X65158146Y-79381924D02*
G01*
X65214982Y-79424471D01*
X65239905Y-79492727D01*
X65250110Y-79669715D01*
X65251247Y-79674761D01*
X65251248Y-79674767D01*
X65283453Y-79817668D01*
X65278917Y-79888520D01*
X65249631Y-79934464D01*
X64107747Y-81076348D01*
X64099461Y-81083888D01*
X64092982Y-81088000D01*
X64087557Y-81093777D01*
X64046357Y-81137651D01*
X64043602Y-81140493D01*
X64023865Y-81160230D01*
X64021385Y-81163427D01*
X64013682Y-81172447D01*
X63983414Y-81204679D01*
X63979595Y-81211625D01*
X63979593Y-81211628D01*
X63973652Y-81222434D01*
X63962801Y-81238953D01*
X63950386Y-81254959D01*
X63947241Y-81262228D01*
X63947238Y-81262232D01*
X63932826Y-81295537D01*
X63927609Y-81306187D01*
X63906305Y-81344940D01*
X63904334Y-81352615D01*
X63904334Y-81352616D01*
X63901267Y-81364562D01*
X63894863Y-81383266D01*
X63886819Y-81401855D01*
X63885580Y-81409678D01*
X63885577Y-81409688D01*
X63879901Y-81445524D01*
X63877495Y-81457144D01*
X63866500Y-81499970D01*
X63866500Y-81520224D01*
X63864949Y-81539934D01*
X63861780Y-81559943D01*
X63862526Y-81567835D01*
X63865941Y-81603961D01*
X63866500Y-81615819D01*
X63866500Y-86321233D01*
X63865973Y-86332416D01*
X63864298Y-86339909D01*
X63864547Y-86347835D01*
X63864547Y-86347836D01*
X63866438Y-86407986D01*
X63866500Y-86411945D01*
X63866500Y-86439856D01*
X63866997Y-86443790D01*
X63866997Y-86443791D01*
X63867005Y-86443856D01*
X63867938Y-86455693D01*
X63869327Y-86499889D01*
X63874978Y-86519339D01*
X63878987Y-86538700D01*
X63881526Y-86558797D01*
X63884445Y-86566168D01*
X63884445Y-86566170D01*
X63897804Y-86599912D01*
X63901649Y-86611142D01*
X63913982Y-86653593D01*
X63918015Y-86660412D01*
X63918017Y-86660417D01*
X63924293Y-86671028D01*
X63932988Y-86688776D01*
X63940448Y-86707617D01*
X63945110Y-86714033D01*
X63945110Y-86714034D01*
X63966436Y-86743387D01*
X63972952Y-86753307D01*
X63995458Y-86791362D01*
X64009779Y-86805683D01*
X64022619Y-86820716D01*
X64034528Y-86837107D01*
X64049759Y-86849707D01*
X64068605Y-86865298D01*
X64077384Y-86873288D01*
X66129595Y-88925499D01*
X66163621Y-88987811D01*
X66166500Y-89014594D01*
X66166500Y-90682109D01*
X66146498Y-90750230D01*
X66092842Y-90796723D01*
X66022568Y-90806827D01*
X65957988Y-90777333D01*
X65921187Y-90722610D01*
X65892385Y-90637761D01*
X65892384Y-90637760D01*
X65891059Y-90633855D01*
X65760115Y-90368327D01*
X65711235Y-90295173D01*
X65597926Y-90125593D01*
X65597922Y-90125588D01*
X65595633Y-90122162D01*
X65592919Y-90119068D01*
X65592915Y-90119062D01*
X65403136Y-89902662D01*
X65400427Y-89899573D01*
X65397338Y-89896864D01*
X65180938Y-89707085D01*
X65180932Y-89707081D01*
X65177838Y-89704367D01*
X65174412Y-89702078D01*
X65174407Y-89702074D01*
X64935106Y-89542179D01*
X64931673Y-89539885D01*
X64927974Y-89538061D01*
X64927969Y-89538058D01*
X64791687Y-89470852D01*
X64666145Y-89408941D01*
X64662239Y-89407615D01*
X64389710Y-89315104D01*
X64389706Y-89315103D01*
X64385797Y-89313776D01*
X64381753Y-89312972D01*
X64381747Y-89312970D01*
X64099465Y-89256820D01*
X64099459Y-89256819D01*
X64095426Y-89256017D01*
X64091321Y-89255748D01*
X64091314Y-89255747D01*
X63804119Y-89236924D01*
X63800000Y-89236654D01*
X63795881Y-89236924D01*
X63508686Y-89255747D01*
X63508679Y-89255748D01*
X63504574Y-89256017D01*
X63500541Y-89256819D01*
X63500535Y-89256820D01*
X63218253Y-89312970D01*
X63218247Y-89312972D01*
X63214203Y-89313776D01*
X63210294Y-89315103D01*
X63210290Y-89315104D01*
X62937761Y-89407615D01*
X62933855Y-89408941D01*
X62808313Y-89470852D01*
X62672031Y-89538058D01*
X62672026Y-89538061D01*
X62668327Y-89539885D01*
X62664894Y-89542179D01*
X62425593Y-89702074D01*
X62425588Y-89702078D01*
X62422162Y-89704367D01*
X62419068Y-89707081D01*
X62419062Y-89707085D01*
X62202662Y-89896864D01*
X62199573Y-89899573D01*
X62196864Y-89902662D01*
X62007085Y-90119062D01*
X62007081Y-90119068D01*
X62004367Y-90122162D01*
X62002078Y-90125588D01*
X62002074Y-90125593D01*
X61888765Y-90295173D01*
X61839885Y-90368327D01*
X61708941Y-90633855D01*
X61613776Y-90914203D01*
X61612972Y-90918247D01*
X61612970Y-90918253D01*
X61558079Y-91194208D01*
X61525171Y-91257117D01*
X61463476Y-91292249D01*
X61392581Y-91288449D01*
X61334995Y-91246923D01*
X61309001Y-91180856D01*
X61308500Y-91169626D01*
X61308500Y-83179594D01*
X61328502Y-83111473D01*
X61345405Y-83090499D01*
X65025019Y-79410885D01*
X65087331Y-79376859D01*
X65158146Y-79381924D01*
G37*
%TD.AperFunction*%
%TA.AperFunction,Conductor*%
G36*
X66796121Y-84326002D02*
G01*
X66842614Y-84379658D01*
X66854000Y-84432000D01*
X66854000Y-85878517D01*
X66858064Y-85892359D01*
X66871478Y-85894393D01*
X66878184Y-85893534D01*
X66888262Y-85891392D01*
X67092252Y-85830192D01*
X67094525Y-85829301D01*
X67095511Y-85829214D01*
X67097201Y-85828707D01*
X67097306Y-85829056D01*
X67165247Y-85823068D01*
X67228112Y-85856060D01*
X67263162Y-85917802D01*
X67266500Y-85946614D01*
X67266500Y-87966405D01*
X67246498Y-88034526D01*
X67192842Y-88081019D01*
X67122568Y-88091123D01*
X67057988Y-88061629D01*
X67051405Y-88055500D01*
X65170405Y-86174500D01*
X65136379Y-86112188D01*
X65133500Y-86085405D01*
X65133500Y-85203395D01*
X65153502Y-85135274D01*
X65207158Y-85088781D01*
X65277432Y-85078677D01*
X65342012Y-85108171D01*
X65376243Y-85155991D01*
X65381770Y-85169603D01*
X65386413Y-85178794D01*
X65497694Y-85360388D01*
X65503777Y-85368699D01*
X65643213Y-85529667D01*
X65650580Y-85536883D01*
X65814434Y-85672916D01*
X65822881Y-85678831D01*
X66006756Y-85786279D01*
X66016042Y-85790729D01*
X66215001Y-85866703D01*
X66224899Y-85869579D01*
X66328250Y-85890606D01*
X66342299Y-85889410D01*
X66346000Y-85879065D01*
X66346000Y-84432000D01*
X66366002Y-84363879D01*
X66419658Y-84317386D01*
X66472000Y-84306000D01*
X66728000Y-84306000D01*
X66796121Y-84326002D01*
G37*
%TD.AperFunction*%
%TD*%
M02*
