%TF.GenerationSoftware,KiCad,Pcbnew,7.0.7*%
%TF.CreationDate,2023-08-21T13:21:59+01:00*%
%TF.ProjectId,QuadEnv_Controls_2,51756164-456e-4765-9f43-6f6e74726f6c,rev?*%
%TF.SameCoordinates,Original*%
%TF.FileFunction,Copper,L1,Top*%
%TF.FilePolarity,Positive*%
%FSLAX46Y46*%
G04 Gerber Fmt 4.6, Leading zero omitted, Abs format (unit mm)*
G04 Created by KiCad (PCBNEW 7.0.7) date 2023-08-21 13:21:59*
%MOMM*%
%LPD*%
G01*
G04 APERTURE LIST*
%TA.AperFunction,ComponentPad*%
%ADD10R,1.700000X1.700000*%
%TD*%
%TA.AperFunction,ComponentPad*%
%ADD11O,1.700000X1.700000*%
%TD*%
%TA.AperFunction,ComponentPad*%
%ADD12R,1.800000X1.800000*%
%TD*%
%TA.AperFunction,ComponentPad*%
%ADD13C,1.800000*%
%TD*%
%TA.AperFunction,WasherPad*%
%ADD14C,3.500000*%
%TD*%
%TA.AperFunction,ComponentPad*%
%ADD15C,1.500000*%
%TD*%
%TA.AperFunction,ComponentPad*%
%ADD16R,1.500000X1.500000*%
%TD*%
%TA.AperFunction,ViaPad*%
%ADD17C,0.800000*%
%TD*%
%TA.AperFunction,Conductor*%
%ADD18C,0.250000*%
%TD*%
G04 APERTURE END LIST*
D10*
%TO.P,J1,1,Pin_1*%
%TO.N,+3.3VA*%
X52200000Y-75000000D03*
D11*
%TO.P,J1,2,Pin_2*%
%TO.N,GND*%
X52200000Y-77540000D03*
%TO.P,J1,3,Pin_3*%
%TO.N,/Mode_Led*%
X52200000Y-80080000D03*
%TO.P,J1,4,Pin_4*%
%TO.N,/Mode_Btn*%
X52200000Y-82620000D03*
%TO.P,J1,5,Pin_5*%
%TO.N,/Attack_Pot*%
X52200000Y-85160000D03*
%TO.P,J1,6,Pin_6*%
%TO.N,/Decay_Pot*%
X52200000Y-87700000D03*
%TO.P,J1,7,Pin_7*%
%TO.N,/Sustain_Pot*%
X52200000Y-90240000D03*
%TO.P,J1,8,Pin_8*%
%TO.N,/Release_Pot*%
X52200000Y-92780000D03*
%TD*%
D10*
%TO.P,J3,1,Pin_1*%
%TO.N,/Led2_Out*%
X64480000Y-137200000D03*
D11*
%TO.P,J3,2,Pin_2*%
%TO.N,/Env2_Out*%
X61940000Y-137200000D03*
%TO.P,J3,3,Pin_3*%
%TO.N,GND*%
X59400000Y-137200000D03*
%TO.P,J3,4,Pin_4*%
%TO.N,/Led1_Out*%
X56860000Y-137200000D03*
%TO.P,J3,5,Pin_5*%
%TO.N,/Env1_Out*%
X54320000Y-137200000D03*
%TD*%
D10*
%TO.P,J4,1,Pin_1*%
%TO.N,/Led3_Out*%
X55600000Y-152700000D03*
D11*
%TO.P,J4,2,Pin_2*%
%TO.N,/Env3_Out*%
X58140000Y-152700000D03*
%TO.P,J4,3,Pin_3*%
%TO.N,/Led4_Out*%
X60680000Y-152700000D03*
%TO.P,J4,4,Pin_4*%
%TO.N,/Env4_Out*%
X63220000Y-152700000D03*
%TD*%
D10*
%TO.P,J2,1,Pin_1*%
%TO.N,/Gate1_In*%
X66600000Y-75000000D03*
D11*
%TO.P,J2,2,Pin_2*%
%TO.N,/Gate2_In*%
X66600000Y-77540000D03*
%TO.P,J2,3,Pin_3*%
%TO.N,/Gate3_In*%
X66600000Y-80080000D03*
%TO.P,J2,4,Pin_4*%
%TO.N,/Gate4_In*%
X66600000Y-82620000D03*
%TD*%
D12*
%TO.P,D2,1,K*%
%TO.N,GND*%
X60480000Y-46500000D03*
D13*
%TO.P,D2,2,A*%
%TO.N,/Led2_Out*%
X63020000Y-46500000D03*
%TD*%
D12*
%TO.P,D1,1,K*%
%TO.N,GND*%
X66400000Y-47770000D03*
D13*
%TO.P,D1,2,A*%
%TO.N,/Led1_Out*%
X66400000Y-45230000D03*
%TD*%
D14*
%TO.P,RV4,*%
%TO.N,*%
X63800000Y-110500000D03*
X55000000Y-110500000D03*
D13*
%TO.P,RV4,1,1*%
%TO.N,+3.3VA*%
X56900000Y-117500000D03*
%TO.P,RV4,2,2*%
%TO.N,/Release_Pot*%
X59400000Y-117500000D03*
%TO.P,RV4,3,3*%
%TO.N,GND*%
X61900000Y-117500000D03*
%TD*%
D14*
%TO.P,RV3,*%
%TO.N,*%
X63800000Y-91500000D03*
X55000000Y-91500000D03*
D13*
%TO.P,RV3,1,1*%
%TO.N,+3.3VA*%
X56900000Y-98500000D03*
%TO.P,RV3,2,2*%
%TO.N,/Sustain_Pot*%
X59400000Y-98500000D03*
%TO.P,RV3,3,3*%
%TO.N,GND*%
X61900000Y-98500000D03*
%TO.P,RV3,4,1*%
X61900000Y-84000000D03*
%TO.P,RV3,5,2*%
%TO.N,/Mode_Btn*%
X56900000Y-84000000D03*
%TD*%
D12*
%TO.P,D4,1,K*%
%TO.N,GND*%
X52300000Y-47770000D03*
D13*
%TO.P,D4,2,A*%
%TO.N,/Led4_Out*%
X52300000Y-45230000D03*
%TD*%
D12*
%TO.P,D5,1,K*%
%TO.N,GND*%
X52500000Y-98670000D03*
D13*
%TO.P,D5,2,A*%
%TO.N,/Mode_Led*%
X52500000Y-96130000D03*
%TD*%
D15*
%TO.P,J6,1*%
%TO.N,/Env1_Out*%
X62960000Y-144230000D03*
%TO.P,J6,2*%
%TO.N,/Env2_Out*%
X61930000Y-141690000D03*
%TO.P,J6,3*%
%TO.N,/Env3_Out*%
X60930000Y-144230000D03*
%TO.P,J6,4*%
%TO.N,/Env4_Out*%
X59910000Y-141690000D03*
%TO.P,J6,5*%
%TO.N,unconnected-(J6-Pad5)*%
X58900000Y-144230000D03*
%TO.P,J6,6*%
%TO.N,unconnected-(J6-Pad6)*%
X57880000Y-141690000D03*
%TO.P,J6,7*%
%TO.N,unconnected-(J6-Pad7)*%
X56870000Y-144230000D03*
D16*
%TO.P,J6,8*%
%TO.N,unconnected-(J6-Pad8)*%
X55850000Y-141690000D03*
%TD*%
D14*
%TO.P,RV2,*%
%TO.N,*%
X63800000Y-72500000D03*
X55000000Y-72500000D03*
D13*
%TO.P,RV2,1,1*%
%TO.N,+3.3VA*%
X56900000Y-79500000D03*
%TO.P,RV2,2,2*%
%TO.N,/Decay_Pot*%
X59400000Y-79500000D03*
%TO.P,RV2,3,3*%
%TO.N,GND*%
X61900000Y-79500000D03*
%TD*%
D12*
%TO.P,D3,1,K*%
%TO.N,GND*%
X58270000Y-46500000D03*
D13*
%TO.P,D3,2,A*%
%TO.N,/Led3_Out*%
X55730000Y-46500000D03*
%TD*%
D14*
%TO.P,RV1,*%
%TO.N,*%
X63800000Y-54500000D03*
X55000000Y-54500000D03*
D13*
%TO.P,RV1,1,1*%
%TO.N,+3.3VA*%
X56900000Y-61500000D03*
%TO.P,RV1,2,2*%
%TO.N,/Attack_Pot*%
X59400000Y-61500000D03*
%TO.P,RV1,3,3*%
%TO.N,GND*%
X61900000Y-61500000D03*
%TD*%
D15*
%TO.P,J5,1*%
%TO.N,/Gate1_In*%
X55840000Y-130170000D03*
%TO.P,J5,2*%
%TO.N,/Gate2_In*%
X56870000Y-132710000D03*
%TO.P,J5,3*%
%TO.N,/Gate3_In*%
X57870000Y-130170000D03*
%TO.P,J5,4*%
%TO.N,/Gate4_In*%
X58890000Y-132710000D03*
%TO.P,J5,5*%
%TO.N,unconnected-(J5-Pad5)*%
X59900000Y-130170000D03*
%TO.P,J5,6*%
%TO.N,unconnected-(J5-Pad6)*%
X60920000Y-132710000D03*
%TO.P,J5,7*%
%TO.N,unconnected-(J5-Pad7)*%
X61930000Y-130170000D03*
D16*
%TO.P,J5,8*%
%TO.N,unconnected-(J5-Pad8)*%
X62950000Y-132710000D03*
%TD*%
D17*
%TO.N,GND*%
X63400000Y-82300000D03*
X64200000Y-88200000D03*
%TO.N,/Led3_Out*%
X55585785Y-146164215D03*
%TD*%
D18*
%TO.N,/Led3_Out*%
X55600000Y-146178430D02*
X55585785Y-146164215D01*
X55600000Y-152700000D02*
X55600000Y-146178430D01*
%TO.N,/Attack_Pot*%
X59400000Y-72280000D02*
X54190000Y-77490000D01*
X54190000Y-77490000D02*
X54190000Y-83170000D01*
X54190000Y-83170000D02*
X52200000Y-85160000D01*
X59400000Y-61500000D02*
X59400000Y-72280000D01*
%TO.N,/Decay_Pot*%
X58600000Y-87700000D02*
X52200000Y-87700000D01*
X59400000Y-79500000D02*
X59400000Y-86900000D01*
X59400000Y-86900000D02*
X58600000Y-87700000D01*
%TO.N,/Release_Pot*%
X58175000Y-97975000D02*
X58175000Y-116275000D01*
X58175000Y-116275000D02*
X59400000Y-117500000D01*
X52200000Y-92780000D02*
X52980000Y-92780000D01*
X52980000Y-92780000D02*
X58175000Y-97975000D01*
%TO.N,/Sustain_Pot*%
X58500000Y-97600000D02*
X58500000Y-90860000D01*
X58500000Y-90860000D02*
X56740000Y-89100000D01*
X59400000Y-98500000D02*
X58500000Y-97600000D01*
X56740000Y-89100000D02*
X53340000Y-89100000D01*
X53340000Y-89100000D02*
X52200000Y-90240000D01*
%TO.N,/Env2_Out*%
X61900000Y-137240000D02*
X61900000Y-141640000D01*
X61940000Y-137200000D02*
X61900000Y-137240000D01*
%TO.N,/Gate2_In*%
X60625000Y-104000000D02*
X63300000Y-101325000D01*
X60500000Y-83500000D02*
X66460000Y-77540000D01*
X60500000Y-94575000D02*
X60500000Y-83500000D01*
X54400000Y-131100000D02*
X54400000Y-129200000D01*
X56950000Y-132710000D02*
X56010000Y-132710000D01*
X63300000Y-101325000D02*
X63300000Y-97375000D01*
X66460000Y-77540000D02*
X66600000Y-77540000D01*
X54400000Y-129200000D02*
X60625000Y-122975000D01*
X60625000Y-122975000D02*
X60625000Y-104000000D01*
X63300000Y-97375000D02*
X60500000Y-94575000D01*
X56010000Y-132710000D02*
X54400000Y-131100000D01*
%TO.N,/Gate3_In*%
X66800000Y-88700000D02*
X64700000Y-86600000D01*
X64700000Y-86600000D02*
X64700000Y-81980000D01*
X57950000Y-130170000D02*
X66800000Y-121320000D01*
X66800000Y-121320000D02*
X66800000Y-88700000D01*
X64700000Y-81980000D02*
X66600000Y-80080000D01*
%TO.N,/Gate4_In*%
X67900000Y-83920000D02*
X67900000Y-126000000D01*
X67900000Y-126000000D02*
X62500000Y-131400000D01*
X66600000Y-82620000D02*
X67900000Y-83920000D01*
X60280000Y-131400000D02*
X58970000Y-132710000D01*
X62500000Y-131400000D02*
X60280000Y-131400000D01*
%TO.N,/Env3_Out*%
X58140000Y-152700000D02*
X60900000Y-149940000D01*
X60900000Y-144260000D02*
X60930000Y-144230000D01*
X60900000Y-149940000D02*
X60900000Y-144260000D01*
%TO.N,/Env4_Out*%
X63220000Y-152700000D02*
X64200000Y-151720000D01*
X63500000Y-143000000D02*
X61140000Y-143000000D01*
X61140000Y-143000000D02*
X59830000Y-141690000D01*
X64200000Y-143700000D02*
X63500000Y-143000000D01*
X64200000Y-151720000D02*
X64200000Y-143700000D01*
%TO.N,/Mode_Led*%
X50900000Y-81380000D02*
X52200000Y-80080000D01*
X50900000Y-94530000D02*
X50900000Y-81380000D01*
X52500000Y-96130000D02*
X50900000Y-94530000D01*
%TD*%
%TA.AperFunction,Conductor*%
%TO.N,GND*%
G36*
X53150743Y-93854838D02*
G01*
X53181542Y-93877446D01*
X56327983Y-97023887D01*
X56362009Y-97086199D01*
X56356944Y-97157014D01*
X56314397Y-97213850D01*
X56298858Y-97223796D01*
X56126981Y-97316811D01*
X55942778Y-97460182D01*
X55942774Y-97460186D01*
X55784685Y-97631916D01*
X55657015Y-97827331D01*
X55563252Y-98041089D01*
X55563249Y-98041096D01*
X55505950Y-98267366D01*
X55505949Y-98267372D01*
X55505949Y-98267374D01*
X55486673Y-98500000D01*
X55504876Y-98719681D01*
X55505950Y-98732633D01*
X55563249Y-98958903D01*
X55563252Y-98958910D01*
X55657015Y-99172668D01*
X55784685Y-99368083D01*
X55942774Y-99539813D01*
X55942778Y-99539817D01*
X56008650Y-99591087D01*
X56126983Y-99683190D01*
X56332273Y-99794287D01*
X56553049Y-99870080D01*
X56783288Y-99908500D01*
X56783292Y-99908500D01*
X57016708Y-99908500D01*
X57016712Y-99908500D01*
X57246951Y-99870080D01*
X57374591Y-99826260D01*
X57445511Y-99823060D01*
X57506907Y-99858712D01*
X57539282Y-99921898D01*
X57541500Y-99945434D01*
X57541500Y-116054565D01*
X57521498Y-116122686D01*
X57467842Y-116169179D01*
X57397568Y-116179283D01*
X57374588Y-116173738D01*
X57246955Y-116129921D01*
X57246948Y-116129919D01*
X57148411Y-116113476D01*
X57016712Y-116091500D01*
X56783288Y-116091500D01*
X56668066Y-116110727D01*
X56553051Y-116129919D01*
X56553044Y-116129921D01*
X56332276Y-116205711D01*
X56332273Y-116205713D01*
X56126985Y-116316809D01*
X56126983Y-116316810D01*
X55942778Y-116460182D01*
X55942774Y-116460186D01*
X55784685Y-116631916D01*
X55657015Y-116827331D01*
X55563252Y-117041089D01*
X55563249Y-117041096D01*
X55505950Y-117267366D01*
X55505949Y-117267372D01*
X55505949Y-117267374D01*
X55486673Y-117500000D01*
X55505581Y-117728188D01*
X55505950Y-117732633D01*
X55563249Y-117958903D01*
X55563252Y-117958910D01*
X55657015Y-118172668D01*
X55784685Y-118368083D01*
X55942774Y-118539813D01*
X55942778Y-118539817D01*
X56008650Y-118591087D01*
X56126983Y-118683190D01*
X56332273Y-118794287D01*
X56553049Y-118870080D01*
X56783288Y-118908500D01*
X56783292Y-118908500D01*
X57016708Y-118908500D01*
X57016712Y-118908500D01*
X57246951Y-118870080D01*
X57467727Y-118794287D01*
X57673017Y-118683190D01*
X57857220Y-118539818D01*
X58015314Y-118368083D01*
X58044517Y-118323383D01*
X58098519Y-118277296D01*
X58168867Y-118267720D01*
X58233225Y-118297696D01*
X58255481Y-118323382D01*
X58284686Y-118368083D01*
X58284687Y-118368084D01*
X58442774Y-118539813D01*
X58442778Y-118539817D01*
X58508650Y-118591087D01*
X58626983Y-118683190D01*
X58832273Y-118794287D01*
X59053049Y-118870080D01*
X59283288Y-118908500D01*
X59283292Y-118908500D01*
X59516708Y-118908500D01*
X59516712Y-118908500D01*
X59746951Y-118870080D01*
X59824588Y-118843426D01*
X59895512Y-118840227D01*
X59956908Y-118875879D01*
X59989282Y-118939064D01*
X59991500Y-118962600D01*
X59991500Y-122660404D01*
X59971498Y-122728525D01*
X59954595Y-122749499D01*
X54011336Y-128692757D01*
X53998901Y-128702721D01*
X53999089Y-128702948D01*
X53992980Y-128708001D01*
X53945016Y-128759078D01*
X53923866Y-128780227D01*
X53919560Y-128785777D01*
X53915714Y-128790279D01*
X53883417Y-128824674D01*
X53883411Y-128824683D01*
X53873651Y-128842435D01*
X53862803Y-128858950D01*
X53850386Y-128874958D01*
X53831645Y-128918264D01*
X53829034Y-128923594D01*
X53806305Y-128964939D01*
X53806303Y-128964944D01*
X53801267Y-128984559D01*
X53794864Y-129003262D01*
X53786819Y-129021852D01*
X53779437Y-129068456D01*
X53778233Y-129074268D01*
X53766500Y-129119968D01*
X53766500Y-129140223D01*
X53764949Y-129159933D01*
X53761780Y-129179942D01*
X53761780Y-129179943D01*
X53766220Y-129226917D01*
X53766500Y-129232850D01*
X53766500Y-131016146D01*
X53764751Y-131031988D01*
X53765044Y-131032016D01*
X53764298Y-131039907D01*
X53766500Y-131109957D01*
X53766500Y-131139851D01*
X53766501Y-131139872D01*
X53767378Y-131146820D01*
X53767844Y-131152732D01*
X53769326Y-131199888D01*
X53769327Y-131199893D01*
X53774977Y-131219339D01*
X53778986Y-131238697D01*
X53781525Y-131258793D01*
X53781526Y-131258799D01*
X53798893Y-131302662D01*
X53800816Y-131308279D01*
X53813982Y-131353593D01*
X53824294Y-131371031D01*
X53832988Y-131388779D01*
X53840444Y-131407609D01*
X53840450Y-131407620D01*
X53868177Y-131445783D01*
X53871437Y-131450746D01*
X53895460Y-131491365D01*
X53909779Y-131505684D01*
X53922617Y-131520714D01*
X53924191Y-131522880D01*
X53934528Y-131537107D01*
X53962794Y-131560491D01*
X53970886Y-131567185D01*
X53975267Y-131571171D01*
X54117888Y-131713792D01*
X54250239Y-131846143D01*
X54284265Y-131908455D01*
X54279200Y-131979270D01*
X54236653Y-132036106D01*
X54170133Y-132060917D01*
X54100759Y-132045826D01*
X54091621Y-132040322D01*
X53970359Y-131960096D01*
X53866399Y-131911362D01*
X53721779Y-131843567D01*
X53562223Y-131795564D01*
X53458875Y-131764471D01*
X53187272Y-131724500D01*
X53187269Y-131724500D01*
X52981453Y-131724500D01*
X52981451Y-131724500D01*
X52776191Y-131739523D01*
X52508231Y-131799214D01*
X52508219Y-131799218D01*
X52251801Y-131897289D01*
X52012397Y-132031649D01*
X52012393Y-132031651D01*
X51795094Y-132199444D01*
X51795093Y-132199445D01*
X51604548Y-132397081D01*
X51444807Y-132620358D01*
X51444803Y-132620364D01*
X51319270Y-132864524D01*
X51230631Y-133124348D01*
X51230628Y-133124361D01*
X51180764Y-133394317D01*
X51180763Y-133394328D01*
X51170738Y-133668680D01*
X51200762Y-133941566D01*
X51270204Y-134207184D01*
X51324724Y-134335479D01*
X51377577Y-134459852D01*
X51520595Y-134694196D01*
X51696209Y-134905218D01*
X51696211Y-134905220D01*
X51696213Y-134905222D01*
X51900666Y-135088414D01*
X51900672Y-135088419D01*
X51900677Y-135088423D01*
X52129641Y-135239904D01*
X52378221Y-135356433D01*
X52641119Y-135435527D01*
X52641122Y-135435527D01*
X52641124Y-135435528D01*
X52912727Y-135475500D01*
X52912731Y-135475500D01*
X53118549Y-135475500D01*
X53150967Y-135473127D01*
X53323805Y-135460477D01*
X53591775Y-135400784D01*
X53848198Y-135302711D01*
X54087609Y-135168347D01*
X54304904Y-135000557D01*
X54495454Y-134802916D01*
X54655196Y-134579637D01*
X54780727Y-134335479D01*
X54780727Y-134335478D01*
X54780729Y-134335475D01*
X54869368Y-134075651D01*
X54869370Y-134075646D01*
X54919236Y-133805674D01*
X54929262Y-133531320D01*
X54908393Y-133341652D01*
X54899237Y-133258433D01*
X54864184Y-133124354D01*
X54829796Y-132992818D01*
X54722423Y-132740148D01*
X54649320Y-132620364D01*
X54612114Y-132559399D01*
X54593701Y-132490832D01*
X54615281Y-132423195D01*
X54670003Y-132377962D01*
X54740493Y-132369494D01*
X54804371Y-132400480D01*
X54808730Y-132404634D01*
X55502760Y-133098664D01*
X55512720Y-133111097D01*
X55512947Y-133110910D01*
X55517999Y-133117017D01*
X55569079Y-133164984D01*
X55590223Y-133186129D01*
X55590227Y-133186132D01*
X55590230Y-133186135D01*
X55595782Y-133190442D01*
X55600269Y-133194273D01*
X55622959Y-133215581D01*
X55634677Y-133226585D01*
X55634679Y-133226586D01*
X55652428Y-133236343D01*
X55668954Y-133247199D01*
X55684956Y-133259612D01*
X55684961Y-133259615D01*
X55707090Y-133269191D01*
X55761665Y-133314602D01*
X55771243Y-133331575D01*
X55775939Y-133341646D01*
X55775943Y-133341652D01*
X55775944Y-133341654D01*
X55812826Y-133394326D01*
X55902251Y-133522038D01*
X55902254Y-133522042D01*
X56057957Y-133677745D01*
X56057961Y-133677748D01*
X56057962Y-133677749D01*
X56238346Y-133804056D01*
X56437924Y-133897120D01*
X56650629Y-133954115D01*
X56870000Y-133973307D01*
X57089371Y-133954115D01*
X57302076Y-133897120D01*
X57501654Y-133804056D01*
X57682038Y-133677749D01*
X57691107Y-133668680D01*
X57790905Y-133568883D01*
X57853217Y-133534857D01*
X57924032Y-133539922D01*
X57969095Y-133568883D01*
X58077957Y-133677745D01*
X58077961Y-133677748D01*
X58077962Y-133677749D01*
X58258346Y-133804056D01*
X58457924Y-133897120D01*
X58670629Y-133954115D01*
X58890000Y-133973307D01*
X59109371Y-133954115D01*
X59322076Y-133897120D01*
X59521654Y-133804056D01*
X59702038Y-133677749D01*
X59711107Y-133668680D01*
X59815905Y-133563883D01*
X59878217Y-133529857D01*
X59949032Y-133534922D01*
X59994095Y-133563883D01*
X60107957Y-133677745D01*
X60107961Y-133677748D01*
X60107962Y-133677749D01*
X60288346Y-133804056D01*
X60487924Y-133897120D01*
X60700629Y-133954115D01*
X60920000Y-133973307D01*
X61139371Y-133954115D01*
X61352076Y-133897120D01*
X61551654Y-133804056D01*
X61629277Y-133749703D01*
X61696549Y-133727016D01*
X61765409Y-133744301D01*
X61802413Y-133777407D01*
X61836739Y-133823260D01*
X61836739Y-133823261D01*
X61953792Y-133910887D01*
X61953794Y-133910888D01*
X61953796Y-133910889D01*
X62012875Y-133932924D01*
X62090795Y-133961988D01*
X62090803Y-133961990D01*
X62151350Y-133968499D01*
X62151355Y-133968499D01*
X62151362Y-133968500D01*
X62151368Y-133968500D01*
X63748632Y-133968500D01*
X63748638Y-133968500D01*
X63795534Y-133963458D01*
X63865402Y-133976063D01*
X63917364Y-134024441D01*
X63930906Y-134056866D01*
X63970204Y-134207184D01*
X64024724Y-134335479D01*
X64077577Y-134459852D01*
X64220595Y-134694196D01*
X64396209Y-134905218D01*
X64396211Y-134905220D01*
X64396213Y-134905222D01*
X64600666Y-135088414D01*
X64600672Y-135088419D01*
X64600677Y-135088423D01*
X64829641Y-135239904D01*
X65078221Y-135356433D01*
X65341119Y-135435527D01*
X65341122Y-135435527D01*
X65341124Y-135435528D01*
X65612727Y-135475500D01*
X65612731Y-135475500D01*
X65818549Y-135475500D01*
X65850967Y-135473127D01*
X66023805Y-135460477D01*
X66291775Y-135400784D01*
X66548198Y-135302711D01*
X66787609Y-135168347D01*
X67004904Y-135000557D01*
X67195454Y-134802916D01*
X67355196Y-134579637D01*
X67480727Y-134335479D01*
X67480727Y-134335478D01*
X67480729Y-134335475D01*
X67569368Y-134075651D01*
X67569370Y-134075646D01*
X67619236Y-133805674D01*
X67629262Y-133531320D01*
X67608393Y-133341652D01*
X67599237Y-133258433D01*
X67564184Y-133124354D01*
X67529796Y-132992818D01*
X67422423Y-132740148D01*
X67279405Y-132505804D01*
X67103791Y-132294782D01*
X67103787Y-132294779D01*
X67103786Y-132294777D01*
X66899333Y-132111585D01*
X66899320Y-132111575D01*
X66670359Y-131960096D01*
X66566399Y-131911362D01*
X66421779Y-131843567D01*
X66262223Y-131795564D01*
X66158875Y-131764471D01*
X65887272Y-131724500D01*
X65887269Y-131724500D01*
X65681453Y-131724500D01*
X65681451Y-131724500D01*
X65476191Y-131739523D01*
X65208231Y-131799214D01*
X65208219Y-131799218D01*
X64951801Y-131897289D01*
X64712397Y-132031649D01*
X64712393Y-132031651D01*
X64495094Y-132199444D01*
X64495093Y-132199445D01*
X64425207Y-132271932D01*
X64363527Y-132307089D01*
X64292630Y-132303318D01*
X64235027Y-132261816D01*
X64209006Y-132195760D01*
X64208500Y-132184478D01*
X64208500Y-131911367D01*
X64208499Y-131911350D01*
X64201990Y-131850803D01*
X64201988Y-131850795D01*
X64150889Y-131713797D01*
X64150887Y-131713792D01*
X64063261Y-131596738D01*
X63946207Y-131509112D01*
X63946202Y-131509110D01*
X63809204Y-131458011D01*
X63809196Y-131458009D01*
X63748649Y-131451500D01*
X63748638Y-131451500D01*
X63648594Y-131451500D01*
X63580473Y-131431498D01*
X63533980Y-131377842D01*
X63523876Y-131307568D01*
X63553370Y-131242988D01*
X63559499Y-131236405D01*
X68284405Y-126511498D01*
X68346717Y-126477472D01*
X68417532Y-126482537D01*
X68474368Y-126525084D01*
X68499179Y-126591604D01*
X68499500Y-126600593D01*
X68499500Y-153573500D01*
X68479498Y-153641621D01*
X68425842Y-153688114D01*
X68373500Y-153699500D01*
X64422558Y-153699500D01*
X64354437Y-153679498D01*
X64307944Y-153625842D01*
X64297840Y-153555568D01*
X64317075Y-153504585D01*
X64336144Y-153475397D01*
X64418860Y-153348791D01*
X64509296Y-153142616D01*
X64564564Y-152924368D01*
X64583156Y-152700000D01*
X64564564Y-152475632D01*
X64536817Y-152366062D01*
X64539484Y-152295116D01*
X64569864Y-152246038D01*
X64588657Y-152227245D01*
X64601092Y-152217284D01*
X64600905Y-152217057D01*
X64607009Y-152212005D01*
X64607018Y-152212000D01*
X64654999Y-152160904D01*
X64676134Y-152139770D01*
X64680429Y-152134232D01*
X64684271Y-152129731D01*
X64716586Y-152095321D01*
X64726345Y-152077567D01*
X64737197Y-152061046D01*
X64749613Y-152045041D01*
X64768347Y-152001748D01*
X64770961Y-151996412D01*
X64793694Y-151955061D01*
X64793695Y-151955060D01*
X64798733Y-151935435D01*
X64805138Y-151916730D01*
X64813181Y-151898145D01*
X64820561Y-151851547D01*
X64821762Y-151845740D01*
X64833500Y-151800030D01*
X64833500Y-151779775D01*
X64835051Y-151760063D01*
X64838220Y-151740057D01*
X64833778Y-151693069D01*
X64833500Y-151687170D01*
X64833500Y-143783848D01*
X64835249Y-143768012D01*
X64834955Y-143767985D01*
X64835701Y-143760092D01*
X64833500Y-143690059D01*
X64833500Y-143660151D01*
X64833500Y-143660144D01*
X64832620Y-143653185D01*
X64832155Y-143647280D01*
X64830673Y-143600110D01*
X64825022Y-143580663D01*
X64821012Y-143561300D01*
X64818474Y-143541203D01*
X64801100Y-143497323D01*
X64799184Y-143491725D01*
X64786018Y-143446406D01*
X64775700Y-143428961D01*
X64767005Y-143411209D01*
X64764577Y-143405077D01*
X64759552Y-143392383D01*
X64759550Y-143392379D01*
X64731818Y-143354210D01*
X64728562Y-143349253D01*
X64704542Y-143308637D01*
X64704540Y-143308635D01*
X64704540Y-143308634D01*
X64690218Y-143294312D01*
X64677377Y-143279279D01*
X64665471Y-143262892D01*
X64658029Y-143256735D01*
X64629108Y-143232810D01*
X64624736Y-143228831D01*
X64007244Y-142611339D01*
X63997279Y-142598901D01*
X63997052Y-142599090D01*
X63992001Y-142592984D01*
X63992000Y-142592982D01*
X63940921Y-142545016D01*
X63939787Y-142543882D01*
X63919777Y-142523871D01*
X63919772Y-142523866D01*
X63914225Y-142519563D01*
X63909717Y-142515712D01*
X63875325Y-142483417D01*
X63875319Y-142483413D01*
X63857563Y-142473651D01*
X63841047Y-142462802D01*
X63825041Y-142450386D01*
X63794289Y-142437078D01*
X63781740Y-142431648D01*
X63776408Y-142429036D01*
X63735061Y-142406305D01*
X63715436Y-142401266D01*
X63696736Y-142394864D01*
X63678145Y-142386819D01*
X63678143Y-142386818D01*
X63678142Y-142386818D01*
X63631542Y-142379437D01*
X63625729Y-142378233D01*
X63580030Y-142366500D01*
X63559776Y-142366500D01*
X63540066Y-142364949D01*
X63520057Y-142361780D01*
X63520056Y-142361780D01*
X63473083Y-142366220D01*
X63467150Y-142366500D01*
X63200924Y-142366500D01*
X63132803Y-142346498D01*
X63086310Y-142292842D01*
X63076206Y-142222568D01*
X63086729Y-142187250D01*
X63117120Y-142122076D01*
X63174115Y-141909371D01*
X63193307Y-141690000D01*
X63174115Y-141470629D01*
X63117120Y-141257924D01*
X63024056Y-141058347D01*
X62897749Y-140877962D01*
X62888467Y-140868680D01*
X63870738Y-140868680D01*
X63900762Y-141141566D01*
X63970204Y-141407184D01*
X64024724Y-141535479D01*
X64077577Y-141659852D01*
X64220595Y-141894196D01*
X64396209Y-142105218D01*
X64396211Y-142105220D01*
X64396213Y-142105222D01*
X64600666Y-142288414D01*
X64600672Y-142288419D01*
X64600677Y-142288423D01*
X64829641Y-142439904D01*
X65078221Y-142556433D01*
X65341119Y-142635527D01*
X65341122Y-142635527D01*
X65341124Y-142635528D01*
X65612727Y-142675500D01*
X65612731Y-142675500D01*
X65818549Y-142675500D01*
X65850967Y-142673127D01*
X66023805Y-142660477D01*
X66291775Y-142600784D01*
X66548198Y-142502711D01*
X66787609Y-142368347D01*
X67004904Y-142200557D01*
X67195454Y-142002916D01*
X67355196Y-141779637D01*
X67480727Y-141535479D01*
X67480727Y-141535478D01*
X67480729Y-141535475D01*
X67569368Y-141275651D01*
X67569370Y-141275646D01*
X67619236Y-141005674D01*
X67629262Y-140731320D01*
X67612254Y-140576739D01*
X67599237Y-140458433D01*
X67564184Y-140324354D01*
X67529796Y-140192818D01*
X67422423Y-139940148D01*
X67279405Y-139705804D01*
X67103791Y-139494782D01*
X67103787Y-139494779D01*
X67103786Y-139494777D01*
X66899333Y-139311585D01*
X66899320Y-139311575D01*
X66670359Y-139160096D01*
X66670358Y-139160095D01*
X66421779Y-139043567D01*
X66262223Y-138995564D01*
X66158875Y-138964471D01*
X65887272Y-138924500D01*
X65887269Y-138924500D01*
X65681453Y-138924500D01*
X65681451Y-138924500D01*
X65476191Y-138939523D01*
X65208231Y-138999214D01*
X65208219Y-138999218D01*
X64951801Y-139097289D01*
X64712397Y-139231649D01*
X64712393Y-139231651D01*
X64495094Y-139399444D01*
X64495093Y-139399445D01*
X64304548Y-139597081D01*
X64144807Y-139820358D01*
X64144803Y-139820364D01*
X64019270Y-140064524D01*
X63930631Y-140324348D01*
X63930628Y-140324361D01*
X63880764Y-140594317D01*
X63880763Y-140594328D01*
X63870738Y-140868680D01*
X62888467Y-140868680D01*
X62742038Y-140722251D01*
X62701400Y-140693796D01*
X62587229Y-140613852D01*
X62542901Y-140558395D01*
X62533500Y-140510639D01*
X62533500Y-138498567D01*
X62553502Y-138430446D01*
X62599530Y-138387754D01*
X62685576Y-138341189D01*
X62863240Y-138202906D01*
X62924245Y-138136637D01*
X62985096Y-138100067D01*
X63056061Y-138102200D01*
X63114606Y-138142362D01*
X63135000Y-138177941D01*
X63179111Y-138296204D01*
X63179112Y-138296207D01*
X63266738Y-138413261D01*
X63383792Y-138500887D01*
X63383794Y-138500888D01*
X63383796Y-138500889D01*
X63437600Y-138520957D01*
X63520795Y-138551988D01*
X63520803Y-138551990D01*
X63581350Y-138558499D01*
X63581355Y-138558499D01*
X63581362Y-138558500D01*
X63581368Y-138558500D01*
X65378632Y-138558500D01*
X65378638Y-138558500D01*
X65378645Y-138558499D01*
X65378649Y-138558499D01*
X65439196Y-138551990D01*
X65439199Y-138551989D01*
X65439201Y-138551989D01*
X65576204Y-138500889D01*
X65637139Y-138455274D01*
X65693261Y-138413261D01*
X65780887Y-138296207D01*
X65780887Y-138296206D01*
X65780889Y-138296204D01*
X65831989Y-138159201D01*
X65833800Y-138142362D01*
X65838499Y-138098649D01*
X65838500Y-138098632D01*
X65838500Y-136301367D01*
X65838499Y-136301350D01*
X65831990Y-136240803D01*
X65831988Y-136240795D01*
X65780889Y-136103797D01*
X65780887Y-136103792D01*
X65693261Y-135986738D01*
X65576207Y-135899112D01*
X65576202Y-135899110D01*
X65439204Y-135848011D01*
X65439196Y-135848009D01*
X65378649Y-135841500D01*
X65378638Y-135841500D01*
X63581362Y-135841500D01*
X63581350Y-135841500D01*
X63520803Y-135848009D01*
X63520795Y-135848011D01*
X63383797Y-135899110D01*
X63383792Y-135899112D01*
X63266738Y-135986738D01*
X63179112Y-136103792D01*
X63179111Y-136103795D01*
X63135000Y-136222058D01*
X63092453Y-136278893D01*
X63025932Y-136303703D01*
X62956558Y-136288611D01*
X62924246Y-136263363D01*
X62863240Y-136197094D01*
X62863239Y-136197093D01*
X62863237Y-136197091D01*
X62743372Y-136103796D01*
X62685576Y-136058811D01*
X62487574Y-135951658D01*
X62487572Y-135951657D01*
X62487571Y-135951656D01*
X62274639Y-135878557D01*
X62274630Y-135878555D01*
X62197029Y-135865606D01*
X62052569Y-135841500D01*
X61827431Y-135841500D01*
X61682971Y-135865606D01*
X61605369Y-135878555D01*
X61605360Y-135878557D01*
X61392428Y-135951656D01*
X61392426Y-135951658D01*
X61194426Y-136058810D01*
X61194424Y-136058811D01*
X61016762Y-136197091D01*
X60864279Y-136362729D01*
X60775183Y-136499101D01*
X60721179Y-136545189D01*
X60650831Y-136554764D01*
X60586474Y-136524786D01*
X60564217Y-136499100D01*
X60475327Y-136363044D01*
X60322902Y-136197465D01*
X60145301Y-136059232D01*
X60145300Y-136059231D01*
X59947371Y-135952117D01*
X59947369Y-135952116D01*
X59734512Y-135879043D01*
X59734501Y-135879040D01*
X59653999Y-135865606D01*
X59654000Y-136585966D01*
X59633998Y-136654087D01*
X59580342Y-136700580D01*
X59510069Y-136710683D01*
X59510068Y-136710683D01*
X59435768Y-136700000D01*
X59435763Y-136700000D01*
X59364237Y-136700000D01*
X59364231Y-136700000D01*
X59289932Y-136710683D01*
X59219658Y-136700580D01*
X59166002Y-136654087D01*
X59146000Y-136585966D01*
X59146000Y-135865607D01*
X59145999Y-135865606D01*
X59065498Y-135879040D01*
X59065487Y-135879043D01*
X58852630Y-135952116D01*
X58852628Y-135952117D01*
X58654699Y-136059231D01*
X58654698Y-136059232D01*
X58477097Y-136197465D01*
X58324670Y-136363045D01*
X58235780Y-136499101D01*
X58181776Y-136545189D01*
X58111428Y-136554764D01*
X58047071Y-136524786D01*
X58024816Y-136499101D01*
X57985884Y-136439511D01*
X57935724Y-136362734D01*
X57935720Y-136362729D01*
X57806221Y-136222058D01*
X57783240Y-136197094D01*
X57783239Y-136197093D01*
X57783237Y-136197091D01*
X57663372Y-136103796D01*
X57605576Y-136058811D01*
X57407574Y-135951658D01*
X57407572Y-135951657D01*
X57407571Y-135951656D01*
X57194639Y-135878557D01*
X57194630Y-135878555D01*
X57117029Y-135865606D01*
X56972569Y-135841500D01*
X56747431Y-135841500D01*
X56602971Y-135865606D01*
X56525369Y-135878555D01*
X56525360Y-135878557D01*
X56312428Y-135951656D01*
X56312426Y-135951658D01*
X56114426Y-136058810D01*
X56114424Y-136058811D01*
X55936762Y-136197091D01*
X55784279Y-136362729D01*
X55695483Y-136498643D01*
X55641479Y-136544731D01*
X55571131Y-136554306D01*
X55506774Y-136524329D01*
X55484517Y-136498643D01*
X55395720Y-136362729D01*
X55266221Y-136222058D01*
X55243240Y-136197094D01*
X55243239Y-136197093D01*
X55243237Y-136197091D01*
X55123372Y-136103796D01*
X55065576Y-136058811D01*
X54867574Y-135951658D01*
X54867572Y-135951657D01*
X54867571Y-135951656D01*
X54654639Y-135878557D01*
X54654630Y-135878555D01*
X54577029Y-135865606D01*
X54432569Y-135841500D01*
X54207431Y-135841500D01*
X54062971Y-135865606D01*
X53985369Y-135878555D01*
X53985360Y-135878557D01*
X53772428Y-135951656D01*
X53772426Y-135951658D01*
X53574426Y-136058810D01*
X53574424Y-136058811D01*
X53396762Y-136197091D01*
X53244279Y-136362729D01*
X53244275Y-136362734D01*
X53121141Y-136551206D01*
X53030703Y-136757386D01*
X53030702Y-136757387D01*
X52975437Y-136975624D01*
X52975436Y-136975630D01*
X52975436Y-136975632D01*
X52956844Y-137200000D01*
X52974232Y-137409844D01*
X52975437Y-137424375D01*
X53030702Y-137642612D01*
X53030703Y-137642613D01*
X53030704Y-137642616D01*
X53105893Y-137814031D01*
X53121141Y-137848793D01*
X53244275Y-138037265D01*
X53244279Y-138037270D01*
X53396762Y-138202908D01*
X53451331Y-138245381D01*
X53574424Y-138341189D01*
X53772426Y-138448342D01*
X53772427Y-138448342D01*
X53772428Y-138448343D01*
X53884227Y-138486723D01*
X53985365Y-138521444D01*
X54207431Y-138558500D01*
X54207435Y-138558500D01*
X54432565Y-138558500D01*
X54432569Y-138558500D01*
X54654635Y-138521444D01*
X54867574Y-138448342D01*
X55065576Y-138341189D01*
X55243240Y-138202906D01*
X55395722Y-138037268D01*
X55395927Y-138036955D01*
X55401115Y-138029012D01*
X55484518Y-137901354D01*
X55538520Y-137855268D01*
X55608868Y-137845692D01*
X55673225Y-137875669D01*
X55695480Y-137901353D01*
X55728607Y-137952058D01*
X55784275Y-138037265D01*
X55784279Y-138037270D01*
X55936762Y-138202908D01*
X55991331Y-138245381D01*
X56114424Y-138341189D01*
X56312426Y-138448342D01*
X56312427Y-138448342D01*
X56312428Y-138448343D01*
X56424227Y-138486723D01*
X56525365Y-138521444D01*
X56747431Y-138558500D01*
X56747435Y-138558500D01*
X56972565Y-138558500D01*
X56972569Y-138558500D01*
X57194635Y-138521444D01*
X57407574Y-138448342D01*
X57605576Y-138341189D01*
X57783240Y-138202906D01*
X57935722Y-138037268D01*
X57935927Y-138036955D01*
X57951122Y-138013695D01*
X58024816Y-137900898D01*
X58078819Y-137854810D01*
X58149167Y-137845235D01*
X58213524Y-137875212D01*
X58235782Y-137900898D01*
X58324674Y-138036958D01*
X58477097Y-138202534D01*
X58654698Y-138340767D01*
X58654699Y-138340768D01*
X58852628Y-138447882D01*
X58852630Y-138447883D01*
X59065483Y-138520955D01*
X59065492Y-138520957D01*
X59146000Y-138534391D01*
X59146000Y-137814033D01*
X59166002Y-137745912D01*
X59219658Y-137699419D01*
X59289926Y-137689315D01*
X59364237Y-137700000D01*
X59435763Y-137700000D01*
X59510069Y-137689316D01*
X59580341Y-137699419D01*
X59633997Y-137745911D01*
X59654000Y-137814031D01*
X59654000Y-138534390D01*
X59734507Y-138520957D01*
X59734516Y-138520955D01*
X59947369Y-138447883D01*
X59947371Y-138447882D01*
X60145300Y-138340768D01*
X60145301Y-138340767D01*
X60322902Y-138202534D01*
X60475327Y-138036955D01*
X60564217Y-137900899D01*
X60618220Y-137854810D01*
X60688568Y-137845235D01*
X60752925Y-137875212D01*
X60775183Y-137900898D01*
X60864279Y-138037270D01*
X61016762Y-138202908D01*
X61081232Y-138253087D01*
X61194424Y-138341189D01*
X61194426Y-138341190D01*
X61194427Y-138341191D01*
X61200465Y-138344458D01*
X61250857Y-138394469D01*
X61266500Y-138455274D01*
X61266500Y-140552651D01*
X61246498Y-140620772D01*
X61212771Y-140655864D01*
X61117961Y-140722251D01*
X61117957Y-140722254D01*
X61009095Y-140831117D01*
X60946783Y-140865143D01*
X60875968Y-140860078D01*
X60830905Y-140831117D01*
X60722042Y-140722254D01*
X60722038Y-140722251D01*
X60627228Y-140655864D01*
X60541654Y-140595944D01*
X60541650Y-140595942D01*
X60342079Y-140502881D01*
X60342073Y-140502879D01*
X60252178Y-140478791D01*
X60129371Y-140445885D01*
X59910000Y-140426693D01*
X59690629Y-140445885D01*
X59477926Y-140502879D01*
X59477920Y-140502881D01*
X59278346Y-140595944D01*
X59097965Y-140722248D01*
X58984095Y-140836118D01*
X58921783Y-140870143D01*
X58850967Y-140865077D01*
X58805905Y-140836117D01*
X58692042Y-140722254D01*
X58692038Y-140722251D01*
X58597228Y-140655864D01*
X58511654Y-140595944D01*
X58511650Y-140595942D01*
X58312079Y-140502881D01*
X58312073Y-140502879D01*
X58222178Y-140478791D01*
X58099371Y-140445885D01*
X57880000Y-140426693D01*
X57660629Y-140445885D01*
X57447926Y-140502879D01*
X57447920Y-140502881D01*
X57248347Y-140595943D01*
X57170723Y-140650296D01*
X57103449Y-140672983D01*
X57034588Y-140655697D01*
X56997586Y-140622591D01*
X56963261Y-140576739D01*
X56963260Y-140576738D01*
X56846207Y-140489112D01*
X56846202Y-140489110D01*
X56709204Y-140438011D01*
X56709196Y-140438009D01*
X56648649Y-140431500D01*
X56648638Y-140431500D01*
X55051362Y-140431500D01*
X55051357Y-140431500D01*
X55051347Y-140431501D01*
X55004463Y-140436541D01*
X54934595Y-140423935D01*
X54882633Y-140375555D01*
X54869093Y-140343132D01*
X54864184Y-140324354D01*
X54829796Y-140192818D01*
X54722423Y-139940148D01*
X54579405Y-139705804D01*
X54403791Y-139494782D01*
X54403787Y-139494779D01*
X54403786Y-139494777D01*
X54199333Y-139311585D01*
X54199320Y-139311575D01*
X53970359Y-139160096D01*
X53970358Y-139160095D01*
X53721779Y-139043567D01*
X53562223Y-138995564D01*
X53458875Y-138964471D01*
X53187272Y-138924500D01*
X53187269Y-138924500D01*
X52981453Y-138924500D01*
X52981451Y-138924500D01*
X52776191Y-138939523D01*
X52508231Y-138999214D01*
X52508219Y-138999218D01*
X52251801Y-139097289D01*
X52012397Y-139231649D01*
X52012393Y-139231651D01*
X51795094Y-139399444D01*
X51795093Y-139399445D01*
X51604548Y-139597081D01*
X51444807Y-139820358D01*
X51444803Y-139820364D01*
X51319270Y-140064524D01*
X51230631Y-140324348D01*
X51230628Y-140324361D01*
X51180764Y-140594317D01*
X51180763Y-140594328D01*
X51170738Y-140868680D01*
X51200762Y-141141566D01*
X51270204Y-141407184D01*
X51324724Y-141535479D01*
X51377577Y-141659852D01*
X51520595Y-141894196D01*
X51696209Y-142105218D01*
X51696211Y-142105220D01*
X51696213Y-142105222D01*
X51900666Y-142288414D01*
X51900672Y-142288419D01*
X51900677Y-142288423D01*
X52129641Y-142439904D01*
X52378221Y-142556433D01*
X52641119Y-142635527D01*
X52641122Y-142635527D01*
X52641124Y-142635528D01*
X52912727Y-142675500D01*
X52912731Y-142675500D01*
X53118549Y-142675500D01*
X53150967Y-142673127D01*
X53323805Y-142660477D01*
X53591775Y-142600784D01*
X53848198Y-142502711D01*
X54087609Y-142368347D01*
X54304904Y-142200557D01*
X54374792Y-142128067D01*
X54436472Y-142092910D01*
X54507369Y-142096681D01*
X54564972Y-142138182D01*
X54590994Y-142204238D01*
X54591500Y-142215521D01*
X54591500Y-142488649D01*
X54598009Y-142549196D01*
X54598011Y-142549204D01*
X54649110Y-142686202D01*
X54649112Y-142686207D01*
X54736738Y-142803261D01*
X54853792Y-142890887D01*
X54853794Y-142890888D01*
X54853796Y-142890889D01*
X54912875Y-142912924D01*
X54990795Y-142941988D01*
X54990803Y-142941990D01*
X55051350Y-142948499D01*
X55051355Y-142948499D01*
X55051362Y-142948500D01*
X55051368Y-142948500D01*
X56106423Y-142948500D01*
X56174544Y-142968502D01*
X56221037Y-143022158D01*
X56231141Y-143092432D01*
X56201647Y-143157012D01*
X56178694Y-143177713D01*
X56057965Y-143262248D01*
X56057959Y-143262253D01*
X55902253Y-143417959D01*
X55902248Y-143417965D01*
X55775944Y-143598346D01*
X55682881Y-143797920D01*
X55682880Y-143797924D01*
X55625885Y-144010629D01*
X55606693Y-144230000D01*
X55625885Y-144449371D01*
X55682880Y-144662076D01*
X55775944Y-144861654D01*
X55902250Y-145042037D01*
X55902251Y-145042038D01*
X55902254Y-145042042D01*
X55932473Y-145072261D01*
X55966499Y-145134573D01*
X55961434Y-145205388D01*
X55918887Y-145262224D01*
X55852367Y-145287035D01*
X55817181Y-145284603D01*
X55681273Y-145255715D01*
X55681272Y-145255715D01*
X55490298Y-145255715D01*
X55303496Y-145295421D01*
X55129032Y-145373097D01*
X54974529Y-145485350D01*
X54846750Y-145627263D01*
X54846743Y-145627273D01*
X54751261Y-145792653D01*
X54751258Y-145792660D01*
X54692242Y-145974287D01*
X54672281Y-146164215D01*
X54692242Y-146354142D01*
X54722311Y-146446685D01*
X54751258Y-146535771D01*
X54751261Y-146535776D01*
X54846743Y-146701156D01*
X54846747Y-146701161D01*
X54934136Y-146798216D01*
X54964853Y-146862224D01*
X54966500Y-146882527D01*
X54966500Y-151215500D01*
X54946498Y-151283621D01*
X54892842Y-151330114D01*
X54840500Y-151341500D01*
X54701350Y-151341500D01*
X54640803Y-151348009D01*
X54640795Y-151348011D01*
X54503797Y-151399110D01*
X54503792Y-151399112D01*
X54386738Y-151486738D01*
X54299112Y-151603792D01*
X54299110Y-151603797D01*
X54248011Y-151740795D01*
X54248009Y-151740803D01*
X54241500Y-151801350D01*
X54241500Y-153573500D01*
X54221498Y-153641621D01*
X54167842Y-153688114D01*
X54115500Y-153699500D01*
X50426500Y-153699500D01*
X50358379Y-153679498D01*
X50311886Y-153625842D01*
X50300500Y-153573500D01*
X50300500Y-110500003D01*
X52736654Y-110500003D01*
X52756016Y-110795421D01*
X52756018Y-110795435D01*
X52813776Y-111085795D01*
X52813778Y-111085805D01*
X52908938Y-111366137D01*
X52908944Y-111366151D01*
X53039883Y-111631670D01*
X53204359Y-111877827D01*
X53204361Y-111877830D01*
X53204367Y-111877838D01*
X53399573Y-112100427D01*
X53622162Y-112295633D01*
X53868327Y-112460115D01*
X54133855Y-112591059D01*
X54414203Y-112686224D01*
X54704574Y-112743983D01*
X54873388Y-112755047D01*
X54999997Y-112763346D01*
X55000000Y-112763346D01*
X55000003Y-112763346D01*
X55110784Y-112756084D01*
X55295426Y-112743983D01*
X55585797Y-112686224D01*
X55866145Y-112591059D01*
X56131673Y-112460115D01*
X56377838Y-112295633D01*
X56600427Y-112100427D01*
X56795633Y-111877838D01*
X56960115Y-111631673D01*
X57091059Y-111366145D01*
X57186224Y-111085797D01*
X57243983Y-110795426D01*
X57263346Y-110500000D01*
X57243983Y-110204574D01*
X57186224Y-109914203D01*
X57091059Y-109633855D01*
X56960115Y-109368327D01*
X56795633Y-109122162D01*
X56600427Y-108899573D01*
X56377838Y-108704367D01*
X56377830Y-108704361D01*
X56377827Y-108704359D01*
X56131670Y-108539883D01*
X55866151Y-108408944D01*
X55866145Y-108408941D01*
X55866140Y-108408939D01*
X55866137Y-108408938D01*
X55585805Y-108313778D01*
X55585799Y-108313776D01*
X55585797Y-108313776D01*
X55488566Y-108294435D01*
X55295435Y-108256018D01*
X55295421Y-108256016D01*
X55000003Y-108236654D01*
X54999997Y-108236654D01*
X54704578Y-108256016D01*
X54704564Y-108256018D01*
X54462818Y-108304105D01*
X54414203Y-108313776D01*
X54414201Y-108313776D01*
X54414194Y-108313778D01*
X54133862Y-108408938D01*
X54133848Y-108408944D01*
X53868329Y-108539883D01*
X53622172Y-108704359D01*
X53622165Y-108704364D01*
X53622162Y-108704367D01*
X53399573Y-108899573D01*
X53204367Y-109122162D01*
X53204364Y-109122165D01*
X53204359Y-109122172D01*
X53039883Y-109368329D01*
X52908944Y-109633848D01*
X52908938Y-109633862D01*
X52813778Y-109914194D01*
X52813776Y-109914204D01*
X52756018Y-110204564D01*
X52756016Y-110204578D01*
X52736654Y-110499996D01*
X52736654Y-110500003D01*
X50300500Y-110500003D01*
X50300500Y-95130594D01*
X50320502Y-95062473D01*
X50374158Y-95015980D01*
X50444432Y-95005876D01*
X50509012Y-95035370D01*
X50515595Y-95041499D01*
X51108976Y-95634880D01*
X51143002Y-95697192D01*
X51142026Y-95754905D01*
X51105949Y-95897370D01*
X51086673Y-96130000D01*
X51105950Y-96362633D01*
X51163249Y-96588903D01*
X51163252Y-96588910D01*
X51257015Y-96802668D01*
X51375248Y-96983638D01*
X51384686Y-96998083D01*
X51470209Y-97090985D01*
X51501629Y-97154648D01*
X51493642Y-97225194D01*
X51448784Y-97280223D01*
X51421541Y-97294376D01*
X51354037Y-97319554D01*
X51354034Y-97319555D01*
X51237095Y-97407095D01*
X51149555Y-97524034D01*
X51149555Y-97524035D01*
X51098505Y-97660906D01*
X51092000Y-97721402D01*
X51092000Y-98416000D01*
X51938402Y-98416000D01*
X52006523Y-98436002D01*
X52053016Y-98489658D01*
X52063120Y-98559932D01*
X52061243Y-98570036D01*
X52046190Y-98635987D01*
X52046190Y-98635990D01*
X52046190Y-98635992D01*
X52056029Y-98767292D01*
X52057033Y-98780681D01*
X52055364Y-98780806D01*
X52051689Y-98840823D01*
X52009725Y-98898091D01*
X51943462Y-98923581D01*
X51933189Y-98924000D01*
X51092000Y-98924000D01*
X51092000Y-99618597D01*
X51098505Y-99679093D01*
X51149555Y-99815964D01*
X51149555Y-99815965D01*
X51237095Y-99932904D01*
X51354034Y-100020444D01*
X51490906Y-100071494D01*
X51551402Y-100077999D01*
X51551415Y-100078000D01*
X52246000Y-100078000D01*
X52246000Y-99233296D01*
X52266002Y-99165175D01*
X52319658Y-99118682D01*
X52389932Y-99108578D01*
X52409130Y-99112892D01*
X52432173Y-99120000D01*
X52432174Y-99120000D01*
X52533724Y-99120000D01*
X52609222Y-99108620D01*
X52679560Y-99118244D01*
X52733531Y-99164371D01*
X52753997Y-99232354D01*
X52754000Y-99233212D01*
X52754000Y-100078000D01*
X53448585Y-100078000D01*
X53448597Y-100077999D01*
X53509093Y-100071494D01*
X53645964Y-100020444D01*
X53645965Y-100020444D01*
X53762904Y-99932904D01*
X53850444Y-99815965D01*
X53850444Y-99815964D01*
X53901494Y-99679093D01*
X53907999Y-99618597D01*
X53908000Y-99618585D01*
X53908000Y-98924000D01*
X53061598Y-98924000D01*
X52993477Y-98903998D01*
X52946984Y-98850342D01*
X52936880Y-98780068D01*
X52938757Y-98769964D01*
X52953809Y-98704011D01*
X52953810Y-98704008D01*
X52943673Y-98568735D01*
X52943672Y-98568733D01*
X52942967Y-98559319D01*
X52944635Y-98559193D01*
X52948311Y-98499177D01*
X52990275Y-98441909D01*
X53056538Y-98416419D01*
X53066811Y-98416000D01*
X53908000Y-98416000D01*
X53908000Y-97721414D01*
X53907999Y-97721402D01*
X53901494Y-97660906D01*
X53850444Y-97524035D01*
X53850444Y-97524034D01*
X53762904Y-97407095D01*
X53645965Y-97319555D01*
X53645960Y-97319553D01*
X53578459Y-97294376D01*
X53521623Y-97251829D01*
X53496813Y-97185309D01*
X53511905Y-97115935D01*
X53529784Y-97090991D01*
X53615314Y-96998083D01*
X53742984Y-96802669D01*
X53836749Y-96588907D01*
X53894051Y-96362626D01*
X53913327Y-96130000D01*
X53894051Y-95897374D01*
X53836749Y-95671093D01*
X53742984Y-95457331D01*
X53742983Y-95457330D01*
X53615314Y-95261916D01*
X53457225Y-95090186D01*
X53457221Y-95090182D01*
X53361886Y-95015980D01*
X53273017Y-94946810D01*
X53067727Y-94835713D01*
X53067724Y-94835712D01*
X53067723Y-94835711D01*
X52846955Y-94759921D01*
X52846948Y-94759919D01*
X52748411Y-94743476D01*
X52616712Y-94721500D01*
X52383288Y-94721500D01*
X52289281Y-94737187D01*
X52153051Y-94759919D01*
X52153038Y-94759923D01*
X52132725Y-94766896D01*
X52061800Y-94770094D01*
X52002721Y-94736817D01*
X51570404Y-94304499D01*
X51536379Y-94242187D01*
X51533500Y-94215404D01*
X51533500Y-94163988D01*
X51553502Y-94095867D01*
X51607158Y-94049374D01*
X51677432Y-94039270D01*
X51700406Y-94044813D01*
X51865365Y-94101444D01*
X52087431Y-94138500D01*
X52087435Y-94138500D01*
X52312565Y-94138500D01*
X52312569Y-94138500D01*
X52534635Y-94101444D01*
X52747574Y-94028342D01*
X52945576Y-93921189D01*
X53015055Y-93867109D01*
X53081097Y-93841053D01*
X53150743Y-93854838D01*
G37*
%TD.AperFunction*%
%TA.AperFunction,Conductor*%
G36*
X65164953Y-79835115D02*
G01*
X65221789Y-79877662D01*
X65246600Y-79944182D01*
X65246491Y-79963575D01*
X65243500Y-79999675D01*
X65236844Y-80080000D01*
X65239880Y-80116636D01*
X65255436Y-80304371D01*
X65283182Y-80413937D01*
X65280514Y-80484883D01*
X65250132Y-80533963D01*
X64311336Y-81472758D01*
X64298901Y-81482721D01*
X64299089Y-81482948D01*
X64292980Y-81488001D01*
X64245015Y-81539079D01*
X64223866Y-81560227D01*
X64219560Y-81565777D01*
X64215714Y-81570279D01*
X64183417Y-81604674D01*
X64183411Y-81604683D01*
X64173651Y-81622435D01*
X64162803Y-81638950D01*
X64150386Y-81654958D01*
X64131645Y-81698264D01*
X64129034Y-81703594D01*
X64106305Y-81744939D01*
X64106303Y-81744944D01*
X64101267Y-81764559D01*
X64094864Y-81783262D01*
X64086819Y-81801852D01*
X64079437Y-81848456D01*
X64078233Y-81854268D01*
X64066500Y-81899968D01*
X64066500Y-81920223D01*
X64064949Y-81939933D01*
X64061780Y-81959942D01*
X64061779Y-81959946D01*
X64066219Y-82006919D01*
X64066499Y-82012850D01*
X64066499Y-86516153D01*
X64064751Y-86531993D01*
X64065043Y-86532021D01*
X64064297Y-86539906D01*
X64066500Y-86609957D01*
X64066500Y-86639851D01*
X64066501Y-86639872D01*
X64067378Y-86646820D01*
X64067844Y-86652732D01*
X64069326Y-86699888D01*
X64069327Y-86699893D01*
X64074977Y-86719339D01*
X64078986Y-86738697D01*
X64081525Y-86758793D01*
X64081526Y-86758799D01*
X64098893Y-86802662D01*
X64100816Y-86808279D01*
X64113982Y-86853593D01*
X64124294Y-86871031D01*
X64132988Y-86888779D01*
X64140444Y-86907609D01*
X64140450Y-86907620D01*
X64168177Y-86945783D01*
X64171437Y-86950746D01*
X64195460Y-86991365D01*
X64209779Y-87005684D01*
X64222617Y-87020714D01*
X64229070Y-87029595D01*
X64234528Y-87037107D01*
X64262794Y-87060491D01*
X64270886Y-87067185D01*
X64275267Y-87071171D01*
X65238622Y-88034526D01*
X66129595Y-88925499D01*
X66163621Y-88987811D01*
X66166500Y-89014594D01*
X66166500Y-90682108D01*
X66146498Y-90750229D01*
X66092842Y-90796722D01*
X66022568Y-90806826D01*
X65957988Y-90777332D01*
X65921187Y-90722610D01*
X65913920Y-90701202D01*
X65891059Y-90633855D01*
X65760115Y-90368327D01*
X65595633Y-90122162D01*
X65400427Y-89899573D01*
X65177838Y-89704367D01*
X65177830Y-89704361D01*
X65177827Y-89704359D01*
X64931670Y-89539883D01*
X64666151Y-89408944D01*
X64666145Y-89408941D01*
X64666140Y-89408939D01*
X64666137Y-89408938D01*
X64385805Y-89313778D01*
X64385799Y-89313776D01*
X64385797Y-89313776D01*
X64288566Y-89294435D01*
X64095435Y-89256018D01*
X64095421Y-89256016D01*
X63800003Y-89236654D01*
X63799997Y-89236654D01*
X63504578Y-89256016D01*
X63504564Y-89256018D01*
X63262818Y-89304105D01*
X63214203Y-89313776D01*
X63214201Y-89313776D01*
X63214194Y-89313778D01*
X62933862Y-89408938D01*
X62933848Y-89408944D01*
X62668329Y-89539883D01*
X62422172Y-89704359D01*
X62422165Y-89704364D01*
X62422162Y-89704367D01*
X62199573Y-89899573D01*
X62004367Y-90122162D01*
X62004364Y-90122165D01*
X62004359Y-90122172D01*
X61839883Y-90368329D01*
X61708944Y-90633848D01*
X61708938Y-90633862D01*
X61613778Y-90914194D01*
X61613776Y-90914201D01*
X61613776Y-90914203D01*
X61610645Y-90929942D01*
X61556018Y-91204564D01*
X61556016Y-91204578D01*
X61536654Y-91499996D01*
X61536654Y-91500003D01*
X61556016Y-91795421D01*
X61556018Y-91795435D01*
X61613776Y-92085795D01*
X61613778Y-92085805D01*
X61708938Y-92366137D01*
X61708944Y-92366151D01*
X61839883Y-92631670D01*
X62004359Y-92877827D01*
X62004361Y-92877830D01*
X62004367Y-92877838D01*
X62199573Y-93100427D01*
X62422162Y-93295633D01*
X62668327Y-93460115D01*
X62933855Y-93591059D01*
X63214203Y-93686224D01*
X63504574Y-93743983D01*
X63655377Y-93753867D01*
X63799997Y-93763346D01*
X63800000Y-93763346D01*
X63800003Y-93763346D01*
X63910784Y-93756084D01*
X64095426Y-93743983D01*
X64385797Y-93686224D01*
X64666145Y-93591059D01*
X64931673Y-93460115D01*
X65177838Y-93295633D01*
X65400427Y-93100427D01*
X65595633Y-92877838D01*
X65760115Y-92631673D01*
X65891059Y-92366145D01*
X65921187Y-92277389D01*
X65962024Y-92219314D01*
X66027777Y-92192535D01*
X66097569Y-92205556D01*
X66149242Y-92254243D01*
X66166500Y-92317891D01*
X66166500Y-109682108D01*
X66146498Y-109750229D01*
X66092842Y-109796722D01*
X66022568Y-109806826D01*
X65957988Y-109777332D01*
X65921187Y-109722610D01*
X65891059Y-109633855D01*
X65760115Y-109368327D01*
X65595633Y-109122162D01*
X65400427Y-108899573D01*
X65177838Y-108704367D01*
X65177830Y-108704361D01*
X65177827Y-108704359D01*
X64931670Y-108539883D01*
X64666151Y-108408944D01*
X64666145Y-108408941D01*
X64666140Y-108408939D01*
X64666137Y-108408938D01*
X64385805Y-108313778D01*
X64385799Y-108313776D01*
X64385797Y-108313776D01*
X64288566Y-108294435D01*
X64095435Y-108256018D01*
X64095421Y-108256016D01*
X63800003Y-108236654D01*
X63799997Y-108236654D01*
X63504578Y-108256016D01*
X63504564Y-108256018D01*
X63262818Y-108304105D01*
X63214203Y-108313776D01*
X63214201Y-108313776D01*
X63214194Y-108313778D01*
X62933862Y-108408938D01*
X62933848Y-108408944D01*
X62668329Y-108539883D01*
X62422172Y-108704359D01*
X62422165Y-108704364D01*
X62422162Y-108704367D01*
X62199573Y-108899573D01*
X62004367Y-109122162D01*
X62004364Y-109122165D01*
X62004359Y-109122172D01*
X61839883Y-109368329D01*
X61708944Y-109633848D01*
X61708938Y-109633862D01*
X61613778Y-109914194D01*
X61613776Y-109914204D01*
X61556018Y-110204564D01*
X61556016Y-110204578D01*
X61536654Y-110499996D01*
X61536654Y-110500003D01*
X61556016Y-110795421D01*
X61556018Y-110795435D01*
X61613776Y-111085795D01*
X61613778Y-111085805D01*
X61708938Y-111366137D01*
X61708944Y-111366151D01*
X61839883Y-111631670D01*
X62004359Y-111877827D01*
X62004361Y-111877830D01*
X62004367Y-111877838D01*
X62199573Y-112100427D01*
X62422162Y-112295633D01*
X62668327Y-112460115D01*
X62933855Y-112591059D01*
X63214203Y-112686224D01*
X63504574Y-112743983D01*
X63673388Y-112755047D01*
X63799997Y-112763346D01*
X63800000Y-112763346D01*
X63800003Y-112763346D01*
X63910784Y-112756084D01*
X64095426Y-112743983D01*
X64385797Y-112686224D01*
X64666145Y-112591059D01*
X64931673Y-112460115D01*
X65177838Y-112295633D01*
X65400427Y-112100427D01*
X65595633Y-111877838D01*
X65760115Y-111631673D01*
X65891059Y-111366145D01*
X65921187Y-111277389D01*
X65962024Y-111219314D01*
X66027777Y-111192535D01*
X66097569Y-111205556D01*
X66149242Y-111254243D01*
X66166500Y-111317891D01*
X66166499Y-121005404D01*
X66146497Y-121073525D01*
X66129594Y-121094499D01*
X58305515Y-128918578D01*
X58243203Y-128952604D01*
X58183809Y-128951190D01*
X58089371Y-128925885D01*
X57870000Y-128906693D01*
X57869999Y-128906693D01*
X57650629Y-128925885D01*
X57437926Y-128982879D01*
X57437920Y-128982881D01*
X57238346Y-129075944D01*
X57057965Y-129202248D01*
X56944095Y-129316118D01*
X56881783Y-129350143D01*
X56810967Y-129345077D01*
X56765905Y-129316117D01*
X56652042Y-129202254D01*
X56652038Y-129202251D01*
X56620179Y-129179943D01*
X56471654Y-129075944D01*
X56355659Y-129021855D01*
X56272079Y-128982881D01*
X56272073Y-128982879D01*
X56109107Y-128939212D01*
X56059371Y-128925885D01*
X55878563Y-128910066D01*
X55812446Y-128884203D01*
X55770807Y-128826700D01*
X55766866Y-128755813D01*
X55800449Y-128695453D01*
X61013657Y-123482245D01*
X61026092Y-123472284D01*
X61025905Y-123472057D01*
X61032009Y-123467005D01*
X61032018Y-123467000D01*
X61079999Y-123415904D01*
X61101134Y-123394770D01*
X61105429Y-123389232D01*
X61109271Y-123384731D01*
X61141586Y-123350321D01*
X61151345Y-123332567D01*
X61162197Y-123316046D01*
X61174613Y-123300041D01*
X61193347Y-123256748D01*
X61195961Y-123251412D01*
X61218694Y-123210061D01*
X61218695Y-123210060D01*
X61223733Y-123190435D01*
X61230138Y-123171730D01*
X61238181Y-123153145D01*
X61245563Y-123106525D01*
X61246761Y-123100744D01*
X61258500Y-123055030D01*
X61258500Y-123034769D01*
X61260051Y-123015058D01*
X61263219Y-122995056D01*
X61258780Y-122948089D01*
X61258500Y-122942157D01*
X61258500Y-118944906D01*
X61278502Y-118876785D01*
X61332158Y-118830292D01*
X61402432Y-118820188D01*
X61425413Y-118825733D01*
X61553171Y-118869593D01*
X61553176Y-118869594D01*
X61783334Y-118908000D01*
X62016666Y-118908000D01*
X62246823Y-118869594D01*
X62246832Y-118869592D01*
X62467522Y-118793829D01*
X62467525Y-118793827D01*
X62672738Y-118682772D01*
X62701317Y-118660527D01*
X62157427Y-118116637D01*
X62123401Y-118054325D01*
X62128466Y-117983510D01*
X62167145Y-117931840D01*
X62166289Y-117930853D01*
X62170830Y-117926917D01*
X62171013Y-117926674D01*
X62171510Y-117926328D01*
X62173095Y-117924953D01*
X62173100Y-117924952D01*
X62281761Y-117830798D01*
X62317826Y-117774679D01*
X62371477Y-117728188D01*
X62441751Y-117718083D01*
X62506332Y-117747575D01*
X62512917Y-117753706D01*
X63059202Y-118299991D01*
X63142544Y-118172427D01*
X63236273Y-117958747D01*
X63236275Y-117958743D01*
X63293555Y-117732549D01*
X63312825Y-117500000D01*
X63293555Y-117267450D01*
X63236275Y-117041256D01*
X63236273Y-117041252D01*
X63142547Y-116827578D01*
X63142540Y-116827566D01*
X63059202Y-116700007D01*
X62512917Y-117246292D01*
X62450605Y-117280318D01*
X62379790Y-117275253D01*
X62322954Y-117232706D01*
X62317824Y-117225317D01*
X62281762Y-117169203D01*
X62281761Y-117169202D01*
X62173100Y-117075048D01*
X62173098Y-117075047D01*
X62166289Y-117069147D01*
X62168310Y-117066813D01*
X62131902Y-117024786D01*
X62121807Y-116954511D01*
X62151307Y-116889933D01*
X62157427Y-116883362D01*
X62701318Y-116339470D01*
X62672743Y-116317229D01*
X62672741Y-116317228D01*
X62467525Y-116206172D01*
X62467522Y-116206170D01*
X62246832Y-116130407D01*
X62246823Y-116130405D01*
X62016666Y-116092000D01*
X61783334Y-116092000D01*
X61553176Y-116130405D01*
X61553167Y-116130407D01*
X61425411Y-116174266D01*
X61354486Y-116177466D01*
X61293091Y-116141814D01*
X61260717Y-116078628D01*
X61258500Y-116055103D01*
X61258500Y-104314593D01*
X61278502Y-104246472D01*
X61295400Y-104225503D01*
X63688657Y-101832245D01*
X63701092Y-101822284D01*
X63700905Y-101822057D01*
X63707009Y-101817005D01*
X63707018Y-101817000D01*
X63754999Y-101765904D01*
X63776134Y-101744770D01*
X63780429Y-101739232D01*
X63784271Y-101734731D01*
X63816586Y-101700321D01*
X63826345Y-101682567D01*
X63837197Y-101666046D01*
X63849613Y-101650041D01*
X63868347Y-101606748D01*
X63870961Y-101601412D01*
X63893694Y-101560061D01*
X63893695Y-101560060D01*
X63898733Y-101540435D01*
X63905138Y-101521730D01*
X63913181Y-101503145D01*
X63920561Y-101456547D01*
X63921762Y-101450740D01*
X63933500Y-101405030D01*
X63933500Y-101384775D01*
X63935051Y-101365063D01*
X63938220Y-101345057D01*
X63935629Y-101317651D01*
X63933780Y-101298080D01*
X63933500Y-101292148D01*
X63933500Y-97458853D01*
X63935249Y-97443011D01*
X63934956Y-97442984D01*
X63935702Y-97435091D01*
X63933500Y-97365028D01*
X63933500Y-97335150D01*
X63933500Y-97335144D01*
X63932620Y-97328182D01*
X63932156Y-97322293D01*
X63930674Y-97275111D01*
X63925017Y-97255642D01*
X63921012Y-97236298D01*
X63918474Y-97216203D01*
X63901100Y-97172322D01*
X63899181Y-97166716D01*
X63896362Y-97157014D01*
X63886018Y-97121407D01*
X63875706Y-97103970D01*
X63867010Y-97086221D01*
X63859552Y-97067383D01*
X63831812Y-97029203D01*
X63828564Y-97024258D01*
X63804542Y-96983638D01*
X63790214Y-96969310D01*
X63777384Y-96954289D01*
X63765472Y-96937893D01*
X63765469Y-96937891D01*
X63765469Y-96937890D01*
X63729107Y-96907808D01*
X63724726Y-96903822D01*
X61170405Y-94349500D01*
X61136379Y-94287188D01*
X61133500Y-94260405D01*
X61133500Y-85397603D01*
X61153502Y-85329482D01*
X61207158Y-85282989D01*
X61277432Y-85272885D01*
X61319474Y-85286792D01*
X61332473Y-85293827D01*
X61332477Y-85293829D01*
X61553167Y-85369592D01*
X61553176Y-85369594D01*
X61783334Y-85408000D01*
X62016666Y-85408000D01*
X62246823Y-85369594D01*
X62246832Y-85369592D01*
X62467522Y-85293829D01*
X62467525Y-85293827D01*
X62672738Y-85182772D01*
X62701317Y-85160527D01*
X62157427Y-84616637D01*
X62123401Y-84554325D01*
X62128466Y-84483510D01*
X62167145Y-84431840D01*
X62166289Y-84430853D01*
X62170830Y-84426917D01*
X62171013Y-84426674D01*
X62171510Y-84426328D01*
X62173095Y-84424953D01*
X62173100Y-84424952D01*
X62281761Y-84330798D01*
X62317826Y-84274679D01*
X62371477Y-84228188D01*
X62441751Y-84218083D01*
X62506332Y-84247575D01*
X62512917Y-84253706D01*
X63059202Y-84799991D01*
X63142544Y-84672427D01*
X63236273Y-84458747D01*
X63236275Y-84458743D01*
X63293555Y-84232549D01*
X63312825Y-84000000D01*
X63293555Y-83767450D01*
X63236275Y-83541256D01*
X63236273Y-83541252D01*
X63142547Y-83327578D01*
X63142540Y-83327566D01*
X63059202Y-83200007D01*
X63059201Y-83200007D01*
X62512917Y-83746292D01*
X62450605Y-83780318D01*
X62379790Y-83775253D01*
X62322954Y-83732706D01*
X62317824Y-83725317D01*
X62281762Y-83669203D01*
X62248558Y-83640432D01*
X62173100Y-83575048D01*
X62173098Y-83575047D01*
X62166289Y-83569147D01*
X62168310Y-83566813D01*
X62131902Y-83524786D01*
X62121807Y-83454511D01*
X62151307Y-83389933D01*
X62157427Y-83383362D01*
X62701318Y-82839470D01*
X62672743Y-82817229D01*
X62672741Y-82817228D01*
X62467525Y-82706172D01*
X62467519Y-82706169D01*
X62451637Y-82700717D01*
X62393701Y-82659681D01*
X62367149Y-82593836D01*
X62380410Y-82524089D01*
X62403448Y-82492455D01*
X65031828Y-79864074D01*
X65094138Y-79830050D01*
X65164953Y-79835115D01*
G37*
%TD.AperFunction*%
%TA.AperFunction,Conductor*%
G36*
X61420208Y-98724745D02*
G01*
X61477044Y-98767292D01*
X61482174Y-98774680D01*
X61518239Y-98830798D01*
X61626900Y-98924952D01*
X61626901Y-98924952D01*
X61633711Y-98930853D01*
X61631686Y-98933189D01*
X61668084Y-98975187D01*
X61678195Y-99045460D01*
X61648709Y-99110043D01*
X61642572Y-99116636D01*
X61098680Y-99660528D01*
X61098681Y-99660529D01*
X61127249Y-99682765D01*
X61127258Y-99682771D01*
X61332474Y-99793827D01*
X61332477Y-99793829D01*
X61553167Y-99869592D01*
X61553176Y-99869594D01*
X61783334Y-99908000D01*
X62016666Y-99908000D01*
X62246823Y-99869594D01*
X62246832Y-99869592D01*
X62467522Y-99793829D01*
X62467523Y-99793828D01*
X62480528Y-99786791D01*
X62549958Y-99771960D01*
X62616385Y-99797019D01*
X62658719Y-99854013D01*
X62666499Y-99897604D01*
X62666499Y-101010405D01*
X62646497Y-101078526D01*
X62629594Y-101099500D01*
X60236336Y-103492757D01*
X60223901Y-103502721D01*
X60224089Y-103502948D01*
X60217980Y-103508001D01*
X60170016Y-103559078D01*
X60148866Y-103580227D01*
X60144560Y-103585777D01*
X60140714Y-103590279D01*
X60108417Y-103624674D01*
X60108411Y-103624683D01*
X60098651Y-103642435D01*
X60087803Y-103658950D01*
X60075386Y-103674958D01*
X60056645Y-103718264D01*
X60054034Y-103723594D01*
X60031305Y-103764939D01*
X60031303Y-103764944D01*
X60026267Y-103784559D01*
X60019864Y-103803262D01*
X60011819Y-103821852D01*
X60004437Y-103868456D01*
X60003233Y-103874268D01*
X59991499Y-103919969D01*
X59991499Y-103940231D01*
X59989948Y-103959933D01*
X59986780Y-103979938D01*
X59986780Y-103979944D01*
X59991220Y-104026917D01*
X59991500Y-104032850D01*
X59991500Y-116037400D01*
X59971498Y-116105521D01*
X59917842Y-116152014D01*
X59847568Y-116162118D01*
X59824588Y-116156573D01*
X59746955Y-116129921D01*
X59746948Y-116129919D01*
X59648411Y-116113476D01*
X59516712Y-116091500D01*
X59283288Y-116091500D01*
X59168066Y-116110727D01*
X59053051Y-116129919D01*
X59053038Y-116129923D01*
X59032725Y-116136896D01*
X58961800Y-116140094D01*
X58902721Y-116106817D01*
X58874532Y-116078628D01*
X58845404Y-116049499D01*
X58811379Y-115987186D01*
X58808500Y-115960404D01*
X58808500Y-99962600D01*
X58828502Y-99894479D01*
X58882158Y-99847986D01*
X58952432Y-99837882D01*
X58975411Y-99843426D01*
X59053049Y-99870080D01*
X59283288Y-99908500D01*
X59283292Y-99908500D01*
X59516708Y-99908500D01*
X59516712Y-99908500D01*
X59746951Y-99870080D01*
X59967727Y-99794287D01*
X60173017Y-99683190D01*
X60357220Y-99539818D01*
X60515314Y-99368083D01*
X60544814Y-99322928D01*
X60598816Y-99276841D01*
X60669164Y-99267265D01*
X60733521Y-99297241D01*
X60735421Y-99299434D01*
X60740795Y-99299991D01*
X61287080Y-98753706D01*
X61349393Y-98719681D01*
X61420208Y-98724745D01*
G37*
%TD.AperFunction*%
%TA.AperFunction,Conductor*%
G36*
X59784531Y-87515537D02*
G01*
X59841367Y-87558084D01*
X59866178Y-87624604D01*
X59866499Y-87633593D01*
X59866499Y-94491153D01*
X59864751Y-94506993D01*
X59865043Y-94507021D01*
X59864297Y-94514906D01*
X59866500Y-94584957D01*
X59866500Y-94614851D01*
X59866501Y-94614872D01*
X59867378Y-94621820D01*
X59867844Y-94627732D01*
X59869326Y-94674888D01*
X59869327Y-94674893D01*
X59874977Y-94694339D01*
X59878986Y-94713697D01*
X59881525Y-94733793D01*
X59881526Y-94733799D01*
X59898893Y-94777662D01*
X59900816Y-94783279D01*
X59913982Y-94828593D01*
X59924294Y-94846031D01*
X59932988Y-94863779D01*
X59940444Y-94882609D01*
X59940450Y-94882620D01*
X59968177Y-94920783D01*
X59971437Y-94925746D01*
X59995460Y-94966365D01*
X60009779Y-94980684D01*
X60022617Y-94995714D01*
X60025060Y-94999076D01*
X60034528Y-95012107D01*
X60039210Y-95015980D01*
X60070886Y-95042185D01*
X60075267Y-95046171D01*
X61159096Y-96130000D01*
X61906001Y-96876905D01*
X61940027Y-96939217D01*
X61934962Y-97010032D01*
X61892415Y-97066868D01*
X61825895Y-97091679D01*
X61816906Y-97092000D01*
X61783334Y-97092000D01*
X61553176Y-97130405D01*
X61553167Y-97130407D01*
X61332477Y-97206170D01*
X61332474Y-97206172D01*
X61127259Y-97317227D01*
X61098681Y-97339470D01*
X61098680Y-97339470D01*
X61642572Y-97883362D01*
X61676598Y-97945674D01*
X61671533Y-98016489D01*
X61632854Y-98068157D01*
X61633711Y-98069147D01*
X61629164Y-98073086D01*
X61628986Y-98073325D01*
X61628498Y-98073663D01*
X61518238Y-98169202D01*
X61482175Y-98225318D01*
X61428519Y-98271811D01*
X61358245Y-98281914D01*
X61293664Y-98252421D01*
X61287082Y-98246292D01*
X60740796Y-97700006D01*
X60727258Y-97701411D01*
X60701775Y-97723159D01*
X60631427Y-97732734D01*
X60567070Y-97702756D01*
X60544814Y-97677070D01*
X60515314Y-97631916D01*
X60357225Y-97460186D01*
X60357221Y-97460182D01*
X60202130Y-97339470D01*
X60173017Y-97316810D01*
X59967727Y-97205713D01*
X59967724Y-97205712D01*
X59967723Y-97205711D01*
X59746955Y-97129921D01*
X59746948Y-97129919D01*
X59648411Y-97113476D01*
X59516712Y-97091500D01*
X59283288Y-97091500D01*
X59283287Y-97091500D01*
X59280229Y-97092010D01*
X59278970Y-97091857D01*
X59278099Y-97091930D01*
X59278084Y-97091750D01*
X59209746Y-97083488D01*
X59155059Y-97038212D01*
X59133532Y-96970558D01*
X59133500Y-96967727D01*
X59133500Y-90943853D01*
X59135249Y-90928011D01*
X59134956Y-90927984D01*
X59135702Y-90920091D01*
X59133500Y-90850028D01*
X59133500Y-90820150D01*
X59133500Y-90820144D01*
X59132620Y-90813182D01*
X59132156Y-90807293D01*
X59130674Y-90760111D01*
X59125017Y-90740642D01*
X59121012Y-90721298D01*
X59118474Y-90701203D01*
X59101100Y-90657322D01*
X59099181Y-90651716D01*
X59086018Y-90606407D01*
X59075706Y-90588970D01*
X59067010Y-90571221D01*
X59059552Y-90552383D01*
X59031812Y-90514203D01*
X59028564Y-90509258D01*
X59004542Y-90468638D01*
X58990214Y-90454310D01*
X58977384Y-90439289D01*
X58965472Y-90422893D01*
X58965469Y-90422891D01*
X58965469Y-90422890D01*
X58929107Y-90392808D01*
X58924726Y-90388822D01*
X57247244Y-88711339D01*
X57237279Y-88698901D01*
X57237052Y-88699090D01*
X57232001Y-88692984D01*
X57232000Y-88692982D01*
X57180920Y-88645015D01*
X57159777Y-88623871D01*
X57159772Y-88623866D01*
X57154225Y-88619563D01*
X57149717Y-88615712D01*
X57115325Y-88583417D01*
X57115319Y-88583413D01*
X57097563Y-88573651D01*
X57081052Y-88562805D01*
X57076232Y-88559067D01*
X57034659Y-88501515D01*
X57030802Y-88430623D01*
X57065883Y-88368900D01*
X57128766Y-88335941D01*
X57153448Y-88333500D01*
X58516147Y-88333500D01*
X58531988Y-88335249D01*
X58532016Y-88334956D01*
X58539902Y-88335700D01*
X58539909Y-88335702D01*
X58609958Y-88333500D01*
X58639856Y-88333500D01*
X58646818Y-88332619D01*
X58652719Y-88332154D01*
X58699889Y-88330673D01*
X58719347Y-88325019D01*
X58738694Y-88321013D01*
X58758797Y-88318474D01*
X58802679Y-88301099D01*
X58808274Y-88299183D01*
X58836816Y-88290891D01*
X58853591Y-88286019D01*
X58853595Y-88286017D01*
X58871026Y-88275708D01*
X58888780Y-88267009D01*
X58907617Y-88259552D01*
X58945786Y-88231818D01*
X58950744Y-88228562D01*
X58991362Y-88204542D01*
X59005685Y-88190218D01*
X59020724Y-88177374D01*
X59037107Y-88165472D01*
X59067193Y-88129103D01*
X59071161Y-88124741D01*
X59651406Y-87544496D01*
X59713716Y-87510472D01*
X59784531Y-87515537D01*
G37*
%TD.AperFunction*%
%TA.AperFunction,Conductor*%
G36*
X59986523Y-46266002D02*
G01*
X60033016Y-46319658D01*
X60043120Y-46389932D01*
X60041243Y-46400036D01*
X60026190Y-46465987D01*
X60026190Y-46465990D01*
X60026190Y-46465992D01*
X60036238Y-46600080D01*
X60037033Y-46610681D01*
X60035364Y-46610806D01*
X60031689Y-46670823D01*
X59989725Y-46728091D01*
X59923462Y-46753581D01*
X59913189Y-46754000D01*
X58831598Y-46754000D01*
X58763477Y-46733998D01*
X58716984Y-46680342D01*
X58706880Y-46610068D01*
X58708757Y-46599964D01*
X58723809Y-46534011D01*
X58723810Y-46534008D01*
X58713673Y-46398735D01*
X58713672Y-46398733D01*
X58712967Y-46389319D01*
X58714635Y-46389193D01*
X58718311Y-46329177D01*
X58760275Y-46271909D01*
X58826538Y-46246419D01*
X58836811Y-46246000D01*
X59918402Y-46246000D01*
X59986523Y-46266002D01*
G37*
%TD.AperFunction*%
%TA.AperFunction,Conductor*%
G36*
X51060105Y-44320502D02*
G01*
X51106598Y-44374158D01*
X51116702Y-44444432D01*
X51097467Y-44495415D01*
X51057015Y-44557331D01*
X50963252Y-44771089D01*
X50963249Y-44771096D01*
X50905950Y-44997366D01*
X50905949Y-44997372D01*
X50905949Y-44997374D01*
X50886673Y-45230000D01*
X50905746Y-45460182D01*
X50905950Y-45462633D01*
X50963249Y-45688903D01*
X50963252Y-45688910D01*
X51057015Y-45902668D01*
X51179394Y-46089984D01*
X51184686Y-46098083D01*
X51270209Y-46190985D01*
X51301629Y-46254648D01*
X51293642Y-46325194D01*
X51248784Y-46380223D01*
X51221541Y-46394376D01*
X51154037Y-46419554D01*
X51154034Y-46419555D01*
X51037095Y-46507095D01*
X50949555Y-46624034D01*
X50949555Y-46624035D01*
X50898505Y-46760906D01*
X50892000Y-46821402D01*
X50892000Y-47516000D01*
X51738402Y-47516000D01*
X51806523Y-47536002D01*
X51853016Y-47589658D01*
X51863120Y-47659932D01*
X51861243Y-47670036D01*
X51846190Y-47735987D01*
X51846190Y-47735990D01*
X51846190Y-47735992D01*
X51856238Y-47870080D01*
X51857033Y-47880681D01*
X51855364Y-47880806D01*
X51851689Y-47940823D01*
X51809725Y-47998091D01*
X51743462Y-48023581D01*
X51733189Y-48024000D01*
X50892000Y-48024000D01*
X50892000Y-48718597D01*
X50898505Y-48779093D01*
X50949555Y-48915964D01*
X50949555Y-48915965D01*
X51037095Y-49032904D01*
X51154034Y-49120444D01*
X51290906Y-49171494D01*
X51351402Y-49177999D01*
X51351415Y-49178000D01*
X52046000Y-49178000D01*
X52046000Y-48333296D01*
X52066002Y-48265175D01*
X52119658Y-48218682D01*
X52189932Y-48208578D01*
X52209130Y-48212892D01*
X52232173Y-48220000D01*
X52232174Y-48220000D01*
X52333724Y-48220000D01*
X52409222Y-48208620D01*
X52479560Y-48218244D01*
X52533531Y-48264371D01*
X52553997Y-48332354D01*
X52554000Y-48333212D01*
X52554000Y-49178000D01*
X53248585Y-49178000D01*
X53248597Y-49177999D01*
X53309093Y-49171494D01*
X53445964Y-49120444D01*
X53445965Y-49120444D01*
X53562904Y-49032904D01*
X53650444Y-48915965D01*
X53650444Y-48915964D01*
X53701494Y-48779093D01*
X53707999Y-48718597D01*
X53708000Y-48718585D01*
X53708000Y-48024000D01*
X52861598Y-48024000D01*
X52793477Y-48003998D01*
X52746984Y-47950342D01*
X52736880Y-47880068D01*
X52738757Y-47869964D01*
X52753809Y-47804011D01*
X52753810Y-47804008D01*
X52743673Y-47668735D01*
X52743672Y-47668733D01*
X52742967Y-47659319D01*
X52744635Y-47659193D01*
X52748311Y-47599177D01*
X52790275Y-47541909D01*
X52856538Y-47516419D01*
X52866811Y-47516000D01*
X53708000Y-47516000D01*
X53708000Y-46821414D01*
X53707999Y-46821402D01*
X53701494Y-46760906D01*
X53650444Y-46624035D01*
X53650444Y-46624034D01*
X53562904Y-46507095D01*
X53553426Y-46500000D01*
X54316673Y-46500000D01*
X54335573Y-46728091D01*
X54335950Y-46732633D01*
X54393249Y-46958903D01*
X54393252Y-46958910D01*
X54487015Y-47172668D01*
X54614685Y-47368083D01*
X54772774Y-47539813D01*
X54772778Y-47539817D01*
X54782670Y-47547516D01*
X54956983Y-47683190D01*
X55162273Y-47794287D01*
X55383049Y-47870080D01*
X55613288Y-47908500D01*
X55613292Y-47908500D01*
X55846708Y-47908500D01*
X55846712Y-47908500D01*
X56076951Y-47870080D01*
X56297727Y-47794287D01*
X56503017Y-47683190D01*
X56687220Y-47539818D01*
X56687225Y-47539813D01*
X56691054Y-47536289D01*
X56692321Y-47537665D01*
X56746166Y-47505275D01*
X56817131Y-47507379D01*
X56875694Y-47547516D01*
X56896121Y-47583137D01*
X56919553Y-47645961D01*
X56919555Y-47645965D01*
X57007095Y-47762904D01*
X57124034Y-47850444D01*
X57260906Y-47901494D01*
X57321402Y-47907999D01*
X57321415Y-47908000D01*
X58016000Y-47908000D01*
X58016000Y-47063296D01*
X58036002Y-46995175D01*
X58089658Y-46948682D01*
X58159932Y-46938578D01*
X58179130Y-46942892D01*
X58202173Y-46950000D01*
X58202174Y-46950000D01*
X58303724Y-46950000D01*
X58379222Y-46938620D01*
X58449560Y-46948244D01*
X58503531Y-46994371D01*
X58523997Y-47062354D01*
X58524000Y-47063212D01*
X58524000Y-47908000D01*
X59218585Y-47908000D01*
X59218597Y-47907999D01*
X59279093Y-47901494D01*
X59279098Y-47901493D01*
X59330966Y-47882147D01*
X59401782Y-47877081D01*
X59419034Y-47882147D01*
X59470901Y-47901493D01*
X59470906Y-47901494D01*
X59531402Y-47907999D01*
X59531415Y-47908000D01*
X60226000Y-47908000D01*
X60226000Y-47063296D01*
X60246002Y-46995175D01*
X60299658Y-46948682D01*
X60369932Y-46938578D01*
X60389130Y-46942892D01*
X60412173Y-46950000D01*
X60412174Y-46950000D01*
X60513724Y-46950000D01*
X60589222Y-46938620D01*
X60659560Y-46948244D01*
X60713531Y-46994371D01*
X60733997Y-47062354D01*
X60734000Y-47063212D01*
X60734000Y-47908000D01*
X61428585Y-47908000D01*
X61428597Y-47907999D01*
X61489093Y-47901494D01*
X61625964Y-47850444D01*
X61625965Y-47850444D01*
X61742904Y-47762904D01*
X61830444Y-47645965D01*
X61853877Y-47583138D01*
X61896423Y-47526302D01*
X61962943Y-47501491D01*
X62032318Y-47516582D01*
X62058356Y-47536929D01*
X62058946Y-47536289D01*
X62062778Y-47539817D01*
X62072670Y-47547516D01*
X62246983Y-47683190D01*
X62452273Y-47794287D01*
X62673049Y-47870080D01*
X62903288Y-47908500D01*
X62903292Y-47908500D01*
X63136708Y-47908500D01*
X63136712Y-47908500D01*
X63366951Y-47870080D01*
X63587727Y-47794287D01*
X63793017Y-47683190D01*
X63977220Y-47539818D01*
X63989663Y-47526302D01*
X64135314Y-47368083D01*
X64166728Y-47320000D01*
X64262984Y-47172669D01*
X64356749Y-46958907D01*
X64414051Y-46732626D01*
X64433327Y-46500000D01*
X64414051Y-46267374D01*
X64410828Y-46254648D01*
X64356750Y-46041096D01*
X64356747Y-46041089D01*
X64262984Y-45827331D01*
X64135314Y-45631916D01*
X63977225Y-45460186D01*
X63977221Y-45460182D01*
X63885118Y-45388496D01*
X63793017Y-45316810D01*
X63587727Y-45205713D01*
X63587724Y-45205712D01*
X63587723Y-45205711D01*
X63366955Y-45129921D01*
X63366948Y-45129919D01*
X63268411Y-45113476D01*
X63136712Y-45091500D01*
X62903288Y-45091500D01*
X62788066Y-45110727D01*
X62673051Y-45129919D01*
X62673044Y-45129921D01*
X62452276Y-45205711D01*
X62452273Y-45205713D01*
X62246985Y-45316809D01*
X62246983Y-45316810D01*
X62062778Y-45460182D01*
X62058946Y-45463711D01*
X62057688Y-45462345D01*
X62003763Y-45494742D01*
X61932799Y-45492598D01*
X61874260Y-45452428D01*
X61853877Y-45416861D01*
X61830444Y-45354034D01*
X61742904Y-45237095D01*
X61625965Y-45149555D01*
X61489093Y-45098505D01*
X61428597Y-45092000D01*
X60734000Y-45092000D01*
X60734000Y-45936703D01*
X60713998Y-46004824D01*
X60660342Y-46051317D01*
X60590068Y-46061421D01*
X60570862Y-46057105D01*
X60547827Y-46050000D01*
X60446276Y-46050000D01*
X60370776Y-46061379D01*
X60300438Y-46051754D01*
X60246468Y-46005627D01*
X60226003Y-45937644D01*
X60226000Y-45936787D01*
X60226000Y-45092000D01*
X59531402Y-45092000D01*
X59470904Y-45098505D01*
X59419030Y-45117853D01*
X59348214Y-45122917D01*
X59330967Y-45117853D01*
X59279093Y-45098505D01*
X59218597Y-45092000D01*
X58524000Y-45092000D01*
X58523999Y-45936702D01*
X58503997Y-46004823D01*
X58450341Y-46051316D01*
X58380067Y-46061419D01*
X58360863Y-46057105D01*
X58337827Y-46050000D01*
X58236276Y-46050000D01*
X58160776Y-46061379D01*
X58090438Y-46051754D01*
X58036468Y-46005627D01*
X58016003Y-45937644D01*
X58016000Y-45936787D01*
X58016000Y-45092000D01*
X57321402Y-45092000D01*
X57260906Y-45098505D01*
X57124035Y-45149555D01*
X57124034Y-45149555D01*
X57007095Y-45237095D01*
X56919555Y-45354034D01*
X56919554Y-45354037D01*
X56896121Y-45416863D01*
X56853574Y-45473698D01*
X56787054Y-45498508D01*
X56717680Y-45483416D01*
X56691644Y-45463069D01*
X56691054Y-45463711D01*
X56687221Y-45460182D01*
X56595118Y-45388496D01*
X56503017Y-45316810D01*
X56297727Y-45205713D01*
X56297724Y-45205712D01*
X56297723Y-45205711D01*
X56076955Y-45129921D01*
X56076948Y-45129919D01*
X55978411Y-45113476D01*
X55846712Y-45091500D01*
X55613288Y-45091500D01*
X55498066Y-45110727D01*
X55383051Y-45129919D01*
X55383044Y-45129921D01*
X55162276Y-45205711D01*
X55162273Y-45205713D01*
X54956985Y-45316809D01*
X54956983Y-45316810D01*
X54772778Y-45460182D01*
X54772774Y-45460186D01*
X54614685Y-45631916D01*
X54487015Y-45827331D01*
X54393252Y-46041089D01*
X54393249Y-46041096D01*
X54335950Y-46267366D01*
X54335949Y-46267372D01*
X54335949Y-46267374D01*
X54316673Y-46500000D01*
X53553426Y-46500000D01*
X53445965Y-46419555D01*
X53445960Y-46419553D01*
X53378459Y-46394376D01*
X53321623Y-46351829D01*
X53296813Y-46285309D01*
X53311905Y-46215935D01*
X53329784Y-46190991D01*
X53415314Y-46098083D01*
X53542984Y-45902669D01*
X53636749Y-45688907D01*
X53694051Y-45462626D01*
X53713327Y-45230000D01*
X53694051Y-44997374D01*
X53636749Y-44771093D01*
X53542984Y-44557331D01*
X53542984Y-44557330D01*
X53502533Y-44495415D01*
X53482020Y-44427446D01*
X53501509Y-44359177D01*
X53554814Y-44312283D01*
X53608016Y-44300500D01*
X65091984Y-44300500D01*
X65160105Y-44320502D01*
X65206598Y-44374158D01*
X65216702Y-44444432D01*
X65197467Y-44495415D01*
X65157015Y-44557331D01*
X65063252Y-44771089D01*
X65063249Y-44771096D01*
X65005950Y-44997366D01*
X65005949Y-44997372D01*
X65005949Y-44997374D01*
X64986673Y-45230000D01*
X65005746Y-45460182D01*
X65005950Y-45462633D01*
X65063249Y-45688903D01*
X65063252Y-45688910D01*
X65157015Y-45902668D01*
X65279394Y-46089984D01*
X65284686Y-46098083D01*
X65370209Y-46190985D01*
X65401629Y-46254648D01*
X65393642Y-46325194D01*
X65348784Y-46380223D01*
X65321541Y-46394376D01*
X65254037Y-46419554D01*
X65254034Y-46419555D01*
X65137095Y-46507095D01*
X65049555Y-46624034D01*
X65049555Y-46624035D01*
X64998505Y-46760906D01*
X64992000Y-46821402D01*
X64992000Y-47516000D01*
X65838402Y-47516000D01*
X65906523Y-47536002D01*
X65953016Y-47589658D01*
X65963120Y-47659932D01*
X65961243Y-47670036D01*
X65946190Y-47735987D01*
X65946190Y-47735990D01*
X65946190Y-47735992D01*
X65956238Y-47870080D01*
X65957033Y-47880681D01*
X65955364Y-47880806D01*
X65951689Y-47940823D01*
X65909725Y-47998091D01*
X65843462Y-48023581D01*
X65833189Y-48024000D01*
X64992000Y-48024000D01*
X64992000Y-48718597D01*
X64998505Y-48779093D01*
X65049555Y-48915964D01*
X65049555Y-48915965D01*
X65137095Y-49032904D01*
X65254034Y-49120444D01*
X65390906Y-49171494D01*
X65451402Y-49177999D01*
X65451415Y-49178000D01*
X66146000Y-49178000D01*
X66146000Y-48333296D01*
X66166002Y-48265175D01*
X66219658Y-48218682D01*
X66289932Y-48208578D01*
X66309130Y-48212892D01*
X66332173Y-48220000D01*
X66332174Y-48220000D01*
X66433724Y-48220000D01*
X66509222Y-48208620D01*
X66579560Y-48218244D01*
X66633531Y-48264371D01*
X66653997Y-48332354D01*
X66654000Y-48333212D01*
X66654000Y-49178000D01*
X67348585Y-49178000D01*
X67348597Y-49177999D01*
X67409093Y-49171494D01*
X67545964Y-49120444D01*
X67545965Y-49120444D01*
X67662904Y-49032904D01*
X67750444Y-48915965D01*
X67750444Y-48915964D01*
X67801494Y-48779093D01*
X67807999Y-48718597D01*
X67808000Y-48718585D01*
X67808000Y-48024000D01*
X66961598Y-48024000D01*
X66893477Y-48003998D01*
X66846984Y-47950342D01*
X66836880Y-47880068D01*
X66838757Y-47869964D01*
X66853809Y-47804011D01*
X66853810Y-47804008D01*
X66843673Y-47668735D01*
X66843672Y-47668733D01*
X66842967Y-47659319D01*
X66844635Y-47659193D01*
X66848311Y-47599177D01*
X66890275Y-47541909D01*
X66956538Y-47516419D01*
X66966811Y-47516000D01*
X67808000Y-47516000D01*
X67808000Y-46821414D01*
X67807999Y-46821402D01*
X67801494Y-46760906D01*
X67750444Y-46624035D01*
X67750444Y-46624034D01*
X67662904Y-46507095D01*
X67545965Y-46419555D01*
X67545960Y-46419553D01*
X67478459Y-46394376D01*
X67421623Y-46351829D01*
X67396813Y-46285309D01*
X67411905Y-46215935D01*
X67429784Y-46190991D01*
X67515314Y-46098083D01*
X67642984Y-45902669D01*
X67736749Y-45688907D01*
X67794051Y-45462626D01*
X67813327Y-45230000D01*
X67794051Y-44997374D01*
X67736749Y-44771093D01*
X67642984Y-44557331D01*
X67642984Y-44557330D01*
X67602533Y-44495415D01*
X67582020Y-44427446D01*
X67601509Y-44359177D01*
X67654814Y-44312283D01*
X67708016Y-44300500D01*
X68373500Y-44300500D01*
X68441621Y-44320502D01*
X68488114Y-44374158D01*
X68499500Y-44426500D01*
X68499500Y-83319406D01*
X68479498Y-83387527D01*
X68425842Y-83434020D01*
X68355568Y-83444124D01*
X68290988Y-83414630D01*
X68284405Y-83408501D01*
X67949866Y-83073962D01*
X67915840Y-83011650D01*
X67916816Y-82953937D01*
X67944564Y-82844368D01*
X67963156Y-82620000D01*
X67944564Y-82395632D01*
X67889296Y-82177384D01*
X67798860Y-81971209D01*
X67765549Y-81920223D01*
X67675724Y-81782734D01*
X67675720Y-81782729D01*
X67523237Y-81617091D01*
X67423007Y-81539079D01*
X67345576Y-81478811D01*
X67312319Y-81460813D01*
X67261929Y-81410802D01*
X67246576Y-81341485D01*
X67271136Y-81274872D01*
X67312320Y-81239186D01*
X67345576Y-81221189D01*
X67523240Y-81082906D01*
X67675722Y-80917268D01*
X67798860Y-80728791D01*
X67889296Y-80522616D01*
X67944564Y-80304368D01*
X67963156Y-80080000D01*
X67944564Y-79855632D01*
X67918753Y-79753706D01*
X67889297Y-79637387D01*
X67889296Y-79637386D01*
X67889296Y-79637384D01*
X67798860Y-79431209D01*
X67792140Y-79420924D01*
X67675724Y-79242734D01*
X67675720Y-79242729D01*
X67523237Y-79077091D01*
X67424191Y-79000000D01*
X67345576Y-78938811D01*
X67312319Y-78920813D01*
X67261929Y-78870802D01*
X67246576Y-78801485D01*
X67271136Y-78734872D01*
X67312320Y-78699186D01*
X67312847Y-78698901D01*
X67345576Y-78681189D01*
X67523240Y-78542906D01*
X67675722Y-78377268D01*
X67675927Y-78376955D01*
X67714948Y-78317228D01*
X67798860Y-78188791D01*
X67889296Y-77982616D01*
X67944564Y-77764368D01*
X67963156Y-77540000D01*
X67944564Y-77315632D01*
X67937060Y-77285999D01*
X67889297Y-77097387D01*
X67889296Y-77097386D01*
X67889296Y-77097384D01*
X67798860Y-76891209D01*
X67792140Y-76880924D01*
X67675724Y-76702734D01*
X67675719Y-76702729D01*
X67532524Y-76547179D01*
X67501103Y-76483514D01*
X67509090Y-76412968D01*
X67553948Y-76357939D01*
X67581183Y-76343789D01*
X67696204Y-76300889D01*
X67813261Y-76213261D01*
X67900889Y-76096204D01*
X67951989Y-75959201D01*
X67958500Y-75898638D01*
X67958500Y-74101362D01*
X67958499Y-74101350D01*
X67951990Y-74040803D01*
X67951988Y-74040795D01*
X67900889Y-73903797D01*
X67900887Y-73903792D01*
X67813261Y-73786738D01*
X67696207Y-73699112D01*
X67696202Y-73699110D01*
X67559204Y-73648011D01*
X67559196Y-73648009D01*
X67498649Y-73641500D01*
X67498638Y-73641500D01*
X65957893Y-73641500D01*
X65889772Y-73621498D01*
X65843279Y-73567842D01*
X65833175Y-73497568D01*
X65844887Y-73459772D01*
X65874950Y-73398810D01*
X65891059Y-73366145D01*
X65986224Y-73085797D01*
X66043983Y-72795426D01*
X66056461Y-72605040D01*
X66063346Y-72500003D01*
X66063346Y-72499996D01*
X66052194Y-72329857D01*
X66043983Y-72204574D01*
X65986224Y-71914203D01*
X65891059Y-71633855D01*
X65760115Y-71368327D01*
X65595633Y-71122162D01*
X65400427Y-70899573D01*
X65177838Y-70704367D01*
X65177830Y-70704361D01*
X65177827Y-70704359D01*
X64931670Y-70539883D01*
X64666151Y-70408944D01*
X64666145Y-70408941D01*
X64666140Y-70408939D01*
X64666137Y-70408938D01*
X64385805Y-70313778D01*
X64385799Y-70313776D01*
X64385797Y-70313776D01*
X64288566Y-70294435D01*
X64095435Y-70256018D01*
X64095421Y-70256016D01*
X63800003Y-70236654D01*
X63799997Y-70236654D01*
X63504578Y-70256016D01*
X63504564Y-70256018D01*
X63262818Y-70304105D01*
X63214203Y-70313776D01*
X63214201Y-70313776D01*
X63214194Y-70313778D01*
X62933862Y-70408938D01*
X62933848Y-70408944D01*
X62668329Y-70539883D01*
X62422172Y-70704359D01*
X62422165Y-70704364D01*
X62422162Y-70704367D01*
X62199573Y-70899573D01*
X62004367Y-71122162D01*
X62004364Y-71122165D01*
X62004359Y-71122172D01*
X61839883Y-71368329D01*
X61708944Y-71633848D01*
X61708938Y-71633862D01*
X61613778Y-71914194D01*
X61613776Y-71914204D01*
X61556018Y-72204564D01*
X61556016Y-72204578D01*
X61536654Y-72499996D01*
X61536654Y-72500003D01*
X61556016Y-72795421D01*
X61556018Y-72795435D01*
X61613776Y-73085795D01*
X61613778Y-73085805D01*
X61708938Y-73366137D01*
X61708944Y-73366151D01*
X61839883Y-73631670D01*
X62004359Y-73877827D01*
X62004361Y-73877830D01*
X62004367Y-73877838D01*
X62199573Y-74100427D01*
X62422162Y-74295633D01*
X62668327Y-74460115D01*
X62933855Y-74591059D01*
X63214203Y-74686224D01*
X63504574Y-74743983D01*
X63673388Y-74755047D01*
X63799997Y-74763346D01*
X63800000Y-74763346D01*
X63800003Y-74763346D01*
X63910784Y-74756084D01*
X64095426Y-74743983D01*
X64385797Y-74686224D01*
X64666145Y-74591059D01*
X64873457Y-74488824D01*
X64931670Y-74460117D01*
X65045497Y-74384060D01*
X65113250Y-74362845D01*
X65181717Y-74381628D01*
X65229160Y-74434445D01*
X65241499Y-74488825D01*
X65241499Y-75898632D01*
X65241500Y-75898649D01*
X65248009Y-75959196D01*
X65248011Y-75959204D01*
X65299110Y-76096202D01*
X65299112Y-76096207D01*
X65386738Y-76213261D01*
X65503791Y-76300886D01*
X65503792Y-76300886D01*
X65503796Y-76300889D01*
X65618810Y-76343787D01*
X65675642Y-76386332D01*
X65700453Y-76452852D01*
X65685362Y-76522226D01*
X65667475Y-76547179D01*
X65524280Y-76702729D01*
X65524275Y-76702734D01*
X65401141Y-76891206D01*
X65310703Y-77097386D01*
X65310702Y-77097387D01*
X65255437Y-77315624D01*
X65255436Y-77315630D01*
X65255436Y-77315632D01*
X65236844Y-77540000D01*
X65254232Y-77749844D01*
X65255437Y-77764379D01*
X65256294Y-77769513D01*
X65254613Y-77769793D01*
X65252217Y-77833197D01*
X65221843Y-77882251D01*
X63527330Y-79576763D01*
X63465018Y-79610789D01*
X63394202Y-79605724D01*
X63337367Y-79563177D01*
X63312665Y-79498073D01*
X63293555Y-79267449D01*
X63236275Y-79041256D01*
X63236273Y-79041252D01*
X63142547Y-78827578D01*
X63142540Y-78827566D01*
X63059202Y-78700007D01*
X63059202Y-78700006D01*
X62512917Y-79246292D01*
X62450605Y-79280318D01*
X62379790Y-79275253D01*
X62322954Y-79232706D01*
X62317824Y-79225317D01*
X62281762Y-79169203D01*
X62175461Y-79077094D01*
X62173100Y-79075048D01*
X62173098Y-79075047D01*
X62166289Y-79069147D01*
X62168310Y-79066813D01*
X62131902Y-79024786D01*
X62121807Y-78954511D01*
X62151307Y-78889933D01*
X62157427Y-78883362D01*
X62701318Y-78339470D01*
X62672743Y-78317229D01*
X62672741Y-78317228D01*
X62467525Y-78206172D01*
X62467522Y-78206170D01*
X62246832Y-78130407D01*
X62246823Y-78130405D01*
X62016666Y-78092000D01*
X61783334Y-78092000D01*
X61553176Y-78130405D01*
X61553167Y-78130407D01*
X61332477Y-78206170D01*
X61332474Y-78206172D01*
X61127259Y-78317227D01*
X61098681Y-78339470D01*
X61098680Y-78339470D01*
X61642572Y-78883362D01*
X61676598Y-78945674D01*
X61671533Y-79016489D01*
X61632854Y-79068157D01*
X61633711Y-79069147D01*
X61629164Y-79073086D01*
X61628986Y-79073325D01*
X61628498Y-79073663D01*
X61518238Y-79169202D01*
X61482175Y-79225318D01*
X61428519Y-79271811D01*
X61358245Y-79281914D01*
X61293664Y-79252421D01*
X61287082Y-79246292D01*
X60740796Y-78700006D01*
X60727258Y-78701411D01*
X60701775Y-78723159D01*
X60631427Y-78732734D01*
X60567070Y-78702756D01*
X60544814Y-78677070D01*
X60515314Y-78631916D01*
X60357225Y-78460186D01*
X60357221Y-78460182D01*
X60250689Y-78377265D01*
X60173017Y-78316810D01*
X59967727Y-78205713D01*
X59967724Y-78205712D01*
X59967723Y-78205711D01*
X59746955Y-78129921D01*
X59746948Y-78129919D01*
X59648411Y-78113476D01*
X59516712Y-78091500D01*
X59283288Y-78091500D01*
X59168066Y-78110727D01*
X59053051Y-78129919D01*
X59053044Y-78129921D01*
X58832276Y-78205711D01*
X58832273Y-78205713D01*
X58626985Y-78316809D01*
X58626983Y-78316810D01*
X58442778Y-78460182D01*
X58442774Y-78460186D01*
X58284685Y-78631916D01*
X58255483Y-78676615D01*
X58201480Y-78722704D01*
X58131132Y-78732279D01*
X58066774Y-78702302D01*
X58044517Y-78676615D01*
X58015314Y-78631916D01*
X57857225Y-78460186D01*
X57857221Y-78460182D01*
X57750689Y-78377265D01*
X57673017Y-78316810D01*
X57467727Y-78205713D01*
X57467724Y-78205712D01*
X57467723Y-78205711D01*
X57246955Y-78129921D01*
X57246948Y-78129919D01*
X57148411Y-78113476D01*
X57016712Y-78091500D01*
X56783288Y-78091500D01*
X56668066Y-78110727D01*
X56553051Y-78129919D01*
X56553044Y-78129921D01*
X56332276Y-78205711D01*
X56332273Y-78205713D01*
X56126985Y-78316809D01*
X56126983Y-78316810D01*
X55942778Y-78460182D01*
X55942774Y-78460186D01*
X55784685Y-78631916D01*
X55657015Y-78827331D01*
X55563252Y-79041089D01*
X55563249Y-79041096D01*
X55505950Y-79267366D01*
X55505949Y-79267372D01*
X55505949Y-79267374D01*
X55486673Y-79500000D01*
X55504876Y-79719681D01*
X55505950Y-79732633D01*
X55563249Y-79958903D01*
X55563252Y-79958910D01*
X55657015Y-80172668D01*
X55784685Y-80368083D01*
X55942774Y-80539813D01*
X55942778Y-80539817D01*
X56008650Y-80591087D01*
X56126983Y-80683190D01*
X56332273Y-80794287D01*
X56553049Y-80870080D01*
X56783288Y-80908500D01*
X56783292Y-80908500D01*
X57016708Y-80908500D01*
X57016712Y-80908500D01*
X57246951Y-80870080D01*
X57467727Y-80794287D01*
X57673017Y-80683190D01*
X57857220Y-80539818D01*
X57873059Y-80522613D01*
X57973102Y-80413937D01*
X58015314Y-80368083D01*
X58044517Y-80323384D01*
X58098518Y-80277297D01*
X58168865Y-80267720D01*
X58233223Y-80297697D01*
X58255481Y-80323383D01*
X58284686Y-80368084D01*
X58442774Y-80539813D01*
X58442778Y-80539817D01*
X58519588Y-80599600D01*
X58626983Y-80683190D01*
X58626988Y-80683192D01*
X58626990Y-80683194D01*
X58700468Y-80722958D01*
X58750859Y-80772971D01*
X58766500Y-80833772D01*
X58766500Y-86585404D01*
X58746498Y-86653525D01*
X58729595Y-86674499D01*
X58374498Y-87029596D01*
X58312188Y-87063620D01*
X58285405Y-87066500D01*
X53477038Y-87066500D01*
X53408917Y-87046498D01*
X53371555Y-87009415D01*
X53275724Y-86862734D01*
X53275720Y-86862729D01*
X53143718Y-86719339D01*
X53123240Y-86697094D01*
X53123239Y-86697093D01*
X53123237Y-86697091D01*
X53041382Y-86633381D01*
X52945576Y-86558811D01*
X52912319Y-86540813D01*
X52861929Y-86490802D01*
X52846576Y-86421485D01*
X52871136Y-86354872D01*
X52912320Y-86319186D01*
X52925253Y-86312187D01*
X52945576Y-86301189D01*
X53123240Y-86162906D01*
X53275722Y-85997268D01*
X53398860Y-85808791D01*
X53489296Y-85602616D01*
X53544564Y-85384368D01*
X53563156Y-85160000D01*
X53544564Y-84935632D01*
X53516817Y-84826062D01*
X53519484Y-84755116D01*
X53549864Y-84706038D01*
X54255903Y-84000000D01*
X55486673Y-84000000D01*
X55505581Y-84228188D01*
X55505950Y-84232633D01*
X55563249Y-84458903D01*
X55563252Y-84458910D01*
X55657015Y-84672668D01*
X55784685Y-84868083D01*
X55942774Y-85039813D01*
X55942778Y-85039817D01*
X56008650Y-85091087D01*
X56126983Y-85183190D01*
X56332273Y-85294287D01*
X56553049Y-85370080D01*
X56783288Y-85408500D01*
X56783292Y-85408500D01*
X57016708Y-85408500D01*
X57016712Y-85408500D01*
X57246951Y-85370080D01*
X57467727Y-85294287D01*
X57673017Y-85183190D01*
X57857220Y-85039818D01*
X57953131Y-84935632D01*
X58015314Y-84868083D01*
X58042767Y-84826063D01*
X58142984Y-84672669D01*
X58236749Y-84458907D01*
X58294051Y-84232626D01*
X58313327Y-84000000D01*
X58294051Y-83767374D01*
X58292485Y-83761189D01*
X58236750Y-83541096D01*
X58236747Y-83541089D01*
X58231285Y-83528638D01*
X58142984Y-83327331D01*
X58072768Y-83219857D01*
X58015314Y-83131916D01*
X57857225Y-82960186D01*
X57857221Y-82960182D01*
X57722724Y-82855499D01*
X57673017Y-82816810D01*
X57467727Y-82705713D01*
X57467724Y-82705712D01*
X57467723Y-82705711D01*
X57246955Y-82629921D01*
X57246948Y-82629919D01*
X57148411Y-82613476D01*
X57016712Y-82591500D01*
X56783288Y-82591500D01*
X56668066Y-82610727D01*
X56553051Y-82629919D01*
X56553044Y-82629921D01*
X56332276Y-82705711D01*
X56332273Y-82705713D01*
X56220126Y-82766404D01*
X56126985Y-82816809D01*
X56126983Y-82816810D01*
X55942778Y-82960182D01*
X55942774Y-82960186D01*
X55784685Y-83131916D01*
X55657015Y-83327331D01*
X55563252Y-83541089D01*
X55563249Y-83541096D01*
X55505950Y-83767366D01*
X55505949Y-83767372D01*
X55505949Y-83767374D01*
X55486673Y-84000000D01*
X54255903Y-84000000D01*
X54578659Y-83677244D01*
X54591098Y-83667280D01*
X54590910Y-83667053D01*
X54597013Y-83662002D01*
X54597018Y-83662000D01*
X54644984Y-83610920D01*
X54666135Y-83589770D01*
X54670445Y-83584212D01*
X54674274Y-83579729D01*
X54706586Y-83545321D01*
X54716346Y-83527565D01*
X54727195Y-83511050D01*
X54739614Y-83495041D01*
X54758363Y-83451710D01*
X54760953Y-83446423D01*
X54783695Y-83405060D01*
X54788733Y-83385434D01*
X54795137Y-83366732D01*
X54803180Y-83348147D01*
X54803179Y-83348147D01*
X54803181Y-83348145D01*
X54810561Y-83301547D01*
X54811762Y-83295740D01*
X54823500Y-83250030D01*
X54823500Y-83229775D01*
X54825051Y-83210063D01*
X54828220Y-83190057D01*
X54825629Y-83162651D01*
X54823780Y-83143080D01*
X54823500Y-83137148D01*
X54823500Y-77804593D01*
X54843502Y-77736472D01*
X54860405Y-77715498D01*
X56677271Y-75898632D01*
X59788657Y-72787245D01*
X59801092Y-72777284D01*
X59800905Y-72777057D01*
X59807009Y-72772005D01*
X59807018Y-72772000D01*
X59854999Y-72720904D01*
X59876135Y-72699769D01*
X59880437Y-72694221D01*
X59884267Y-72689735D01*
X59916586Y-72655321D01*
X59926345Y-72637567D01*
X59937204Y-72621038D01*
X59949614Y-72605040D01*
X59968354Y-72561732D01*
X59970965Y-72556404D01*
X59993694Y-72515061D01*
X59993695Y-72515060D01*
X59998733Y-72495435D01*
X60005138Y-72476730D01*
X60013181Y-72458145D01*
X60020561Y-72411547D01*
X60021762Y-72405740D01*
X60033500Y-72360030D01*
X60033500Y-72339774D01*
X60035051Y-72320064D01*
X60038220Y-72300057D01*
X60035574Y-72272071D01*
X60033779Y-72253079D01*
X60033499Y-72247146D01*
X60033499Y-70236654D01*
X60033499Y-62833768D01*
X60053501Y-62765651D01*
X60099527Y-62722959D01*
X60173017Y-62683190D01*
X60357220Y-62539818D01*
X60515314Y-62368083D01*
X60544814Y-62322928D01*
X60598816Y-62276841D01*
X60669164Y-62267265D01*
X60733521Y-62297241D01*
X60735421Y-62299434D01*
X60740795Y-62299991D01*
X61287080Y-61753706D01*
X61349393Y-61719681D01*
X61420208Y-61724745D01*
X61477044Y-61767292D01*
X61482174Y-61774680D01*
X61482175Y-61774682D01*
X61518239Y-61830798D01*
X61626900Y-61924952D01*
X61626901Y-61924952D01*
X61633711Y-61930853D01*
X61631686Y-61933189D01*
X61668084Y-61975187D01*
X61678195Y-62045460D01*
X61648709Y-62110043D01*
X61642572Y-62116636D01*
X61098680Y-62660528D01*
X61098681Y-62660529D01*
X61127249Y-62682765D01*
X61127258Y-62682771D01*
X61332474Y-62793827D01*
X61332477Y-62793829D01*
X61553167Y-62869592D01*
X61553176Y-62869594D01*
X61783334Y-62908000D01*
X62016666Y-62908000D01*
X62246823Y-62869594D01*
X62246832Y-62869592D01*
X62467522Y-62793829D01*
X62467525Y-62793827D01*
X62672738Y-62682772D01*
X62701317Y-62660527D01*
X62157427Y-62116637D01*
X62123401Y-62054325D01*
X62128466Y-61983510D01*
X62167145Y-61931840D01*
X62166289Y-61930853D01*
X62170830Y-61926917D01*
X62171013Y-61926674D01*
X62171510Y-61926328D01*
X62173095Y-61924953D01*
X62173100Y-61924952D01*
X62281761Y-61830798D01*
X62317826Y-61774679D01*
X62371477Y-61728188D01*
X62441751Y-61718083D01*
X62506332Y-61747575D01*
X62512917Y-61753706D01*
X63059202Y-62299991D01*
X63142544Y-62172427D01*
X63236273Y-61958747D01*
X63236275Y-61958743D01*
X63293555Y-61732549D01*
X63312825Y-61500000D01*
X63293555Y-61267450D01*
X63236275Y-61041256D01*
X63236273Y-61041252D01*
X63142547Y-60827578D01*
X63142540Y-60827566D01*
X63059202Y-60700007D01*
X62512917Y-61246292D01*
X62450605Y-61280318D01*
X62379790Y-61275253D01*
X62322954Y-61232706D01*
X62317824Y-61225317D01*
X62281762Y-61169203D01*
X62281761Y-61169202D01*
X62173100Y-61075048D01*
X62173098Y-61075047D01*
X62166289Y-61069147D01*
X62168310Y-61066813D01*
X62131902Y-61024786D01*
X62121807Y-60954511D01*
X62151307Y-60889933D01*
X62157427Y-60883362D01*
X62701318Y-60339470D01*
X62672743Y-60317229D01*
X62672741Y-60317228D01*
X62467525Y-60206172D01*
X62467522Y-60206170D01*
X62246832Y-60130407D01*
X62246823Y-60130405D01*
X62016666Y-60092000D01*
X61783334Y-60092000D01*
X61553176Y-60130405D01*
X61553167Y-60130407D01*
X61332477Y-60206170D01*
X61332474Y-60206172D01*
X61127259Y-60317227D01*
X61098681Y-60339470D01*
X61098680Y-60339470D01*
X61642572Y-60883362D01*
X61676598Y-60945674D01*
X61671533Y-61016489D01*
X61632854Y-61068157D01*
X61633711Y-61069147D01*
X61629164Y-61073086D01*
X61628986Y-61073325D01*
X61628498Y-61073663D01*
X61518238Y-61169202D01*
X61482175Y-61225318D01*
X61428519Y-61271811D01*
X61358245Y-61281914D01*
X61293664Y-61252421D01*
X61287082Y-61246292D01*
X60740796Y-60700006D01*
X60727258Y-60701411D01*
X60701775Y-60723159D01*
X60631427Y-60732734D01*
X60567070Y-60702756D01*
X60544814Y-60677070D01*
X60515314Y-60631916D01*
X60357225Y-60460186D01*
X60357221Y-60460182D01*
X60202130Y-60339470D01*
X60173017Y-60316810D01*
X59967727Y-60205713D01*
X59967724Y-60205712D01*
X59967723Y-60205711D01*
X59746955Y-60129921D01*
X59746948Y-60129919D01*
X59648411Y-60113476D01*
X59516712Y-60091500D01*
X59283288Y-60091500D01*
X59168066Y-60110727D01*
X59053051Y-60129919D01*
X59053044Y-60129921D01*
X58832276Y-60205711D01*
X58832273Y-60205713D01*
X58626985Y-60316809D01*
X58626983Y-60316810D01*
X58442778Y-60460182D01*
X58442774Y-60460186D01*
X58284685Y-60631916D01*
X58255483Y-60676615D01*
X58201480Y-60722704D01*
X58131132Y-60732279D01*
X58066774Y-60702302D01*
X58044517Y-60676615D01*
X58015314Y-60631916D01*
X57857225Y-60460186D01*
X57857221Y-60460182D01*
X57702130Y-60339470D01*
X57673017Y-60316810D01*
X57467727Y-60205713D01*
X57467724Y-60205712D01*
X57467723Y-60205711D01*
X57246955Y-60129921D01*
X57246948Y-60129919D01*
X57148411Y-60113476D01*
X57016712Y-60091500D01*
X56783288Y-60091500D01*
X56668066Y-60110727D01*
X56553051Y-60129919D01*
X56553044Y-60129921D01*
X56332276Y-60205711D01*
X56332273Y-60205713D01*
X56126985Y-60316809D01*
X56126983Y-60316810D01*
X55942778Y-60460182D01*
X55942774Y-60460186D01*
X55784685Y-60631916D01*
X55657015Y-60827331D01*
X55563252Y-61041089D01*
X55563249Y-61041096D01*
X55505950Y-61267366D01*
X55505949Y-61267372D01*
X55505949Y-61267374D01*
X55486673Y-61500000D01*
X55505581Y-61728188D01*
X55505950Y-61732633D01*
X55563249Y-61958903D01*
X55563252Y-61958910D01*
X55657015Y-62172668D01*
X55784685Y-62368083D01*
X55942774Y-62539813D01*
X55942778Y-62539817D01*
X56008650Y-62591087D01*
X56126983Y-62683190D01*
X56332273Y-62794287D01*
X56553049Y-62870080D01*
X56783288Y-62908500D01*
X56783292Y-62908500D01*
X57016708Y-62908500D01*
X57016712Y-62908500D01*
X57246951Y-62870080D01*
X57467727Y-62794287D01*
X57673017Y-62683190D01*
X57857220Y-62539818D01*
X58015314Y-62368083D01*
X58044517Y-62323384D01*
X58098518Y-62277297D01*
X58168865Y-62267720D01*
X58233223Y-62297697D01*
X58255481Y-62323383D01*
X58284686Y-62368084D01*
X58442774Y-62539813D01*
X58442778Y-62539817D01*
X58519588Y-62599600D01*
X58626983Y-62683190D01*
X58626985Y-62683191D01*
X58700468Y-62722958D01*
X58750859Y-62772971D01*
X58766499Y-62833772D01*
X58766500Y-71965404D01*
X58746498Y-72033525D01*
X58729595Y-72054499D01*
X57305177Y-73478916D01*
X57242865Y-73512942D01*
X57172049Y-73507877D01*
X57115214Y-73465330D01*
X57090403Y-73398810D01*
X57096768Y-73349326D01*
X57186224Y-73085797D01*
X57243983Y-72795426D01*
X57256461Y-72605040D01*
X57263346Y-72500003D01*
X57263346Y-72499996D01*
X57252194Y-72329857D01*
X57243983Y-72204574D01*
X57186224Y-71914203D01*
X57091059Y-71633855D01*
X56960115Y-71368327D01*
X56795633Y-71122162D01*
X56600427Y-70899573D01*
X56377838Y-70704367D01*
X56377830Y-70704361D01*
X56377827Y-70704359D01*
X56131670Y-70539883D01*
X55866151Y-70408944D01*
X55866145Y-70408941D01*
X55866140Y-70408939D01*
X55866137Y-70408938D01*
X55585805Y-70313778D01*
X55585799Y-70313776D01*
X55585797Y-70313776D01*
X55488566Y-70294435D01*
X55295435Y-70256018D01*
X55295421Y-70256016D01*
X55000003Y-70236654D01*
X54999997Y-70236654D01*
X54704578Y-70256016D01*
X54704564Y-70256018D01*
X54462818Y-70304105D01*
X54414203Y-70313776D01*
X54414201Y-70313776D01*
X54414194Y-70313778D01*
X54133862Y-70408938D01*
X54133848Y-70408944D01*
X53868329Y-70539883D01*
X53622172Y-70704359D01*
X53622165Y-70704364D01*
X53622162Y-70704367D01*
X53399573Y-70899573D01*
X53204367Y-71122162D01*
X53204364Y-71122165D01*
X53204359Y-71122172D01*
X53039883Y-71368329D01*
X52908944Y-71633848D01*
X52908938Y-71633862D01*
X52813778Y-71914194D01*
X52813776Y-71914204D01*
X52756018Y-72204564D01*
X52756016Y-72204578D01*
X52736654Y-72499996D01*
X52736654Y-72500003D01*
X52756016Y-72795421D01*
X52756018Y-72795435D01*
X52813776Y-73085795D01*
X52813778Y-73085805D01*
X52908938Y-73366137D01*
X52908944Y-73366151D01*
X52955113Y-73459772D01*
X52967303Y-73529714D01*
X52939744Y-73595143D01*
X52881186Y-73635287D01*
X52842107Y-73641500D01*
X51301350Y-73641500D01*
X51240803Y-73648009D01*
X51240795Y-73648011D01*
X51103797Y-73699110D01*
X51103792Y-73699112D01*
X50986738Y-73786738D01*
X50899112Y-73903792D01*
X50899110Y-73903797D01*
X50848011Y-74040795D01*
X50848009Y-74040803D01*
X50841500Y-74101350D01*
X50841500Y-75898649D01*
X50848009Y-75959196D01*
X50848011Y-75959204D01*
X50899110Y-76096202D01*
X50899112Y-76096207D01*
X50986738Y-76213261D01*
X51103792Y-76300887D01*
X51103796Y-76300889D01*
X51219312Y-76343975D01*
X51276148Y-76386522D01*
X51300958Y-76453042D01*
X51285866Y-76522416D01*
X51267981Y-76547367D01*
X51124674Y-76703041D01*
X51001580Y-76891451D01*
X50911179Y-77097543D01*
X50911176Y-77097550D01*
X50863455Y-77285999D01*
X50863456Y-77286000D01*
X51585156Y-77286000D01*
X51653277Y-77306002D01*
X51699770Y-77359658D01*
X51709874Y-77429932D01*
X51706053Y-77447496D01*
X51700000Y-77468111D01*
X51700000Y-77611888D01*
X51706053Y-77632504D01*
X51706052Y-77703500D01*
X51667667Y-77763226D01*
X51603086Y-77792718D01*
X51585156Y-77794000D01*
X50863455Y-77794000D01*
X50911176Y-77982449D01*
X50911179Y-77982456D01*
X51001580Y-78188548D01*
X51124674Y-78376958D01*
X51277097Y-78542534D01*
X51454698Y-78680767D01*
X51454704Y-78680771D01*
X51488207Y-78698902D01*
X51538597Y-78748915D01*
X51553949Y-78818232D01*
X51529388Y-78884845D01*
X51488207Y-78920528D01*
X51454430Y-78938807D01*
X51454424Y-78938811D01*
X51276762Y-79077091D01*
X51124279Y-79242729D01*
X51124275Y-79242734D01*
X51001141Y-79431206D01*
X50910703Y-79637386D01*
X50910702Y-79637387D01*
X50855437Y-79855624D01*
X50855436Y-79855630D01*
X50855436Y-79855632D01*
X50845529Y-79975187D01*
X50836844Y-80080000D01*
X50855436Y-80304369D01*
X50883182Y-80413935D01*
X50880514Y-80484882D01*
X50850132Y-80533961D01*
X50515595Y-80868498D01*
X50453283Y-80902524D01*
X50382468Y-80897459D01*
X50325632Y-80854912D01*
X50300821Y-80788392D01*
X50300500Y-80779403D01*
X50300500Y-54500003D01*
X52736654Y-54500003D01*
X52756016Y-54795421D01*
X52756018Y-54795435D01*
X52813776Y-55085795D01*
X52813778Y-55085805D01*
X52908938Y-55366137D01*
X52908944Y-55366151D01*
X53039883Y-55631670D01*
X53204359Y-55877827D01*
X53204361Y-55877830D01*
X53204367Y-55877838D01*
X53399573Y-56100427D01*
X53622162Y-56295633D01*
X53868327Y-56460115D01*
X54133855Y-56591059D01*
X54414203Y-56686224D01*
X54704574Y-56743983D01*
X54873388Y-56755047D01*
X54999997Y-56763346D01*
X55000000Y-56763346D01*
X55000003Y-56763346D01*
X55110784Y-56756084D01*
X55295426Y-56743983D01*
X55585797Y-56686224D01*
X55866145Y-56591059D01*
X56131673Y-56460115D01*
X56377838Y-56295633D01*
X56600427Y-56100427D01*
X56795633Y-55877838D01*
X56960115Y-55631673D01*
X57091059Y-55366145D01*
X57186224Y-55085797D01*
X57243983Y-54795426D01*
X57263346Y-54500003D01*
X61536654Y-54500003D01*
X61556016Y-54795421D01*
X61556018Y-54795435D01*
X61613776Y-55085795D01*
X61613778Y-55085805D01*
X61708938Y-55366137D01*
X61708944Y-55366151D01*
X61839883Y-55631670D01*
X62004359Y-55877827D01*
X62004361Y-55877830D01*
X62004367Y-55877838D01*
X62199573Y-56100427D01*
X62422162Y-56295633D01*
X62668327Y-56460115D01*
X62933855Y-56591059D01*
X63214203Y-56686224D01*
X63504574Y-56743983D01*
X63673388Y-56755047D01*
X63799997Y-56763346D01*
X63800000Y-56763346D01*
X63800003Y-56763346D01*
X63910784Y-56756084D01*
X64095426Y-56743983D01*
X64385797Y-56686224D01*
X64666145Y-56591059D01*
X64931673Y-56460115D01*
X65177838Y-56295633D01*
X65400427Y-56100427D01*
X65595633Y-55877838D01*
X65760115Y-55631673D01*
X65891059Y-55366145D01*
X65986224Y-55085797D01*
X66043983Y-54795426D01*
X66063346Y-54500000D01*
X66043983Y-54204574D01*
X65986224Y-53914203D01*
X65891059Y-53633855D01*
X65760115Y-53368327D01*
X65595633Y-53122162D01*
X65400427Y-52899573D01*
X65177838Y-52704367D01*
X65177830Y-52704361D01*
X65177827Y-52704359D01*
X64931670Y-52539883D01*
X64666151Y-52408944D01*
X64666145Y-52408941D01*
X64666140Y-52408939D01*
X64666137Y-52408938D01*
X64385805Y-52313778D01*
X64385799Y-52313776D01*
X64385797Y-52313776D01*
X64288566Y-52294435D01*
X64095435Y-52256018D01*
X64095421Y-52256016D01*
X63800003Y-52236654D01*
X63799997Y-52236654D01*
X63504578Y-52256016D01*
X63504564Y-52256018D01*
X63262818Y-52304105D01*
X63214203Y-52313776D01*
X63214201Y-52313776D01*
X63214194Y-52313778D01*
X62933862Y-52408938D01*
X62933848Y-52408944D01*
X62668329Y-52539883D01*
X62422172Y-52704359D01*
X62422165Y-52704364D01*
X62422162Y-52704367D01*
X62199573Y-52899573D01*
X62004367Y-53122162D01*
X62004364Y-53122165D01*
X62004359Y-53122172D01*
X61839883Y-53368329D01*
X61708944Y-53633848D01*
X61708938Y-53633862D01*
X61613778Y-53914194D01*
X61613776Y-53914204D01*
X61556018Y-54204564D01*
X61556016Y-54204578D01*
X61536654Y-54499996D01*
X61536654Y-54500003D01*
X57263346Y-54500003D01*
X57263346Y-54500000D01*
X57243983Y-54204574D01*
X57186224Y-53914203D01*
X57091059Y-53633855D01*
X56960115Y-53368327D01*
X56795633Y-53122162D01*
X56600427Y-52899573D01*
X56377838Y-52704367D01*
X56377830Y-52704361D01*
X56377827Y-52704359D01*
X56131670Y-52539883D01*
X55866151Y-52408944D01*
X55866145Y-52408941D01*
X55866140Y-52408939D01*
X55866137Y-52408938D01*
X55585805Y-52313778D01*
X55585799Y-52313776D01*
X55585797Y-52313776D01*
X55488566Y-52294435D01*
X55295435Y-52256018D01*
X55295421Y-52256016D01*
X55000003Y-52236654D01*
X54999997Y-52236654D01*
X54704578Y-52256016D01*
X54704564Y-52256018D01*
X54462818Y-52304105D01*
X54414203Y-52313776D01*
X54414201Y-52313776D01*
X54414194Y-52313778D01*
X54133862Y-52408938D01*
X54133848Y-52408944D01*
X53868329Y-52539883D01*
X53622172Y-52704359D01*
X53622165Y-52704364D01*
X53622162Y-52704367D01*
X53399573Y-52899573D01*
X53204367Y-53122162D01*
X53204364Y-53122165D01*
X53204359Y-53122172D01*
X53039883Y-53368329D01*
X52908944Y-53633848D01*
X52908938Y-53633862D01*
X52813778Y-53914194D01*
X52813776Y-53914204D01*
X52756018Y-54204564D01*
X52756016Y-54204578D01*
X52736654Y-54499996D01*
X52736654Y-54500003D01*
X50300500Y-54500003D01*
X50300500Y-44426500D01*
X50320502Y-44358379D01*
X50374158Y-44311886D01*
X50426500Y-44300500D01*
X50991984Y-44300500D01*
X51060105Y-44320502D01*
G37*
%TD.AperFunction*%
%TA.AperFunction,Conductor*%
G36*
X61420208Y-79724745D02*
G01*
X61477044Y-79767292D01*
X61482174Y-79774680D01*
X61518239Y-79830798D01*
X61626900Y-79924952D01*
X61626901Y-79924952D01*
X61633711Y-79930853D01*
X61631686Y-79933189D01*
X61668084Y-79975187D01*
X61678195Y-80045460D01*
X61648709Y-80110043D01*
X61642572Y-80116636D01*
X61098680Y-80660528D01*
X61098681Y-80660529D01*
X61127249Y-80682765D01*
X61127258Y-80682771D01*
X61332474Y-80793827D01*
X61332477Y-80793829D01*
X61553167Y-80869592D01*
X61553176Y-80869594D01*
X61783334Y-80908000D01*
X61891904Y-80908000D01*
X61960025Y-80928002D01*
X62006518Y-80981658D01*
X62016622Y-81051932D01*
X61987128Y-81116512D01*
X61980999Y-81123095D01*
X60248594Y-82855499D01*
X60186282Y-82889525D01*
X60115466Y-82884460D01*
X60058631Y-82841913D01*
X60033820Y-82775393D01*
X60033499Y-82766404D01*
X60033499Y-81920223D01*
X60033499Y-80833768D01*
X60053501Y-80765651D01*
X60099527Y-80722959D01*
X60173017Y-80683190D01*
X60357220Y-80539818D01*
X60373059Y-80522613D01*
X60473102Y-80413937D01*
X60515314Y-80368083D01*
X60544814Y-80322928D01*
X60598816Y-80276841D01*
X60669164Y-80267265D01*
X60733521Y-80297241D01*
X60735421Y-80299434D01*
X60740795Y-80299991D01*
X61287080Y-79753706D01*
X61349393Y-79719681D01*
X61420208Y-79724745D01*
G37*
%TD.AperFunction*%
%TD*%
M02*
