%TF.GenerationSoftware,KiCad,Pcbnew,(6.0.11)*%
%TF.CreationDate,2023-03-29T15:10:06+01:00*%
%TF.ProjectId,QuadEnv_Components,51756164-456e-4765-9f43-6f6d706f6e65,rev?*%
%TF.SameCoordinates,Original*%
%TF.FileFunction,Soldermask,Bot*%
%TF.FilePolarity,Negative*%
%FSLAX46Y46*%
G04 Gerber Fmt 4.6, Leading zero omitted, Abs format (unit mm)*
G04 Created by KiCad (PCBNEW (6.0.11)) date 2023-03-29 15:10:06*
%MOMM*%
%LPD*%
G01*
G04 APERTURE LIST*
%ADD10C,1.700000*%
%ADD11R,1.700000X1.700000*%
%ADD12O,1.700000X1.700000*%
%ADD13O,0.950000X1.250000*%
%ADD14O,1.550000X1.000000*%
G04 APERTURE END LIST*
D10*
%TO.C,TP6*%
X52400000Y-102000000D03*
%TD*%
%TO.C,TP5*%
X52400000Y-107400000D03*
%TD*%
%TO.C,TP3*%
X52400000Y-112400000D03*
%TD*%
%TO.C,TP2*%
X66400000Y-107400000D03*
%TD*%
D11*
%TO.C,J6*%
X64480000Y-52660000D03*
D12*
X64480000Y-55200000D03*
X61940000Y-52660000D03*
X61940000Y-55200000D03*
X59400000Y-52660000D03*
X59400000Y-55200000D03*
X56860000Y-52660000D03*
X56860000Y-55200000D03*
X54320000Y-52660000D03*
X54320000Y-55200000D03*
%TD*%
D13*
%TO.C,J7*%
X55485000Y-147700000D03*
D14*
X52785000Y-148700000D03*
D13*
X55485000Y-142700000D03*
D14*
X52785000Y-141700000D03*
%TD*%
D11*
%TO.C,J5*%
X66600000Y-95610000D03*
D10*
X66600000Y-93070000D03*
X66600000Y-90530000D03*
X66600000Y-87990000D03*
%TD*%
%TO.C,TP1*%
X64200000Y-70600000D03*
%TD*%
%TO.C,TP4*%
X66400000Y-112400000D03*
%TD*%
D11*
%TO.C,J1*%
X52200000Y-74400000D03*
D12*
X52200000Y-76940000D03*
X52200000Y-79480000D03*
X52200000Y-82020000D03*
X52200000Y-84560000D03*
X52200000Y-87100000D03*
%TD*%
D11*
%TO.C,J4*%
X55600000Y-152700000D03*
D12*
X58140000Y-152700000D03*
X60680000Y-152700000D03*
X63220000Y-152700000D03*
%TD*%
D11*
%TO.C,J2*%
X66600000Y-74400000D03*
D12*
X66600000Y-76940000D03*
X66600000Y-79480000D03*
X66600000Y-82020000D03*
X66600000Y-84560000D03*
%TD*%
D11*
%TO.C,J3*%
X63200000Y-137200000D03*
D12*
X60660000Y-137200000D03*
X58120000Y-137200000D03*
X55580000Y-137200000D03*
%TD*%
M02*
