%TF.GenerationSoftware,KiCad,Pcbnew,(6.0.11)*%
%TF.CreationDate,2023-03-30T15:00:59+01:00*%
%TF.ProjectId,QuadEnv_Components,51756164-456e-4765-9f43-6f6d706f6e65,rev?*%
%TF.SameCoordinates,Original*%
%TF.FileFunction,Copper,L2,Bot*%
%TF.FilePolarity,Positive*%
%FSLAX46Y46*%
G04 Gerber Fmt 4.6, Leading zero omitted, Abs format (unit mm)*
G04 Created by KiCad (PCBNEW (6.0.11)) date 2023-03-30 15:00:59*
%MOMM*%
%LPD*%
G01*
G04 APERTURE LIST*
%TA.AperFunction,ComponentPad*%
%ADD10C,1.700000*%
%TD*%
%TA.AperFunction,ComponentPad*%
%ADD11R,1.700000X1.700000*%
%TD*%
%TA.AperFunction,ComponentPad*%
%ADD12O,1.700000X1.700000*%
%TD*%
%TA.AperFunction,ComponentPad*%
%ADD13O,0.950000X1.250000*%
%TD*%
%TA.AperFunction,ComponentPad*%
%ADD14O,1.550000X1.000000*%
%TD*%
%TA.AperFunction,ViaPad*%
%ADD15C,1.000000*%
%TD*%
%TA.AperFunction,ViaPad*%
%ADD16C,0.800000*%
%TD*%
%TA.AperFunction,Conductor*%
%ADD17C,0.350000*%
%TD*%
%TA.AperFunction,Conductor*%
%ADD18C,0.250000*%
%TD*%
G04 APERTURE END LIST*
D10*
%TO.P,TP2,1,1*%
%TO.N,+3.3V*%
X66400000Y-107400000D03*
%TD*%
%TO.P,TP6,1,1*%
%TO.N,/RESET*%
X52400000Y-102000000D03*
%TD*%
%TO.P,TP5,1,1*%
%TO.N,GND*%
X52400000Y-107400000D03*
%TD*%
%TO.P,TP3,1,1*%
%TO.N,+12V*%
X52400000Y-112400000D03*
%TD*%
D11*
%TO.P,J6,1,Pin_1*%
%TO.N,/-12V_IN*%
X64480000Y-52660000D03*
D12*
%TO.P,J6,2,Pin_2*%
X64480000Y-55200000D03*
%TO.P,J6,3,Pin_3*%
%TO.N,GND*%
X61940000Y-52660000D03*
%TO.P,J6,4,Pin_4*%
X61940000Y-55200000D03*
%TO.P,J6,5,Pin_5*%
X59400000Y-52660000D03*
%TO.P,J6,6,Pin_6*%
X59400000Y-55200000D03*
%TO.P,J6,7,Pin_7*%
X56860000Y-52660000D03*
%TO.P,J6,8,Pin_8*%
X56860000Y-55200000D03*
%TO.P,J6,9,Pin_9*%
%TO.N,/+12V_IN*%
X54320000Y-52660000D03*
%TO.P,J6,10,Pin_10*%
X54320000Y-55200000D03*
%TD*%
D13*
%TO.P,J7,*%
%TO.N,*%
X55485000Y-147700000D03*
D14*
X52785000Y-148700000D03*
D13*
X55485000Y-142700000D03*
D14*
%TO.P,J7,6,Shield*%
%TO.N,unconnected-(J7-Pad6)*%
X52785000Y-141700000D03*
%TD*%
D11*
%TO.P,J5,1,Pin_1*%
%TO.N,+3.3V*%
X66600000Y-95610000D03*
D10*
%TO.P,J5,2,Pin_2*%
%TO.N,GND*%
X66600000Y-93070000D03*
%TO.P,J5,3,Pin_3*%
%TO.N,/SWIO*%
X66600000Y-90530000D03*
%TO.P,J5,4,Pin_4*%
%TO.N,/SWCLK*%
X66600000Y-87990000D03*
%TD*%
%TO.P,TP1,1,1*%
%TO.N,GND*%
X64200000Y-70600000D03*
%TD*%
%TO.P,TP4,1,1*%
%TO.N,-12V*%
X66400000Y-112400000D03*
%TD*%
D11*
%TO.P,J1,1,Pin_1*%
%TO.N,+3.3VA*%
X52200000Y-74400000D03*
D12*
%TO.P,J1,2,Pin_2*%
%TO.N,GND*%
X52200000Y-76940000D03*
%TO.P,J1,3,Pin_3*%
%TO.N,/Attack_Pot*%
X52200000Y-79480000D03*
%TO.P,J1,4,Pin_4*%
%TO.N,/Decay_Pot*%
X52200000Y-82020000D03*
%TO.P,J1,5,Pin_5*%
%TO.N,/Release_Pot*%
X52200000Y-84560000D03*
%TO.P,J1,6,Pin_6*%
%TO.N,/Sustain_Pot*%
X52200000Y-87100000D03*
%TD*%
D11*
%TO.P,J4,1,Pin_1*%
%TO.N,/Led3_Out*%
X55600000Y-152700000D03*
D12*
%TO.P,J4,2,Pin_2*%
%TO.N,/Env3_Out*%
X58140000Y-152700000D03*
%TO.P,J4,3,Pin_3*%
%TO.N,/Led4_Out*%
X60680000Y-152700000D03*
%TO.P,J4,4,Pin_4*%
%TO.N,/Env4_Out*%
X63220000Y-152700000D03*
%TD*%
D11*
%TO.P,J2,1,Pin_1*%
%TO.N,/Gate1_In*%
X66600000Y-74400000D03*
D12*
%TO.P,J2,2,Pin_2*%
%TO.N,/Gate2_In*%
X66600000Y-76940000D03*
%TO.P,J2,3,Pin_3*%
%TO.N,/Gate3_In*%
X66600000Y-79480000D03*
%TO.P,J2,4,Pin_4*%
%TO.N,/Gate4_In*%
X66600000Y-82020000D03*
%TO.P,J2,5,Pin_5*%
%TO.N,GND*%
X66600000Y-84560000D03*
%TD*%
D11*
%TO.P,J3,1,Pin_1*%
%TO.N,/Led2_Out*%
X63200000Y-137200000D03*
D12*
%TO.P,J3,2,Pin_2*%
%TO.N,/Env2_Out*%
X60660000Y-137200000D03*
%TO.P,J3,3,Pin_3*%
%TO.N,/Led1_Out*%
X58120000Y-137200000D03*
%TO.P,J3,4,Pin_4*%
%TO.N,/Env1_Out*%
X55580000Y-137200000D03*
%TD*%
D15*
%TO.N,+3.3V*%
X63900000Y-107700000D03*
X62000000Y-84800000D03*
X62000000Y-90800000D03*
X61000000Y-71600000D03*
D16*
X55012500Y-94787500D03*
%TO.N,GND*%
X60200000Y-103000000D03*
X59400000Y-76600000D03*
X66000000Y-121070000D03*
X58600000Y-112400000D03*
X54000000Y-146500000D03*
D15*
X60200000Y-105325500D03*
D16*
X56800000Y-84000000D03*
X63600000Y-60400000D03*
X57200000Y-139400000D03*
X57600000Y-103200000D03*
X56800000Y-116800000D03*
X65200000Y-103000000D03*
X52800000Y-121070000D03*
X54800000Y-66400000D03*
X56400000Y-72000000D03*
X55000000Y-77000000D03*
X57100000Y-146600000D03*
X63400000Y-127200000D03*
X63500000Y-139600000D03*
D15*
X62000000Y-100000000D03*
D16*
X63500000Y-135000000D03*
X57200000Y-99800000D03*
X63800000Y-82400000D03*
X51900000Y-152000000D03*
X60800000Y-93200000D03*
X59600000Y-124000000D03*
X57600000Y-74400000D03*
X64750000Y-86650000D03*
X61600000Y-62400000D03*
X58000000Y-68600000D03*
X52800000Y-68800000D03*
X52800000Y-123070000D03*
X59700000Y-131500000D03*
X55600000Y-127400000D03*
X51300000Y-136100000D03*
X64000000Y-66400000D03*
X57800000Y-90400000D03*
X57000000Y-93400000D03*
X66900000Y-152400000D03*
X55400000Y-62200000D03*
X65000000Y-98000000D03*
X61200000Y-68800000D03*
D15*
%TO.N,+12V*%
X54887500Y-120957500D03*
%TO.N,-12V*%
X63700000Y-120970000D03*
D16*
%TO.N,/Release_Pot*%
X55295343Y-106595343D03*
%TO.N,/USB_DM*%
X57100000Y-144500000D03*
X62000000Y-103200000D03*
%TO.N,/USB_DP*%
X61200000Y-101600000D03*
X54300000Y-145200000D03*
D15*
%TO.N,+3.3VA*%
X59200000Y-108400000D03*
D16*
%TO.N,/RESET*%
X56800000Y-102200000D03*
%TD*%
D17*
%TO.N,+3.3V*%
X66100000Y-107700000D02*
X66400000Y-107400000D01*
X63900000Y-107700000D02*
X66100000Y-107700000D01*
X55012500Y-94787500D02*
X55012500Y-93387500D01*
X62000000Y-84800000D02*
X61000000Y-85800000D01*
X63210000Y-94210000D02*
X65200000Y-94210000D01*
X56600000Y-91800000D02*
X61000000Y-91800000D01*
X62000000Y-90800000D02*
X62000000Y-93000000D01*
X66600000Y-105000000D02*
X63900000Y-107700000D01*
X65200000Y-94210000D02*
X66600000Y-95610000D01*
X61000000Y-85800000D02*
X61000000Y-89800000D01*
X61000000Y-71600000D02*
X62000000Y-72600000D01*
X55012500Y-93387500D02*
X56600000Y-91800000D01*
X62000000Y-93000000D02*
X63210000Y-94210000D01*
X66600000Y-95610000D02*
X66600000Y-105000000D01*
X61000000Y-91800000D02*
X62000000Y-90800000D01*
X62000000Y-72600000D02*
X62000000Y-84800000D01*
X61000000Y-89800000D02*
X62000000Y-90800000D01*
%TO.N,+12V*%
X54887500Y-120957500D02*
X55400000Y-120445000D01*
X55400000Y-115600000D02*
X52400000Y-112600000D01*
X52400000Y-112600000D02*
X52400000Y-112400000D01*
X55400000Y-120445000D02*
X55400000Y-115600000D01*
%TO.N,-12V*%
X66400000Y-112400000D02*
X66400000Y-112600000D01*
X63400000Y-115600000D02*
X63400000Y-120670000D01*
X66400000Y-112600000D02*
X63400000Y-115600000D01*
X63400000Y-120670000D02*
X63700000Y-120970000D01*
D18*
%TO.N,/Release_Pot*%
X51025000Y-85735000D02*
X51025000Y-102325000D01*
X52200000Y-84560000D02*
X51025000Y-85735000D01*
X51025000Y-102325000D02*
X55295343Y-106595343D01*
%TO.N,/USB_DM*%
X61900000Y-139700000D02*
X57100000Y-144500000D01*
X61900000Y-103300000D02*
X61900000Y-139700000D01*
X62000000Y-103200000D02*
X61900000Y-103300000D01*
%TO.N,/USB_DP*%
X61200000Y-133872620D02*
X59400000Y-135672620D01*
X59400000Y-135672620D02*
X59400000Y-140100000D01*
X61200000Y-101600000D02*
X61200000Y-133872620D01*
X59400000Y-140100000D02*
X54300000Y-145200000D01*
D17*
%TO.N,+3.3VA*%
X59200000Y-108400000D02*
X59200000Y-103304691D01*
X59200000Y-103304691D02*
X54000000Y-98104691D01*
X54000000Y-76200000D02*
X52200000Y-74400000D01*
X54000000Y-98104691D02*
X54000000Y-76200000D01*
D18*
%TO.N,/RESET*%
X56600000Y-102000000D02*
X56800000Y-102200000D01*
X52400000Y-102000000D02*
X56600000Y-102000000D01*
%TD*%
%TA.AperFunction,Conductor*%
%TO.N,GND*%
G36*
X68233621Y-50528502D02*
G01*
X68280114Y-50582158D01*
X68291500Y-50634500D01*
X68291500Y-153365500D01*
X68271498Y-153433621D01*
X68217842Y-153480114D01*
X68165500Y-153491500D01*
X64547079Y-153491500D01*
X64478958Y-153471498D01*
X64432465Y-153417842D01*
X64422361Y-153347568D01*
X64434121Y-153309674D01*
X64485138Y-153206448D01*
X64487430Y-153201811D01*
X64552370Y-152988069D01*
X64581529Y-152766590D01*
X64583156Y-152700000D01*
X64564852Y-152477361D01*
X64510431Y-152260702D01*
X64421354Y-152055840D01*
X64300014Y-151868277D01*
X64149670Y-151703051D01*
X64145619Y-151699852D01*
X64145615Y-151699848D01*
X63978414Y-151567800D01*
X63978410Y-151567798D01*
X63974359Y-151564598D01*
X63778789Y-151456638D01*
X63773920Y-151454914D01*
X63773916Y-151454912D01*
X63573087Y-151383795D01*
X63573083Y-151383794D01*
X63568212Y-151382069D01*
X63563119Y-151381162D01*
X63563116Y-151381161D01*
X63353373Y-151343800D01*
X63353367Y-151343799D01*
X63348284Y-151342894D01*
X63274452Y-151341992D01*
X63130081Y-151340228D01*
X63130079Y-151340228D01*
X63124911Y-151340165D01*
X62904091Y-151373955D01*
X62691756Y-151443357D01*
X62493607Y-151546507D01*
X62489474Y-151549610D01*
X62489471Y-151549612D01*
X62319100Y-151677530D01*
X62314965Y-151680635D01*
X62311393Y-151684373D01*
X62203729Y-151797037D01*
X62160629Y-151842138D01*
X62053201Y-151999621D01*
X61998293Y-152044621D01*
X61927768Y-152052792D01*
X61864021Y-152021538D01*
X61843324Y-151997054D01*
X61762822Y-151872617D01*
X61762820Y-151872614D01*
X61760014Y-151868277D01*
X61609670Y-151703051D01*
X61605619Y-151699852D01*
X61605615Y-151699848D01*
X61438414Y-151567800D01*
X61438410Y-151567798D01*
X61434359Y-151564598D01*
X61238789Y-151456638D01*
X61233920Y-151454914D01*
X61233916Y-151454912D01*
X61033087Y-151383795D01*
X61033083Y-151383794D01*
X61028212Y-151382069D01*
X61023119Y-151381162D01*
X61023116Y-151381161D01*
X60813373Y-151343800D01*
X60813367Y-151343799D01*
X60808284Y-151342894D01*
X60734452Y-151341992D01*
X60590081Y-151340228D01*
X60590079Y-151340228D01*
X60584911Y-151340165D01*
X60364091Y-151373955D01*
X60151756Y-151443357D01*
X59953607Y-151546507D01*
X59949474Y-151549610D01*
X59949471Y-151549612D01*
X59779100Y-151677530D01*
X59774965Y-151680635D01*
X59771393Y-151684373D01*
X59663729Y-151797037D01*
X59620629Y-151842138D01*
X59513201Y-151999621D01*
X59458293Y-152044621D01*
X59387768Y-152052792D01*
X59324021Y-152021538D01*
X59303324Y-151997054D01*
X59222822Y-151872617D01*
X59222820Y-151872614D01*
X59220014Y-151868277D01*
X59069670Y-151703051D01*
X59065619Y-151699852D01*
X59065615Y-151699848D01*
X58898414Y-151567800D01*
X58898410Y-151567798D01*
X58894359Y-151564598D01*
X58698789Y-151456638D01*
X58693920Y-151454914D01*
X58693916Y-151454912D01*
X58493087Y-151383795D01*
X58493083Y-151383794D01*
X58488212Y-151382069D01*
X58483119Y-151381162D01*
X58483116Y-151381161D01*
X58273373Y-151343800D01*
X58273367Y-151343799D01*
X58268284Y-151342894D01*
X58194452Y-151341992D01*
X58050081Y-151340228D01*
X58050079Y-151340228D01*
X58044911Y-151340165D01*
X57824091Y-151373955D01*
X57611756Y-151443357D01*
X57413607Y-151546507D01*
X57409474Y-151549610D01*
X57409471Y-151549612D01*
X57239100Y-151677530D01*
X57234965Y-151680635D01*
X57178537Y-151739684D01*
X57154283Y-151765064D01*
X57092759Y-151800494D01*
X57021846Y-151797037D01*
X56964060Y-151755791D01*
X56945207Y-151722243D01*
X56903767Y-151611703D01*
X56900615Y-151603295D01*
X56813261Y-151486739D01*
X56696705Y-151399385D01*
X56560316Y-151348255D01*
X56498134Y-151341500D01*
X54701866Y-151341500D01*
X54639684Y-151348255D01*
X54503295Y-151399385D01*
X54386739Y-151486739D01*
X54299385Y-151603295D01*
X54248255Y-151739684D01*
X54241500Y-151801866D01*
X54241500Y-153365500D01*
X54221498Y-153433621D01*
X54167842Y-153480114D01*
X54115500Y-153491500D01*
X50634500Y-153491500D01*
X50566379Y-153471498D01*
X50519886Y-153417842D01*
X50508500Y-153365500D01*
X50508500Y-148692925D01*
X51496645Y-148692925D01*
X51514570Y-148889888D01*
X51570410Y-149079619D01*
X51573263Y-149085077D01*
X51573265Y-149085081D01*
X51620720Y-149175853D01*
X51662040Y-149254890D01*
X51785968Y-149409025D01*
X51790692Y-149412989D01*
X51797933Y-149419065D01*
X51937474Y-149536154D01*
X51942872Y-149539121D01*
X51942877Y-149539125D01*
X52086180Y-149617905D01*
X52110787Y-149631433D01*
X52116654Y-149633294D01*
X52116656Y-149633295D01*
X52293436Y-149689373D01*
X52299306Y-149691235D01*
X52453227Y-149708500D01*
X53109769Y-149708500D01*
X53112825Y-149708200D01*
X53112832Y-149708200D01*
X53171340Y-149702463D01*
X53256833Y-149694080D01*
X53262734Y-149692298D01*
X53262736Y-149692298D01*
X53336053Y-149670162D01*
X53446169Y-149636916D01*
X53620796Y-149544066D01*
X53707062Y-149473709D01*
X53769287Y-149422960D01*
X53769290Y-149422957D01*
X53774062Y-149419065D01*
X53786344Y-149404219D01*
X53896201Y-149271425D01*
X53896203Y-149271421D01*
X53900130Y-149266675D01*
X53994198Y-149092701D01*
X54052682Y-148903768D01*
X54059658Y-148837392D01*
X54072711Y-148713204D01*
X54072711Y-148713202D01*
X54073355Y-148707075D01*
X54065847Y-148624576D01*
X54055989Y-148516251D01*
X54055988Y-148516248D01*
X54055430Y-148510112D01*
X54028627Y-148419040D01*
X54001330Y-148326294D01*
X53999590Y-148320381D01*
X53989919Y-148301881D01*
X53910813Y-148150568D01*
X53907960Y-148145110D01*
X53784032Y-147990975D01*
X53777727Y-147985684D01*
X53731352Y-147946771D01*
X53675534Y-147899934D01*
X54501500Y-147899934D01*
X54501823Y-147903113D01*
X54511236Y-147995781D01*
X54516619Y-148048780D01*
X54576369Y-148239440D01*
X54673235Y-148414191D01*
X54803261Y-148565896D01*
X54808298Y-148569803D01*
X54808300Y-148569805D01*
X54956093Y-148684445D01*
X54956096Y-148684447D01*
X54961137Y-148688357D01*
X54966863Y-148691175D01*
X54966867Y-148691177D01*
X55134682Y-148773752D01*
X55140411Y-148776571D01*
X55229906Y-148799883D01*
X55327580Y-148825325D01*
X55327583Y-148825325D01*
X55333762Y-148826935D01*
X55427256Y-148831835D01*
X55526911Y-148837058D01*
X55526915Y-148837058D01*
X55533292Y-148837392D01*
X55730848Y-148807514D01*
X55918361Y-148738523D01*
X56088172Y-148633235D01*
X56233344Y-148495953D01*
X56347946Y-148332284D01*
X56427298Y-148148914D01*
X56468156Y-147953334D01*
X56468500Y-147946771D01*
X56468500Y-147500066D01*
X56453381Y-147351220D01*
X56393631Y-147160560D01*
X56296765Y-146985809D01*
X56166739Y-146834104D01*
X56161700Y-146830195D01*
X56013907Y-146715555D01*
X56013904Y-146715553D01*
X56008863Y-146711643D01*
X56003137Y-146708825D01*
X56003133Y-146708823D01*
X55835318Y-146626248D01*
X55829589Y-146623429D01*
X55710797Y-146592486D01*
X55642420Y-146574675D01*
X55642417Y-146574675D01*
X55636238Y-146573065D01*
X55542744Y-146568165D01*
X55443089Y-146562942D01*
X55443085Y-146562942D01*
X55436708Y-146562608D01*
X55239152Y-146592486D01*
X55051639Y-146661477D01*
X54881828Y-146766765D01*
X54736656Y-146904047D01*
X54622054Y-147067716D01*
X54542702Y-147251086D01*
X54501844Y-147446666D01*
X54501500Y-147453229D01*
X54501500Y-147899934D01*
X53675534Y-147899934D01*
X53632526Y-147863846D01*
X53627128Y-147860879D01*
X53627123Y-147860875D01*
X53464608Y-147771533D01*
X53464609Y-147771533D01*
X53459213Y-147768567D01*
X53453346Y-147766706D01*
X53453344Y-147766705D01*
X53276564Y-147710627D01*
X53276563Y-147710627D01*
X53270694Y-147708765D01*
X53116773Y-147691500D01*
X52460231Y-147691500D01*
X52457175Y-147691800D01*
X52457168Y-147691800D01*
X52398660Y-147697537D01*
X52313167Y-147705920D01*
X52307266Y-147707702D01*
X52307264Y-147707702D01*
X52233947Y-147729838D01*
X52123831Y-147763084D01*
X51949204Y-147855934D01*
X51895255Y-147899934D01*
X51800713Y-147977040D01*
X51800710Y-147977043D01*
X51795938Y-147980935D01*
X51792011Y-147985682D01*
X51792009Y-147985684D01*
X51673799Y-148128575D01*
X51673797Y-148128579D01*
X51669870Y-148133325D01*
X51575802Y-148307299D01*
X51517318Y-148496232D01*
X51516674Y-148502357D01*
X51516674Y-148502358D01*
X51502919Y-148633235D01*
X51496645Y-148692925D01*
X50508500Y-148692925D01*
X50508500Y-145200000D01*
X53386496Y-145200000D01*
X53387186Y-145206565D01*
X53403955Y-145366109D01*
X53406458Y-145389928D01*
X53465473Y-145571556D01*
X53560960Y-145736944D01*
X53688747Y-145878866D01*
X53843248Y-145991118D01*
X53849276Y-145993802D01*
X53849278Y-145993803D01*
X54011681Y-146066109D01*
X54017712Y-146068794D01*
X54111112Y-146088647D01*
X54198056Y-146107128D01*
X54198061Y-146107128D01*
X54204513Y-146108500D01*
X54395487Y-146108500D01*
X54401939Y-146107128D01*
X54401944Y-146107128D01*
X54488888Y-146088647D01*
X54582288Y-146068794D01*
X54588319Y-146066109D01*
X54750722Y-145993803D01*
X54750724Y-145993802D01*
X54756752Y-145991118D01*
X54911253Y-145878866D01*
X55039040Y-145736944D01*
X55134527Y-145571556D01*
X55193542Y-145389928D01*
X55196046Y-145366109D01*
X55210907Y-145224707D01*
X55237920Y-145159050D01*
X55247122Y-145148782D01*
X55972091Y-144423813D01*
X56034403Y-144389787D01*
X56105218Y-144394852D01*
X56162054Y-144437399D01*
X56185444Y-144500111D01*
X56186496Y-144500000D01*
X56204235Y-144668774D01*
X56206458Y-144689928D01*
X56265473Y-144871556D01*
X56360960Y-145036944D01*
X56365378Y-145041851D01*
X56365379Y-145041852D01*
X56484325Y-145173955D01*
X56488747Y-145178866D01*
X56643248Y-145291118D01*
X56649276Y-145293802D01*
X56649278Y-145293803D01*
X56811681Y-145366109D01*
X56817712Y-145368794D01*
X56886263Y-145383365D01*
X56998056Y-145407128D01*
X56998061Y-145407128D01*
X57004513Y-145408500D01*
X57195487Y-145408500D01*
X57201939Y-145407128D01*
X57201944Y-145407128D01*
X57313737Y-145383365D01*
X57382288Y-145368794D01*
X57388319Y-145366109D01*
X57550722Y-145293803D01*
X57550724Y-145293802D01*
X57556752Y-145291118D01*
X57711253Y-145178866D01*
X57715675Y-145173955D01*
X57834621Y-145041852D01*
X57834622Y-145041851D01*
X57839040Y-145036944D01*
X57934527Y-144871556D01*
X57993542Y-144689928D01*
X57995766Y-144668774D01*
X58002348Y-144606144D01*
X58010907Y-144524706D01*
X58037920Y-144459050D01*
X58047122Y-144448782D01*
X62292253Y-140203652D01*
X62300539Y-140196112D01*
X62307018Y-140192000D01*
X62318259Y-140180030D01*
X62353643Y-140142349D01*
X62356398Y-140139507D01*
X62376135Y-140119770D01*
X62378615Y-140116573D01*
X62386320Y-140107551D01*
X62411159Y-140081100D01*
X62416586Y-140075321D01*
X62420405Y-140068375D01*
X62420407Y-140068372D01*
X62426348Y-140057566D01*
X62437199Y-140041047D01*
X62444758Y-140031301D01*
X62449614Y-140025041D01*
X62452759Y-140017772D01*
X62452762Y-140017768D01*
X62467174Y-139984463D01*
X62472391Y-139973813D01*
X62493695Y-139935060D01*
X62498733Y-139915437D01*
X62505137Y-139896734D01*
X62510033Y-139885420D01*
X62510033Y-139885419D01*
X62513181Y-139878145D01*
X62514420Y-139870322D01*
X62514423Y-139870312D01*
X62520099Y-139834476D01*
X62522505Y-139822856D01*
X62531528Y-139787711D01*
X62531528Y-139787710D01*
X62533500Y-139780030D01*
X62533500Y-139759776D01*
X62535051Y-139740065D01*
X62536980Y-139727886D01*
X62538220Y-139720057D01*
X62534059Y-139676038D01*
X62533500Y-139664181D01*
X62533500Y-138684500D01*
X62553502Y-138616379D01*
X62607158Y-138569886D01*
X62659500Y-138558500D01*
X64098134Y-138558500D01*
X64160316Y-138551745D01*
X64296705Y-138500615D01*
X64413261Y-138413261D01*
X64500615Y-138296705D01*
X64551745Y-138160316D01*
X64558500Y-138098134D01*
X64558500Y-136301866D01*
X64551745Y-136239684D01*
X64500615Y-136103295D01*
X64413261Y-135986739D01*
X64296705Y-135899385D01*
X64160316Y-135848255D01*
X64098134Y-135841500D01*
X62659500Y-135841500D01*
X62591379Y-135821498D01*
X62544886Y-135767842D01*
X62533500Y-135715500D01*
X62533500Y-121427464D01*
X62553502Y-121359343D01*
X62607158Y-121312850D01*
X62677432Y-121302746D01*
X62742012Y-121332240D01*
X62771566Y-121369869D01*
X62777893Y-121382179D01*
X62848187Y-121518956D01*
X62971035Y-121673953D01*
X62975728Y-121677947D01*
X62975729Y-121677948D01*
X63106963Y-121789636D01*
X63121650Y-121802136D01*
X63294294Y-121898624D01*
X63482392Y-121959740D01*
X63678777Y-121983158D01*
X63684912Y-121982686D01*
X63684914Y-121982686D01*
X63869830Y-121968457D01*
X63869834Y-121968456D01*
X63875972Y-121967984D01*
X64066463Y-121914798D01*
X64071967Y-121912018D01*
X64071969Y-121912017D01*
X64237495Y-121828404D01*
X64237497Y-121828403D01*
X64242996Y-121825625D01*
X64398847Y-121703861D01*
X64528078Y-121554145D01*
X64625769Y-121382179D01*
X64688197Y-121194513D01*
X64712985Y-120998295D01*
X64713380Y-120970000D01*
X64694080Y-120773167D01*
X64681941Y-120732959D01*
X64670162Y-120693947D01*
X64636916Y-120583831D01*
X64544066Y-120409204D01*
X64473709Y-120322938D01*
X64422960Y-120260713D01*
X64422957Y-120260710D01*
X64419065Y-120255938D01*
X64397614Y-120238192D01*
X64271425Y-120133799D01*
X64271421Y-120133797D01*
X64266675Y-120129870D01*
X64149570Y-120066551D01*
X64099162Y-120016557D01*
X64083500Y-119955716D01*
X64083500Y-115935305D01*
X64103502Y-115867184D01*
X64120405Y-115846210D01*
X66175119Y-113791496D01*
X66237431Y-113757470D01*
X66268831Y-113754676D01*
X66456673Y-113761564D01*
X66456677Y-113761564D01*
X66461837Y-113761753D01*
X66466957Y-113761097D01*
X66466959Y-113761097D01*
X66678288Y-113734025D01*
X66678289Y-113734025D01*
X66683416Y-113733368D01*
X66688366Y-113731883D01*
X66892429Y-113670661D01*
X66892434Y-113670659D01*
X66897384Y-113669174D01*
X67097994Y-113570896D01*
X67279860Y-113441173D01*
X67438096Y-113283489D01*
X67497594Y-113200689D01*
X67565435Y-113106277D01*
X67568453Y-113102077D01*
X67667430Y-112901811D01*
X67732370Y-112688069D01*
X67761529Y-112466590D01*
X67763156Y-112400000D01*
X67744852Y-112177361D01*
X67690431Y-111960702D01*
X67601354Y-111755840D01*
X67480014Y-111568277D01*
X67329670Y-111403051D01*
X67325619Y-111399852D01*
X67325615Y-111399848D01*
X67158414Y-111267800D01*
X67158410Y-111267798D01*
X67154359Y-111264598D01*
X66958789Y-111156638D01*
X66953920Y-111154914D01*
X66953916Y-111154912D01*
X66753087Y-111083795D01*
X66753083Y-111083794D01*
X66748212Y-111082069D01*
X66743119Y-111081162D01*
X66743116Y-111081161D01*
X66533373Y-111043800D01*
X66533367Y-111043799D01*
X66528284Y-111042894D01*
X66454452Y-111041992D01*
X66310081Y-111040228D01*
X66310079Y-111040228D01*
X66304911Y-111040165D01*
X66084091Y-111073955D01*
X65871756Y-111143357D01*
X65673607Y-111246507D01*
X65669474Y-111249610D01*
X65669471Y-111249612D01*
X65645247Y-111267800D01*
X65494965Y-111380635D01*
X65340629Y-111542138D01*
X65214743Y-111726680D01*
X65120688Y-111929305D01*
X65060989Y-112144570D01*
X65037251Y-112366695D01*
X65037548Y-112371848D01*
X65037548Y-112371851D01*
X65043011Y-112466590D01*
X65050110Y-112589715D01*
X65051247Y-112594761D01*
X65051248Y-112594767D01*
X65071119Y-112682939D01*
X65099222Y-112807639D01*
X65101166Y-112812426D01*
X65104325Y-112820206D01*
X65111422Y-112890847D01*
X65076678Y-112956707D01*
X62936541Y-115096844D01*
X62930276Y-115102698D01*
X62888330Y-115139290D01*
X62852934Y-115189655D01*
X62849022Y-115194920D01*
X62811065Y-115243328D01*
X62807939Y-115250252D01*
X62805329Y-115254561D01*
X62799958Y-115263976D01*
X62797573Y-115268424D01*
X62793205Y-115274639D01*
X62790445Y-115281718D01*
X62776893Y-115316478D01*
X62733513Y-115372680D01*
X62666634Y-115396507D01*
X62597490Y-115380394D01*
X62548034Y-115329457D01*
X62533500Y-115270709D01*
X62533500Y-103999557D01*
X62553502Y-103931436D01*
X62585439Y-103897621D01*
X62605909Y-103882749D01*
X62605911Y-103882747D01*
X62611253Y-103878866D01*
X62739040Y-103736944D01*
X62834527Y-103571556D01*
X62893542Y-103389928D01*
X62898563Y-103342161D01*
X62912814Y-103206565D01*
X62913504Y-103200000D01*
X62903743Y-103107128D01*
X62894232Y-103016635D01*
X62894232Y-103016633D01*
X62893542Y-103010072D01*
X62834527Y-102828444D01*
X62739040Y-102663056D01*
X62611253Y-102521134D01*
X62456752Y-102408882D01*
X62450724Y-102406198D01*
X62450722Y-102406197D01*
X62288319Y-102333891D01*
X62288318Y-102333891D01*
X62282288Y-102331206D01*
X62188888Y-102311353D01*
X62101944Y-102292872D01*
X62101939Y-102292872D01*
X62095487Y-102291500D01*
X62068045Y-102291500D01*
X61999924Y-102271498D01*
X61953431Y-102217842D01*
X61943327Y-102147568D01*
X61958926Y-102102500D01*
X62031223Y-101977279D01*
X62031224Y-101977278D01*
X62034527Y-101971556D01*
X62093542Y-101789928D01*
X62113504Y-101600000D01*
X62093542Y-101410072D01*
X62034527Y-101228444D01*
X61999790Y-101168277D01*
X61942341Y-101068774D01*
X61939040Y-101063056D01*
X61811253Y-100921134D01*
X61656752Y-100808882D01*
X61650724Y-100806198D01*
X61650722Y-100806197D01*
X61488319Y-100733891D01*
X61488318Y-100733891D01*
X61482288Y-100731206D01*
X61388888Y-100711353D01*
X61301944Y-100692872D01*
X61301939Y-100692872D01*
X61295487Y-100691500D01*
X61104513Y-100691500D01*
X61098061Y-100692872D01*
X61098056Y-100692872D01*
X61011112Y-100711353D01*
X60917712Y-100731206D01*
X60911682Y-100733891D01*
X60911681Y-100733891D01*
X60749278Y-100806197D01*
X60749276Y-100806198D01*
X60743248Y-100808882D01*
X60588747Y-100921134D01*
X60460960Y-101063056D01*
X60457659Y-101068774D01*
X60400211Y-101168277D01*
X60365473Y-101228444D01*
X60306458Y-101410072D01*
X60286496Y-101600000D01*
X60306458Y-101789928D01*
X60365473Y-101971556D01*
X60460960Y-102136944D01*
X60534137Y-102218215D01*
X60564853Y-102282221D01*
X60566500Y-102302524D01*
X60566500Y-133558025D01*
X60546498Y-133626146D01*
X60529595Y-133647120D01*
X59007747Y-135168968D01*
X58999461Y-135176508D01*
X58992982Y-135180620D01*
X58987557Y-135186397D01*
X58946357Y-135230271D01*
X58943602Y-135233113D01*
X58923865Y-135252850D01*
X58921385Y-135256047D01*
X58913682Y-135265067D01*
X58883414Y-135297299D01*
X58879595Y-135304245D01*
X58879593Y-135304248D01*
X58873652Y-135315054D01*
X58862801Y-135331573D01*
X58850386Y-135347579D01*
X58847241Y-135354848D01*
X58847238Y-135354852D01*
X58832826Y-135388157D01*
X58827609Y-135398807D01*
X58806305Y-135437560D01*
X58804334Y-135445235D01*
X58804334Y-135445236D01*
X58801267Y-135457182D01*
X58794863Y-135475886D01*
X58786819Y-135494475D01*
X58785580Y-135502298D01*
X58785577Y-135502308D01*
X58779901Y-135538144D01*
X58777495Y-135549764D01*
X58766500Y-135592590D01*
X58766500Y-135612844D01*
X58764949Y-135632554D01*
X58761780Y-135652563D01*
X58762526Y-135660455D01*
X58765941Y-135696581D01*
X58766500Y-135708439D01*
X58766500Y-135809412D01*
X58746498Y-135877533D01*
X58692842Y-135924026D01*
X58622568Y-135934130D01*
X58598440Y-135928185D01*
X58473087Y-135883795D01*
X58473083Y-135883794D01*
X58468212Y-135882069D01*
X58463119Y-135881162D01*
X58463116Y-135881161D01*
X58253373Y-135843800D01*
X58253367Y-135843799D01*
X58248284Y-135842894D01*
X58174452Y-135841992D01*
X58030081Y-135840228D01*
X58030079Y-135840228D01*
X58024911Y-135840165D01*
X57804091Y-135873955D01*
X57591756Y-135943357D01*
X57393607Y-136046507D01*
X57389474Y-136049610D01*
X57389471Y-136049612D01*
X57219100Y-136177530D01*
X57214965Y-136180635D01*
X57060629Y-136342138D01*
X56953201Y-136499621D01*
X56898293Y-136544621D01*
X56827768Y-136552792D01*
X56764021Y-136521538D01*
X56743324Y-136497054D01*
X56662822Y-136372617D01*
X56662820Y-136372614D01*
X56660014Y-136368277D01*
X56509670Y-136203051D01*
X56505619Y-136199852D01*
X56505615Y-136199848D01*
X56338414Y-136067800D01*
X56338410Y-136067798D01*
X56334359Y-136064598D01*
X56138789Y-135956638D01*
X56133920Y-135954914D01*
X56133916Y-135954912D01*
X55933087Y-135883795D01*
X55933083Y-135883794D01*
X55928212Y-135882069D01*
X55923119Y-135881162D01*
X55923116Y-135881161D01*
X55713373Y-135843800D01*
X55713367Y-135843799D01*
X55708284Y-135842894D01*
X55634452Y-135841992D01*
X55490081Y-135840228D01*
X55490079Y-135840228D01*
X55484911Y-135840165D01*
X55264091Y-135873955D01*
X55051756Y-135943357D01*
X54853607Y-136046507D01*
X54849474Y-136049610D01*
X54849471Y-136049612D01*
X54679100Y-136177530D01*
X54674965Y-136180635D01*
X54520629Y-136342138D01*
X54394743Y-136526680D01*
X54300688Y-136729305D01*
X54240989Y-136944570D01*
X54217251Y-137166695D01*
X54230110Y-137389715D01*
X54231247Y-137394761D01*
X54231248Y-137394767D01*
X54255304Y-137501508D01*
X54279222Y-137607639D01*
X54363266Y-137814616D01*
X54414942Y-137898944D01*
X54477291Y-138000688D01*
X54479987Y-138005088D01*
X54626250Y-138173938D01*
X54798126Y-138316632D01*
X54991000Y-138429338D01*
X55199692Y-138509030D01*
X55204760Y-138510061D01*
X55204763Y-138510062D01*
X55266965Y-138522717D01*
X55418597Y-138553567D01*
X55423772Y-138553757D01*
X55423774Y-138553757D01*
X55636673Y-138561564D01*
X55636677Y-138561564D01*
X55641837Y-138561753D01*
X55646957Y-138561097D01*
X55646959Y-138561097D01*
X55858288Y-138534025D01*
X55858289Y-138534025D01*
X55863416Y-138533368D01*
X55875022Y-138529886D01*
X56072429Y-138470661D01*
X56072434Y-138470659D01*
X56077384Y-138469174D01*
X56277994Y-138370896D01*
X56459860Y-138241173D01*
X56618096Y-138083489D01*
X56677594Y-138000689D01*
X56748453Y-137902077D01*
X56749776Y-137903028D01*
X56796645Y-137859857D01*
X56866580Y-137847625D01*
X56932026Y-137875144D01*
X56959875Y-137906994D01*
X57019987Y-138005088D01*
X57166250Y-138173938D01*
X57338126Y-138316632D01*
X57531000Y-138429338D01*
X57739692Y-138509030D01*
X57744760Y-138510061D01*
X57744763Y-138510062D01*
X57806965Y-138522717D01*
X57958597Y-138553567D01*
X57963772Y-138553757D01*
X57963774Y-138553757D01*
X58176673Y-138561564D01*
X58176677Y-138561564D01*
X58181837Y-138561753D01*
X58186957Y-138561097D01*
X58186959Y-138561097D01*
X58398288Y-138534025D01*
X58398289Y-138534025D01*
X58403416Y-138533368D01*
X58415022Y-138529886D01*
X58604292Y-138473102D01*
X58675288Y-138472686D01*
X58735238Y-138510718D01*
X58765110Y-138575124D01*
X58766500Y-138593788D01*
X58766500Y-139785405D01*
X58746498Y-139853526D01*
X58729595Y-139874500D01*
X56529662Y-142074433D01*
X56467350Y-142108459D01*
X56396535Y-142103394D01*
X56339699Y-142060847D01*
X56330365Y-142046425D01*
X56299858Y-141991389D01*
X56296765Y-141985809D01*
X56166739Y-141834104D01*
X56161700Y-141830195D01*
X56013907Y-141715555D01*
X56013904Y-141715553D01*
X56008863Y-141711643D01*
X56003137Y-141708825D01*
X56003133Y-141708823D01*
X55835318Y-141626248D01*
X55829589Y-141623429D01*
X55710797Y-141592486D01*
X55642420Y-141574675D01*
X55642417Y-141574675D01*
X55636238Y-141573065D01*
X55542744Y-141568165D01*
X55443089Y-141562942D01*
X55443085Y-141562942D01*
X55436708Y-141562608D01*
X55239152Y-141592486D01*
X55051639Y-141661477D01*
X54881828Y-141766765D01*
X54736656Y-141904047D01*
X54622054Y-142067716D01*
X54542702Y-142251086D01*
X54501844Y-142446666D01*
X54501500Y-142453229D01*
X54501500Y-142899934D01*
X54516619Y-143048780D01*
X54576369Y-143239440D01*
X54673235Y-143414191D01*
X54803261Y-143565896D01*
X54822642Y-143580929D01*
X54864208Y-143638484D01*
X54868060Y-143709376D01*
X54834511Y-143769584D01*
X54349500Y-144254595D01*
X54287188Y-144288621D01*
X54260405Y-144291500D01*
X54204513Y-144291500D01*
X54198061Y-144292872D01*
X54198056Y-144292872D01*
X54117139Y-144310072D01*
X54017712Y-144331206D01*
X54011682Y-144333891D01*
X54011681Y-144333891D01*
X53849278Y-144406197D01*
X53849276Y-144406198D01*
X53843248Y-144408882D01*
X53688747Y-144521134D01*
X53560960Y-144663056D01*
X53465473Y-144828444D01*
X53406458Y-145010072D01*
X53405768Y-145016633D01*
X53405768Y-145016635D01*
X53403118Y-145041852D01*
X53386496Y-145200000D01*
X50508500Y-145200000D01*
X50508500Y-141692925D01*
X51496645Y-141692925D01*
X51503059Y-141763403D01*
X51509138Y-141830195D01*
X51514570Y-141889888D01*
X51516308Y-141895794D01*
X51516309Y-141895798D01*
X51542801Y-141985809D01*
X51570410Y-142079619D01*
X51573263Y-142085077D01*
X51573265Y-142085081D01*
X51582839Y-142103394D01*
X51662040Y-142254890D01*
X51785968Y-142409025D01*
X51790692Y-142412989D01*
X51797933Y-142419065D01*
X51937474Y-142536154D01*
X51942872Y-142539121D01*
X51942877Y-142539125D01*
X52086180Y-142617905D01*
X52110787Y-142631433D01*
X52116654Y-142633294D01*
X52116656Y-142633295D01*
X52293436Y-142689373D01*
X52299306Y-142691235D01*
X52453227Y-142708500D01*
X53109769Y-142708500D01*
X53112825Y-142708200D01*
X53112832Y-142708200D01*
X53171340Y-142702463D01*
X53256833Y-142694080D01*
X53262734Y-142692298D01*
X53262736Y-142692298D01*
X53336053Y-142670162D01*
X53446169Y-142636916D01*
X53620796Y-142544066D01*
X53707062Y-142473709D01*
X53769287Y-142422960D01*
X53769290Y-142422957D01*
X53774062Y-142419065D01*
X53786344Y-142404219D01*
X53896201Y-142271425D01*
X53896203Y-142271421D01*
X53900130Y-142266675D01*
X53994198Y-142092701D01*
X54052682Y-141903768D01*
X54066621Y-141771147D01*
X54072711Y-141713204D01*
X54072711Y-141713202D01*
X54073355Y-141707075D01*
X54055430Y-141510112D01*
X53999590Y-141320381D01*
X53989919Y-141301881D01*
X53910813Y-141150568D01*
X53907960Y-141145110D01*
X53784032Y-140990975D01*
X53777727Y-140985684D01*
X53761334Y-140971929D01*
X53632526Y-140863846D01*
X53627128Y-140860879D01*
X53627123Y-140860875D01*
X53464608Y-140771533D01*
X53464609Y-140771533D01*
X53459213Y-140768567D01*
X53453346Y-140766706D01*
X53453344Y-140766705D01*
X53276564Y-140710627D01*
X53276563Y-140710627D01*
X53270694Y-140708765D01*
X53116773Y-140691500D01*
X52460231Y-140691500D01*
X52457175Y-140691800D01*
X52457168Y-140691800D01*
X52398660Y-140697537D01*
X52313167Y-140705920D01*
X52307266Y-140707702D01*
X52307264Y-140707702D01*
X52233947Y-140729838D01*
X52123831Y-140763084D01*
X51949204Y-140855934D01*
X51862938Y-140926291D01*
X51800713Y-140977040D01*
X51800710Y-140977043D01*
X51795938Y-140980935D01*
X51792011Y-140985682D01*
X51792009Y-140985684D01*
X51673799Y-141128575D01*
X51673797Y-141128579D01*
X51669870Y-141133325D01*
X51575802Y-141307299D01*
X51517318Y-141496232D01*
X51516674Y-141502357D01*
X51516674Y-141502358D01*
X51509243Y-141573065D01*
X51496645Y-141692925D01*
X50508500Y-141692925D01*
X50508500Y-112366695D01*
X51037251Y-112366695D01*
X51037548Y-112371848D01*
X51037548Y-112371851D01*
X51043011Y-112466590D01*
X51050110Y-112589715D01*
X51051247Y-112594761D01*
X51051248Y-112594767D01*
X51071119Y-112682939D01*
X51099222Y-112807639D01*
X51183266Y-113014616D01*
X51299987Y-113205088D01*
X51446250Y-113373938D01*
X51618126Y-113516632D01*
X51811000Y-113629338D01*
X52019692Y-113709030D01*
X52024760Y-113710061D01*
X52024763Y-113710062D01*
X52132017Y-113731883D01*
X52238597Y-113753567D01*
X52243772Y-113753757D01*
X52243774Y-113753757D01*
X52456673Y-113761564D01*
X52456677Y-113761564D01*
X52461837Y-113761753D01*
X52518641Y-113754476D01*
X52588749Y-113765660D01*
X52623745Y-113790360D01*
X54679595Y-115846210D01*
X54713621Y-115908522D01*
X54716500Y-115935305D01*
X54716500Y-119862250D01*
X54696498Y-119930371D01*
X54642842Y-119976864D01*
X54626075Y-119983124D01*
X54584306Y-119995417D01*
X54507881Y-120017910D01*
X54502423Y-120020763D01*
X54502419Y-120020765D01*
X54414838Y-120066552D01*
X54332610Y-120109540D01*
X54178475Y-120233468D01*
X54051346Y-120384974D01*
X54048379Y-120390372D01*
X54048375Y-120390377D01*
X54035034Y-120414645D01*
X53956067Y-120558287D01*
X53954206Y-120564154D01*
X53954205Y-120564156D01*
X53898127Y-120740936D01*
X53896265Y-120746806D01*
X53874219Y-120943351D01*
X53890768Y-121140434D01*
X53900936Y-121175893D01*
X53940208Y-121312850D01*
X53945283Y-121330550D01*
X54035687Y-121506456D01*
X54158535Y-121661453D01*
X54163228Y-121665447D01*
X54163229Y-121665448D01*
X54177917Y-121677948D01*
X54309150Y-121789636D01*
X54481794Y-121886124D01*
X54669892Y-121947240D01*
X54866277Y-121970658D01*
X54872412Y-121970186D01*
X54872414Y-121970186D01*
X55057330Y-121955957D01*
X55057334Y-121955956D01*
X55063472Y-121955484D01*
X55253963Y-121902298D01*
X55259467Y-121899518D01*
X55259469Y-121899517D01*
X55424995Y-121815904D01*
X55424997Y-121815903D01*
X55430496Y-121813125D01*
X55586347Y-121691361D01*
X55700759Y-121558813D01*
X55711549Y-121546313D01*
X55711550Y-121546311D01*
X55715578Y-121541645D01*
X55813269Y-121369679D01*
X55875697Y-121182013D01*
X55900485Y-120985795D01*
X55900856Y-120959202D01*
X55923757Y-120888512D01*
X55947042Y-120855380D01*
X55950972Y-120850088D01*
X55984251Y-120807646D01*
X55984252Y-120807645D01*
X55988935Y-120801672D01*
X55992060Y-120794751D01*
X55994673Y-120790436D01*
X56000042Y-120781024D01*
X56002427Y-120776576D01*
X56006795Y-120770361D01*
X56029142Y-120713044D01*
X56031697Y-120706966D01*
X56053886Y-120657823D01*
X56057014Y-120650896D01*
X56058399Y-120643424D01*
X56059919Y-120638573D01*
X56062862Y-120628243D01*
X56064130Y-120623304D01*
X56066889Y-120616228D01*
X56067881Y-120608695D01*
X56074922Y-120555215D01*
X56075953Y-120548703D01*
X56087160Y-120488233D01*
X56083709Y-120428375D01*
X56083500Y-120421123D01*
X56083500Y-115628056D01*
X56083792Y-115619486D01*
X56083863Y-115618443D01*
X56087577Y-115563966D01*
X56076997Y-115503342D01*
X56076034Y-115496819D01*
X56069558Y-115443308D01*
X56069558Y-115443307D01*
X56068645Y-115435765D01*
X56065959Y-115428655D01*
X56064754Y-115423752D01*
X56061886Y-115413266D01*
X56060439Y-115408474D01*
X56059134Y-115400996D01*
X56056082Y-115394043D01*
X56034405Y-115344659D01*
X56031914Y-115338554D01*
X56012855Y-115288118D01*
X56012853Y-115288115D01*
X56010169Y-115281011D01*
X56005869Y-115274754D01*
X56003533Y-115270286D01*
X55998275Y-115260840D01*
X55995693Y-115256474D01*
X55992638Y-115249515D01*
X55955177Y-115200696D01*
X55951314Y-115195377D01*
X55920769Y-115150935D01*
X55916466Y-115144674D01*
X55871676Y-115104767D01*
X55866402Y-115099787D01*
X53721090Y-112954475D01*
X53687064Y-112892163D01*
X53689627Y-112828751D01*
X53692224Y-112820206D01*
X53732370Y-112688069D01*
X53761529Y-112466590D01*
X53763156Y-112400000D01*
X53744852Y-112177361D01*
X53690431Y-111960702D01*
X53601354Y-111755840D01*
X53480014Y-111568277D01*
X53329670Y-111403051D01*
X53325619Y-111399852D01*
X53325615Y-111399848D01*
X53158414Y-111267800D01*
X53158410Y-111267798D01*
X53154359Y-111264598D01*
X52958789Y-111156638D01*
X52953920Y-111154914D01*
X52953916Y-111154912D01*
X52753087Y-111083795D01*
X52753083Y-111083794D01*
X52748212Y-111082069D01*
X52743119Y-111081162D01*
X52743116Y-111081161D01*
X52533373Y-111043800D01*
X52533367Y-111043799D01*
X52528284Y-111042894D01*
X52454452Y-111041992D01*
X52310081Y-111040228D01*
X52310079Y-111040228D01*
X52304911Y-111040165D01*
X52084091Y-111073955D01*
X51871756Y-111143357D01*
X51673607Y-111246507D01*
X51669474Y-111249610D01*
X51669471Y-111249612D01*
X51645247Y-111267800D01*
X51494965Y-111380635D01*
X51340629Y-111542138D01*
X51214743Y-111726680D01*
X51120688Y-111929305D01*
X51060989Y-112144570D01*
X51037251Y-112366695D01*
X50508500Y-112366695D01*
X50508500Y-108524853D01*
X51639977Y-108524853D01*
X51645258Y-108531907D01*
X51806756Y-108626279D01*
X51816042Y-108630729D01*
X52015001Y-108706703D01*
X52024899Y-108709579D01*
X52233595Y-108752038D01*
X52243823Y-108753257D01*
X52456650Y-108761062D01*
X52466936Y-108760595D01*
X52678185Y-108733534D01*
X52688262Y-108731392D01*
X52892255Y-108670191D01*
X52901842Y-108666433D01*
X53093098Y-108572738D01*
X53101944Y-108567465D01*
X53149247Y-108533723D01*
X53157648Y-108523023D01*
X53150660Y-108509870D01*
X52412812Y-107772022D01*
X52398868Y-107764408D01*
X52397035Y-107764539D01*
X52390420Y-107768790D01*
X51646737Y-108512473D01*
X51639977Y-108524853D01*
X50508500Y-108524853D01*
X50508500Y-107371863D01*
X51038050Y-107371863D01*
X51050309Y-107584477D01*
X51051745Y-107594697D01*
X51098565Y-107802446D01*
X51101645Y-107812275D01*
X51181770Y-108009603D01*
X51186413Y-108018794D01*
X51266460Y-108149420D01*
X51276916Y-108158880D01*
X51285694Y-108155096D01*
X52027978Y-107412812D01*
X52034356Y-107401132D01*
X52764408Y-107401132D01*
X52764539Y-107402965D01*
X52768790Y-107409580D01*
X53510474Y-108151264D01*
X53522484Y-108157823D01*
X53534223Y-108148855D01*
X53565004Y-108106019D01*
X53570315Y-108097180D01*
X53664670Y-107906267D01*
X53668469Y-107896672D01*
X53730376Y-107692915D01*
X53732555Y-107682834D01*
X53760590Y-107469887D01*
X53761109Y-107463212D01*
X53762572Y-107403364D01*
X53762378Y-107396646D01*
X53744781Y-107182604D01*
X53743096Y-107172424D01*
X53691214Y-106965875D01*
X53687894Y-106956124D01*
X53602972Y-106760814D01*
X53598105Y-106751739D01*
X53533063Y-106651197D01*
X53522377Y-106641995D01*
X53512812Y-106646398D01*
X52772022Y-107387188D01*
X52764408Y-107401132D01*
X52034356Y-107401132D01*
X52035592Y-107398868D01*
X52035461Y-107397035D01*
X52031210Y-107390420D01*
X51289849Y-106649059D01*
X51278313Y-106642759D01*
X51266031Y-106652382D01*
X51218089Y-106722662D01*
X51213004Y-106731613D01*
X51123338Y-106924783D01*
X51119775Y-106934470D01*
X51062864Y-107139681D01*
X51060933Y-107149800D01*
X51038302Y-107361574D01*
X51038050Y-107371863D01*
X50508500Y-107371863D01*
X50508500Y-106276427D01*
X51641223Y-106276427D01*
X51647968Y-106288758D01*
X52387188Y-107027978D01*
X52401132Y-107035592D01*
X52402965Y-107035461D01*
X52409580Y-107031210D01*
X53153389Y-106287401D01*
X53160410Y-106274544D01*
X53153611Y-106265213D01*
X53149554Y-106262518D01*
X52963117Y-106159599D01*
X52953705Y-106155369D01*
X52752959Y-106084280D01*
X52742989Y-106081646D01*
X52533327Y-106044301D01*
X52523073Y-106043331D01*
X52310116Y-106040728D01*
X52299832Y-106041448D01*
X52089321Y-106073661D01*
X52079293Y-106076050D01*
X51876868Y-106142212D01*
X51867359Y-106146209D01*
X51678466Y-106244540D01*
X51669734Y-106250039D01*
X51649677Y-106265099D01*
X51641223Y-106276427D01*
X50508500Y-106276427D01*
X50508500Y-103008594D01*
X50528502Y-102940473D01*
X50582158Y-102893980D01*
X50652432Y-102883876D01*
X50717012Y-102913370D01*
X50723595Y-102919499D01*
X52536911Y-104732816D01*
X54348221Y-106544126D01*
X54382247Y-106606438D01*
X54384436Y-106620049D01*
X54401801Y-106785271D01*
X54460816Y-106966899D01*
X54556303Y-107132287D01*
X54560721Y-107137194D01*
X54560722Y-107137195D01*
X54679668Y-107269298D01*
X54684090Y-107274209D01*
X54783186Y-107346207D01*
X54818499Y-107371863D01*
X54838591Y-107386461D01*
X54844619Y-107389145D01*
X54844621Y-107389146D01*
X55007024Y-107461452D01*
X55013055Y-107464137D01*
X55103849Y-107483436D01*
X55193399Y-107502471D01*
X55193404Y-107502471D01*
X55199856Y-107503843D01*
X55390830Y-107503843D01*
X55397282Y-107502471D01*
X55397287Y-107502471D01*
X55486837Y-107483436D01*
X55577631Y-107464137D01*
X55583662Y-107461452D01*
X55746065Y-107389146D01*
X55746067Y-107389145D01*
X55752095Y-107386461D01*
X55772188Y-107371863D01*
X55807500Y-107346207D01*
X55906596Y-107274209D01*
X55911018Y-107269298D01*
X56029964Y-107137195D01*
X56029965Y-107137194D01*
X56034383Y-107132287D01*
X56129870Y-106966899D01*
X56188885Y-106785271D01*
X56195466Y-106722662D01*
X56208157Y-106601908D01*
X56208847Y-106595343D01*
X56188885Y-106405415D01*
X56129870Y-106223787D01*
X56034383Y-106058399D01*
X55906596Y-105916477D01*
X55752095Y-105804225D01*
X55746067Y-105801541D01*
X55746065Y-105801540D01*
X55583662Y-105729234D01*
X55583661Y-105729234D01*
X55577631Y-105726549D01*
X55484230Y-105706696D01*
X55397287Y-105688215D01*
X55397282Y-105688215D01*
X55390830Y-105686843D01*
X55334937Y-105686843D01*
X55266816Y-105666841D01*
X55245842Y-105649938D01*
X54260599Y-104664695D01*
X53000376Y-103404471D01*
X52966351Y-103342161D01*
X52971416Y-103271346D01*
X53013963Y-103214510D01*
X53034037Y-103202228D01*
X53097994Y-103170896D01*
X53279860Y-103041173D01*
X53438096Y-102883489D01*
X53462617Y-102849365D01*
X53565435Y-102706277D01*
X53568453Y-102702077D01*
X53570746Y-102697437D01*
X53572446Y-102694608D01*
X53624674Y-102646518D01*
X53680451Y-102633500D01*
X55928490Y-102633500D01*
X55996611Y-102653502D01*
X56037608Y-102696499D01*
X56057656Y-102731222D01*
X56060960Y-102736944D01*
X56188747Y-102878866D01*
X56273541Y-102940473D01*
X56335794Y-102985702D01*
X56343248Y-102991118D01*
X56349276Y-102993802D01*
X56349278Y-102993803D01*
X56467252Y-103046328D01*
X56517712Y-103068794D01*
X56611112Y-103088647D01*
X56698056Y-103107128D01*
X56698061Y-103107128D01*
X56704513Y-103108500D01*
X56895487Y-103108500D01*
X56901939Y-103107128D01*
X56901944Y-103107128D01*
X56988888Y-103088647D01*
X57082288Y-103068794D01*
X57132748Y-103046328D01*
X57250722Y-102993803D01*
X57250724Y-102993802D01*
X57256752Y-102991118D01*
X57264207Y-102985702D01*
X57326459Y-102940473D01*
X57411253Y-102878866D01*
X57510180Y-102768997D01*
X57570622Y-102731759D01*
X57641606Y-102733111D01*
X57692908Y-102764214D01*
X58479595Y-103550901D01*
X58513621Y-103613213D01*
X58516500Y-103639996D01*
X58516500Y-107599689D01*
X58496498Y-107667810D01*
X58487028Y-107680672D01*
X58363846Y-107827474D01*
X58360879Y-107832872D01*
X58360875Y-107832877D01*
X58322979Y-107901811D01*
X58268567Y-108000787D01*
X58266706Y-108006654D01*
X58266705Y-108006656D01*
X58247524Y-108067123D01*
X58208765Y-108189306D01*
X58186719Y-108385851D01*
X58188961Y-108412556D01*
X58199003Y-108532136D01*
X58203268Y-108582934D01*
X58216973Y-108630729D01*
X58254544Y-108761753D01*
X58257783Y-108773050D01*
X58348187Y-108948956D01*
X58471035Y-109103953D01*
X58621650Y-109232136D01*
X58794294Y-109328624D01*
X58982392Y-109389740D01*
X59178777Y-109413158D01*
X59184912Y-109412686D01*
X59184914Y-109412686D01*
X59369830Y-109398457D01*
X59369834Y-109398456D01*
X59375972Y-109397984D01*
X59566463Y-109344798D01*
X59571967Y-109342018D01*
X59571969Y-109342017D01*
X59737495Y-109258404D01*
X59737497Y-109258403D01*
X59742996Y-109255625D01*
X59898847Y-109133861D01*
X60028078Y-108984145D01*
X60125769Y-108812179D01*
X60188197Y-108624513D01*
X60212985Y-108428295D01*
X60213380Y-108400000D01*
X60194080Y-108203167D01*
X60179567Y-108155096D01*
X60138697Y-108019731D01*
X60136916Y-108013831D01*
X60044066Y-107839204D01*
X59949363Y-107723086D01*
X59922958Y-107690711D01*
X59922957Y-107690710D01*
X59919065Y-107685938D01*
X59919068Y-107685935D01*
X59886286Y-107625392D01*
X59883500Y-107599043D01*
X59883500Y-103332747D01*
X59883792Y-103324177D01*
X59883863Y-103323134D01*
X59887577Y-103268657D01*
X59876997Y-103208033D01*
X59876034Y-103201510D01*
X59869558Y-103147999D01*
X59869558Y-103147998D01*
X59868645Y-103140456D01*
X59865959Y-103133346D01*
X59864754Y-103128443D01*
X59861895Y-103117991D01*
X59860441Y-103113175D01*
X59859134Y-103105687D01*
X59834390Y-103049318D01*
X59831925Y-103043279D01*
X59810169Y-102985702D01*
X59805864Y-102979439D01*
X59803517Y-102974949D01*
X59798257Y-102965498D01*
X59795690Y-102961157D01*
X59792639Y-102954206D01*
X59788020Y-102948186D01*
X59788015Y-102948178D01*
X59755181Y-102905389D01*
X59751319Y-102900075D01*
X59716466Y-102849365D01*
X59671676Y-102809458D01*
X59666402Y-102804478D01*
X54720405Y-97858481D01*
X54686379Y-97796169D01*
X54683500Y-97769386D01*
X54683500Y-95801963D01*
X54703502Y-95733842D01*
X54757158Y-95687349D01*
X54827432Y-95677245D01*
X54835697Y-95678716D01*
X54910556Y-95694628D01*
X54910561Y-95694628D01*
X54917013Y-95696000D01*
X55107987Y-95696000D01*
X55114439Y-95694628D01*
X55114444Y-95694628D01*
X55201387Y-95676147D01*
X55294788Y-95656294D01*
X55341499Y-95635497D01*
X55463222Y-95581303D01*
X55463224Y-95581302D01*
X55469252Y-95578618D01*
X55623753Y-95466366D01*
X55751540Y-95324444D01*
X55847027Y-95159056D01*
X55906042Y-94977428D01*
X55914479Y-94897160D01*
X55925314Y-94794065D01*
X55926004Y-94787500D01*
X55917698Y-94708469D01*
X55906732Y-94604135D01*
X55906732Y-94604133D01*
X55906042Y-94597572D01*
X55847027Y-94415944D01*
X55840085Y-94403919D01*
X55754843Y-94256277D01*
X55751540Y-94250556D01*
X55747120Y-94245647D01*
X55747117Y-94245643D01*
X55728365Y-94224817D01*
X55697647Y-94160810D01*
X55696000Y-94140506D01*
X55696000Y-93722805D01*
X55716002Y-93654684D01*
X55732905Y-93633710D01*
X56846210Y-92520405D01*
X56908522Y-92486379D01*
X56935305Y-92483500D01*
X60971955Y-92483500D01*
X60980524Y-92483792D01*
X61028458Y-92487060D01*
X61028462Y-92487060D01*
X61036034Y-92487576D01*
X61043511Y-92486271D01*
X61043514Y-92486271D01*
X61096647Y-92476998D01*
X61103171Y-92476035D01*
X61156692Y-92469558D01*
X61156693Y-92469558D01*
X61164235Y-92468645D01*
X61164255Y-92468807D01*
X61231371Y-92471812D01*
X61289320Y-92512829D01*
X61315895Y-92578664D01*
X61316500Y-92590999D01*
X61316500Y-92971955D01*
X61316208Y-92980523D01*
X61312424Y-93036034D01*
X61313729Y-93043511D01*
X61313729Y-93043514D01*
X61323002Y-93096647D01*
X61323965Y-93103171D01*
X61331355Y-93164235D01*
X61334042Y-93171345D01*
X61335246Y-93176248D01*
X61338114Y-93186734D01*
X61339561Y-93191526D01*
X61340866Y-93199004D01*
X61343918Y-93205956D01*
X61343918Y-93205957D01*
X61365595Y-93255341D01*
X61368086Y-93261446D01*
X61387145Y-93311882D01*
X61389831Y-93318989D01*
X61394131Y-93325246D01*
X61396467Y-93329714D01*
X61401725Y-93339160D01*
X61404307Y-93343526D01*
X61407362Y-93350485D01*
X61444823Y-93399304D01*
X61448686Y-93404623D01*
X61475283Y-93443321D01*
X61483534Y-93455326D01*
X61489203Y-93460377D01*
X61528323Y-93495232D01*
X61533598Y-93500213D01*
X62706844Y-94673459D01*
X62712698Y-94679724D01*
X62749290Y-94721670D01*
X62799626Y-94757046D01*
X62804912Y-94760972D01*
X62847117Y-94794065D01*
X62853328Y-94798935D01*
X62860249Y-94802060D01*
X62864564Y-94804673D01*
X62873976Y-94810042D01*
X62878424Y-94812427D01*
X62884639Y-94816795D01*
X62891716Y-94819554D01*
X62941952Y-94839140D01*
X62948034Y-94841697D01*
X62972368Y-94852684D01*
X63004104Y-94867014D01*
X63011576Y-94868399D01*
X63016427Y-94869919D01*
X63026757Y-94872862D01*
X63031696Y-94874130D01*
X63038772Y-94876889D01*
X63046303Y-94877881D01*
X63046305Y-94877881D01*
X63099785Y-94884922D01*
X63106279Y-94885950D01*
X63166767Y-94897160D01*
X63174348Y-94896723D01*
X63174349Y-94896723D01*
X63226631Y-94893709D01*
X63233883Y-94893500D01*
X64864695Y-94893500D01*
X64932816Y-94913502D01*
X64953790Y-94930405D01*
X65204595Y-95181210D01*
X65238621Y-95243522D01*
X65241500Y-95270305D01*
X65241500Y-96508134D01*
X65248255Y-96570316D01*
X65299385Y-96706705D01*
X65386739Y-96823261D01*
X65503295Y-96910615D01*
X65639684Y-96961745D01*
X65701866Y-96968500D01*
X65790500Y-96968500D01*
X65858621Y-96988502D01*
X65905114Y-97042158D01*
X65916500Y-97094500D01*
X65916500Y-104664695D01*
X65896498Y-104732816D01*
X65879595Y-104753790D01*
X63982963Y-106650422D01*
X63920651Y-106684448D01*
X63905291Y-106686807D01*
X63798939Y-106696486D01*
X63716252Y-106704011D01*
X63716250Y-106704011D01*
X63710112Y-106704570D01*
X63704206Y-106706308D01*
X63704202Y-106706309D01*
X63618226Y-106731613D01*
X63520381Y-106760410D01*
X63514923Y-106763263D01*
X63514919Y-106763265D01*
X63460818Y-106791549D01*
X63345110Y-106852040D01*
X63190975Y-106975968D01*
X63063846Y-107127474D01*
X63060879Y-107132872D01*
X63060875Y-107132877D01*
X63033583Y-107182522D01*
X62968567Y-107300787D01*
X62966706Y-107306654D01*
X62966705Y-107306656D01*
X62917034Y-107463240D01*
X62908765Y-107489306D01*
X62886719Y-107685851D01*
X62887235Y-107691995D01*
X62899065Y-107832877D01*
X62903268Y-107882934D01*
X62908681Y-107901811D01*
X62939243Y-108008392D01*
X62957783Y-108073050D01*
X63048187Y-108248956D01*
X63171035Y-108403953D01*
X63175728Y-108407947D01*
X63175729Y-108407948D01*
X63306500Y-108519242D01*
X63321650Y-108532136D01*
X63494294Y-108628624D01*
X63682392Y-108689740D01*
X63878777Y-108713158D01*
X63884912Y-108712686D01*
X63884914Y-108712686D01*
X64069830Y-108698457D01*
X64069834Y-108698456D01*
X64075972Y-108697984D01*
X64266463Y-108644798D01*
X64271967Y-108642018D01*
X64271969Y-108642017D01*
X64437495Y-108558404D01*
X64437497Y-108558403D01*
X64442996Y-108555625D01*
X64598847Y-108433861D01*
X64604620Y-108427172D01*
X64605795Y-108426415D01*
X64607340Y-108424943D01*
X64607620Y-108425237D01*
X64664273Y-108388673D01*
X64700005Y-108383500D01*
X65412281Y-108383500D01*
X65480402Y-108403502D01*
X65492767Y-108412556D01*
X65618126Y-108516632D01*
X65811000Y-108629338D01*
X65815825Y-108631180D01*
X65815826Y-108631181D01*
X65855830Y-108646457D01*
X66019692Y-108709030D01*
X66024760Y-108710061D01*
X66024763Y-108710062D01*
X66129604Y-108731392D01*
X66238597Y-108753567D01*
X66243772Y-108753757D01*
X66243774Y-108753757D01*
X66456673Y-108761564D01*
X66456677Y-108761564D01*
X66461837Y-108761753D01*
X66466957Y-108761097D01*
X66466959Y-108761097D01*
X66678288Y-108734025D01*
X66678289Y-108734025D01*
X66683416Y-108733368D01*
X66688366Y-108731883D01*
X66892429Y-108670661D01*
X66892434Y-108670659D01*
X66897384Y-108669174D01*
X67097994Y-108570896D01*
X67279860Y-108441173D01*
X67296320Y-108424771D01*
X67434435Y-108287137D01*
X67438096Y-108283489D01*
X67466848Y-108243477D01*
X67565435Y-108106277D01*
X67568453Y-108102077D01*
X67570874Y-108097180D01*
X67665136Y-107906453D01*
X67665137Y-107906451D01*
X67667430Y-107901811D01*
X67732370Y-107688069D01*
X67761529Y-107466590D01*
X67763156Y-107400000D01*
X67744852Y-107177361D01*
X67690431Y-106960702D01*
X67601354Y-106755840D01*
X67513508Y-106620051D01*
X67482822Y-106572617D01*
X67482820Y-106572614D01*
X67480014Y-106568277D01*
X67329670Y-106403051D01*
X67325619Y-106399852D01*
X67325615Y-106399848D01*
X67158414Y-106267800D01*
X67158410Y-106267798D01*
X67154359Y-106264598D01*
X66958789Y-106156638D01*
X66953920Y-106154914D01*
X66953916Y-106154912D01*
X66753089Y-106083796D01*
X66748212Y-106082069D01*
X66748377Y-106081603D01*
X66690408Y-106046552D01*
X66659160Y-105982802D01*
X66667337Y-105912278D01*
X66694245Y-105872370D01*
X67063459Y-105503156D01*
X67069724Y-105497302D01*
X67111670Y-105460710D01*
X67147066Y-105410348D01*
X67150976Y-105405083D01*
X67184247Y-105362650D01*
X67188935Y-105356671D01*
X67192062Y-105349746D01*
X67194683Y-105345418D01*
X67200046Y-105336017D01*
X67202428Y-105331575D01*
X67206795Y-105325361D01*
X67229142Y-105268044D01*
X67231698Y-105261963D01*
X67253889Y-105212816D01*
X67257014Y-105205895D01*
X67258399Y-105198423D01*
X67259903Y-105193622D01*
X67262878Y-105183182D01*
X67264131Y-105178302D01*
X67266889Y-105171228D01*
X67274921Y-105110223D01*
X67275953Y-105103710D01*
X67285777Y-105050701D01*
X67285777Y-105050699D01*
X67287161Y-105043232D01*
X67283709Y-104983357D01*
X67283500Y-104976105D01*
X67283500Y-97094500D01*
X67303502Y-97026379D01*
X67357158Y-96979886D01*
X67409500Y-96968500D01*
X67498134Y-96968500D01*
X67560316Y-96961745D01*
X67696705Y-96910615D01*
X67813261Y-96823261D01*
X67900615Y-96706705D01*
X67951745Y-96570316D01*
X67958500Y-96508134D01*
X67958500Y-94711866D01*
X67951745Y-94649684D01*
X67900615Y-94513295D01*
X67813261Y-94396739D01*
X67696705Y-94309385D01*
X67560316Y-94258255D01*
X67498134Y-94251500D01*
X67464452Y-94251500D01*
X67396331Y-94231498D01*
X67353177Y-94184610D01*
X67350658Y-94179868D01*
X66241922Y-93071132D01*
X66964408Y-93071132D01*
X66964539Y-93072965D01*
X66968790Y-93079580D01*
X67710474Y-93821264D01*
X67722484Y-93827823D01*
X67734223Y-93818855D01*
X67765004Y-93776019D01*
X67770315Y-93767180D01*
X67864670Y-93576267D01*
X67868469Y-93566672D01*
X67930376Y-93362915D01*
X67932555Y-93352834D01*
X67960590Y-93139887D01*
X67961109Y-93133212D01*
X67962572Y-93073364D01*
X67962378Y-93066646D01*
X67944781Y-92852604D01*
X67943096Y-92842424D01*
X67891214Y-92635875D01*
X67887894Y-92626124D01*
X67802972Y-92430814D01*
X67798105Y-92421739D01*
X67733063Y-92321197D01*
X67722377Y-92311995D01*
X67712812Y-92316398D01*
X66972022Y-93057188D01*
X66964408Y-93071132D01*
X66241922Y-93071132D01*
X65489849Y-92319059D01*
X65478313Y-92312759D01*
X65466031Y-92322382D01*
X65418089Y-92392662D01*
X65413004Y-92401613D01*
X65323338Y-92594783D01*
X65319775Y-92604470D01*
X65262864Y-92809681D01*
X65260933Y-92819800D01*
X65238302Y-93031574D01*
X65238050Y-93041863D01*
X65250309Y-93254477D01*
X65251745Y-93264696D01*
X65276108Y-93372799D01*
X65271572Y-93443650D01*
X65229451Y-93500802D01*
X65163117Y-93526108D01*
X65153191Y-93526500D01*
X63545305Y-93526500D01*
X63477184Y-93506498D01*
X63456209Y-93489595D01*
X62720404Y-92753789D01*
X62686379Y-92691477D01*
X62683500Y-92664694D01*
X62683500Y-91598499D01*
X62703502Y-91530378D01*
X62714119Y-91516168D01*
X62721826Y-91507240D01*
X62828078Y-91384145D01*
X62925769Y-91212179D01*
X62988197Y-91024513D01*
X63012985Y-90828295D01*
X63013380Y-90800000D01*
X62994080Y-90603167D01*
X62992095Y-90596590D01*
X62961934Y-90496695D01*
X65237251Y-90496695D01*
X65237548Y-90501848D01*
X65237548Y-90501851D01*
X65243202Y-90599908D01*
X65250110Y-90719715D01*
X65251247Y-90724761D01*
X65251248Y-90724767D01*
X65267413Y-90796495D01*
X65299222Y-90937639D01*
X65336874Y-91030365D01*
X65377511Y-91130442D01*
X65383266Y-91144616D01*
X65499987Y-91335088D01*
X65646250Y-91503938D01*
X65818126Y-91646632D01*
X65891955Y-91689774D01*
X65940679Y-91741412D01*
X65953750Y-91811195D01*
X65927019Y-91876967D01*
X65886562Y-91910327D01*
X65878460Y-91914544D01*
X65869734Y-91920039D01*
X65849677Y-91935099D01*
X65841223Y-91946427D01*
X65847968Y-91958758D01*
X66587188Y-92697978D01*
X66601132Y-92705592D01*
X66602965Y-92705461D01*
X66609580Y-92701210D01*
X67353389Y-91957401D01*
X67360410Y-91944544D01*
X67353611Y-91935213D01*
X67349559Y-91932521D01*
X67312602Y-91912120D01*
X67262631Y-91861687D01*
X67247859Y-91792245D01*
X67272975Y-91725839D01*
X67300327Y-91699232D01*
X67323797Y-91682491D01*
X67479860Y-91571173D01*
X67638096Y-91413489D01*
X67655828Y-91388813D01*
X67765435Y-91236277D01*
X67768453Y-91232077D01*
X67786053Y-91196467D01*
X67865136Y-91036453D01*
X67865137Y-91036451D01*
X67867430Y-91031811D01*
X67925113Y-90841955D01*
X67930865Y-90823023D01*
X67930865Y-90823021D01*
X67932370Y-90818069D01*
X67961529Y-90596590D01*
X67963156Y-90530000D01*
X67944852Y-90307361D01*
X67890431Y-90090702D01*
X67801354Y-89885840D01*
X67740086Y-89791134D01*
X67682822Y-89702617D01*
X67682820Y-89702614D01*
X67680014Y-89698277D01*
X67529670Y-89533051D01*
X67525619Y-89529852D01*
X67525615Y-89529848D01*
X67358414Y-89397800D01*
X67358410Y-89397798D01*
X67354359Y-89394598D01*
X67313053Y-89371796D01*
X67263084Y-89321364D01*
X67248312Y-89251921D01*
X67273428Y-89185516D01*
X67300780Y-89158909D01*
X67344603Y-89127650D01*
X67479860Y-89031173D01*
X67638096Y-88873489D01*
X67697594Y-88790689D01*
X67765435Y-88696277D01*
X67768453Y-88692077D01*
X67848767Y-88529574D01*
X67865136Y-88496453D01*
X67865137Y-88496451D01*
X67867430Y-88491811D01*
X67932370Y-88278069D01*
X67961529Y-88056590D01*
X67963156Y-87990000D01*
X67944852Y-87767361D01*
X67890431Y-87550702D01*
X67801354Y-87345840D01*
X67680014Y-87158277D01*
X67529670Y-86993051D01*
X67525619Y-86989852D01*
X67525615Y-86989848D01*
X67358414Y-86857800D01*
X67358410Y-86857798D01*
X67354359Y-86854598D01*
X67158789Y-86746638D01*
X67153920Y-86744914D01*
X67153916Y-86744912D01*
X66953087Y-86673795D01*
X66953083Y-86673794D01*
X66948212Y-86672069D01*
X66943119Y-86671162D01*
X66943116Y-86671161D01*
X66733373Y-86633800D01*
X66733367Y-86633799D01*
X66728284Y-86632894D01*
X66654452Y-86631992D01*
X66510081Y-86630228D01*
X66510079Y-86630228D01*
X66504911Y-86630165D01*
X66284091Y-86663955D01*
X66071756Y-86733357D01*
X65873607Y-86836507D01*
X65869474Y-86839610D01*
X65869471Y-86839612D01*
X65845247Y-86857800D01*
X65694965Y-86970635D01*
X65540629Y-87132138D01*
X65414743Y-87316680D01*
X65320688Y-87519305D01*
X65260989Y-87734570D01*
X65237251Y-87956695D01*
X65237548Y-87961848D01*
X65237548Y-87961851D01*
X65246641Y-88119548D01*
X65250110Y-88179715D01*
X65251247Y-88184761D01*
X65251248Y-88184767D01*
X65269982Y-88267892D01*
X65299222Y-88397639D01*
X65383266Y-88604616D01*
X65499987Y-88795088D01*
X65646250Y-88963938D01*
X65818126Y-89106632D01*
X65888595Y-89147811D01*
X65891445Y-89149476D01*
X65940169Y-89201114D01*
X65953240Y-89270897D01*
X65926509Y-89336669D01*
X65886055Y-89370027D01*
X65873607Y-89376507D01*
X65869474Y-89379610D01*
X65869471Y-89379612D01*
X65699100Y-89507530D01*
X65694965Y-89510635D01*
X65540629Y-89672138D01*
X65414743Y-89856680D01*
X65320688Y-90059305D01*
X65260989Y-90274570D01*
X65237251Y-90496695D01*
X62961934Y-90496695D01*
X62938697Y-90419731D01*
X62936916Y-90413831D01*
X62844066Y-90239204D01*
X62746021Y-90118989D01*
X62722960Y-90090713D01*
X62722957Y-90090710D01*
X62719065Y-90085938D01*
X62692906Y-90064297D01*
X62571425Y-89963799D01*
X62571421Y-89963797D01*
X62566675Y-89959870D01*
X62392701Y-89865802D01*
X62203768Y-89807318D01*
X62197643Y-89806674D01*
X62197642Y-89806674D01*
X62013203Y-89787289D01*
X62013202Y-89787289D01*
X62007075Y-89786645D01*
X62004107Y-89786915D01*
X61937183Y-89766757D01*
X61916946Y-89750331D01*
X61720405Y-89553790D01*
X61686379Y-89491478D01*
X61683500Y-89464695D01*
X61683500Y-86135305D01*
X61703502Y-86067184D01*
X61720405Y-86046210D01*
X61918388Y-85848227D01*
X61980700Y-85814201D01*
X61997816Y-85811693D01*
X62169830Y-85798457D01*
X62169834Y-85798456D01*
X62175972Y-85797984D01*
X62366463Y-85744798D01*
X62371967Y-85742018D01*
X62371969Y-85742017D01*
X62537495Y-85658404D01*
X62537497Y-85658403D01*
X62542996Y-85655625D01*
X62698847Y-85533861D01*
X62818775Y-85394923D01*
X62824049Y-85388813D01*
X62824050Y-85388811D01*
X62828078Y-85384145D01*
X62925769Y-85212179D01*
X62988197Y-85024513D01*
X63012985Y-84828295D01*
X63012990Y-84827966D01*
X65268257Y-84827966D01*
X65298565Y-84962446D01*
X65301645Y-84972275D01*
X65381770Y-85169603D01*
X65386413Y-85178794D01*
X65497694Y-85360388D01*
X65503777Y-85368699D01*
X65643213Y-85529667D01*
X65650580Y-85536883D01*
X65814434Y-85672916D01*
X65822881Y-85678831D01*
X66006756Y-85786279D01*
X66016042Y-85790729D01*
X66215001Y-85866703D01*
X66224899Y-85869579D01*
X66328250Y-85890606D01*
X66342299Y-85889410D01*
X66346000Y-85879065D01*
X66346000Y-85878517D01*
X66854000Y-85878517D01*
X66858064Y-85892359D01*
X66871478Y-85894393D01*
X66878184Y-85893534D01*
X66888262Y-85891392D01*
X67092255Y-85830191D01*
X67101842Y-85826433D01*
X67293095Y-85732739D01*
X67301945Y-85727464D01*
X67475328Y-85603792D01*
X67483200Y-85597139D01*
X67634052Y-85446812D01*
X67640730Y-85438965D01*
X67765003Y-85266020D01*
X67770313Y-85257183D01*
X67864670Y-85066267D01*
X67868469Y-85056672D01*
X67930377Y-84852910D01*
X67932555Y-84842837D01*
X67933986Y-84831962D01*
X67931775Y-84817778D01*
X67918617Y-84814000D01*
X66872115Y-84814000D01*
X66856876Y-84818475D01*
X66855671Y-84819865D01*
X66854000Y-84827548D01*
X66854000Y-85878517D01*
X66346000Y-85878517D01*
X66346000Y-84832115D01*
X66341525Y-84816876D01*
X66340135Y-84815671D01*
X66332452Y-84814000D01*
X65283225Y-84814000D01*
X65269694Y-84817973D01*
X65268257Y-84827966D01*
X63012990Y-84827966D01*
X63013380Y-84800000D01*
X62994080Y-84603167D01*
X62936916Y-84413831D01*
X62844066Y-84239204D01*
X62726024Y-84094470D01*
X62722958Y-84090711D01*
X62722957Y-84090710D01*
X62719065Y-84085938D01*
X62719068Y-84085935D01*
X62686286Y-84025392D01*
X62683500Y-83999043D01*
X62683500Y-81986695D01*
X65237251Y-81986695D01*
X65237548Y-81991848D01*
X65237548Y-81991851D01*
X65243011Y-82086590D01*
X65250110Y-82209715D01*
X65251247Y-82214761D01*
X65251248Y-82214767D01*
X65271119Y-82302939D01*
X65299222Y-82427639D01*
X65383266Y-82634616D01*
X65499987Y-82825088D01*
X65646250Y-82993938D01*
X65818126Y-83136632D01*
X65891445Y-83179476D01*
X65891955Y-83179774D01*
X65940679Y-83231412D01*
X65953750Y-83301195D01*
X65927019Y-83366967D01*
X65886562Y-83400327D01*
X65878457Y-83404546D01*
X65869738Y-83410036D01*
X65699433Y-83537905D01*
X65691726Y-83544748D01*
X65544590Y-83698717D01*
X65538104Y-83706727D01*
X65418098Y-83882649D01*
X65413000Y-83891623D01*
X65323338Y-84084783D01*
X65319775Y-84094470D01*
X65264389Y-84294183D01*
X65265912Y-84302607D01*
X65278292Y-84306000D01*
X67918344Y-84306000D01*
X67931875Y-84302027D01*
X67933180Y-84292947D01*
X67891214Y-84125875D01*
X67887894Y-84116124D01*
X67802972Y-83920814D01*
X67798105Y-83911739D01*
X67682426Y-83732926D01*
X67676136Y-83724757D01*
X67532806Y-83567240D01*
X67525273Y-83560215D01*
X67358139Y-83428222D01*
X67349556Y-83422520D01*
X67312602Y-83402120D01*
X67262631Y-83351687D01*
X67247859Y-83282245D01*
X67272975Y-83215839D01*
X67300327Y-83189232D01*
X67323797Y-83172491D01*
X67479860Y-83061173D01*
X67535595Y-83005633D01*
X67634435Y-82907137D01*
X67638096Y-82903489D01*
X67697594Y-82820689D01*
X67765435Y-82726277D01*
X67768453Y-82722077D01*
X67867430Y-82521811D01*
X67932370Y-82308069D01*
X67961529Y-82086590D01*
X67963156Y-82020000D01*
X67944852Y-81797361D01*
X67890431Y-81580702D01*
X67801354Y-81375840D01*
X67680014Y-81188277D01*
X67529670Y-81023051D01*
X67525619Y-81019852D01*
X67525615Y-81019848D01*
X67358414Y-80887800D01*
X67358410Y-80887798D01*
X67354359Y-80884598D01*
X67313053Y-80861796D01*
X67263084Y-80811364D01*
X67248312Y-80741921D01*
X67273428Y-80675516D01*
X67300780Y-80648909D01*
X67344603Y-80617650D01*
X67479860Y-80521173D01*
X67535595Y-80465633D01*
X67634435Y-80367137D01*
X67638096Y-80363489D01*
X67697594Y-80280689D01*
X67765435Y-80186277D01*
X67768453Y-80182077D01*
X67867430Y-79981811D01*
X67932370Y-79768069D01*
X67961529Y-79546590D01*
X67963156Y-79480000D01*
X67944852Y-79257361D01*
X67890431Y-79040702D01*
X67801354Y-78835840D01*
X67680014Y-78648277D01*
X67529670Y-78483051D01*
X67525619Y-78479852D01*
X67525615Y-78479848D01*
X67358414Y-78347800D01*
X67358410Y-78347798D01*
X67354359Y-78344598D01*
X67313053Y-78321796D01*
X67263084Y-78271364D01*
X67248312Y-78201921D01*
X67273428Y-78135516D01*
X67300780Y-78108909D01*
X67344603Y-78077650D01*
X67479860Y-77981173D01*
X67488302Y-77972761D01*
X67634435Y-77827137D01*
X67638096Y-77823489D01*
X67697594Y-77740689D01*
X67765435Y-77646277D01*
X67768453Y-77642077D01*
X67867430Y-77441811D01*
X67932370Y-77228069D01*
X67961529Y-77006590D01*
X67963156Y-76940000D01*
X67944852Y-76717361D01*
X67890431Y-76500702D01*
X67801354Y-76295840D01*
X67680014Y-76108277D01*
X67660405Y-76086727D01*
X67532798Y-75946488D01*
X67501746Y-75882642D01*
X67510141Y-75812143D01*
X67555317Y-75757375D01*
X67581761Y-75743706D01*
X67688297Y-75703767D01*
X67696705Y-75700615D01*
X67813261Y-75613261D01*
X67900615Y-75496705D01*
X67951745Y-75360316D01*
X67958500Y-75298134D01*
X67958500Y-73501866D01*
X67951745Y-73439684D01*
X67900615Y-73303295D01*
X67813261Y-73186739D01*
X67696705Y-73099385D01*
X67560316Y-73048255D01*
X67498134Y-73041500D01*
X65701866Y-73041500D01*
X65639684Y-73048255D01*
X65503295Y-73099385D01*
X65386739Y-73186739D01*
X65299385Y-73303295D01*
X65248255Y-73439684D01*
X65241500Y-73501866D01*
X65241500Y-75298134D01*
X65248255Y-75360316D01*
X65299385Y-75496705D01*
X65386739Y-75613261D01*
X65503295Y-75700615D01*
X65511704Y-75703767D01*
X65511705Y-75703768D01*
X65620451Y-75744535D01*
X65677216Y-75787176D01*
X65701916Y-75853738D01*
X65686709Y-75923087D01*
X65667316Y-75949568D01*
X65540629Y-76082138D01*
X65537715Y-76086410D01*
X65537714Y-76086411D01*
X65530607Y-76096829D01*
X65414743Y-76266680D01*
X65320688Y-76469305D01*
X65260989Y-76684570D01*
X65237251Y-76906695D01*
X65237548Y-76911848D01*
X65237548Y-76911851D01*
X65243011Y-77006590D01*
X65250110Y-77129715D01*
X65251247Y-77134761D01*
X65251248Y-77134767D01*
X65262031Y-77182614D01*
X65299222Y-77347639D01*
X65383266Y-77554616D01*
X65499987Y-77745088D01*
X65646250Y-77913938D01*
X65818126Y-78056632D01*
X65888595Y-78097811D01*
X65891445Y-78099476D01*
X65940169Y-78151114D01*
X65953240Y-78220897D01*
X65926509Y-78286669D01*
X65886055Y-78320027D01*
X65873607Y-78326507D01*
X65869474Y-78329610D01*
X65869471Y-78329612D01*
X65724237Y-78438657D01*
X65694965Y-78460635D01*
X65540629Y-78622138D01*
X65414743Y-78806680D01*
X65320688Y-79009305D01*
X65260989Y-79224570D01*
X65237251Y-79446695D01*
X65237548Y-79451848D01*
X65237548Y-79451851D01*
X65243011Y-79546590D01*
X65250110Y-79669715D01*
X65251247Y-79674761D01*
X65251248Y-79674767D01*
X65271119Y-79762939D01*
X65299222Y-79887639D01*
X65383266Y-80094616D01*
X65499987Y-80285088D01*
X65646250Y-80453938D01*
X65818126Y-80596632D01*
X65888595Y-80637811D01*
X65891445Y-80639476D01*
X65940169Y-80691114D01*
X65953240Y-80760897D01*
X65926509Y-80826669D01*
X65886055Y-80860027D01*
X65873607Y-80866507D01*
X65869474Y-80869610D01*
X65869471Y-80869612D01*
X65724237Y-80978657D01*
X65694965Y-81000635D01*
X65540629Y-81162138D01*
X65414743Y-81346680D01*
X65320688Y-81549305D01*
X65260989Y-81764570D01*
X65237251Y-81986695D01*
X62683500Y-81986695D01*
X62683500Y-72628056D01*
X62683792Y-72619486D01*
X62685820Y-72589740D01*
X62687577Y-72563966D01*
X62681742Y-72530528D01*
X62676997Y-72503342D01*
X62676034Y-72496819D01*
X62669558Y-72443308D01*
X62669558Y-72443307D01*
X62668645Y-72435765D01*
X62665959Y-72428655D01*
X62664754Y-72423752D01*
X62661895Y-72413300D01*
X62660441Y-72408484D01*
X62659134Y-72400996D01*
X62634390Y-72344627D01*
X62631925Y-72338588D01*
X62610169Y-72281011D01*
X62605864Y-72274748D01*
X62603517Y-72270258D01*
X62598257Y-72260807D01*
X62595690Y-72256466D01*
X62592639Y-72249515D01*
X62588020Y-72243495D01*
X62588015Y-72243487D01*
X62555181Y-72200698D01*
X62551319Y-72195384D01*
X62516466Y-72144674D01*
X62471676Y-72104767D01*
X62466402Y-72099787D01*
X62091468Y-71724853D01*
X63439977Y-71724853D01*
X63445258Y-71731907D01*
X63606756Y-71826279D01*
X63616042Y-71830729D01*
X63815001Y-71906703D01*
X63824899Y-71909579D01*
X64033595Y-71952038D01*
X64043823Y-71953257D01*
X64256650Y-71961062D01*
X64266936Y-71960595D01*
X64478185Y-71933534D01*
X64488262Y-71931392D01*
X64692255Y-71870191D01*
X64701842Y-71866433D01*
X64893098Y-71772738D01*
X64901944Y-71767465D01*
X64949247Y-71733723D01*
X64957648Y-71723023D01*
X64950660Y-71709870D01*
X64212812Y-70972022D01*
X64198868Y-70964408D01*
X64197035Y-70964539D01*
X64190420Y-70968790D01*
X63446737Y-71712473D01*
X63439977Y-71724853D01*
X62091468Y-71724853D01*
X62049958Y-71683343D01*
X62015932Y-71621031D01*
X62013365Y-71601087D01*
X62013380Y-71600000D01*
X61994080Y-71403167D01*
X61979567Y-71355096D01*
X61938697Y-71219731D01*
X61936916Y-71213831D01*
X61844066Y-71039204D01*
X61773709Y-70952938D01*
X61722960Y-70890713D01*
X61722957Y-70890710D01*
X61719065Y-70885938D01*
X61712724Y-70880692D01*
X61571425Y-70763799D01*
X61571421Y-70763797D01*
X61566675Y-70759870D01*
X61392701Y-70665802D01*
X61203768Y-70607318D01*
X61197643Y-70606674D01*
X61197642Y-70606674D01*
X61013204Y-70587289D01*
X61013202Y-70587289D01*
X61007075Y-70586645D01*
X60924576Y-70594153D01*
X60816251Y-70604011D01*
X60816248Y-70604012D01*
X60810112Y-70604570D01*
X60804206Y-70606308D01*
X60804202Y-70606309D01*
X60699076Y-70637249D01*
X60620381Y-70660410D01*
X60614923Y-70663263D01*
X60614919Y-70663265D01*
X60524147Y-70710720D01*
X60445110Y-70752040D01*
X60290975Y-70875968D01*
X60163846Y-71027474D01*
X60160879Y-71032872D01*
X60160875Y-71032877D01*
X60157397Y-71039204D01*
X60068567Y-71200787D01*
X60066706Y-71206654D01*
X60066705Y-71206656D01*
X60037989Y-71297180D01*
X60008765Y-71389306D01*
X59986719Y-71585851D01*
X60003268Y-71782934D01*
X60004967Y-71788858D01*
X60054212Y-71960595D01*
X60057783Y-71973050D01*
X60148187Y-72148956D01*
X60271035Y-72303953D01*
X60275728Y-72307947D01*
X60275729Y-72307948D01*
X60399518Y-72413300D01*
X60421650Y-72432136D01*
X60594294Y-72528624D01*
X60782392Y-72589740D01*
X60978777Y-72613158D01*
X60984914Y-72612686D01*
X60991083Y-72612815D01*
X60991052Y-72614276D01*
X61053367Y-72627475D01*
X61082681Y-72649296D01*
X61279595Y-72846210D01*
X61313621Y-72908522D01*
X61316500Y-72935305D01*
X61316500Y-83999689D01*
X61296498Y-84067810D01*
X61287028Y-84080672D01*
X61163846Y-84227474D01*
X61160879Y-84232872D01*
X61160875Y-84232877D01*
X61121462Y-84304570D01*
X61068567Y-84400787D01*
X61066706Y-84406654D01*
X61066705Y-84406656D01*
X61030255Y-84521562D01*
X61008765Y-84589306D01*
X60986719Y-84785851D01*
X60987235Y-84791992D01*
X60987182Y-84795761D01*
X60966230Y-84863595D01*
X60950289Y-84883096D01*
X60536541Y-85296844D01*
X60530276Y-85302698D01*
X60488330Y-85339290D01*
X60452934Y-85389655D01*
X60449022Y-85394920D01*
X60411065Y-85443328D01*
X60407939Y-85450252D01*
X60405329Y-85454561D01*
X60399958Y-85463976D01*
X60397573Y-85468424D01*
X60393205Y-85474639D01*
X60390446Y-85481716D01*
X60370858Y-85531957D01*
X60368306Y-85538029D01*
X60342986Y-85594105D01*
X60341600Y-85601582D01*
X60340090Y-85606402D01*
X60337118Y-85616835D01*
X60335870Y-85621696D01*
X60333111Y-85628772D01*
X60332120Y-85636302D01*
X60325082Y-85689762D01*
X60324050Y-85696278D01*
X60312839Y-85756767D01*
X60313276Y-85764347D01*
X60313276Y-85764348D01*
X60316291Y-85816642D01*
X60316500Y-85823894D01*
X60316500Y-89771955D01*
X60316208Y-89780523D01*
X60312424Y-89836034D01*
X60313729Y-89843511D01*
X60313729Y-89843514D01*
X60323002Y-89896647D01*
X60323965Y-89903171D01*
X60331355Y-89964235D01*
X60334042Y-89971345D01*
X60335246Y-89976248D01*
X60338114Y-89986734D01*
X60339561Y-89991526D01*
X60340866Y-89999004D01*
X60343918Y-90005956D01*
X60343918Y-90005957D01*
X60365595Y-90055341D01*
X60368086Y-90061446D01*
X60379146Y-90090713D01*
X60389831Y-90118989D01*
X60394131Y-90125246D01*
X60396467Y-90129714D01*
X60401725Y-90139160D01*
X60404307Y-90143526D01*
X60407362Y-90150485D01*
X60444823Y-90199304D01*
X60448686Y-90204623D01*
X60469171Y-90234428D01*
X60483534Y-90255326D01*
X60489203Y-90260377D01*
X60528323Y-90295232D01*
X60533598Y-90300213D01*
X60944290Y-90710905D01*
X60978316Y-90773217D01*
X60973251Y-90844032D01*
X60944290Y-90889095D01*
X60753790Y-91079595D01*
X60691478Y-91113621D01*
X60664695Y-91116500D01*
X56628045Y-91116500D01*
X56619476Y-91116208D01*
X56571542Y-91112940D01*
X56571538Y-91112940D01*
X56563966Y-91112424D01*
X56556489Y-91113729D01*
X56556486Y-91113729D01*
X56503353Y-91123002D01*
X56496829Y-91123965D01*
X56443309Y-91130442D01*
X56435765Y-91131355D01*
X56428655Y-91134042D01*
X56423752Y-91135246D01*
X56413266Y-91138114D01*
X56408474Y-91139561D01*
X56400996Y-91140866D01*
X56394044Y-91143918D01*
X56394043Y-91143918D01*
X56344659Y-91165595D01*
X56338554Y-91168086D01*
X56288118Y-91187145D01*
X56288115Y-91187147D01*
X56281011Y-91189831D01*
X56274754Y-91194131D01*
X56270286Y-91196467D01*
X56260840Y-91201725D01*
X56256474Y-91204307D01*
X56249515Y-91207362D01*
X56200696Y-91244823D01*
X56195377Y-91248686D01*
X56156679Y-91275283D01*
X56144674Y-91283534D01*
X56139623Y-91289203D01*
X56104768Y-91328323D01*
X56099787Y-91333598D01*
X54898595Y-92534790D01*
X54836283Y-92568816D01*
X54765468Y-92563751D01*
X54708632Y-92521204D01*
X54683821Y-92454684D01*
X54683500Y-92445695D01*
X54683500Y-76228045D01*
X54683792Y-76219476D01*
X54687060Y-76171542D01*
X54687060Y-76171538D01*
X54687576Y-76163966D01*
X54676998Y-76103353D01*
X54676035Y-76096829D01*
X54669558Y-76043309D01*
X54668645Y-76035765D01*
X54665958Y-76028655D01*
X54664754Y-76023752D01*
X54661886Y-76013266D01*
X54660439Y-76008474D01*
X54659134Y-76000996D01*
X54656082Y-75994043D01*
X54634404Y-75944656D01*
X54631913Y-75938551D01*
X54612858Y-75888125D01*
X54612855Y-75888119D01*
X54610169Y-75881011D01*
X54605863Y-75874747D01*
X54603513Y-75870251D01*
X54598257Y-75860808D01*
X54595691Y-75856468D01*
X54592638Y-75849514D01*
X54555182Y-75800701D01*
X54551305Y-75795364D01*
X54520769Y-75750934D01*
X54520766Y-75750931D01*
X54516466Y-75744674D01*
X54471677Y-75704768D01*
X54466401Y-75699787D01*
X53595404Y-74828789D01*
X53561379Y-74766477D01*
X53558500Y-74739694D01*
X53558500Y-73501866D01*
X53551745Y-73439684D01*
X53500615Y-73303295D01*
X53413261Y-73186739D01*
X53296705Y-73099385D01*
X53160316Y-73048255D01*
X53098134Y-73041500D01*
X51301866Y-73041500D01*
X51239684Y-73048255D01*
X51103295Y-73099385D01*
X50986739Y-73186739D01*
X50899385Y-73303295D01*
X50848255Y-73439684D01*
X50841500Y-73501866D01*
X50841500Y-75298134D01*
X50848255Y-75360316D01*
X50899385Y-75496705D01*
X50986739Y-75613261D01*
X51103295Y-75700615D01*
X51111704Y-75703767D01*
X51111705Y-75703768D01*
X51220960Y-75744726D01*
X51277725Y-75787367D01*
X51302425Y-75853929D01*
X51287218Y-75923278D01*
X51267825Y-75949759D01*
X51144590Y-76078717D01*
X51138104Y-76086727D01*
X51018098Y-76262649D01*
X51013000Y-76271623D01*
X50923338Y-76464783D01*
X50919775Y-76474470D01*
X50864389Y-76674183D01*
X50865912Y-76682607D01*
X50878292Y-76686000D01*
X52328000Y-76686000D01*
X52396121Y-76706002D01*
X52442614Y-76759658D01*
X52454000Y-76812000D01*
X52454000Y-77068000D01*
X52433998Y-77136121D01*
X52380342Y-77182614D01*
X52328000Y-77194000D01*
X50883225Y-77194000D01*
X50869694Y-77197973D01*
X50868257Y-77207966D01*
X50898565Y-77342446D01*
X50901645Y-77352275D01*
X50981770Y-77549603D01*
X50986413Y-77558794D01*
X51097694Y-77740388D01*
X51103777Y-77748699D01*
X51243213Y-77909667D01*
X51250580Y-77916883D01*
X51414434Y-78052916D01*
X51422881Y-78058831D01*
X51491969Y-78099203D01*
X51540693Y-78150842D01*
X51553764Y-78220625D01*
X51527033Y-78286396D01*
X51486584Y-78319752D01*
X51473607Y-78326507D01*
X51469474Y-78329610D01*
X51469471Y-78329612D01*
X51324237Y-78438657D01*
X51294965Y-78460635D01*
X51140629Y-78622138D01*
X51014743Y-78806680D01*
X50920688Y-79009305D01*
X50860989Y-79224570D01*
X50837251Y-79446695D01*
X50837548Y-79451848D01*
X50837548Y-79451851D01*
X50843011Y-79546590D01*
X50850110Y-79669715D01*
X50851247Y-79674761D01*
X50851248Y-79674767D01*
X50871119Y-79762939D01*
X50899222Y-79887639D01*
X50983266Y-80094616D01*
X51099987Y-80285088D01*
X51246250Y-80453938D01*
X51418126Y-80596632D01*
X51488595Y-80637811D01*
X51491445Y-80639476D01*
X51540169Y-80691114D01*
X51553240Y-80760897D01*
X51526509Y-80826669D01*
X51486055Y-80860027D01*
X51473607Y-80866507D01*
X51469474Y-80869610D01*
X51469471Y-80869612D01*
X51324237Y-80978657D01*
X51294965Y-81000635D01*
X51140629Y-81162138D01*
X51014743Y-81346680D01*
X50920688Y-81549305D01*
X50860989Y-81764570D01*
X50837251Y-81986695D01*
X50837548Y-81991848D01*
X50837548Y-81991851D01*
X50843011Y-82086590D01*
X50850110Y-82209715D01*
X50851247Y-82214761D01*
X50851248Y-82214767D01*
X50871119Y-82302939D01*
X50899222Y-82427639D01*
X50983266Y-82634616D01*
X51099987Y-82825088D01*
X51246250Y-82993938D01*
X51418126Y-83136632D01*
X51488595Y-83177811D01*
X51491445Y-83179476D01*
X51540169Y-83231114D01*
X51553240Y-83300897D01*
X51526509Y-83366669D01*
X51486055Y-83400027D01*
X51473607Y-83406507D01*
X51469474Y-83409610D01*
X51469471Y-83409612D01*
X51324237Y-83518657D01*
X51294965Y-83540635D01*
X51140629Y-83702138D01*
X51137715Y-83706410D01*
X51137714Y-83706411D01*
X51125199Y-83724757D01*
X51014743Y-83886680D01*
X51012564Y-83891375D01*
X50924692Y-84080680D01*
X50920688Y-84089305D01*
X50860989Y-84304570D01*
X50837251Y-84526695D01*
X50837548Y-84531848D01*
X50837548Y-84531851D01*
X50840861Y-84589306D01*
X50850110Y-84749715D01*
X50851247Y-84754761D01*
X50851248Y-84754767D01*
X50883453Y-84897668D01*
X50878917Y-84968520D01*
X50849631Y-85014464D01*
X50723595Y-85140500D01*
X50661283Y-85174526D01*
X50590468Y-85169461D01*
X50533632Y-85126914D01*
X50508821Y-85060394D01*
X50508500Y-85051405D01*
X50508500Y-70571863D01*
X62838050Y-70571863D01*
X62850309Y-70784477D01*
X62851745Y-70794697D01*
X62898565Y-71002446D01*
X62901645Y-71012275D01*
X62981770Y-71209603D01*
X62986413Y-71218794D01*
X63066460Y-71349420D01*
X63076916Y-71358880D01*
X63085694Y-71355096D01*
X63827978Y-70612812D01*
X63834356Y-70601132D01*
X64564408Y-70601132D01*
X64564539Y-70602965D01*
X64568790Y-70609580D01*
X65310474Y-71351264D01*
X65322484Y-71357823D01*
X65334223Y-71348855D01*
X65365004Y-71306019D01*
X65370315Y-71297180D01*
X65464670Y-71106267D01*
X65468469Y-71096672D01*
X65530376Y-70892915D01*
X65532555Y-70882834D01*
X65560590Y-70669887D01*
X65561109Y-70663212D01*
X65562572Y-70603364D01*
X65562378Y-70596646D01*
X65544781Y-70382604D01*
X65543096Y-70372424D01*
X65491214Y-70165875D01*
X65487894Y-70156124D01*
X65402972Y-69960814D01*
X65398105Y-69951739D01*
X65333063Y-69851197D01*
X65322377Y-69841995D01*
X65312812Y-69846398D01*
X64572022Y-70587188D01*
X64564408Y-70601132D01*
X63834356Y-70601132D01*
X63835592Y-70598868D01*
X63835461Y-70597035D01*
X63831210Y-70590420D01*
X63089849Y-69849059D01*
X63078313Y-69842759D01*
X63066031Y-69852382D01*
X63018089Y-69922662D01*
X63013004Y-69931613D01*
X62923338Y-70124783D01*
X62919775Y-70134470D01*
X62862864Y-70339681D01*
X62860933Y-70349800D01*
X62838302Y-70561574D01*
X62838050Y-70571863D01*
X50508500Y-70571863D01*
X50508500Y-69476427D01*
X63441223Y-69476427D01*
X63447968Y-69488758D01*
X64187188Y-70227978D01*
X64201132Y-70235592D01*
X64202965Y-70235461D01*
X64209580Y-70231210D01*
X64953389Y-69487401D01*
X64960410Y-69474544D01*
X64953611Y-69465213D01*
X64949554Y-69462518D01*
X64763117Y-69359599D01*
X64753705Y-69355369D01*
X64552959Y-69284280D01*
X64542989Y-69281646D01*
X64333327Y-69244301D01*
X64323073Y-69243331D01*
X64110116Y-69240728D01*
X64099832Y-69241448D01*
X63889321Y-69273661D01*
X63879293Y-69276050D01*
X63676868Y-69342212D01*
X63667359Y-69346209D01*
X63478466Y-69444540D01*
X63469734Y-69450039D01*
X63449677Y-69465099D01*
X63441223Y-69476427D01*
X50508500Y-69476427D01*
X50508500Y-55166695D01*
X52957251Y-55166695D01*
X52957548Y-55171848D01*
X52957548Y-55171851D01*
X52963011Y-55266590D01*
X52970110Y-55389715D01*
X52971247Y-55394761D01*
X52971248Y-55394767D01*
X52985606Y-55458475D01*
X53019222Y-55607639D01*
X53103266Y-55814616D01*
X53130686Y-55859362D01*
X53217291Y-56000688D01*
X53219987Y-56005088D01*
X53366250Y-56173938D01*
X53538126Y-56316632D01*
X53731000Y-56429338D01*
X53939692Y-56509030D01*
X53944760Y-56510061D01*
X53944763Y-56510062D01*
X54039862Y-56529410D01*
X54158597Y-56553567D01*
X54163772Y-56553757D01*
X54163774Y-56553757D01*
X54376673Y-56561564D01*
X54376677Y-56561564D01*
X54381837Y-56561753D01*
X54386957Y-56561097D01*
X54386959Y-56561097D01*
X54598288Y-56534025D01*
X54598289Y-56534025D01*
X54603416Y-56533368D01*
X54608366Y-56531883D01*
X54812429Y-56470661D01*
X54812434Y-56470659D01*
X54817384Y-56469174D01*
X55017994Y-56370896D01*
X55199860Y-56241173D01*
X55358096Y-56083489D01*
X55417594Y-56000689D01*
X55488453Y-55902077D01*
X55489640Y-55902930D01*
X55536960Y-55859362D01*
X55606897Y-55847145D01*
X55672338Y-55874678D01*
X55700166Y-55906511D01*
X55757694Y-56000388D01*
X55763777Y-56008699D01*
X55903213Y-56169667D01*
X55910580Y-56176883D01*
X56074434Y-56312916D01*
X56082881Y-56318831D01*
X56266756Y-56426279D01*
X56276042Y-56430729D01*
X56475001Y-56506703D01*
X56484899Y-56509579D01*
X56588250Y-56530606D01*
X56602299Y-56529410D01*
X56606000Y-56519065D01*
X56606000Y-56518517D01*
X57114000Y-56518517D01*
X57118064Y-56532359D01*
X57131478Y-56534393D01*
X57138184Y-56533534D01*
X57148262Y-56531392D01*
X57352255Y-56470191D01*
X57361842Y-56466433D01*
X57553095Y-56372739D01*
X57561945Y-56367464D01*
X57735328Y-56243792D01*
X57743200Y-56237139D01*
X57894052Y-56086812D01*
X57900730Y-56078965D01*
X58028022Y-55901819D01*
X58029147Y-55902627D01*
X58076669Y-55858876D01*
X58146607Y-55846661D01*
X58212046Y-55874197D01*
X58239870Y-55906028D01*
X58297690Y-56000383D01*
X58303777Y-56008699D01*
X58443213Y-56169667D01*
X58450580Y-56176883D01*
X58614434Y-56312916D01*
X58622881Y-56318831D01*
X58806756Y-56426279D01*
X58816042Y-56430729D01*
X59015001Y-56506703D01*
X59024899Y-56509579D01*
X59128250Y-56530606D01*
X59142299Y-56529410D01*
X59146000Y-56519065D01*
X59146000Y-56518517D01*
X59654000Y-56518517D01*
X59658064Y-56532359D01*
X59671478Y-56534393D01*
X59678184Y-56533534D01*
X59688262Y-56531392D01*
X59892255Y-56470191D01*
X59901842Y-56466433D01*
X60093095Y-56372739D01*
X60101945Y-56367464D01*
X60275328Y-56243792D01*
X60283200Y-56237139D01*
X60434052Y-56086812D01*
X60440730Y-56078965D01*
X60568022Y-55901819D01*
X60569147Y-55902627D01*
X60616669Y-55858876D01*
X60686607Y-55846661D01*
X60752046Y-55874197D01*
X60779870Y-55906028D01*
X60837690Y-56000383D01*
X60843777Y-56008699D01*
X60983213Y-56169667D01*
X60990580Y-56176883D01*
X61154434Y-56312916D01*
X61162881Y-56318831D01*
X61346756Y-56426279D01*
X61356042Y-56430729D01*
X61555001Y-56506703D01*
X61564899Y-56509579D01*
X61668250Y-56530606D01*
X61682299Y-56529410D01*
X61686000Y-56519065D01*
X61686000Y-56518517D01*
X62194000Y-56518517D01*
X62198064Y-56532359D01*
X62211478Y-56534393D01*
X62218184Y-56533534D01*
X62228262Y-56531392D01*
X62432255Y-56470191D01*
X62441842Y-56466433D01*
X62633095Y-56372739D01*
X62641945Y-56367464D01*
X62815328Y-56243792D01*
X62823200Y-56237139D01*
X62974052Y-56086812D01*
X62980730Y-56078965D01*
X63108022Y-55901819D01*
X63109279Y-55902722D01*
X63156373Y-55859362D01*
X63226311Y-55847145D01*
X63291751Y-55874678D01*
X63319579Y-55906511D01*
X63379987Y-56005088D01*
X63526250Y-56173938D01*
X63698126Y-56316632D01*
X63891000Y-56429338D01*
X64099692Y-56509030D01*
X64104760Y-56510061D01*
X64104763Y-56510062D01*
X64199862Y-56529410D01*
X64318597Y-56553567D01*
X64323772Y-56553757D01*
X64323774Y-56553757D01*
X64536673Y-56561564D01*
X64536677Y-56561564D01*
X64541837Y-56561753D01*
X64546957Y-56561097D01*
X64546959Y-56561097D01*
X64758288Y-56534025D01*
X64758289Y-56534025D01*
X64763416Y-56533368D01*
X64768366Y-56531883D01*
X64972429Y-56470661D01*
X64972434Y-56470659D01*
X64977384Y-56469174D01*
X65177994Y-56370896D01*
X65359860Y-56241173D01*
X65518096Y-56083489D01*
X65577594Y-56000689D01*
X65645435Y-55906277D01*
X65648453Y-55902077D01*
X65661995Y-55874678D01*
X65745136Y-55706453D01*
X65745137Y-55706451D01*
X65747430Y-55701811D01*
X65812370Y-55488069D01*
X65841529Y-55266590D01*
X65843156Y-55200000D01*
X65824852Y-54977361D01*
X65770431Y-54760702D01*
X65681354Y-54555840D01*
X65560014Y-54368277D01*
X65540405Y-54346727D01*
X65412798Y-54206488D01*
X65381746Y-54142642D01*
X65390141Y-54072143D01*
X65435317Y-54017375D01*
X65461761Y-54003706D01*
X65568297Y-53963767D01*
X65576705Y-53960615D01*
X65693261Y-53873261D01*
X65780615Y-53756705D01*
X65831745Y-53620316D01*
X65838500Y-53558134D01*
X65838500Y-51761866D01*
X65831745Y-51699684D01*
X65780615Y-51563295D01*
X65693261Y-51446739D01*
X65576705Y-51359385D01*
X65440316Y-51308255D01*
X65378134Y-51301500D01*
X63581866Y-51301500D01*
X63519684Y-51308255D01*
X63383295Y-51359385D01*
X63266739Y-51446739D01*
X63179385Y-51563295D01*
X63176233Y-51571703D01*
X63176232Y-51571705D01*
X63134722Y-51682433D01*
X63092081Y-51739198D01*
X63025519Y-51763898D01*
X62956170Y-51748691D01*
X62923546Y-51723004D01*
X62872799Y-51667234D01*
X62865273Y-51660215D01*
X62698139Y-51528222D01*
X62689552Y-51522517D01*
X62503117Y-51419599D01*
X62493705Y-51415369D01*
X62292959Y-51344280D01*
X62282988Y-51341646D01*
X62211837Y-51328972D01*
X62198540Y-51330432D01*
X62194000Y-51344989D01*
X62194000Y-56518517D01*
X61686000Y-56518517D01*
X61686000Y-55472115D01*
X61681525Y-55456876D01*
X61680135Y-55455671D01*
X61672452Y-55454000D01*
X59672115Y-55454000D01*
X59656876Y-55458475D01*
X59655671Y-55459865D01*
X59654000Y-55467548D01*
X59654000Y-56518517D01*
X59146000Y-56518517D01*
X59146000Y-55472115D01*
X59141525Y-55456876D01*
X59140135Y-55455671D01*
X59132452Y-55454000D01*
X57132115Y-55454000D01*
X57116876Y-55458475D01*
X57115671Y-55459865D01*
X57114000Y-55467548D01*
X57114000Y-56518517D01*
X56606000Y-56518517D01*
X56606000Y-54927885D01*
X57114000Y-54927885D01*
X57118475Y-54943124D01*
X57119865Y-54944329D01*
X57127548Y-54946000D01*
X59127885Y-54946000D01*
X59143124Y-54941525D01*
X59144329Y-54940135D01*
X59146000Y-54932452D01*
X59146000Y-54927885D01*
X59654000Y-54927885D01*
X59658475Y-54943124D01*
X59659865Y-54944329D01*
X59667548Y-54946000D01*
X61667885Y-54946000D01*
X61683124Y-54941525D01*
X61684329Y-54940135D01*
X61686000Y-54932452D01*
X61686000Y-52932115D01*
X61681525Y-52916876D01*
X61680135Y-52915671D01*
X61672452Y-52914000D01*
X59672115Y-52914000D01*
X59656876Y-52918475D01*
X59655671Y-52919865D01*
X59654000Y-52927548D01*
X59654000Y-54927885D01*
X59146000Y-54927885D01*
X59146000Y-52932115D01*
X59141525Y-52916876D01*
X59140135Y-52915671D01*
X59132452Y-52914000D01*
X57132115Y-52914000D01*
X57116876Y-52918475D01*
X57115671Y-52919865D01*
X57114000Y-52927548D01*
X57114000Y-54927885D01*
X56606000Y-54927885D01*
X56606000Y-52387885D01*
X57114000Y-52387885D01*
X57118475Y-52403124D01*
X57119865Y-52404329D01*
X57127548Y-52406000D01*
X59127885Y-52406000D01*
X59143124Y-52401525D01*
X59144329Y-52400135D01*
X59146000Y-52392452D01*
X59146000Y-52387885D01*
X59654000Y-52387885D01*
X59658475Y-52403124D01*
X59659865Y-52404329D01*
X59667548Y-52406000D01*
X61667885Y-52406000D01*
X61683124Y-52401525D01*
X61684329Y-52400135D01*
X61686000Y-52392452D01*
X61686000Y-51343102D01*
X61682082Y-51329758D01*
X61667806Y-51327771D01*
X61629324Y-51333660D01*
X61619288Y-51336051D01*
X61416868Y-51402212D01*
X61407359Y-51406209D01*
X61218463Y-51504542D01*
X61209738Y-51510036D01*
X61039433Y-51637905D01*
X61031726Y-51644748D01*
X60884590Y-51798717D01*
X60878104Y-51806727D01*
X60773193Y-51960521D01*
X60718282Y-52005524D01*
X60647757Y-52013695D01*
X60584010Y-51982441D01*
X60563313Y-51957957D01*
X60482427Y-51832926D01*
X60476136Y-51824757D01*
X60332806Y-51667240D01*
X60325273Y-51660215D01*
X60158139Y-51528222D01*
X60149552Y-51522517D01*
X59963117Y-51419599D01*
X59953705Y-51415369D01*
X59752959Y-51344280D01*
X59742988Y-51341646D01*
X59671837Y-51328972D01*
X59658540Y-51330432D01*
X59654000Y-51344989D01*
X59654000Y-52387885D01*
X59146000Y-52387885D01*
X59146000Y-51343102D01*
X59142082Y-51329758D01*
X59127806Y-51327771D01*
X59089324Y-51333660D01*
X59079288Y-51336051D01*
X58876868Y-51402212D01*
X58867359Y-51406209D01*
X58678463Y-51504542D01*
X58669738Y-51510036D01*
X58499433Y-51637905D01*
X58491726Y-51644748D01*
X58344590Y-51798717D01*
X58338104Y-51806727D01*
X58233193Y-51960521D01*
X58178282Y-52005524D01*
X58107757Y-52013695D01*
X58044010Y-51982441D01*
X58023313Y-51957957D01*
X57942427Y-51832926D01*
X57936136Y-51824757D01*
X57792806Y-51667240D01*
X57785273Y-51660215D01*
X57618139Y-51528222D01*
X57609552Y-51522517D01*
X57423117Y-51419599D01*
X57413705Y-51415369D01*
X57212959Y-51344280D01*
X57202988Y-51341646D01*
X57131837Y-51328972D01*
X57118540Y-51330432D01*
X57114000Y-51344989D01*
X57114000Y-52387885D01*
X56606000Y-52387885D01*
X56606000Y-51343102D01*
X56602082Y-51329758D01*
X56587806Y-51327771D01*
X56549324Y-51333660D01*
X56539288Y-51336051D01*
X56336868Y-51402212D01*
X56327359Y-51406209D01*
X56138463Y-51504542D01*
X56129738Y-51510036D01*
X55959433Y-51637905D01*
X55951726Y-51644748D01*
X55804590Y-51798717D01*
X55798109Y-51806722D01*
X55693498Y-51960074D01*
X55638587Y-52005076D01*
X55568062Y-52013247D01*
X55504315Y-51981993D01*
X55483618Y-51957509D01*
X55402822Y-51832617D01*
X55402820Y-51832614D01*
X55400014Y-51828277D01*
X55249670Y-51663051D01*
X55245619Y-51659852D01*
X55245615Y-51659848D01*
X55078414Y-51527800D01*
X55078410Y-51527798D01*
X55074359Y-51524598D01*
X55038028Y-51504542D01*
X55022136Y-51495769D01*
X54878789Y-51416638D01*
X54873920Y-51414914D01*
X54873916Y-51414912D01*
X54673087Y-51343795D01*
X54673083Y-51343794D01*
X54668212Y-51342069D01*
X54663119Y-51341162D01*
X54663116Y-51341161D01*
X54453373Y-51303800D01*
X54453367Y-51303799D01*
X54448284Y-51302894D01*
X54374452Y-51301992D01*
X54230081Y-51300228D01*
X54230079Y-51300228D01*
X54224911Y-51300165D01*
X54004091Y-51333955D01*
X53791756Y-51403357D01*
X53593607Y-51506507D01*
X53589474Y-51509610D01*
X53589471Y-51509612D01*
X53506771Y-51571705D01*
X53414965Y-51640635D01*
X53260629Y-51802138D01*
X53257715Y-51806410D01*
X53257714Y-51806411D01*
X53245404Y-51824457D01*
X53134743Y-51986680D01*
X53040688Y-52189305D01*
X52980989Y-52404570D01*
X52957251Y-52626695D01*
X52970110Y-52849715D01*
X52971247Y-52854761D01*
X52971248Y-52854767D01*
X52985606Y-52918475D01*
X53019222Y-53067639D01*
X53103266Y-53274616D01*
X53130686Y-53319362D01*
X53217104Y-53460383D01*
X53219987Y-53465088D01*
X53366250Y-53633938D01*
X53538126Y-53776632D01*
X53608595Y-53817811D01*
X53611445Y-53819476D01*
X53660169Y-53871114D01*
X53673240Y-53940897D01*
X53646509Y-54006669D01*
X53606055Y-54040027D01*
X53593607Y-54046507D01*
X53589474Y-54049610D01*
X53589471Y-54049612D01*
X53465567Y-54142642D01*
X53414965Y-54180635D01*
X53260629Y-54342138D01*
X53257715Y-54346410D01*
X53257714Y-54346411D01*
X53245409Y-54364450D01*
X53134743Y-54526680D01*
X53040688Y-54729305D01*
X52980989Y-54944570D01*
X52957251Y-55166695D01*
X50508500Y-55166695D01*
X50508500Y-50634500D01*
X50528502Y-50566379D01*
X50582158Y-50519886D01*
X50634500Y-50508500D01*
X68165500Y-50508500D01*
X68233621Y-50528502D01*
G37*
%TD.AperFunction*%
%TD*%
M02*
