%TF.GenerationSoftware,KiCad,Pcbnew,(6.0.11)*%
%TF.CreationDate,2023-03-29T15:10:06+01:00*%
%TF.ProjectId,QuadEnv_Components,51756164-456e-4765-9f43-6f6d706f6e65,rev?*%
%TF.SameCoordinates,Original*%
%TF.FileFunction,Legend,Top*%
%TF.FilePolarity,Positive*%
%FSLAX46Y46*%
G04 Gerber Fmt 4.6, Leading zero omitted, Abs format (unit mm)*
G04 Created by KiCad (PCBNEW (6.0.11)) date 2023-03-29 15:10:06*
%MOMM*%
%LPD*%
G01*
G04 APERTURE LIST*
%ADD10C,0.475000*%
%ADD11C,0.150000*%
%ADD12C,0.120000*%
G04 APERTURE END LIST*
D10*
X55037500Y-85200000D02*
G75*
G03*
X55037500Y-85200000I-237500J0D01*
G01*
X55237500Y-118200000D02*
G75*
G03*
X55237500Y-118200000I-237500J0D01*
G01*
X54137500Y-99400000D02*
G75*
G03*
X54137500Y-99400000I-237500J0D01*
G01*
D11*
X58233333Y-100100000D02*
X58138095Y-100052380D01*
X57995238Y-100052380D01*
X57852380Y-100100000D01*
X57757142Y-100195238D01*
X57709523Y-100290476D01*
X57661904Y-100480952D01*
X57661904Y-100623809D01*
X57709523Y-100814285D01*
X57757142Y-100909523D01*
X57852380Y-101004761D01*
X57995238Y-101052380D01*
X58090476Y-101052380D01*
X58233333Y-101004761D01*
X58280952Y-100957142D01*
X58280952Y-100623809D01*
X58090476Y-100623809D01*
X59138095Y-100385714D02*
X59138095Y-101052380D01*
X58900000Y-100004761D02*
X58661904Y-100719047D01*
X59280952Y-100719047D01*
X59566666Y-100052380D02*
X60185714Y-100052380D01*
X59852380Y-100433333D01*
X59995238Y-100433333D01*
X60090476Y-100480952D01*
X60138095Y-100528571D01*
X60185714Y-100623809D01*
X60185714Y-100861904D01*
X60138095Y-100957142D01*
X60090476Y-101004761D01*
X59995238Y-101052380D01*
X59709523Y-101052380D01*
X59614285Y-101004761D01*
X59566666Y-100957142D01*
X61138095Y-101052380D02*
X60566666Y-101052380D01*
X60852380Y-101052380D02*
X60852380Y-100052380D01*
X60757142Y-100195238D01*
X60661904Y-100290476D01*
X60566666Y-100338095D01*
X52666666Y-152152380D02*
X52666666Y-152866666D01*
X52619047Y-153009523D01*
X52523809Y-153104761D01*
X52380952Y-153152380D01*
X52285714Y-153152380D01*
X53571428Y-152485714D02*
X53571428Y-153152380D01*
X53333333Y-152104761D02*
X53095238Y-152819047D01*
X53714285Y-152819047D01*
X60452380Y-145142380D02*
X60452380Y-144142380D01*
X60785714Y-144856666D01*
X61119047Y-144142380D01*
X61119047Y-145142380D01*
X61738095Y-145142380D02*
X61642857Y-145094761D01*
X61595238Y-145047142D01*
X61547619Y-144951904D01*
X61547619Y-144666190D01*
X61595238Y-144570952D01*
X61642857Y-144523333D01*
X61738095Y-144475714D01*
X61880952Y-144475714D01*
X61976190Y-144523333D01*
X62023809Y-144570952D01*
X62071428Y-144666190D01*
X62071428Y-144951904D01*
X62023809Y-145047142D01*
X61976190Y-145094761D01*
X61880952Y-145142380D01*
X61738095Y-145142380D01*
X62928571Y-144475714D02*
X62928571Y-145142380D01*
X62500000Y-144475714D02*
X62500000Y-144999523D01*
X62547619Y-145094761D01*
X62642857Y-145142380D01*
X62785714Y-145142380D01*
X62880952Y-145094761D01*
X62928571Y-145047142D01*
X63404761Y-144475714D02*
X63404761Y-145142380D01*
X63404761Y-144570952D02*
X63452380Y-144523333D01*
X63547619Y-144475714D01*
X63690476Y-144475714D01*
X63785714Y-144523333D01*
X63833333Y-144618571D01*
X63833333Y-145142380D01*
X64166666Y-144475714D02*
X64547619Y-144475714D01*
X64309523Y-144142380D02*
X64309523Y-144999523D01*
X64357142Y-145094761D01*
X64452380Y-145142380D01*
X64547619Y-145142380D01*
X64880952Y-144475714D02*
X64880952Y-145332857D01*
X64833333Y-145428095D01*
X64738095Y-145475714D01*
X64690476Y-145475714D01*
X64880952Y-144142380D02*
X64833333Y-144190000D01*
X64880952Y-144237619D01*
X64928571Y-144190000D01*
X64880952Y-144142380D01*
X64880952Y-144237619D01*
X65500000Y-145142380D02*
X65404761Y-145094761D01*
X65357142Y-145047142D01*
X65309523Y-144951904D01*
X65309523Y-144666190D01*
X65357142Y-144570952D01*
X65404761Y-144523333D01*
X65500000Y-144475714D01*
X65642857Y-144475714D01*
X65738095Y-144523333D01*
X65785714Y-144570952D01*
X65833333Y-144666190D01*
X65833333Y-144951904D01*
X65785714Y-145047142D01*
X65738095Y-145094761D01*
X65642857Y-145142380D01*
X65500000Y-145142380D01*
X66166666Y-144475714D02*
X66404761Y-145142380D01*
X66642857Y-144475714D02*
X66404761Y-145142380D01*
X66309523Y-145380476D01*
X66261904Y-145428095D01*
X66166666Y-145475714D01*
X60785714Y-146752380D02*
X60785714Y-145752380D01*
X61119047Y-146466666D01*
X61452380Y-145752380D01*
X61452380Y-146752380D01*
X62071428Y-146752380D02*
X61976190Y-146704761D01*
X61928571Y-146657142D01*
X61880952Y-146561904D01*
X61880952Y-146276190D01*
X61928571Y-146180952D01*
X61976190Y-146133333D01*
X62071428Y-146085714D01*
X62214285Y-146085714D01*
X62309523Y-146133333D01*
X62357142Y-146180952D01*
X62404761Y-146276190D01*
X62404761Y-146561904D01*
X62357142Y-146657142D01*
X62309523Y-146704761D01*
X62214285Y-146752380D01*
X62071428Y-146752380D01*
X63261904Y-146752380D02*
X63261904Y-145752380D01*
X63261904Y-146704761D02*
X63166666Y-146752380D01*
X62976190Y-146752380D01*
X62880952Y-146704761D01*
X62833333Y-146657142D01*
X62785714Y-146561904D01*
X62785714Y-146276190D01*
X62833333Y-146180952D01*
X62880952Y-146133333D01*
X62976190Y-146085714D01*
X63166666Y-146085714D01*
X63261904Y-146133333D01*
X64166666Y-146085714D02*
X64166666Y-146752380D01*
X63738095Y-146085714D02*
X63738095Y-146609523D01*
X63785714Y-146704761D01*
X63880952Y-146752380D01*
X64023809Y-146752380D01*
X64119047Y-146704761D01*
X64166666Y-146657142D01*
X64785714Y-146752380D02*
X64690476Y-146704761D01*
X64642857Y-146609523D01*
X64642857Y-145752380D01*
X65595238Y-146752380D02*
X65595238Y-146228571D01*
X65547619Y-146133333D01*
X65452380Y-146085714D01*
X65261904Y-146085714D01*
X65166666Y-146133333D01*
X65595238Y-146704761D02*
X65500000Y-146752380D01*
X65261904Y-146752380D01*
X65166666Y-146704761D01*
X65119047Y-146609523D01*
X65119047Y-146514285D01*
X65166666Y-146419047D01*
X65261904Y-146371428D01*
X65500000Y-146371428D01*
X65595238Y-146323809D01*
X66071428Y-146752380D02*
X66071428Y-146085714D01*
X66071428Y-146276190D02*
X66119047Y-146180952D01*
X66166666Y-146133333D01*
X66261904Y-146085714D01*
X66357142Y-146085714D01*
X61785714Y-147457619D02*
X61833333Y-147410000D01*
X61928571Y-147362380D01*
X62166666Y-147362380D01*
X62261904Y-147410000D01*
X62309523Y-147457619D01*
X62357142Y-147552857D01*
X62357142Y-147648095D01*
X62309523Y-147790952D01*
X61738095Y-148362380D01*
X62357142Y-148362380D01*
X62976190Y-147362380D02*
X63071428Y-147362380D01*
X63166666Y-147410000D01*
X63214285Y-147457619D01*
X63261904Y-147552857D01*
X63309523Y-147743333D01*
X63309523Y-147981428D01*
X63261904Y-148171904D01*
X63214285Y-148267142D01*
X63166666Y-148314761D01*
X63071428Y-148362380D01*
X62976190Y-148362380D01*
X62880952Y-148314761D01*
X62833333Y-148267142D01*
X62785714Y-148171904D01*
X62738095Y-147981428D01*
X62738095Y-147743333D01*
X62785714Y-147552857D01*
X62833333Y-147457619D01*
X62880952Y-147410000D01*
X62976190Y-147362380D01*
X63690476Y-147457619D02*
X63738095Y-147410000D01*
X63833333Y-147362380D01*
X64071428Y-147362380D01*
X64166666Y-147410000D01*
X64214285Y-147457619D01*
X64261904Y-147552857D01*
X64261904Y-147648095D01*
X64214285Y-147790952D01*
X63642857Y-148362380D01*
X64261904Y-148362380D01*
X64595238Y-147362380D02*
X65214285Y-147362380D01*
X64880952Y-147743333D01*
X65023809Y-147743333D01*
X65119047Y-147790952D01*
X65166666Y-147838571D01*
X65214285Y-147933809D01*
X65214285Y-148171904D01*
X65166666Y-148267142D01*
X65119047Y-148314761D01*
X65023809Y-148362380D01*
X64738095Y-148362380D01*
X64642857Y-148314761D01*
X64595238Y-148267142D01*
X51866666Y-89252380D02*
X51866666Y-89966666D01*
X51819047Y-90109523D01*
X51723809Y-90204761D01*
X51580952Y-90252380D01*
X51485714Y-90252380D01*
X52866666Y-90252380D02*
X52295238Y-90252380D01*
X52580952Y-90252380D02*
X52580952Y-89252380D01*
X52485714Y-89395238D01*
X52390476Y-89490476D01*
X52295238Y-89538095D01*
X52466666Y-136652380D02*
X52466666Y-137366666D01*
X52419047Y-137509523D01*
X52323809Y-137604761D01*
X52180952Y-137652380D01*
X52085714Y-137652380D01*
X52847619Y-136652380D02*
X53466666Y-136652380D01*
X53133333Y-137033333D01*
X53276190Y-137033333D01*
X53371428Y-137080952D01*
X53419047Y-137128571D01*
X53466666Y-137223809D01*
X53466666Y-137461904D01*
X53419047Y-137557142D01*
X53371428Y-137604761D01*
X53276190Y-137652380D01*
X52990476Y-137652380D01*
X52895238Y-137604761D01*
X52847619Y-137557142D01*
X66266666Y-71252380D02*
X66266666Y-71966666D01*
X66219047Y-72109523D01*
X66123809Y-72204761D01*
X65980952Y-72252380D01*
X65885714Y-72252380D01*
X66695238Y-71347619D02*
X66742857Y-71300000D01*
X66838095Y-71252380D01*
X67076190Y-71252380D01*
X67171428Y-71300000D01*
X67219047Y-71347619D01*
X67266666Y-71442857D01*
X67266666Y-71538095D01*
X67219047Y-71680952D01*
X66647619Y-72252380D01*
X67266666Y-72252380D01*
%TO.C,TP6*%
X52852380Y-100038095D02*
X52376190Y-100371428D01*
X52852380Y-100609523D02*
X51852380Y-100609523D01*
X51852380Y-100228571D01*
X51900000Y-100133333D01*
X51947619Y-100085714D01*
X52042857Y-100038095D01*
X52185714Y-100038095D01*
X52280952Y-100085714D01*
X52328571Y-100133333D01*
X52376190Y-100228571D01*
X52376190Y-100609523D01*
X52804761Y-99228571D02*
X52852380Y-99323809D01*
X52852380Y-99514285D01*
X52804761Y-99609523D01*
X52709523Y-99657142D01*
X52328571Y-99657142D01*
X52233333Y-99609523D01*
X52185714Y-99514285D01*
X52185714Y-99323809D01*
X52233333Y-99228571D01*
X52328571Y-99180952D01*
X52423809Y-99180952D01*
X52519047Y-99657142D01*
X52804761Y-98800000D02*
X52852380Y-98704761D01*
X52852380Y-98514285D01*
X52804761Y-98419047D01*
X52709523Y-98371428D01*
X52661904Y-98371428D01*
X52566666Y-98419047D01*
X52519047Y-98514285D01*
X52519047Y-98657142D01*
X52471428Y-98752380D01*
X52376190Y-98800000D01*
X52328571Y-98800000D01*
X52233333Y-98752380D01*
X52185714Y-98657142D01*
X52185714Y-98514285D01*
X52233333Y-98419047D01*
X52804761Y-97561904D02*
X52852380Y-97657142D01*
X52852380Y-97847619D01*
X52804761Y-97942857D01*
X52709523Y-97990476D01*
X52328571Y-97990476D01*
X52233333Y-97942857D01*
X52185714Y-97847619D01*
X52185714Y-97657142D01*
X52233333Y-97561904D01*
X52328571Y-97514285D01*
X52423809Y-97514285D01*
X52519047Y-97990476D01*
X52185714Y-97228571D02*
X52185714Y-96847619D01*
X51852380Y-97085714D02*
X52709523Y-97085714D01*
X52804761Y-97038095D01*
X52852380Y-96942857D01*
X52852380Y-96847619D01*
%TO.C,R3*%
X62252380Y-79566666D02*
X61776190Y-79900000D01*
X62252380Y-80138095D02*
X61252380Y-80138095D01*
X61252380Y-79757142D01*
X61300000Y-79661904D01*
X61347619Y-79614285D01*
X61442857Y-79566666D01*
X61585714Y-79566666D01*
X61680952Y-79614285D01*
X61728571Y-79661904D01*
X61776190Y-79757142D01*
X61776190Y-80138095D01*
X61252380Y-79233333D02*
X61252380Y-78614285D01*
X61633333Y-78947619D01*
X61633333Y-78804761D01*
X61680952Y-78709523D01*
X61728571Y-78661904D01*
X61823809Y-78614285D01*
X62061904Y-78614285D01*
X62157142Y-78661904D01*
X62204761Y-78709523D01*
X62252380Y-78804761D01*
X62252380Y-79090476D01*
X62204761Y-79185714D01*
X62157142Y-79233333D01*
%TO.C,C11*%
X58157142Y-113642857D02*
X58204761Y-113690476D01*
X58252380Y-113833333D01*
X58252380Y-113928571D01*
X58204761Y-114071428D01*
X58109523Y-114166666D01*
X58014285Y-114214285D01*
X57823809Y-114261904D01*
X57680952Y-114261904D01*
X57490476Y-114214285D01*
X57395238Y-114166666D01*
X57300000Y-114071428D01*
X57252380Y-113928571D01*
X57252380Y-113833333D01*
X57300000Y-113690476D01*
X57347619Y-113642857D01*
X58252380Y-112690476D02*
X58252380Y-113261904D01*
X58252380Y-112976190D02*
X57252380Y-112976190D01*
X57395238Y-113071428D01*
X57490476Y-113166666D01*
X57538095Y-113261904D01*
X58252380Y-111738095D02*
X58252380Y-112309523D01*
X58252380Y-112023809D02*
X57252380Y-112023809D01*
X57395238Y-112119047D01*
X57490476Y-112214285D01*
X57538095Y-112309523D01*
%TO.C,C7*%
X61357142Y-112966666D02*
X61404761Y-113014285D01*
X61452380Y-113157142D01*
X61452380Y-113252380D01*
X61404761Y-113395238D01*
X61309523Y-113490476D01*
X61214285Y-113538095D01*
X61023809Y-113585714D01*
X60880952Y-113585714D01*
X60690476Y-113538095D01*
X60595238Y-113490476D01*
X60500000Y-113395238D01*
X60452380Y-113252380D01*
X60452380Y-113157142D01*
X60500000Y-113014285D01*
X60547619Y-112966666D01*
X60452380Y-112633333D02*
X60452380Y-111966666D01*
X61452380Y-112395238D01*
%TO.C,R4*%
X60652380Y-79566666D02*
X60176190Y-79900000D01*
X60652380Y-80138095D02*
X59652380Y-80138095D01*
X59652380Y-79757142D01*
X59700000Y-79661904D01*
X59747619Y-79614285D01*
X59842857Y-79566666D01*
X59985714Y-79566666D01*
X60080952Y-79614285D01*
X60128571Y-79661904D01*
X60176190Y-79757142D01*
X60176190Y-80138095D01*
X59985714Y-78709523D02*
X60652380Y-78709523D01*
X59604761Y-78947619D02*
X60319047Y-79185714D01*
X60319047Y-78566666D01*
%TO.C,L1*%
X52633333Y-69652380D02*
X52157142Y-69652380D01*
X52157142Y-68652380D01*
X53490476Y-69652380D02*
X52919047Y-69652380D01*
X53204761Y-69652380D02*
X53204761Y-68652380D01*
X53109523Y-68795238D01*
X53014285Y-68890476D01*
X52919047Y-68938095D01*
%TO.C,C8*%
X62957142Y-72766666D02*
X63004761Y-72814285D01*
X63052380Y-72957142D01*
X63052380Y-73052380D01*
X63004761Y-73195238D01*
X62909523Y-73290476D01*
X62814285Y-73338095D01*
X62623809Y-73385714D01*
X62480952Y-73385714D01*
X62290476Y-73338095D01*
X62195238Y-73290476D01*
X62100000Y-73195238D01*
X62052380Y-73052380D01*
X62052380Y-72957142D01*
X62100000Y-72814285D01*
X62147619Y-72766666D01*
X62480952Y-72195238D02*
X62433333Y-72290476D01*
X62385714Y-72338095D01*
X62290476Y-72385714D01*
X62242857Y-72385714D01*
X62147619Y-72338095D01*
X62100000Y-72290476D01*
X62052380Y-72195238D01*
X62052380Y-72004761D01*
X62100000Y-71909523D01*
X62147619Y-71861904D01*
X62242857Y-71814285D01*
X62290476Y-71814285D01*
X62385714Y-71861904D01*
X62433333Y-71909523D01*
X62480952Y-72004761D01*
X62480952Y-72195238D01*
X62528571Y-72290476D01*
X62576190Y-72338095D01*
X62671428Y-72385714D01*
X62861904Y-72385714D01*
X62957142Y-72338095D01*
X63004761Y-72290476D01*
X63052380Y-72195238D01*
X63052380Y-72004761D01*
X63004761Y-71909523D01*
X62957142Y-71861904D01*
X62861904Y-71814285D01*
X62671428Y-71814285D01*
X62576190Y-71861904D01*
X62528571Y-71909523D01*
X62480952Y-72004761D01*
%TO.C,R5*%
X58252380Y-92766666D02*
X57776190Y-93100000D01*
X58252380Y-93338095D02*
X57252380Y-93338095D01*
X57252380Y-92957142D01*
X57300000Y-92861904D01*
X57347619Y-92814285D01*
X57442857Y-92766666D01*
X57585714Y-92766666D01*
X57680952Y-92814285D01*
X57728571Y-92861904D01*
X57776190Y-92957142D01*
X57776190Y-93338095D01*
X57252380Y-91861904D02*
X57252380Y-92338095D01*
X57728571Y-92385714D01*
X57680952Y-92338095D01*
X57633333Y-92242857D01*
X57633333Y-92004761D01*
X57680952Y-91909523D01*
X57728571Y-91861904D01*
X57823809Y-91814285D01*
X58061904Y-91814285D01*
X58157142Y-91861904D01*
X58204761Y-91909523D01*
X58252380Y-92004761D01*
X58252380Y-92242857D01*
X58204761Y-92338095D01*
X58157142Y-92385714D01*
%TO.C,C3*%
X67957142Y-98966666D02*
X68004761Y-99014285D01*
X68052380Y-99157142D01*
X68052380Y-99252380D01*
X68004761Y-99395238D01*
X67909523Y-99490476D01*
X67814285Y-99538095D01*
X67623809Y-99585714D01*
X67480952Y-99585714D01*
X67290476Y-99538095D01*
X67195238Y-99490476D01*
X67100000Y-99395238D01*
X67052380Y-99252380D01*
X67052380Y-99157142D01*
X67100000Y-99014285D01*
X67147619Y-98966666D01*
X67052380Y-98633333D02*
X67052380Y-98014285D01*
X67433333Y-98347619D01*
X67433333Y-98204761D01*
X67480952Y-98109523D01*
X67528571Y-98061904D01*
X67623809Y-98014285D01*
X67861904Y-98014285D01*
X67957142Y-98061904D01*
X68004761Y-98109523D01*
X68052380Y-98204761D01*
X68052380Y-98490476D01*
X68004761Y-98585714D01*
X67957142Y-98633333D01*
%TO.C,C12*%
X59757142Y-113842857D02*
X59804761Y-113890476D01*
X59852380Y-114033333D01*
X59852380Y-114128571D01*
X59804761Y-114271428D01*
X59709523Y-114366666D01*
X59614285Y-114414285D01*
X59423809Y-114461904D01*
X59280952Y-114461904D01*
X59090476Y-114414285D01*
X58995238Y-114366666D01*
X58900000Y-114271428D01*
X58852380Y-114128571D01*
X58852380Y-114033333D01*
X58900000Y-113890476D01*
X58947619Y-113842857D01*
X59852380Y-112890476D02*
X59852380Y-113461904D01*
X59852380Y-113176190D02*
X58852380Y-113176190D01*
X58995238Y-113271428D01*
X59090476Y-113366666D01*
X59138095Y-113461904D01*
X58947619Y-112509523D02*
X58900000Y-112461904D01*
X58852380Y-112366666D01*
X58852380Y-112128571D01*
X58900000Y-112033333D01*
X58947619Y-111985714D01*
X59042857Y-111938095D01*
X59138095Y-111938095D01*
X59280952Y-111985714D01*
X59852380Y-112557142D01*
X59852380Y-111938095D01*
%TO.C,C1*%
X67987142Y-102366666D02*
X68034761Y-102414285D01*
X68082380Y-102557142D01*
X68082380Y-102652380D01*
X68034761Y-102795238D01*
X67939523Y-102890476D01*
X67844285Y-102938095D01*
X67653809Y-102985714D01*
X67510952Y-102985714D01*
X67320476Y-102938095D01*
X67225238Y-102890476D01*
X67130000Y-102795238D01*
X67082380Y-102652380D01*
X67082380Y-102557142D01*
X67130000Y-102414285D01*
X67177619Y-102366666D01*
X68082380Y-101414285D02*
X68082380Y-101985714D01*
X68082380Y-101700000D02*
X67082380Y-101700000D01*
X67225238Y-101795238D01*
X67320476Y-101890476D01*
X67368095Y-101985714D01*
%TO.C,R1*%
X57452380Y-79566666D02*
X56976190Y-79900000D01*
X57452380Y-80138095D02*
X56452380Y-80138095D01*
X56452380Y-79757142D01*
X56500000Y-79661904D01*
X56547619Y-79614285D01*
X56642857Y-79566666D01*
X56785714Y-79566666D01*
X56880952Y-79614285D01*
X56928571Y-79661904D01*
X56976190Y-79757142D01*
X56976190Y-80138095D01*
X57452380Y-78614285D02*
X57452380Y-79185714D01*
X57452380Y-78900000D02*
X56452380Y-78900000D01*
X56595238Y-78995238D01*
X56690476Y-79090476D01*
X56738095Y-79185714D01*
%TO.C,C6*%
X56557142Y-92766666D02*
X56604761Y-92814285D01*
X56652380Y-92957142D01*
X56652380Y-93052380D01*
X56604761Y-93195238D01*
X56509523Y-93290476D01*
X56414285Y-93338095D01*
X56223809Y-93385714D01*
X56080952Y-93385714D01*
X55890476Y-93338095D01*
X55795238Y-93290476D01*
X55700000Y-93195238D01*
X55652380Y-93052380D01*
X55652380Y-92957142D01*
X55700000Y-92814285D01*
X55747619Y-92766666D01*
X55652380Y-91909523D02*
X55652380Y-92100000D01*
X55700000Y-92195238D01*
X55747619Y-92242857D01*
X55890476Y-92338095D01*
X56080952Y-92385714D01*
X56461904Y-92385714D01*
X56557142Y-92338095D01*
X56604761Y-92290476D01*
X56652380Y-92195238D01*
X56652380Y-92004761D01*
X56604761Y-91909523D01*
X56557142Y-91861904D01*
X56461904Y-91814285D01*
X56223809Y-91814285D01*
X56128571Y-91861904D01*
X56080952Y-91909523D01*
X56033333Y-92004761D01*
X56033333Y-92195238D01*
X56080952Y-92290476D01*
X56128571Y-92338095D01*
X56223809Y-92385714D01*
%TO.C,C2*%
X64557142Y-112966666D02*
X64604761Y-113014285D01*
X64652380Y-113157142D01*
X64652380Y-113252380D01*
X64604761Y-113395238D01*
X64509523Y-113490476D01*
X64414285Y-113538095D01*
X64223809Y-113585714D01*
X64080952Y-113585714D01*
X63890476Y-113538095D01*
X63795238Y-113490476D01*
X63700000Y-113395238D01*
X63652380Y-113252380D01*
X63652380Y-113157142D01*
X63700000Y-113014285D01*
X63747619Y-112966666D01*
X63747619Y-112585714D02*
X63700000Y-112538095D01*
X63652380Y-112442857D01*
X63652380Y-112204761D01*
X63700000Y-112109523D01*
X63747619Y-112061904D01*
X63842857Y-112014285D01*
X63938095Y-112014285D01*
X64080952Y-112061904D01*
X64652380Y-112633333D01*
X64652380Y-112014285D01*
%TO.C,J5*%
X64861904Y-92570000D02*
X64766666Y-92522380D01*
X64623809Y-92522380D01*
X64480952Y-92570000D01*
X64385714Y-92665238D01*
X64338095Y-92760476D01*
X64290476Y-92950952D01*
X64290476Y-93093809D01*
X64338095Y-93284285D01*
X64385714Y-93379523D01*
X64480952Y-93474761D01*
X64623809Y-93522380D01*
X64719047Y-93522380D01*
X64861904Y-93474761D01*
X64909523Y-93427142D01*
X64909523Y-93093809D01*
X64719047Y-93093809D01*
X64009523Y-88357142D02*
X63961904Y-88404761D01*
X63819047Y-88452380D01*
X63723809Y-88452380D01*
X63580952Y-88404761D01*
X63485714Y-88309523D01*
X63438095Y-88214285D01*
X63390476Y-88023809D01*
X63390476Y-87880952D01*
X63438095Y-87690476D01*
X63485714Y-87595238D01*
X63580952Y-87500000D01*
X63723809Y-87452380D01*
X63819047Y-87452380D01*
X63961904Y-87500000D01*
X64009523Y-87547619D01*
X64438095Y-88452380D02*
X64438095Y-87452380D01*
X65009523Y-88452380D02*
X64580952Y-87880952D01*
X65009523Y-87452380D02*
X64438095Y-88023809D01*
X64076190Y-91052380D02*
X64076190Y-90052380D01*
X64742857Y-90052380D02*
X64933333Y-90052380D01*
X65028571Y-90100000D01*
X65123809Y-90195238D01*
X65171428Y-90385714D01*
X65171428Y-90719047D01*
X65123809Y-90909523D01*
X65028571Y-91004761D01*
X64933333Y-91052380D01*
X64742857Y-91052380D01*
X64647619Y-91004761D01*
X64552380Y-90909523D01*
X64504761Y-90719047D01*
X64504761Y-90385714D01*
X64552380Y-90195238D01*
X64647619Y-90100000D01*
X64742857Y-90052380D01*
X62561904Y-95052380D02*
X63180952Y-95052380D01*
X62847619Y-95433333D01*
X62990476Y-95433333D01*
X63085714Y-95480952D01*
X63133333Y-95528571D01*
X63180952Y-95623809D01*
X63180952Y-95861904D01*
X63133333Y-95957142D01*
X63085714Y-96004761D01*
X62990476Y-96052380D01*
X62704761Y-96052380D01*
X62609523Y-96004761D01*
X62561904Y-95957142D01*
X63466666Y-95052380D02*
X63800000Y-96052380D01*
X64133333Y-95052380D01*
X64371428Y-95052380D02*
X64990476Y-95052380D01*
X64657142Y-95433333D01*
X64800000Y-95433333D01*
X64895238Y-95480952D01*
X64942857Y-95528571D01*
X64990476Y-95623809D01*
X64990476Y-95861904D01*
X64942857Y-95957142D01*
X64895238Y-96004761D01*
X64800000Y-96052380D01*
X64514285Y-96052380D01*
X64419047Y-96004761D01*
X64371428Y-95957142D01*
%TO.C,R2*%
X59052380Y-79566666D02*
X58576190Y-79900000D01*
X59052380Y-80138095D02*
X58052380Y-80138095D01*
X58052380Y-79757142D01*
X58100000Y-79661904D01*
X58147619Y-79614285D01*
X58242857Y-79566666D01*
X58385714Y-79566666D01*
X58480952Y-79614285D01*
X58528571Y-79661904D01*
X58576190Y-79757142D01*
X58576190Y-80138095D01*
X58147619Y-79185714D02*
X58100000Y-79138095D01*
X58052380Y-79042857D01*
X58052380Y-78804761D01*
X58100000Y-78709523D01*
X58147619Y-78661904D01*
X58242857Y-78614285D01*
X58338095Y-78614285D01*
X58480952Y-78661904D01*
X59052380Y-79233333D01*
X59052380Y-78614285D01*
%TO.C,C13*%
X62957142Y-113842857D02*
X63004761Y-113890476D01*
X63052380Y-114033333D01*
X63052380Y-114128571D01*
X63004761Y-114271428D01*
X62909523Y-114366666D01*
X62814285Y-114414285D01*
X62623809Y-114461904D01*
X62480952Y-114461904D01*
X62290476Y-114414285D01*
X62195238Y-114366666D01*
X62100000Y-114271428D01*
X62052380Y-114128571D01*
X62052380Y-114033333D01*
X62100000Y-113890476D01*
X62147619Y-113842857D01*
X63052380Y-112890476D02*
X63052380Y-113461904D01*
X63052380Y-113176190D02*
X62052380Y-113176190D01*
X62195238Y-113271428D01*
X62290476Y-113366666D01*
X62338095Y-113461904D01*
X62052380Y-112557142D02*
X62052380Y-111938095D01*
X62433333Y-112271428D01*
X62433333Y-112128571D01*
X62480952Y-112033333D01*
X62528571Y-111985714D01*
X62623809Y-111938095D01*
X62861904Y-111938095D01*
X62957142Y-111985714D01*
X63004761Y-112033333D01*
X63052380Y-112128571D01*
X63052380Y-112414285D01*
X63004761Y-112509523D01*
X62957142Y-112557142D01*
D12*
%TO.C,R22*%
X65562742Y-127992500D02*
X66037258Y-127992500D01*
X65562742Y-126947500D02*
X66037258Y-126947500D01*
%TO.C,C4*%
X50540000Y-66860000D02*
X51740000Y-66860000D01*
X50540000Y-63404437D02*
X50540000Y-66860000D01*
X54360000Y-61600000D02*
X54360000Y-62100000D01*
X53995563Y-62340000D02*
X53860000Y-62340000D01*
X51604437Y-62340000D02*
X51740000Y-62340000D01*
X55060000Y-63404437D02*
X55060000Y-66860000D01*
X51604437Y-62340000D02*
X50540000Y-63404437D01*
X54610000Y-61850000D02*
X54110000Y-61850000D01*
X55060000Y-66860000D02*
X53860000Y-66860000D01*
X53995563Y-62340000D02*
X55060000Y-63404437D01*
%TO.C,C5*%
X66995563Y-66860000D02*
X68060000Y-65795563D01*
X63540000Y-62340000D02*
X64740000Y-62340000D01*
X68060000Y-62340000D02*
X66860000Y-62340000D01*
X64604437Y-66860000D02*
X64740000Y-66860000D01*
X64604437Y-66860000D02*
X63540000Y-65795563D01*
X64240000Y-67600000D02*
X64240000Y-67100000D01*
X66995563Y-66860000D02*
X66860000Y-66860000D01*
X63990000Y-67350000D02*
X64490000Y-67350000D01*
X63540000Y-65795563D02*
X63540000Y-62340000D01*
X68060000Y-65795563D02*
X68060000Y-62340000D01*
%TO.C,R3*%
X62322500Y-82037258D02*
X62322500Y-81562742D01*
X61277500Y-82037258D02*
X61277500Y-81562742D01*
%TO.C,C11*%
X58310000Y-110340580D02*
X58310000Y-110059420D01*
X57290000Y-110340580D02*
X57290000Y-110059420D01*
%TO.C,R16*%
X65562742Y-117947500D02*
X66037258Y-117947500D01*
X65562742Y-118992500D02*
X66037258Y-118992500D01*
%TO.C,C7*%
X60490000Y-110059420D02*
X60490000Y-110340580D01*
X61510000Y-110059420D02*
X61510000Y-110340580D01*
%TO.C,U4*%
X59400000Y-117635000D02*
X61350000Y-117635000D01*
X59400000Y-126505000D02*
X61350000Y-126505000D01*
X59400000Y-126505000D02*
X57450000Y-126505000D01*
X59400000Y-117635000D02*
X55950000Y-117635000D01*
%TO.C,R4*%
X60722500Y-82037258D02*
X60722500Y-81562742D01*
X59677500Y-82037258D02*
X59677500Y-81562742D01*
%TO.C,R9*%
X53237258Y-120792500D02*
X52762742Y-120792500D01*
X53237258Y-119747500D02*
X52762742Y-119747500D01*
%TO.C,kibuzzard-6409FE57*%
G36*
X51004116Y-104977402D02*
G01*
X53795884Y-104977402D01*
X53795884Y-106222598D01*
X51004116Y-106222598D01*
X51004116Y-105635347D01*
X51162866Y-105635347D01*
X51168895Y-105719200D01*
X51185328Y-105795475D01*
X51212166Y-105864170D01*
X51270302Y-105949979D01*
X51348591Y-106012688D01*
X51410706Y-106041110D01*
X51479229Y-106058163D01*
X51554160Y-106063848D01*
X51660820Y-106055554D01*
X51676795Y-106051445D01*
X52050254Y-106051445D01*
X52236289Y-106051445D01*
X52236289Y-105457373D01*
X52598438Y-106051445D01*
X52784473Y-106051445D01*
X52946943Y-106051445D01*
X53226616Y-106051445D01*
X53302891Y-106045106D01*
X53373791Y-106026916D01*
X53439316Y-105996875D01*
X53497435Y-105956016D01*
X53546114Y-105905373D01*
X53585354Y-105844946D01*
X53614121Y-105776527D01*
X53631380Y-105701906D01*
X53637134Y-105621084D01*
X53637134Y-105579536D01*
X53631277Y-105498611D01*
X53613707Y-105423680D01*
X53584424Y-105354744D01*
X53544702Y-105293834D01*
X53495816Y-105242985D01*
X53437766Y-105202195D01*
X53372344Y-105172395D01*
X53301340Y-105154515D01*
X53224756Y-105148555D01*
X52946943Y-105148555D01*
X52946943Y-106051445D01*
X52784473Y-106051445D01*
X52784473Y-105148555D01*
X52599058Y-105148555D01*
X52599058Y-105743867D01*
X52236289Y-105148555D01*
X52050254Y-105148555D01*
X52050254Y-106051445D01*
X51676795Y-106051445D01*
X51757559Y-106030671D01*
X51838949Y-105990751D01*
X51899565Y-105937344D01*
X51899565Y-105577056D01*
X51544238Y-105577056D01*
X51544238Y-105714102D01*
X51713530Y-105714102D01*
X51713530Y-105869751D01*
X51653844Y-105903237D01*
X51564082Y-105914399D01*
X51472460Y-105896261D01*
X51405952Y-105841846D01*
X51375980Y-105785760D01*
X51357996Y-105714239D01*
X51352002Y-105627285D01*
X51352002Y-105569614D01*
X51357859Y-105483487D01*
X51374602Y-105412794D01*
X51402231Y-105357534D01*
X51463158Y-105304049D01*
X51546719Y-105286221D01*
X51613149Y-105295212D01*
X51663611Y-105322187D01*
X51698570Y-105368541D01*
X51718491Y-105435669D01*
X51899565Y-105435669D01*
X51880204Y-105345855D01*
X51844444Y-105271545D01*
X51792285Y-105212737D01*
X51724141Y-105170190D01*
X51640425Y-105144662D01*
X51541138Y-105136152D01*
X51467516Y-105141975D01*
X51400440Y-105159441D01*
X51339910Y-105188552D01*
X51264100Y-105252579D01*
X51208445Y-105339861D01*
X51183123Y-105409831D01*
X51167931Y-105487862D01*
X51162866Y-105573955D01*
X51162866Y-105635347D01*
X51004116Y-105635347D01*
X51004116Y-104977402D01*
G37*
G36*
X53321339Y-105316994D02*
G01*
X53391567Y-105370247D01*
X53423262Y-105424989D01*
X53442279Y-105494546D01*
X53448618Y-105578916D01*
X53448618Y-105626665D01*
X53441521Y-105708314D01*
X53421884Y-105776320D01*
X53389707Y-105830684D01*
X53319169Y-105884169D01*
X53222896Y-105901997D01*
X53132979Y-105901997D01*
X53132979Y-105299243D01*
X53224756Y-105299243D01*
X53321339Y-105316994D01*
G37*
%TO.C,L1*%
X53210242Y-71360000D02*
X52389758Y-71360000D01*
X53210242Y-70240000D02*
X52389758Y-70240000D01*
%TO.C,C8*%
X58204437Y-70340000D02*
X58340000Y-70340000D01*
X61660000Y-74860000D02*
X60460000Y-74860000D01*
X57140000Y-74860000D02*
X58340000Y-74860000D01*
X57140000Y-71404437D02*
X57140000Y-74860000D01*
X58204437Y-70340000D02*
X57140000Y-71404437D01*
X61210000Y-69850000D02*
X60710000Y-69850000D01*
X61660000Y-71404437D02*
X61660000Y-74860000D01*
X60595563Y-70340000D02*
X60460000Y-70340000D01*
X60595563Y-70340000D02*
X61660000Y-71404437D01*
X60960000Y-69600000D02*
X60960000Y-70100000D01*
%TO.C,R17*%
X53237258Y-117192500D02*
X52762742Y-117192500D01*
X53237258Y-116147500D02*
X52762742Y-116147500D01*
%TO.C,R5*%
X57277500Y-94962742D02*
X57277500Y-95437258D01*
X58322500Y-94962742D02*
X58322500Y-95437258D01*
%TO.C,C3*%
X65690000Y-98940580D02*
X65690000Y-98659420D01*
X66710000Y-98940580D02*
X66710000Y-98659420D01*
%TO.C,R24*%
X65562742Y-115392500D02*
X66037258Y-115392500D01*
X65562742Y-114347500D02*
X66037258Y-114347500D01*
%TO.C,R11*%
X65562742Y-124392500D02*
X66037258Y-124392500D01*
X65562742Y-123347500D02*
X66037258Y-123347500D01*
%TO.C,C12*%
X59910000Y-110340580D02*
X59910000Y-110059420D01*
X58890000Y-110340580D02*
X58890000Y-110059420D01*
%TO.C,D1*%
X50550000Y-57600000D02*
X54450000Y-57600000D01*
X50550000Y-57600000D02*
X50550000Y-59600000D01*
X50550000Y-59600000D02*
X54450000Y-59600000D01*
%TO.C,R12*%
X65562742Y-119747500D02*
X66037258Y-119747500D01*
X65562742Y-120792500D02*
X66037258Y-120792500D01*
%TO.C,D2*%
X63750000Y-59600000D02*
X67650000Y-59600000D01*
X63750000Y-57600000D02*
X63750000Y-59600000D01*
X63750000Y-57600000D02*
X67650000Y-57600000D01*
%TO.C,kibuzzard-6409FE57*%
G36*
X62804116Y-68177402D02*
G01*
X65595884Y-68177402D01*
X65595884Y-69422598D01*
X62804116Y-69422598D01*
X62804116Y-68835347D01*
X62962866Y-68835347D01*
X62968895Y-68919200D01*
X62985328Y-68995475D01*
X63012166Y-69064170D01*
X63070302Y-69149979D01*
X63148591Y-69212688D01*
X63210706Y-69241110D01*
X63279229Y-69258163D01*
X63354160Y-69263848D01*
X63460820Y-69255554D01*
X63476795Y-69251445D01*
X63850254Y-69251445D01*
X64036289Y-69251445D01*
X64036289Y-68657373D01*
X64398438Y-69251445D01*
X64584473Y-69251445D01*
X64746943Y-69251445D01*
X65026616Y-69251445D01*
X65102891Y-69245106D01*
X65173791Y-69226916D01*
X65239316Y-69196875D01*
X65297435Y-69156016D01*
X65346114Y-69105373D01*
X65385354Y-69044946D01*
X65414121Y-68976527D01*
X65431380Y-68901906D01*
X65437134Y-68821084D01*
X65437134Y-68779536D01*
X65431277Y-68698611D01*
X65413707Y-68623680D01*
X65384424Y-68554744D01*
X65344702Y-68493834D01*
X65295816Y-68442985D01*
X65237766Y-68402195D01*
X65172344Y-68372395D01*
X65101340Y-68354515D01*
X65024756Y-68348555D01*
X64746943Y-68348555D01*
X64746943Y-69251445D01*
X64584473Y-69251445D01*
X64584473Y-68348555D01*
X64399058Y-68348555D01*
X64399058Y-68943867D01*
X64036289Y-68348555D01*
X63850254Y-68348555D01*
X63850254Y-69251445D01*
X63476795Y-69251445D01*
X63557559Y-69230671D01*
X63638949Y-69190751D01*
X63699565Y-69137344D01*
X63699565Y-68777056D01*
X63344238Y-68777056D01*
X63344238Y-68914102D01*
X63513530Y-68914102D01*
X63513530Y-69069751D01*
X63453844Y-69103237D01*
X63364082Y-69114399D01*
X63272460Y-69096261D01*
X63205952Y-69041846D01*
X63175980Y-68985760D01*
X63157996Y-68914239D01*
X63152002Y-68827285D01*
X63152002Y-68769614D01*
X63157859Y-68683487D01*
X63174602Y-68612794D01*
X63202231Y-68557534D01*
X63263158Y-68504049D01*
X63346719Y-68486221D01*
X63413149Y-68495212D01*
X63463611Y-68522187D01*
X63498570Y-68568541D01*
X63518491Y-68635669D01*
X63699565Y-68635669D01*
X63680204Y-68545855D01*
X63644444Y-68471545D01*
X63592285Y-68412737D01*
X63524141Y-68370190D01*
X63440425Y-68344662D01*
X63341138Y-68336152D01*
X63267516Y-68341975D01*
X63200440Y-68359441D01*
X63139910Y-68388552D01*
X63064100Y-68452579D01*
X63008445Y-68539861D01*
X62983123Y-68609831D01*
X62967931Y-68687862D01*
X62962866Y-68773955D01*
X62962866Y-68835347D01*
X62804116Y-68835347D01*
X62804116Y-68177402D01*
G37*
G36*
X65121339Y-68516994D02*
G01*
X65191567Y-68570247D01*
X65223262Y-68624989D01*
X65242279Y-68694546D01*
X65248618Y-68778916D01*
X65248618Y-68826665D01*
X65241521Y-68908314D01*
X65221884Y-68976320D01*
X65189707Y-69030684D01*
X65119169Y-69084169D01*
X65022896Y-69101997D01*
X64932979Y-69101997D01*
X64932979Y-68499243D01*
X65024756Y-68499243D01*
X65121339Y-68516994D01*
G37*
%TO.C,kibuzzard-6409FE16*%
G36*
X64887534Y-109983604D02*
G01*
X67912466Y-109983604D01*
X67912466Y-111216396D01*
X64887534Y-111216396D01*
X64887534Y-110743247D01*
X65046284Y-110743247D01*
X65395410Y-110743247D01*
X65395410Y-110598760D01*
X65046284Y-110598760D01*
X65046284Y-110743247D01*
X64887534Y-110743247D01*
X64887534Y-110433188D01*
X65574004Y-110433188D01*
X65787944Y-110366836D01*
X65787944Y-111057646D01*
X65967158Y-111057646D01*
X65967158Y-110438770D01*
X66242490Y-110438770D01*
X66422324Y-110438770D01*
X66431083Y-110377145D01*
X66457361Y-110328699D01*
X66498831Y-110297305D01*
X66553169Y-110286841D01*
X66639985Y-110321257D01*
X66662775Y-110362108D01*
X66670371Y-110415825D01*
X66641536Y-110508843D01*
X66604871Y-110562018D01*
X66552549Y-110623564D01*
X66260474Y-110934863D01*
X66260474Y-111057646D01*
X66879351Y-111057646D01*
X66879351Y-110913159D01*
X66491157Y-110913159D01*
X66696416Y-110696738D01*
X66768350Y-110610077D01*
X66815479Y-110534888D01*
X66841523Y-110466055D01*
X66850205Y-110398462D01*
X66841627Y-110323152D01*
X66815892Y-110260107D01*
X66773000Y-110209326D01*
X66714606Y-110172119D01*
X66658417Y-110154756D01*
X66932061Y-110154756D01*
X67245220Y-111057646D01*
X67439316Y-111057646D01*
X67753716Y-110154756D01*
X67546597Y-110154756D01*
X67341958Y-110833784D01*
X67138560Y-110154756D01*
X66932061Y-110154756D01*
X66658417Y-110154756D01*
X66642362Y-110149795D01*
X66556270Y-110142354D01*
X66469918Y-110152043D01*
X66393179Y-110181111D01*
X66329384Y-110227232D01*
X66281868Y-110288081D01*
X66252335Y-110359860D01*
X66242490Y-110438770D01*
X65967158Y-110438770D01*
X65967158Y-110153516D01*
X65947935Y-110153516D01*
X65574004Y-110287461D01*
X65574004Y-110433188D01*
X64887534Y-110433188D01*
X64887534Y-109983604D01*
G37*
%TO.C,R10*%
X53237258Y-124392500D02*
X52762742Y-124392500D01*
X53237258Y-123347500D02*
X52762742Y-123347500D01*
%TO.C,U2*%
X55990000Y-61550000D02*
X55990000Y-65310000D01*
X55990000Y-65310000D02*
X57250000Y-65310000D01*
X62810000Y-65310000D02*
X61550000Y-65310000D01*
X62810000Y-59300000D02*
X62810000Y-65310000D01*
%TO.C,R18*%
X53237258Y-115392500D02*
X52762742Y-115392500D01*
X53237258Y-114347500D02*
X52762742Y-114347500D01*
%TO.C,J6*%
X65810000Y-56530000D02*
X52990000Y-56530000D01*
X65810000Y-51330000D02*
X65810000Y-52660000D01*
X65810000Y-53930000D02*
X65810000Y-56530000D01*
X64480000Y-51330000D02*
X65810000Y-51330000D01*
X52990000Y-51330000D02*
X52990000Y-56530000D01*
X63210000Y-51330000D02*
X63210000Y-53930000D01*
X63210000Y-53930000D02*
X65810000Y-53930000D01*
X63210000Y-51330000D02*
X52990000Y-51330000D01*
%TO.C,C1*%
X65690000Y-102059420D02*
X65690000Y-102340580D01*
X66710000Y-102059420D02*
X66710000Y-102340580D01*
%TO.C,R1*%
X57522500Y-81562742D02*
X57522500Y-82037258D01*
X56477500Y-81562742D02*
X56477500Y-82037258D01*
%TO.C,J7*%
X56515000Y-149550000D02*
X50105000Y-149550000D01*
X50105000Y-140850000D02*
X50105000Y-149550000D01*
X50105000Y-140850000D02*
X56515000Y-140850000D01*
X56515000Y-140850000D02*
X56515000Y-149550000D01*
X51335000Y-149550000D02*
X51335000Y-140850000D01*
%TO.C,C9*%
X52859420Y-122580000D02*
X53140580Y-122580000D01*
X52859420Y-121560000D02*
X53140580Y-121560000D01*
%TO.C,kibuzzard-6409FE46*%
G36*
X51151394Y-109983604D02*
G01*
X53648606Y-109983604D01*
X53648606Y-111216396D01*
X51151394Y-111216396D01*
X51151394Y-110433188D01*
X51310144Y-110433188D01*
X51524084Y-110366836D01*
X51524084Y-111057646D01*
X51703298Y-111057646D01*
X51703298Y-110438770D01*
X51978630Y-110438770D01*
X52158464Y-110438770D01*
X52167224Y-110377145D01*
X52193501Y-110328699D01*
X52234971Y-110297305D01*
X52289309Y-110286841D01*
X52376125Y-110321257D01*
X52398915Y-110362108D01*
X52406511Y-110415825D01*
X52377676Y-110508843D01*
X52341011Y-110562018D01*
X52288689Y-110623564D01*
X51996614Y-110934863D01*
X51996614Y-111057646D01*
X52615491Y-111057646D01*
X52615491Y-110913159D01*
X52227297Y-110913159D01*
X52432556Y-110696738D01*
X52504490Y-110610077D01*
X52551619Y-110534888D01*
X52577664Y-110466055D01*
X52586345Y-110398462D01*
X52577767Y-110323152D01*
X52552032Y-110260107D01*
X52509141Y-110209326D01*
X52450746Y-110172119D01*
X52394557Y-110154756D01*
X52668201Y-110154756D01*
X52981360Y-111057646D01*
X53175457Y-111057646D01*
X53489856Y-110154756D01*
X53282737Y-110154756D01*
X53078098Y-110833784D01*
X52874700Y-110154756D01*
X52668201Y-110154756D01*
X52394557Y-110154756D01*
X52378503Y-110149795D01*
X52292410Y-110142354D01*
X52206058Y-110152043D01*
X52129319Y-110181111D01*
X52065524Y-110227232D01*
X52018008Y-110288081D01*
X51988475Y-110359860D01*
X51978630Y-110438770D01*
X51703298Y-110438770D01*
X51703298Y-110153516D01*
X51684075Y-110153516D01*
X51310144Y-110287461D01*
X51310144Y-110433188D01*
X51151394Y-110433188D01*
X51151394Y-109983604D01*
G37*
%TO.C,kibuzzard-640A0C12*%
G36*
X60095470Y-143590212D02*
G01*
X60008636Y-143577331D01*
X59923483Y-143556001D01*
X59840831Y-143526428D01*
X59761475Y-143488895D01*
X59686180Y-143443765D01*
X59615671Y-143391473D01*
X59550628Y-143332520D01*
X59491676Y-143267477D01*
X59439383Y-143196968D01*
X59394253Y-143121673D01*
X59356720Y-143042318D01*
X59327147Y-142959665D01*
X59305817Y-142874512D01*
X59292937Y-142787678D01*
X59288629Y-142700000D01*
X59290495Y-142662018D01*
X60381586Y-142662018D01*
X60388734Y-142766361D01*
X60409147Y-142862350D01*
X60442822Y-142949985D01*
X60488642Y-143027026D01*
X60545486Y-143091234D01*
X60613355Y-143142609D01*
X60690094Y-143180074D01*
X60773552Y-143202553D01*
X60863727Y-143210046D01*
X60948993Y-143203070D01*
X61189288Y-143396082D01*
X61337341Y-143265082D01*
X61149756Y-143117804D01*
X61230565Y-143035735D01*
X61291608Y-142930606D01*
X61300299Y-142905414D01*
X61493146Y-142905414D01*
X61512040Y-143036995D01*
X61565622Y-143132532D01*
X61652535Y-143190668D01*
X61771423Y-143210046D01*
X61862029Y-143198850D01*
X61938511Y-143165260D01*
X62000867Y-143109277D01*
X62007068Y-143194543D01*
X62217908Y-143194543D01*
X62217908Y-142958899D01*
X62353558Y-142958899D01*
X62373809Y-143058118D01*
X62434561Y-143138733D01*
X62526125Y-143192218D01*
X62638812Y-143210046D01*
X62756828Y-143187373D01*
X62850427Y-143119354D01*
X62872907Y-143194543D01*
X63099249Y-143194543D01*
X63099249Y-143181366D01*
X63074638Y-143105595D01*
X63065918Y-143000757D01*
X63065918Y-142768988D01*
X63203119Y-142768988D01*
X63213067Y-142897361D01*
X63242910Y-143005494D01*
X63292648Y-143093387D01*
X63358837Y-143158198D01*
X63438031Y-143197084D01*
X63530231Y-143210046D01*
X63612741Y-143198419D01*
X63684571Y-143163538D01*
X63745722Y-143105402D01*
X63756574Y-143194543D01*
X63958887Y-143194543D01*
X64147247Y-143194543D01*
X64903790Y-143194543D01*
X65020838Y-143194543D01*
X65244855Y-143194543D01*
X65244855Y-142603107D01*
X65303960Y-142542645D01*
X65386707Y-142522491D01*
X65489801Y-142554660D01*
X65520807Y-142658142D01*
X65520807Y-143194543D01*
X65744824Y-143194543D01*
X65744824Y-142652716D01*
X65727384Y-142516290D01*
X65678162Y-142418622D01*
X65595996Y-142359904D01*
X65571823Y-142355835D01*
X65838617Y-142355835D01*
X66121546Y-143194543D01*
X66335486Y-143194543D01*
X66618414Y-142355835D01*
X66384320Y-142355835D01*
X66228516Y-142920917D01*
X66072711Y-142355835D01*
X65838617Y-142355835D01*
X65571823Y-142355835D01*
X65479724Y-142340332D01*
X65385759Y-142352821D01*
X65305402Y-142390286D01*
X65238654Y-142452728D01*
X65231677Y-142355835D01*
X65020838Y-142355835D01*
X65020838Y-143194543D01*
X64903790Y-143194543D01*
X64903790Y-143007733D01*
X64379791Y-143007733D01*
X64379791Y-142705426D01*
X64826276Y-142705426D01*
X64826276Y-142523267D01*
X64379791Y-142523267D01*
X64379791Y-142254291D01*
X64902240Y-142254291D01*
X64902240Y-142065930D01*
X64147247Y-142065930D01*
X64147247Y-143194543D01*
X63958887Y-143194543D01*
X63958887Y-142003918D01*
X63734094Y-142003918D01*
X63734094Y-142431799D01*
X63643596Y-142363199D01*
X63531781Y-142340332D01*
X63437170Y-142353251D01*
X63356943Y-142392008D01*
X63291098Y-142456604D01*
X63242221Y-142542990D01*
X63212894Y-142647118D01*
X63203119Y-142768988D01*
X63065918Y-142768988D01*
X63065918Y-142637213D01*
X63043148Y-142511930D01*
X62974838Y-142418234D01*
X62907013Y-142374955D01*
X62824977Y-142348988D01*
X62728729Y-142340332D01*
X62631448Y-142349149D01*
X62544244Y-142375601D01*
X62471381Y-142417556D01*
X62417120Y-142472882D01*
X62383402Y-142537607D01*
X62372162Y-142607758D01*
X62596179Y-142607758D01*
X62628348Y-142533344D01*
X62717102Y-142506213D01*
X62811282Y-142541095D01*
X62841126Y-142634113D01*
X62841126Y-142682172D01*
X62738031Y-142682172D01*
X62623266Y-142690526D01*
X62528053Y-142714556D01*
X62452390Y-142754260D01*
X62378266Y-142841077D01*
X62353558Y-142958899D01*
X62217908Y-142958899D01*
X62217908Y-142355835D01*
X61993115Y-142355835D01*
X61993115Y-142949597D01*
X61932654Y-143008896D01*
X61836536Y-143028662D01*
X61747006Y-142995912D01*
X61717163Y-142897662D01*
X61717163Y-142355835D01*
X61493146Y-142355835D01*
X61493146Y-142905414D01*
X61300299Y-142905414D01*
X61320030Y-142848225D01*
X61337083Y-142756629D01*
X61342767Y-142655817D01*
X61342767Y-142605432D01*
X61336093Y-142499194D01*
X61316068Y-142401655D01*
X61282694Y-142312814D01*
X61237132Y-142234869D01*
X61180546Y-142170015D01*
X61112937Y-142118253D01*
X61036326Y-142080572D01*
X60952740Y-142057963D01*
X60862177Y-142050427D01*
X60771614Y-142057963D01*
X60688027Y-142080572D01*
X60611417Y-142118253D01*
X60543807Y-142170015D01*
X60487221Y-142234869D01*
X60441660Y-142312814D01*
X60408285Y-142401741D01*
X60388261Y-142499539D01*
X60381586Y-142606207D01*
X60381586Y-142662018D01*
X59290495Y-142662018D01*
X59292937Y-142612322D01*
X59305817Y-142525488D01*
X59327147Y-142440335D01*
X59356720Y-142357682D01*
X59394253Y-142278327D01*
X59439383Y-142203032D01*
X59491676Y-142132523D01*
X59550628Y-142067480D01*
X59615671Y-142008527D01*
X59686180Y-141956235D01*
X59761475Y-141911105D01*
X59840831Y-141873572D01*
X59923483Y-141843999D01*
X60008636Y-141822669D01*
X60095470Y-141809788D01*
X60183148Y-141805481D01*
X66816852Y-141805481D01*
X66904530Y-141809788D01*
X66991364Y-141822669D01*
X67076517Y-141843999D01*
X67159169Y-141873572D01*
X67238525Y-141911105D01*
X67313820Y-141956235D01*
X67384329Y-142008527D01*
X67449372Y-142067480D01*
X67508324Y-142132523D01*
X67560617Y-142203032D01*
X67605747Y-142278327D01*
X67643280Y-142357682D01*
X67672853Y-142440335D01*
X67694183Y-142525488D01*
X67707063Y-142612322D01*
X67711371Y-142700000D01*
X67707063Y-142787678D01*
X67694183Y-142874512D01*
X67672853Y-142959665D01*
X67643280Y-143042318D01*
X67605747Y-143121673D01*
X67560617Y-143196968D01*
X67508324Y-143267477D01*
X67449372Y-143332520D01*
X67384329Y-143391473D01*
X67313820Y-143443765D01*
X67238525Y-143488895D01*
X67159169Y-143526428D01*
X67076517Y-143556001D01*
X66991364Y-143577331D01*
X66904530Y-143590212D01*
X66816852Y-143594519D01*
X60183148Y-143594519D01*
X60095470Y-143590212D01*
G37*
G36*
X63676927Y-142544389D02*
G01*
X63734094Y-142610083D01*
X63734094Y-142941071D01*
X63676152Y-143006764D01*
X63587592Y-143028662D01*
X63518604Y-143012965D01*
X63468219Y-142965875D01*
X63437407Y-142889330D01*
X63427136Y-142785266D01*
X63437262Y-142670302D01*
X63467638Y-142588185D01*
X63518264Y-142538915D01*
X63589142Y-142522491D01*
X63676927Y-142544389D01*
G37*
G36*
X60966434Y-142265724D02*
G01*
X61043561Y-142334906D01*
X61078873Y-142405875D01*
X61100060Y-142495792D01*
X61107123Y-142604657D01*
X61107123Y-142659692D01*
X61099716Y-142767653D01*
X61078529Y-142856924D01*
X61043561Y-142927505D01*
X60967209Y-142996397D01*
X60863727Y-143019360D01*
X60758307Y-142995525D01*
X60680792Y-142924017D01*
X60645480Y-142851843D01*
X60624293Y-142762442D01*
X60617230Y-142655817D01*
X60617230Y-142600781D01*
X60624723Y-142492907D01*
X60646169Y-142403894D01*
X60681567Y-142333743D01*
X60758501Y-142265434D01*
X60862177Y-142242664D01*
X60966434Y-142265724D01*
G37*
G36*
X62841126Y-142957349D02*
G01*
X62779114Y-143016647D01*
X62687647Y-143038739D01*
X62607031Y-143011609D01*
X62577576Y-142942621D01*
X62578351Y-142929443D01*
X62603069Y-142864848D01*
X62662756Y-142826090D01*
X62757410Y-142813171D01*
X62841126Y-142813171D01*
X62841126Y-142957349D01*
G37*
%TO.C,kibuzzard-6409F893*%
G36*
X66497213Y-56484332D02*
G01*
X66497213Y-55055737D01*
X67398450Y-55055737D01*
X67398450Y-55492145D01*
X67579059Y-55492145D01*
X67579059Y-55055737D01*
X67398450Y-55055737D01*
X66497213Y-55055737D01*
X66497213Y-54341052D01*
X66841895Y-54341052D01*
X66841895Y-54365082D01*
X67009326Y-54832495D01*
X67191486Y-54832495D01*
X67108545Y-54565070D01*
X67972058Y-54565070D01*
X67972058Y-54341052D01*
X66841895Y-54341052D01*
X66497213Y-54341052D01*
X66497213Y-53604663D01*
X66827942Y-53604663D01*
X66840054Y-53712602D01*
X66876389Y-53808527D01*
X66934040Y-53888270D01*
X67010101Y-53947665D01*
X67099825Y-53984582D01*
X67198462Y-53996887D01*
X67198462Y-53772095D01*
X67121432Y-53761146D01*
X67060873Y-53728299D01*
X67021632Y-53676461D01*
X67008551Y-53608539D01*
X67051572Y-53500018D01*
X67102634Y-53471532D01*
X67169781Y-53462036D01*
X67286053Y-53498080D01*
X67352522Y-53543911D01*
X67429456Y-53609314D01*
X67818579Y-53974408D01*
X67972058Y-53974408D01*
X67972058Y-53200812D01*
X67791449Y-53200812D01*
X67791449Y-53686053D01*
X67520923Y-53429480D01*
X67412596Y-53339563D01*
X67318610Y-53280652D01*
X67232568Y-53248096D01*
X67148077Y-53237244D01*
X67053940Y-53247967D01*
X66975134Y-53280135D01*
X66911658Y-53333749D01*
X66865149Y-53406742D01*
X66837244Y-53497047D01*
X66827942Y-53604663D01*
X66497213Y-53604663D01*
X66497213Y-52107855D01*
X66843445Y-52107855D01*
X66843445Y-52366754D01*
X67692230Y-52622552D01*
X66843445Y-52876801D01*
X66843445Y-53134924D01*
X67972058Y-52743475D01*
X67972058Y-52500854D01*
X66843445Y-52107855D01*
X66497213Y-52107855D01*
X66497213Y-51115668D01*
X68302787Y-51115668D01*
X68302787Y-56484332D01*
X66497213Y-56484332D01*
G37*
%TO.C,C6*%
X55690000Y-95340580D02*
X55690000Y-95059420D01*
X56710000Y-95340580D02*
X56710000Y-95059420D01*
%TO.C,U3*%
X59400000Y-90535000D02*
X57200000Y-90535000D01*
X59400000Y-85065000D02*
X55800000Y-85065000D01*
X59400000Y-90535000D02*
X61600000Y-90535000D01*
X59400000Y-85065000D02*
X61600000Y-85065000D01*
%TO.C,kibuzzard-6409FE2B*%
G36*
X64934973Y-104977402D02*
G01*
X67865027Y-104977402D01*
X67865027Y-106222598D01*
X64934973Y-106222598D01*
X64934973Y-105804019D01*
X65093723Y-105804019D01*
X65103266Y-105877055D01*
X65131895Y-105939893D01*
X65179609Y-105992534D01*
X65242345Y-106032153D01*
X65316035Y-106055924D01*
X65400681Y-106063848D01*
X65490701Y-106055786D01*
X65568113Y-106031602D01*
X65632915Y-105991294D01*
X65658259Y-105963389D01*
X65860808Y-105963389D01*
X65889333Y-106031912D01*
X65961887Y-106058267D01*
X66035061Y-106031912D01*
X66063586Y-105963389D01*
X66034751Y-105893936D01*
X65961887Y-105867271D01*
X65889644Y-105893936D01*
X65860808Y-105963389D01*
X65658259Y-105963389D01*
X65681663Y-105937619D01*
X65710912Y-105873334D01*
X65719935Y-105804019D01*
X66191331Y-105804019D01*
X66200873Y-105877055D01*
X66229502Y-105939893D01*
X66277217Y-105992534D01*
X66339952Y-106032153D01*
X66413643Y-106055924D01*
X66498289Y-106063848D01*
X66588309Y-106055786D01*
X66665720Y-106031602D01*
X66730522Y-105991294D01*
X66779271Y-105937619D01*
X66808519Y-105873334D01*
X66818269Y-105798438D01*
X66808890Y-105728984D01*
X66780752Y-105669453D01*
X66733546Y-105621704D01*
X66666960Y-105587598D01*
X66722461Y-105553646D01*
X66766179Y-105507603D01*
X66794550Y-105453032D01*
X66804006Y-105393501D01*
X66794980Y-105319052D01*
X66767902Y-105256111D01*
X66722771Y-105204675D01*
X66661724Y-105166607D01*
X66602585Y-105148555D01*
X66884622Y-105148555D01*
X67197781Y-106051445D01*
X67391877Y-106051445D01*
X67706277Y-105148555D01*
X67499158Y-105148555D01*
X67294519Y-105827583D01*
X67091121Y-105148555D01*
X66884622Y-105148555D01*
X66602585Y-105148555D01*
X66586896Y-105143766D01*
X66498289Y-105136152D01*
X66419301Y-105144059D01*
X66347290Y-105167778D01*
X66286364Y-105205528D01*
X66240630Y-105255525D01*
X66212027Y-105315289D01*
X66202493Y-105382339D01*
X66381707Y-105382339D01*
X66416433Y-105308855D01*
X66502629Y-105280640D01*
X66592236Y-105311025D01*
X66624792Y-105395981D01*
X66591926Y-105486519D01*
X66550223Y-105512098D01*
X66490847Y-105520625D01*
X66395349Y-105520625D01*
X66395349Y-105660771D01*
X66490227Y-105660771D01*
X66572909Y-105675792D01*
X66622519Y-105720854D01*
X66639055Y-105795957D01*
X66602778Y-105885564D01*
X66559603Y-105910911D01*
X66502629Y-105919360D01*
X66408682Y-105887114D01*
X66370544Y-105804019D01*
X66191331Y-105804019D01*
X65719935Y-105804019D01*
X65720662Y-105798438D01*
X65711282Y-105728984D01*
X65683145Y-105669453D01*
X65635938Y-105621704D01*
X65569353Y-105587598D01*
X65624854Y-105553646D01*
X65668572Y-105507603D01*
X65696942Y-105453032D01*
X65706399Y-105393501D01*
X65697373Y-105319052D01*
X65670294Y-105256111D01*
X65625164Y-105204675D01*
X65564116Y-105166607D01*
X65489289Y-105143766D01*
X65400681Y-105136152D01*
X65321694Y-105144059D01*
X65249683Y-105167778D01*
X65188756Y-105205528D01*
X65143022Y-105255525D01*
X65114420Y-105315289D01*
X65104885Y-105382339D01*
X65284099Y-105382339D01*
X65318826Y-105308855D01*
X65405022Y-105280640D01*
X65494629Y-105311025D01*
X65527185Y-105395981D01*
X65494319Y-105486519D01*
X65452616Y-105512098D01*
X65393240Y-105520625D01*
X65297742Y-105520625D01*
X65297742Y-105660771D01*
X65392620Y-105660771D01*
X65475302Y-105675792D01*
X65524911Y-105720854D01*
X65541448Y-105795957D01*
X65505171Y-105885564D01*
X65461995Y-105910911D01*
X65405022Y-105919360D01*
X65311074Y-105887114D01*
X65272937Y-105804019D01*
X65093723Y-105804019D01*
X64934973Y-105804019D01*
X64934973Y-104977402D01*
G37*
%TO.C,R13*%
X52762742Y-118992500D02*
X53237258Y-118992500D01*
X52762742Y-117947500D02*
X53237258Y-117947500D01*
%TO.C,C2*%
X63690000Y-110059420D02*
X63690000Y-110340580D01*
X64710000Y-110059420D02*
X64710000Y-110340580D01*
%TO.C,kibuzzard-6409FEF9*%
G36*
X53178612Y-74400000D02*
G01*
X53593678Y-73777402D01*
X56821388Y-73777402D01*
X56821388Y-75022598D01*
X53593678Y-75022598D01*
X53314625Y-74604019D01*
X53752428Y-74604019D01*
X53761970Y-74677055D01*
X53790599Y-74739893D01*
X53838314Y-74792534D01*
X53901049Y-74832153D01*
X53974740Y-74855924D01*
X54059386Y-74863848D01*
X54149406Y-74855786D01*
X54226817Y-74831602D01*
X54291619Y-74791294D01*
X54340368Y-74737619D01*
X54369616Y-74673334D01*
X54379366Y-74598438D01*
X54369987Y-74528984D01*
X54341849Y-74469453D01*
X54294643Y-74421704D01*
X54228057Y-74387598D01*
X54283558Y-74353646D01*
X54327276Y-74307603D01*
X54355647Y-74253032D01*
X54365103Y-74193501D01*
X54363524Y-74180479D01*
X54449439Y-74180479D01*
X54675782Y-74851445D01*
X54846934Y-74851445D01*
X54930400Y-74604019D01*
X55122887Y-74604019D01*
X55132429Y-74677055D01*
X55161058Y-74739893D01*
X55208773Y-74792534D01*
X55271508Y-74832153D01*
X55345199Y-74855924D01*
X55429845Y-74863848D01*
X55519865Y-74855786D01*
X55533760Y-74851445D01*
X55816178Y-74851445D01*
X56013995Y-74851445D01*
X56076007Y-74665410D01*
X56402188Y-74665410D01*
X56464820Y-74851445D01*
X56662638Y-74851445D01*
X56324674Y-73948555D01*
X56152281Y-73948555D01*
X55816178Y-74851445D01*
X55533760Y-74851445D01*
X55597276Y-74831602D01*
X55662078Y-74791294D01*
X55710827Y-74737619D01*
X55740075Y-74673334D01*
X55749825Y-74598438D01*
X55740446Y-74528984D01*
X55712308Y-74469453D01*
X55665102Y-74421704D01*
X55598516Y-74387598D01*
X55654017Y-74353646D01*
X55697735Y-74307603D01*
X55726106Y-74253032D01*
X55735562Y-74193501D01*
X55726536Y-74119052D01*
X55699458Y-74056111D01*
X55654327Y-74004675D01*
X55593280Y-73966607D01*
X55518452Y-73943766D01*
X55429845Y-73936152D01*
X55350857Y-73944059D01*
X55278846Y-73967778D01*
X55217920Y-74005528D01*
X55172186Y-74055525D01*
X55143583Y-74115289D01*
X55134049Y-74182339D01*
X55313263Y-74182339D01*
X55347989Y-74108855D01*
X55434185Y-74080640D01*
X55523792Y-74111025D01*
X55556348Y-74195981D01*
X55523482Y-74286519D01*
X55481779Y-74312098D01*
X55422403Y-74320625D01*
X55326905Y-74320625D01*
X55326905Y-74460771D01*
X55421783Y-74460771D01*
X55504465Y-74475792D01*
X55554075Y-74520854D01*
X55570611Y-74595957D01*
X55534334Y-74685564D01*
X55491159Y-74710911D01*
X55434185Y-74719360D01*
X55340238Y-74687114D01*
X55302100Y-74604019D01*
X55122887Y-74604019D01*
X54930400Y-74604019D01*
X55073277Y-74180479D01*
X54886002Y-74180479D01*
X54761358Y-74632544D01*
X54636715Y-74180479D01*
X54449439Y-74180479D01*
X54363524Y-74180479D01*
X54356077Y-74119052D01*
X54328999Y-74056111D01*
X54283868Y-74004675D01*
X54222821Y-73966607D01*
X54147993Y-73943766D01*
X54059386Y-73936152D01*
X53980398Y-73944059D01*
X53908387Y-73967778D01*
X53847461Y-74005528D01*
X53801727Y-74055525D01*
X53773124Y-74115289D01*
X53763590Y-74182339D01*
X53942804Y-74182339D01*
X53977530Y-74108855D01*
X54063726Y-74080640D01*
X54153333Y-74111025D01*
X54185889Y-74195981D01*
X54153023Y-74286519D01*
X54111320Y-74312098D01*
X54051944Y-74320625D01*
X53956446Y-74320625D01*
X53956446Y-74460771D01*
X54051324Y-74460771D01*
X54134006Y-74475792D01*
X54183616Y-74520854D01*
X54200152Y-74595957D01*
X54163875Y-74685564D01*
X54120700Y-74710911D01*
X54063726Y-74719360D01*
X53969779Y-74687114D01*
X53931641Y-74604019D01*
X53752428Y-74604019D01*
X53314625Y-74604019D01*
X53178612Y-74400000D01*
G37*
G36*
X56351959Y-74514722D02*
G01*
X56126236Y-74514722D01*
X56238477Y-74176758D01*
X56351959Y-74514722D01*
G37*
%TO.C,R14*%
X53237258Y-125147500D02*
X52762742Y-125147500D01*
X53237258Y-126192500D02*
X52762742Y-126192500D01*
%TO.C,R19*%
X53237258Y-129792500D02*
X52762742Y-129792500D01*
X53237258Y-128747500D02*
X52762742Y-128747500D01*
D11*
%TO.C,J5*%
X65330000Y-96880000D02*
X67870000Y-96880000D01*
X67870000Y-96880000D02*
X67870000Y-86720000D01*
X67870000Y-86720000D02*
X65330000Y-86720000D01*
X65330000Y-86720000D02*
X65330000Y-96880000D01*
D12*
%TO.C,U1*%
X55790000Y-98990000D02*
X55790000Y-99440000D01*
X62560000Y-106210000D02*
X63010000Y-106210000D01*
X63010000Y-98990000D02*
X63010000Y-99440000D01*
X62560000Y-98990000D02*
X63010000Y-98990000D01*
X56240000Y-98990000D02*
X55790000Y-98990000D01*
X55790000Y-106210000D02*
X55790000Y-105760000D01*
X56240000Y-106210000D02*
X55790000Y-106210000D01*
X55790000Y-99440000D02*
X54500000Y-99440000D01*
X63010000Y-106210000D02*
X63010000Y-105760000D01*
%TO.C,R2*%
X59122500Y-81562742D02*
X59122500Y-82037258D01*
X58077500Y-81562742D02*
X58077500Y-82037258D01*
%TO.C,R23*%
X65562742Y-117192500D02*
X66037258Y-117192500D01*
X65562742Y-116147500D02*
X66037258Y-116147500D01*
%TO.C,R20*%
X53237258Y-126947500D02*
X52762742Y-126947500D01*
X53237258Y-127992500D02*
X52762742Y-127992500D01*
%TO.C,R21*%
X65562742Y-129792500D02*
X66037258Y-129792500D01*
X65562742Y-128747500D02*
X66037258Y-128747500D01*
%TO.C,C10*%
X65940580Y-121560000D02*
X65659420Y-121560000D01*
X65940580Y-122580000D02*
X65659420Y-122580000D01*
%TO.C,C13*%
X62090000Y-110340580D02*
X62090000Y-110059420D01*
X63110000Y-110340580D02*
X63110000Y-110059420D01*
%TO.C,R15*%
X65562742Y-125147500D02*
X66037258Y-125147500D01*
X65562742Y-126192500D02*
X66037258Y-126192500D01*
%TD*%
M02*
