%TF.GenerationSoftware,KiCad,Pcbnew,(6.0.11)*%
%TF.CreationDate,2023-03-09T16:41:40+00:00*%
%TF.ProjectId,QuadEnv_Components,51756164-456e-4765-9f43-6f6d706f6e65,rev?*%
%TF.SameCoordinates,Original*%
%TF.FileFunction,Copper,L1,Top*%
%TF.FilePolarity,Positive*%
%FSLAX46Y46*%
G04 Gerber Fmt 4.6, Leading zero omitted, Abs format (unit mm)*
G04 Created by KiCad (PCBNEW (6.0.11)) date 2023-03-09 16:41:40*
%MOMM*%
%LPD*%
G01*
G04 APERTURE LIST*
G04 Aperture macros list*
%AMRoundRect*
0 Rectangle with rounded corners*
0 $1 Rounding radius*
0 $2 $3 $4 $5 $6 $7 $8 $9 X,Y pos of 4 corners*
0 Add a 4 corners polygon primitive as box body*
4,1,4,$2,$3,$4,$5,$6,$7,$8,$9,$2,$3,0*
0 Add four circle primitives for the rounded corners*
1,1,$1+$1,$2,$3*
1,1,$1+$1,$4,$5*
1,1,$1+$1,$6,$7*
1,1,$1+$1,$8,$9*
0 Add four rect primitives between the rounded corners*
20,1,$1+$1,$2,$3,$4,$5,0*
20,1,$1+$1,$4,$5,$6,$7,0*
20,1,$1+$1,$6,$7,$8,$9,0*
20,1,$1+$1,$8,$9,$2,$3,0*%
G04 Aperture macros list end*
%TA.AperFunction,ComponentPad*%
%ADD10C,1.700000*%
%TD*%
%TA.AperFunction,SMDPad,CuDef*%
%ADD11RoundRect,0.225000X0.250000X-0.225000X0.250000X0.225000X-0.250000X0.225000X-0.250000X-0.225000X0*%
%TD*%
%TA.AperFunction,ComponentPad*%
%ADD12O,1.700000X1.700000*%
%TD*%
%TA.AperFunction,ComponentPad*%
%ADD13R,1.700000X1.700000*%
%TD*%
%TA.AperFunction,ComponentPad*%
%ADD14O,1.250000X0.950000*%
%TD*%
%TA.AperFunction,ComponentPad*%
%ADD15O,1.000000X1.550000*%
%TD*%
%TA.AperFunction,SMDPad,CuDef*%
%ADD16R,0.400000X1.350000*%
%TD*%
%TA.AperFunction,SMDPad,CuDef*%
%ADD17RoundRect,0.250000X0.275000X0.350000X-0.275000X0.350000X-0.275000X-0.350000X0.275000X-0.350000X0*%
%TD*%
%TA.AperFunction,SMDPad,CuDef*%
%ADD18RoundRect,0.200000X-0.200000X-0.275000X0.200000X-0.275000X0.200000X0.275000X-0.200000X0.275000X0*%
%TD*%
%TA.AperFunction,SMDPad,CuDef*%
%ADD19RoundRect,0.200000X0.200000X0.275000X-0.200000X0.275000X-0.200000X-0.275000X0.200000X-0.275000X0*%
%TD*%
%TA.AperFunction,SMDPad,CuDef*%
%ADD20RoundRect,0.200000X-0.275000X0.200000X-0.275000X-0.200000X0.275000X-0.200000X0.275000X0.200000X0*%
%TD*%
%TA.AperFunction,SMDPad,CuDef*%
%ADD21RoundRect,0.200000X0.275000X-0.200000X0.275000X0.200000X-0.275000X0.200000X-0.275000X-0.200000X0*%
%TD*%
%TA.AperFunction,SMDPad,CuDef*%
%ADD22RoundRect,0.225000X0.225000X0.250000X-0.225000X0.250000X-0.225000X-0.250000X0.225000X-0.250000X0*%
%TD*%
%TA.AperFunction,SMDPad,CuDef*%
%ADD23RoundRect,0.225000X-0.225000X-0.250000X0.225000X-0.250000X0.225000X0.250000X-0.225000X0.250000X0*%
%TD*%
%TA.AperFunction,SMDPad,CuDef*%
%ADD24RoundRect,0.225000X-0.250000X0.225000X-0.250000X-0.225000X0.250000X-0.225000X0.250000X0.225000X0*%
%TD*%
%TA.AperFunction,SMDPad,CuDef*%
%ADD25RoundRect,0.100000X-0.637500X-0.100000X0.637500X-0.100000X0.637500X0.100000X-0.637500X0.100000X0*%
%TD*%
%TA.AperFunction,SMDPad,CuDef*%
%ADD26RoundRect,0.150000X-0.825000X-0.150000X0.825000X-0.150000X0.825000X0.150000X-0.825000X0.150000X0*%
%TD*%
%TA.AperFunction,SMDPad,CuDef*%
%ADD27RoundRect,0.075000X-0.075000X-0.662500X0.075000X-0.662500X0.075000X0.662500X-0.075000X0.662500X0*%
%TD*%
%TA.AperFunction,SMDPad,CuDef*%
%ADD28RoundRect,0.075000X-0.662500X-0.075000X0.662500X-0.075000X0.662500X0.075000X-0.662500X0.075000X0*%
%TD*%
%TA.AperFunction,SMDPad,CuDef*%
%ADD29RoundRect,0.250000X-0.550000X1.050000X-0.550000X-1.050000X0.550000X-1.050000X0.550000X1.050000X0*%
%TD*%
%TA.AperFunction,SMDPad,CuDef*%
%ADD30RoundRect,0.250000X0.550000X-1.050000X0.550000X1.050000X-0.550000X1.050000X-0.550000X-1.050000X0*%
%TD*%
%TA.AperFunction,SMDPad,CuDef*%
%ADD31R,0.900000X1.200000*%
%TD*%
%TA.AperFunction,SMDPad,CuDef*%
%ADD32R,1.500000X2.000000*%
%TD*%
%TA.AperFunction,SMDPad,CuDef*%
%ADD33R,3.800000X2.000000*%
%TD*%
%TA.AperFunction,ViaPad*%
%ADD34C,0.800000*%
%TD*%
%TA.AperFunction,ViaPad*%
%ADD35C,1.000000*%
%TD*%
%TA.AperFunction,Conductor*%
%ADD36C,0.350000*%
%TD*%
%TA.AperFunction,Conductor*%
%ADD37C,0.250000*%
%TD*%
G04 APERTURE END LIST*
D10*
%TO.P,TP6,1,1*%
%TO.N,/RESET*%
X52400000Y-102000000D03*
%TD*%
D11*
%TO.P,C13,1*%
%TO.N,GND*%
X62600000Y-110975000D03*
%TO.P,C13,2*%
%TO.N,+3.3VA*%
X62600000Y-109425000D03*
%TD*%
D10*
%TO.P,TP5,1,1*%
%TO.N,GND*%
X52400000Y-107400000D03*
%TD*%
%TO.P,TP4,1,1*%
%TO.N,-12V*%
X66400000Y-112400000D03*
%TD*%
%TO.P,TP3,1,1*%
%TO.N,+12V*%
X52400000Y-112400000D03*
%TD*%
%TO.P,TP2,1,1*%
%TO.N,+3V3*%
X66400000Y-107400000D03*
%TD*%
%TO.P,TP1,1,1*%
%TO.N,GND*%
X64200000Y-70600000D03*
%TD*%
D12*
%TO.P,J1,8,Pin_8*%
%TO.N,/Sustain_Pot*%
X52200000Y-92180000D03*
%TO.P,J1,7,Pin_7*%
%TO.N,/Release_Pot*%
X52200000Y-89640000D03*
%TO.P,J1,6,Pin_6*%
%TO.N,/Decay_Pot*%
X52200000Y-87100000D03*
%TO.P,J1,5,Pin_5*%
%TO.N,/Attack_Pot*%
X52200000Y-84560000D03*
%TO.P,J1,4,Pin_4*%
%TO.N,GND*%
X52200000Y-82020000D03*
%TO.P,J1,3,Pin_3*%
X52200000Y-79480000D03*
%TO.P,J1,2,Pin_2*%
X52200000Y-76940000D03*
D13*
%TO.P,J1,1,Pin_1*%
%TO.N,+3.3VA*%
X52200000Y-74400000D03*
%TD*%
D14*
%TO.P,J7,*%
%TO.N,*%
X56900000Y-137415000D03*
X61900000Y-137415000D03*
D15*
X62900000Y-140115000D03*
D16*
%TO.P,J7,1,VBUS*%
%TO.N,unconnected-(J7-Pad1)*%
X58100000Y-137415000D03*
%TO.P,J7,2,D-*%
%TO.N,/USB_DM*%
X58750000Y-137415000D03*
%TO.P,J7,3,D+*%
%TO.N,/USB_DP*%
X59400000Y-137415000D03*
%TO.P,J7,4,ID*%
%TO.N,unconnected-(J7-Pad4)*%
X60050000Y-137415000D03*
%TO.P,J7,5,GND*%
%TO.N,GND*%
X60700000Y-137415000D03*
D15*
%TO.P,J7,6,Shield*%
%TO.N,unconnected-(J7-Pad6)*%
X55900000Y-140115000D03*
%TD*%
D13*
%TO.P,J6,1,Pin_1*%
%TO.N,/-12V_IN*%
X64480000Y-52660000D03*
D12*
%TO.P,J6,2,Pin_2*%
X64480000Y-55200000D03*
%TO.P,J6,3,Pin_3*%
%TO.N,GND*%
X61940000Y-52660000D03*
%TO.P,J6,4,Pin_4*%
X61940000Y-55200000D03*
%TO.P,J6,5,Pin_5*%
X59400000Y-52660000D03*
%TO.P,J6,6,Pin_6*%
X59400000Y-55200000D03*
%TO.P,J6,7,Pin_7*%
X56860000Y-52660000D03*
%TO.P,J6,8,Pin_8*%
X56860000Y-55200000D03*
%TO.P,J6,9,Pin_9*%
%TO.N,/+12V_IN*%
X54320000Y-52660000D03*
%TO.P,J6,10,Pin_10*%
X54320000Y-55200000D03*
%TD*%
D17*
%TO.P,L1,2*%
%TO.N,+3.3VA*%
X51650000Y-70800000D03*
%TO.P,L1,1*%
%TO.N,+3.3V*%
X53950000Y-70800000D03*
%TD*%
D18*
%TO.P,R24,2*%
%TO.N,/Env4_Out*%
X66625000Y-114870000D03*
%TO.P,R24,1*%
%TO.N,Net-(R16-Pad1)*%
X64975000Y-114870000D03*
%TD*%
%TO.P,R23,2*%
%TO.N,/Led4_Out*%
X66625000Y-116670000D03*
%TO.P,R23,1*%
%TO.N,Net-(R16-Pad1)*%
X64975000Y-116670000D03*
%TD*%
%TO.P,R22,2*%
%TO.N,/Env3_Out*%
X66625000Y-127470000D03*
%TO.P,R22,1*%
%TO.N,Net-(R15-Pad1)*%
X64975000Y-127470000D03*
%TD*%
%TO.P,R21,2*%
%TO.N,/Led3_Out*%
X66625000Y-129270000D03*
%TO.P,R21,1*%
%TO.N,Net-(R15-Pad1)*%
X64975000Y-129270000D03*
%TD*%
D19*
%TO.P,R20,2*%
%TO.N,/Env2_Out*%
X52175000Y-127470000D03*
%TO.P,R20,1*%
%TO.N,Net-(R14-Pad1)*%
X53825000Y-127470000D03*
%TD*%
%TO.P,R19,2*%
%TO.N,/Led2_Out*%
X52175000Y-129270000D03*
%TO.P,R19,1*%
%TO.N,Net-(R14-Pad1)*%
X53825000Y-129270000D03*
%TD*%
%TO.P,R18,2*%
%TO.N,/Env1_Out*%
X52175000Y-114870000D03*
%TO.P,R18,1*%
%TO.N,Net-(R13-Pad1)*%
X53825000Y-114870000D03*
%TD*%
%TO.P,R17,2*%
%TO.N,/Led1_Out*%
X52175000Y-116670000D03*
%TO.P,R17,1*%
%TO.N,Net-(R13-Pad1)*%
X53825000Y-116670000D03*
%TD*%
D18*
%TO.P,R16,2*%
%TO.N,Net-(R12-Pad1)*%
X66625000Y-118470000D03*
%TO.P,R16,1*%
%TO.N,Net-(R16-Pad1)*%
X64975000Y-118470000D03*
%TD*%
%TO.P,R15,2*%
%TO.N,Net-(R11-Pad1)*%
X66625000Y-125670000D03*
%TO.P,R15,1*%
%TO.N,Net-(R15-Pad1)*%
X64975000Y-125670000D03*
%TD*%
D19*
%TO.P,R14,2*%
%TO.N,Net-(R10-Pad1)*%
X52175000Y-125670000D03*
%TO.P,R14,1*%
%TO.N,Net-(R14-Pad1)*%
X53825000Y-125670000D03*
%TD*%
D18*
%TO.P,R13,2*%
%TO.N,Net-(R13-Pad2)*%
X53825000Y-118470000D03*
%TO.P,R13,1*%
%TO.N,Net-(R13-Pad1)*%
X52175000Y-118470000D03*
%TD*%
%TO.P,R12,2*%
%TO.N,GND*%
X66625000Y-120270000D03*
%TO.P,R12,1*%
%TO.N,Net-(R12-Pad1)*%
X64975000Y-120270000D03*
%TD*%
%TO.P,R11,2*%
%TO.N,GND*%
X66625000Y-123870000D03*
%TO.P,R11,1*%
%TO.N,Net-(R11-Pad1)*%
X64975000Y-123870000D03*
%TD*%
D19*
%TO.P,R10,2*%
%TO.N,GND*%
X52175000Y-123870000D03*
%TO.P,R10,1*%
%TO.N,Net-(R10-Pad1)*%
X53825000Y-123870000D03*
%TD*%
%TO.P,R9,2*%
%TO.N,GND*%
X52175000Y-120270000D03*
%TO.P,R9,1*%
%TO.N,Net-(R13-Pad2)*%
X53825000Y-120270000D03*
%TD*%
D20*
%TO.P,R5,2*%
%TO.N,/BOOT0*%
X57800000Y-96025000D03*
%TO.P,R5,1*%
%TO.N,GND*%
X57800000Y-94375000D03*
%TD*%
D21*
%TO.P,R4,2*%
%TO.N,/Gate3_In*%
X60200000Y-80975000D03*
%TO.P,R4,1*%
%TO.N,Net-(U3-Pad10)*%
X60200000Y-82625000D03*
%TD*%
%TO.P,R3,2*%
%TO.N,/Gate4_In*%
X61800000Y-80975000D03*
%TO.P,R3,1*%
%TO.N,Net-(U3-Pad14)*%
X61800000Y-82625000D03*
%TD*%
D20*
%TO.P,R2,2*%
%TO.N,Net-(U3-Pad6)*%
X58600000Y-82625000D03*
%TO.P,R2,1*%
%TO.N,/Gate2_In*%
X58600000Y-80975000D03*
%TD*%
%TO.P,R1,2*%
%TO.N,Net-(U3-Pad3)*%
X57000000Y-82625000D03*
%TO.P,R1,1*%
%TO.N,/Gate1_In*%
X57000000Y-80975000D03*
%TD*%
D11*
%TO.P,C12,2*%
%TO.N,+3.3VA*%
X59400000Y-109425000D03*
%TO.P,C12,1*%
%TO.N,GND*%
X59400000Y-110975000D03*
%TD*%
%TO.P,C11,2*%
%TO.N,+3.3VA*%
X57800000Y-109425000D03*
%TO.P,C11,1*%
%TO.N,GND*%
X57800000Y-110975000D03*
%TD*%
D22*
%TO.P,C10,2*%
%TO.N,-12V*%
X65025000Y-122070000D03*
%TO.P,C10,1*%
%TO.N,GND*%
X66575000Y-122070000D03*
%TD*%
D23*
%TO.P,C9,2*%
%TO.N,+12V*%
X53775000Y-122070000D03*
%TO.P,C9,1*%
%TO.N,GND*%
X52225000Y-122070000D03*
%TD*%
D24*
%TO.P,C7,1*%
%TO.N,+3.3VA*%
X61000000Y-109425000D03*
%TO.P,C7,2*%
%TO.N,GND*%
X61000000Y-110975000D03*
%TD*%
D11*
%TO.P,C6,2*%
%TO.N,GND*%
X56200000Y-94425000D03*
%TO.P,C6,1*%
%TO.N,+3.3V*%
X56200000Y-95975000D03*
%TD*%
%TO.P,C3,2*%
%TO.N,GND*%
X66200000Y-98025000D03*
%TO.P,C3,1*%
%TO.N,+3.3V*%
X66200000Y-99575000D03*
%TD*%
D24*
%TO.P,C2,2*%
%TO.N,GND*%
X64200000Y-110975000D03*
%TO.P,C2,1*%
%TO.N,+3.3V*%
X64200000Y-109425000D03*
%TD*%
%TO.P,C1,2*%
%TO.N,GND*%
X66200000Y-102975000D03*
%TO.P,C1,1*%
%TO.N,+3.3V*%
X66200000Y-101425000D03*
%TD*%
D25*
%TO.P,U3,16,Vdd*%
%TO.N,+3.3V*%
X62262500Y-85525000D03*
%TO.P,U3,15,EN_D*%
%TO.N,/Gate4*%
X62262500Y-86175000D03*
%TO.P,U3,14,D*%
%TO.N,Net-(U3-Pad14)*%
X62262500Y-86825000D03*
%TO.P,U3,13,H*%
%TO.N,+3.3V*%
X62262500Y-87475000D03*
%TO.P,U3,12,NC*%
%TO.N,unconnected-(U3-Pad12)*%
X62262500Y-88125000D03*
%TO.P,U3,11,G*%
%TO.N,/Gate3*%
X62262500Y-88775000D03*
%TO.P,U3,10,C*%
%TO.N,Net-(U3-Pad10)*%
X62262500Y-89425000D03*
%TO.P,U3,9,EN_C*%
%TO.N,+3.3V*%
X62262500Y-90075000D03*
%TO.P,U3,8,Vss*%
%TO.N,GND*%
X56537500Y-90075000D03*
%TO.P,U3,7,EN_B*%
%TO.N,+3.3V*%
X56537500Y-89425000D03*
%TO.P,U3,6,B*%
%TO.N,Net-(U3-Pad6)*%
X56537500Y-88775000D03*
%TO.P,U3,5,F*%
%TO.N,/Gate2*%
X56537500Y-88125000D03*
%TO.P,U3,4,E*%
%TO.N,/Gate1*%
X56537500Y-87475000D03*
%TO.P,U3,3,A*%
%TO.N,Net-(U3-Pad3)*%
X56537500Y-86825000D03*
%TO.P,U3,2,EN_A*%
%TO.N,+3.3V*%
X56537500Y-86175000D03*
%TO.P,U3,1,Vcc*%
X56537500Y-85525000D03*
%TD*%
D13*
%TO.P,J5,1,Pin_1*%
%TO.N,+3.3V*%
X66600000Y-94210000D03*
D10*
%TO.P,J5,2,Pin_2*%
%TO.N,GND*%
X66600000Y-91670000D03*
%TO.P,J5,3,Pin_3*%
%TO.N,/SWIO*%
X66600000Y-89130000D03*
%TO.P,J5,4,Pin_4*%
%TO.N,/SWCLK*%
X66600000Y-86590000D03*
%TD*%
D26*
%TO.P,U4,14*%
%TO.N,Net-(R16-Pad1)*%
X61875000Y-118260000D03*
%TO.P,U4,13,-*%
%TO.N,Net-(R12-Pad1)*%
X61875000Y-119530000D03*
%TO.P,U4,12,+*%
%TO.N,/Env4_DAC*%
X61875000Y-120800000D03*
%TO.P,U4,11,V-*%
%TO.N,-12V*%
X61875000Y-122070000D03*
%TO.P,U4,10,+*%
%TO.N,/Env3_DAC*%
X61875000Y-123340000D03*
%TO.P,U4,9,-*%
%TO.N,Net-(R11-Pad1)*%
X61875000Y-124610000D03*
%TO.P,U4,8*%
%TO.N,Net-(R15-Pad1)*%
X61875000Y-125880000D03*
%TO.P,U4,7*%
%TO.N,Net-(R14-Pad1)*%
X56925000Y-125880000D03*
%TO.P,U4,6,-*%
%TO.N,Net-(R10-Pad1)*%
X56925000Y-124610000D03*
%TO.P,U4,5,+*%
%TO.N,/Env2_DAC*%
X56925000Y-123340000D03*
%TO.P,U4,4,V+*%
%TO.N,+12V*%
X56925000Y-122070000D03*
%TO.P,U4,3,+*%
%TO.N,/Env1_DAC*%
X56925000Y-120800000D03*
%TO.P,U4,2,-*%
%TO.N,Net-(R13-Pad2)*%
X56925000Y-119530000D03*
%TO.P,U4,1*%
%TO.N,Net-(R13-Pad1)*%
X56925000Y-118260000D03*
%TD*%
D27*
%TO.P,U1,48,VDD*%
%TO.N,+3.3V*%
X56650000Y-98437500D03*
%TO.P,U1,47,VSS*%
%TO.N,GND*%
X57150000Y-98437500D03*
%TO.P,U1,46,PB9*%
%TO.N,unconnected-(U1-Pad46)*%
X57650000Y-98437500D03*
%TO.P,U1,45,PB8-BOOT0*%
%TO.N,/BOOT0*%
X58150000Y-98437500D03*
%TO.P,U1,44,PB7*%
%TO.N,unconnected-(U1-Pad44)*%
X58650000Y-98437500D03*
%TO.P,U1,43,PB6*%
%TO.N,/Gate1*%
X59150000Y-98437500D03*
%TO.P,U1,42,PB5*%
%TO.N,/Gate2*%
X59650000Y-98437500D03*
%TO.P,U1,41,PB4*%
%TO.N,/Gate3*%
X60150000Y-98437500D03*
%TO.P,U1,40,PB3*%
%TO.N,/Gate4*%
X60650000Y-98437500D03*
%TO.P,U1,39,PA15*%
%TO.N,unconnected-(U1-Pad39)*%
X61150000Y-98437500D03*
%TO.P,U1,38,PA14*%
%TO.N,/SWCLK*%
X61650000Y-98437500D03*
%TO.P,U1,37,PA13*%
%TO.N,/SWIO*%
X62150000Y-98437500D03*
D28*
%TO.P,U1,36,VDD*%
%TO.N,+3.3V*%
X63562500Y-99850000D03*
%TO.P,U1,35,VSS*%
%TO.N,GND*%
X63562500Y-100350000D03*
%TO.P,U1,34,PA12*%
%TO.N,/USB_DP*%
X63562500Y-100850000D03*
%TO.P,U1,33,PA11*%
%TO.N,/USB_DM*%
X63562500Y-101350000D03*
%TO.P,U1,32,PA10*%
%TO.N,unconnected-(U1-Pad32)*%
X63562500Y-101850000D03*
%TO.P,U1,31,PA9*%
%TO.N,unconnected-(U1-Pad31)*%
X63562500Y-102350000D03*
%TO.P,U1,30,PA8*%
%TO.N,unconnected-(U1-Pad30)*%
X63562500Y-102850000D03*
%TO.P,U1,29,PB15*%
%TO.N,unconnected-(U1-Pad29)*%
X63562500Y-103350000D03*
%TO.P,U1,28,PB14*%
%TO.N,unconnected-(U1-Pad28)*%
X63562500Y-103850000D03*
%TO.P,U1,27,PB13*%
%TO.N,unconnected-(U1-Pad27)*%
X63562500Y-104350000D03*
%TO.P,U1,26,PB12*%
%TO.N,unconnected-(U1-Pad26)*%
X63562500Y-104850000D03*
%TO.P,U1,25,PB11*%
%TO.N,unconnected-(U1-Pad25)*%
X63562500Y-105350000D03*
D27*
%TO.P,U1,24,VDD*%
%TO.N,+3.3V*%
X62150000Y-106762500D03*
%TO.P,U1,23,VSS*%
%TO.N,GND*%
X61650000Y-106762500D03*
%TO.P,U1,22,PB10*%
%TO.N,unconnected-(U1-Pad22)*%
X61150000Y-106762500D03*
%TO.P,U1,21,VDDA*%
%TO.N,+3.3VA*%
X60650000Y-106762500D03*
%TO.P,U1,20,VREF+*%
X60150000Y-106762500D03*
%TO.P,U1,19,VSSA*%
%TO.N,GND*%
X59650000Y-106762500D03*
%TO.P,U1,18,PB2*%
%TO.N,unconnected-(U1-Pad18)*%
X59150000Y-106762500D03*
%TO.P,U1,17,PB1*%
%TO.N,/Env3_DAC*%
X58650000Y-106762500D03*
%TO.P,U1,16,PB0*%
%TO.N,/Release_Pot*%
X58150000Y-106762500D03*
%TO.P,U1,15,PA7*%
%TO.N,unconnected-(U1-Pad15)*%
X57650000Y-106762500D03*
%TO.P,U1,14,PA6*%
%TO.N,unconnected-(U1-Pad14)*%
X57150000Y-106762500D03*
%TO.P,U1,13,PA5*%
%TO.N,/Env2_DAC*%
X56650000Y-106762500D03*
D28*
%TO.P,U1,12,PA4*%
%TO.N,/Env1_DAC*%
X55237500Y-105350000D03*
%TO.P,U1,11,PA3*%
%TO.N,/Sustain_Pot*%
X55237500Y-104850000D03*
%TO.P,U1,10,PA2*%
%TO.N,/Env4_DAC*%
X55237500Y-104350000D03*
%TO.P,U1,9,PA1*%
%TO.N,/Decay_Pot*%
X55237500Y-103850000D03*
%TO.P,U1,8,PA0*%
%TO.N,/Attack_Pot*%
X55237500Y-103350000D03*
%TO.P,U1,7,PG10-NRST*%
%TO.N,/RESET*%
X55237500Y-102850000D03*
%TO.P,U1,6,PF1-OSC_OUT*%
%TO.N,unconnected-(U1-Pad6)*%
X55237500Y-102350000D03*
%TO.P,U1,5,PF0-OSC_IN*%
%TO.N,unconnected-(U1-Pad5)*%
X55237500Y-101850000D03*
%TO.P,U1,4,PC15-OSC32_OUT*%
%TO.N,unconnected-(U1-Pad4)*%
X55237500Y-101350000D03*
%TO.P,U1,3,PC14-OSC32_IN*%
%TO.N,unconnected-(U1-Pad3)*%
X55237500Y-100850000D03*
%TO.P,U1,2,PC13*%
%TO.N,unconnected-(U1-Pad2)*%
X55237500Y-100350000D03*
%TO.P,U1,1,VBAT*%
%TO.N,+3.3V*%
X55237500Y-99850000D03*
%TD*%
D29*
%TO.P,C4,2*%
%TO.N,GND*%
X52800000Y-66400000D03*
%TO.P,C4,1*%
%TO.N,+12V*%
X52800000Y-62800000D03*
%TD*%
D30*
%TO.P,C5,2*%
%TO.N,-12V*%
X65800000Y-62800000D03*
%TO.P,C5,1*%
%TO.N,GND*%
X65800000Y-66400000D03*
%TD*%
D29*
%TO.P,C8,2*%
%TO.N,GND*%
X59400000Y-74400000D03*
%TO.P,C8,1*%
%TO.N,+3.3V*%
X59400000Y-70800000D03*
%TD*%
D13*
%TO.P,J4,1,Pin_1*%
%TO.N,/Led3_Out*%
X66100000Y-133200000D03*
D12*
%TO.P,J4,2,Pin_2*%
%TO.N,/Env3_Out*%
X66100000Y-135740000D03*
%TO.P,J4,3,Pin_3*%
%TO.N,/Led4_Out*%
X66100000Y-138280000D03*
%TO.P,J4,4,Pin_4*%
%TO.N,/Env4_Out*%
X66100000Y-140820000D03*
%TD*%
D31*
%TO.P,D1,2,A*%
%TO.N,/+12V_IN*%
X54450000Y-58600000D03*
%TO.P,D1,1,K*%
%TO.N,+12V*%
X51150000Y-58600000D03*
%TD*%
%TO.P,D2,2,A*%
%TO.N,-12V*%
X67650000Y-58600000D03*
%TO.P,D2,1,K*%
%TO.N,/-12V_IN*%
X64350000Y-58600000D03*
%TD*%
D32*
%TO.P,U2,3,VI*%
%TO.N,+12V*%
X57100000Y-60250000D03*
%TO.P,U2,2,VO*%
%TO.N,+3.3V*%
X59400000Y-60250000D03*
D33*
X59400000Y-66550000D03*
D32*
%TO.P,U2,1,GND*%
%TO.N,GND*%
X61700000Y-60250000D03*
%TD*%
D13*
%TO.P,J3,1,Pin_1*%
%TO.N,/Gate1_In*%
X66600000Y-74400000D03*
D12*
%TO.P,J3,2,Pin_2*%
%TO.N,/Gate2_In*%
X66600000Y-76940000D03*
%TO.P,J3,3,Pin_3*%
%TO.N,/Gate3_In*%
X66600000Y-79480000D03*
%TO.P,J3,4,Pin_4*%
%TO.N,/Gate4_In*%
X66600000Y-82020000D03*
%TD*%
%TO.P,J2,4,Pin_4*%
%TO.N,/Env1_Out*%
X52800000Y-140820000D03*
%TO.P,J2,3,Pin_3*%
%TO.N,/Led1_Out*%
X52800000Y-138280000D03*
%TO.P,J2,2,Pin_2*%
%TO.N,/Env2_Out*%
X52800000Y-135740000D03*
D13*
%TO.P,J2,1,Pin_1*%
%TO.N,/Led2_Out*%
X52800000Y-133200000D03*
%TD*%
D34*
%TO.N,/RESET*%
X56800000Y-102200000D03*
%TO.N,GND*%
X61200000Y-68800000D03*
X58000000Y-68600000D03*
X56400000Y-72000000D03*
X54200000Y-73800000D03*
X61000000Y-135800000D03*
X54800000Y-131400000D03*
X59600000Y-141400000D03*
X55200000Y-135400000D03*
X63400000Y-134600000D03*
X55600000Y-127400000D03*
X59600000Y-124000000D03*
X56800000Y-116800000D03*
X60200000Y-103000000D03*
X57600000Y-103200000D03*
X60800000Y-93200000D03*
X63800000Y-82400000D03*
X64400000Y-85800000D03*
X55000000Y-85800000D03*
X56800000Y-84000000D03*
X59400000Y-76600000D03*
X57600000Y-74400000D03*
X63600000Y-60400000D03*
X61600000Y-62400000D03*
X54800000Y-66400000D03*
X52800000Y-68800000D03*
X64000000Y-66400000D03*
%TO.N,/Release_Pot*%
X55000000Y-106800000D03*
%TO.N,+3.3V*%
X55012500Y-94787500D03*
D35*
%TO.N,GND*%
X60800000Y-139000000D03*
D34*
X63400000Y-127200000D03*
%TO.N,/USB_DM*%
X62000000Y-134600000D03*
%TO.N,/USB_DP*%
X59474500Y-135598120D03*
%TO.N,/USB_DM*%
X62000000Y-103200000D03*
%TO.N,/USB_DP*%
X61200000Y-101600000D03*
%TO.N,GND*%
X57800000Y-90400000D03*
D35*
X60200000Y-105325500D03*
X62000000Y-100000000D03*
D34*
X57200000Y-99800000D03*
X65200000Y-103000000D03*
X65000000Y-98000000D03*
X57000000Y-93400000D03*
X52800000Y-123070000D03*
X52800000Y-121070000D03*
X66000000Y-121070000D03*
X58600000Y-112400000D03*
X55400000Y-62200000D03*
D35*
%TO.N,+3.3V*%
X60963872Y-87575433D03*
X62000000Y-90800000D03*
X62000000Y-84800000D03*
%TO.N,+3.3VA*%
X59200000Y-108400000D03*
%TO.N,+3.3V*%
X63900000Y-107700000D03*
X61000000Y-71600000D03*
%TO.N,-12V*%
X63700000Y-120970000D03*
%TO.N,+12V*%
X54887500Y-120957500D03*
%TD*%
D36*
%TO.N,-12V*%
X68000000Y-65000000D02*
X65800000Y-62800000D01*
X68000000Y-110800000D02*
X68000000Y-65000000D01*
X66400000Y-112400000D02*
X68000000Y-110800000D01*
D37*
%TO.N,/RESET*%
X56150000Y-102850000D02*
X56800000Y-102200000D01*
X55237500Y-102850000D02*
X56150000Y-102850000D01*
%TO.N,/Sustain_Pot*%
X51225000Y-93155000D02*
X51225000Y-102486701D01*
D36*
%TO.N,+12V*%
X50725499Y-110725499D02*
X52400000Y-112400000D01*
D37*
%TO.N,/Sustain_Pot*%
X51225000Y-102486701D02*
X53588299Y-104850000D01*
X53588299Y-104850000D02*
X55237500Y-104850000D01*
D36*
%TO.N,+12V*%
X50725499Y-64874501D02*
X50725499Y-110725499D01*
D37*
%TO.N,/Sustain_Pot*%
X52200000Y-92180000D02*
X51225000Y-93155000D01*
D36*
%TO.N,+12V*%
X52800000Y-62800000D02*
X50725499Y-64874501D01*
D37*
%TO.N,+3.3V*%
X64200000Y-109400000D02*
X64200000Y-109425000D01*
X62150000Y-106762500D02*
X62150000Y-107350000D01*
X62150000Y-107350000D02*
X64200000Y-109400000D01*
D36*
X64200000Y-108000000D02*
X63900000Y-107700000D01*
X64200000Y-109425000D02*
X64200000Y-108000000D01*
D37*
%TO.N,/Env4_DAC*%
X61498249Y-120800000D02*
X61875000Y-120800000D01*
X60575000Y-119876751D02*
X61498249Y-120800000D01*
X60575000Y-116095000D02*
X60575000Y-119876751D01*
X65200000Y-107600000D02*
X65200000Y-111470000D01*
X62625000Y-105934315D02*
X62625000Y-106025000D01*
X65200000Y-111470000D02*
X60575000Y-116095000D01*
X61040685Y-104350000D02*
X62625000Y-105934315D01*
X64000000Y-106400000D02*
X65200000Y-107600000D01*
X62625000Y-106025000D02*
X63000000Y-106400000D01*
X55237500Y-104350000D02*
X61040685Y-104350000D01*
X63000000Y-106400000D02*
X64000000Y-106400000D01*
%TO.N,+3.3VA*%
X61000000Y-108400000D02*
X61000000Y-109425000D01*
X60650000Y-108050000D02*
X61000000Y-108400000D01*
X60650000Y-106762500D02*
X60650000Y-108050000D01*
%TO.N,/Env3_DAC*%
X61070000Y-123340000D02*
X61875000Y-123340000D01*
X56400000Y-112000000D02*
X59800000Y-115400000D01*
X59800000Y-122070000D02*
X61070000Y-123340000D01*
X59800000Y-115400000D02*
X59800000Y-122070000D01*
X56400000Y-108800000D02*
X56400000Y-112000000D01*
X57200000Y-108000000D02*
X56400000Y-108800000D01*
X58650000Y-107565685D02*
X58215685Y-108000000D01*
X58215685Y-108000000D02*
X57200000Y-108000000D01*
X58650000Y-106762500D02*
X58650000Y-107565685D01*
%TO.N,+3.3VA*%
X59400000Y-109425000D02*
X62200000Y-109425000D01*
X57800000Y-109425000D02*
X59400000Y-109425000D01*
X60150000Y-108675000D02*
X59400000Y-109425000D01*
X60150000Y-106762500D02*
X60150000Y-108675000D01*
D36*
X59200000Y-108400000D02*
X58175000Y-109425000D01*
X58175000Y-109425000D02*
X57800000Y-109425000D01*
D37*
%TO.N,/Env2_DAC*%
X55600000Y-112200000D02*
X55600000Y-107812500D01*
X55600000Y-107812500D02*
X56650000Y-106762500D01*
X58130000Y-123340000D02*
X59200000Y-122270000D01*
X59200000Y-122270000D02*
X59200000Y-115800000D01*
X59200000Y-115800000D02*
X55600000Y-112200000D01*
X56925000Y-123340000D02*
X58130000Y-123340000D01*
%TO.N,/Env1_DAC*%
X54000000Y-111800000D02*
X58600000Y-116400000D01*
X58600000Y-116400000D02*
X58600000Y-120270000D01*
X58600000Y-120270000D02*
X58070000Y-120800000D01*
X54000000Y-105600000D02*
X54000000Y-111800000D01*
X58070000Y-120800000D02*
X56925000Y-120800000D01*
X54250000Y-105350000D02*
X54000000Y-105600000D01*
X55237500Y-105350000D02*
X54250000Y-105350000D01*
%TO.N,/Attack_Pot*%
X54350000Y-103350000D02*
X55237500Y-103350000D01*
X54175000Y-103175000D02*
X54350000Y-103350000D01*
X54175000Y-86535000D02*
X54175000Y-103175000D01*
X52200000Y-84560000D02*
X54175000Y-86535000D01*
%TO.N,/Decay_Pot*%
X53725499Y-103361189D02*
X54214310Y-103850000D01*
X54214310Y-103850000D02*
X55237500Y-103850000D01*
X53725499Y-88625499D02*
X53725499Y-103361189D01*
X52200000Y-87100000D02*
X53725499Y-88625499D01*
%TO.N,/Release_Pot*%
X57800000Y-105400000D02*
X56490685Y-105400000D01*
X55090685Y-106800000D02*
X55000000Y-106800000D01*
X58150000Y-105750000D02*
X57800000Y-105400000D01*
X56490685Y-105400000D02*
X55090685Y-106800000D01*
X58150000Y-106762500D02*
X58150000Y-105750000D01*
%TO.N,/Gate1*%
X54849501Y-87800499D02*
X54849501Y-90849501D01*
X56642462Y-91600000D02*
X59150000Y-94107538D01*
X55600000Y-91600000D02*
X56642462Y-91600000D01*
X55175000Y-87475000D02*
X54849501Y-87800499D01*
X56537500Y-87475000D02*
X55175000Y-87475000D01*
X59150000Y-94107538D02*
X59150000Y-98437500D01*
X54849501Y-90849501D02*
X55600000Y-91600000D01*
D36*
%TO.N,+3.3V*%
X56537500Y-85525000D02*
X56537500Y-86175000D01*
X55000000Y-83987500D02*
X56537500Y-85525000D01*
X59400000Y-70800000D02*
X55000000Y-75200000D01*
X55000000Y-75200000D02*
X55000000Y-83987500D01*
X55012500Y-94787500D02*
X56200000Y-95975000D01*
D37*
%TO.N,/Gate2*%
X57000000Y-91000000D02*
X59650000Y-93650000D01*
X59650000Y-93650000D02*
X59650000Y-98437500D01*
X55961979Y-91000000D02*
X57000000Y-91000000D01*
X55475000Y-88125000D02*
X55400000Y-88200000D01*
X55400000Y-88200000D02*
X55400000Y-90438021D01*
X55400000Y-90438021D02*
X55961979Y-91000000D01*
X56537500Y-88125000D02*
X55475000Y-88125000D01*
D36*
%TO.N,GND*%
X60700000Y-138900000D02*
X60800000Y-139000000D01*
X60700000Y-137415000D02*
X60700000Y-138900000D01*
D37*
%TO.N,/USB_DM*%
X59200000Y-134600000D02*
X62000000Y-134600000D01*
X58750000Y-135050000D02*
X59200000Y-134600000D01*
X58750000Y-137415000D02*
X58750000Y-135050000D01*
%TO.N,/USB_DP*%
X59400000Y-135672620D02*
X59474500Y-135598120D01*
X59400000Y-137415000D02*
X59400000Y-135672620D01*
%TO.N,/USB_DM*%
X62000000Y-101800000D02*
X62000000Y-103200000D01*
X62450000Y-101350000D02*
X62000000Y-101800000D01*
X63562500Y-101350000D02*
X62450000Y-101350000D01*
%TO.N,/USB_DP*%
X63562500Y-100850000D02*
X61950000Y-100850000D01*
X61950000Y-100850000D02*
X61200000Y-101600000D01*
%TO.N,GND*%
X63562500Y-100350000D02*
X62350000Y-100350000D01*
X62350000Y-100350000D02*
X62000000Y-100000000D01*
%TO.N,/Led3_Out*%
X66100000Y-129795000D02*
X66100000Y-133200000D01*
%TO.N,/Env4_Out*%
X68249002Y-138670998D02*
X66100000Y-140820000D01*
X68249002Y-116494002D02*
X68249002Y-138670998D01*
X66625000Y-114870000D02*
X68249002Y-116494002D01*
%TO.N,/Led4_Out*%
X67799501Y-117844501D02*
X66625000Y-116670000D01*
X66100000Y-138280000D02*
X67799501Y-136580499D01*
X67799501Y-136580499D02*
X67799501Y-117844501D01*
%TO.N,/Env3_Out*%
X67350000Y-134490000D02*
X66100000Y-135740000D01*
X66625000Y-127470000D02*
X67350000Y-128195000D01*
X67350000Y-128195000D02*
X67350000Y-134490000D01*
%TO.N,/Env1_Out*%
X50550998Y-116494002D02*
X52175000Y-114870000D01*
X50550998Y-138570998D02*
X50550998Y-116494002D01*
X52800000Y-140820000D02*
X50550998Y-138570998D01*
%TO.N,/Led1_Out*%
X51000499Y-136480499D02*
X52800000Y-138280000D01*
X51000499Y-117844501D02*
X51000499Y-136480499D01*
X52175000Y-116670000D02*
X51000499Y-117844501D01*
%TO.N,/Env2_Out*%
X51450000Y-134390000D02*
X52800000Y-135740000D01*
X51450000Y-128195000D02*
X51450000Y-134390000D01*
X52175000Y-127470000D02*
X51450000Y-128195000D01*
%TO.N,/Led2_Out*%
X52800000Y-129895000D02*
X52800000Y-133200000D01*
%TO.N,GND*%
X57475000Y-90075000D02*
X57800000Y-90400000D01*
X56537500Y-90075000D02*
X57475000Y-90075000D01*
X61016185Y-105325500D02*
X60200000Y-105325500D01*
X61650000Y-105959315D02*
X61016185Y-105325500D01*
X61650000Y-106762500D02*
X61650000Y-105959315D01*
X59650000Y-106762500D02*
X59650000Y-105875500D01*
X59650000Y-105875500D02*
X60200000Y-105325500D01*
X57150000Y-99750000D02*
X57200000Y-99800000D01*
X57150000Y-98437500D02*
X57150000Y-99750000D01*
%TO.N,+3.3V*%
X61064305Y-87475000D02*
X60963872Y-87575433D01*
X62262500Y-87475000D02*
X61064305Y-87475000D01*
%TO.N,Net-(U3-Pad10)*%
X60625000Y-89425000D02*
X62262500Y-89425000D01*
X60139372Y-88939372D02*
X60625000Y-89425000D01*
X60200000Y-82625000D02*
X60139372Y-82685628D01*
%TO.N,Net-(U3-Pad14)*%
X61570723Y-86825000D02*
X62262500Y-86825000D01*
X60900000Y-86154277D02*
X61570723Y-86825000D01*
X61775000Y-82625000D02*
X60900000Y-83500000D01*
X61800000Y-82625000D02*
X61775000Y-82625000D01*
%TO.N,Net-(U3-Pad10)*%
X60139372Y-82685628D02*
X60139372Y-88939372D01*
%TO.N,Net-(U3-Pad14)*%
X60900000Y-83500000D02*
X60900000Y-86154277D01*
%TO.N,+3.3V*%
X62262500Y-90537500D02*
X62000000Y-90800000D01*
X62262500Y-90075000D02*
X62262500Y-90537500D01*
X62262500Y-85062500D02*
X62000000Y-84800000D01*
X62262500Y-85525000D02*
X62262500Y-85062500D01*
X59225000Y-89425000D02*
X56537500Y-89425000D01*
X59875000Y-90075000D02*
X59225000Y-89425000D01*
X62262500Y-90075000D02*
X59875000Y-90075000D01*
D36*
%TO.N,+3.3VA*%
X52200000Y-71350000D02*
X52200000Y-74400000D01*
X51650000Y-70800000D02*
X52200000Y-71350000D01*
%TO.N,+3.3V*%
X67050000Y-100575000D02*
X66200000Y-101425000D01*
X67050000Y-94660000D02*
X67050000Y-100575000D01*
X66600000Y-94210000D02*
X67050000Y-94660000D01*
D37*
X55200000Y-99200000D02*
X55962500Y-98437500D01*
X55962500Y-98437500D02*
X56650000Y-98437500D01*
X55200000Y-99812500D02*
X55200000Y-99200000D01*
X55237500Y-99850000D02*
X55200000Y-99812500D01*
D36*
X60200000Y-70800000D02*
X61000000Y-71600000D01*
X59400000Y-70800000D02*
X60200000Y-70800000D01*
%TO.N,+12V*%
X53775000Y-122070000D02*
X54887500Y-120957500D01*
%TO.N,-12V*%
X63925000Y-120970000D02*
X63700000Y-120970000D01*
X65025000Y-122070000D02*
X63925000Y-120970000D01*
X65025000Y-122070000D02*
X61875000Y-122070000D01*
%TO.N,+12V*%
X53775000Y-122070000D02*
X56925000Y-122070000D01*
D37*
%TO.N,Net-(U3-Pad3)*%
X57900000Y-86500000D02*
X57575000Y-86825000D01*
X57575000Y-86825000D02*
X56537500Y-86825000D01*
X57900000Y-83500000D02*
X57900000Y-86500000D01*
X57025000Y-82625000D02*
X57900000Y-83500000D01*
X57000000Y-82625000D02*
X57025000Y-82625000D01*
%TO.N,/SWCLK*%
X64500000Y-94500000D02*
X61650000Y-97350000D01*
X64500000Y-88490000D02*
X64500000Y-94500000D01*
X66400000Y-86590000D02*
X64500000Y-88490000D01*
X61650000Y-97350000D02*
X61650000Y-98437500D01*
%TO.N,/Gate3*%
X60150000Y-95850000D02*
X60150000Y-98437500D01*
X63400000Y-92600000D02*
X60150000Y-95850000D01*
X62951041Y-88775000D02*
X63400000Y-89223959D01*
X63400000Y-89223959D02*
X63400000Y-92600000D01*
X62262500Y-88775000D02*
X62951041Y-88775000D01*
%TO.N,/SWIO*%
X65000000Y-90730000D02*
X66600000Y-89130000D01*
X62162500Y-98437500D02*
X65000000Y-95600000D01*
X62150000Y-98437500D02*
X62162500Y-98437500D01*
X65000000Y-95600000D02*
X65000000Y-90730000D01*
%TO.N,/Led2_Out*%
X52175000Y-129270000D02*
X52800000Y-129895000D01*
%TO.N,/Led3_Out*%
X66625000Y-129270000D02*
X66100000Y-129795000D01*
%TO.N,Net-(U3-Pad6)*%
X56562500Y-88800000D02*
X56537500Y-88775000D01*
X58200000Y-88800000D02*
X56562500Y-88800000D01*
X58600000Y-82625000D02*
X58600000Y-88400000D01*
X58600000Y-88400000D02*
X58200000Y-88800000D01*
%TO.N,+3.3V*%
X56650000Y-96425000D02*
X56200000Y-95975000D01*
X56650000Y-98437500D02*
X56650000Y-96425000D01*
%TO.N,/BOOT0*%
X58150000Y-96375000D02*
X58150000Y-98437500D01*
X57800000Y-96025000D02*
X58150000Y-96375000D01*
%TO.N,+3.3V*%
X66175000Y-99850000D02*
X66225000Y-99800000D01*
X63562500Y-99850000D02*
X66175000Y-99850000D01*
D36*
X66225000Y-101400000D02*
X66225000Y-99800000D01*
D37*
%TO.N,/Gate4*%
X60650000Y-96750000D02*
X60650000Y-98437500D01*
X63950499Y-93449501D02*
X60650000Y-96750000D01*
X63950499Y-87150499D02*
X63950499Y-93449501D01*
X62262500Y-86175000D02*
X62975000Y-86175000D01*
X62975000Y-86175000D02*
X63950499Y-87150499D01*
%TO.N,/Gate1_In*%
X66200000Y-74400000D02*
X63200000Y-74400000D01*
%TO.N,/Gate2_In*%
X62635000Y-76940000D02*
X58600000Y-80975000D01*
%TO.N,/Gate1_In*%
X57000000Y-80600000D02*
X57000000Y-80975000D01*
%TO.N,/Gate2_In*%
X66200000Y-76940000D02*
X62635000Y-76940000D01*
%TO.N,/Gate1_In*%
X63200000Y-74400000D02*
X57000000Y-80600000D01*
%TO.N,/Gate3_In*%
X61695000Y-79480000D02*
X60200000Y-80975000D01*
X66200000Y-79480000D02*
X61695000Y-79480000D01*
%TO.N,/Gate4_In*%
X66200000Y-82020000D02*
X65155000Y-80975000D01*
X65155000Y-80975000D02*
X61800000Y-80975000D01*
D36*
%TO.N,+3.3V*%
X53950000Y-70800000D02*
X59400000Y-70800000D01*
X59400000Y-66550000D02*
X59400000Y-70800000D01*
%TO.N,-12V*%
X65800000Y-59600000D02*
X65800000Y-62800000D01*
X67650000Y-58600000D02*
X66800000Y-58600000D01*
X66800000Y-58600000D02*
X65800000Y-59600000D01*
%TO.N,/-12V_IN*%
X64480000Y-58470000D02*
X64350000Y-58600000D01*
X64480000Y-55200000D02*
X64480000Y-58470000D01*
X64480000Y-52660000D02*
X64480000Y-55200000D01*
%TO.N,+3.3V*%
X59400000Y-60250000D02*
X59400000Y-66550000D01*
%TO.N,+12V*%
X55350000Y-60250000D02*
X52800000Y-62800000D01*
X57100000Y-60250000D02*
X55350000Y-60250000D01*
X52800000Y-59200000D02*
X52800000Y-62800000D01*
X51150000Y-58600000D02*
X52200000Y-58600000D01*
X52200000Y-58600000D02*
X52800000Y-59200000D01*
%TO.N,/+12V_IN*%
X54320000Y-58470000D02*
X54450000Y-58600000D01*
X54320000Y-55200000D02*
X54320000Y-58470000D01*
X54320000Y-52660000D02*
X54320000Y-55200000D01*
D37*
%TO.N,Net-(R11-Pad1)*%
X66687500Y-125670000D02*
X64887500Y-123870000D01*
%TO.N,Net-(R15-Pad1)*%
X64887500Y-129270000D02*
X64887500Y-127470000D01*
X64887500Y-125670000D02*
X64887500Y-127470000D01*
X64677500Y-125880000D02*
X64887500Y-125670000D01*
X61875000Y-125880000D02*
X64677500Y-125880000D01*
%TO.N,Net-(R11-Pad1)*%
X64147500Y-124610000D02*
X64887500Y-123870000D01*
X61875000Y-124610000D02*
X64147500Y-124610000D01*
%TO.N,Net-(R12-Pad1)*%
X66687500Y-118470000D02*
X64887500Y-120270000D01*
%TO.N,Net-(R16-Pad1)*%
X61875000Y-118260000D02*
X64677500Y-118260000D01*
X64677500Y-118260000D02*
X64887500Y-118470000D01*
X64887500Y-116670000D02*
X64887500Y-118470000D01*
X64887500Y-114870000D02*
X64887500Y-116670000D01*
%TO.N,Net-(R12-Pad1)*%
X64147500Y-119530000D02*
X64887500Y-120270000D01*
X61875000Y-119530000D02*
X64147500Y-119530000D01*
%TO.N,Net-(R14-Pad1)*%
X54122500Y-125880000D02*
X53912500Y-125670000D01*
X56925000Y-125880000D02*
X54122500Y-125880000D01*
%TO.N,Net-(R13-Pad1)*%
X55502500Y-118260000D02*
X53912500Y-116670000D01*
X56925000Y-118260000D02*
X55502500Y-118260000D01*
%TO.N,Net-(R13-Pad2)*%
X54652500Y-119530000D02*
X56925000Y-119530000D01*
X53912500Y-120270000D02*
X54652500Y-119530000D01*
%TO.N,Net-(R10-Pad1)*%
X56925000Y-124610000D02*
X54652500Y-124610000D01*
X54652500Y-124610000D02*
X53912500Y-123870000D01*
%TO.N,Net-(R14-Pad1)*%
X53912500Y-127470000D02*
X53912500Y-125670000D01*
X53912500Y-129270000D02*
X53912500Y-127470000D01*
%TO.N,Net-(R10-Pad1)*%
X53912500Y-123870000D02*
X52112500Y-125670000D01*
%TO.N,Net-(R13-Pad1)*%
X53912500Y-114870000D02*
X53912500Y-116670000D01*
X52112500Y-118470000D02*
X53912500Y-116670000D01*
%TO.N,Net-(R13-Pad2)*%
X53912500Y-118470000D02*
X53912500Y-120270000D01*
%TD*%
%TA.AperFunction,Conductor*%
%TO.N,GND*%
G36*
X59644032Y-122826038D02*
G01*
X59689095Y-122854999D01*
X60359977Y-123525881D01*
X60394230Y-123591187D01*
X60394438Y-123593831D01*
X60396233Y-123600008D01*
X60396234Y-123600013D01*
X60437748Y-123742905D01*
X60440855Y-123753601D01*
X60525547Y-123896807D01*
X60528229Y-123899489D01*
X60553502Y-123963861D01*
X60539600Y-124033484D01*
X60529428Y-124049312D01*
X60525547Y-124053193D01*
X60440855Y-124196399D01*
X60394438Y-124356169D01*
X60391500Y-124393498D01*
X60391500Y-124826502D01*
X60394438Y-124863831D01*
X60440855Y-125023601D01*
X60525547Y-125166807D01*
X60528229Y-125169489D01*
X60553502Y-125233861D01*
X60539600Y-125303484D01*
X60529428Y-125319312D01*
X60525547Y-125323193D01*
X60440855Y-125466399D01*
X60394438Y-125626169D01*
X60391500Y-125663498D01*
X60391500Y-126096502D01*
X60394438Y-126133831D01*
X60440855Y-126293601D01*
X60444892Y-126300427D01*
X60521509Y-126429980D01*
X60521511Y-126429983D01*
X60525547Y-126436807D01*
X60643193Y-126554453D01*
X60650017Y-126558489D01*
X60650020Y-126558491D01*
X60679968Y-126576202D01*
X60786399Y-126639145D01*
X60794010Y-126641356D01*
X60794012Y-126641357D01*
X60846231Y-126656528D01*
X60946169Y-126685562D01*
X60952574Y-126686066D01*
X60952579Y-126686067D01*
X60981042Y-126688307D01*
X60981050Y-126688307D01*
X60983498Y-126688500D01*
X62766502Y-126688500D01*
X62768950Y-126688307D01*
X62768958Y-126688307D01*
X62797421Y-126686067D01*
X62797426Y-126686066D01*
X62803831Y-126685562D01*
X62903769Y-126656528D01*
X62955988Y-126641357D01*
X62955990Y-126641356D01*
X62963601Y-126639145D01*
X63070032Y-126576202D01*
X63099980Y-126558491D01*
X63099983Y-126558489D01*
X63106807Y-126554453D01*
X63112416Y-126548844D01*
X63118675Y-126543989D01*
X63119844Y-126545496D01*
X63173167Y-126516379D01*
X63199950Y-126513500D01*
X64128000Y-126513500D01*
X64196121Y-126533502D01*
X64242614Y-126587158D01*
X64254000Y-126639500D01*
X64254000Y-126661790D01*
X64233998Y-126729911D01*
X64223303Y-126743181D01*
X64223419Y-126743272D01*
X64218737Y-126749243D01*
X64213361Y-126754619D01*
X64124528Y-126901301D01*
X64073247Y-127064938D01*
X64066500Y-127138365D01*
X64066501Y-127801634D01*
X64066764Y-127804492D01*
X64066764Y-127804501D01*
X64070026Y-127840004D01*
X64073247Y-127875062D01*
X64124528Y-128038699D01*
X64213361Y-128185381D01*
X64218737Y-128190757D01*
X64223419Y-128196728D01*
X64221902Y-128197918D01*
X64251121Y-128251427D01*
X64254000Y-128278210D01*
X64254000Y-128461790D01*
X64233998Y-128529911D01*
X64223303Y-128543181D01*
X64223419Y-128543272D01*
X64218737Y-128549243D01*
X64213361Y-128554619D01*
X64124528Y-128701301D01*
X64073247Y-128864938D01*
X64066500Y-128938365D01*
X64066501Y-129601634D01*
X64066764Y-129604492D01*
X64066764Y-129604501D01*
X64070026Y-129640004D01*
X64073247Y-129675062D01*
X64124528Y-129838699D01*
X64213361Y-129985381D01*
X64334619Y-130106639D01*
X64481301Y-130195472D01*
X64488548Y-130197743D01*
X64488550Y-130197744D01*
X64554836Y-130218517D01*
X64644938Y-130246753D01*
X64718365Y-130253500D01*
X64721263Y-130253500D01*
X64975665Y-130253499D01*
X65231634Y-130253499D01*
X65234492Y-130253236D01*
X65234501Y-130253236D01*
X65282255Y-130248848D01*
X65305062Y-130246753D01*
X65311439Y-130244755D01*
X65315756Y-130243890D01*
X65386478Y-130250124D01*
X65442603Y-130293605D01*
X65466500Y-130367436D01*
X65466500Y-131715500D01*
X65446498Y-131783621D01*
X65392842Y-131830114D01*
X65340500Y-131841500D01*
X65201866Y-131841500D01*
X65139684Y-131848255D01*
X65003295Y-131899385D01*
X64886739Y-131986739D01*
X64799385Y-132103295D01*
X64748255Y-132239684D01*
X64741500Y-132301866D01*
X64741500Y-134098134D01*
X64748255Y-134160316D01*
X64799385Y-134296705D01*
X64886739Y-134413261D01*
X65003295Y-134500615D01*
X65011704Y-134503767D01*
X65011705Y-134503768D01*
X65120451Y-134544535D01*
X65177216Y-134587176D01*
X65201916Y-134653738D01*
X65186709Y-134723087D01*
X65167316Y-134749568D01*
X65040629Y-134882138D01*
X65037715Y-134886410D01*
X65037714Y-134886411D01*
X64980714Y-134969970D01*
X64914743Y-135066680D01*
X64820688Y-135269305D01*
X64760989Y-135484570D01*
X64737251Y-135706695D01*
X64737548Y-135711848D01*
X64737548Y-135711851D01*
X64743011Y-135806590D01*
X64750110Y-135929715D01*
X64751247Y-135934761D01*
X64751248Y-135934767D01*
X64760404Y-135975394D01*
X64799222Y-136147639D01*
X64883266Y-136354616D01*
X64901223Y-136383919D01*
X64978157Y-136509464D01*
X64999987Y-136545088D01*
X65146250Y-136713938D01*
X65318126Y-136856632D01*
X65386980Y-136896867D01*
X65391445Y-136899476D01*
X65440169Y-136951114D01*
X65453240Y-137020897D01*
X65426509Y-137086669D01*
X65386055Y-137120027D01*
X65373607Y-137126507D01*
X65369474Y-137129610D01*
X65369471Y-137129612D01*
X65345247Y-137147800D01*
X65194965Y-137260635D01*
X65040629Y-137422138D01*
X64914743Y-137606680D01*
X64899003Y-137640590D01*
X64848227Y-137749978D01*
X64820688Y-137809305D01*
X64760989Y-138024570D01*
X64737251Y-138246695D01*
X64737548Y-138251848D01*
X64737548Y-138251851D01*
X64748727Y-138445725D01*
X64750110Y-138469715D01*
X64751247Y-138474761D01*
X64751248Y-138474767D01*
X64771119Y-138562939D01*
X64799222Y-138687639D01*
X64883266Y-138894616D01*
X64885965Y-138899020D01*
X64947766Y-138999870D01*
X64999987Y-139085088D01*
X65146250Y-139253938D01*
X65318126Y-139396632D01*
X65365652Y-139424404D01*
X65391445Y-139439476D01*
X65440169Y-139491114D01*
X65453240Y-139560897D01*
X65426509Y-139626669D01*
X65386055Y-139660027D01*
X65373607Y-139666507D01*
X65369474Y-139669610D01*
X65369471Y-139669612D01*
X65204717Y-139793313D01*
X65194965Y-139800635D01*
X65040629Y-139962138D01*
X64914743Y-140146680D01*
X64820688Y-140349305D01*
X64760989Y-140564570D01*
X64737251Y-140786695D01*
X64737548Y-140791848D01*
X64737548Y-140791851D01*
X64743011Y-140886590D01*
X64750110Y-141009715D01*
X64751247Y-141014761D01*
X64751248Y-141014767D01*
X64770296Y-141099287D01*
X64799222Y-141227639D01*
X64883266Y-141434616D01*
X64999987Y-141625088D01*
X65146250Y-141793938D01*
X65318126Y-141936632D01*
X65511000Y-142049338D01*
X65719692Y-142129030D01*
X65724760Y-142130061D01*
X65724763Y-142130062D01*
X65832017Y-142151883D01*
X65938597Y-142173567D01*
X65943772Y-142173757D01*
X65943774Y-142173757D01*
X66156673Y-142181564D01*
X66156677Y-142181564D01*
X66161837Y-142181753D01*
X66166957Y-142181097D01*
X66166959Y-142181097D01*
X66378288Y-142154025D01*
X66378289Y-142154025D01*
X66383416Y-142153368D01*
X66388366Y-142151883D01*
X66592429Y-142090661D01*
X66592434Y-142090659D01*
X66597384Y-142089174D01*
X66797994Y-141990896D01*
X66979860Y-141861173D01*
X67138096Y-141703489D01*
X67197594Y-141620689D01*
X67265435Y-141526277D01*
X67268453Y-141522077D01*
X67335712Y-141385989D01*
X67365136Y-141326453D01*
X67365137Y-141326451D01*
X67367430Y-141321811D01*
X67432370Y-141108069D01*
X67461529Y-140886590D01*
X67463156Y-140820000D01*
X67444852Y-140597361D01*
X67416821Y-140485765D01*
X67419625Y-140414825D01*
X67449930Y-140365974D01*
X68076405Y-139739500D01*
X68138717Y-139705475D01*
X68209533Y-139710540D01*
X68266368Y-139753087D01*
X68291179Y-139819607D01*
X68291500Y-139828596D01*
X68291500Y-142365500D01*
X68271498Y-142433621D01*
X68217842Y-142480114D01*
X68165500Y-142491500D01*
X50634500Y-142491500D01*
X50566379Y-142471498D01*
X50519886Y-142417842D01*
X50508500Y-142365500D01*
X50508500Y-139728594D01*
X50528502Y-139660473D01*
X50582158Y-139613980D01*
X50652432Y-139603876D01*
X50717012Y-139633370D01*
X50723578Y-139639483D01*
X51449779Y-140365684D01*
X51483803Y-140427994D01*
X51482100Y-140488446D01*
X51460989Y-140564570D01*
X51437251Y-140786695D01*
X51437548Y-140791848D01*
X51437548Y-140791851D01*
X51443011Y-140886590D01*
X51450110Y-141009715D01*
X51451247Y-141014761D01*
X51451248Y-141014767D01*
X51470296Y-141099287D01*
X51499222Y-141227639D01*
X51583266Y-141434616D01*
X51699987Y-141625088D01*
X51846250Y-141793938D01*
X52018126Y-141936632D01*
X52211000Y-142049338D01*
X52419692Y-142129030D01*
X52424760Y-142130061D01*
X52424763Y-142130062D01*
X52532017Y-142151883D01*
X52638597Y-142173567D01*
X52643772Y-142173757D01*
X52643774Y-142173757D01*
X52856673Y-142181564D01*
X52856677Y-142181564D01*
X52861837Y-142181753D01*
X52866957Y-142181097D01*
X52866959Y-142181097D01*
X53078288Y-142154025D01*
X53078289Y-142154025D01*
X53083416Y-142153368D01*
X53088366Y-142151883D01*
X53292429Y-142090661D01*
X53292434Y-142090659D01*
X53297384Y-142089174D01*
X53497994Y-141990896D01*
X53679860Y-141861173D01*
X53838096Y-141703489D01*
X53897594Y-141620689D01*
X53965435Y-141526277D01*
X53968453Y-141522077D01*
X54035712Y-141385989D01*
X54065136Y-141326453D01*
X54065137Y-141326451D01*
X54067430Y-141321811D01*
X54132370Y-141108069D01*
X54161529Y-140886590D01*
X54163156Y-140820000D01*
X54144852Y-140597361D01*
X54105268Y-140439769D01*
X54891500Y-140439769D01*
X54891800Y-140442825D01*
X54891800Y-140442832D01*
X54892530Y-140450273D01*
X54905920Y-140586833D01*
X54907702Y-140592734D01*
X54907702Y-140592736D01*
X54910105Y-140600694D01*
X54963084Y-140776169D01*
X55055934Y-140950796D01*
X55108108Y-141014767D01*
X55177040Y-141099287D01*
X55177043Y-141099290D01*
X55180935Y-141104062D01*
X55185682Y-141107989D01*
X55185684Y-141107991D01*
X55328575Y-141226201D01*
X55328579Y-141226203D01*
X55333325Y-141230130D01*
X55507299Y-141324198D01*
X55696232Y-141382682D01*
X55702357Y-141383326D01*
X55702358Y-141383326D01*
X55886796Y-141402711D01*
X55886798Y-141402711D01*
X55892925Y-141403355D01*
X55975424Y-141395847D01*
X56083749Y-141385989D01*
X56083752Y-141385988D01*
X56089888Y-141385430D01*
X56095794Y-141383692D01*
X56095798Y-141383691D01*
X56200924Y-141352751D01*
X56279619Y-141329590D01*
X56285077Y-141326737D01*
X56285081Y-141326735D01*
X56375853Y-141279280D01*
X56454890Y-141237960D01*
X56609025Y-141114032D01*
X56736154Y-140962526D01*
X56739121Y-140957128D01*
X56739125Y-140957123D01*
X56828467Y-140794608D01*
X56831433Y-140789213D01*
X56833846Y-140781608D01*
X56889373Y-140606564D01*
X56889373Y-140606563D01*
X56891235Y-140600694D01*
X56908500Y-140446773D01*
X56908500Y-140439769D01*
X61891500Y-140439769D01*
X61891800Y-140442825D01*
X61891800Y-140442832D01*
X61892530Y-140450273D01*
X61905920Y-140586833D01*
X61907702Y-140592734D01*
X61907702Y-140592736D01*
X61910105Y-140600694D01*
X61963084Y-140776169D01*
X62055934Y-140950796D01*
X62108108Y-141014767D01*
X62177040Y-141099287D01*
X62177043Y-141099290D01*
X62180935Y-141104062D01*
X62185682Y-141107989D01*
X62185684Y-141107991D01*
X62328575Y-141226201D01*
X62328579Y-141226203D01*
X62333325Y-141230130D01*
X62507299Y-141324198D01*
X62696232Y-141382682D01*
X62702357Y-141383326D01*
X62702358Y-141383326D01*
X62886796Y-141402711D01*
X62886798Y-141402711D01*
X62892925Y-141403355D01*
X62975424Y-141395847D01*
X63083749Y-141385989D01*
X63083752Y-141385988D01*
X63089888Y-141385430D01*
X63095794Y-141383692D01*
X63095798Y-141383691D01*
X63200924Y-141352751D01*
X63279619Y-141329590D01*
X63285077Y-141326737D01*
X63285081Y-141326735D01*
X63375853Y-141279280D01*
X63454890Y-141237960D01*
X63609025Y-141114032D01*
X63736154Y-140962526D01*
X63739121Y-140957128D01*
X63739125Y-140957123D01*
X63828467Y-140794608D01*
X63831433Y-140789213D01*
X63833846Y-140781608D01*
X63889373Y-140606564D01*
X63889373Y-140606563D01*
X63891235Y-140600694D01*
X63908500Y-140446773D01*
X63908500Y-139790231D01*
X63907814Y-139783227D01*
X63896673Y-139669612D01*
X63894080Y-139643167D01*
X63836916Y-139453831D01*
X63744066Y-139279204D01*
X63646268Y-139159292D01*
X63622960Y-139130713D01*
X63622957Y-139130710D01*
X63619065Y-139125938D01*
X63612724Y-139120692D01*
X63471425Y-139003799D01*
X63471421Y-139003797D01*
X63466675Y-138999870D01*
X63292701Y-138905802D01*
X63103768Y-138847318D01*
X63097643Y-138846674D01*
X63097642Y-138846674D01*
X62913204Y-138827289D01*
X62913202Y-138827289D01*
X62907075Y-138826645D01*
X62824576Y-138834153D01*
X62716251Y-138844011D01*
X62716248Y-138844012D01*
X62710112Y-138844570D01*
X62704206Y-138846308D01*
X62704202Y-138846309D01*
X62599076Y-138877249D01*
X62520381Y-138900410D01*
X62514923Y-138903263D01*
X62514919Y-138903265D01*
X62424147Y-138950720D01*
X62345110Y-138992040D01*
X62190975Y-139115968D01*
X62063846Y-139267474D01*
X62060879Y-139272872D01*
X62060875Y-139272877D01*
X61994658Y-139393327D01*
X61968567Y-139440787D01*
X61966706Y-139446654D01*
X61966705Y-139446656D01*
X61913627Y-139613980D01*
X61908765Y-139629306D01*
X61891500Y-139783227D01*
X61891500Y-140439769D01*
X56908500Y-140439769D01*
X56908500Y-139790231D01*
X56907814Y-139783227D01*
X56896673Y-139669612D01*
X56894080Y-139643167D01*
X56836916Y-139453831D01*
X56744066Y-139279204D01*
X56646268Y-139159292D01*
X56622960Y-139130713D01*
X56622957Y-139130710D01*
X56619065Y-139125938D01*
X56612724Y-139120692D01*
X56471425Y-139003799D01*
X56471421Y-139003797D01*
X56466675Y-138999870D01*
X56292701Y-138905802D01*
X56103768Y-138847318D01*
X56097643Y-138846674D01*
X56097642Y-138846674D01*
X55913204Y-138827289D01*
X55913202Y-138827289D01*
X55907075Y-138826645D01*
X55824576Y-138834153D01*
X55716251Y-138844011D01*
X55716248Y-138844012D01*
X55710112Y-138844570D01*
X55704206Y-138846308D01*
X55704202Y-138846309D01*
X55599076Y-138877249D01*
X55520381Y-138900410D01*
X55514923Y-138903263D01*
X55514919Y-138903265D01*
X55424147Y-138950720D01*
X55345110Y-138992040D01*
X55190975Y-139115968D01*
X55063846Y-139267474D01*
X55060879Y-139272872D01*
X55060875Y-139272877D01*
X54994658Y-139393327D01*
X54968567Y-139440787D01*
X54966706Y-139446654D01*
X54966705Y-139446656D01*
X54913627Y-139613980D01*
X54908765Y-139629306D01*
X54891500Y-139783227D01*
X54891500Y-140439769D01*
X54105268Y-140439769D01*
X54090431Y-140380702D01*
X54001354Y-140175840D01*
X53880014Y-139988277D01*
X53729670Y-139823051D01*
X53725619Y-139819852D01*
X53725615Y-139819848D01*
X53558414Y-139687800D01*
X53558410Y-139687798D01*
X53554359Y-139684598D01*
X53513053Y-139661796D01*
X53463084Y-139611364D01*
X53448312Y-139541921D01*
X53473428Y-139475516D01*
X53500780Y-139448909D01*
X53544603Y-139417650D01*
X53679860Y-139321173D01*
X53838096Y-139163489D01*
X53897594Y-139080689D01*
X53965435Y-138986277D01*
X53968453Y-138982077D01*
X54035554Y-138846309D01*
X54065136Y-138786453D01*
X54065137Y-138786451D01*
X54067430Y-138781811D01*
X54123124Y-138598500D01*
X54130865Y-138573023D01*
X54130865Y-138573021D01*
X54132370Y-138568069D01*
X54161529Y-138346590D01*
X54162166Y-138320536D01*
X54163074Y-138283365D01*
X54163074Y-138283361D01*
X54163156Y-138280000D01*
X54144852Y-138057361D01*
X54090431Y-137840702D01*
X54001354Y-137635840D01*
X53889728Y-137463292D01*
X55762608Y-137463292D01*
X55792486Y-137660848D01*
X55861477Y-137848361D01*
X55966765Y-138018172D01*
X56104047Y-138163344D01*
X56267716Y-138277946D01*
X56451086Y-138357298D01*
X56646666Y-138398156D01*
X56651522Y-138398411D01*
X56651561Y-138398413D01*
X56651577Y-138398413D01*
X56653229Y-138398500D01*
X57099934Y-138398500D01*
X57129230Y-138395524D01*
X57242434Y-138384026D01*
X57242438Y-138384025D01*
X57248780Y-138383381D01*
X57354506Y-138350248D01*
X57425491Y-138348963D01*
X57485902Y-138386260D01*
X57493010Y-138394913D01*
X57536739Y-138453261D01*
X57653295Y-138540615D01*
X57789684Y-138591745D01*
X57851866Y-138598500D01*
X58348134Y-138598500D01*
X58356134Y-138597631D01*
X58410316Y-138591745D01*
X58410580Y-138594174D01*
X58439420Y-138594174D01*
X58439684Y-138591745D01*
X58493867Y-138597631D01*
X58501866Y-138598500D01*
X58998134Y-138598500D01*
X59006134Y-138597631D01*
X59060316Y-138591745D01*
X59060580Y-138594174D01*
X59089420Y-138594174D01*
X59089684Y-138591745D01*
X59143867Y-138597631D01*
X59151866Y-138598500D01*
X59648134Y-138598500D01*
X59656134Y-138597631D01*
X59710316Y-138591745D01*
X59710580Y-138594174D01*
X59739420Y-138594174D01*
X59739684Y-138591745D01*
X59793867Y-138597631D01*
X59801866Y-138598500D01*
X60298134Y-138598500D01*
X60306134Y-138597631D01*
X60360316Y-138591745D01*
X60360548Y-138593884D01*
X60389512Y-138593834D01*
X60389793Y-138591252D01*
X60448514Y-138597631D01*
X60455328Y-138598000D01*
X60481885Y-138598000D01*
X60497124Y-138593525D01*
X60498329Y-138592135D01*
X60502054Y-138575009D01*
X60536078Y-138512697D01*
X60549610Y-138500965D01*
X60606080Y-138458643D01*
X60606081Y-138458642D01*
X60613261Y-138453261D01*
X60673175Y-138373319D01*
X60730033Y-138330804D01*
X60800851Y-138325778D01*
X60863145Y-138359838D01*
X60897135Y-138422169D01*
X60900000Y-138448884D01*
X60900000Y-138579884D01*
X60904475Y-138595123D01*
X60905865Y-138596328D01*
X60913548Y-138597999D01*
X60944669Y-138597999D01*
X60951490Y-138597629D01*
X61002352Y-138592105D01*
X61017604Y-138588479D01*
X61138054Y-138543324D01*
X61153649Y-138534786D01*
X61255724Y-138458285D01*
X61268284Y-138445725D01*
X61303696Y-138398474D01*
X61360555Y-138355958D01*
X61431374Y-138350932D01*
X61442621Y-138353936D01*
X61445229Y-138354763D01*
X61451086Y-138357298D01*
X61457330Y-138358602D01*
X61457335Y-138358604D01*
X61562547Y-138380583D01*
X61646666Y-138398156D01*
X61651522Y-138398411D01*
X61651561Y-138398413D01*
X61651577Y-138398413D01*
X61653229Y-138398500D01*
X62099934Y-138398500D01*
X62129230Y-138395524D01*
X62242434Y-138384026D01*
X62242438Y-138384025D01*
X62248780Y-138383381D01*
X62382042Y-138341619D01*
X62433349Y-138325540D01*
X62433350Y-138325539D01*
X62439440Y-138323631D01*
X62466570Y-138308593D01*
X62559669Y-138256987D01*
X62614191Y-138226765D01*
X62765896Y-138096739D01*
X62769805Y-138091700D01*
X62884445Y-137943907D01*
X62884447Y-137943904D01*
X62888357Y-137938863D01*
X62936659Y-137840702D01*
X62973752Y-137765318D01*
X62976571Y-137759589D01*
X63026935Y-137566238D01*
X63037392Y-137366708D01*
X63007514Y-137169152D01*
X62938523Y-136981639D01*
X62833235Y-136811828D01*
X62695953Y-136666656D01*
X62532284Y-136552054D01*
X62348914Y-136472702D01*
X62153334Y-136431844D01*
X62148478Y-136431589D01*
X62148439Y-136431587D01*
X62148423Y-136431587D01*
X62146771Y-136431500D01*
X61700066Y-136431500D01*
X61686933Y-136432834D01*
X61557566Y-136445974D01*
X61557562Y-136445975D01*
X61551220Y-136446619D01*
X61444986Y-136479911D01*
X61374003Y-136481196D01*
X61313592Y-136443899D01*
X61306482Y-136435242D01*
X61268285Y-136384276D01*
X61255724Y-136371715D01*
X61153649Y-136295214D01*
X61138054Y-136286676D01*
X61017606Y-136241522D01*
X61002351Y-136237895D01*
X60951486Y-136232369D01*
X60944672Y-136232000D01*
X60918115Y-136232000D01*
X60902876Y-136236475D01*
X60901671Y-136237865D01*
X60900000Y-136245548D01*
X60900000Y-136381116D01*
X60879998Y-136449237D01*
X60826342Y-136495730D01*
X60756068Y-136505834D01*
X60691488Y-136476340D01*
X60673174Y-136456681D01*
X60663595Y-136443899D01*
X60613261Y-136376739D01*
X60549240Y-136328758D01*
X60506725Y-136271899D01*
X60503909Y-136263430D01*
X60495525Y-136234877D01*
X60494135Y-136233672D01*
X60486452Y-136232001D01*
X60455331Y-136232001D01*
X60448510Y-136232371D01*
X60389793Y-136238748D01*
X60389495Y-136236002D01*
X60360534Y-136236060D01*
X60360295Y-136238253D01*
X60358645Y-136238073D01*
X60358273Y-136238033D01*
X60353560Y-136236074D01*
X60346932Y-136236087D01*
X60344763Y-136235571D01*
X60345446Y-136232701D01*
X60292716Y-136210780D01*
X60252299Y-136152410D01*
X60249856Y-136081455D01*
X60262781Y-136049777D01*
X60309027Y-135969676D01*
X60368042Y-135788048D01*
X60376593Y-135706695D01*
X60387314Y-135604685D01*
X60388004Y-135598120D01*
X60387314Y-135591555D01*
X60368732Y-135414755D01*
X60368732Y-135414753D01*
X60368042Y-135408192D01*
X60364872Y-135398436D01*
X60364811Y-135396311D01*
X60364629Y-135395454D01*
X60364786Y-135395421D01*
X60362844Y-135327469D01*
X60399506Y-135266671D01*
X60463218Y-135235346D01*
X60484705Y-135233500D01*
X61291800Y-135233500D01*
X61359921Y-135253502D01*
X61379147Y-135269843D01*
X61379420Y-135269540D01*
X61384332Y-135273963D01*
X61388747Y-135278866D01*
X61543248Y-135391118D01*
X61549276Y-135393802D01*
X61549278Y-135393803D01*
X61711681Y-135466109D01*
X61717712Y-135468794D01*
X61791932Y-135484570D01*
X61898056Y-135507128D01*
X61898061Y-135507128D01*
X61904513Y-135508500D01*
X62095487Y-135508500D01*
X62101939Y-135507128D01*
X62101944Y-135507128D01*
X62208068Y-135484570D01*
X62282288Y-135468794D01*
X62288319Y-135466109D01*
X62450722Y-135393803D01*
X62450724Y-135393802D01*
X62456752Y-135391118D01*
X62611253Y-135278866D01*
X62619862Y-135269305D01*
X62734621Y-135141852D01*
X62734622Y-135141851D01*
X62739040Y-135136944D01*
X62834527Y-134971556D01*
X62893542Y-134789928D01*
X62900371Y-134724959D01*
X62912814Y-134606565D01*
X62913504Y-134600000D01*
X62907866Y-134546354D01*
X62894232Y-134416635D01*
X62894232Y-134416633D01*
X62893542Y-134410072D01*
X62834527Y-134228444D01*
X62739040Y-134063056D01*
X62722882Y-134045110D01*
X62615675Y-133926045D01*
X62615674Y-133926044D01*
X62611253Y-133921134D01*
X62456752Y-133808882D01*
X62450724Y-133806198D01*
X62450722Y-133806197D01*
X62288319Y-133733891D01*
X62288318Y-133733891D01*
X62282288Y-133731206D01*
X62188887Y-133711353D01*
X62101944Y-133692872D01*
X62101939Y-133692872D01*
X62095487Y-133691500D01*
X61904513Y-133691500D01*
X61898061Y-133692872D01*
X61898056Y-133692872D01*
X61811113Y-133711353D01*
X61717712Y-133731206D01*
X61711682Y-133733891D01*
X61711681Y-133733891D01*
X61549278Y-133806197D01*
X61549276Y-133806198D01*
X61543248Y-133808882D01*
X61388747Y-133921134D01*
X61384332Y-133926037D01*
X61379420Y-133930460D01*
X61378295Y-133929211D01*
X61324986Y-133962051D01*
X61291800Y-133966500D01*
X59278767Y-133966500D01*
X59267584Y-133965973D01*
X59260091Y-133964298D01*
X59252165Y-133964547D01*
X59252164Y-133964547D01*
X59192014Y-133966438D01*
X59188055Y-133966500D01*
X59160144Y-133966500D01*
X59156210Y-133966997D01*
X59156209Y-133966997D01*
X59156144Y-133967005D01*
X59144307Y-133967938D01*
X59112490Y-133968938D01*
X59108029Y-133969078D01*
X59100110Y-133969327D01*
X59082454Y-133974456D01*
X59080658Y-133974978D01*
X59061306Y-133978986D01*
X59054235Y-133979880D01*
X59041203Y-133981526D01*
X59033834Y-133984443D01*
X59033832Y-133984444D01*
X59000097Y-133997800D01*
X58988869Y-134001645D01*
X58946407Y-134013982D01*
X58939584Y-134018017D01*
X58939582Y-134018018D01*
X58928972Y-134024293D01*
X58911224Y-134032988D01*
X58892383Y-134040448D01*
X58885967Y-134045110D01*
X58885966Y-134045110D01*
X58856613Y-134066436D01*
X58846693Y-134072952D01*
X58815465Y-134091420D01*
X58815462Y-134091422D01*
X58808638Y-134095458D01*
X58794317Y-134109779D01*
X58779284Y-134122619D01*
X58762893Y-134134528D01*
X58736516Y-134166413D01*
X58734712Y-134168593D01*
X58726722Y-134177374D01*
X58357741Y-134546354D01*
X58349463Y-134553887D01*
X58342982Y-134558000D01*
X58337555Y-134563779D01*
X58337553Y-134563781D01*
X58296373Y-134607635D01*
X58293617Y-134610479D01*
X58273865Y-134630230D01*
X58271385Y-134633427D01*
X58263682Y-134642447D01*
X58233414Y-134674679D01*
X58229595Y-134681625D01*
X58229593Y-134681628D01*
X58223652Y-134692434D01*
X58212801Y-134708953D01*
X58200386Y-134724959D01*
X58197241Y-134732228D01*
X58197238Y-134732232D01*
X58182826Y-134765537D01*
X58177609Y-134776187D01*
X58156305Y-134814940D01*
X58154334Y-134822615D01*
X58154334Y-134822616D01*
X58151267Y-134834562D01*
X58144863Y-134853266D01*
X58136819Y-134871855D01*
X58135580Y-134879678D01*
X58135577Y-134879688D01*
X58129901Y-134915524D01*
X58127495Y-134927144D01*
X58116500Y-134969970D01*
X58116500Y-134990224D01*
X58114949Y-135009934D01*
X58111780Y-135029943D01*
X58112526Y-135037835D01*
X58115941Y-135073961D01*
X58116500Y-135085819D01*
X58116500Y-136105500D01*
X58096498Y-136173621D01*
X58042842Y-136220114D01*
X57990500Y-136231500D01*
X57851866Y-136231500D01*
X57789684Y-136238255D01*
X57653295Y-136289385D01*
X57536739Y-136376739D01*
X57495796Y-136431370D01*
X57438939Y-136473882D01*
X57368121Y-136478908D01*
X57356873Y-136475904D01*
X57354777Y-136475239D01*
X57348914Y-136472702D01*
X57153334Y-136431844D01*
X57148478Y-136431589D01*
X57148439Y-136431587D01*
X57148423Y-136431587D01*
X57146771Y-136431500D01*
X56700066Y-136431500D01*
X56686933Y-136432834D01*
X56557566Y-136445974D01*
X56557562Y-136445975D01*
X56551220Y-136446619D01*
X56440886Y-136481196D01*
X56366651Y-136504460D01*
X56366650Y-136504461D01*
X56360560Y-136506369D01*
X56354978Y-136509463D01*
X56354976Y-136509464D01*
X56298645Y-136540689D01*
X56185809Y-136603235D01*
X56180960Y-136607391D01*
X56056649Y-136713938D01*
X56034104Y-136733261D01*
X56030197Y-136738298D01*
X56030195Y-136738300D01*
X55915555Y-136886093D01*
X55915553Y-136886096D01*
X55911643Y-136891137D01*
X55908825Y-136896863D01*
X55908823Y-136896867D01*
X55840047Y-137036638D01*
X55823429Y-137070411D01*
X55773065Y-137263762D01*
X55772731Y-137270142D01*
X55764961Y-137418401D01*
X55762608Y-137463292D01*
X53889728Y-137463292D01*
X53880014Y-137448277D01*
X53729670Y-137283051D01*
X53725619Y-137279852D01*
X53725615Y-137279848D01*
X53558414Y-137147800D01*
X53558410Y-137147798D01*
X53554359Y-137144598D01*
X53513053Y-137121796D01*
X53463084Y-137071364D01*
X53448312Y-137001921D01*
X53473428Y-136935516D01*
X53500780Y-136908909D01*
X53544603Y-136877650D01*
X53679860Y-136781173D01*
X53838096Y-136623489D01*
X53897594Y-136540689D01*
X53965435Y-136446277D01*
X53968453Y-136442077D01*
X53973511Y-136431844D01*
X54065136Y-136246453D01*
X54065137Y-136246451D01*
X54067430Y-136241811D01*
X54116150Y-136081455D01*
X54130865Y-136033023D01*
X54130865Y-136033021D01*
X54132370Y-136028069D01*
X54161529Y-135806590D01*
X54161982Y-135788048D01*
X54163074Y-135743365D01*
X54163074Y-135743361D01*
X54163156Y-135740000D01*
X54144852Y-135517361D01*
X54090431Y-135300702D01*
X54001354Y-135095840D01*
X53958723Y-135029943D01*
X53882822Y-134912617D01*
X53882820Y-134912614D01*
X53880014Y-134908277D01*
X53876532Y-134904450D01*
X53732798Y-134746488D01*
X53701746Y-134682642D01*
X53710141Y-134612143D01*
X53755317Y-134557375D01*
X53781761Y-134543706D01*
X53888297Y-134503767D01*
X53896705Y-134500615D01*
X54013261Y-134413261D01*
X54100615Y-134296705D01*
X54151745Y-134160316D01*
X54158500Y-134098134D01*
X54158500Y-132301866D01*
X54151745Y-132239684D01*
X54100615Y-132103295D01*
X54013261Y-131986739D01*
X53896705Y-131899385D01*
X53760316Y-131848255D01*
X53698134Y-131841500D01*
X53559500Y-131841500D01*
X53491379Y-131821498D01*
X53444886Y-131767842D01*
X53433500Y-131715500D01*
X53433500Y-130379093D01*
X53453502Y-130310972D01*
X53507158Y-130264479D01*
X53565279Y-130253226D01*
X53565487Y-130253236D01*
X53568365Y-130253500D01*
X53824955Y-130253500D01*
X54081634Y-130253499D01*
X54084492Y-130253236D01*
X54084501Y-130253236D01*
X54120004Y-130249974D01*
X54155062Y-130246753D01*
X54164198Y-130243890D01*
X54311450Y-130197744D01*
X54311452Y-130197743D01*
X54318699Y-130195472D01*
X54465381Y-130106639D01*
X54586639Y-129985381D01*
X54675472Y-129838699D01*
X54726753Y-129675062D01*
X54733500Y-129601635D01*
X54733499Y-128938366D01*
X54733234Y-128935474D01*
X54727364Y-128871592D01*
X54726753Y-128864938D01*
X54675472Y-128701301D01*
X54586639Y-128554619D01*
X54581263Y-128549243D01*
X54576581Y-128543272D01*
X54578098Y-128542082D01*
X54548879Y-128488573D01*
X54546000Y-128461790D01*
X54546000Y-128278210D01*
X54566002Y-128210089D01*
X54576697Y-128196819D01*
X54576581Y-128196728D01*
X54581263Y-128190757D01*
X54586639Y-128185381D01*
X54675472Y-128038699D01*
X54726753Y-127875062D01*
X54733500Y-127801635D01*
X54733499Y-127138366D01*
X54733234Y-127135474D01*
X54727364Y-127071592D01*
X54726753Y-127064938D01*
X54675472Y-126901301D01*
X54586639Y-126754619D01*
X54581263Y-126749243D01*
X54576581Y-126743272D01*
X54578098Y-126742082D01*
X54548879Y-126688573D01*
X54546000Y-126661790D01*
X54546000Y-126639500D01*
X54566002Y-126571379D01*
X54619658Y-126524886D01*
X54672000Y-126513500D01*
X55600050Y-126513500D01*
X55668171Y-126533502D01*
X55681271Y-126544059D01*
X55681325Y-126543989D01*
X55687584Y-126548844D01*
X55693193Y-126554453D01*
X55700017Y-126558489D01*
X55700020Y-126558491D01*
X55729968Y-126576202D01*
X55836399Y-126639145D01*
X55844010Y-126641356D01*
X55844012Y-126641357D01*
X55896231Y-126656528D01*
X55996169Y-126685562D01*
X56002574Y-126686066D01*
X56002579Y-126686067D01*
X56031042Y-126688307D01*
X56031050Y-126688307D01*
X56033498Y-126688500D01*
X57816502Y-126688500D01*
X57818950Y-126688307D01*
X57818958Y-126688307D01*
X57847421Y-126686067D01*
X57847426Y-126686066D01*
X57853831Y-126685562D01*
X57953769Y-126656528D01*
X58005988Y-126641357D01*
X58005990Y-126641356D01*
X58013601Y-126639145D01*
X58120032Y-126576202D01*
X58149980Y-126558491D01*
X58149983Y-126558489D01*
X58156807Y-126554453D01*
X58274453Y-126436807D01*
X58278489Y-126429983D01*
X58278491Y-126429980D01*
X58355108Y-126300427D01*
X58359145Y-126293601D01*
X58405562Y-126133831D01*
X58408500Y-126096502D01*
X58408500Y-125663498D01*
X58405562Y-125626169D01*
X58359145Y-125466399D01*
X58274453Y-125323193D01*
X58271771Y-125320511D01*
X58246498Y-125256139D01*
X58260400Y-125186516D01*
X58270572Y-125170688D01*
X58274453Y-125166807D01*
X58359145Y-125023601D01*
X58405562Y-124863831D01*
X58408500Y-124826502D01*
X58408500Y-124393498D01*
X58405562Y-124356169D01*
X58359145Y-124196399D01*
X58308960Y-124111541D01*
X58291500Y-124042725D01*
X58314017Y-123975394D01*
X58368728Y-123931432D01*
X58368705Y-123931378D01*
X58368902Y-123931293D01*
X58369361Y-123930924D01*
X58371427Y-123930200D01*
X58375981Y-123928229D01*
X58383593Y-123926018D01*
X58390412Y-123921985D01*
X58390417Y-123921983D01*
X58401028Y-123915707D01*
X58418776Y-123907012D01*
X58437617Y-123899552D01*
X58473387Y-123873564D01*
X58483307Y-123867048D01*
X58514535Y-123848580D01*
X58514538Y-123848578D01*
X58521362Y-123844542D01*
X58535683Y-123830221D01*
X58550717Y-123817380D01*
X58567107Y-123805472D01*
X58595298Y-123771395D01*
X58603288Y-123762616D01*
X59510905Y-122854999D01*
X59573217Y-122820973D01*
X59644032Y-122826038D01*
G37*
%TD.AperFunction*%
%TA.AperFunction,Conductor*%
G36*
X66821121Y-120036002D02*
G01*
X66867614Y-120089658D01*
X66879000Y-120142000D01*
X66879000Y-121196095D01*
X66858998Y-121264216D01*
X66848225Y-121278607D01*
X66830671Y-121298865D01*
X66829000Y-121306548D01*
X66829000Y-122828885D01*
X66833474Y-122844124D01*
X66835512Y-122845889D01*
X66873896Y-122905615D01*
X66879000Y-122941114D01*
X66879000Y-123998000D01*
X66858998Y-124066121D01*
X66805342Y-124112614D01*
X66753000Y-124124000D01*
X66497000Y-124124000D01*
X66428879Y-124103998D01*
X66382386Y-124050342D01*
X66371000Y-123998000D01*
X66371000Y-123111115D01*
X66366526Y-123095876D01*
X66364488Y-123094111D01*
X66326104Y-123034385D01*
X66321000Y-122998886D01*
X66321000Y-121143905D01*
X66341002Y-121075784D01*
X66351775Y-121061393D01*
X66369329Y-121041135D01*
X66371000Y-121033452D01*
X66371000Y-120142000D01*
X66391002Y-120073879D01*
X66444658Y-120027386D01*
X66497000Y-120016000D01*
X66753000Y-120016000D01*
X66821121Y-120036002D01*
G37*
%TD.AperFunction*%
%TA.AperFunction,Conductor*%
G36*
X52371121Y-120036002D02*
G01*
X52417614Y-120089658D01*
X52429000Y-120142000D01*
X52429000Y-121028885D01*
X52433474Y-121044124D01*
X52435512Y-121045889D01*
X52473896Y-121105615D01*
X52479000Y-121141114D01*
X52479000Y-122996095D01*
X52458998Y-123064216D01*
X52448225Y-123078607D01*
X52430671Y-123098865D01*
X52429000Y-123106548D01*
X52429000Y-123998000D01*
X52408998Y-124066121D01*
X52355342Y-124112614D01*
X52303000Y-124124000D01*
X52047000Y-124124000D01*
X51978879Y-124103998D01*
X51932386Y-124050342D01*
X51921000Y-123998000D01*
X51921000Y-122943905D01*
X51941002Y-122875784D01*
X51951775Y-122861393D01*
X51969329Y-122841135D01*
X51971000Y-122833452D01*
X51971000Y-121311115D01*
X51966526Y-121295876D01*
X51964488Y-121294111D01*
X51926104Y-121234385D01*
X51921000Y-121198886D01*
X51921000Y-120142000D01*
X51941002Y-120073879D01*
X51994658Y-120027386D01*
X52047000Y-120016000D01*
X52303000Y-120016000D01*
X52371121Y-120036002D01*
G37*
%TD.AperFunction*%
%TA.AperFunction,Conductor*%
G36*
X53905799Y-112612361D02*
G01*
X53941481Y-112637385D01*
X57929595Y-116625499D01*
X57963621Y-116687811D01*
X57966500Y-116714594D01*
X57966500Y-117326999D01*
X57946498Y-117395120D01*
X57892842Y-117441613D01*
X57830611Y-117452610D01*
X57818976Y-117451694D01*
X57818958Y-117451693D01*
X57816502Y-117451500D01*
X56033498Y-117451500D01*
X56031050Y-117451693D01*
X56031042Y-117451693D01*
X56002579Y-117453933D01*
X56002574Y-117453934D01*
X55996169Y-117454438D01*
X55905068Y-117480905D01*
X55844012Y-117498643D01*
X55844010Y-117498644D01*
X55836399Y-117500855D01*
X55826619Y-117506639D01*
X55796646Y-117524365D01*
X55727829Y-117541825D01*
X55660498Y-117519308D01*
X55643411Y-117505007D01*
X54770404Y-116632000D01*
X54736378Y-116569688D01*
X54733499Y-116542905D01*
X54733499Y-116338366D01*
X54733234Y-116335474D01*
X54727364Y-116271592D01*
X54726753Y-116264938D01*
X54675472Y-116101301D01*
X54586639Y-115954619D01*
X54581263Y-115949243D01*
X54576581Y-115943272D01*
X54578098Y-115942082D01*
X54548879Y-115888573D01*
X54546000Y-115861790D01*
X54546000Y-115678210D01*
X54566002Y-115610089D01*
X54576697Y-115596819D01*
X54576581Y-115596728D01*
X54581263Y-115590757D01*
X54586639Y-115585381D01*
X54675472Y-115438699D01*
X54679609Y-115425500D01*
X54724752Y-115281446D01*
X54726753Y-115275062D01*
X54733500Y-115201635D01*
X54733499Y-114538366D01*
X54733234Y-114535474D01*
X54727364Y-114471592D01*
X54726753Y-114464938D01*
X54675472Y-114301301D01*
X54586639Y-114154619D01*
X54465381Y-114033361D01*
X54318699Y-113944528D01*
X54311452Y-113942257D01*
X54311450Y-113942256D01*
X54245164Y-113921483D01*
X54155062Y-113893247D01*
X54081635Y-113886500D01*
X54078737Y-113886500D01*
X53824335Y-113886501D01*
X53568366Y-113886501D01*
X53565508Y-113886764D01*
X53565499Y-113886764D01*
X53529996Y-113890026D01*
X53494938Y-113893247D01*
X53488560Y-113895246D01*
X53488559Y-113895246D01*
X53338550Y-113942256D01*
X53338548Y-113942257D01*
X53331301Y-113944528D01*
X53184619Y-114033361D01*
X53089095Y-114128885D01*
X53026783Y-114162911D01*
X52955968Y-114157846D01*
X52910905Y-114128885D01*
X52815381Y-114033361D01*
X52683051Y-113953220D01*
X52635144Y-113900823D01*
X52623171Y-113830843D01*
X52650932Y-113765499D01*
X52712114Y-113724758D01*
X52892429Y-113670661D01*
X52892434Y-113670659D01*
X52897384Y-113669174D01*
X53097994Y-113570896D01*
X53279860Y-113441173D01*
X53438096Y-113283489D01*
X53497594Y-113200689D01*
X53565435Y-113106277D01*
X53568453Y-113102077D01*
X53667430Y-112901811D01*
X53731829Y-112689848D01*
X53770768Y-112630487D01*
X53835622Y-112601600D01*
X53905799Y-112612361D01*
G37*
%TD.AperFunction*%
%TA.AperFunction,Conductor*%
G36*
X64396121Y-110741002D02*
G01*
X64442614Y-110794658D01*
X64454000Y-110847000D01*
X64454000Y-111103000D01*
X64433998Y-111171121D01*
X64380342Y-111217614D01*
X64328000Y-111229000D01*
X62872115Y-111229000D01*
X62856876Y-111233475D01*
X62855671Y-111234865D01*
X62854000Y-111242548D01*
X62854000Y-111914885D01*
X62858475Y-111930124D01*
X62859865Y-111931329D01*
X62867548Y-111933000D01*
X62895438Y-111933000D01*
X62901953Y-111932663D01*
X62994057Y-111923106D01*
X63007456Y-111920212D01*
X63156107Y-111870619D01*
X63169286Y-111864445D01*
X63302173Y-111782212D01*
X63319311Y-111768629D01*
X63320756Y-111770452D01*
X63373195Y-111741751D01*
X63444016Y-111746746D01*
X63480920Y-111770414D01*
X63481683Y-111769448D01*
X63498840Y-111782998D01*
X63631880Y-111865004D01*
X63651694Y-111874244D01*
X63651142Y-111875427D01*
X63703244Y-111911521D01*
X63730483Y-111977085D01*
X63717951Y-112046967D01*
X63694314Y-112079781D01*
X60589355Y-115184740D01*
X60527043Y-115218766D01*
X60456228Y-115213701D01*
X60399392Y-115171154D01*
X60386999Y-115149782D01*
X60386018Y-115146407D01*
X60375707Y-115128972D01*
X60367012Y-115111224D01*
X60359552Y-115092383D01*
X60333564Y-115056613D01*
X60327048Y-115046693D01*
X60308580Y-115015465D01*
X60308578Y-115015462D01*
X60304542Y-115008638D01*
X60290221Y-114994317D01*
X60277380Y-114979283D01*
X60270131Y-114969306D01*
X60265472Y-114962893D01*
X60231395Y-114934702D01*
X60222616Y-114926712D01*
X57444000Y-112148095D01*
X57409974Y-112085783D01*
X57415039Y-112014967D01*
X57457586Y-111958132D01*
X57510579Y-111938366D01*
X57510502Y-111938104D01*
X57514170Y-111937027D01*
X57524106Y-111933321D01*
X57527163Y-111933212D01*
X57543124Y-111928525D01*
X57544329Y-111927135D01*
X57546000Y-111919452D01*
X57546000Y-111914885D01*
X58054000Y-111914885D01*
X58058475Y-111930124D01*
X58059865Y-111931329D01*
X58067548Y-111933000D01*
X58095438Y-111933000D01*
X58101953Y-111932663D01*
X58194057Y-111923106D01*
X58207456Y-111920212D01*
X58356107Y-111870619D01*
X58369286Y-111864445D01*
X58502173Y-111782212D01*
X58519311Y-111768629D01*
X58520756Y-111770452D01*
X58573195Y-111741751D01*
X58644016Y-111746746D01*
X58680920Y-111770414D01*
X58681683Y-111769448D01*
X58698840Y-111782998D01*
X58831880Y-111865004D01*
X58845061Y-111871151D01*
X58993814Y-111920491D01*
X59007190Y-111923358D01*
X59098097Y-111932672D01*
X59104513Y-111933000D01*
X59127885Y-111933000D01*
X59143124Y-111928525D01*
X59144329Y-111927135D01*
X59146000Y-111919452D01*
X59146000Y-111914885D01*
X59654000Y-111914885D01*
X59658475Y-111930124D01*
X59659865Y-111931329D01*
X59667548Y-111933000D01*
X59695438Y-111933000D01*
X59701953Y-111932663D01*
X59794057Y-111923106D01*
X59807456Y-111920212D01*
X59956107Y-111870619D01*
X59969286Y-111864445D01*
X60102173Y-111782212D01*
X60119311Y-111768629D01*
X60120756Y-111770452D01*
X60173195Y-111741751D01*
X60244016Y-111746746D01*
X60280920Y-111770414D01*
X60281683Y-111769448D01*
X60298840Y-111782998D01*
X60431880Y-111865004D01*
X60445061Y-111871151D01*
X60593814Y-111920491D01*
X60607190Y-111923358D01*
X60698097Y-111932672D01*
X60704513Y-111933000D01*
X60727885Y-111933000D01*
X60743124Y-111928525D01*
X60744329Y-111927135D01*
X60746000Y-111919452D01*
X60746000Y-111914885D01*
X61254000Y-111914885D01*
X61258475Y-111930124D01*
X61259865Y-111931329D01*
X61267548Y-111933000D01*
X61295438Y-111933000D01*
X61301953Y-111932663D01*
X61394057Y-111923106D01*
X61407456Y-111920212D01*
X61556107Y-111870619D01*
X61569286Y-111864445D01*
X61702173Y-111782212D01*
X61719311Y-111768629D01*
X61720756Y-111770452D01*
X61773195Y-111741751D01*
X61844016Y-111746746D01*
X61880920Y-111770414D01*
X61881683Y-111769448D01*
X61898840Y-111782998D01*
X62031880Y-111865004D01*
X62045061Y-111871151D01*
X62193814Y-111920491D01*
X62207190Y-111923358D01*
X62298097Y-111932672D01*
X62304513Y-111933000D01*
X62327885Y-111933000D01*
X62343124Y-111928525D01*
X62344329Y-111927135D01*
X62346000Y-111919452D01*
X62346000Y-111247115D01*
X62341525Y-111231876D01*
X62340135Y-111230671D01*
X62332452Y-111229000D01*
X61272115Y-111229000D01*
X61256876Y-111233475D01*
X61255671Y-111234865D01*
X61254000Y-111242548D01*
X61254000Y-111914885D01*
X60746000Y-111914885D01*
X60746000Y-111247115D01*
X60741525Y-111231876D01*
X60740135Y-111230671D01*
X60732452Y-111229000D01*
X59672115Y-111229000D01*
X59656876Y-111233475D01*
X59655671Y-111234865D01*
X59654000Y-111242548D01*
X59654000Y-111914885D01*
X59146000Y-111914885D01*
X59146000Y-111247115D01*
X59141525Y-111231876D01*
X59140135Y-111230671D01*
X59132452Y-111229000D01*
X58072115Y-111229000D01*
X58056876Y-111233475D01*
X58055671Y-111234865D01*
X58054000Y-111242548D01*
X58054000Y-111914885D01*
X57546000Y-111914885D01*
X57546000Y-110847000D01*
X57566002Y-110778879D01*
X57619658Y-110732386D01*
X57672000Y-110721000D01*
X64328000Y-110721000D01*
X64396121Y-110741002D01*
G37*
%TD.AperFunction*%
%TA.AperFunction,Conductor*%
G36*
X65393100Y-100503502D02*
G01*
X65439593Y-100557158D01*
X65449697Y-100627432D01*
X65420203Y-100692012D01*
X65414156Y-100698513D01*
X65370448Y-100742298D01*
X65366608Y-100748528D01*
X65366607Y-100748529D01*
X65327013Y-100812763D01*
X65280698Y-100887899D01*
X65226851Y-101050243D01*
X65216500Y-101151268D01*
X65216500Y-101698732D01*
X65227113Y-101801019D01*
X65281244Y-101963268D01*
X65285096Y-101969492D01*
X65285096Y-101969493D01*
X65334269Y-102048955D01*
X65371248Y-102108713D01*
X65376430Y-102113886D01*
X65380977Y-102119623D01*
X65379170Y-102121055D01*
X65407902Y-102173575D01*
X65402892Y-102244395D01*
X65379501Y-102280853D01*
X65380552Y-102281683D01*
X65367002Y-102298840D01*
X65284996Y-102431880D01*
X65278849Y-102445061D01*
X65229509Y-102593814D01*
X65226642Y-102607190D01*
X65217328Y-102698097D01*
X65217071Y-102703126D01*
X65221475Y-102718124D01*
X65222865Y-102719329D01*
X65230548Y-102721000D01*
X66328000Y-102721000D01*
X66396121Y-102741002D01*
X66442614Y-102794658D01*
X66454000Y-102847000D01*
X66454000Y-103914885D01*
X66458475Y-103930124D01*
X66459865Y-103931329D01*
X66467548Y-103933000D01*
X66495438Y-103933000D01*
X66501953Y-103932663D01*
X66594057Y-103923106D01*
X66607456Y-103920212D01*
X66756107Y-103870619D01*
X66769286Y-103864445D01*
X66902173Y-103782212D01*
X66913574Y-103773176D01*
X67023986Y-103662571D01*
X67032998Y-103651160D01*
X67083240Y-103569652D01*
X67136012Y-103522159D01*
X67206084Y-103510735D01*
X67271208Y-103539009D01*
X67310707Y-103598003D01*
X67316500Y-103635768D01*
X67316500Y-106140625D01*
X67296498Y-106208746D01*
X67242842Y-106255239D01*
X67172568Y-106265343D01*
X67129607Y-106250934D01*
X66987905Y-106172711D01*
X66958789Y-106156638D01*
X66953920Y-106154914D01*
X66953916Y-106154912D01*
X66753087Y-106083795D01*
X66753083Y-106083794D01*
X66748212Y-106082069D01*
X66743119Y-106081162D01*
X66743116Y-106081161D01*
X66533373Y-106043800D01*
X66533367Y-106043799D01*
X66528284Y-106042894D01*
X66454452Y-106041992D01*
X66310081Y-106040228D01*
X66310079Y-106040228D01*
X66304911Y-106040165D01*
X66084091Y-106073955D01*
X65871756Y-106143357D01*
X65815368Y-106172711D01*
X65684509Y-106240832D01*
X65673607Y-106246507D01*
X65669474Y-106249610D01*
X65669471Y-106249612D01*
X65499100Y-106377530D01*
X65494965Y-106380635D01*
X65340629Y-106542138D01*
X65303598Y-106596424D01*
X65248689Y-106641424D01*
X65178165Y-106649595D01*
X65110417Y-106614512D01*
X64570686Y-106074781D01*
X64536660Y-106012469D01*
X64541725Y-105941654D01*
X64583076Y-105885724D01*
X64641157Y-105841157D01*
X64734686Y-105719267D01*
X64793481Y-105577324D01*
X64808500Y-105463244D01*
X64808500Y-105236756D01*
X64793481Y-105122676D01*
X64795026Y-105122473D01*
X64795026Y-105077527D01*
X64793481Y-105077324D01*
X64807962Y-104967331D01*
X64807962Y-104967330D01*
X64808500Y-104963244D01*
X64808500Y-104736756D01*
X64793481Y-104622676D01*
X64795026Y-104622473D01*
X64795026Y-104577527D01*
X64793481Y-104577324D01*
X64807962Y-104467331D01*
X64807962Y-104467330D01*
X64808500Y-104463244D01*
X64808500Y-104236756D01*
X64793481Y-104122676D01*
X64795026Y-104122473D01*
X64795026Y-104077527D01*
X64793481Y-104077324D01*
X64807962Y-103967331D01*
X64807962Y-103967330D01*
X64808500Y-103963244D01*
X64808500Y-103736756D01*
X64793481Y-103622676D01*
X64795026Y-103622473D01*
X64795026Y-103577527D01*
X64793481Y-103577324D01*
X64807962Y-103467331D01*
X64807962Y-103467330D01*
X64808500Y-103463244D01*
X64808500Y-103245438D01*
X65217000Y-103245438D01*
X65217337Y-103251953D01*
X65226894Y-103344057D01*
X65229788Y-103357456D01*
X65279381Y-103506107D01*
X65285555Y-103519286D01*
X65367788Y-103652173D01*
X65376824Y-103663574D01*
X65487429Y-103773986D01*
X65498840Y-103782998D01*
X65631880Y-103865004D01*
X65645061Y-103871151D01*
X65793814Y-103920491D01*
X65807190Y-103923358D01*
X65898097Y-103932672D01*
X65904513Y-103933000D01*
X65927885Y-103933000D01*
X65943124Y-103928525D01*
X65944329Y-103927135D01*
X65946000Y-103919452D01*
X65946000Y-103247115D01*
X65941525Y-103231876D01*
X65940135Y-103230671D01*
X65932452Y-103229000D01*
X65235115Y-103229000D01*
X65219876Y-103233475D01*
X65218671Y-103234865D01*
X65217000Y-103242548D01*
X65217000Y-103245438D01*
X64808500Y-103245438D01*
X64808500Y-103236756D01*
X64793481Y-103122676D01*
X64795026Y-103122473D01*
X64795026Y-103077527D01*
X64793481Y-103077324D01*
X64807962Y-102967331D01*
X64807962Y-102967330D01*
X64808500Y-102963244D01*
X64808500Y-102736756D01*
X64793481Y-102622676D01*
X64795026Y-102622473D01*
X64795026Y-102577527D01*
X64793481Y-102577324D01*
X64807962Y-102467331D01*
X64807962Y-102467330D01*
X64808500Y-102463244D01*
X64808500Y-102236756D01*
X64793481Y-102122676D01*
X64795026Y-102122473D01*
X64795026Y-102077527D01*
X64793481Y-102077324D01*
X64807962Y-101967331D01*
X64807962Y-101967330D01*
X64808500Y-101963244D01*
X64808500Y-101736756D01*
X64793481Y-101622676D01*
X64795026Y-101622473D01*
X64795026Y-101577527D01*
X64793481Y-101577324D01*
X64807962Y-101467331D01*
X64807962Y-101467330D01*
X64808500Y-101463244D01*
X64808500Y-101236756D01*
X64793481Y-101122676D01*
X64795026Y-101122473D01*
X64795026Y-101077527D01*
X64793481Y-101077324D01*
X64807962Y-100967331D01*
X64807962Y-100967330D01*
X64808500Y-100963244D01*
X64808500Y-100736756D01*
X64803466Y-100698518D01*
X64793912Y-100625946D01*
X64804852Y-100555797D01*
X64851980Y-100502699D01*
X64918834Y-100483500D01*
X65324979Y-100483500D01*
X65393100Y-100503502D01*
G37*
%TD.AperFunction*%
%TA.AperFunction,Conductor*%
G36*
X60794212Y-105003502D02*
G01*
X60815186Y-105020405D01*
X61098676Y-105303895D01*
X61132702Y-105366207D01*
X61127637Y-105437022D01*
X61085090Y-105493858D01*
X61026028Y-105517912D01*
X60949490Y-105527989D01*
X60922677Y-105531519D01*
X60922474Y-105529974D01*
X60877527Y-105529974D01*
X60877324Y-105531519D01*
X60767331Y-105517038D01*
X60767330Y-105517038D01*
X60763244Y-105516500D01*
X60536756Y-105516500D01*
X60532670Y-105517038D01*
X60532669Y-105517038D01*
X60422676Y-105531519D01*
X60422473Y-105529974D01*
X60377527Y-105529974D01*
X60377324Y-105531519D01*
X60267331Y-105517038D01*
X60267330Y-105517038D01*
X60263244Y-105516500D01*
X60036756Y-105516500D01*
X60032670Y-105517038D01*
X60032669Y-105517038D01*
X59922676Y-105531519D01*
X59922507Y-105530234D01*
X59877427Y-105530235D01*
X59877194Y-105532006D01*
X59817960Y-105524208D01*
X59803778Y-105526419D01*
X59798217Y-105545784D01*
X59760189Y-105605737D01*
X59753816Y-105610967D01*
X59726704Y-105631771D01*
X59660484Y-105657372D01*
X59590935Y-105643108D01*
X59573295Y-105631771D01*
X59546092Y-105610897D01*
X59504225Y-105553558D01*
X59501901Y-105546433D01*
X59495956Y-105526187D01*
X59482417Y-105524158D01*
X59422806Y-105532006D01*
X59422573Y-105530235D01*
X59377493Y-105530234D01*
X59377324Y-105531519D01*
X59267331Y-105517038D01*
X59267330Y-105517038D01*
X59263244Y-105516500D01*
X59036756Y-105516500D01*
X59032670Y-105517038D01*
X59032669Y-105517038D01*
X58922676Y-105531519D01*
X58922473Y-105529974D01*
X58877527Y-105529974D01*
X58877324Y-105531519D01*
X58810995Y-105522787D01*
X58746069Y-105494065D01*
X58718399Y-105455538D01*
X58716287Y-105456699D01*
X58712473Y-105449760D01*
X58709552Y-105442383D01*
X58683564Y-105406613D01*
X58677048Y-105396693D01*
X58667840Y-105381123D01*
X58654542Y-105358638D01*
X58648936Y-105353031D01*
X58640220Y-105344315D01*
X58627379Y-105329281D01*
X58620131Y-105319305D01*
X58620130Y-105319304D01*
X58615472Y-105312893D01*
X58581407Y-105284712D01*
X58572627Y-105276722D01*
X58494500Y-105198595D01*
X58460474Y-105136283D01*
X58465539Y-105065468D01*
X58508086Y-105008632D01*
X58574606Y-104983821D01*
X58583595Y-104983500D01*
X60726091Y-104983500D01*
X60794212Y-105003502D01*
G37*
%TD.AperFunction*%
%TA.AperFunction,Conductor*%
G36*
X57209065Y-99556892D02*
G01*
X57226705Y-99568229D01*
X57253908Y-99589103D01*
X57295775Y-99646442D01*
X57298099Y-99653567D01*
X57304044Y-99673813D01*
X57317583Y-99675842D01*
X57377194Y-99667994D01*
X57377427Y-99669765D01*
X57422507Y-99669766D01*
X57422676Y-99668481D01*
X57532669Y-99682962D01*
X57532670Y-99682962D01*
X57536756Y-99683500D01*
X57763244Y-99683500D01*
X57767330Y-99682962D01*
X57767331Y-99682962D01*
X57877324Y-99668481D01*
X57877527Y-99670026D01*
X57922473Y-99670026D01*
X57922676Y-99668481D01*
X58032669Y-99682962D01*
X58032670Y-99682962D01*
X58036756Y-99683500D01*
X58263244Y-99683500D01*
X58267330Y-99682962D01*
X58267331Y-99682962D01*
X58377324Y-99668481D01*
X58377527Y-99670026D01*
X58422473Y-99670026D01*
X58422676Y-99668481D01*
X58532669Y-99682962D01*
X58532670Y-99682962D01*
X58536756Y-99683500D01*
X58763244Y-99683500D01*
X58767330Y-99682962D01*
X58767331Y-99682962D01*
X58877324Y-99668481D01*
X58877527Y-99670026D01*
X58922473Y-99670026D01*
X58922676Y-99668481D01*
X59032669Y-99682962D01*
X59032670Y-99682962D01*
X59036756Y-99683500D01*
X59263244Y-99683500D01*
X59267330Y-99682962D01*
X59267331Y-99682962D01*
X59377324Y-99668481D01*
X59377527Y-99670026D01*
X59422473Y-99670026D01*
X59422676Y-99668481D01*
X59532669Y-99682962D01*
X59532670Y-99682962D01*
X59536756Y-99683500D01*
X59763244Y-99683500D01*
X59767330Y-99682962D01*
X59767331Y-99682962D01*
X59877324Y-99668481D01*
X59877527Y-99670026D01*
X59922473Y-99670026D01*
X59922676Y-99668481D01*
X60032669Y-99682962D01*
X60032670Y-99682962D01*
X60036756Y-99683500D01*
X60263244Y-99683500D01*
X60267330Y-99682962D01*
X60267331Y-99682962D01*
X60377324Y-99668481D01*
X60377527Y-99670026D01*
X60422473Y-99670026D01*
X60422676Y-99668481D01*
X60532669Y-99682962D01*
X60532670Y-99682962D01*
X60536756Y-99683500D01*
X60763244Y-99683500D01*
X60767330Y-99682962D01*
X60767331Y-99682962D01*
X60877324Y-99668481D01*
X60877527Y-99670026D01*
X60922473Y-99670026D01*
X60922676Y-99668481D01*
X61032669Y-99682962D01*
X61032670Y-99682962D01*
X61036756Y-99683500D01*
X61263244Y-99683500D01*
X61267330Y-99682962D01*
X61267331Y-99682962D01*
X61377324Y-99668481D01*
X61377527Y-99670026D01*
X61422473Y-99670026D01*
X61422676Y-99668481D01*
X61532669Y-99682962D01*
X61532670Y-99682962D01*
X61536756Y-99683500D01*
X61763244Y-99683500D01*
X61767330Y-99682962D01*
X61767331Y-99682962D01*
X61877324Y-99668481D01*
X61877527Y-99670026D01*
X61922473Y-99670026D01*
X61922676Y-99668481D01*
X62032669Y-99682962D01*
X62032670Y-99682962D01*
X62036756Y-99683500D01*
X62190500Y-99683500D01*
X62258621Y-99703502D01*
X62305114Y-99757158D01*
X62316500Y-99809500D01*
X62316500Y-99963244D01*
X62317038Y-99967330D01*
X62317038Y-99967331D01*
X62331088Y-100074054D01*
X62320148Y-100144203D01*
X62273020Y-100197301D01*
X62206166Y-100216500D01*
X62028767Y-100216500D01*
X62017584Y-100215973D01*
X62010091Y-100214298D01*
X62002165Y-100214547D01*
X62002164Y-100214547D01*
X61942014Y-100216438D01*
X61938055Y-100216500D01*
X61910144Y-100216500D01*
X61906210Y-100216997D01*
X61906209Y-100216997D01*
X61906144Y-100217005D01*
X61894307Y-100217938D01*
X61862490Y-100218938D01*
X61858029Y-100219078D01*
X61850110Y-100219327D01*
X61832454Y-100224456D01*
X61830658Y-100224978D01*
X61811306Y-100228986D01*
X61804235Y-100229880D01*
X61791203Y-100231526D01*
X61783834Y-100234443D01*
X61783832Y-100234444D01*
X61750097Y-100247800D01*
X61738869Y-100251645D01*
X61696407Y-100263982D01*
X61689585Y-100268016D01*
X61689579Y-100268019D01*
X61678968Y-100274294D01*
X61661218Y-100282990D01*
X61649756Y-100287528D01*
X61649751Y-100287531D01*
X61642383Y-100290448D01*
X61635968Y-100295109D01*
X61606625Y-100316427D01*
X61596707Y-100322943D01*
X61578019Y-100333995D01*
X61558637Y-100345458D01*
X61544313Y-100359782D01*
X61529281Y-100372621D01*
X61512893Y-100384528D01*
X61484712Y-100418593D01*
X61476722Y-100427373D01*
X61249500Y-100654595D01*
X61187188Y-100688621D01*
X61160405Y-100691500D01*
X61104513Y-100691500D01*
X61098061Y-100692872D01*
X61098056Y-100692872D01*
X61011112Y-100711353D01*
X60917712Y-100731206D01*
X60911682Y-100733891D01*
X60911681Y-100733891D01*
X60749278Y-100806197D01*
X60749276Y-100806198D01*
X60743248Y-100808882D01*
X60588747Y-100921134D01*
X60460960Y-101063056D01*
X60365473Y-101228444D01*
X60306458Y-101410072D01*
X60286496Y-101600000D01*
X60287186Y-101606565D01*
X60297215Y-101701982D01*
X60306458Y-101789928D01*
X60365473Y-101971556D01*
X60460960Y-102136944D01*
X60465378Y-102141851D01*
X60465379Y-102141852D01*
X60547151Y-102232669D01*
X60588747Y-102278866D01*
X60743248Y-102391118D01*
X60749276Y-102393802D01*
X60749278Y-102393803D01*
X60895988Y-102459122D01*
X60917712Y-102468794D01*
X61011113Y-102488647D01*
X61098056Y-102507128D01*
X61098061Y-102507128D01*
X61104513Y-102508500D01*
X61131955Y-102508500D01*
X61200076Y-102528502D01*
X61246569Y-102582158D01*
X61256673Y-102652432D01*
X61241074Y-102697499D01*
X61165473Y-102828444D01*
X61106458Y-103010072D01*
X61105768Y-103016633D01*
X61105768Y-103016635D01*
X61099368Y-103077527D01*
X61086496Y-103200000D01*
X61087186Y-103206565D01*
X61101234Y-103340221D01*
X61106458Y-103389928D01*
X61157956Y-103548421D01*
X61159984Y-103619387D01*
X61123321Y-103680185D01*
X61059609Y-103711510D01*
X61049982Y-103712797D01*
X61033929Y-103714315D01*
X61016722Y-103715941D01*
X61004866Y-103716500D01*
X56593834Y-103716500D01*
X56525713Y-103696498D01*
X56479220Y-103642842D01*
X56468912Y-103574054D01*
X56482962Y-103467331D01*
X56482962Y-103467330D01*
X56483500Y-103463244D01*
X56483500Y-103459122D01*
X56483770Y-103455003D01*
X56484914Y-103455078D01*
X56503502Y-103391773D01*
X56532270Y-103360337D01*
X56534537Y-103358578D01*
X56541362Y-103354542D01*
X56555683Y-103340221D01*
X56570717Y-103327380D01*
X56580693Y-103320132D01*
X56587107Y-103315472D01*
X56615293Y-103281401D01*
X56623282Y-103272622D01*
X56750499Y-103145405D01*
X56812811Y-103111379D01*
X56839594Y-103108500D01*
X56895487Y-103108500D01*
X56901939Y-103107128D01*
X56901944Y-103107128D01*
X56988888Y-103088647D01*
X57082288Y-103068794D01*
X57199440Y-103016635D01*
X57250722Y-102993803D01*
X57250724Y-102993802D01*
X57256752Y-102991118D01*
X57411253Y-102878866D01*
X57539040Y-102736944D01*
X57634527Y-102571556D01*
X57693542Y-102389928D01*
X57694345Y-102382293D01*
X57712814Y-102206565D01*
X57713504Y-102200000D01*
X57708911Y-102156301D01*
X57694232Y-102016635D01*
X57694232Y-102016633D01*
X57693542Y-102010072D01*
X57634527Y-101828444D01*
X57539040Y-101663056D01*
X57462030Y-101577527D01*
X57415675Y-101526045D01*
X57415674Y-101526044D01*
X57411253Y-101521134D01*
X57256752Y-101408882D01*
X57250724Y-101406198D01*
X57250722Y-101406197D01*
X57088319Y-101333891D01*
X57088318Y-101333891D01*
X57082288Y-101331206D01*
X56988888Y-101311353D01*
X56901944Y-101292872D01*
X56901939Y-101292872D01*
X56895487Y-101291500D01*
X56704513Y-101291500D01*
X56698061Y-101292872D01*
X56698056Y-101292872D01*
X56629855Y-101307369D01*
X56559064Y-101301967D01*
X56502431Y-101259150D01*
X56478736Y-101200569D01*
X56468481Y-101122677D01*
X56470026Y-101122474D01*
X56470026Y-101077527D01*
X56468481Y-101077324D01*
X56482962Y-100967331D01*
X56482962Y-100967330D01*
X56483500Y-100963244D01*
X56483500Y-100736756D01*
X56475444Y-100675561D01*
X56468481Y-100622676D01*
X56470026Y-100622473D01*
X56470026Y-100577527D01*
X56468481Y-100577324D01*
X56482962Y-100467331D01*
X56482962Y-100467330D01*
X56483500Y-100463244D01*
X56483500Y-100236756D01*
X56482812Y-100231526D01*
X56468481Y-100122676D01*
X56470026Y-100122473D01*
X56470026Y-100077527D01*
X56468481Y-100077324D01*
X56482962Y-99967331D01*
X56482962Y-99967330D01*
X56483500Y-99963244D01*
X56483500Y-99809500D01*
X56503502Y-99741379D01*
X56557158Y-99694886D01*
X56609500Y-99683500D01*
X56763244Y-99683500D01*
X56767330Y-99682962D01*
X56767331Y-99682962D01*
X56877324Y-99668481D01*
X56877493Y-99669766D01*
X56922573Y-99669765D01*
X56922806Y-99667994D01*
X56982040Y-99675792D01*
X56996222Y-99673581D01*
X57001783Y-99654216D01*
X57039811Y-99594263D01*
X57046184Y-99589033D01*
X57073296Y-99568229D01*
X57139516Y-99542628D01*
X57209065Y-99556892D01*
G37*
%TD.AperFunction*%
%TA.AperFunction,Conductor*%
G36*
X66308621Y-95588502D02*
G01*
X66355114Y-95642158D01*
X66366500Y-95694500D01*
X66366500Y-98153000D01*
X66346498Y-98221121D01*
X66292842Y-98267614D01*
X66240500Y-98279000D01*
X65235115Y-98279000D01*
X65219876Y-98283475D01*
X65218671Y-98284865D01*
X65217000Y-98292548D01*
X65217000Y-98295438D01*
X65217337Y-98301953D01*
X65226894Y-98394057D01*
X65229788Y-98407456D01*
X65279381Y-98556107D01*
X65285555Y-98569286D01*
X65367788Y-98702173D01*
X65381371Y-98719311D01*
X65379441Y-98720841D01*
X65407903Y-98772880D01*
X65402887Y-98843699D01*
X65379201Y-98880617D01*
X65380157Y-98881372D01*
X65375619Y-98887118D01*
X65370448Y-98892298D01*
X65280698Y-99037899D01*
X65255481Y-99113925D01*
X65250094Y-99130167D01*
X65209663Y-99188527D01*
X65144099Y-99215764D01*
X65130501Y-99216500D01*
X64426485Y-99216500D01*
X64393440Y-99209930D01*
X64392934Y-99211817D01*
X64384949Y-99209678D01*
X64377324Y-99206519D01*
X64369140Y-99205442D01*
X64369138Y-99205441D01*
X64267331Y-99192038D01*
X64267330Y-99192038D01*
X64263244Y-99191500D01*
X62934500Y-99191500D01*
X62866379Y-99171498D01*
X62819886Y-99117842D01*
X62808500Y-99065500D01*
X62808500Y-98739594D01*
X62828502Y-98671473D01*
X62845405Y-98650499D01*
X63742778Y-97753126D01*
X65217071Y-97753126D01*
X65221475Y-97768124D01*
X65222865Y-97769329D01*
X65230548Y-97771000D01*
X65927885Y-97771000D01*
X65943124Y-97766525D01*
X65944329Y-97765135D01*
X65946000Y-97757452D01*
X65946000Y-97085115D01*
X65941525Y-97069876D01*
X65940135Y-97068671D01*
X65932452Y-97067000D01*
X65904562Y-97067000D01*
X65898047Y-97067337D01*
X65805943Y-97076894D01*
X65792544Y-97079788D01*
X65643893Y-97129381D01*
X65630714Y-97135555D01*
X65497827Y-97217788D01*
X65486426Y-97226824D01*
X65376014Y-97337429D01*
X65367002Y-97348840D01*
X65284996Y-97481880D01*
X65278849Y-97495061D01*
X65229509Y-97643814D01*
X65226642Y-97657190D01*
X65217328Y-97748097D01*
X65217071Y-97753126D01*
X63742778Y-97753126D01*
X65392253Y-96103652D01*
X65400539Y-96096112D01*
X65407018Y-96092000D01*
X65453644Y-96042348D01*
X65456398Y-96039507D01*
X65476135Y-96019770D01*
X65478615Y-96016573D01*
X65486320Y-96007551D01*
X65511159Y-95981100D01*
X65516586Y-95975321D01*
X65520405Y-95968375D01*
X65520407Y-95968372D01*
X65526348Y-95957566D01*
X65537199Y-95941047D01*
X65544758Y-95931301D01*
X65549614Y-95925041D01*
X65552759Y-95917772D01*
X65552762Y-95917768D01*
X65567174Y-95884463D01*
X65572391Y-95873813D01*
X65593695Y-95835060D01*
X65598733Y-95815437D01*
X65605137Y-95796734D01*
X65610033Y-95785420D01*
X65610033Y-95785419D01*
X65613181Y-95778145D01*
X65614420Y-95770322D01*
X65614423Y-95770312D01*
X65620099Y-95734476D01*
X65622505Y-95722856D01*
X65631528Y-95687711D01*
X65631528Y-95687710D01*
X65633500Y-95680030D01*
X65633500Y-95676796D01*
X65661046Y-95613634D01*
X65720104Y-95574231D01*
X65757672Y-95568500D01*
X66240500Y-95568500D01*
X66308621Y-95588502D01*
G37*
%TD.AperFunction*%
%TA.AperFunction,Conductor*%
G36*
X55017012Y-91913371D02*
G01*
X55023595Y-91919500D01*
X55096348Y-91992253D01*
X55103888Y-92000539D01*
X55108000Y-92007018D01*
X55113777Y-92012443D01*
X55157651Y-92053643D01*
X55160493Y-92056398D01*
X55180230Y-92076135D01*
X55183427Y-92078615D01*
X55192447Y-92086318D01*
X55224679Y-92116586D01*
X55231625Y-92120405D01*
X55231628Y-92120407D01*
X55242434Y-92126348D01*
X55258953Y-92137199D01*
X55274959Y-92149614D01*
X55282228Y-92152759D01*
X55282232Y-92152762D01*
X55315537Y-92167174D01*
X55326187Y-92172391D01*
X55364940Y-92193695D01*
X55372615Y-92195666D01*
X55372616Y-92195666D01*
X55384562Y-92198733D01*
X55403267Y-92205137D01*
X55421855Y-92213181D01*
X55429678Y-92214420D01*
X55429688Y-92214423D01*
X55465524Y-92220099D01*
X55477144Y-92222505D01*
X55512289Y-92231528D01*
X55519970Y-92233500D01*
X55540224Y-92233500D01*
X55559934Y-92235051D01*
X55579943Y-92238220D01*
X55587835Y-92237474D01*
X55623961Y-92234059D01*
X55635819Y-92233500D01*
X56327868Y-92233500D01*
X56395989Y-92253502D01*
X56416963Y-92270405D01*
X57419436Y-93272878D01*
X57453462Y-93335190D01*
X57448397Y-93406005D01*
X57405850Y-93462841D01*
X57368020Y-93482207D01*
X57238757Y-93522715D01*
X57225012Y-93528921D01*
X57091426Y-93609824D01*
X57073585Y-93623814D01*
X57072378Y-93622275D01*
X57018956Y-93651446D01*
X56948141Y-93646381D01*
X56914079Y-93627206D01*
X56901156Y-93617000D01*
X56768120Y-93534996D01*
X56754939Y-93528849D01*
X56606186Y-93479509D01*
X56592810Y-93476642D01*
X56501903Y-93467328D01*
X56495486Y-93467000D01*
X56472115Y-93467000D01*
X56456876Y-93471475D01*
X56455671Y-93472865D01*
X56454000Y-93480548D01*
X56454000Y-94152885D01*
X56458475Y-94168124D01*
X56459865Y-94169329D01*
X56467548Y-94171000D01*
X56758885Y-94171000D01*
X56774124Y-94166526D01*
X56775889Y-94164488D01*
X56835615Y-94126104D01*
X56871114Y-94121000D01*
X57928000Y-94121000D01*
X57996121Y-94141002D01*
X58042614Y-94194658D01*
X58054000Y-94247000D01*
X58054000Y-94503000D01*
X58033998Y-94571121D01*
X57980342Y-94617614D01*
X57928000Y-94629000D01*
X57241115Y-94629000D01*
X57225876Y-94633474D01*
X57224111Y-94635512D01*
X57164385Y-94673896D01*
X57128886Y-94679000D01*
X56072000Y-94679000D01*
X56003879Y-94658998D01*
X55957386Y-94605342D01*
X55946000Y-94553000D01*
X55946000Y-93485115D01*
X55941525Y-93469876D01*
X55940135Y-93468671D01*
X55932452Y-93467000D01*
X55904562Y-93467000D01*
X55898047Y-93467337D01*
X55805943Y-93476894D01*
X55792544Y-93479788D01*
X55643893Y-93529381D01*
X55630714Y-93535555D01*
X55497827Y-93617788D01*
X55486426Y-93626824D01*
X55376014Y-93737429D01*
X55367002Y-93748840D01*
X55312656Y-93837006D01*
X55259884Y-93884499D01*
X55189812Y-93895923D01*
X55179198Y-93894136D01*
X55114451Y-93880373D01*
X55114442Y-93880372D01*
X55107987Y-93879000D01*
X54934500Y-93879000D01*
X54866379Y-93858998D01*
X54819886Y-93805342D01*
X54808500Y-93753000D01*
X54808500Y-92008595D01*
X54828502Y-91940474D01*
X54882158Y-91893981D01*
X54952432Y-91883877D01*
X55017012Y-91913371D01*
G37*
%TD.AperFunction*%
%TA.AperFunction,Conductor*%
G36*
X58978526Y-90078502D02*
G01*
X58999501Y-90095405D01*
X59371353Y-90467258D01*
X59378887Y-90475537D01*
X59383000Y-90482018D01*
X59393367Y-90491753D01*
X59432651Y-90528643D01*
X59435493Y-90531398D01*
X59455230Y-90551135D01*
X59458427Y-90553615D01*
X59467447Y-90561318D01*
X59499679Y-90591586D01*
X59506625Y-90595405D01*
X59506628Y-90595407D01*
X59517434Y-90601348D01*
X59533953Y-90612199D01*
X59549959Y-90624614D01*
X59557228Y-90627759D01*
X59557232Y-90627762D01*
X59590537Y-90642174D01*
X59601187Y-90647391D01*
X59639940Y-90668695D01*
X59647615Y-90670666D01*
X59647616Y-90670666D01*
X59659562Y-90673733D01*
X59678266Y-90680137D01*
X59685696Y-90683352D01*
X59696855Y-90688181D01*
X59704678Y-90689420D01*
X59704688Y-90689423D01*
X59740524Y-90695099D01*
X59752144Y-90697505D01*
X59787289Y-90706528D01*
X59794970Y-90708500D01*
X59815224Y-90708500D01*
X59834934Y-90710051D01*
X59854943Y-90713220D01*
X59862835Y-90712474D01*
X59898961Y-90709059D01*
X59910819Y-90708500D01*
X60864361Y-90708500D01*
X60932482Y-90728502D01*
X60978975Y-90782158D01*
X60989919Y-90823957D01*
X60999381Y-90936638D01*
X61003268Y-90982934D01*
X61020950Y-91044598D01*
X61052120Y-91153300D01*
X61057783Y-91173050D01*
X61148187Y-91348956D01*
X61271035Y-91503953D01*
X61421650Y-91632136D01*
X61594294Y-91728624D01*
X61782392Y-91789740D01*
X61978777Y-91813158D01*
X61984912Y-91812686D01*
X61984914Y-91812686D01*
X62169830Y-91798457D01*
X62169834Y-91798456D01*
X62175972Y-91797984D01*
X62366463Y-91744798D01*
X62371967Y-91742018D01*
X62371969Y-91742017D01*
X62537495Y-91658404D01*
X62537497Y-91658403D01*
X62542996Y-91655625D01*
X62562929Y-91640052D01*
X62628920Y-91613875D01*
X62698591Y-91627532D01*
X62749818Y-91676688D01*
X62766500Y-91739342D01*
X62766500Y-92285406D01*
X62746498Y-92353527D01*
X62729595Y-92374501D01*
X60498595Y-94605500D01*
X60436283Y-94639526D01*
X60365467Y-94634461D01*
X60308632Y-94591914D01*
X60283821Y-94525394D01*
X60283500Y-94516405D01*
X60283500Y-93728767D01*
X60284027Y-93717584D01*
X60285702Y-93710091D01*
X60283562Y-93642000D01*
X60283500Y-93638043D01*
X60283500Y-93610144D01*
X60282996Y-93606153D01*
X60282063Y-93594311D01*
X60281709Y-93583022D01*
X60280674Y-93550111D01*
X60278462Y-93542497D01*
X60278461Y-93542492D01*
X60275023Y-93530659D01*
X60271012Y-93511295D01*
X60269467Y-93499064D01*
X60268474Y-93491203D01*
X60265557Y-93483836D01*
X60265556Y-93483831D01*
X60252198Y-93450092D01*
X60248354Y-93438865D01*
X60246232Y-93431561D01*
X60236018Y-93396407D01*
X60225707Y-93378972D01*
X60217012Y-93361224D01*
X60209552Y-93342383D01*
X60201010Y-93330625D01*
X60183564Y-93306613D01*
X60177048Y-93296693D01*
X60158580Y-93265465D01*
X60158578Y-93265462D01*
X60154542Y-93258638D01*
X60140221Y-93244317D01*
X60127380Y-93229283D01*
X60120131Y-93219306D01*
X60115472Y-93212893D01*
X60081395Y-93184702D01*
X60072616Y-93176712D01*
X57641569Y-90745664D01*
X57607543Y-90683352D01*
X57612608Y-90612536D01*
X57630702Y-90579864D01*
X57701061Y-90488172D01*
X57709247Y-90473993D01*
X57764190Y-90341350D01*
X57768428Y-90325532D01*
X57782462Y-90218934D01*
X57783000Y-90210724D01*
X57783000Y-90184500D01*
X57803002Y-90116379D01*
X57856658Y-90069886D01*
X57909000Y-90058500D01*
X58910405Y-90058500D01*
X58978526Y-90078502D01*
G37*
%TD.AperFunction*%
%TA.AperFunction,Conductor*%
G36*
X64908527Y-81628502D02*
G01*
X64929501Y-81645405D01*
X65201265Y-81917169D01*
X65235291Y-81979481D01*
X65237961Y-81999011D01*
X65250110Y-82209715D01*
X65251247Y-82214761D01*
X65251248Y-82214767D01*
X65268645Y-82291962D01*
X65299222Y-82427639D01*
X65383266Y-82634616D01*
X65499987Y-82825088D01*
X65646250Y-82993938D01*
X65818126Y-83136632D01*
X66011000Y-83249338D01*
X66219692Y-83329030D01*
X66224760Y-83330061D01*
X66224763Y-83330062D01*
X66298678Y-83345100D01*
X66438597Y-83373567D01*
X66443772Y-83373757D01*
X66443774Y-83373757D01*
X66656673Y-83381564D01*
X66656677Y-83381564D01*
X66661837Y-83381753D01*
X66666957Y-83381097D01*
X66666959Y-83381097D01*
X66878288Y-83354025D01*
X66878289Y-83354025D01*
X66883416Y-83353368D01*
X66890986Y-83351097D01*
X67092429Y-83290661D01*
X67092434Y-83290659D01*
X67097384Y-83289174D01*
X67135070Y-83270712D01*
X67205042Y-83258706D01*
X67270399Y-83286436D01*
X67310389Y-83345100D01*
X67316500Y-83383864D01*
X67316500Y-85224200D01*
X67296498Y-85292321D01*
X67242842Y-85338814D01*
X67172568Y-85348918D01*
X67148441Y-85342973D01*
X66953091Y-85273796D01*
X66953083Y-85273794D01*
X66948212Y-85272069D01*
X66943119Y-85271162D01*
X66943116Y-85271161D01*
X66733373Y-85233800D01*
X66733367Y-85233799D01*
X66728284Y-85232894D01*
X66654452Y-85231992D01*
X66510081Y-85230228D01*
X66510079Y-85230228D01*
X66504911Y-85230165D01*
X66284091Y-85263955D01*
X66071756Y-85333357D01*
X65873607Y-85436507D01*
X65869474Y-85439610D01*
X65869471Y-85439612D01*
X65699100Y-85567530D01*
X65694965Y-85570635D01*
X65691393Y-85574373D01*
X65604898Y-85664885D01*
X65540629Y-85732138D01*
X65414743Y-85916680D01*
X65400898Y-85946507D01*
X65332972Y-86092842D01*
X65320688Y-86119305D01*
X65260989Y-86334570D01*
X65237251Y-86556695D01*
X65237548Y-86561848D01*
X65237548Y-86561851D01*
X65250110Y-86779715D01*
X65248734Y-86779794D01*
X65239334Y-86843724D01*
X65213983Y-86880112D01*
X64801147Y-87292948D01*
X64738835Y-87326974D01*
X64668020Y-87321909D01*
X64611184Y-87279362D01*
X64586114Y-87207812D01*
X64584061Y-87142501D01*
X64583999Y-87138542D01*
X64583999Y-87110643D01*
X64583495Y-87106652D01*
X64582562Y-87094810D01*
X64581422Y-87058535D01*
X64581173Y-87050610D01*
X64578961Y-87042996D01*
X64578960Y-87042991D01*
X64575522Y-87031158D01*
X64571511Y-87011794D01*
X64569966Y-86999563D01*
X64568973Y-86991702D01*
X64566056Y-86984335D01*
X64566055Y-86984330D01*
X64552697Y-86950591D01*
X64548853Y-86939364D01*
X64538729Y-86904521D01*
X64536517Y-86896906D01*
X64526206Y-86879471D01*
X64517511Y-86861723D01*
X64510051Y-86842882D01*
X64484063Y-86807112D01*
X64477547Y-86797192D01*
X64459079Y-86765964D01*
X64459077Y-86765961D01*
X64455041Y-86759137D01*
X64440720Y-86744816D01*
X64427879Y-86729782D01*
X64420630Y-86719805D01*
X64415971Y-86713392D01*
X64409867Y-86708342D01*
X64409862Y-86708337D01*
X64381901Y-86685206D01*
X64373120Y-86677216D01*
X63535252Y-85839347D01*
X63501227Y-85777035D01*
X63499426Y-85733808D01*
X63508500Y-85664885D01*
X63508499Y-85385116D01*
X63501686Y-85333357D01*
X63493916Y-85274337D01*
X63493916Y-85274335D01*
X63492838Y-85266150D01*
X63431524Y-85118124D01*
X63333987Y-84991013D01*
X63327437Y-84985987D01*
X63327434Y-84985984D01*
X63270431Y-84942245D01*
X63206875Y-84893476D01*
X63129885Y-84861586D01*
X63084550Y-84842807D01*
X63029269Y-84798258D01*
X63007369Y-84738694D01*
X62996702Y-84629908D01*
X62994080Y-84603167D01*
X62980035Y-84556646D01*
X62938697Y-84419731D01*
X62936916Y-84413831D01*
X62844066Y-84239204D01*
X62766575Y-84144191D01*
X62722960Y-84090713D01*
X62722957Y-84090710D01*
X62719065Y-84085938D01*
X62714316Y-84082009D01*
X62571425Y-83963799D01*
X62571421Y-83963797D01*
X62566675Y-83959870D01*
X62392701Y-83865802D01*
X62203768Y-83807318D01*
X62197643Y-83806674D01*
X62197642Y-83806674D01*
X62013204Y-83787289D01*
X62013202Y-83787289D01*
X62007075Y-83786645D01*
X61810112Y-83804570D01*
X61809966Y-83802967D01*
X61747093Y-83796846D01*
X61691367Y-83752856D01*
X61668270Y-83685721D01*
X61685135Y-83616757D01*
X61705043Y-83590863D01*
X61725501Y-83570405D01*
X61787813Y-83536379D01*
X61814596Y-83533500D01*
X62112306Y-83533499D01*
X62131634Y-83533499D01*
X62134492Y-83533236D01*
X62134501Y-83533236D01*
X62170004Y-83529974D01*
X62205062Y-83526753D01*
X62267376Y-83507225D01*
X62361450Y-83477744D01*
X62361452Y-83477743D01*
X62368699Y-83475472D01*
X62515381Y-83386639D01*
X62636639Y-83265381D01*
X62725472Y-83118699D01*
X62776753Y-82955062D01*
X62783500Y-82881635D01*
X62783499Y-82368366D01*
X62783234Y-82365474D01*
X62778404Y-82312910D01*
X62776753Y-82294938D01*
X62725472Y-82131301D01*
X62636639Y-81984619D01*
X62541115Y-81889095D01*
X62507089Y-81826783D01*
X62512154Y-81755968D01*
X62541115Y-81710905D01*
X62606615Y-81645405D01*
X62668927Y-81611379D01*
X62695710Y-81608500D01*
X64840406Y-81608500D01*
X64908527Y-81628502D01*
G37*
%TD.AperFunction*%
%TA.AperFunction,Conductor*%
G36*
X57513816Y-71503502D02*
G01*
X57560309Y-71557158D01*
X57570413Y-71627432D01*
X57540919Y-71692012D01*
X57534790Y-71698595D01*
X54536541Y-74696844D01*
X54530276Y-74702698D01*
X54488330Y-74739290D01*
X54452934Y-74789655D01*
X54449022Y-74794920D01*
X54411065Y-74843328D01*
X54407939Y-74850252D01*
X54405329Y-74854561D01*
X54399958Y-74863976D01*
X54397573Y-74868424D01*
X54393205Y-74874639D01*
X54390446Y-74881716D01*
X54370858Y-74931957D01*
X54368306Y-74938029D01*
X54342986Y-74994105D01*
X54341600Y-75001582D01*
X54340090Y-75006402D01*
X54337118Y-75016835D01*
X54335870Y-75021696D01*
X54333111Y-75028772D01*
X54327630Y-75070405D01*
X54325082Y-75089762D01*
X54324050Y-75096278D01*
X54312839Y-75156767D01*
X54313276Y-75164347D01*
X54313276Y-75164348D01*
X54316291Y-75216642D01*
X54316500Y-75223894D01*
X54316500Y-83959455D01*
X54316208Y-83968023D01*
X54312424Y-84023534D01*
X54313729Y-84031011D01*
X54313729Y-84031014D01*
X54323002Y-84084147D01*
X54323965Y-84090671D01*
X54331355Y-84151735D01*
X54334042Y-84158845D01*
X54335246Y-84163748D01*
X54338114Y-84174234D01*
X54339561Y-84179026D01*
X54340866Y-84186504D01*
X54343918Y-84193456D01*
X54343918Y-84193457D01*
X54365595Y-84242841D01*
X54368086Y-84248946D01*
X54387145Y-84299382D01*
X54389831Y-84306489D01*
X54394131Y-84312746D01*
X54396467Y-84317214D01*
X54401725Y-84326660D01*
X54404307Y-84331026D01*
X54407362Y-84337985D01*
X54444823Y-84386804D01*
X54448686Y-84392123D01*
X54459868Y-84408392D01*
X54483534Y-84442826D01*
X54489203Y-84447877D01*
X54528323Y-84482732D01*
X54533598Y-84487713D01*
X55263792Y-85217907D01*
X55297818Y-85280219D01*
X55299619Y-85323446D01*
X55291500Y-85385115D01*
X55291501Y-85664884D01*
X55292039Y-85668969D01*
X55292039Y-85668973D01*
X55300354Y-85732138D01*
X55307162Y-85783850D01*
X55310322Y-85791478D01*
X55314589Y-85801780D01*
X55322179Y-85872370D01*
X55314590Y-85898218D01*
X55307162Y-85916150D01*
X55291500Y-86035115D01*
X55291501Y-86314884D01*
X55292039Y-86318969D01*
X55292039Y-86318973D01*
X55299573Y-86376203D01*
X55307162Y-86433850D01*
X55310322Y-86441478D01*
X55314589Y-86451780D01*
X55322179Y-86522370D01*
X55314590Y-86548218D01*
X55307162Y-86566150D01*
X55291500Y-86685115D01*
X55291500Y-86715423D01*
X55271498Y-86783544D01*
X55217842Y-86830037D01*
X55169466Y-86841361D01*
X55167008Y-86841438D01*
X55163055Y-86841500D01*
X55135144Y-86841500D01*
X55131210Y-86841997D01*
X55131209Y-86841997D01*
X55131144Y-86842005D01*
X55119307Y-86842938D01*
X55087490Y-86843938D01*
X55083029Y-86844078D01*
X55075110Y-86844327D01*
X55057454Y-86849456D01*
X55055658Y-86849978D01*
X55036306Y-86853986D01*
X55029235Y-86854880D01*
X55016203Y-86856526D01*
X55008836Y-86859443D01*
X55008835Y-86859443D01*
X54980883Y-86870510D01*
X54910183Y-86876989D01*
X54847203Y-86844216D01*
X54811939Y-86782597D01*
X54808500Y-86753358D01*
X54808500Y-86613768D01*
X54809027Y-86602585D01*
X54810702Y-86595092D01*
X54808562Y-86527001D01*
X54808500Y-86523044D01*
X54808500Y-86495144D01*
X54807996Y-86491153D01*
X54807063Y-86479311D01*
X54805923Y-86443036D01*
X54805674Y-86435111D01*
X54803462Y-86427497D01*
X54803461Y-86427492D01*
X54800023Y-86415659D01*
X54796012Y-86396295D01*
X54794467Y-86384064D01*
X54793474Y-86376203D01*
X54790557Y-86368836D01*
X54790556Y-86368831D01*
X54777198Y-86335092D01*
X54773354Y-86323865D01*
X54771232Y-86316561D01*
X54761018Y-86281407D01*
X54750707Y-86263972D01*
X54742012Y-86246224D01*
X54734552Y-86227383D01*
X54708564Y-86191613D01*
X54702048Y-86181693D01*
X54683580Y-86150465D01*
X54683578Y-86150462D01*
X54679542Y-86143638D01*
X54665221Y-86129317D01*
X54652380Y-86114283D01*
X54645131Y-86104306D01*
X54640472Y-86097893D01*
X54606395Y-86069702D01*
X54597616Y-86061712D01*
X53551218Y-85015313D01*
X53517192Y-84953001D01*
X53519755Y-84889589D01*
X53530865Y-84853022D01*
X53532370Y-84848069D01*
X53561529Y-84626590D01*
X53561611Y-84623240D01*
X53563074Y-84563365D01*
X53563074Y-84563361D01*
X53563156Y-84560000D01*
X53544852Y-84337361D01*
X53490431Y-84120702D01*
X53401354Y-83915840D01*
X53317774Y-83786645D01*
X53282822Y-83732617D01*
X53282820Y-83732614D01*
X53280014Y-83728277D01*
X53129670Y-83563051D01*
X53125619Y-83559852D01*
X53125615Y-83559848D01*
X52958414Y-83427800D01*
X52958410Y-83427798D01*
X52954359Y-83424598D01*
X52912569Y-83401529D01*
X52862598Y-83351097D01*
X52847826Y-83281654D01*
X52872942Y-83215248D01*
X52900294Y-83188641D01*
X53075328Y-83063792D01*
X53083200Y-83057139D01*
X53234052Y-82906812D01*
X53240730Y-82898965D01*
X53365003Y-82726020D01*
X53370313Y-82717183D01*
X53464670Y-82526267D01*
X53468469Y-82516672D01*
X53530377Y-82312910D01*
X53532555Y-82302837D01*
X53533986Y-82291962D01*
X53531775Y-82277778D01*
X53518617Y-82274000D01*
X52072000Y-82274000D01*
X52003879Y-82253998D01*
X51957386Y-82200342D01*
X51946000Y-82148000D01*
X51946000Y-81747885D01*
X52454000Y-81747885D01*
X52458475Y-81763124D01*
X52459865Y-81764329D01*
X52467548Y-81766000D01*
X53518344Y-81766000D01*
X53531875Y-81762027D01*
X53533180Y-81752947D01*
X53491214Y-81585875D01*
X53487894Y-81576124D01*
X53402972Y-81380814D01*
X53398105Y-81371739D01*
X53282426Y-81192926D01*
X53276136Y-81184757D01*
X53132806Y-81027240D01*
X53125273Y-81020215D01*
X52958139Y-80888222D01*
X52949552Y-80882517D01*
X52912116Y-80861851D01*
X52862146Y-80811419D01*
X52847374Y-80741976D01*
X52872490Y-80675571D01*
X52899842Y-80648964D01*
X53075327Y-80523792D01*
X53083200Y-80517139D01*
X53234052Y-80366812D01*
X53240730Y-80358965D01*
X53365003Y-80186020D01*
X53370313Y-80177183D01*
X53464670Y-79986267D01*
X53468469Y-79976672D01*
X53530377Y-79772910D01*
X53532555Y-79762837D01*
X53533986Y-79751962D01*
X53531775Y-79737778D01*
X53518617Y-79734000D01*
X52472115Y-79734000D01*
X52456876Y-79738475D01*
X52455671Y-79739865D01*
X52454000Y-79747548D01*
X52454000Y-81747885D01*
X51946000Y-81747885D01*
X51946000Y-79207885D01*
X52454000Y-79207885D01*
X52458475Y-79223124D01*
X52459865Y-79224329D01*
X52467548Y-79226000D01*
X53518344Y-79226000D01*
X53531875Y-79222027D01*
X53533180Y-79212947D01*
X53491214Y-79045875D01*
X53487894Y-79036124D01*
X53402972Y-78840814D01*
X53398105Y-78831739D01*
X53282426Y-78652926D01*
X53276136Y-78644757D01*
X53132806Y-78487240D01*
X53125273Y-78480215D01*
X52958139Y-78348222D01*
X52949552Y-78342517D01*
X52912116Y-78321851D01*
X52862146Y-78271419D01*
X52847374Y-78201976D01*
X52872490Y-78135571D01*
X52899842Y-78108964D01*
X53075327Y-77983792D01*
X53083200Y-77977139D01*
X53234052Y-77826812D01*
X53240730Y-77818965D01*
X53365003Y-77646020D01*
X53370313Y-77637183D01*
X53464670Y-77446267D01*
X53468469Y-77436672D01*
X53530377Y-77232910D01*
X53532555Y-77222837D01*
X53533986Y-77211962D01*
X53531775Y-77197778D01*
X53518617Y-77194000D01*
X52472115Y-77194000D01*
X52456876Y-77198475D01*
X52455671Y-77199865D01*
X52454000Y-77207548D01*
X52454000Y-79207885D01*
X51946000Y-79207885D01*
X51946000Y-76812000D01*
X51966002Y-76743879D01*
X52019658Y-76697386D01*
X52072000Y-76686000D01*
X53518344Y-76686000D01*
X53531875Y-76682027D01*
X53533180Y-76672947D01*
X53491214Y-76505875D01*
X53487894Y-76496124D01*
X53402972Y-76300814D01*
X53398105Y-76291739D01*
X53282426Y-76112926D01*
X53276136Y-76104757D01*
X53132293Y-75946677D01*
X53101241Y-75882831D01*
X53109635Y-75812333D01*
X53154812Y-75757564D01*
X53181256Y-75743895D01*
X53288297Y-75703767D01*
X53296705Y-75700615D01*
X53413261Y-75613261D01*
X53500615Y-75496705D01*
X53551745Y-75360316D01*
X53558500Y-75298134D01*
X53558500Y-73501866D01*
X53551745Y-73439684D01*
X53500615Y-73303295D01*
X53413261Y-73186739D01*
X53296705Y-73099385D01*
X53160316Y-73048255D01*
X53098134Y-73041500D01*
X53009500Y-73041500D01*
X52941379Y-73021498D01*
X52894886Y-72967842D01*
X52883500Y-72915500D01*
X52883500Y-71735479D01*
X52903502Y-71667358D01*
X52957158Y-71620865D01*
X53027432Y-71610761D01*
X53092012Y-71640255D01*
X53098518Y-71646306D01*
X53162193Y-71709870D01*
X53201697Y-71749305D01*
X53207927Y-71753145D01*
X53207928Y-71753146D01*
X53345090Y-71837694D01*
X53352262Y-71842115D01*
X53425579Y-71866433D01*
X53513611Y-71895632D01*
X53513613Y-71895632D01*
X53520139Y-71897797D01*
X53526975Y-71898497D01*
X53526978Y-71898498D01*
X53570031Y-71902909D01*
X53624600Y-71908500D01*
X54275400Y-71908500D01*
X54278646Y-71908163D01*
X54278650Y-71908163D01*
X54374308Y-71898238D01*
X54374312Y-71898237D01*
X54381166Y-71897526D01*
X54387702Y-71895345D01*
X54387704Y-71895345D01*
X54519806Y-71851272D01*
X54548946Y-71841550D01*
X54699348Y-71748478D01*
X54824305Y-71623303D01*
X54865078Y-71557158D01*
X54873568Y-71543384D01*
X54926340Y-71495891D01*
X54980828Y-71483500D01*
X57445695Y-71483500D01*
X57513816Y-71503502D01*
G37*
%TD.AperFunction*%
%TA.AperFunction,Conductor*%
G36*
X68233621Y-50528502D02*
G01*
X68280114Y-50582158D01*
X68291500Y-50634500D01*
X68291500Y-57366645D01*
X68271498Y-57434766D01*
X68217842Y-57481259D01*
X68154963Y-57491414D01*
X68154928Y-57492053D01*
X68151993Y-57491894D01*
X68151900Y-57491909D01*
X68151533Y-57491869D01*
X68151529Y-57491869D01*
X68148134Y-57491500D01*
X67151866Y-57491500D01*
X67089684Y-57498255D01*
X66953295Y-57549385D01*
X66836739Y-57636739D01*
X66749385Y-57753295D01*
X66746233Y-57761703D01*
X66710342Y-57857441D01*
X66667700Y-57914205D01*
X66635096Y-57929589D01*
X66635764Y-57931355D01*
X66629971Y-57933544D01*
X66613300Y-57938105D01*
X66608484Y-57939559D01*
X66600996Y-57940866D01*
X66544627Y-57965610D01*
X66538588Y-57968075D01*
X66481011Y-57989831D01*
X66474748Y-57994136D01*
X66470258Y-57996483D01*
X66460807Y-58001743D01*
X66456466Y-58004310D01*
X66449515Y-58007361D01*
X66443495Y-58011980D01*
X66443487Y-58011985D01*
X66400698Y-58044819D01*
X66395384Y-58048681D01*
X66344674Y-58083534D01*
X66339624Y-58089202D01*
X66304768Y-58128323D01*
X66299787Y-58133598D01*
X65523595Y-58909790D01*
X65461283Y-58943816D01*
X65390468Y-58938751D01*
X65333632Y-58896204D01*
X65308821Y-58829684D01*
X65308500Y-58820695D01*
X65308500Y-57951866D01*
X65301745Y-57889684D01*
X65250615Y-57753295D01*
X65188674Y-57670647D01*
X65163826Y-57604142D01*
X65163500Y-57595083D01*
X65163500Y-56446129D01*
X65183502Y-56378008D01*
X65216332Y-56343550D01*
X65259279Y-56312916D01*
X65359860Y-56241173D01*
X65518096Y-56083489D01*
X65577594Y-56000689D01*
X65645435Y-55906277D01*
X65648453Y-55902077D01*
X65661995Y-55874678D01*
X65745136Y-55706453D01*
X65745137Y-55706451D01*
X65747430Y-55701811D01*
X65812370Y-55488069D01*
X65841529Y-55266590D01*
X65843156Y-55200000D01*
X65824852Y-54977361D01*
X65770431Y-54760702D01*
X65681354Y-54555840D01*
X65560014Y-54368277D01*
X65540405Y-54346727D01*
X65412798Y-54206488D01*
X65381746Y-54142642D01*
X65390141Y-54072143D01*
X65435317Y-54017375D01*
X65461761Y-54003706D01*
X65568297Y-53963767D01*
X65576705Y-53960615D01*
X65693261Y-53873261D01*
X65780615Y-53756705D01*
X65831745Y-53620316D01*
X65838500Y-53558134D01*
X65838500Y-51761866D01*
X65831745Y-51699684D01*
X65780615Y-51563295D01*
X65693261Y-51446739D01*
X65576705Y-51359385D01*
X65440316Y-51308255D01*
X65378134Y-51301500D01*
X63581866Y-51301500D01*
X63519684Y-51308255D01*
X63383295Y-51359385D01*
X63266739Y-51446739D01*
X63179385Y-51563295D01*
X63176233Y-51571703D01*
X63176232Y-51571705D01*
X63134722Y-51682433D01*
X63092081Y-51739198D01*
X63025519Y-51763898D01*
X62956170Y-51748691D01*
X62923546Y-51723004D01*
X62872799Y-51667234D01*
X62865273Y-51660215D01*
X62698139Y-51528222D01*
X62689552Y-51522517D01*
X62503117Y-51419599D01*
X62493705Y-51415369D01*
X62292959Y-51344280D01*
X62282988Y-51341646D01*
X62211837Y-51328972D01*
X62198540Y-51330432D01*
X62194000Y-51344989D01*
X62194000Y-56518517D01*
X62198064Y-56532359D01*
X62211478Y-56534393D01*
X62218184Y-56533534D01*
X62228262Y-56531392D01*
X62432255Y-56470191D01*
X62441842Y-56466433D01*
X62633095Y-56372739D01*
X62641945Y-56367464D01*
X62815328Y-56243792D01*
X62823200Y-56237139D01*
X62974052Y-56086812D01*
X62980730Y-56078965D01*
X63108022Y-55901819D01*
X63109279Y-55902722D01*
X63156373Y-55859362D01*
X63226311Y-55847145D01*
X63291751Y-55874678D01*
X63319579Y-55906511D01*
X63379987Y-56005088D01*
X63526250Y-56173938D01*
X63698126Y-56316632D01*
X63734072Y-56337637D01*
X63782794Y-56389275D01*
X63796500Y-56446424D01*
X63796500Y-57408372D01*
X63776498Y-57476493D01*
X63722842Y-57522986D01*
X63714729Y-57526354D01*
X63653295Y-57549385D01*
X63536739Y-57636739D01*
X63449385Y-57753295D01*
X63398255Y-57889684D01*
X63391500Y-57951866D01*
X63391500Y-59248134D01*
X63398255Y-59310316D01*
X63449385Y-59446705D01*
X63536739Y-59563261D01*
X63653295Y-59650615D01*
X63789684Y-59701745D01*
X63851866Y-59708500D01*
X64848134Y-59708500D01*
X64910316Y-59701745D01*
X64946272Y-59688266D01*
X65017076Y-59683083D01*
X65079446Y-59717003D01*
X65113575Y-59779258D01*
X65116500Y-59806248D01*
X65116500Y-60904121D01*
X65096498Y-60972242D01*
X65042842Y-61018735D01*
X65030377Y-61023644D01*
X64933007Y-61056130D01*
X64933005Y-61056131D01*
X64926054Y-61058450D01*
X64775652Y-61151522D01*
X64650695Y-61276697D01*
X64646855Y-61282927D01*
X64646854Y-61282928D01*
X64594658Y-61367606D01*
X64557885Y-61427262D01*
X64502203Y-61595139D01*
X64501503Y-61601975D01*
X64501502Y-61601978D01*
X64499831Y-61618285D01*
X64491500Y-61699600D01*
X64491500Y-63900400D01*
X64491837Y-63903646D01*
X64491837Y-63903650D01*
X64496005Y-63943816D01*
X64502474Y-64006166D01*
X64558450Y-64173946D01*
X64651522Y-64324348D01*
X64776697Y-64449305D01*
X64847648Y-64493040D01*
X64895140Y-64545811D01*
X64906564Y-64615883D01*
X64878290Y-64681006D01*
X64847834Y-64707443D01*
X64782193Y-64748063D01*
X64770792Y-64757099D01*
X64656261Y-64871829D01*
X64647249Y-64883240D01*
X64562184Y-65021243D01*
X64556037Y-65034424D01*
X64504862Y-65188710D01*
X64501995Y-65202086D01*
X64492328Y-65296438D01*
X64492000Y-65302855D01*
X64492000Y-66127885D01*
X64496475Y-66143124D01*
X64497865Y-66144329D01*
X64505548Y-66146000D01*
X65928000Y-66146000D01*
X65996121Y-66166002D01*
X66042614Y-66219658D01*
X66054000Y-66272000D01*
X66054000Y-68189884D01*
X66058475Y-68205123D01*
X66059865Y-68206328D01*
X66067548Y-68207999D01*
X66397095Y-68207999D01*
X66403614Y-68207662D01*
X66499206Y-68197743D01*
X66512600Y-68194851D01*
X66666784Y-68143412D01*
X66679962Y-68137239D01*
X66817807Y-68051937D01*
X66829208Y-68042901D01*
X66943739Y-67928171D01*
X66952751Y-67916760D01*
X67037816Y-67778757D01*
X67043963Y-67765576D01*
X67070907Y-67684343D01*
X67111338Y-67625984D01*
X67176902Y-67598747D01*
X67246784Y-67611281D01*
X67298796Y-67659605D01*
X67316500Y-67724011D01*
X67316500Y-72915500D01*
X67296498Y-72983621D01*
X67242842Y-73030114D01*
X67190500Y-73041500D01*
X65701866Y-73041500D01*
X65639684Y-73048255D01*
X65503295Y-73099385D01*
X65386739Y-73186739D01*
X65299385Y-73303295D01*
X65248255Y-73439684D01*
X65241500Y-73501866D01*
X65241500Y-73640500D01*
X65221498Y-73708621D01*
X65167842Y-73755114D01*
X65115500Y-73766500D01*
X63278767Y-73766500D01*
X63267584Y-73765973D01*
X63260091Y-73764298D01*
X63252165Y-73764547D01*
X63252164Y-73764547D01*
X63192014Y-73766438D01*
X63188055Y-73766500D01*
X63160144Y-73766500D01*
X63156210Y-73766997D01*
X63156209Y-73766997D01*
X63156144Y-73767005D01*
X63144307Y-73767938D01*
X63112490Y-73768938D01*
X63108029Y-73769078D01*
X63100110Y-73769327D01*
X63082454Y-73774456D01*
X63080658Y-73774978D01*
X63061306Y-73778986D01*
X63054235Y-73779880D01*
X63041203Y-73781526D01*
X63033834Y-73784443D01*
X63033832Y-73784444D01*
X63000097Y-73797800D01*
X62988869Y-73801645D01*
X62946407Y-73813982D01*
X62939584Y-73818017D01*
X62939582Y-73818018D01*
X62928972Y-73824293D01*
X62911224Y-73832988D01*
X62892383Y-73840448D01*
X62885967Y-73845110D01*
X62885966Y-73845110D01*
X62856613Y-73866436D01*
X62846693Y-73872952D01*
X62815465Y-73891420D01*
X62815462Y-73891422D01*
X62808638Y-73895458D01*
X62794317Y-73909779D01*
X62779284Y-73922619D01*
X62762893Y-73934528D01*
X62757842Y-73940634D01*
X62734702Y-73968605D01*
X62726712Y-73977384D01*
X60873940Y-75830156D01*
X60811628Y-75864182D01*
X60740813Y-75859117D01*
X60683977Y-75816570D01*
X60659166Y-75750050D01*
X60665252Y-75701394D01*
X60695137Y-75611293D01*
X60698005Y-75597914D01*
X60707672Y-75503562D01*
X60708000Y-75497146D01*
X60708000Y-74672115D01*
X60703525Y-74656876D01*
X60702135Y-74655671D01*
X60694452Y-74654000D01*
X59672115Y-74654000D01*
X59656876Y-74658475D01*
X59655671Y-74659865D01*
X59654000Y-74667548D01*
X59654000Y-76189884D01*
X59658475Y-76205123D01*
X59659865Y-76206328D01*
X59667548Y-76207999D01*
X59997095Y-76207999D01*
X60003614Y-76207662D01*
X60099206Y-76197743D01*
X60112603Y-76194850D01*
X60201221Y-76165286D01*
X60272170Y-76162702D01*
X60333254Y-76198886D01*
X60365078Y-76262351D01*
X60357539Y-76332946D01*
X60330192Y-76373904D01*
X58494951Y-78209144D01*
X56665903Y-80038192D01*
X56601565Y-80072638D01*
X56594938Y-80073247D01*
X56588558Y-80075246D01*
X56588555Y-80075247D01*
X56438550Y-80122256D01*
X56438548Y-80122257D01*
X56431301Y-80124528D01*
X56284619Y-80213361D01*
X56163361Y-80334619D01*
X56074528Y-80481301D01*
X56072257Y-80488548D01*
X56072256Y-80488550D01*
X56069024Y-80498865D01*
X56023247Y-80644938D01*
X56016500Y-80718365D01*
X56016501Y-81231634D01*
X56023247Y-81305062D01*
X56074528Y-81468699D01*
X56163361Y-81615381D01*
X56258885Y-81710905D01*
X56292911Y-81773217D01*
X56287846Y-81844032D01*
X56258885Y-81889095D01*
X56163361Y-81984619D01*
X56074528Y-82131301D01*
X56023247Y-82294938D01*
X56016500Y-82368365D01*
X56016501Y-82881634D01*
X56016764Y-82884492D01*
X56016764Y-82884501D01*
X56018093Y-82898965D01*
X56023247Y-82955062D01*
X56074528Y-83118699D01*
X56163361Y-83265381D01*
X56284619Y-83386639D01*
X56431301Y-83475472D01*
X56438548Y-83477743D01*
X56438550Y-83477744D01*
X56493254Y-83494887D01*
X56594938Y-83526753D01*
X56668365Y-83533500D01*
X56687789Y-83533500D01*
X56985404Y-83533499D01*
X57053524Y-83553501D01*
X57074500Y-83570404D01*
X57229596Y-83725501D01*
X57263621Y-83787813D01*
X57266500Y-83814596D01*
X57266500Y-84690500D01*
X57246498Y-84758621D01*
X57192842Y-84805114D01*
X57140500Y-84816500D01*
X56847805Y-84816500D01*
X56779684Y-84796498D01*
X56758710Y-84779595D01*
X55720405Y-83741290D01*
X55686379Y-83678978D01*
X55683500Y-83652195D01*
X55683500Y-75535305D01*
X55694719Y-75497095D01*
X58092001Y-75497095D01*
X58092338Y-75503614D01*
X58102257Y-75599206D01*
X58105149Y-75612600D01*
X58156588Y-75766784D01*
X58162761Y-75779962D01*
X58248063Y-75917807D01*
X58257099Y-75929208D01*
X58371829Y-76043739D01*
X58383240Y-76052751D01*
X58521243Y-76137816D01*
X58534424Y-76143963D01*
X58688710Y-76195138D01*
X58702086Y-76198005D01*
X58796438Y-76207672D01*
X58802854Y-76208000D01*
X59127885Y-76208000D01*
X59143124Y-76203525D01*
X59144329Y-76202135D01*
X59146000Y-76194452D01*
X59146000Y-74672115D01*
X59141525Y-74656876D01*
X59140135Y-74655671D01*
X59132452Y-74654000D01*
X58110116Y-74654000D01*
X58094877Y-74658475D01*
X58093672Y-74659865D01*
X58092001Y-74667548D01*
X58092001Y-75497095D01*
X55694719Y-75497095D01*
X55703502Y-75467184D01*
X55720405Y-75446210D01*
X57876905Y-73289710D01*
X57939217Y-73255684D01*
X58010032Y-73260749D01*
X58066868Y-73303296D01*
X58091679Y-73369816D01*
X58092000Y-73378805D01*
X58092000Y-74127885D01*
X58096475Y-74143124D01*
X58097865Y-74144329D01*
X58105548Y-74146000D01*
X60689884Y-74146000D01*
X60705123Y-74141525D01*
X60706328Y-74140135D01*
X60707999Y-74132452D01*
X60707999Y-73302905D01*
X60707662Y-73296386D01*
X60697743Y-73200794D01*
X60694851Y-73187400D01*
X60643412Y-73033216D01*
X60637239Y-73020038D01*
X60551937Y-72882193D01*
X60542901Y-72870792D01*
X60428171Y-72756261D01*
X60416760Y-72747249D01*
X60352354Y-72707549D01*
X60304861Y-72654777D01*
X60293437Y-72584706D01*
X60321711Y-72519582D01*
X60352163Y-72493147D01*
X60373894Y-72479700D01*
X60442343Y-72460862D01*
X60501666Y-72476856D01*
X60594294Y-72528624D01*
X60782392Y-72589740D01*
X60978777Y-72613158D01*
X60984912Y-72612686D01*
X60984914Y-72612686D01*
X61169830Y-72598457D01*
X61169834Y-72598456D01*
X61175972Y-72597984D01*
X61366463Y-72544798D01*
X61371967Y-72542018D01*
X61371969Y-72542017D01*
X61537495Y-72458404D01*
X61537497Y-72458403D01*
X61542996Y-72455625D01*
X61698847Y-72333861D01*
X61828078Y-72184145D01*
X61925769Y-72012179D01*
X61988197Y-71824513D01*
X62000787Y-71724853D01*
X63439977Y-71724853D01*
X63445258Y-71731907D01*
X63606756Y-71826279D01*
X63616042Y-71830729D01*
X63815001Y-71906703D01*
X63824899Y-71909579D01*
X64033595Y-71952038D01*
X64043823Y-71953257D01*
X64256650Y-71961062D01*
X64266936Y-71960595D01*
X64478185Y-71933534D01*
X64488262Y-71931392D01*
X64692255Y-71870191D01*
X64701842Y-71866433D01*
X64893098Y-71772738D01*
X64901944Y-71767465D01*
X64949247Y-71733723D01*
X64957648Y-71723023D01*
X64950660Y-71709870D01*
X64212812Y-70972022D01*
X64198868Y-70964408D01*
X64197035Y-70964539D01*
X64190420Y-70968790D01*
X63446737Y-71712473D01*
X63439977Y-71724853D01*
X62000787Y-71724853D01*
X62012985Y-71628295D01*
X62013380Y-71600000D01*
X61994080Y-71403167D01*
X61985202Y-71373760D01*
X61962081Y-71297180D01*
X61936916Y-71213831D01*
X61844066Y-71039204D01*
X61726190Y-70894674D01*
X61722960Y-70890713D01*
X61722957Y-70890710D01*
X61719065Y-70885938D01*
X61714316Y-70882009D01*
X61571425Y-70763799D01*
X61571421Y-70763797D01*
X61566675Y-70759870D01*
X61392701Y-70665802D01*
X61203768Y-70607318D01*
X61197643Y-70606674D01*
X61197642Y-70606674D01*
X61013203Y-70587289D01*
X61013202Y-70587289D01*
X61007075Y-70586645D01*
X61004107Y-70586915D01*
X60954135Y-70571863D01*
X62838050Y-70571863D01*
X62850309Y-70784477D01*
X62851745Y-70794697D01*
X62898565Y-71002446D01*
X62901645Y-71012275D01*
X62981770Y-71209603D01*
X62986413Y-71218794D01*
X63066460Y-71349420D01*
X63076916Y-71358880D01*
X63085694Y-71355096D01*
X63827978Y-70612812D01*
X63834356Y-70601132D01*
X64564408Y-70601132D01*
X64564539Y-70602965D01*
X64568790Y-70609580D01*
X65310474Y-71351264D01*
X65322484Y-71357823D01*
X65334223Y-71348855D01*
X65365004Y-71306019D01*
X65370315Y-71297180D01*
X65464670Y-71106267D01*
X65468469Y-71096672D01*
X65530376Y-70892915D01*
X65532555Y-70882834D01*
X65560590Y-70669887D01*
X65561109Y-70663212D01*
X65562572Y-70603364D01*
X65562378Y-70596646D01*
X65544781Y-70382604D01*
X65543096Y-70372424D01*
X65491214Y-70165875D01*
X65487894Y-70156124D01*
X65402972Y-69960814D01*
X65398105Y-69951739D01*
X65333063Y-69851197D01*
X65322377Y-69841995D01*
X65312812Y-69846398D01*
X64572022Y-70587188D01*
X64564408Y-70601132D01*
X63834356Y-70601132D01*
X63835592Y-70598868D01*
X63835461Y-70597035D01*
X63831210Y-70590420D01*
X63089849Y-69849059D01*
X63078313Y-69842759D01*
X63066031Y-69852382D01*
X63018089Y-69922662D01*
X63013004Y-69931613D01*
X62923338Y-70124783D01*
X62919775Y-70134470D01*
X62862864Y-70339681D01*
X62860933Y-70349800D01*
X62838302Y-70561574D01*
X62838050Y-70571863D01*
X60954135Y-70571863D01*
X60937183Y-70566757D01*
X60916946Y-70550331D01*
X60745405Y-70378790D01*
X60711379Y-70316478D01*
X60708500Y-70289695D01*
X60708500Y-69699600D01*
X60697526Y-69593834D01*
X60658356Y-69476427D01*
X63441223Y-69476427D01*
X63447968Y-69488758D01*
X64187188Y-70227978D01*
X64201132Y-70235592D01*
X64202965Y-70235461D01*
X64209580Y-70231210D01*
X64953389Y-69487401D01*
X64960410Y-69474544D01*
X64953611Y-69465213D01*
X64949554Y-69462518D01*
X64763117Y-69359599D01*
X64753705Y-69355369D01*
X64552959Y-69284280D01*
X64542989Y-69281646D01*
X64333327Y-69244301D01*
X64323073Y-69243331D01*
X64110116Y-69240728D01*
X64099832Y-69241448D01*
X63889321Y-69273661D01*
X63879293Y-69276050D01*
X63676868Y-69342212D01*
X63667359Y-69346209D01*
X63478466Y-69444540D01*
X63469734Y-69450039D01*
X63449677Y-69465099D01*
X63441223Y-69476427D01*
X60658356Y-69476427D01*
X60641550Y-69426054D01*
X60548478Y-69275652D01*
X60423303Y-69150695D01*
X60417072Y-69146854D01*
X60278968Y-69061725D01*
X60278966Y-69061724D01*
X60272738Y-69057885D01*
X60169833Y-69023753D01*
X60111473Y-68983322D01*
X60084236Y-68917758D01*
X60083500Y-68904160D01*
X60083500Y-68184500D01*
X60103502Y-68116379D01*
X60157158Y-68069886D01*
X60209500Y-68058500D01*
X61348134Y-68058500D01*
X61410316Y-68051745D01*
X61546705Y-68000615D01*
X61663261Y-67913261D01*
X61750615Y-67796705D01*
X61801745Y-67660316D01*
X61808500Y-67598134D01*
X61808500Y-67497095D01*
X64492001Y-67497095D01*
X64492338Y-67503614D01*
X64502257Y-67599206D01*
X64505149Y-67612600D01*
X64556588Y-67766784D01*
X64562761Y-67779962D01*
X64648063Y-67917807D01*
X64657099Y-67929208D01*
X64771829Y-68043739D01*
X64783240Y-68052751D01*
X64921243Y-68137816D01*
X64934424Y-68143963D01*
X65088710Y-68195138D01*
X65102086Y-68198005D01*
X65196438Y-68207672D01*
X65202854Y-68208000D01*
X65527885Y-68208000D01*
X65543124Y-68203525D01*
X65544329Y-68202135D01*
X65546000Y-68194452D01*
X65546000Y-66672115D01*
X65541525Y-66656876D01*
X65540135Y-66655671D01*
X65532452Y-66654000D01*
X64510116Y-66654000D01*
X64494877Y-66658475D01*
X64493672Y-66659865D01*
X64492001Y-66667548D01*
X64492001Y-67497095D01*
X61808500Y-67497095D01*
X61808500Y-65501866D01*
X61801745Y-65439684D01*
X61750615Y-65303295D01*
X61663261Y-65186739D01*
X61546705Y-65099385D01*
X61410316Y-65048255D01*
X61348134Y-65041500D01*
X60209500Y-65041500D01*
X60141379Y-65021498D01*
X60094886Y-64967842D01*
X60083500Y-64915500D01*
X60083500Y-61883884D01*
X60103502Y-61815763D01*
X60157158Y-61769270D01*
X60198207Y-61759174D01*
X60198134Y-61758500D01*
X60260316Y-61751745D01*
X60396705Y-61700615D01*
X60474852Y-61642047D01*
X60541358Y-61617199D01*
X60610741Y-61632252D01*
X60625982Y-61642047D01*
X60696352Y-61694786D01*
X60711946Y-61703324D01*
X60832394Y-61748478D01*
X60847649Y-61752105D01*
X60898514Y-61757631D01*
X60905328Y-61758000D01*
X61427885Y-61758000D01*
X61443124Y-61753525D01*
X61444329Y-61752135D01*
X61446000Y-61744452D01*
X61446000Y-61739884D01*
X61954000Y-61739884D01*
X61958475Y-61755123D01*
X61959865Y-61756328D01*
X61967548Y-61757999D01*
X62494669Y-61757999D01*
X62501490Y-61757629D01*
X62552352Y-61752105D01*
X62567604Y-61748479D01*
X62688054Y-61703324D01*
X62703649Y-61694786D01*
X62805724Y-61618285D01*
X62818285Y-61605724D01*
X62894786Y-61503649D01*
X62903324Y-61488054D01*
X62948478Y-61367606D01*
X62952105Y-61352351D01*
X62957631Y-61301486D01*
X62958000Y-61294672D01*
X62958000Y-60522115D01*
X62953525Y-60506876D01*
X62952135Y-60505671D01*
X62944452Y-60504000D01*
X61972115Y-60504000D01*
X61956876Y-60508475D01*
X61955671Y-60509865D01*
X61954000Y-60517548D01*
X61954000Y-61739884D01*
X61446000Y-61739884D01*
X61446000Y-59977885D01*
X61954000Y-59977885D01*
X61958475Y-59993124D01*
X61959865Y-59994329D01*
X61967548Y-59996000D01*
X62939884Y-59996000D01*
X62955123Y-59991525D01*
X62956328Y-59990135D01*
X62957999Y-59982452D01*
X62957999Y-59205331D01*
X62957629Y-59198510D01*
X62952105Y-59147648D01*
X62948479Y-59132396D01*
X62903324Y-59011946D01*
X62894786Y-58996351D01*
X62818285Y-58894276D01*
X62805724Y-58881715D01*
X62703649Y-58805214D01*
X62688054Y-58796676D01*
X62567606Y-58751522D01*
X62552351Y-58747895D01*
X62501486Y-58742369D01*
X62494672Y-58742000D01*
X61972115Y-58742000D01*
X61956876Y-58746475D01*
X61955671Y-58747865D01*
X61954000Y-58755548D01*
X61954000Y-59977885D01*
X61446000Y-59977885D01*
X61446000Y-58760116D01*
X61441525Y-58744877D01*
X61440135Y-58743672D01*
X61432452Y-58742001D01*
X60905331Y-58742001D01*
X60898510Y-58742371D01*
X60847648Y-58747895D01*
X60832396Y-58751521D01*
X60711946Y-58796676D01*
X60696352Y-58805214D01*
X60625982Y-58857953D01*
X60559476Y-58882801D01*
X60490093Y-58867748D01*
X60474852Y-58857953D01*
X60437133Y-58829684D01*
X60396705Y-58799385D01*
X60260316Y-58748255D01*
X60198134Y-58741500D01*
X58601866Y-58741500D01*
X58539684Y-58748255D01*
X58403295Y-58799385D01*
X58396110Y-58804770D01*
X58396108Y-58804771D01*
X58325565Y-58857640D01*
X58259058Y-58882488D01*
X58189676Y-58867435D01*
X58174435Y-58857640D01*
X58103892Y-58804771D01*
X58103890Y-58804770D01*
X58096705Y-58799385D01*
X57960316Y-58748255D01*
X57898134Y-58741500D01*
X56301866Y-58741500D01*
X56239684Y-58748255D01*
X56103295Y-58799385D01*
X55986739Y-58886739D01*
X55899385Y-59003295D01*
X55848255Y-59139684D01*
X55841500Y-59201866D01*
X55841500Y-59440500D01*
X55821498Y-59508621D01*
X55767842Y-59555114D01*
X55715500Y-59566500D01*
X55487504Y-59566500D01*
X55419383Y-59546498D01*
X55372890Y-59492842D01*
X55362786Y-59422568D01*
X55369522Y-59396270D01*
X55398971Y-59317715D01*
X55401745Y-59310316D01*
X55408500Y-59248134D01*
X55408500Y-57951866D01*
X55401745Y-57889684D01*
X55350615Y-57753295D01*
X55263261Y-57636739D01*
X55146705Y-57549385D01*
X55085270Y-57526354D01*
X55028506Y-57483712D01*
X55003806Y-57417151D01*
X55003500Y-57408372D01*
X55003500Y-56446129D01*
X55023502Y-56378008D01*
X55056332Y-56343550D01*
X55099279Y-56312916D01*
X55199860Y-56241173D01*
X55358096Y-56083489D01*
X55417594Y-56000689D01*
X55488453Y-55902077D01*
X55489640Y-55902930D01*
X55536960Y-55859362D01*
X55606897Y-55847145D01*
X55672338Y-55874678D01*
X55700166Y-55906511D01*
X55757694Y-56000388D01*
X55763777Y-56008699D01*
X55903213Y-56169667D01*
X55910580Y-56176883D01*
X56074434Y-56312916D01*
X56082881Y-56318831D01*
X56266756Y-56426279D01*
X56276042Y-56430729D01*
X56475001Y-56506703D01*
X56484899Y-56509579D01*
X56588250Y-56530606D01*
X56602299Y-56529410D01*
X56606000Y-56519065D01*
X56606000Y-56518517D01*
X57114000Y-56518517D01*
X57118064Y-56532359D01*
X57131478Y-56534393D01*
X57138184Y-56533534D01*
X57148262Y-56531392D01*
X57352255Y-56470191D01*
X57361842Y-56466433D01*
X57553095Y-56372739D01*
X57561945Y-56367464D01*
X57735328Y-56243792D01*
X57743200Y-56237139D01*
X57894052Y-56086812D01*
X57900730Y-56078965D01*
X58028022Y-55901819D01*
X58029147Y-55902627D01*
X58076669Y-55858876D01*
X58146607Y-55846661D01*
X58212046Y-55874197D01*
X58239870Y-55906028D01*
X58297690Y-56000383D01*
X58303777Y-56008699D01*
X58443213Y-56169667D01*
X58450580Y-56176883D01*
X58614434Y-56312916D01*
X58622881Y-56318831D01*
X58806756Y-56426279D01*
X58816042Y-56430729D01*
X59015001Y-56506703D01*
X59024899Y-56509579D01*
X59128250Y-56530606D01*
X59142299Y-56529410D01*
X59146000Y-56519065D01*
X59146000Y-56518517D01*
X59654000Y-56518517D01*
X59658064Y-56532359D01*
X59671478Y-56534393D01*
X59678184Y-56533534D01*
X59688262Y-56531392D01*
X59892255Y-56470191D01*
X59901842Y-56466433D01*
X60093095Y-56372739D01*
X60101945Y-56367464D01*
X60275328Y-56243792D01*
X60283200Y-56237139D01*
X60434052Y-56086812D01*
X60440730Y-56078965D01*
X60568022Y-55901819D01*
X60569147Y-55902627D01*
X60616669Y-55858876D01*
X60686607Y-55846661D01*
X60752046Y-55874197D01*
X60779870Y-55906028D01*
X60837690Y-56000383D01*
X60843777Y-56008699D01*
X60983213Y-56169667D01*
X60990580Y-56176883D01*
X61154434Y-56312916D01*
X61162881Y-56318831D01*
X61346756Y-56426279D01*
X61356042Y-56430729D01*
X61555001Y-56506703D01*
X61564899Y-56509579D01*
X61668250Y-56530606D01*
X61682299Y-56529410D01*
X61686000Y-56519065D01*
X61686000Y-55472115D01*
X61681525Y-55456876D01*
X61680135Y-55455671D01*
X61672452Y-55454000D01*
X59672115Y-55454000D01*
X59656876Y-55458475D01*
X59655671Y-55459865D01*
X59654000Y-55467548D01*
X59654000Y-56518517D01*
X59146000Y-56518517D01*
X59146000Y-55472115D01*
X59141525Y-55456876D01*
X59140135Y-55455671D01*
X59132452Y-55454000D01*
X57132115Y-55454000D01*
X57116876Y-55458475D01*
X57115671Y-55459865D01*
X57114000Y-55467548D01*
X57114000Y-56518517D01*
X56606000Y-56518517D01*
X56606000Y-54927885D01*
X57114000Y-54927885D01*
X57118475Y-54943124D01*
X57119865Y-54944329D01*
X57127548Y-54946000D01*
X59127885Y-54946000D01*
X59143124Y-54941525D01*
X59144329Y-54940135D01*
X59146000Y-54932452D01*
X59146000Y-54927885D01*
X59654000Y-54927885D01*
X59658475Y-54943124D01*
X59659865Y-54944329D01*
X59667548Y-54946000D01*
X61667885Y-54946000D01*
X61683124Y-54941525D01*
X61684329Y-54940135D01*
X61686000Y-54932452D01*
X61686000Y-52932115D01*
X61681525Y-52916876D01*
X61680135Y-52915671D01*
X61672452Y-52914000D01*
X59672115Y-52914000D01*
X59656876Y-52918475D01*
X59655671Y-52919865D01*
X59654000Y-52927548D01*
X59654000Y-54927885D01*
X59146000Y-54927885D01*
X59146000Y-52932115D01*
X59141525Y-52916876D01*
X59140135Y-52915671D01*
X59132452Y-52914000D01*
X57132115Y-52914000D01*
X57116876Y-52918475D01*
X57115671Y-52919865D01*
X57114000Y-52927548D01*
X57114000Y-54927885D01*
X56606000Y-54927885D01*
X56606000Y-52387885D01*
X57114000Y-52387885D01*
X57118475Y-52403124D01*
X57119865Y-52404329D01*
X57127548Y-52406000D01*
X59127885Y-52406000D01*
X59143124Y-52401525D01*
X59144329Y-52400135D01*
X59146000Y-52392452D01*
X59146000Y-52387885D01*
X59654000Y-52387885D01*
X59658475Y-52403124D01*
X59659865Y-52404329D01*
X59667548Y-52406000D01*
X61667885Y-52406000D01*
X61683124Y-52401525D01*
X61684329Y-52400135D01*
X61686000Y-52392452D01*
X61686000Y-51343102D01*
X61682082Y-51329758D01*
X61667806Y-51327771D01*
X61629324Y-51333660D01*
X61619288Y-51336051D01*
X61416868Y-51402212D01*
X61407359Y-51406209D01*
X61218463Y-51504542D01*
X61209738Y-51510036D01*
X61039433Y-51637905D01*
X61031726Y-51644748D01*
X60884590Y-51798717D01*
X60878104Y-51806727D01*
X60773193Y-51960521D01*
X60718282Y-52005524D01*
X60647757Y-52013695D01*
X60584010Y-51982441D01*
X60563313Y-51957957D01*
X60482427Y-51832926D01*
X60476136Y-51824757D01*
X60332806Y-51667240D01*
X60325273Y-51660215D01*
X60158139Y-51528222D01*
X60149552Y-51522517D01*
X59963117Y-51419599D01*
X59953705Y-51415369D01*
X59752959Y-51344280D01*
X59742988Y-51341646D01*
X59671837Y-51328972D01*
X59658540Y-51330432D01*
X59654000Y-51344989D01*
X59654000Y-52387885D01*
X59146000Y-52387885D01*
X59146000Y-51343102D01*
X59142082Y-51329758D01*
X59127806Y-51327771D01*
X59089324Y-51333660D01*
X59079288Y-51336051D01*
X58876868Y-51402212D01*
X58867359Y-51406209D01*
X58678463Y-51504542D01*
X58669738Y-51510036D01*
X58499433Y-51637905D01*
X58491726Y-51644748D01*
X58344590Y-51798717D01*
X58338104Y-51806727D01*
X58233193Y-51960521D01*
X58178282Y-52005524D01*
X58107757Y-52013695D01*
X58044010Y-51982441D01*
X58023313Y-51957957D01*
X57942427Y-51832926D01*
X57936136Y-51824757D01*
X57792806Y-51667240D01*
X57785273Y-51660215D01*
X57618139Y-51528222D01*
X57609552Y-51522517D01*
X57423117Y-51419599D01*
X57413705Y-51415369D01*
X57212959Y-51344280D01*
X57202988Y-51341646D01*
X57131837Y-51328972D01*
X57118540Y-51330432D01*
X57114000Y-51344989D01*
X57114000Y-52387885D01*
X56606000Y-52387885D01*
X56606000Y-51343102D01*
X56602082Y-51329758D01*
X56587806Y-51327771D01*
X56549324Y-51333660D01*
X56539288Y-51336051D01*
X56336868Y-51402212D01*
X56327359Y-51406209D01*
X56138463Y-51504542D01*
X56129738Y-51510036D01*
X55959433Y-51637905D01*
X55951726Y-51644748D01*
X55804590Y-51798717D01*
X55798109Y-51806722D01*
X55693498Y-51960074D01*
X55638587Y-52005076D01*
X55568062Y-52013247D01*
X55504315Y-51981993D01*
X55483618Y-51957509D01*
X55402822Y-51832617D01*
X55402820Y-51832614D01*
X55400014Y-51828277D01*
X55249670Y-51663051D01*
X55245619Y-51659852D01*
X55245615Y-51659848D01*
X55078414Y-51527800D01*
X55078410Y-51527798D01*
X55074359Y-51524598D01*
X55038028Y-51504542D01*
X55022136Y-51495769D01*
X54878789Y-51416638D01*
X54873920Y-51414914D01*
X54873916Y-51414912D01*
X54673087Y-51343795D01*
X54673083Y-51343794D01*
X54668212Y-51342069D01*
X54663119Y-51341162D01*
X54663116Y-51341161D01*
X54453373Y-51303800D01*
X54453367Y-51303799D01*
X54448284Y-51302894D01*
X54374452Y-51301992D01*
X54230081Y-51300228D01*
X54230079Y-51300228D01*
X54224911Y-51300165D01*
X54004091Y-51333955D01*
X53791756Y-51403357D01*
X53593607Y-51506507D01*
X53589474Y-51509610D01*
X53589471Y-51509612D01*
X53506771Y-51571705D01*
X53414965Y-51640635D01*
X53260629Y-51802138D01*
X53257715Y-51806410D01*
X53257714Y-51806411D01*
X53245404Y-51824457D01*
X53134743Y-51986680D01*
X53040688Y-52189305D01*
X52980989Y-52404570D01*
X52957251Y-52626695D01*
X52970110Y-52849715D01*
X52971247Y-52854761D01*
X52971248Y-52854767D01*
X52985606Y-52918475D01*
X53019222Y-53067639D01*
X53103266Y-53274616D01*
X53130686Y-53319362D01*
X53217104Y-53460383D01*
X53219987Y-53465088D01*
X53366250Y-53633938D01*
X53538126Y-53776632D01*
X53574072Y-53797637D01*
X53622794Y-53849275D01*
X53636500Y-53906424D01*
X53636500Y-53951344D01*
X53616498Y-54019465D01*
X53586154Y-54052103D01*
X53414965Y-54180635D01*
X53260629Y-54342138D01*
X53257715Y-54346410D01*
X53257714Y-54346411D01*
X53245409Y-54364450D01*
X53134743Y-54526680D01*
X53040688Y-54729305D01*
X52980989Y-54944570D01*
X52957251Y-55166695D01*
X52957548Y-55171848D01*
X52957548Y-55171851D01*
X52963011Y-55266590D01*
X52970110Y-55389715D01*
X52971247Y-55394761D01*
X52971248Y-55394767D01*
X52985606Y-55458475D01*
X53019222Y-55607639D01*
X53103266Y-55814616D01*
X53130686Y-55859362D01*
X53217291Y-56000688D01*
X53219987Y-56005088D01*
X53366250Y-56173938D01*
X53538126Y-56316632D01*
X53574072Y-56337637D01*
X53622794Y-56389275D01*
X53636500Y-56446424D01*
X53636500Y-57595083D01*
X53616498Y-57663204D01*
X53611331Y-57670641D01*
X53549385Y-57753295D01*
X53498255Y-57889684D01*
X53491500Y-57951866D01*
X53491500Y-58619604D01*
X53471498Y-58687725D01*
X53417842Y-58734218D01*
X53347568Y-58744322D01*
X53281683Y-58713682D01*
X53271680Y-58704770D01*
X53266402Y-58699787D01*
X52703156Y-58136541D01*
X52697302Y-58130276D01*
X52665704Y-58094055D01*
X52660710Y-58088330D01*
X52610345Y-58052934D01*
X52605077Y-58049020D01*
X52562649Y-58015752D01*
X52556672Y-58011065D01*
X52549748Y-58007939D01*
X52545439Y-58005329D01*
X52536024Y-57999958D01*
X52531576Y-57997573D01*
X52525361Y-57993205D01*
X52468039Y-57970856D01*
X52461971Y-57968306D01*
X52405895Y-57942986D01*
X52398418Y-57941600D01*
X52393598Y-57940090D01*
X52383165Y-57937118D01*
X52378304Y-57935870D01*
X52371228Y-57933111D01*
X52310238Y-57925082D01*
X52303722Y-57924050D01*
X52250700Y-57914223D01*
X52243233Y-57912839D01*
X52235653Y-57913276D01*
X52235652Y-57913276D01*
X52226421Y-57913808D01*
X52205891Y-57914992D01*
X52136733Y-57898944D01*
X52087228Y-57848054D01*
X52080657Y-57833431D01*
X52053767Y-57761703D01*
X52050615Y-57753295D01*
X51963261Y-57636739D01*
X51846705Y-57549385D01*
X51710316Y-57498255D01*
X51648134Y-57491500D01*
X50651866Y-57491500D01*
X50648471Y-57491869D01*
X50648467Y-57491869D01*
X50648100Y-57491909D01*
X50648014Y-57491894D01*
X50645072Y-57492053D01*
X50645034Y-57491359D01*
X50578218Y-57479376D01*
X50526205Y-57431052D01*
X50508500Y-57366645D01*
X50508500Y-50634500D01*
X50528502Y-50566379D01*
X50582158Y-50519886D01*
X50634500Y-50508500D01*
X68165500Y-50508500D01*
X68233621Y-50528502D01*
G37*
%TD.AperFunction*%
%TA.AperFunction,Conductor*%
G36*
X55783621Y-60953502D02*
G01*
X55830114Y-61007158D01*
X55841500Y-61059500D01*
X55841500Y-61298134D01*
X55848255Y-61360316D01*
X55899385Y-61496705D01*
X55986739Y-61613261D01*
X56103295Y-61700615D01*
X56239684Y-61751745D01*
X56301866Y-61758500D01*
X57898134Y-61758500D01*
X57960316Y-61751745D01*
X58096705Y-61700615D01*
X58104483Y-61694786D01*
X58174435Y-61642360D01*
X58240942Y-61617512D01*
X58310324Y-61632565D01*
X58325565Y-61642360D01*
X58395517Y-61694786D01*
X58403295Y-61700615D01*
X58539684Y-61751745D01*
X58598469Y-61758131D01*
X58601866Y-61758500D01*
X58601742Y-61759639D01*
X58664234Y-61781711D01*
X58707768Y-61837794D01*
X58716500Y-61883884D01*
X58716500Y-64915500D01*
X58696498Y-64983621D01*
X58642842Y-65030114D01*
X58590500Y-65041500D01*
X57451866Y-65041500D01*
X57389684Y-65048255D01*
X57253295Y-65099385D01*
X57136739Y-65186739D01*
X57049385Y-65303295D01*
X56998255Y-65439684D01*
X56991500Y-65501866D01*
X56991500Y-67598134D01*
X56998255Y-67660316D01*
X57049385Y-67796705D01*
X57136739Y-67913261D01*
X57253295Y-68000615D01*
X57389684Y-68051745D01*
X57451866Y-68058500D01*
X58590500Y-68058500D01*
X58658621Y-68078502D01*
X58705114Y-68132158D01*
X58716500Y-68184500D01*
X58716500Y-68904121D01*
X58696498Y-68972242D01*
X58642842Y-69018735D01*
X58630377Y-69023644D01*
X58533007Y-69056130D01*
X58533005Y-69056131D01*
X58526054Y-69058450D01*
X58375652Y-69151522D01*
X58250695Y-69276697D01*
X58246855Y-69282927D01*
X58246854Y-69282928D01*
X58202201Y-69355369D01*
X58157885Y-69427262D01*
X58102203Y-69595139D01*
X58091500Y-69699600D01*
X58091500Y-69990500D01*
X58071498Y-70058621D01*
X58017842Y-70105114D01*
X57965500Y-70116500D01*
X54980840Y-70116500D01*
X54912719Y-70096498D01*
X54873696Y-70056803D01*
X54827332Y-69981880D01*
X54823478Y-69975652D01*
X54698303Y-69850695D01*
X54691332Y-69846398D01*
X54553968Y-69761725D01*
X54553966Y-69761724D01*
X54547738Y-69757885D01*
X54387254Y-69704655D01*
X54386389Y-69704368D01*
X54386387Y-69704368D01*
X54379861Y-69702203D01*
X54373025Y-69701503D01*
X54373022Y-69701502D01*
X54323243Y-69696402D01*
X54275400Y-69691500D01*
X53624600Y-69691500D01*
X53621354Y-69691837D01*
X53621350Y-69691837D01*
X53525692Y-69701762D01*
X53525688Y-69701763D01*
X53518834Y-69702474D01*
X53512298Y-69704655D01*
X53512296Y-69704655D01*
X53380194Y-69748728D01*
X53351054Y-69758450D01*
X53200652Y-69851522D01*
X53075695Y-69976697D01*
X52982885Y-70127262D01*
X52927203Y-70295139D01*
X52926503Y-70301975D01*
X52926502Y-70301978D01*
X52925288Y-70313829D01*
X52898446Y-70379556D01*
X52840331Y-70420337D01*
X52769393Y-70423225D01*
X52708155Y-70387303D01*
X52676059Y-70323975D01*
X52674617Y-70313987D01*
X52673238Y-70300693D01*
X52673237Y-70300690D01*
X52672526Y-70293834D01*
X52616550Y-70126054D01*
X52523478Y-69975652D01*
X52398303Y-69850695D01*
X52391332Y-69846398D01*
X52253968Y-69761725D01*
X52253966Y-69761724D01*
X52247738Y-69757885D01*
X52087254Y-69704655D01*
X52086389Y-69704368D01*
X52086387Y-69704368D01*
X52079861Y-69702203D01*
X52073025Y-69701503D01*
X52073022Y-69701502D01*
X52023243Y-69696402D01*
X51975400Y-69691500D01*
X51534999Y-69691500D01*
X51466878Y-69671498D01*
X51420385Y-69617842D01*
X51408999Y-69565500D01*
X51408999Y-67974544D01*
X51429001Y-67906423D01*
X51482657Y-67859930D01*
X51552931Y-67849826D01*
X51617511Y-67879320D01*
X51642142Y-67908239D01*
X51648063Y-67917808D01*
X51657099Y-67929208D01*
X51771829Y-68043739D01*
X51783240Y-68052751D01*
X51921243Y-68137816D01*
X51934424Y-68143963D01*
X52088710Y-68195138D01*
X52102086Y-68198005D01*
X52196438Y-68207672D01*
X52202854Y-68208000D01*
X52527885Y-68208000D01*
X52543124Y-68203525D01*
X52544329Y-68202135D01*
X52546000Y-68194452D01*
X52546000Y-68189884D01*
X53054000Y-68189884D01*
X53058475Y-68205123D01*
X53059865Y-68206328D01*
X53067548Y-68207999D01*
X53397095Y-68207999D01*
X53403614Y-68207662D01*
X53499206Y-68197743D01*
X53512600Y-68194851D01*
X53666784Y-68143412D01*
X53679962Y-68137239D01*
X53817807Y-68051937D01*
X53829208Y-68042901D01*
X53943739Y-67928171D01*
X53952751Y-67916760D01*
X54037816Y-67778757D01*
X54043963Y-67765576D01*
X54095138Y-67611290D01*
X54098005Y-67597914D01*
X54107672Y-67503562D01*
X54108000Y-67497146D01*
X54108000Y-66672115D01*
X54103525Y-66656876D01*
X54102135Y-66655671D01*
X54094452Y-66654000D01*
X53072115Y-66654000D01*
X53056876Y-66658475D01*
X53055671Y-66659865D01*
X53054000Y-66667548D01*
X53054000Y-68189884D01*
X52546000Y-68189884D01*
X52546000Y-66272000D01*
X52566002Y-66203879D01*
X52619658Y-66157386D01*
X52672000Y-66146000D01*
X54089884Y-66146000D01*
X54105123Y-66141525D01*
X54106328Y-66140135D01*
X54107999Y-66132452D01*
X54107999Y-65302905D01*
X54107662Y-65296386D01*
X54097743Y-65200794D01*
X54094851Y-65187400D01*
X54043412Y-65033216D01*
X54037239Y-65020038D01*
X53951937Y-64882193D01*
X53942901Y-64870792D01*
X53828171Y-64756261D01*
X53816760Y-64747249D01*
X53752354Y-64707549D01*
X53704861Y-64654777D01*
X53693437Y-64584706D01*
X53721711Y-64519582D01*
X53752167Y-64493145D01*
X53752339Y-64493039D01*
X53824348Y-64448478D01*
X53949305Y-64323303D01*
X54042115Y-64172738D01*
X54097797Y-64004861D01*
X54108500Y-63900400D01*
X54108500Y-62510305D01*
X54128502Y-62442184D01*
X54145405Y-62421210D01*
X55596210Y-60970405D01*
X55658522Y-60936379D01*
X55685305Y-60933500D01*
X55715500Y-60933500D01*
X55783621Y-60953502D01*
G37*
%TD.AperFunction*%
%TD*%
M02*
