M48
; DRILL file {KiCad (6.0.11)} date Thu Mar  9 16:41:42 2023
; FORMAT={-:-/ absolute / inch / decimal}
; #@! TF.CreationDate,2023-03-09T16:41:42+00:00
; #@! TF.GenerationSoftware,Kicad,Pcbnew,(6.0.11)
; #@! TF.FileFunction,Plated,1,2,PTH
FMAT,2
INCH
; #@! TA.AperFunction,Plated,PTH,ViaDrill
T1C0.0157
; #@! TA.AperFunction,Plated,PTH,ComponentDrill
T2C0.0197
; #@! TA.AperFunction,Plated,PTH,ComponentDrill
T3C0.0217
; #@! TA.AperFunction,Plated,PTH,ComponentDrill
T4C0.0394
%
G90
G05
T1
X2.0787Y-2.7087
X2.0787Y-4.7665
X2.0787Y-4.8453
X2.1339Y-2.9055
X2.1575Y-2.6142
X2.1575Y-5.1732
X2.1609Y-4.7621
X2.1654Y-3.378
X2.1654Y-4.2047
X2.1658Y-3.7318
X2.1732Y-5.3307
X2.1811Y-2.4488
X2.189Y-5.0157
X2.2205Y-2.8346
X2.2362Y-3.3071
X2.2362Y-4.0236
X2.2362Y-4.5984
X2.2441Y-3.6772
X2.252Y-3.9291
X2.2677Y-2.9291
X2.2677Y-4.063
X2.2756Y-3.5591
X2.2835Y-2.7008
X2.3071Y-4.4252
X2.3307Y-4.2677
X2.3386Y-3.0157
X2.3415Y-5.3385
X2.3465Y-4.8819
X2.3465Y-5.5669
X2.3701Y-4.0551
X2.3701Y-4.1467
X2.3937Y-3.6693
X2.3937Y-5.4724
X2.4002Y-3.4479
X2.4016Y-2.8189
X2.4016Y-5.3465
X2.4094Y-2.7087
X2.4094Y-4.0
X2.4252Y-2.4567
X2.4409Y-3.3386
X2.4409Y-3.5748
X2.4409Y-3.937
X2.4409Y-4.063
X2.4409Y-5.2992
X2.4961Y-5.0079
X2.4961Y-5.2992
X2.5039Y-2.378
X2.5079Y-4.7626
X2.5118Y-3.2441
X2.5157Y-4.2402
X2.5197Y-2.6142
X2.5354Y-3.378
X2.5591Y-3.8583
X2.5669Y-4.0551
X2.5984Y-4.7665
T4
X2.0551Y-2.9291
X2.0551Y-3.0291
X2.0551Y-3.1291
X2.0551Y-3.2291
X2.0551Y-3.3291
X2.0551Y-3.4291
X2.0551Y-3.5291
X2.0551Y-3.6291
X2.063Y-4.0157
X2.063Y-4.2283
X2.063Y-4.4252
X2.0787Y-5.2441
X2.0787Y-5.3441
X2.0787Y-5.4441
X2.0787Y-5.5441
X2.1386Y-2.0732
X2.1386Y-2.1732
X2.2386Y-2.0732
X2.2386Y-2.1732
X2.3386Y-2.0732
X2.3386Y-2.1732
X2.4386Y-2.0732
X2.4386Y-2.1732
X2.5276Y-2.7795
X2.5386Y-2.0732
X2.5386Y-2.1732
X2.6024Y-5.2441
X2.6024Y-5.3441
X2.6024Y-5.4441
X2.6024Y-5.5441
X2.6142Y-4.2283
X2.6142Y-4.4252
X2.622Y-2.9291
X2.622Y-3.0291
X2.622Y-3.1291
X2.622Y-3.2291
X2.622Y-3.4091
X2.622Y-3.5091
X2.622Y-3.6091
X2.622Y-3.7091
T2
G00X2.2008Y-5.5291
M15
G01X2.2008Y-5.5035
M16
G05
G00X2.4764Y-5.5291
M15
G01X2.4764Y-5.5035
M16
G05
T3
G00X2.2343Y-5.41
M15
G01X2.2461Y-5.41
M16
G05
G00X2.4311Y-5.41
M15
G01X2.4429Y-5.41
M16
G05
T0
M30
