%TF.GenerationSoftware,KiCad,Pcbnew,(6.0.11)*%
%TF.CreationDate,2023-03-29T15:10:06+01:00*%
%TF.ProjectId,QuadEnv_Components,51756164-456e-4765-9f43-6f6d706f6e65,rev?*%
%TF.SameCoordinates,Original*%
%TF.FileFunction,Soldermask,Top*%
%TF.FilePolarity,Negative*%
%FSLAX46Y46*%
G04 Gerber Fmt 4.6, Leading zero omitted, Abs format (unit mm)*
G04 Created by KiCad (PCBNEW (6.0.11)) date 2023-03-29 15:10:06*
%MOMM*%
%LPD*%
G01*
G04 APERTURE LIST*
G04 Aperture macros list*
%AMRoundRect*
0 Rectangle with rounded corners*
0 $1 Rounding radius*
0 $2 $3 $4 $5 $6 $7 $8 $9 X,Y pos of 4 corners*
0 Add a 4 corners polygon primitive as box body*
4,1,4,$2,$3,$4,$5,$6,$7,$8,$9,$2,$3,0*
0 Add four circle primitives for the rounded corners*
1,1,$1+$1,$2,$3*
1,1,$1+$1,$4,$5*
1,1,$1+$1,$6,$7*
1,1,$1+$1,$8,$9*
0 Add four rect primitives between the rounded corners*
20,1,$1+$1,$2,$3,$4,$5,0*
20,1,$1+$1,$4,$5,$6,$7,0*
20,1,$1+$1,$6,$7,$8,$9,0*
20,1,$1+$1,$8,$9,$2,$3,0*%
G04 Aperture macros list end*
%ADD10RoundRect,0.200000X-0.200000X-0.275000X0.200000X-0.275000X0.200000X0.275000X-0.200000X0.275000X0*%
%ADD11C,1.700000*%
%ADD12RoundRect,0.250000X-0.550000X1.050000X-0.550000X-1.050000X0.550000X-1.050000X0.550000X1.050000X0*%
%ADD13RoundRect,0.250000X0.550000X-1.050000X0.550000X1.050000X-0.550000X1.050000X-0.550000X-1.050000X0*%
%ADD14RoundRect,0.200000X0.275000X-0.200000X0.275000X0.200000X-0.275000X0.200000X-0.275000X-0.200000X0*%
%ADD15RoundRect,0.225000X0.250000X-0.225000X0.250000X0.225000X-0.250000X0.225000X-0.250000X-0.225000X0*%
%ADD16RoundRect,0.225000X-0.250000X0.225000X-0.250000X-0.225000X0.250000X-0.225000X0.250000X0.225000X0*%
%ADD17RoundRect,0.150000X-0.825000X-0.150000X0.825000X-0.150000X0.825000X0.150000X-0.825000X0.150000X0*%
%ADD18RoundRect,0.200000X0.200000X0.275000X-0.200000X0.275000X-0.200000X-0.275000X0.200000X-0.275000X0*%
%ADD19RoundRect,0.250000X0.275000X0.350000X-0.275000X0.350000X-0.275000X-0.350000X0.275000X-0.350000X0*%
%ADD20RoundRect,0.200000X-0.275000X0.200000X-0.275000X-0.200000X0.275000X-0.200000X0.275000X0.200000X0*%
%ADD21R,0.900000X1.200000*%
%ADD22R,1.500000X2.000000*%
%ADD23R,3.800000X2.000000*%
%ADD24R,1.700000X1.700000*%
%ADD25O,1.700000X1.700000*%
%ADD26O,0.950000X1.250000*%
%ADD27O,1.550000X1.000000*%
%ADD28R,1.350000X0.400000*%
%ADD29RoundRect,0.225000X-0.225000X-0.250000X0.225000X-0.250000X0.225000X0.250000X-0.225000X0.250000X0*%
%ADD30RoundRect,0.100000X-0.637500X-0.100000X0.637500X-0.100000X0.637500X0.100000X-0.637500X0.100000X0*%
%ADD31RoundRect,0.075000X-0.662500X-0.075000X0.662500X-0.075000X0.662500X0.075000X-0.662500X0.075000X0*%
%ADD32RoundRect,0.075000X-0.075000X-0.662500X0.075000X-0.662500X0.075000X0.662500X-0.075000X0.662500X0*%
%ADD33RoundRect,0.225000X0.225000X0.250000X-0.225000X0.250000X-0.225000X-0.250000X0.225000X-0.250000X0*%
G04 APERTURE END LIST*
D10*
%TO.C,R22*%
X64975000Y-127470000D03*
X66625000Y-127470000D03*
%TD*%
D11*
%TO.C,TP6*%
X52400000Y-102000000D03*
%TD*%
D12*
%TO.C,C4*%
X52800000Y-62800000D03*
X52800000Y-66400000D03*
%TD*%
D13*
%TO.C,C5*%
X65800000Y-66400000D03*
X65800000Y-62800000D03*
%TD*%
D14*
%TO.C,R3*%
X61800000Y-82625000D03*
X61800000Y-80975000D03*
%TD*%
D15*
%TO.C,C11*%
X57800000Y-110975000D03*
X57800000Y-109425000D03*
%TD*%
D10*
%TO.C,R16*%
X64975000Y-118470000D03*
X66625000Y-118470000D03*
%TD*%
D16*
%TO.C,C7*%
X61000000Y-109425000D03*
X61000000Y-110975000D03*
%TD*%
D17*
%TO.C,U4*%
X56925000Y-118260000D03*
X56925000Y-119530000D03*
X56925000Y-120800000D03*
X56925000Y-122070000D03*
X56925000Y-123340000D03*
X56925000Y-124610000D03*
X56925000Y-125880000D03*
X61875000Y-125880000D03*
X61875000Y-124610000D03*
X61875000Y-123340000D03*
X61875000Y-122070000D03*
X61875000Y-120800000D03*
X61875000Y-119530000D03*
X61875000Y-118260000D03*
%TD*%
D14*
%TO.C,R4*%
X60200000Y-82625000D03*
X60200000Y-80975000D03*
%TD*%
D18*
%TO.C,R9*%
X53825000Y-120270000D03*
X52175000Y-120270000D03*
%TD*%
D11*
%TO.C,TP5*%
X52400000Y-107400000D03*
%TD*%
D19*
%TO.C,L1*%
X53950000Y-70800000D03*
X51650000Y-70800000D03*
%TD*%
D12*
%TO.C,C8*%
X59400000Y-70800000D03*
X59400000Y-74400000D03*
%TD*%
D18*
%TO.C,R17*%
X53825000Y-116670000D03*
X52175000Y-116670000D03*
%TD*%
D20*
%TO.C,R5*%
X57800000Y-94375000D03*
X57800000Y-96025000D03*
%TD*%
D15*
%TO.C,C3*%
X66200000Y-99575000D03*
X66200000Y-98025000D03*
%TD*%
D10*
%TO.C,R24*%
X64975000Y-114870000D03*
X66625000Y-114870000D03*
%TD*%
%TO.C,R11*%
X64975000Y-123870000D03*
X66625000Y-123870000D03*
%TD*%
D15*
%TO.C,C12*%
X59400000Y-110975000D03*
X59400000Y-109425000D03*
%TD*%
D21*
%TO.C,D1*%
X51150000Y-58600000D03*
X54450000Y-58600000D03*
%TD*%
D10*
%TO.C,R12*%
X64975000Y-120270000D03*
X66625000Y-120270000D03*
%TD*%
D21*
%TO.C,D2*%
X64350000Y-58600000D03*
X67650000Y-58600000D03*
%TD*%
D11*
%TO.C,TP3*%
X52400000Y-112400000D03*
%TD*%
D18*
%TO.C,R10*%
X53825000Y-123870000D03*
X52175000Y-123870000D03*
%TD*%
D22*
%TO.C,U2*%
X61700000Y-60250000D03*
D23*
X59400000Y-66550000D03*
D22*
X59400000Y-60250000D03*
X57100000Y-60250000D03*
%TD*%
D11*
%TO.C,TP2*%
X66400000Y-107400000D03*
%TD*%
D18*
%TO.C,R18*%
X53825000Y-114870000D03*
X52175000Y-114870000D03*
%TD*%
D24*
%TO.C,J6*%
X64480000Y-52660000D03*
D25*
X64480000Y-55200000D03*
X61940000Y-52660000D03*
X61940000Y-55200000D03*
X59400000Y-52660000D03*
X59400000Y-55200000D03*
X56860000Y-52660000D03*
X56860000Y-55200000D03*
X54320000Y-52660000D03*
X54320000Y-55200000D03*
%TD*%
D16*
%TO.C,C1*%
X66200000Y-101425000D03*
X66200000Y-102975000D03*
%TD*%
D20*
%TO.C,R1*%
X57000000Y-80975000D03*
X57000000Y-82625000D03*
%TD*%
D26*
%TO.C,J7*%
X55485000Y-147700000D03*
D27*
X52785000Y-148700000D03*
D26*
X55485000Y-142700000D03*
D28*
X55485000Y-143900000D03*
X55485000Y-144550000D03*
X55485000Y-145200000D03*
X55485000Y-145850000D03*
X55485000Y-146500000D03*
D27*
X52785000Y-141700000D03*
%TD*%
D29*
%TO.C,C9*%
X52225000Y-122070000D03*
X53775000Y-122070000D03*
%TD*%
D15*
%TO.C,C6*%
X56200000Y-95975000D03*
X56200000Y-94425000D03*
%TD*%
D30*
%TO.C,U3*%
X56537500Y-85525000D03*
X56537500Y-86175000D03*
X56537500Y-86825000D03*
X56537500Y-87475000D03*
X56537500Y-88125000D03*
X56537500Y-88775000D03*
X56537500Y-89425000D03*
X56537500Y-90075000D03*
X62262500Y-90075000D03*
X62262500Y-89425000D03*
X62262500Y-88775000D03*
X62262500Y-88125000D03*
X62262500Y-87475000D03*
X62262500Y-86825000D03*
X62262500Y-86175000D03*
X62262500Y-85525000D03*
%TD*%
D10*
%TO.C,R13*%
X52175000Y-118470000D03*
X53825000Y-118470000D03*
%TD*%
D16*
%TO.C,C2*%
X64200000Y-109425000D03*
X64200000Y-110975000D03*
%TD*%
D18*
%TO.C,R14*%
X53825000Y-125670000D03*
X52175000Y-125670000D03*
%TD*%
%TO.C,R19*%
X53825000Y-129270000D03*
X52175000Y-129270000D03*
%TD*%
D24*
%TO.C,J5*%
X66600000Y-95610000D03*
D11*
X66600000Y-93070000D03*
X66600000Y-90530000D03*
X66600000Y-87990000D03*
%TD*%
D31*
%TO.C,U1*%
X55237500Y-99850000D03*
X55237500Y-100350000D03*
X55237500Y-100850000D03*
X55237500Y-101350000D03*
X55237500Y-101850000D03*
X55237500Y-102350000D03*
X55237500Y-102850000D03*
X55237500Y-103350000D03*
X55237500Y-103850000D03*
X55237500Y-104350000D03*
X55237500Y-104850000D03*
X55237500Y-105350000D03*
D32*
X56650000Y-106762500D03*
X57150000Y-106762500D03*
X57650000Y-106762500D03*
X58150000Y-106762500D03*
X58650000Y-106762500D03*
X59150000Y-106762500D03*
X59650000Y-106762500D03*
X60150000Y-106762500D03*
X60650000Y-106762500D03*
X61150000Y-106762500D03*
X61650000Y-106762500D03*
X62150000Y-106762500D03*
D31*
X63562500Y-105350000D03*
X63562500Y-104850000D03*
X63562500Y-104350000D03*
X63562500Y-103850000D03*
X63562500Y-103350000D03*
X63562500Y-102850000D03*
X63562500Y-102350000D03*
X63562500Y-101850000D03*
X63562500Y-101350000D03*
X63562500Y-100850000D03*
X63562500Y-100350000D03*
X63562500Y-99850000D03*
D32*
X62150000Y-98437500D03*
X61650000Y-98437500D03*
X61150000Y-98437500D03*
X60650000Y-98437500D03*
X60150000Y-98437500D03*
X59650000Y-98437500D03*
X59150000Y-98437500D03*
X58650000Y-98437500D03*
X58150000Y-98437500D03*
X57650000Y-98437500D03*
X57150000Y-98437500D03*
X56650000Y-98437500D03*
%TD*%
D20*
%TO.C,R2*%
X58600000Y-80975000D03*
X58600000Y-82625000D03*
%TD*%
D10*
%TO.C,R23*%
X64975000Y-116670000D03*
X66625000Y-116670000D03*
%TD*%
D18*
%TO.C,R20*%
X53825000Y-127470000D03*
X52175000Y-127470000D03*
%TD*%
D10*
%TO.C,R21*%
X64975000Y-129270000D03*
X66625000Y-129270000D03*
%TD*%
D11*
%TO.C,TP1*%
X64200000Y-70600000D03*
%TD*%
D33*
%TO.C,C10*%
X66575000Y-122070000D03*
X65025000Y-122070000D03*
%TD*%
D11*
%TO.C,TP4*%
X66400000Y-112400000D03*
%TD*%
D15*
%TO.C,C13*%
X62600000Y-110975000D03*
X62600000Y-109425000D03*
%TD*%
D10*
%TO.C,R15*%
X64975000Y-125670000D03*
X66625000Y-125670000D03*
%TD*%
D24*
%TO.C,J1*%
X52200000Y-74400000D03*
D25*
X52200000Y-76940000D03*
X52200000Y-79480000D03*
X52200000Y-82020000D03*
X52200000Y-84560000D03*
X52200000Y-87100000D03*
%TD*%
D24*
%TO.C,J4*%
X55600000Y-152700000D03*
D25*
X58140000Y-152700000D03*
X60680000Y-152700000D03*
X63220000Y-152700000D03*
%TD*%
D24*
%TO.C,J2*%
X66600000Y-74400000D03*
D25*
X66600000Y-76940000D03*
X66600000Y-79480000D03*
X66600000Y-82020000D03*
X66600000Y-84560000D03*
%TD*%
D24*
%TO.C,J3*%
X63200000Y-137200000D03*
D25*
X60660000Y-137200000D03*
X58120000Y-137200000D03*
X55580000Y-137200000D03*
%TD*%
M02*
