%TF.GenerationSoftware,KiCad,Pcbnew,(6.0.11)*%
%TF.CreationDate,2023-03-09T16:41:40+00:00*%
%TF.ProjectId,QuadEnv_Components,51756164-456e-4765-9f43-6f6d706f6e65,rev?*%
%TF.SameCoordinates,Original*%
%TF.FileFunction,Legend,Top*%
%TF.FilePolarity,Positive*%
%FSLAX46Y46*%
G04 Gerber Fmt 4.6, Leading zero omitted, Abs format (unit mm)*
G04 Created by KiCad (PCBNEW (6.0.11)) date 2023-03-09 16:41:40*
%MOMM*%
%LPD*%
G01*
G04 APERTURE LIST*
%ADD10C,0.150000*%
%ADD11C,0.475000*%
%ADD12C,0.120000*%
G04 APERTURE END LIST*
D10*
X56352380Y-131042380D02*
X56352380Y-130042380D01*
X56685714Y-130756666D01*
X57019047Y-130042380D01*
X57019047Y-131042380D01*
X57638095Y-131042380D02*
X57542857Y-130994761D01*
X57495238Y-130947142D01*
X57447619Y-130851904D01*
X57447619Y-130566190D01*
X57495238Y-130470952D01*
X57542857Y-130423333D01*
X57638095Y-130375714D01*
X57780952Y-130375714D01*
X57876190Y-130423333D01*
X57923809Y-130470952D01*
X57971428Y-130566190D01*
X57971428Y-130851904D01*
X57923809Y-130947142D01*
X57876190Y-130994761D01*
X57780952Y-131042380D01*
X57638095Y-131042380D01*
X58828571Y-130375714D02*
X58828571Y-131042380D01*
X58400000Y-130375714D02*
X58400000Y-130899523D01*
X58447619Y-130994761D01*
X58542857Y-131042380D01*
X58685714Y-131042380D01*
X58780952Y-130994761D01*
X58828571Y-130947142D01*
X59304761Y-130375714D02*
X59304761Y-131042380D01*
X59304761Y-130470952D02*
X59352380Y-130423333D01*
X59447619Y-130375714D01*
X59590476Y-130375714D01*
X59685714Y-130423333D01*
X59733333Y-130518571D01*
X59733333Y-131042380D01*
X60066666Y-130375714D02*
X60447619Y-130375714D01*
X60209523Y-130042380D02*
X60209523Y-130899523D01*
X60257142Y-130994761D01*
X60352380Y-131042380D01*
X60447619Y-131042380D01*
X60780952Y-130375714D02*
X60780952Y-131232857D01*
X60733333Y-131328095D01*
X60638095Y-131375714D01*
X60590476Y-131375714D01*
X60780952Y-130042380D02*
X60733333Y-130090000D01*
X60780952Y-130137619D01*
X60828571Y-130090000D01*
X60780952Y-130042380D01*
X60780952Y-130137619D01*
X61400000Y-131042380D02*
X61304761Y-130994761D01*
X61257142Y-130947142D01*
X61209523Y-130851904D01*
X61209523Y-130566190D01*
X61257142Y-130470952D01*
X61304761Y-130423333D01*
X61400000Y-130375714D01*
X61542857Y-130375714D01*
X61638095Y-130423333D01*
X61685714Y-130470952D01*
X61733333Y-130566190D01*
X61733333Y-130851904D01*
X61685714Y-130947142D01*
X61638095Y-130994761D01*
X61542857Y-131042380D01*
X61400000Y-131042380D01*
X62066666Y-130375714D02*
X62304761Y-131042380D01*
X62542857Y-130375714D02*
X62304761Y-131042380D01*
X62209523Y-131280476D01*
X62161904Y-131328095D01*
X62066666Y-131375714D01*
X56685714Y-132652380D02*
X56685714Y-131652380D01*
X57019047Y-132366666D01*
X57352380Y-131652380D01*
X57352380Y-132652380D01*
X57971428Y-132652380D02*
X57876190Y-132604761D01*
X57828571Y-132557142D01*
X57780952Y-132461904D01*
X57780952Y-132176190D01*
X57828571Y-132080952D01*
X57876190Y-132033333D01*
X57971428Y-131985714D01*
X58114285Y-131985714D01*
X58209523Y-132033333D01*
X58257142Y-132080952D01*
X58304761Y-132176190D01*
X58304761Y-132461904D01*
X58257142Y-132557142D01*
X58209523Y-132604761D01*
X58114285Y-132652380D01*
X57971428Y-132652380D01*
X59161904Y-132652380D02*
X59161904Y-131652380D01*
X59161904Y-132604761D02*
X59066666Y-132652380D01*
X58876190Y-132652380D01*
X58780952Y-132604761D01*
X58733333Y-132557142D01*
X58685714Y-132461904D01*
X58685714Y-132176190D01*
X58733333Y-132080952D01*
X58780952Y-132033333D01*
X58876190Y-131985714D01*
X59066666Y-131985714D01*
X59161904Y-132033333D01*
X60066666Y-131985714D02*
X60066666Y-132652380D01*
X59638095Y-131985714D02*
X59638095Y-132509523D01*
X59685714Y-132604761D01*
X59780952Y-132652380D01*
X59923809Y-132652380D01*
X60019047Y-132604761D01*
X60066666Y-132557142D01*
X60685714Y-132652380D02*
X60590476Y-132604761D01*
X60542857Y-132509523D01*
X60542857Y-131652380D01*
X61495238Y-132652380D02*
X61495238Y-132128571D01*
X61447619Y-132033333D01*
X61352380Y-131985714D01*
X61161904Y-131985714D01*
X61066666Y-132033333D01*
X61495238Y-132604761D02*
X61400000Y-132652380D01*
X61161904Y-132652380D01*
X61066666Y-132604761D01*
X61019047Y-132509523D01*
X61019047Y-132414285D01*
X61066666Y-132319047D01*
X61161904Y-132271428D01*
X61400000Y-132271428D01*
X61495238Y-132223809D01*
X61971428Y-132652380D02*
X61971428Y-131985714D01*
X61971428Y-132176190D02*
X62019047Y-132080952D01*
X62066666Y-132033333D01*
X62161904Y-131985714D01*
X62257142Y-131985714D01*
X57685714Y-133357619D02*
X57733333Y-133310000D01*
X57828571Y-133262380D01*
X58066666Y-133262380D01*
X58161904Y-133310000D01*
X58209523Y-133357619D01*
X58257142Y-133452857D01*
X58257142Y-133548095D01*
X58209523Y-133690952D01*
X57638095Y-134262380D01*
X58257142Y-134262380D01*
X58876190Y-133262380D02*
X58971428Y-133262380D01*
X59066666Y-133310000D01*
X59114285Y-133357619D01*
X59161904Y-133452857D01*
X59209523Y-133643333D01*
X59209523Y-133881428D01*
X59161904Y-134071904D01*
X59114285Y-134167142D01*
X59066666Y-134214761D01*
X58971428Y-134262380D01*
X58876190Y-134262380D01*
X58780952Y-134214761D01*
X58733333Y-134167142D01*
X58685714Y-134071904D01*
X58638095Y-133881428D01*
X58638095Y-133643333D01*
X58685714Y-133452857D01*
X58733333Y-133357619D01*
X58780952Y-133310000D01*
X58876190Y-133262380D01*
X59590476Y-133357619D02*
X59638095Y-133310000D01*
X59733333Y-133262380D01*
X59971428Y-133262380D01*
X60066666Y-133310000D01*
X60114285Y-133357619D01*
X60161904Y-133452857D01*
X60161904Y-133548095D01*
X60114285Y-133690952D01*
X59542857Y-134262380D01*
X60161904Y-134262380D01*
X60495238Y-133262380D02*
X61114285Y-133262380D01*
X60780952Y-133643333D01*
X60923809Y-133643333D01*
X61019047Y-133690952D01*
X61066666Y-133738571D01*
X61114285Y-133833809D01*
X61114285Y-134071904D01*
X61066666Y-134167142D01*
X61019047Y-134214761D01*
X60923809Y-134262380D01*
X60638095Y-134262380D01*
X60542857Y-134214761D01*
X60495238Y-134167142D01*
X67252380Y-137333333D02*
X67966666Y-137333333D01*
X68109523Y-137380952D01*
X68204761Y-137476190D01*
X68252380Y-137619047D01*
X68252380Y-137714285D01*
X67585714Y-136428571D02*
X68252380Y-136428571D01*
X67204761Y-136666666D02*
X67919047Y-136904761D01*
X67919047Y-136285714D01*
X50452380Y-137333333D02*
X51166666Y-137333333D01*
X51309523Y-137380952D01*
X51404761Y-137476190D01*
X51452380Y-137619047D01*
X51452380Y-137714285D01*
X50547619Y-136904761D02*
X50500000Y-136857142D01*
X50452380Y-136761904D01*
X50452380Y-136523809D01*
X50500000Y-136428571D01*
X50547619Y-136380952D01*
X50642857Y-136333333D01*
X50738095Y-136333333D01*
X50880952Y-136380952D01*
X51452380Y-136952380D01*
X51452380Y-136333333D01*
X51866666Y-94252380D02*
X51866666Y-94966666D01*
X51819047Y-95109523D01*
X51723809Y-95204761D01*
X51580952Y-95252380D01*
X51485714Y-95252380D01*
X52866666Y-95252380D02*
X52295238Y-95252380D01*
X52580952Y-95252380D02*
X52580952Y-94252380D01*
X52485714Y-94395238D01*
X52390476Y-94490476D01*
X52295238Y-94538095D01*
X66266666Y-71252380D02*
X66266666Y-71966666D01*
X66219047Y-72109523D01*
X66123809Y-72204761D01*
X65980952Y-72252380D01*
X65885714Y-72252380D01*
X66647619Y-71252380D02*
X67266666Y-71252380D01*
X66933333Y-71633333D01*
X67076190Y-71633333D01*
X67171428Y-71680952D01*
X67219047Y-71728571D01*
X67266666Y-71823809D01*
X67266666Y-72061904D01*
X67219047Y-72157142D01*
X67171428Y-72204761D01*
X67076190Y-72252380D01*
X66790476Y-72252380D01*
X66695238Y-72204761D01*
X66647619Y-72157142D01*
D11*
X55237500Y-118200000D02*
G75*
G03*
X55237500Y-118200000I-237500J0D01*
G01*
X54637500Y-98600000D02*
G75*
G03*
X54637500Y-98600000I-237500J0D01*
G01*
X55037500Y-85200000D02*
G75*
G03*
X55037500Y-85200000I-237500J0D01*
G01*
D10*
%TO.C,TP6*%
X52852380Y-100038095D02*
X52376190Y-100371428D01*
X52852380Y-100609523D02*
X51852380Y-100609523D01*
X51852380Y-100228571D01*
X51900000Y-100133333D01*
X51947619Y-100085714D01*
X52042857Y-100038095D01*
X52185714Y-100038095D01*
X52280952Y-100085714D01*
X52328571Y-100133333D01*
X52376190Y-100228571D01*
X52376190Y-100609523D01*
X52804761Y-99228571D02*
X52852380Y-99323809D01*
X52852380Y-99514285D01*
X52804761Y-99609523D01*
X52709523Y-99657142D01*
X52328571Y-99657142D01*
X52233333Y-99609523D01*
X52185714Y-99514285D01*
X52185714Y-99323809D01*
X52233333Y-99228571D01*
X52328571Y-99180952D01*
X52423809Y-99180952D01*
X52519047Y-99657142D01*
X52804761Y-98800000D02*
X52852380Y-98704761D01*
X52852380Y-98514285D01*
X52804761Y-98419047D01*
X52709523Y-98371428D01*
X52661904Y-98371428D01*
X52566666Y-98419047D01*
X52519047Y-98514285D01*
X52519047Y-98657142D01*
X52471428Y-98752380D01*
X52376190Y-98800000D01*
X52328571Y-98800000D01*
X52233333Y-98752380D01*
X52185714Y-98657142D01*
X52185714Y-98514285D01*
X52233333Y-98419047D01*
X52804761Y-97561904D02*
X52852380Y-97657142D01*
X52852380Y-97847619D01*
X52804761Y-97942857D01*
X52709523Y-97990476D01*
X52328571Y-97990476D01*
X52233333Y-97942857D01*
X52185714Y-97847619D01*
X52185714Y-97657142D01*
X52233333Y-97561904D01*
X52328571Y-97514285D01*
X52423809Y-97514285D01*
X52519047Y-97990476D01*
X52185714Y-97228571D02*
X52185714Y-96847619D01*
X51852380Y-97085714D02*
X52709523Y-97085714D01*
X52804761Y-97038095D01*
X52852380Y-96942857D01*
X52852380Y-96847619D01*
%TO.C,C13*%
X62957142Y-113842857D02*
X63004761Y-113890476D01*
X63052380Y-114033333D01*
X63052380Y-114128571D01*
X63004761Y-114271428D01*
X62909523Y-114366666D01*
X62814285Y-114414285D01*
X62623809Y-114461904D01*
X62480952Y-114461904D01*
X62290476Y-114414285D01*
X62195238Y-114366666D01*
X62100000Y-114271428D01*
X62052380Y-114128571D01*
X62052380Y-114033333D01*
X62100000Y-113890476D01*
X62147619Y-113842857D01*
X63052380Y-112890476D02*
X63052380Y-113461904D01*
X63052380Y-113176190D02*
X62052380Y-113176190D01*
X62195238Y-113271428D01*
X62290476Y-113366666D01*
X62338095Y-113461904D01*
X62052380Y-112557142D02*
X62052380Y-111938095D01*
X62433333Y-112271428D01*
X62433333Y-112128571D01*
X62480952Y-112033333D01*
X62528571Y-111985714D01*
X62623809Y-111938095D01*
X62861904Y-111938095D01*
X62957142Y-111985714D01*
X63004761Y-112033333D01*
X63052380Y-112128571D01*
X63052380Y-112414285D01*
X63004761Y-112509523D01*
X62957142Y-112557142D01*
%TO.C,L1*%
X52633333Y-69652380D02*
X52157142Y-69652380D01*
X52157142Y-68652380D01*
X53490476Y-69652380D02*
X52919047Y-69652380D01*
X53204761Y-69652380D02*
X53204761Y-68652380D01*
X53109523Y-68795238D01*
X53014285Y-68890476D01*
X52919047Y-68938095D01*
%TO.C,R5*%
X58252380Y-92766666D02*
X57776190Y-93100000D01*
X58252380Y-93338095D02*
X57252380Y-93338095D01*
X57252380Y-92957142D01*
X57300000Y-92861904D01*
X57347619Y-92814285D01*
X57442857Y-92766666D01*
X57585714Y-92766666D01*
X57680952Y-92814285D01*
X57728571Y-92861904D01*
X57776190Y-92957142D01*
X57776190Y-93338095D01*
X57252380Y-91861904D02*
X57252380Y-92338095D01*
X57728571Y-92385714D01*
X57680952Y-92338095D01*
X57633333Y-92242857D01*
X57633333Y-92004761D01*
X57680952Y-91909523D01*
X57728571Y-91861904D01*
X57823809Y-91814285D01*
X58061904Y-91814285D01*
X58157142Y-91861904D01*
X58204761Y-91909523D01*
X58252380Y-92004761D01*
X58252380Y-92242857D01*
X58204761Y-92338095D01*
X58157142Y-92385714D01*
%TO.C,R4*%
X60652380Y-79566666D02*
X60176190Y-79900000D01*
X60652380Y-80138095D02*
X59652380Y-80138095D01*
X59652380Y-79757142D01*
X59700000Y-79661904D01*
X59747619Y-79614285D01*
X59842857Y-79566666D01*
X59985714Y-79566666D01*
X60080952Y-79614285D01*
X60128571Y-79661904D01*
X60176190Y-79757142D01*
X60176190Y-80138095D01*
X59985714Y-78709523D02*
X60652380Y-78709523D01*
X59604761Y-78947619D02*
X60319047Y-79185714D01*
X60319047Y-78566666D01*
%TO.C,R3*%
X62252380Y-79566666D02*
X61776190Y-79900000D01*
X62252380Y-80138095D02*
X61252380Y-80138095D01*
X61252380Y-79757142D01*
X61300000Y-79661904D01*
X61347619Y-79614285D01*
X61442857Y-79566666D01*
X61585714Y-79566666D01*
X61680952Y-79614285D01*
X61728571Y-79661904D01*
X61776190Y-79757142D01*
X61776190Y-80138095D01*
X61252380Y-79233333D02*
X61252380Y-78614285D01*
X61633333Y-78947619D01*
X61633333Y-78804761D01*
X61680952Y-78709523D01*
X61728571Y-78661904D01*
X61823809Y-78614285D01*
X62061904Y-78614285D01*
X62157142Y-78661904D01*
X62204761Y-78709523D01*
X62252380Y-78804761D01*
X62252380Y-79090476D01*
X62204761Y-79185714D01*
X62157142Y-79233333D01*
%TO.C,R2*%
X59052380Y-79566666D02*
X58576190Y-79900000D01*
X59052380Y-80138095D02*
X58052380Y-80138095D01*
X58052380Y-79757142D01*
X58100000Y-79661904D01*
X58147619Y-79614285D01*
X58242857Y-79566666D01*
X58385714Y-79566666D01*
X58480952Y-79614285D01*
X58528571Y-79661904D01*
X58576190Y-79757142D01*
X58576190Y-80138095D01*
X58147619Y-79185714D02*
X58100000Y-79138095D01*
X58052380Y-79042857D01*
X58052380Y-78804761D01*
X58100000Y-78709523D01*
X58147619Y-78661904D01*
X58242857Y-78614285D01*
X58338095Y-78614285D01*
X58480952Y-78661904D01*
X59052380Y-79233333D01*
X59052380Y-78614285D01*
%TO.C,R1*%
X57452380Y-79566666D02*
X56976190Y-79900000D01*
X57452380Y-80138095D02*
X56452380Y-80138095D01*
X56452380Y-79757142D01*
X56500000Y-79661904D01*
X56547619Y-79614285D01*
X56642857Y-79566666D01*
X56785714Y-79566666D01*
X56880952Y-79614285D01*
X56928571Y-79661904D01*
X56976190Y-79757142D01*
X56976190Y-80138095D01*
X57452380Y-78614285D02*
X57452380Y-79185714D01*
X57452380Y-78900000D02*
X56452380Y-78900000D01*
X56595238Y-78995238D01*
X56690476Y-79090476D01*
X56738095Y-79185714D01*
%TO.C,C12*%
X59757142Y-113842857D02*
X59804761Y-113890476D01*
X59852380Y-114033333D01*
X59852380Y-114128571D01*
X59804761Y-114271428D01*
X59709523Y-114366666D01*
X59614285Y-114414285D01*
X59423809Y-114461904D01*
X59280952Y-114461904D01*
X59090476Y-114414285D01*
X58995238Y-114366666D01*
X58900000Y-114271428D01*
X58852380Y-114128571D01*
X58852380Y-114033333D01*
X58900000Y-113890476D01*
X58947619Y-113842857D01*
X59852380Y-112890476D02*
X59852380Y-113461904D01*
X59852380Y-113176190D02*
X58852380Y-113176190D01*
X58995238Y-113271428D01*
X59090476Y-113366666D01*
X59138095Y-113461904D01*
X58947619Y-112509523D02*
X58900000Y-112461904D01*
X58852380Y-112366666D01*
X58852380Y-112128571D01*
X58900000Y-112033333D01*
X58947619Y-111985714D01*
X59042857Y-111938095D01*
X59138095Y-111938095D01*
X59280952Y-111985714D01*
X59852380Y-112557142D01*
X59852380Y-111938095D01*
%TO.C,C11*%
X58157142Y-113642857D02*
X58204761Y-113690476D01*
X58252380Y-113833333D01*
X58252380Y-113928571D01*
X58204761Y-114071428D01*
X58109523Y-114166666D01*
X58014285Y-114214285D01*
X57823809Y-114261904D01*
X57680952Y-114261904D01*
X57490476Y-114214285D01*
X57395238Y-114166666D01*
X57300000Y-114071428D01*
X57252380Y-113928571D01*
X57252380Y-113833333D01*
X57300000Y-113690476D01*
X57347619Y-113642857D01*
X58252380Y-112690476D02*
X58252380Y-113261904D01*
X58252380Y-112976190D02*
X57252380Y-112976190D01*
X57395238Y-113071428D01*
X57490476Y-113166666D01*
X57538095Y-113261904D01*
X58252380Y-111738095D02*
X58252380Y-112309523D01*
X58252380Y-112023809D02*
X57252380Y-112023809D01*
X57395238Y-112119047D01*
X57490476Y-112214285D01*
X57538095Y-112309523D01*
%TO.C,C7*%
X61357142Y-112966666D02*
X61404761Y-113014285D01*
X61452380Y-113157142D01*
X61452380Y-113252380D01*
X61404761Y-113395238D01*
X61309523Y-113490476D01*
X61214285Y-113538095D01*
X61023809Y-113585714D01*
X60880952Y-113585714D01*
X60690476Y-113538095D01*
X60595238Y-113490476D01*
X60500000Y-113395238D01*
X60452380Y-113252380D01*
X60452380Y-113157142D01*
X60500000Y-113014285D01*
X60547619Y-112966666D01*
X60452380Y-112633333D02*
X60452380Y-111966666D01*
X61452380Y-112395238D01*
%TO.C,C6*%
X56557142Y-92766666D02*
X56604761Y-92814285D01*
X56652380Y-92957142D01*
X56652380Y-93052380D01*
X56604761Y-93195238D01*
X56509523Y-93290476D01*
X56414285Y-93338095D01*
X56223809Y-93385714D01*
X56080952Y-93385714D01*
X55890476Y-93338095D01*
X55795238Y-93290476D01*
X55700000Y-93195238D01*
X55652380Y-93052380D01*
X55652380Y-92957142D01*
X55700000Y-92814285D01*
X55747619Y-92766666D01*
X55652380Y-91909523D02*
X55652380Y-92100000D01*
X55700000Y-92195238D01*
X55747619Y-92242857D01*
X55890476Y-92338095D01*
X56080952Y-92385714D01*
X56461904Y-92385714D01*
X56557142Y-92338095D01*
X56604761Y-92290476D01*
X56652380Y-92195238D01*
X56652380Y-92004761D01*
X56604761Y-91909523D01*
X56557142Y-91861904D01*
X56461904Y-91814285D01*
X56223809Y-91814285D01*
X56128571Y-91861904D01*
X56080952Y-91909523D01*
X56033333Y-92004761D01*
X56033333Y-92195238D01*
X56080952Y-92290476D01*
X56128571Y-92338095D01*
X56223809Y-92385714D01*
%TO.C,C3*%
X67957142Y-98966666D02*
X68004761Y-99014285D01*
X68052380Y-99157142D01*
X68052380Y-99252380D01*
X68004761Y-99395238D01*
X67909523Y-99490476D01*
X67814285Y-99538095D01*
X67623809Y-99585714D01*
X67480952Y-99585714D01*
X67290476Y-99538095D01*
X67195238Y-99490476D01*
X67100000Y-99395238D01*
X67052380Y-99252380D01*
X67052380Y-99157142D01*
X67100000Y-99014285D01*
X67147619Y-98966666D01*
X67052380Y-98633333D02*
X67052380Y-98014285D01*
X67433333Y-98347619D01*
X67433333Y-98204761D01*
X67480952Y-98109523D01*
X67528571Y-98061904D01*
X67623809Y-98014285D01*
X67861904Y-98014285D01*
X67957142Y-98061904D01*
X68004761Y-98109523D01*
X68052380Y-98204761D01*
X68052380Y-98490476D01*
X68004761Y-98585714D01*
X67957142Y-98633333D01*
%TO.C,C2*%
X64557142Y-112966666D02*
X64604761Y-113014285D01*
X64652380Y-113157142D01*
X64652380Y-113252380D01*
X64604761Y-113395238D01*
X64509523Y-113490476D01*
X64414285Y-113538095D01*
X64223809Y-113585714D01*
X64080952Y-113585714D01*
X63890476Y-113538095D01*
X63795238Y-113490476D01*
X63700000Y-113395238D01*
X63652380Y-113252380D01*
X63652380Y-113157142D01*
X63700000Y-113014285D01*
X63747619Y-112966666D01*
X63747619Y-112585714D02*
X63700000Y-112538095D01*
X63652380Y-112442857D01*
X63652380Y-112204761D01*
X63700000Y-112109523D01*
X63747619Y-112061904D01*
X63842857Y-112014285D01*
X63938095Y-112014285D01*
X64080952Y-112061904D01*
X64652380Y-112633333D01*
X64652380Y-112014285D01*
%TO.C,C1*%
X67987142Y-102366666D02*
X68034761Y-102414285D01*
X68082380Y-102557142D01*
X68082380Y-102652380D01*
X68034761Y-102795238D01*
X67939523Y-102890476D01*
X67844285Y-102938095D01*
X67653809Y-102985714D01*
X67510952Y-102985714D01*
X67320476Y-102938095D01*
X67225238Y-102890476D01*
X67130000Y-102795238D01*
X67082380Y-102652380D01*
X67082380Y-102557142D01*
X67130000Y-102414285D01*
X67177619Y-102366666D01*
X68082380Y-101414285D02*
X68082380Y-101985714D01*
X68082380Y-101700000D02*
X67082380Y-101700000D01*
X67225238Y-101795238D01*
X67320476Y-101890476D01*
X67368095Y-101985714D01*
%TO.C,J5*%
X64009523Y-86957142D02*
X63961904Y-87004761D01*
X63819047Y-87052380D01*
X63723809Y-87052380D01*
X63580952Y-87004761D01*
X63485714Y-86909523D01*
X63438095Y-86814285D01*
X63390476Y-86623809D01*
X63390476Y-86480952D01*
X63438095Y-86290476D01*
X63485714Y-86195238D01*
X63580952Y-86100000D01*
X63723809Y-86052380D01*
X63819047Y-86052380D01*
X63961904Y-86100000D01*
X64009523Y-86147619D01*
X64438095Y-87052380D02*
X64438095Y-86052380D01*
X65009523Y-87052380D02*
X64580952Y-86480952D01*
X65009523Y-86052380D02*
X64438095Y-86623809D01*
X64076190Y-89652380D02*
X64076190Y-88652380D01*
X64742857Y-88652380D02*
X64933333Y-88652380D01*
X65028571Y-88700000D01*
X65123809Y-88795238D01*
X65171428Y-88985714D01*
X65171428Y-89319047D01*
X65123809Y-89509523D01*
X65028571Y-89604761D01*
X64933333Y-89652380D01*
X64742857Y-89652380D01*
X64647619Y-89604761D01*
X64552380Y-89509523D01*
X64504761Y-89319047D01*
X64504761Y-88985714D01*
X64552380Y-88795238D01*
X64647619Y-88700000D01*
X64742857Y-88652380D01*
X64861904Y-91170000D02*
X64766666Y-91122380D01*
X64623809Y-91122380D01*
X64480952Y-91170000D01*
X64385714Y-91265238D01*
X64338095Y-91360476D01*
X64290476Y-91550952D01*
X64290476Y-91693809D01*
X64338095Y-91884285D01*
X64385714Y-91979523D01*
X64480952Y-92074761D01*
X64623809Y-92122380D01*
X64719047Y-92122380D01*
X64861904Y-92074761D01*
X64909523Y-92027142D01*
X64909523Y-91693809D01*
X64719047Y-91693809D01*
X62561904Y-93652380D02*
X63180952Y-93652380D01*
X62847619Y-94033333D01*
X62990476Y-94033333D01*
X63085714Y-94080952D01*
X63133333Y-94128571D01*
X63180952Y-94223809D01*
X63180952Y-94461904D01*
X63133333Y-94557142D01*
X63085714Y-94604761D01*
X62990476Y-94652380D01*
X62704761Y-94652380D01*
X62609523Y-94604761D01*
X62561904Y-94557142D01*
X63466666Y-93652380D02*
X63800000Y-94652380D01*
X64133333Y-93652380D01*
X64371428Y-93652380D02*
X64990476Y-93652380D01*
X64657142Y-94033333D01*
X64800000Y-94033333D01*
X64895238Y-94080952D01*
X64942857Y-94128571D01*
X64990476Y-94223809D01*
X64990476Y-94461904D01*
X64942857Y-94557142D01*
X64895238Y-94604761D01*
X64800000Y-94652380D01*
X64514285Y-94652380D01*
X64419047Y-94604761D01*
X64371428Y-94557142D01*
%TO.C,C8*%
X62957142Y-72766666D02*
X63004761Y-72814285D01*
X63052380Y-72957142D01*
X63052380Y-73052380D01*
X63004761Y-73195238D01*
X62909523Y-73290476D01*
X62814285Y-73338095D01*
X62623809Y-73385714D01*
X62480952Y-73385714D01*
X62290476Y-73338095D01*
X62195238Y-73290476D01*
X62100000Y-73195238D01*
X62052380Y-73052380D01*
X62052380Y-72957142D01*
X62100000Y-72814285D01*
X62147619Y-72766666D01*
X62480952Y-72195238D02*
X62433333Y-72290476D01*
X62385714Y-72338095D01*
X62290476Y-72385714D01*
X62242857Y-72385714D01*
X62147619Y-72338095D01*
X62100000Y-72290476D01*
X62052380Y-72195238D01*
X62052380Y-72004761D01*
X62100000Y-71909523D01*
X62147619Y-71861904D01*
X62242857Y-71814285D01*
X62290476Y-71814285D01*
X62385714Y-71861904D01*
X62433333Y-71909523D01*
X62480952Y-72004761D01*
X62480952Y-72195238D01*
X62528571Y-72290476D01*
X62576190Y-72338095D01*
X62671428Y-72385714D01*
X62861904Y-72385714D01*
X62957142Y-72338095D01*
X63004761Y-72290476D01*
X63052380Y-72195238D01*
X63052380Y-72004761D01*
X63004761Y-71909523D01*
X62957142Y-71861904D01*
X62861904Y-71814285D01*
X62671428Y-71814285D01*
X62576190Y-71861904D01*
X62528571Y-71909523D01*
X62480952Y-72004761D01*
%TO.C,kibuzzard-640A0C12*%
G36*
X55995470Y-129490212D02*
G01*
X55908636Y-129477331D01*
X55823483Y-129456001D01*
X55740831Y-129426428D01*
X55661475Y-129388895D01*
X55586180Y-129343765D01*
X55515671Y-129291473D01*
X55450628Y-129232520D01*
X55391676Y-129167477D01*
X55339383Y-129096968D01*
X55294253Y-129021673D01*
X55256720Y-128942318D01*
X55227147Y-128859665D01*
X55205817Y-128774512D01*
X55192937Y-128687678D01*
X55188629Y-128600000D01*
X55190495Y-128562018D01*
X56281586Y-128562018D01*
X56288734Y-128666361D01*
X56309147Y-128762350D01*
X56342822Y-128849985D01*
X56388642Y-128927026D01*
X56445486Y-128991234D01*
X56513355Y-129042609D01*
X56590094Y-129080074D01*
X56673552Y-129102553D01*
X56763727Y-129110046D01*
X56848993Y-129103070D01*
X57089288Y-129296082D01*
X57237341Y-129165082D01*
X57049756Y-129017804D01*
X57130565Y-128935735D01*
X57191608Y-128830606D01*
X57200299Y-128805414D01*
X57393146Y-128805414D01*
X57412040Y-128936995D01*
X57465622Y-129032532D01*
X57552535Y-129090668D01*
X57671423Y-129110046D01*
X57762029Y-129098850D01*
X57838511Y-129065260D01*
X57900867Y-129009277D01*
X57907068Y-129094543D01*
X58117908Y-129094543D01*
X58117908Y-128858899D01*
X58253558Y-128858899D01*
X58273809Y-128958118D01*
X58334561Y-129038733D01*
X58426125Y-129092218D01*
X58538812Y-129110046D01*
X58656828Y-129087373D01*
X58750427Y-129019354D01*
X58772907Y-129094543D01*
X58999249Y-129094543D01*
X58999249Y-129081366D01*
X58974638Y-129005595D01*
X58965918Y-128900757D01*
X58965918Y-128668988D01*
X59103119Y-128668988D01*
X59113067Y-128797361D01*
X59142910Y-128905494D01*
X59192648Y-128993387D01*
X59258837Y-129058198D01*
X59338031Y-129097084D01*
X59430231Y-129110046D01*
X59512741Y-129098419D01*
X59584571Y-129063538D01*
X59645722Y-129005402D01*
X59656574Y-129094543D01*
X59858887Y-129094543D01*
X60047247Y-129094543D01*
X60803790Y-129094543D01*
X60920838Y-129094543D01*
X61144855Y-129094543D01*
X61144855Y-128503107D01*
X61203960Y-128442645D01*
X61286707Y-128422491D01*
X61389801Y-128454660D01*
X61420807Y-128558142D01*
X61420807Y-129094543D01*
X61644824Y-129094543D01*
X61644824Y-128552716D01*
X61627384Y-128416290D01*
X61578162Y-128318622D01*
X61495996Y-128259904D01*
X61471823Y-128255835D01*
X61738617Y-128255835D01*
X62021546Y-129094543D01*
X62235486Y-129094543D01*
X62518414Y-128255835D01*
X62284320Y-128255835D01*
X62128516Y-128820917D01*
X61972711Y-128255835D01*
X61738617Y-128255835D01*
X61471823Y-128255835D01*
X61379724Y-128240332D01*
X61285759Y-128252821D01*
X61205402Y-128290286D01*
X61138654Y-128352728D01*
X61131677Y-128255835D01*
X60920838Y-128255835D01*
X60920838Y-129094543D01*
X60803790Y-129094543D01*
X60803790Y-128907733D01*
X60279791Y-128907733D01*
X60279791Y-128605426D01*
X60726276Y-128605426D01*
X60726276Y-128423267D01*
X60279791Y-128423267D01*
X60279791Y-128154291D01*
X60802240Y-128154291D01*
X60802240Y-127965930D01*
X60047247Y-127965930D01*
X60047247Y-129094543D01*
X59858887Y-129094543D01*
X59858887Y-127903918D01*
X59634094Y-127903918D01*
X59634094Y-128331799D01*
X59543596Y-128263199D01*
X59431781Y-128240332D01*
X59337170Y-128253251D01*
X59256943Y-128292008D01*
X59191098Y-128356604D01*
X59142221Y-128442990D01*
X59112894Y-128547118D01*
X59103119Y-128668988D01*
X58965918Y-128668988D01*
X58965918Y-128537213D01*
X58943148Y-128411930D01*
X58874838Y-128318234D01*
X58807013Y-128274955D01*
X58724977Y-128248988D01*
X58628729Y-128240332D01*
X58531448Y-128249149D01*
X58444244Y-128275601D01*
X58371381Y-128317556D01*
X58317120Y-128372882D01*
X58283402Y-128437607D01*
X58272162Y-128507758D01*
X58496179Y-128507758D01*
X58528348Y-128433344D01*
X58617102Y-128406213D01*
X58711282Y-128441095D01*
X58741126Y-128534113D01*
X58741126Y-128582172D01*
X58638031Y-128582172D01*
X58523266Y-128590526D01*
X58428053Y-128614556D01*
X58352390Y-128654260D01*
X58278266Y-128741077D01*
X58253558Y-128858899D01*
X58117908Y-128858899D01*
X58117908Y-128255835D01*
X57893115Y-128255835D01*
X57893115Y-128849597D01*
X57832654Y-128908896D01*
X57736536Y-128928662D01*
X57647006Y-128895912D01*
X57617163Y-128797662D01*
X57617163Y-128255835D01*
X57393146Y-128255835D01*
X57393146Y-128805414D01*
X57200299Y-128805414D01*
X57220030Y-128748225D01*
X57237083Y-128656629D01*
X57242767Y-128555817D01*
X57242767Y-128505432D01*
X57236093Y-128399194D01*
X57216068Y-128301655D01*
X57182694Y-128212814D01*
X57137132Y-128134869D01*
X57080546Y-128070015D01*
X57012937Y-128018253D01*
X56936326Y-127980572D01*
X56852740Y-127957963D01*
X56762177Y-127950427D01*
X56671614Y-127957963D01*
X56588027Y-127980572D01*
X56511417Y-128018253D01*
X56443807Y-128070015D01*
X56387221Y-128134869D01*
X56341660Y-128212814D01*
X56308285Y-128301741D01*
X56288261Y-128399539D01*
X56281586Y-128506207D01*
X56281586Y-128562018D01*
X55190495Y-128562018D01*
X55192937Y-128512322D01*
X55205817Y-128425488D01*
X55227147Y-128340335D01*
X55256720Y-128257682D01*
X55294253Y-128178327D01*
X55339383Y-128103032D01*
X55391676Y-128032523D01*
X55450628Y-127967480D01*
X55515671Y-127908527D01*
X55586180Y-127856235D01*
X55661475Y-127811105D01*
X55740831Y-127773572D01*
X55823483Y-127743999D01*
X55908636Y-127722669D01*
X55995470Y-127709788D01*
X56083148Y-127705481D01*
X62716852Y-127705481D01*
X62804530Y-127709788D01*
X62891364Y-127722669D01*
X62976517Y-127743999D01*
X63059169Y-127773572D01*
X63138525Y-127811105D01*
X63213820Y-127856235D01*
X63284329Y-127908527D01*
X63349372Y-127967480D01*
X63408324Y-128032523D01*
X63460617Y-128103032D01*
X63505747Y-128178327D01*
X63543280Y-128257682D01*
X63572853Y-128340335D01*
X63594183Y-128425488D01*
X63607063Y-128512322D01*
X63611371Y-128600000D01*
X63607063Y-128687678D01*
X63594183Y-128774512D01*
X63572853Y-128859665D01*
X63543280Y-128942318D01*
X63505747Y-129021673D01*
X63460617Y-129096968D01*
X63408324Y-129167477D01*
X63349372Y-129232520D01*
X63284329Y-129291473D01*
X63213820Y-129343765D01*
X63138525Y-129388895D01*
X63059169Y-129426428D01*
X62976517Y-129456001D01*
X62891364Y-129477331D01*
X62804530Y-129490212D01*
X62716852Y-129494519D01*
X56083148Y-129494519D01*
X55995470Y-129490212D01*
G37*
G36*
X56866434Y-128165724D02*
G01*
X56943561Y-128234906D01*
X56978873Y-128305875D01*
X57000060Y-128395792D01*
X57007123Y-128504657D01*
X57007123Y-128559692D01*
X56999716Y-128667653D01*
X56978529Y-128756924D01*
X56943561Y-128827505D01*
X56867209Y-128896397D01*
X56763727Y-128919360D01*
X56658307Y-128895525D01*
X56580792Y-128824017D01*
X56545480Y-128751843D01*
X56524293Y-128662442D01*
X56517230Y-128555817D01*
X56517230Y-128500781D01*
X56524723Y-128392907D01*
X56546169Y-128303894D01*
X56581567Y-128233743D01*
X56658501Y-128165434D01*
X56762177Y-128142664D01*
X56866434Y-128165724D01*
G37*
G36*
X59576927Y-128444389D02*
G01*
X59634094Y-128510083D01*
X59634094Y-128841071D01*
X59576152Y-128906764D01*
X59487592Y-128928662D01*
X59418604Y-128912965D01*
X59368219Y-128865875D01*
X59337407Y-128789330D01*
X59327136Y-128685266D01*
X59337262Y-128570302D01*
X59367638Y-128488185D01*
X59418264Y-128438915D01*
X59489142Y-128422491D01*
X59576927Y-128444389D01*
G37*
G36*
X58741126Y-128857349D02*
G01*
X58679114Y-128916647D01*
X58587647Y-128938739D01*
X58507031Y-128911609D01*
X58477576Y-128842621D01*
X58478351Y-128829443D01*
X58503069Y-128764848D01*
X58562756Y-128726090D01*
X58657410Y-128713171D01*
X58741126Y-128713171D01*
X58741126Y-128857349D01*
G37*
D12*
%TO.C,C13*%
X63110000Y-110340580D02*
X63110000Y-110059420D01*
X62090000Y-110340580D02*
X62090000Y-110059420D01*
%TO.C,kibuzzard-6409FEF9*%
G36*
X53178612Y-74400000D02*
G01*
X53593678Y-73777402D01*
X56821388Y-73777402D01*
X56821388Y-75022598D01*
X53593678Y-75022598D01*
X53314625Y-74604019D01*
X53752428Y-74604019D01*
X53761970Y-74677055D01*
X53790599Y-74739893D01*
X53838314Y-74792534D01*
X53901049Y-74832153D01*
X53974740Y-74855924D01*
X54059386Y-74863848D01*
X54149406Y-74855786D01*
X54226817Y-74831602D01*
X54291619Y-74791294D01*
X54340368Y-74737619D01*
X54369616Y-74673334D01*
X54379366Y-74598438D01*
X54369987Y-74528984D01*
X54341849Y-74469453D01*
X54294643Y-74421704D01*
X54228057Y-74387598D01*
X54283558Y-74353646D01*
X54327276Y-74307603D01*
X54355647Y-74253032D01*
X54365103Y-74193501D01*
X54363524Y-74180479D01*
X54449439Y-74180479D01*
X54675782Y-74851445D01*
X54846934Y-74851445D01*
X54930400Y-74604019D01*
X55122887Y-74604019D01*
X55132429Y-74677055D01*
X55161058Y-74739893D01*
X55208773Y-74792534D01*
X55271508Y-74832153D01*
X55345199Y-74855924D01*
X55429845Y-74863848D01*
X55519865Y-74855786D01*
X55533760Y-74851445D01*
X55816178Y-74851445D01*
X56013995Y-74851445D01*
X56076007Y-74665410D01*
X56402188Y-74665410D01*
X56464820Y-74851445D01*
X56662638Y-74851445D01*
X56324674Y-73948555D01*
X56152281Y-73948555D01*
X55816178Y-74851445D01*
X55533760Y-74851445D01*
X55597276Y-74831602D01*
X55662078Y-74791294D01*
X55710827Y-74737619D01*
X55740075Y-74673334D01*
X55749825Y-74598438D01*
X55740446Y-74528984D01*
X55712308Y-74469453D01*
X55665102Y-74421704D01*
X55598516Y-74387598D01*
X55654017Y-74353646D01*
X55697735Y-74307603D01*
X55726106Y-74253032D01*
X55735562Y-74193501D01*
X55726536Y-74119052D01*
X55699458Y-74056111D01*
X55654327Y-74004675D01*
X55593280Y-73966607D01*
X55518452Y-73943766D01*
X55429845Y-73936152D01*
X55350857Y-73944059D01*
X55278846Y-73967778D01*
X55217920Y-74005528D01*
X55172186Y-74055525D01*
X55143583Y-74115289D01*
X55134049Y-74182339D01*
X55313263Y-74182339D01*
X55347989Y-74108855D01*
X55434185Y-74080640D01*
X55523792Y-74111025D01*
X55556348Y-74195981D01*
X55523482Y-74286519D01*
X55481779Y-74312098D01*
X55422403Y-74320625D01*
X55326905Y-74320625D01*
X55326905Y-74460771D01*
X55421783Y-74460771D01*
X55504465Y-74475792D01*
X55554075Y-74520854D01*
X55570611Y-74595957D01*
X55534334Y-74685564D01*
X55491159Y-74710911D01*
X55434185Y-74719360D01*
X55340238Y-74687114D01*
X55302100Y-74604019D01*
X55122887Y-74604019D01*
X54930400Y-74604019D01*
X55073277Y-74180479D01*
X54886002Y-74180479D01*
X54761358Y-74632544D01*
X54636715Y-74180479D01*
X54449439Y-74180479D01*
X54363524Y-74180479D01*
X54356077Y-74119052D01*
X54328999Y-74056111D01*
X54283868Y-74004675D01*
X54222821Y-73966607D01*
X54147993Y-73943766D01*
X54059386Y-73936152D01*
X53980398Y-73944059D01*
X53908387Y-73967778D01*
X53847461Y-74005528D01*
X53801727Y-74055525D01*
X53773124Y-74115289D01*
X53763590Y-74182339D01*
X53942804Y-74182339D01*
X53977530Y-74108855D01*
X54063726Y-74080640D01*
X54153333Y-74111025D01*
X54185889Y-74195981D01*
X54153023Y-74286519D01*
X54111320Y-74312098D01*
X54051944Y-74320625D01*
X53956446Y-74320625D01*
X53956446Y-74460771D01*
X54051324Y-74460771D01*
X54134006Y-74475792D01*
X54183616Y-74520854D01*
X54200152Y-74595957D01*
X54163875Y-74685564D01*
X54120700Y-74710911D01*
X54063726Y-74719360D01*
X53969779Y-74687114D01*
X53931641Y-74604019D01*
X53752428Y-74604019D01*
X53314625Y-74604019D01*
X53178612Y-74400000D01*
G37*
G36*
X56351959Y-74514722D02*
G01*
X56126236Y-74514722D01*
X56238477Y-74176758D01*
X56351959Y-74514722D01*
G37*
%TO.C,kibuzzard-6409FE57*%
G36*
X62804116Y-68177402D02*
G01*
X65595884Y-68177402D01*
X65595884Y-69422598D01*
X62804116Y-69422598D01*
X62804116Y-68835347D01*
X62962866Y-68835347D01*
X62968895Y-68919200D01*
X62985328Y-68995475D01*
X63012166Y-69064170D01*
X63070302Y-69149979D01*
X63148591Y-69212688D01*
X63210706Y-69241110D01*
X63279229Y-69258163D01*
X63354160Y-69263848D01*
X63460820Y-69255554D01*
X63476795Y-69251445D01*
X63850254Y-69251445D01*
X64036289Y-69251445D01*
X64036289Y-68657373D01*
X64398438Y-69251445D01*
X64584473Y-69251445D01*
X64746943Y-69251445D01*
X65026616Y-69251445D01*
X65102891Y-69245106D01*
X65173791Y-69226916D01*
X65239316Y-69196875D01*
X65297435Y-69156016D01*
X65346114Y-69105373D01*
X65385354Y-69044946D01*
X65414121Y-68976527D01*
X65431380Y-68901906D01*
X65437134Y-68821084D01*
X65437134Y-68779536D01*
X65431277Y-68698611D01*
X65413707Y-68623680D01*
X65384424Y-68554744D01*
X65344702Y-68493834D01*
X65295816Y-68442985D01*
X65237766Y-68402195D01*
X65172344Y-68372395D01*
X65101340Y-68354515D01*
X65024756Y-68348555D01*
X64746943Y-68348555D01*
X64746943Y-69251445D01*
X64584473Y-69251445D01*
X64584473Y-68348555D01*
X64399058Y-68348555D01*
X64399058Y-68943867D01*
X64036289Y-68348555D01*
X63850254Y-68348555D01*
X63850254Y-69251445D01*
X63476795Y-69251445D01*
X63557559Y-69230671D01*
X63638949Y-69190751D01*
X63699565Y-69137344D01*
X63699565Y-68777056D01*
X63344238Y-68777056D01*
X63344238Y-68914102D01*
X63513530Y-68914102D01*
X63513530Y-69069751D01*
X63453844Y-69103237D01*
X63364082Y-69114399D01*
X63272460Y-69096261D01*
X63205952Y-69041846D01*
X63175980Y-68985760D01*
X63157996Y-68914239D01*
X63152002Y-68827285D01*
X63152002Y-68769614D01*
X63157859Y-68683487D01*
X63174602Y-68612794D01*
X63202231Y-68557534D01*
X63263158Y-68504049D01*
X63346719Y-68486221D01*
X63413149Y-68495212D01*
X63463611Y-68522187D01*
X63498570Y-68568541D01*
X63518491Y-68635669D01*
X63699565Y-68635669D01*
X63680204Y-68545855D01*
X63644444Y-68471545D01*
X63592285Y-68412737D01*
X63524141Y-68370190D01*
X63440425Y-68344662D01*
X63341138Y-68336152D01*
X63267516Y-68341975D01*
X63200440Y-68359441D01*
X63139910Y-68388552D01*
X63064100Y-68452579D01*
X63008445Y-68539861D01*
X62983123Y-68609831D01*
X62967931Y-68687862D01*
X62962866Y-68773955D01*
X62962866Y-68835347D01*
X62804116Y-68835347D01*
X62804116Y-68177402D01*
G37*
G36*
X65121339Y-68516994D02*
G01*
X65191567Y-68570247D01*
X65223262Y-68624989D01*
X65242279Y-68694546D01*
X65248618Y-68778916D01*
X65248618Y-68826665D01*
X65241521Y-68908314D01*
X65221884Y-68976320D01*
X65189707Y-69030684D01*
X65119169Y-69084169D01*
X65022896Y-69101997D01*
X64932979Y-69101997D01*
X64932979Y-68499243D01*
X65024756Y-68499243D01*
X65121339Y-68516994D01*
G37*
G36*
X53321339Y-105316994D02*
G01*
X53391567Y-105370247D01*
X53423262Y-105424989D01*
X53442279Y-105494546D01*
X53448618Y-105578916D01*
X53448618Y-105626665D01*
X53441521Y-105708314D01*
X53421884Y-105776320D01*
X53389707Y-105830684D01*
X53319169Y-105884169D01*
X53222896Y-105901997D01*
X53132979Y-105901997D01*
X53132979Y-105299243D01*
X53224756Y-105299243D01*
X53321339Y-105316994D01*
G37*
G36*
X51004116Y-104977402D02*
G01*
X53795884Y-104977402D01*
X53795884Y-106222598D01*
X51004116Y-106222598D01*
X51004116Y-105635347D01*
X51162866Y-105635347D01*
X51168895Y-105719200D01*
X51185328Y-105795475D01*
X51212166Y-105864170D01*
X51270302Y-105949979D01*
X51348591Y-106012688D01*
X51410706Y-106041110D01*
X51479229Y-106058163D01*
X51554160Y-106063848D01*
X51660820Y-106055554D01*
X51676795Y-106051445D01*
X52050254Y-106051445D01*
X52236289Y-106051445D01*
X52236289Y-105457373D01*
X52598438Y-106051445D01*
X52784473Y-106051445D01*
X52946943Y-106051445D01*
X53226616Y-106051445D01*
X53302891Y-106045106D01*
X53373791Y-106026916D01*
X53439316Y-105996875D01*
X53497435Y-105956016D01*
X53546114Y-105905373D01*
X53585354Y-105844946D01*
X53614121Y-105776527D01*
X53631380Y-105701906D01*
X53637134Y-105621084D01*
X53637134Y-105579536D01*
X53631277Y-105498611D01*
X53613707Y-105423680D01*
X53584424Y-105354744D01*
X53544702Y-105293834D01*
X53495816Y-105242985D01*
X53437766Y-105202195D01*
X53372344Y-105172395D01*
X53301340Y-105154515D01*
X53224756Y-105148555D01*
X52946943Y-105148555D01*
X52946943Y-106051445D01*
X52784473Y-106051445D01*
X52784473Y-105148555D01*
X52599058Y-105148555D01*
X52599058Y-105743867D01*
X52236289Y-105148555D01*
X52050254Y-105148555D01*
X52050254Y-106051445D01*
X51676795Y-106051445D01*
X51757559Y-106030671D01*
X51838949Y-105990751D01*
X51899565Y-105937344D01*
X51899565Y-105577056D01*
X51544238Y-105577056D01*
X51544238Y-105714102D01*
X51713530Y-105714102D01*
X51713530Y-105869751D01*
X51653844Y-105903237D01*
X51564082Y-105914399D01*
X51472460Y-105896261D01*
X51405952Y-105841846D01*
X51375980Y-105785760D01*
X51357996Y-105714239D01*
X51352002Y-105627285D01*
X51352002Y-105569614D01*
X51357859Y-105483487D01*
X51374602Y-105412794D01*
X51402231Y-105357534D01*
X51463158Y-105304049D01*
X51546719Y-105286221D01*
X51613149Y-105295212D01*
X51663611Y-105322187D01*
X51698570Y-105368541D01*
X51718491Y-105435669D01*
X51899565Y-105435669D01*
X51880204Y-105345855D01*
X51844444Y-105271545D01*
X51792285Y-105212737D01*
X51724141Y-105170190D01*
X51640425Y-105144662D01*
X51541138Y-105136152D01*
X51467516Y-105141975D01*
X51400440Y-105159441D01*
X51339910Y-105188552D01*
X51264100Y-105252579D01*
X51208445Y-105339861D01*
X51183123Y-105409831D01*
X51167931Y-105487862D01*
X51162866Y-105573955D01*
X51162866Y-105635347D01*
X51004116Y-105635347D01*
X51004116Y-104977402D01*
G37*
%TO.C,kibuzzard-6409FE46*%
G36*
X51151394Y-109983604D02*
G01*
X53648606Y-109983604D01*
X53648606Y-111216396D01*
X51151394Y-111216396D01*
X51151394Y-110433188D01*
X51310144Y-110433188D01*
X51524084Y-110366836D01*
X51524084Y-111057646D01*
X51703298Y-111057646D01*
X51703298Y-110438770D01*
X51978630Y-110438770D01*
X52158464Y-110438770D01*
X52167224Y-110377145D01*
X52193501Y-110328699D01*
X52234971Y-110297305D01*
X52289309Y-110286841D01*
X52376125Y-110321257D01*
X52398915Y-110362108D01*
X52406511Y-110415825D01*
X52377676Y-110508843D01*
X52341011Y-110562018D01*
X52288689Y-110623564D01*
X51996614Y-110934863D01*
X51996614Y-111057646D01*
X52615491Y-111057646D01*
X52615491Y-110913159D01*
X52227297Y-110913159D01*
X52432556Y-110696738D01*
X52504490Y-110610077D01*
X52551619Y-110534888D01*
X52577664Y-110466055D01*
X52586345Y-110398462D01*
X52577767Y-110323152D01*
X52552032Y-110260107D01*
X52509141Y-110209326D01*
X52450746Y-110172119D01*
X52394557Y-110154756D01*
X52668201Y-110154756D01*
X52981360Y-111057646D01*
X53175457Y-111057646D01*
X53489856Y-110154756D01*
X53282737Y-110154756D01*
X53078098Y-110833784D01*
X52874700Y-110154756D01*
X52668201Y-110154756D01*
X52394557Y-110154756D01*
X52378503Y-110149795D01*
X52292410Y-110142354D01*
X52206058Y-110152043D01*
X52129319Y-110181111D01*
X52065524Y-110227232D01*
X52018008Y-110288081D01*
X51988475Y-110359860D01*
X51978630Y-110438770D01*
X51703298Y-110438770D01*
X51703298Y-110153516D01*
X51684075Y-110153516D01*
X51310144Y-110287461D01*
X51310144Y-110433188D01*
X51151394Y-110433188D01*
X51151394Y-109983604D01*
G37*
%TO.C,kibuzzard-6409FE2B*%
G36*
X64934973Y-104977402D02*
G01*
X67865027Y-104977402D01*
X67865027Y-106222598D01*
X64934973Y-106222598D01*
X64934973Y-105804019D01*
X65093723Y-105804019D01*
X65103266Y-105877055D01*
X65131895Y-105939893D01*
X65179609Y-105992534D01*
X65242345Y-106032153D01*
X65316035Y-106055924D01*
X65400681Y-106063848D01*
X65490701Y-106055786D01*
X65568113Y-106031602D01*
X65632915Y-105991294D01*
X65658259Y-105963389D01*
X65860808Y-105963389D01*
X65889333Y-106031912D01*
X65961887Y-106058267D01*
X66035061Y-106031912D01*
X66063586Y-105963389D01*
X66034751Y-105893936D01*
X65961887Y-105867271D01*
X65889644Y-105893936D01*
X65860808Y-105963389D01*
X65658259Y-105963389D01*
X65681663Y-105937619D01*
X65710912Y-105873334D01*
X65719935Y-105804019D01*
X66191331Y-105804019D01*
X66200873Y-105877055D01*
X66229502Y-105939893D01*
X66277217Y-105992534D01*
X66339952Y-106032153D01*
X66413643Y-106055924D01*
X66498289Y-106063848D01*
X66588309Y-106055786D01*
X66665720Y-106031602D01*
X66730522Y-105991294D01*
X66779271Y-105937619D01*
X66808519Y-105873334D01*
X66818269Y-105798438D01*
X66808890Y-105728984D01*
X66780752Y-105669453D01*
X66733546Y-105621704D01*
X66666960Y-105587598D01*
X66722461Y-105553646D01*
X66766179Y-105507603D01*
X66794550Y-105453032D01*
X66804006Y-105393501D01*
X66794980Y-105319052D01*
X66767902Y-105256111D01*
X66722771Y-105204675D01*
X66661724Y-105166607D01*
X66602585Y-105148555D01*
X66884622Y-105148555D01*
X67197781Y-106051445D01*
X67391877Y-106051445D01*
X67706277Y-105148555D01*
X67499158Y-105148555D01*
X67294519Y-105827583D01*
X67091121Y-105148555D01*
X66884622Y-105148555D01*
X66602585Y-105148555D01*
X66586896Y-105143766D01*
X66498289Y-105136152D01*
X66419301Y-105144059D01*
X66347290Y-105167778D01*
X66286364Y-105205528D01*
X66240630Y-105255525D01*
X66212027Y-105315289D01*
X66202493Y-105382339D01*
X66381707Y-105382339D01*
X66416433Y-105308855D01*
X66502629Y-105280640D01*
X66592236Y-105311025D01*
X66624792Y-105395981D01*
X66591926Y-105486519D01*
X66550223Y-105512098D01*
X66490847Y-105520625D01*
X66395349Y-105520625D01*
X66395349Y-105660771D01*
X66490227Y-105660771D01*
X66572909Y-105675792D01*
X66622519Y-105720854D01*
X66639055Y-105795957D01*
X66602778Y-105885564D01*
X66559603Y-105910911D01*
X66502629Y-105919360D01*
X66408682Y-105887114D01*
X66370544Y-105804019D01*
X66191331Y-105804019D01*
X65719935Y-105804019D01*
X65720662Y-105798438D01*
X65711282Y-105728984D01*
X65683145Y-105669453D01*
X65635938Y-105621704D01*
X65569353Y-105587598D01*
X65624854Y-105553646D01*
X65668572Y-105507603D01*
X65696942Y-105453032D01*
X65706399Y-105393501D01*
X65697373Y-105319052D01*
X65670294Y-105256111D01*
X65625164Y-105204675D01*
X65564116Y-105166607D01*
X65489289Y-105143766D01*
X65400681Y-105136152D01*
X65321694Y-105144059D01*
X65249683Y-105167778D01*
X65188756Y-105205528D01*
X65143022Y-105255525D01*
X65114420Y-105315289D01*
X65104885Y-105382339D01*
X65284099Y-105382339D01*
X65318826Y-105308855D01*
X65405022Y-105280640D01*
X65494629Y-105311025D01*
X65527185Y-105395981D01*
X65494319Y-105486519D01*
X65452616Y-105512098D01*
X65393240Y-105520625D01*
X65297742Y-105520625D01*
X65297742Y-105660771D01*
X65392620Y-105660771D01*
X65475302Y-105675792D01*
X65524911Y-105720854D01*
X65541448Y-105795957D01*
X65505171Y-105885564D01*
X65461995Y-105910911D01*
X65405022Y-105919360D01*
X65311074Y-105887114D01*
X65272937Y-105804019D01*
X65093723Y-105804019D01*
X64934973Y-105804019D01*
X64934973Y-104977402D01*
G37*
%TO.C,kibuzzard-6409FE16*%
G36*
X64887534Y-109983604D02*
G01*
X67912466Y-109983604D01*
X67912466Y-111216396D01*
X64887534Y-111216396D01*
X64887534Y-110743247D01*
X65046284Y-110743247D01*
X65395410Y-110743247D01*
X65395410Y-110598760D01*
X65046284Y-110598760D01*
X65046284Y-110743247D01*
X64887534Y-110743247D01*
X64887534Y-110433188D01*
X65574004Y-110433188D01*
X65787944Y-110366836D01*
X65787944Y-111057646D01*
X65967158Y-111057646D01*
X65967158Y-110438770D01*
X66242490Y-110438770D01*
X66422324Y-110438770D01*
X66431083Y-110377145D01*
X66457361Y-110328699D01*
X66498831Y-110297305D01*
X66553169Y-110286841D01*
X66639985Y-110321257D01*
X66662775Y-110362108D01*
X66670371Y-110415825D01*
X66641536Y-110508843D01*
X66604871Y-110562018D01*
X66552549Y-110623564D01*
X66260474Y-110934863D01*
X66260474Y-111057646D01*
X66879351Y-111057646D01*
X66879351Y-110913159D01*
X66491157Y-110913159D01*
X66696416Y-110696738D01*
X66768350Y-110610077D01*
X66815479Y-110534888D01*
X66841523Y-110466055D01*
X66850205Y-110398462D01*
X66841627Y-110323152D01*
X66815892Y-110260107D01*
X66773000Y-110209326D01*
X66714606Y-110172119D01*
X66658417Y-110154756D01*
X66932061Y-110154756D01*
X67245220Y-111057646D01*
X67439316Y-111057646D01*
X67753716Y-110154756D01*
X67546597Y-110154756D01*
X67341958Y-110833784D01*
X67138560Y-110154756D01*
X66932061Y-110154756D01*
X66658417Y-110154756D01*
X66642362Y-110149795D01*
X66556270Y-110142354D01*
X66469918Y-110152043D01*
X66393179Y-110181111D01*
X66329384Y-110227232D01*
X66281868Y-110288081D01*
X66252335Y-110359860D01*
X66242490Y-110438770D01*
X65967158Y-110438770D01*
X65967158Y-110153516D01*
X65947935Y-110153516D01*
X65574004Y-110287461D01*
X65574004Y-110433188D01*
X64887534Y-110433188D01*
X64887534Y-109983604D01*
G37*
%TO.C,kibuzzard-6409F893*%
G36*
X66497213Y-56484332D02*
G01*
X66497213Y-55055737D01*
X67398450Y-55055737D01*
X67398450Y-55492145D01*
X67579059Y-55492145D01*
X67579059Y-55055737D01*
X67398450Y-55055737D01*
X66497213Y-55055737D01*
X66497213Y-54341052D01*
X66841895Y-54341052D01*
X66841895Y-54365082D01*
X67009326Y-54832495D01*
X67191486Y-54832495D01*
X67108545Y-54565070D01*
X67972058Y-54565070D01*
X67972058Y-54341052D01*
X66841895Y-54341052D01*
X66497213Y-54341052D01*
X66497213Y-53604663D01*
X66827942Y-53604663D01*
X66840054Y-53712602D01*
X66876389Y-53808527D01*
X66934040Y-53888270D01*
X67010101Y-53947665D01*
X67099825Y-53984582D01*
X67198462Y-53996887D01*
X67198462Y-53772095D01*
X67121432Y-53761146D01*
X67060873Y-53728299D01*
X67021632Y-53676461D01*
X67008551Y-53608539D01*
X67051572Y-53500018D01*
X67102634Y-53471532D01*
X67169781Y-53462036D01*
X67286053Y-53498080D01*
X67352522Y-53543911D01*
X67429456Y-53609314D01*
X67818579Y-53974408D01*
X67972058Y-53974408D01*
X67972058Y-53200812D01*
X67791449Y-53200812D01*
X67791449Y-53686053D01*
X67520923Y-53429480D01*
X67412596Y-53339563D01*
X67318610Y-53280652D01*
X67232568Y-53248096D01*
X67148077Y-53237244D01*
X67053940Y-53247967D01*
X66975134Y-53280135D01*
X66911658Y-53333749D01*
X66865149Y-53406742D01*
X66837244Y-53497047D01*
X66827942Y-53604663D01*
X66497213Y-53604663D01*
X66497213Y-52107855D01*
X66843445Y-52107855D01*
X66843445Y-52366754D01*
X67692230Y-52622552D01*
X66843445Y-52876801D01*
X66843445Y-53134924D01*
X67972058Y-52743475D01*
X67972058Y-52500854D01*
X66843445Y-52107855D01*
X66497213Y-52107855D01*
X66497213Y-51115668D01*
X68302787Y-51115668D01*
X68302787Y-56484332D01*
X66497213Y-56484332D01*
G37*
%TO.C,J7*%
X55050000Y-136385000D02*
X63750000Y-136385000D01*
X55050000Y-142795000D02*
X63750000Y-142795000D01*
X63750000Y-136385000D02*
X63750000Y-142795000D01*
X55050000Y-142795000D02*
X55050000Y-136385000D01*
X63750000Y-141565000D02*
X55050000Y-141565000D01*
%TO.C,J6*%
X64480000Y-51330000D02*
X65810000Y-51330000D01*
X63210000Y-51330000D02*
X52990000Y-51330000D01*
X65810000Y-53930000D02*
X65810000Y-56530000D01*
X63210000Y-51330000D02*
X63210000Y-53930000D01*
X65810000Y-51330000D02*
X65810000Y-52660000D01*
X63210000Y-53930000D02*
X65810000Y-53930000D01*
X52990000Y-51330000D02*
X52990000Y-56530000D01*
X65810000Y-56530000D02*
X52990000Y-56530000D01*
%TO.C,L1*%
X53210242Y-70240000D02*
X52389758Y-70240000D01*
X53210242Y-71360000D02*
X52389758Y-71360000D01*
%TO.C,R24*%
X65562742Y-114347500D02*
X66037258Y-114347500D01*
X65562742Y-115392500D02*
X66037258Y-115392500D01*
%TO.C,R23*%
X65562742Y-116147500D02*
X66037258Y-116147500D01*
X65562742Y-117192500D02*
X66037258Y-117192500D01*
%TO.C,R22*%
X65562742Y-126947500D02*
X66037258Y-126947500D01*
X65562742Y-127992500D02*
X66037258Y-127992500D01*
%TO.C,R21*%
X65562742Y-128747500D02*
X66037258Y-128747500D01*
X65562742Y-129792500D02*
X66037258Y-129792500D01*
%TO.C,R20*%
X53237258Y-127992500D02*
X52762742Y-127992500D01*
X53237258Y-126947500D02*
X52762742Y-126947500D01*
%TO.C,R19*%
X53237258Y-129792500D02*
X52762742Y-129792500D01*
X53237258Y-128747500D02*
X52762742Y-128747500D01*
%TO.C,R18*%
X53237258Y-115392500D02*
X52762742Y-115392500D01*
X53237258Y-114347500D02*
X52762742Y-114347500D01*
%TO.C,R17*%
X53237258Y-117192500D02*
X52762742Y-117192500D01*
X53237258Y-116147500D02*
X52762742Y-116147500D01*
%TO.C,R16*%
X65562742Y-117947500D02*
X66037258Y-117947500D01*
X65562742Y-118992500D02*
X66037258Y-118992500D01*
%TO.C,R15*%
X65562742Y-125147500D02*
X66037258Y-125147500D01*
X65562742Y-126192500D02*
X66037258Y-126192500D01*
%TO.C,R14*%
X53237258Y-126192500D02*
X52762742Y-126192500D01*
X53237258Y-125147500D02*
X52762742Y-125147500D01*
%TO.C,R13*%
X52762742Y-117947500D02*
X53237258Y-117947500D01*
X52762742Y-118992500D02*
X53237258Y-118992500D01*
%TO.C,R12*%
X65562742Y-119747500D02*
X66037258Y-119747500D01*
X65562742Y-120792500D02*
X66037258Y-120792500D01*
%TO.C,R11*%
X65562742Y-123347500D02*
X66037258Y-123347500D01*
X65562742Y-124392500D02*
X66037258Y-124392500D01*
%TO.C,R10*%
X53237258Y-124392500D02*
X52762742Y-124392500D01*
X53237258Y-123347500D02*
X52762742Y-123347500D01*
%TO.C,R9*%
X53237258Y-120792500D02*
X52762742Y-120792500D01*
X53237258Y-119747500D02*
X52762742Y-119747500D01*
%TO.C,R5*%
X58322500Y-94962742D02*
X58322500Y-95437258D01*
X57277500Y-94962742D02*
X57277500Y-95437258D01*
%TO.C,R4*%
X59677500Y-82037258D02*
X59677500Y-81562742D01*
X60722500Y-82037258D02*
X60722500Y-81562742D01*
%TO.C,R3*%
X61277500Y-82037258D02*
X61277500Y-81562742D01*
X62322500Y-82037258D02*
X62322500Y-81562742D01*
%TO.C,R2*%
X59122500Y-81562742D02*
X59122500Y-82037258D01*
X58077500Y-81562742D02*
X58077500Y-82037258D01*
%TO.C,R1*%
X57522500Y-81562742D02*
X57522500Y-82037258D01*
X56477500Y-81562742D02*
X56477500Y-82037258D01*
%TO.C,C12*%
X58890000Y-110340580D02*
X58890000Y-110059420D01*
X59910000Y-110340580D02*
X59910000Y-110059420D01*
%TO.C,C11*%
X57290000Y-110340580D02*
X57290000Y-110059420D01*
X58310000Y-110340580D02*
X58310000Y-110059420D01*
%TO.C,C10*%
X65940580Y-122580000D02*
X65659420Y-122580000D01*
X65940580Y-121560000D02*
X65659420Y-121560000D01*
%TO.C,C9*%
X52859420Y-121560000D02*
X53140580Y-121560000D01*
X52859420Y-122580000D02*
X53140580Y-122580000D01*
%TO.C,C7*%
X60490000Y-110059420D02*
X60490000Y-110340580D01*
X61510000Y-110059420D02*
X61510000Y-110340580D01*
%TO.C,C6*%
X55690000Y-95340580D02*
X55690000Y-95059420D01*
X56710000Y-95340580D02*
X56710000Y-95059420D01*
%TO.C,C3*%
X65690000Y-98940580D02*
X65690000Y-98659420D01*
X66710000Y-98940580D02*
X66710000Y-98659420D01*
%TO.C,C2*%
X64710000Y-110059420D02*
X64710000Y-110340580D01*
X63690000Y-110059420D02*
X63690000Y-110340580D01*
%TO.C,C1*%
X66710000Y-102059420D02*
X66710000Y-102340580D01*
X65690000Y-102059420D02*
X65690000Y-102340580D01*
%TO.C,U3*%
X59400000Y-90535000D02*
X61600000Y-90535000D01*
X59400000Y-85065000D02*
X55800000Y-85065000D01*
X59400000Y-85065000D02*
X61600000Y-85065000D01*
X59400000Y-90535000D02*
X57200000Y-90535000D01*
D10*
%TO.C,J5*%
X65330000Y-85320000D02*
X65330000Y-95480000D01*
X67870000Y-85320000D02*
X65330000Y-85320000D01*
X67870000Y-95480000D02*
X67870000Y-85320000D01*
X65330000Y-95480000D02*
X67870000Y-95480000D01*
D12*
%TO.C,U4*%
X59400000Y-126505000D02*
X57450000Y-126505000D01*
X59400000Y-117635000D02*
X55950000Y-117635000D01*
X59400000Y-126505000D02*
X61350000Y-126505000D01*
X59400000Y-117635000D02*
X61350000Y-117635000D01*
%TO.C,U1*%
X63010000Y-98990000D02*
X63010000Y-99440000D01*
X55790000Y-99440000D02*
X54500000Y-99440000D01*
X56240000Y-106210000D02*
X55790000Y-106210000D01*
X56240000Y-98990000D02*
X55790000Y-98990000D01*
X63010000Y-106210000D02*
X63010000Y-105760000D01*
X62560000Y-106210000D02*
X63010000Y-106210000D01*
X55790000Y-98990000D02*
X55790000Y-99440000D01*
X55790000Y-106210000D02*
X55790000Y-105760000D01*
X62560000Y-98990000D02*
X63010000Y-98990000D01*
%TO.C,C4*%
X53995563Y-62340000D02*
X55060000Y-63404437D01*
X55060000Y-66860000D02*
X53860000Y-66860000D01*
X54610000Y-61850000D02*
X54110000Y-61850000D01*
X51604437Y-62340000D02*
X50540000Y-63404437D01*
X55060000Y-63404437D02*
X55060000Y-66860000D01*
X51604437Y-62340000D02*
X51740000Y-62340000D01*
X53995563Y-62340000D02*
X53860000Y-62340000D01*
X54360000Y-61600000D02*
X54360000Y-62100000D01*
X50540000Y-63404437D02*
X50540000Y-66860000D01*
X50540000Y-66860000D02*
X51740000Y-66860000D01*
%TO.C,C5*%
X68060000Y-65795563D02*
X68060000Y-62340000D01*
X63540000Y-65795563D02*
X63540000Y-62340000D01*
X63990000Y-67350000D02*
X64490000Y-67350000D01*
X66995563Y-66860000D02*
X66860000Y-66860000D01*
X64240000Y-67600000D02*
X64240000Y-67100000D01*
X64604437Y-66860000D02*
X63540000Y-65795563D01*
X64604437Y-66860000D02*
X64740000Y-66860000D01*
X68060000Y-62340000D02*
X66860000Y-62340000D01*
X63540000Y-62340000D02*
X64740000Y-62340000D01*
X66995563Y-66860000D02*
X68060000Y-65795563D01*
%TO.C,C8*%
X60960000Y-69600000D02*
X60960000Y-70100000D01*
X60595563Y-70340000D02*
X61660000Y-71404437D01*
X60595563Y-70340000D02*
X60460000Y-70340000D01*
X61660000Y-71404437D02*
X61660000Y-74860000D01*
X61210000Y-69850000D02*
X60710000Y-69850000D01*
X58204437Y-70340000D02*
X57140000Y-71404437D01*
X57140000Y-71404437D02*
X57140000Y-74860000D01*
X57140000Y-74860000D02*
X58340000Y-74860000D01*
X61660000Y-74860000D02*
X60460000Y-74860000D01*
X58204437Y-70340000D02*
X58340000Y-70340000D01*
%TO.C,D1*%
X50550000Y-59600000D02*
X54450000Y-59600000D01*
X50550000Y-57600000D02*
X50550000Y-59600000D01*
X50550000Y-57600000D02*
X54450000Y-57600000D01*
%TO.C,D2*%
X63750000Y-57600000D02*
X67650000Y-57600000D01*
X63750000Y-57600000D02*
X63750000Y-59600000D01*
X63750000Y-59600000D02*
X67650000Y-59600000D01*
%TO.C,U2*%
X62810000Y-59300000D02*
X62810000Y-65310000D01*
X62810000Y-65310000D02*
X61550000Y-65310000D01*
X55990000Y-65310000D02*
X57250000Y-65310000D01*
X55990000Y-61550000D02*
X55990000Y-65310000D01*
%TD*%
M02*
