%TF.GenerationSoftware,KiCad,Pcbnew,(6.0.11)*%
%TF.CreationDate,2023-03-29T15:10:06+01:00*%
%TF.ProjectId,QuadEnv_Components,51756164-456e-4765-9f43-6f6d706f6e65,rev?*%
%TF.SameCoordinates,Original*%
%TF.FileFunction,Legend,Bot*%
%TF.FilePolarity,Positive*%
%FSLAX46Y46*%
G04 Gerber Fmt 4.6, Leading zero omitted, Abs format (unit mm)*
G04 Created by KiCad (PCBNEW (6.0.11)) date 2023-03-29 15:10:06*
%MOMM*%
%LPD*%
G01*
G04 APERTURE LIST*
%ADD10C,0.150000*%
%ADD11C,0.120000*%
G04 APERTURE END LIST*
D10*
%TO.C,J1*%
X52533333Y-71082380D02*
X52533333Y-71796666D01*
X52580952Y-71939523D01*
X52676190Y-72034761D01*
X52819047Y-72082380D01*
X52914285Y-72082380D01*
X51533333Y-72082380D02*
X52104761Y-72082380D01*
X51819047Y-72082380D02*
X51819047Y-71082380D01*
X51914285Y-71225238D01*
X52009523Y-71320476D01*
X52104761Y-71368095D01*
%TO.C,J4*%
X52282380Y-152366666D02*
X52996666Y-152366666D01*
X53139523Y-152319047D01*
X53234761Y-152223809D01*
X53282380Y-152080952D01*
X53282380Y-151985714D01*
X52615714Y-153271428D02*
X53282380Y-153271428D01*
X52234761Y-153033333D02*
X52949047Y-152795238D01*
X52949047Y-153414285D01*
%TO.C,J2*%
X66933333Y-71082380D02*
X66933333Y-71796666D01*
X66980952Y-71939523D01*
X67076190Y-72034761D01*
X67219047Y-72082380D01*
X67314285Y-72082380D01*
X66504761Y-71177619D02*
X66457142Y-71130000D01*
X66361904Y-71082380D01*
X66123809Y-71082380D01*
X66028571Y-71130000D01*
X65980952Y-71177619D01*
X65933333Y-71272857D01*
X65933333Y-71368095D01*
X65980952Y-71510952D01*
X66552380Y-72082380D01*
X65933333Y-72082380D01*
%TO.C,J3*%
X65422380Y-136866666D02*
X66136666Y-136866666D01*
X66279523Y-136819047D01*
X66374761Y-136723809D01*
X66422380Y-136580952D01*
X66422380Y-136485714D01*
X65422380Y-137247619D02*
X65422380Y-137866666D01*
X65803333Y-137533333D01*
X65803333Y-137676190D01*
X65850952Y-137771428D01*
X65898571Y-137819047D01*
X65993809Y-137866666D01*
X66231904Y-137866666D01*
X66327142Y-137819047D01*
X66374761Y-137771428D01*
X66422380Y-137676190D01*
X66422380Y-137390476D01*
X66374761Y-137295238D01*
X66327142Y-137247619D01*
D11*
%TO.C,J1*%
X53530000Y-75670000D02*
X53530000Y-88430000D01*
X50870000Y-73070000D02*
X50870000Y-74400000D01*
X53530000Y-88430000D02*
X50870000Y-88430000D01*
X53530000Y-75670000D02*
X50870000Y-75670000D01*
X50870000Y-75670000D02*
X50870000Y-88430000D01*
X52200000Y-73070000D02*
X50870000Y-73070000D01*
%TO.C,J4*%
X56870000Y-151370000D02*
X64550000Y-151370000D01*
X56870000Y-151370000D02*
X56870000Y-154030000D01*
X64550000Y-151370000D02*
X64550000Y-154030000D01*
X56870000Y-154030000D02*
X64550000Y-154030000D01*
X54270000Y-154030000D02*
X55600000Y-154030000D01*
X54270000Y-152700000D02*
X54270000Y-154030000D01*
%TO.C,J2*%
X65270000Y-73070000D02*
X65270000Y-74400000D01*
X67930000Y-85890000D02*
X65270000Y-85890000D01*
X67930000Y-75670000D02*
X67930000Y-85890000D01*
X66600000Y-73070000D02*
X65270000Y-73070000D01*
X67930000Y-75670000D02*
X65270000Y-75670000D01*
X65270000Y-75670000D02*
X65270000Y-85890000D01*
%TO.C,J3*%
X64530000Y-135870000D02*
X63200000Y-135870000D01*
X54250000Y-138530000D02*
X54250000Y-135870000D01*
X64530000Y-137200000D02*
X64530000Y-135870000D01*
X61930000Y-138530000D02*
X54250000Y-138530000D01*
X61930000Y-135870000D02*
X54250000Y-135870000D01*
X61930000Y-138530000D02*
X61930000Y-135870000D01*
%TD*%
M02*
