%TF.GenerationSoftware,KiCad,Pcbnew,(6.0.11)*%
%TF.CreationDate,2023-03-29T15:24:13+01:00*%
%TF.ProjectId,QuadEnv_Panel,51756164-456e-4765-9f50-616e656c2e6b,rev?*%
%TF.SameCoordinates,Original*%
%TF.FileFunction,Soldermask,Bot*%
%TF.FilePolarity,Negative*%
%FSLAX46Y46*%
G04 Gerber Fmt 4.6, Leading zero omitted, Abs format (unit mm)*
G04 Created by KiCad (PCBNEW (6.0.11)) date 2023-03-29 15:24:13*
%MOMM*%
%LPD*%
G01*
G04 APERTURE LIST*
%ADD10C,0.200000*%
%ADD11O,5.000000X3.200000*%
%ADD12C,7.000000*%
G04 APERTURE END LIST*
D10*
X67957142Y-159176857D02*
X67957142Y-157976857D01*
X67557142Y-158834000D01*
X67157142Y-157976857D01*
X67157142Y-159176857D01*
X66414285Y-159176857D02*
X66528571Y-159119714D01*
X66585714Y-159062571D01*
X66642857Y-158948285D01*
X66642857Y-158605428D01*
X66585714Y-158491142D01*
X66528571Y-158434000D01*
X66414285Y-158376857D01*
X66242857Y-158376857D01*
X66128571Y-158434000D01*
X66071428Y-158491142D01*
X66014285Y-158605428D01*
X66014285Y-158948285D01*
X66071428Y-159062571D01*
X66128571Y-159119714D01*
X66242857Y-159176857D01*
X66414285Y-159176857D01*
X64985714Y-158376857D02*
X64985714Y-159176857D01*
X65500000Y-158376857D02*
X65500000Y-159005428D01*
X65442857Y-159119714D01*
X65328571Y-159176857D01*
X65157142Y-159176857D01*
X65042857Y-159119714D01*
X64985714Y-159062571D01*
X64414285Y-158376857D02*
X64414285Y-159176857D01*
X64414285Y-158491142D02*
X64357142Y-158434000D01*
X64242857Y-158376857D01*
X64071428Y-158376857D01*
X63957142Y-158434000D01*
X63900000Y-158548285D01*
X63900000Y-159176857D01*
X63500000Y-158376857D02*
X63042857Y-158376857D01*
X63328571Y-157976857D02*
X63328571Y-159005428D01*
X63271428Y-159119714D01*
X63157142Y-159176857D01*
X63042857Y-159176857D01*
X62642857Y-158376857D02*
X62642857Y-159405428D01*
X62700000Y-159519714D01*
X62814285Y-159576857D01*
X62871428Y-159576857D01*
X62642857Y-157976857D02*
X62700000Y-158034000D01*
X62642857Y-158091142D01*
X62585714Y-158034000D01*
X62642857Y-157976857D01*
X62642857Y-158091142D01*
X61900000Y-159176857D02*
X62014285Y-159119714D01*
X62071428Y-159062571D01*
X62128571Y-158948285D01*
X62128571Y-158605428D01*
X62071428Y-158491142D01*
X62014285Y-158434000D01*
X61900000Y-158376857D01*
X61728571Y-158376857D01*
X61614285Y-158434000D01*
X61557142Y-158491142D01*
X61500000Y-158605428D01*
X61500000Y-158948285D01*
X61557142Y-159062571D01*
X61614285Y-159119714D01*
X61728571Y-159176857D01*
X61900000Y-159176857D01*
X61100000Y-158376857D02*
X60814285Y-159176857D01*
X60528571Y-158376857D02*
X60814285Y-159176857D01*
X60928571Y-159462571D01*
X60985714Y-159519714D01*
X61100000Y-159576857D01*
X67557142Y-161108857D02*
X67557142Y-159908857D01*
X67157142Y-160766000D01*
X66757142Y-159908857D01*
X66757142Y-161108857D01*
X66014285Y-161108857D02*
X66128571Y-161051714D01*
X66185714Y-160994571D01*
X66242857Y-160880285D01*
X66242857Y-160537428D01*
X66185714Y-160423142D01*
X66128571Y-160366000D01*
X66014285Y-160308857D01*
X65842857Y-160308857D01*
X65728571Y-160366000D01*
X65671428Y-160423142D01*
X65614285Y-160537428D01*
X65614285Y-160880285D01*
X65671428Y-160994571D01*
X65728571Y-161051714D01*
X65842857Y-161108857D01*
X66014285Y-161108857D01*
X64585714Y-161108857D02*
X64585714Y-159908857D01*
X64585714Y-161051714D02*
X64700000Y-161108857D01*
X64928571Y-161108857D01*
X65042857Y-161051714D01*
X65100000Y-160994571D01*
X65157142Y-160880285D01*
X65157142Y-160537428D01*
X65100000Y-160423142D01*
X65042857Y-160366000D01*
X64928571Y-160308857D01*
X64700000Y-160308857D01*
X64585714Y-160366000D01*
X63500000Y-160308857D02*
X63500000Y-161108857D01*
X64014285Y-160308857D02*
X64014285Y-160937428D01*
X63957142Y-161051714D01*
X63842857Y-161108857D01*
X63671428Y-161108857D01*
X63557142Y-161051714D01*
X63500000Y-160994571D01*
X62757142Y-161108857D02*
X62871428Y-161051714D01*
X62928571Y-160937428D01*
X62928571Y-159908857D01*
X61785714Y-161108857D02*
X61785714Y-160480285D01*
X61842857Y-160366000D01*
X61957142Y-160308857D01*
X62185714Y-160308857D01*
X62300000Y-160366000D01*
X61785714Y-161051714D02*
X61900000Y-161108857D01*
X62185714Y-161108857D01*
X62300000Y-161051714D01*
X62357142Y-160937428D01*
X62357142Y-160823142D01*
X62300000Y-160708857D01*
X62185714Y-160651714D01*
X61900000Y-160651714D01*
X61785714Y-160594571D01*
X61214285Y-161108857D02*
X61214285Y-160308857D01*
X61214285Y-160537428D02*
X61157142Y-160423142D01*
X61100000Y-160366000D01*
X60985714Y-160308857D01*
X60871428Y-160308857D01*
%TO.C,kibuzzard-6424498C*%
G36*
X55385818Y-119602084D02*
G01*
X67542931Y-119602084D01*
X67542931Y-122697916D01*
X54457069Y-122697916D01*
X54701116Y-121884425D01*
X56510297Y-121884425D01*
X56905622Y-121884425D01*
X57675187Y-120622022D01*
X57675187Y-121884425D01*
X58070512Y-121884425D01*
X58436846Y-121884425D01*
X58832171Y-121884425D01*
X59761184Y-121884425D01*
X61047307Y-121884425D01*
X61047307Y-120285996D01*
X61272642Y-120285996D01*
X61860358Y-120285996D01*
X61860358Y-121884425D01*
X62255683Y-121884425D01*
X62896109Y-121884425D01*
X63316471Y-121884425D01*
X63449564Y-121489101D01*
X64142700Y-121489101D01*
X64274475Y-121884425D01*
X64694836Y-121884425D01*
X64604578Y-121641960D01*
X64852966Y-121641960D01*
X64981776Y-121755451D01*
X65154731Y-121840281D01*
X65360300Y-121893156D01*
X65586953Y-121910780D01*
X65746181Y-121898701D01*
X65891792Y-121862463D01*
X66023786Y-121802066D01*
X66190152Y-121668809D01*
X66313691Y-121486465D01*
X66370720Y-121340488D01*
X66405641Y-121178405D01*
X66418452Y-121000216D01*
X66418452Y-120869759D01*
X66407691Y-120686811D01*
X66375406Y-120520994D01*
X66321598Y-120372308D01*
X66203330Y-120186835D01*
X66042235Y-120050778D01*
X65913608Y-119988917D01*
X65771071Y-119951800D01*
X65614625Y-119939428D01*
X65403639Y-119957510D01*
X65225743Y-120011758D01*
X65080937Y-120102170D01*
X64970100Y-120227136D01*
X64894109Y-120385047D01*
X64852966Y-120575901D01*
X65237749Y-120575901D01*
X65280082Y-120433254D01*
X65354370Y-120334753D01*
X65461602Y-120277431D01*
X65602766Y-120258323D01*
X65780332Y-120296208D01*
X65909801Y-120409864D01*
X65968514Y-120527290D01*
X66004093Y-120677514D01*
X66016539Y-120860534D01*
X66016539Y-120983085D01*
X66003801Y-121167863D01*
X65965586Y-121319843D01*
X65901895Y-121439026D01*
X65760566Y-121554659D01*
X65565869Y-121593203D01*
X65375124Y-121569483D01*
X65248291Y-121498325D01*
X65248291Y-121167570D01*
X65608037Y-121167570D01*
X65608037Y-120876347D01*
X64852966Y-120876347D01*
X64852966Y-121641960D01*
X64604578Y-121641960D01*
X63980617Y-119965783D01*
X63614282Y-119965783D01*
X62896109Y-121884425D01*
X62255683Y-121884425D01*
X62255683Y-120285996D01*
X62835493Y-120285996D01*
X62835493Y-119965783D01*
X61272642Y-119965783D01*
X61272642Y-120285996D01*
X61047307Y-120285996D01*
X61047307Y-119965783D01*
X59763820Y-119965783D01*
X59763820Y-120285996D01*
X60651982Y-120285996D01*
X60651982Y-120743255D01*
X59892959Y-120743255D01*
X59892959Y-121052926D01*
X60651982Y-121052926D01*
X60651982Y-121566848D01*
X59761184Y-121566848D01*
X59761184Y-121884425D01*
X58832171Y-121884425D01*
X58832171Y-119965783D01*
X58436846Y-119965783D01*
X58436846Y-121884425D01*
X58070512Y-121884425D01*
X58070512Y-119965783D01*
X57675187Y-119965783D01*
X56904304Y-121230822D01*
X56904304Y-119965783D01*
X56510297Y-119965783D01*
X56510297Y-121884425D01*
X54701116Y-121884425D01*
X55385818Y-119602084D01*
G37*
G36*
X64035962Y-121168888D02*
G01*
X63556301Y-121168888D01*
X63797449Y-120450715D01*
X64035962Y-121168888D01*
G37*
%TO.C,kibuzzard-64244971*%
G36*
X51239193Y-151752084D02*
G01*
X65360807Y-151752084D01*
X64432057Y-154847916D01*
X51239193Y-154847916D01*
X51239193Y-152885788D01*
X52363672Y-152885788D01*
X52951388Y-152885788D01*
X52951388Y-154484217D01*
X53346713Y-154484217D01*
X53346713Y-153829296D01*
X54132092Y-153829296D01*
X54153981Y-154024616D01*
X54219649Y-154190652D01*
X54329095Y-154327405D01*
X54476463Y-154429164D01*
X54655897Y-154490220D01*
X54867396Y-154510572D01*
X55076039Y-154490806D01*
X55253935Y-154431507D01*
X55401084Y-154332676D01*
X55511336Y-154199291D01*
X55578541Y-154036329D01*
X55602700Y-153843791D01*
X55602700Y-153568382D01*
X55871520Y-153568382D01*
X55882648Y-153749499D01*
X55916031Y-153915096D01*
X55971669Y-154065173D01*
X56048025Y-154196655D01*
X56143562Y-154306467D01*
X56258280Y-154394610D01*
X56388664Y-154459033D01*
X56531200Y-154497687D01*
X56685889Y-154510572D01*
X56839187Y-154497834D01*
X56981065Y-154459619D01*
X57111522Y-154395928D01*
X57226898Y-154308590D01*
X57323533Y-154199437D01*
X57401427Y-154068467D01*
X57458676Y-153919488D01*
X57493377Y-153756307D01*
X57505529Y-153578924D01*
X57505529Y-153484046D01*
X57494182Y-153302709D01*
X57460140Y-153136453D01*
X57403404Y-152985278D01*
X57325949Y-152852771D01*
X57229754Y-152742519D01*
X57114817Y-152654523D01*
X56984579Y-152590465D01*
X56892556Y-152565575D01*
X58300132Y-152565575D01*
X58968231Y-154484217D01*
X59380686Y-154484217D01*
X60229316Y-154484217D01*
X60624641Y-154484217D01*
X61394206Y-153221814D01*
X61394206Y-154484217D01*
X61789531Y-154484217D01*
X62021455Y-154484217D01*
X63307578Y-154484217D01*
X63307578Y-152565575D01*
X62024091Y-152565575D01*
X62024091Y-152885788D01*
X62912253Y-152885788D01*
X62912253Y-153343046D01*
X62153230Y-153343046D01*
X62153230Y-153652717D01*
X62912253Y-153652717D01*
X62912253Y-154166640D01*
X62021455Y-154166640D01*
X62021455Y-154484217D01*
X61789531Y-154484217D01*
X61789531Y-152565575D01*
X61394206Y-152565575D01*
X60623323Y-153830614D01*
X60623323Y-152565575D01*
X60229316Y-152565575D01*
X60229316Y-154484217D01*
X59380686Y-154484217D01*
X60046149Y-152565575D01*
X59607339Y-152565575D01*
X59175117Y-154008510D01*
X58740260Y-152565575D01*
X58300132Y-152565575D01*
X56892556Y-152565575D01*
X56842482Y-152552031D01*
X56688525Y-152539220D01*
X56534568Y-152552031D01*
X56392470Y-152590465D01*
X56262233Y-152654523D01*
X56147296Y-152742519D01*
X56051100Y-152852771D01*
X55973646Y-152985278D01*
X55916909Y-153136306D01*
X55882868Y-153302123D01*
X55871520Y-153482728D01*
X55871520Y-153568382D01*
X55602700Y-153568382D01*
X55602700Y-152565575D01*
X55207375Y-152565575D01*
X55207375Y-153831931D01*
X55184808Y-153994838D01*
X55117109Y-154106682D01*
X55009548Y-154171416D01*
X54867396Y-154192995D01*
X54721208Y-154171087D01*
X54616035Y-154105364D01*
X54551877Y-153995826D01*
X54528734Y-153842473D01*
X54528734Y-152565575D01*
X54132092Y-152565575D01*
X54132092Y-153829296D01*
X53346713Y-153829296D01*
X53346713Y-152885788D01*
X53926523Y-152885788D01*
X53926523Y-152565575D01*
X52363672Y-152565575D01*
X52363672Y-152885788D01*
X51239193Y-152885788D01*
X51239193Y-151752084D01*
G37*
G36*
X56864774Y-152904730D02*
G01*
X56995560Y-153020857D01*
X57055737Y-153140113D01*
X57092195Y-153291435D01*
X57104933Y-153474821D01*
X57104933Y-153568382D01*
X57092927Y-153749645D01*
X57056909Y-153901626D01*
X56996878Y-154024323D01*
X56865103Y-154145885D01*
X56685889Y-154186406D01*
X56509970Y-154147368D01*
X56380171Y-154030253D01*
X56320726Y-153910264D01*
X56284708Y-153758503D01*
X56272116Y-153574970D01*
X56272116Y-153481410D01*
X56284122Y-153296340D01*
X56320141Y-153143481D01*
X56380171Y-153022833D01*
X56511287Y-152905224D01*
X56688525Y-152866021D01*
X56864774Y-152904730D01*
G37*
%TO.C,Ge*%
G36*
X57837795Y-37320745D02*
G01*
X57791151Y-37422270D01*
X57646922Y-37642504D01*
X57490827Y-37789207D01*
X57310105Y-37870898D01*
X57091883Y-37896304D01*
X57052987Y-37896548D01*
X56945560Y-37903129D01*
X56900349Y-37922734D01*
X56901379Y-37960771D01*
X56903231Y-37966820D01*
X56885540Y-38045038D01*
X56811432Y-38144726D01*
X56696807Y-38264370D01*
X56568982Y-38176235D01*
X56548781Y-38162278D01*
X56465407Y-38104028D01*
X56421506Y-38072276D01*
X56425451Y-38057106D01*
X56474147Y-38001509D01*
X56560935Y-37922898D01*
X56720014Y-37789343D01*
X56608155Y-37716050D01*
X56559438Y-37673456D01*
X56472871Y-37562992D01*
X56396970Y-37429429D01*
X56356851Y-37324135D01*
X56312335Y-37112029D01*
X56862996Y-37112029D01*
X56883423Y-37260366D01*
X56930041Y-37377786D01*
X57001576Y-37451932D01*
X57080281Y-37484121D01*
X57142154Y-37466721D01*
X57222665Y-37384762D01*
X57278990Y-37253128D01*
X57300194Y-37091346D01*
X57299533Y-37055403D01*
X57271650Y-36900475D01*
X57199877Y-36811560D01*
X57080281Y-36783147D01*
X56992715Y-36798927D01*
X56913522Y-36847195D01*
X56904960Y-36859007D01*
X56869821Y-36966876D01*
X56862996Y-37112029D01*
X56312335Y-37112029D01*
X56307642Y-37089668D01*
X56293700Y-36834928D01*
X56315708Y-36591188D01*
X56374345Y-36389720D01*
X56418227Y-36306203D01*
X56574938Y-36119168D01*
X56776380Y-35993277D01*
X57008202Y-35935631D01*
X57256053Y-35953332D01*
X57322331Y-35969959D01*
X57509962Y-36043202D01*
X57651052Y-36155103D01*
X57772636Y-36325117D01*
X57799153Y-36371598D01*
X57844129Y-36467895D01*
X57869679Y-36568396D01*
X57880927Y-36699157D01*
X57882998Y-36886231D01*
X57879456Y-37060950D01*
X57876646Y-37091346D01*
X57865799Y-37208655D01*
X57837795Y-37320745D01*
G37*
G36*
X54514694Y-37767511D02*
G01*
X54523787Y-37818673D01*
X54519729Y-37826743D01*
X54462644Y-37847079D01*
X54359638Y-37855225D01*
X54254132Y-37848607D01*
X54197110Y-37817354D01*
X54167982Y-37745633D01*
X54150699Y-37685216D01*
X54126981Y-37664482D01*
X54086216Y-37710247D01*
X54052155Y-37760855D01*
X54018854Y-37823759D01*
X54010385Y-37830946D01*
X53951076Y-37820885D01*
X53857521Y-37775607D01*
X53799927Y-37741967D01*
X53734433Y-37710913D01*
X53704614Y-37720997D01*
X53687444Y-37771687D01*
X53681256Y-37791216D01*
X53655354Y-37825364D01*
X53599740Y-37844684D01*
X53496843Y-37853272D01*
X53329089Y-37855225D01*
X53249829Y-37854976D01*
X53114395Y-37851241D01*
X53040074Y-37840305D01*
X53011878Y-37818727D01*
X53014819Y-37783066D01*
X53029620Y-37727065D01*
X53060219Y-37600968D01*
X53093655Y-37458892D01*
X53785220Y-37458892D01*
X53787655Y-37460624D01*
X53843757Y-37480283D01*
X53942282Y-37504532D01*
X53963157Y-37508971D01*
X54044510Y-37520148D01*
X54069518Y-37494511D01*
X54058675Y-37416573D01*
X54034594Y-37315142D01*
X53992142Y-37188721D01*
X53948792Y-37106882D01*
X53912640Y-37087852D01*
X53884333Y-37128288D01*
X53845534Y-37216844D01*
X53809089Y-37321827D01*
X53785488Y-37412692D01*
X53785220Y-37458892D01*
X53093655Y-37458892D01*
X53101660Y-37424876D01*
X53150195Y-37215190D01*
X53202078Y-36988308D01*
X53253561Y-36760629D01*
X53300897Y-36548552D01*
X53340338Y-36368475D01*
X53368139Y-36236799D01*
X53416322Y-35999705D01*
X54139476Y-35999705D01*
X54190902Y-36298650D01*
X54195573Y-36325050D01*
X54228127Y-36491727D01*
X54273830Y-36708135D01*
X54327275Y-36949203D01*
X54383057Y-37189858D01*
X54405394Y-37284328D01*
X54452111Y-37485204D01*
X54454216Y-37494511D01*
X54489673Y-37651310D01*
X54514694Y-37767511D01*
G37*
G36*
X55837836Y-35999696D02*
G01*
X56224125Y-35999705D01*
X56196338Y-36360501D01*
X56170383Y-36670292D01*
X56137322Y-36976308D01*
X56099248Y-37217956D01*
X56052900Y-37405127D01*
X55995018Y-37547711D01*
X55922342Y-37655598D01*
X55831611Y-37738677D01*
X55719566Y-37806840D01*
X55676806Y-37828236D01*
X55581294Y-37866512D01*
X55480688Y-37886362D01*
X55349313Y-37891393D01*
X55161497Y-37885210D01*
X55102773Y-37882573D01*
X54930411Y-37874095D01*
X54803274Y-37858530D01*
X54714507Y-37825116D01*
X54657254Y-37763090D01*
X54624658Y-37661692D01*
X54609863Y-37510158D01*
X54606014Y-37297726D01*
X54606255Y-37013636D01*
X54605175Y-36792010D01*
X54601605Y-36558400D01*
X54595989Y-36359298D01*
X54588794Y-36210690D01*
X54580483Y-36128561D01*
X54554712Y-35999705D01*
X55149361Y-35999705D01*
X55119537Y-36783147D01*
X55089712Y-37566588D01*
X55217637Y-37566588D01*
X55224466Y-37566553D01*
X55300813Y-37557945D01*
X55358051Y-37527236D01*
X55398865Y-37464375D01*
X55425939Y-37359308D01*
X55441954Y-37201985D01*
X55449596Y-36982354D01*
X55451547Y-36690361D01*
X55451547Y-35999686D01*
X55837836Y-35999696D01*
G37*
G36*
X52734069Y-37869668D02*
G01*
X52590449Y-37880684D01*
X52383297Y-37876580D01*
X52167138Y-37856391D01*
X51972362Y-37823134D01*
X51829361Y-37779829D01*
X51783955Y-37757727D01*
X51593106Y-37618635D01*
X51439606Y-37433138D01*
X51345937Y-37226951D01*
X51343809Y-37218874D01*
X51334042Y-37148076D01*
X51814176Y-37148076D01*
X51820345Y-37188642D01*
X51858297Y-37315173D01*
X51911207Y-37401963D01*
X51976281Y-37451800D01*
X52082277Y-37503712D01*
X52096512Y-37507903D01*
X52135374Y-37514037D01*
X52158290Y-37495467D01*
X52168599Y-37437762D01*
X52169637Y-37326492D01*
X52164745Y-37147226D01*
X52162957Y-37089997D01*
X52156544Y-36930760D01*
X52146673Y-36834731D01*
X52128689Y-36786853D01*
X52097937Y-36772068D01*
X52049761Y-36775320D01*
X52012477Y-36782210D01*
X51891798Y-36850173D01*
X51823687Y-36975310D01*
X51814176Y-37148076D01*
X51334042Y-37148076D01*
X51317003Y-37024563D01*
X51322696Y-36808095D01*
X51357736Y-36603249D01*
X51418973Y-36443804D01*
X51558883Y-36269169D01*
X51772633Y-36119455D01*
X52038978Y-36019256D01*
X52348592Y-35971960D01*
X52692151Y-35980960D01*
X52966653Y-36010357D01*
X52941978Y-36190381D01*
X52934532Y-36263581D01*
X52923521Y-36416525D01*
X52911678Y-36620417D01*
X52900008Y-36857664D01*
X52889512Y-37110677D01*
X52881410Y-37326492D01*
X52861721Y-37850948D01*
X52734069Y-37869668D01*
G37*
%TO.C,kibuzzard-640B6CDE*%
G36*
X52598182Y-69643741D02*
G01*
X52317191Y-69643741D01*
X52016337Y-69588027D01*
X51795905Y-69420886D01*
X51695351Y-69251000D01*
X51633986Y-69038481D01*
X51611808Y-68783328D01*
X51611808Y-68634113D01*
X51631617Y-68370455D01*
X51691045Y-68153091D01*
X51790091Y-67982021D01*
X52009555Y-67815606D01*
X52311377Y-67760135D01*
X52598182Y-67760135D01*
X52598182Y-69643741D01*
G37*
G36*
X49369051Y-66793140D02*
G01*
X57630949Y-66793140D01*
X56486833Y-70606860D01*
X49369051Y-70606860D01*
X49369051Y-68765887D01*
X51022696Y-68765887D01*
X51040676Y-69018456D01*
X51094613Y-69251646D01*
X51184508Y-69465457D01*
X51307132Y-69654291D01*
X51459255Y-69812551D01*
X51640876Y-69940234D01*
X51845644Y-70034113D01*
X52067206Y-70090957D01*
X52305564Y-70110767D01*
X53179542Y-70110767D01*
X53179542Y-67289233D01*
X52311377Y-67289233D01*
X52072051Y-67307858D01*
X51850165Y-67363734D01*
X51645720Y-67456859D01*
X51464315Y-67584327D01*
X51311546Y-67743232D01*
X51187415Y-67933574D01*
X51095905Y-68149000D01*
X51040999Y-68383159D01*
X51022696Y-68636050D01*
X51022696Y-68765887D01*
X49369051Y-68765887D01*
X49369051Y-66793140D01*
G37*
%TO.C,kibuzzard-640B6CC5*%
G36*
X67152542Y-50858505D02*
G01*
X66447158Y-50858505D01*
X66801788Y-49802368D01*
X67152542Y-50858505D01*
G37*
G36*
X61024879Y-48593140D02*
G01*
X69775121Y-48593140D01*
X69775121Y-52406860D01*
X62168996Y-52406860D01*
X62020168Y-51910767D01*
X65476287Y-51910767D01*
X66094467Y-51910767D01*
X66290191Y-51329407D01*
X67309509Y-51329407D01*
X67503295Y-51910767D01*
X68121475Y-51910767D01*
X67071151Y-49089233D01*
X66532424Y-49089233D01*
X65476287Y-51910767D01*
X62020168Y-51910767D01*
X61024879Y-48593140D01*
G37*
%TO.C,G\u002A\u002A\u002A*%
G36*
X57038952Y-38566718D02*
G01*
X57379484Y-38570194D01*
X57614024Y-38578982D01*
X57758115Y-38594475D01*
X57827295Y-38618065D01*
X57837106Y-38651146D01*
X57833810Y-38665251D01*
X57821080Y-38786884D01*
X57806039Y-39009214D01*
X57789795Y-39312192D01*
X57773456Y-39675768D01*
X57758131Y-40079896D01*
X57711638Y-41424000D01*
X56898567Y-41424000D01*
X56852726Y-41423924D01*
X56550531Y-41419460D01*
X56300852Y-41409108D01*
X56128513Y-41394278D01*
X56058338Y-41376375D01*
X56055329Y-41370292D01*
X56025065Y-41268040D01*
X55991101Y-41106500D01*
X55951022Y-40884250D01*
X56300261Y-40906001D01*
X56649500Y-40927753D01*
X56649500Y-40731376D01*
X56647837Y-40654393D01*
X56622611Y-40572257D01*
X56539416Y-40540362D01*
X56363750Y-40535000D01*
X56278404Y-40532453D01*
X56134771Y-40512577D01*
X56078000Y-40479437D01*
X56077999Y-40478915D01*
X56066221Y-40381130D01*
X56038313Y-40225437D01*
X55998625Y-40027000D01*
X56324063Y-40027000D01*
X56470381Y-40025081D01*
X56591358Y-40007886D01*
X56640331Y-39959003D01*
X56649500Y-39862121D01*
X56645802Y-39784514D01*
X56612806Y-39727329D01*
X56518061Y-39710386D01*
X56329197Y-39719246D01*
X56177410Y-39727798D01*
X56071866Y-39715082D01*
X56006875Y-39659652D01*
X55970495Y-39540488D01*
X55950781Y-39336568D01*
X55935790Y-39026874D01*
X55915099Y-38566499D01*
X56892344Y-38566499D01*
X57038952Y-38566718D01*
G37*
G36*
X54118417Y-38896272D02*
G01*
X54095583Y-39226123D01*
X54856995Y-38566499D01*
X55313027Y-38566500D01*
X55341443Y-38566522D01*
X55566532Y-38570642D01*
X55691416Y-38586291D01*
X55740419Y-38619831D01*
X55737866Y-38677625D01*
X55736236Y-38684319D01*
X55721202Y-38801720D01*
X55703617Y-39014487D01*
X55685538Y-39294654D01*
X55669020Y-39614250D01*
X55652873Y-39946138D01*
X55632480Y-40324079D01*
X55611998Y-40668164D01*
X55594074Y-40931875D01*
X55556782Y-41424000D01*
X54998500Y-41424000D01*
X54998500Y-40947750D01*
X54998249Y-40904312D01*
X54988291Y-40684370D01*
X54966693Y-40529844D01*
X54937401Y-40471500D01*
X54936300Y-40471564D01*
X54861068Y-40510725D01*
X54707918Y-40611945D01*
X54498579Y-40760286D01*
X54254776Y-40940811D01*
X53633250Y-41410122D01*
X53594118Y-40893186D01*
X53592519Y-40871769D01*
X53574185Y-40597205D01*
X53553329Y-40243402D01*
X53532397Y-39853684D01*
X53513835Y-39471375D01*
X53472683Y-38566500D01*
X53806967Y-38566460D01*
X54141250Y-38566421D01*
X54118417Y-38896272D01*
G37*
G36*
X51401657Y-38573662D02*
G01*
X51477121Y-38611331D01*
X51529238Y-38702440D01*
X51576058Y-38870243D01*
X51635629Y-39138000D01*
X51684417Y-39345902D01*
X51738437Y-39522267D01*
X51783881Y-39583324D01*
X51826474Y-39535017D01*
X51871942Y-39383288D01*
X51881569Y-39342682D01*
X51937029Y-39083198D01*
X51982116Y-38836375D01*
X52025164Y-38566500D01*
X53338459Y-38566500D01*
X53036683Y-39471375D01*
X53011815Y-39546182D01*
X52888250Y-39924069D01*
X52767413Y-40302533D01*
X52662039Y-40641307D01*
X52584861Y-40900125D01*
X52434814Y-41424000D01*
X51776736Y-41424000D01*
X51669336Y-41041227D01*
X51637469Y-40931505D01*
X51560916Y-40678827D01*
X51460291Y-40354685D01*
X51344974Y-39989196D01*
X51224345Y-39612477D01*
X50886755Y-38566500D01*
X51192098Y-38566500D01*
X51284798Y-38566176D01*
X51401657Y-38573662D01*
G37*
%TO.C,kibuzzard-640B6D2B*%
G36*
X52568529Y-106656982D02*
G01*
X52099566Y-106656982D01*
X51905295Y-106629126D01*
X51760439Y-106545555D01*
X51670328Y-106413054D01*
X51640291Y-106238403D01*
X51668633Y-106060120D01*
X51753657Y-105924469D01*
X51897301Y-105838718D01*
X52101503Y-105810135D01*
X52568529Y-105810135D01*
X52568529Y-106656982D01*
G37*
G36*
X49298703Y-104843140D02*
G01*
X57601297Y-104843140D01*
X56457181Y-108656860D01*
X49298703Y-108656860D01*
X49298703Y-108160767D01*
X50952349Y-108160767D01*
X51576342Y-108160767D01*
X52105379Y-107127884D01*
X52568529Y-107127884D01*
X52568529Y-108160767D01*
X53149889Y-108160767D01*
X53149889Y-105339233D01*
X52101503Y-105339233D01*
X51793598Y-105363995D01*
X51536508Y-105438280D01*
X51330233Y-105562088D01*
X51179510Y-105731113D01*
X51089076Y-105941049D01*
X51058931Y-106191895D01*
X51090180Y-106456656D01*
X51183924Y-106673454D01*
X51341133Y-106846651D01*
X51562777Y-106980606D01*
X50952349Y-108133636D01*
X50952349Y-108160767D01*
X49298703Y-108160767D01*
X49298703Y-104843140D01*
G37*
%TO.C,kibuzzard-640B6D1B*%
G36*
X61153548Y-85754382D02*
G01*
X69446452Y-85754382D01*
X69446452Y-89645618D01*
X62320918Y-89645618D01*
X61937221Y-88366626D01*
X65628210Y-88366626D01*
X65659000Y-88593249D01*
X65751372Y-88784774D01*
X65905325Y-88941203D01*
X66111385Y-89056937D01*
X66360077Y-89126377D01*
X66651403Y-89149524D01*
X66962431Y-89119729D01*
X67244390Y-89030345D01*
X67480083Y-88889123D01*
X67652311Y-88703815D01*
X67757683Y-88479991D01*
X67792806Y-88223224D01*
X67209509Y-88223224D01*
X67174627Y-88427548D01*
X67069982Y-88573493D01*
X66895574Y-88661061D01*
X66651403Y-88690250D01*
X66466822Y-88669175D01*
X66327780Y-88605952D01*
X66211508Y-88370502D01*
X66327780Y-88117610D01*
X66490560Y-88027015D01*
X66746359Y-87931575D01*
X67017176Y-87834439D01*
X67225012Y-87738757D01*
X67492007Y-87545617D01*
X67652204Y-87312427D01*
X67705603Y-87039188D01*
X67673385Y-86822873D01*
X67576734Y-86631267D01*
X67419767Y-86471635D01*
X67206602Y-86351245D01*
X66950561Y-86275668D01*
X66664968Y-86250476D01*
X66379133Y-86277848D01*
X66126242Y-86359966D01*
X65916225Y-86491983D01*
X65759016Y-86669055D01*
X65660911Y-86882220D01*
X65628210Y-87122516D01*
X66209570Y-87122516D01*
X66240091Y-86950288D01*
X66331655Y-86821178D01*
X66478449Y-86740514D01*
X66674658Y-86713626D01*
X66864084Y-86736154D01*
X67006033Y-86803737D01*
X67124243Y-87041125D01*
X66985685Y-87271732D01*
X66814426Y-87361842D01*
X66577764Y-87446140D01*
X66276964Y-87553583D01*
X66036023Y-87676961D01*
X65854940Y-87816272D01*
X65684893Y-88064319D01*
X65628210Y-88366626D01*
X61937221Y-88366626D01*
X61153548Y-85754382D01*
G37*
%TD*%
D11*
%TO.C,Ref\u002A\u002A*%
X62080000Y-37300000D03*
%TD*%
%TO.C,Ref\u002A\u002A*%
X56780000Y-159800000D03*
%TD*%
D12*
%TO.C,Ref\u002A\u002A*%
X59400000Y-110000000D03*
%TD*%
%TO.C,Ref\u002A\u002A*%
X59400000Y-91000000D03*
%TD*%
%TO.C,Ref\u002A\u002A*%
X59400000Y-54000000D03*
%TD*%
%TO.C,Ref\u002A\u002A*%
X59400000Y-72000000D03*
%TD*%
G36*
X58342121Y-44020002D02*
G01*
X58388614Y-44073658D01*
X58400000Y-44126000D01*
X58400000Y-46374000D01*
X58379998Y-46442121D01*
X58326342Y-46488614D01*
X58274000Y-46500000D01*
X55726000Y-46500000D01*
X55657879Y-46479998D01*
X55611386Y-46426342D01*
X55600000Y-46374000D01*
X55600000Y-44126000D01*
X55620002Y-44057879D01*
X55673658Y-44011386D01*
X55726000Y-44000000D01*
X58274000Y-44000000D01*
X58342121Y-44020002D01*
G37*
G36*
X67742121Y-44020002D02*
G01*
X67788614Y-44073658D01*
X67800000Y-44126000D01*
X67800000Y-46374000D01*
X67779998Y-46442121D01*
X67726342Y-46488614D01*
X67674000Y-46500000D01*
X65126000Y-46500000D01*
X65057879Y-46479998D01*
X65011386Y-46426342D01*
X65000000Y-46374000D01*
X65000000Y-44126000D01*
X65020002Y-44057879D01*
X65073658Y-44011386D01*
X65126000Y-44000000D01*
X67674000Y-44000000D01*
X67742121Y-44020002D01*
G37*
G36*
X63042121Y-44020002D02*
G01*
X63088614Y-44073658D01*
X63100000Y-44126000D01*
X63100000Y-46374000D01*
X63079998Y-46442121D01*
X63026342Y-46488614D01*
X62974000Y-46500000D01*
X60426000Y-46500000D01*
X60357879Y-46479998D01*
X60311386Y-46426342D01*
X60300000Y-46374000D01*
X60300000Y-44126000D01*
X60320002Y-44057879D01*
X60373658Y-44011386D01*
X60426000Y-44000000D01*
X62974000Y-44000000D01*
X63042121Y-44020002D01*
G37*
G36*
X53642121Y-44020002D02*
G01*
X53688614Y-44073658D01*
X53700000Y-44126000D01*
X53700000Y-46374000D01*
X53679998Y-46442121D01*
X53626342Y-46488614D01*
X53574000Y-46500000D01*
X51026000Y-46500000D01*
X50957879Y-46479998D01*
X50911386Y-46426342D01*
X50900000Y-46374000D01*
X50900000Y-44126000D01*
X50920002Y-44057879D01*
X50973658Y-44011386D01*
X51026000Y-44000000D01*
X53574000Y-44000000D01*
X53642121Y-44020002D01*
G37*
M02*
