%TF.GenerationSoftware,KiCad,Pcbnew,(6.0.11)*%
%TF.CreationDate,2023-03-29T15:24:12+01:00*%
%TF.ProjectId,QuadEnv_Panel,51756164-456e-4765-9f50-616e656c2e6b,rev?*%
%TF.SameCoordinates,Original*%
%TF.FileFunction,Copper,L1,Top*%
%TF.FilePolarity,Positive*%
%FSLAX46Y46*%
G04 Gerber Fmt 4.6, Leading zero omitted, Abs format (unit mm)*
G04 Created by KiCad (PCBNEW (6.0.11)) date 2023-03-29 15:24:12*
%MOMM*%
%LPD*%
G01*
G04 APERTURE LIST*
G04 APERTURE END LIST*
%TA.AperFunction,NonConductor*%
G36*
X59968582Y-35070502D02*
G01*
X60015075Y-35124158D01*
X60025179Y-35194432D01*
X59995685Y-35259012D01*
X59970463Y-35281265D01*
X59749467Y-35428929D01*
X59749462Y-35428933D01*
X59746036Y-35431222D01*
X59742942Y-35433936D01*
X59742936Y-35433940D01*
X59517469Y-35631671D01*
X59514380Y-35634380D01*
X59511671Y-35637469D01*
X59313940Y-35862936D01*
X59313936Y-35862942D01*
X59311222Y-35866036D01*
X59140040Y-36122228D01*
X59003762Y-36398573D01*
X58904720Y-36690341D01*
X58844609Y-36992540D01*
X58824457Y-37300000D01*
X58844609Y-37607460D01*
X58904720Y-37909659D01*
X59003762Y-38201427D01*
X59140040Y-38477771D01*
X59311222Y-38733964D01*
X59313936Y-38737058D01*
X59313940Y-38737064D01*
X59511671Y-38962531D01*
X59514380Y-38965620D01*
X59517469Y-38968329D01*
X59742936Y-39166060D01*
X59742942Y-39166064D01*
X59746036Y-39168778D01*
X60002229Y-39339960D01*
X60005928Y-39341784D01*
X60005933Y-39341787D01*
X60147962Y-39411828D01*
X60278573Y-39476238D01*
X60282478Y-39477564D01*
X60282479Y-39477564D01*
X60566434Y-39573954D01*
X60566437Y-39573955D01*
X60570341Y-39575280D01*
X60574380Y-39576083D01*
X60574386Y-39576085D01*
X60868497Y-39634587D01*
X60868500Y-39634587D01*
X60872540Y-39635391D01*
X60876651Y-39635660D01*
X60876655Y-39635661D01*
X61101010Y-39650366D01*
X61101019Y-39650366D01*
X61103059Y-39650500D01*
X63056941Y-39650500D01*
X63058981Y-39650366D01*
X63058990Y-39650366D01*
X63283345Y-39635661D01*
X63283349Y-39635660D01*
X63287460Y-39635391D01*
X63291500Y-39634587D01*
X63291503Y-39634587D01*
X63585614Y-39576085D01*
X63585620Y-39576083D01*
X63589659Y-39575280D01*
X63593563Y-39573955D01*
X63593566Y-39573954D01*
X63877521Y-39477564D01*
X63877522Y-39477564D01*
X63881427Y-39476238D01*
X64012038Y-39411828D01*
X64154067Y-39341787D01*
X64154072Y-39341784D01*
X64157771Y-39339960D01*
X64413964Y-39168778D01*
X64417058Y-39166064D01*
X64417064Y-39166060D01*
X64642531Y-38968329D01*
X64645620Y-38965620D01*
X64648329Y-38962531D01*
X64846060Y-38737064D01*
X64846064Y-38737058D01*
X64848778Y-38733964D01*
X65019960Y-38477772D01*
X65156238Y-38201427D01*
X65255280Y-37909659D01*
X65315391Y-37607460D01*
X65335543Y-37300000D01*
X65315391Y-36992540D01*
X65255280Y-36690341D01*
X65156238Y-36398573D01*
X65019960Y-36122229D01*
X64848778Y-35866036D01*
X64846064Y-35862942D01*
X64846060Y-35862936D01*
X64648329Y-35637469D01*
X64645620Y-35634380D01*
X64642531Y-35631671D01*
X64417064Y-35433940D01*
X64417058Y-35433936D01*
X64413964Y-35431222D01*
X64410538Y-35428933D01*
X64410533Y-35428929D01*
X64189537Y-35281265D01*
X64144009Y-35226788D01*
X64135161Y-35156345D01*
X64165802Y-35092301D01*
X64226204Y-35054990D01*
X64259539Y-35050500D01*
X68723500Y-35050500D01*
X68791621Y-35070502D01*
X68838114Y-35124158D01*
X68849500Y-35176500D01*
X68849500Y-161923500D01*
X68829498Y-161991621D01*
X68775842Y-162038114D01*
X68723500Y-162049500D01*
X58959539Y-162049500D01*
X58891418Y-162029498D01*
X58844925Y-161975842D01*
X58834821Y-161905568D01*
X58864315Y-161840988D01*
X58889537Y-161818735D01*
X59110533Y-161671071D01*
X59110538Y-161671067D01*
X59113964Y-161668778D01*
X59117058Y-161666064D01*
X59117064Y-161666060D01*
X59342531Y-161468329D01*
X59345620Y-161465620D01*
X59348329Y-161462531D01*
X59546060Y-161237064D01*
X59546064Y-161237058D01*
X59548778Y-161233964D01*
X59719960Y-160977772D01*
X59856238Y-160701427D01*
X59955280Y-160409659D01*
X60015391Y-160107460D01*
X60035543Y-159800000D01*
X60015391Y-159492540D01*
X59955280Y-159190341D01*
X59856238Y-158898573D01*
X59719960Y-158622229D01*
X59548778Y-158366036D01*
X59546064Y-158362942D01*
X59546060Y-158362936D01*
X59348329Y-158137469D01*
X59345620Y-158134380D01*
X59342531Y-158131671D01*
X59117064Y-157933940D01*
X59117058Y-157933936D01*
X59113964Y-157931222D01*
X58857771Y-157760040D01*
X58854072Y-157758216D01*
X58854067Y-157758213D01*
X58712038Y-157688172D01*
X58581427Y-157623762D01*
X58577521Y-157622436D01*
X58293566Y-157526046D01*
X58293563Y-157526045D01*
X58289659Y-157524720D01*
X58285620Y-157523917D01*
X58285614Y-157523915D01*
X57991503Y-157465413D01*
X57991500Y-157465413D01*
X57987460Y-157464609D01*
X57983349Y-157464340D01*
X57983345Y-157464339D01*
X57758990Y-157449634D01*
X57758981Y-157449634D01*
X57756941Y-157449500D01*
X55803059Y-157449500D01*
X55801019Y-157449634D01*
X55801010Y-157449634D01*
X55576655Y-157464339D01*
X55576651Y-157464340D01*
X55572540Y-157464609D01*
X55568500Y-157465413D01*
X55568497Y-157465413D01*
X55274386Y-157523915D01*
X55274380Y-157523917D01*
X55270341Y-157524720D01*
X55266437Y-157526045D01*
X55266434Y-157526046D01*
X54982479Y-157622436D01*
X54978573Y-157623762D01*
X54847962Y-157688172D01*
X54705933Y-157758213D01*
X54705928Y-157758216D01*
X54702229Y-157760040D01*
X54446036Y-157931222D01*
X54442942Y-157933936D01*
X54442936Y-157933940D01*
X54217469Y-158131671D01*
X54214380Y-158134380D01*
X54211671Y-158137469D01*
X54013940Y-158362936D01*
X54013936Y-158362942D01*
X54011222Y-158366036D01*
X53840040Y-158622228D01*
X53703762Y-158898573D01*
X53604720Y-159190341D01*
X53544609Y-159492540D01*
X53524457Y-159800000D01*
X53544609Y-160107460D01*
X53604720Y-160409659D01*
X53703762Y-160701427D01*
X53840040Y-160977771D01*
X54011222Y-161233964D01*
X54013936Y-161237058D01*
X54013940Y-161237064D01*
X54211671Y-161462531D01*
X54214380Y-161465620D01*
X54217469Y-161468329D01*
X54442936Y-161666060D01*
X54442942Y-161666064D01*
X54446036Y-161668778D01*
X54449462Y-161671067D01*
X54449467Y-161671071D01*
X54670463Y-161818735D01*
X54715991Y-161873212D01*
X54724839Y-161943655D01*
X54694198Y-162007699D01*
X54633796Y-162045010D01*
X54600461Y-162049500D01*
X50176500Y-162049500D01*
X50108379Y-162029498D01*
X50061886Y-161975842D01*
X50050500Y-161923500D01*
X50050500Y-151745862D01*
X50580497Y-151745862D01*
X50581737Y-151753077D01*
X50581737Y-151753080D01*
X50591299Y-151808724D01*
X50592271Y-151815473D01*
X50599657Y-151878828D01*
X50602155Y-151885709D01*
X50602821Y-151887544D01*
X50608563Y-151909200D01*
X50608893Y-151911122D01*
X50608894Y-151911127D01*
X50610134Y-151918340D01*
X50613000Y-151925076D01*
X50613002Y-151925082D01*
X50635109Y-151977036D01*
X50637608Y-151983379D01*
X50659369Y-152043331D01*
X50663383Y-152049454D01*
X50663386Y-152049459D01*
X50664458Y-152051095D01*
X50675023Y-152070838D01*
X50678654Y-152079373D01*
X50682992Y-152085268D01*
X50682994Y-152085271D01*
X50716465Y-152130753D01*
X50720352Y-152136345D01*
X50755323Y-152189685D01*
X50760634Y-152194716D01*
X50760638Y-152194721D01*
X50762058Y-152196066D01*
X50776888Y-152212858D01*
X50778042Y-152214427D01*
X50778048Y-152214434D01*
X50782383Y-152220324D01*
X50787957Y-152225059D01*
X50787963Y-152225066D01*
X50830987Y-152261618D01*
X50836059Y-152266168D01*
X50839870Y-152269778D01*
X50882372Y-152310040D01*
X50890401Y-152314703D01*
X50908695Y-152327634D01*
X50915755Y-152333632D01*
X50922277Y-152336962D01*
X50922278Y-152336963D01*
X50972549Y-152362632D01*
X50978532Y-152365893D01*
X51033702Y-152397939D01*
X51040708Y-152400061D01*
X51042577Y-152400627D01*
X51063351Y-152408999D01*
X51071616Y-152413219D01*
X51097835Y-152419634D01*
X51133574Y-152428380D01*
X51140149Y-152430179D01*
X51194185Y-152446545D01*
X51194189Y-152446546D01*
X51201193Y-152448667D01*
X51210071Y-152449218D01*
X51210457Y-152449242D01*
X51232586Y-152452609D01*
X51236151Y-152453481D01*
X51236158Y-152453482D01*
X51241606Y-152454815D01*
X51248923Y-152455269D01*
X51250709Y-152455380D01*
X51250718Y-152455380D01*
X51252648Y-152455500D01*
X51307435Y-152455500D01*
X51315237Y-152455742D01*
X51375862Y-152459503D01*
X51383078Y-152458263D01*
X51383079Y-152458263D01*
X51384947Y-152457942D01*
X51388568Y-152457320D01*
X51409904Y-152455500D01*
X67437435Y-152455500D01*
X67445237Y-152455742D01*
X67505862Y-152459503D01*
X67513077Y-152458263D01*
X67513080Y-152458263D01*
X67568724Y-152448701D01*
X67575473Y-152447729D01*
X67631554Y-152441191D01*
X67638828Y-152440343D01*
X67647548Y-152437178D01*
X67669200Y-152431437D01*
X67671122Y-152431107D01*
X67671127Y-152431106D01*
X67678340Y-152429866D01*
X67685076Y-152427000D01*
X67685082Y-152426998D01*
X67737036Y-152404891D01*
X67743380Y-152402392D01*
X67796450Y-152383129D01*
X67796452Y-152383128D01*
X67803331Y-152380631D01*
X67809454Y-152376617D01*
X67809459Y-152376614D01*
X67811095Y-152375542D01*
X67830839Y-152364977D01*
X67832638Y-152364212D01*
X67832640Y-152364211D01*
X67839373Y-152361346D01*
X67845268Y-152357008D01*
X67845271Y-152357006D01*
X67890753Y-152323535D01*
X67896351Y-152319644D01*
X67943566Y-152288689D01*
X67943567Y-152288688D01*
X67949685Y-152284677D01*
X67954716Y-152279366D01*
X67954721Y-152279362D01*
X67956066Y-152277942D01*
X67972858Y-152263112D01*
X67974427Y-152261958D01*
X67974434Y-152261952D01*
X67980324Y-152257617D01*
X67985059Y-152252043D01*
X67985066Y-152252037D01*
X68021618Y-152209013D01*
X68026168Y-152203941D01*
X68065006Y-152162942D01*
X68070040Y-152157628D01*
X68074703Y-152149599D01*
X68087634Y-152131305D01*
X68088889Y-152129828D01*
X68088890Y-152129827D01*
X68093632Y-152124245D01*
X68122634Y-152067447D01*
X68125895Y-152061465D01*
X68154263Y-152012627D01*
X68154264Y-152012626D01*
X68157939Y-152006298D01*
X68160627Y-151997422D01*
X68168999Y-151976649D01*
X68173219Y-151968384D01*
X68183815Y-151925082D01*
X68188380Y-151906426D01*
X68190179Y-151899851D01*
X68206545Y-151845815D01*
X68206546Y-151845811D01*
X68208667Y-151838807D01*
X68209242Y-151829543D01*
X68212609Y-151807414D01*
X68213481Y-151803849D01*
X68213482Y-151803842D01*
X68214815Y-151798394D01*
X68215500Y-151787352D01*
X68215500Y-151732565D01*
X68215742Y-151724763D01*
X68219049Y-151671449D01*
X68219503Y-151664138D01*
X68217320Y-151651432D01*
X68215500Y-151630096D01*
X68215500Y-138522565D01*
X68215742Y-138514763D01*
X68219049Y-138461449D01*
X68219503Y-138454138D01*
X68212374Y-138412648D01*
X68208701Y-138391276D01*
X68207729Y-138384527D01*
X68201191Y-138328446D01*
X68200343Y-138321172D01*
X68197178Y-138312452D01*
X68191437Y-138290800D01*
X68191107Y-138288878D01*
X68191106Y-138288873D01*
X68189866Y-138281660D01*
X68187000Y-138274924D01*
X68186998Y-138274918D01*
X68164891Y-138222964D01*
X68162392Y-138216620D01*
X68143129Y-138163550D01*
X68143128Y-138163548D01*
X68140631Y-138156669D01*
X68136617Y-138150546D01*
X68136614Y-138150541D01*
X68135542Y-138148905D01*
X68124977Y-138129161D01*
X68124212Y-138127362D01*
X68124211Y-138127360D01*
X68121346Y-138120627D01*
X68117006Y-138114729D01*
X68083535Y-138069247D01*
X68079644Y-138063649D01*
X68048689Y-138016434D01*
X68048688Y-138016433D01*
X68044677Y-138010315D01*
X68039366Y-138005284D01*
X68039362Y-138005279D01*
X68037942Y-138003934D01*
X68023112Y-137987142D01*
X68021958Y-137985573D01*
X68021952Y-137985566D01*
X68017617Y-137979676D01*
X68012043Y-137974941D01*
X68012037Y-137974934D01*
X67969013Y-137938382D01*
X67963941Y-137933832D01*
X67922942Y-137894994D01*
X67917628Y-137889960D01*
X67909599Y-137885297D01*
X67891305Y-137872366D01*
X67889828Y-137871111D01*
X67889827Y-137871110D01*
X67884245Y-137866368D01*
X67827447Y-137837366D01*
X67821465Y-137834105D01*
X67772627Y-137805737D01*
X67772626Y-137805736D01*
X67766298Y-137802061D01*
X67757422Y-137799373D01*
X67736649Y-137791001D01*
X67728384Y-137786781D01*
X67702165Y-137780366D01*
X67666426Y-137771620D01*
X67659851Y-137769821D01*
X67605815Y-137753455D01*
X67605811Y-137753454D01*
X67598807Y-137751333D01*
X67589929Y-137750782D01*
X67589543Y-137750758D01*
X67567414Y-137747391D01*
X67563849Y-137746519D01*
X67563842Y-137746518D01*
X67558394Y-137745185D01*
X67551077Y-137744731D01*
X67549291Y-137744620D01*
X67549282Y-137744620D01*
X67547352Y-137744500D01*
X67492565Y-137744500D01*
X67484763Y-137744258D01*
X67424138Y-137740497D01*
X67416922Y-137741737D01*
X67416921Y-137741737D01*
X67415053Y-137742058D01*
X67411432Y-137742680D01*
X67390096Y-137744500D01*
X51362565Y-137744500D01*
X51354763Y-137744258D01*
X51294138Y-137740497D01*
X51286923Y-137741737D01*
X51286920Y-137741737D01*
X51231276Y-137751299D01*
X51224526Y-137752271D01*
X51161172Y-137759657D01*
X51152452Y-137762822D01*
X51130800Y-137768563D01*
X51128878Y-137768893D01*
X51128873Y-137768894D01*
X51121660Y-137770134D01*
X51114924Y-137773000D01*
X51114918Y-137773002D01*
X51062964Y-137795109D01*
X51056620Y-137797608D01*
X51003550Y-137816871D01*
X51003548Y-137816872D01*
X50996669Y-137819369D01*
X50990546Y-137823383D01*
X50990541Y-137823386D01*
X50988905Y-137824458D01*
X50969161Y-137835023D01*
X50967362Y-137835788D01*
X50967360Y-137835789D01*
X50960627Y-137838654D01*
X50954732Y-137842992D01*
X50954729Y-137842994D01*
X50909247Y-137876465D01*
X50903655Y-137880352D01*
X50850315Y-137915323D01*
X50845284Y-137920634D01*
X50845279Y-137920638D01*
X50843934Y-137922058D01*
X50827142Y-137936888D01*
X50825573Y-137938042D01*
X50825566Y-137938048D01*
X50819676Y-137942383D01*
X50814941Y-137947957D01*
X50814934Y-137947963D01*
X50778382Y-137990987D01*
X50773832Y-137996059D01*
X50754531Y-138016434D01*
X50729960Y-138042372D01*
X50725297Y-138050401D01*
X50712366Y-138068695D01*
X50706368Y-138075755D01*
X50680017Y-138127362D01*
X50677368Y-138132549D01*
X50674107Y-138138532D01*
X50642061Y-138193702D01*
X50639939Y-138200708D01*
X50639373Y-138202577D01*
X50631001Y-138223351D01*
X50626781Y-138231616D01*
X50625040Y-138238732D01*
X50611620Y-138293574D01*
X50609821Y-138300149D01*
X50593455Y-138354185D01*
X50593454Y-138354189D01*
X50591333Y-138361193D01*
X50590880Y-138368497D01*
X50590758Y-138370457D01*
X50587391Y-138392586D01*
X50586519Y-138396151D01*
X50586518Y-138396158D01*
X50585185Y-138401606D01*
X50584500Y-138412648D01*
X50584500Y-138467435D01*
X50584258Y-138475237D01*
X50580497Y-138535862D01*
X50581737Y-138543078D01*
X50581737Y-138543079D01*
X50582680Y-138548565D01*
X50584500Y-138569904D01*
X50584500Y-151677435D01*
X50584258Y-151685237D01*
X50580497Y-151745862D01*
X50050500Y-151745862D01*
X50050500Y-135945862D01*
X50580497Y-135945862D01*
X50581737Y-135953077D01*
X50581737Y-135953080D01*
X50591299Y-136008724D01*
X50592271Y-136015473D01*
X50599657Y-136078828D01*
X50602155Y-136085709D01*
X50602821Y-136087544D01*
X50608563Y-136109200D01*
X50608893Y-136111122D01*
X50608894Y-136111127D01*
X50610134Y-136118340D01*
X50613000Y-136125076D01*
X50613002Y-136125082D01*
X50635109Y-136177036D01*
X50637608Y-136183379D01*
X50659369Y-136243331D01*
X50663383Y-136249454D01*
X50663386Y-136249459D01*
X50664458Y-136251095D01*
X50675023Y-136270838D01*
X50678654Y-136279373D01*
X50682992Y-136285268D01*
X50682994Y-136285271D01*
X50716465Y-136330753D01*
X50720352Y-136336345D01*
X50755323Y-136389685D01*
X50760634Y-136394716D01*
X50760638Y-136394721D01*
X50762058Y-136396066D01*
X50776888Y-136412858D01*
X50778042Y-136414427D01*
X50778048Y-136414434D01*
X50782383Y-136420324D01*
X50787957Y-136425059D01*
X50787963Y-136425066D01*
X50830987Y-136461618D01*
X50836059Y-136466168D01*
X50839870Y-136469778D01*
X50882372Y-136510040D01*
X50890401Y-136514703D01*
X50908695Y-136527634D01*
X50915755Y-136533632D01*
X50922277Y-136536962D01*
X50922278Y-136536963D01*
X50972549Y-136562632D01*
X50978532Y-136565893D01*
X51033702Y-136597939D01*
X51040708Y-136600061D01*
X51042577Y-136600627D01*
X51063351Y-136608999D01*
X51071616Y-136613219D01*
X51097835Y-136619634D01*
X51133574Y-136628380D01*
X51140149Y-136630179D01*
X51194185Y-136646545D01*
X51194189Y-136646546D01*
X51201193Y-136648667D01*
X51210071Y-136649218D01*
X51210457Y-136649242D01*
X51232586Y-136652609D01*
X51236151Y-136653481D01*
X51236158Y-136653482D01*
X51241606Y-136654815D01*
X51248923Y-136655269D01*
X51250709Y-136655380D01*
X51250718Y-136655380D01*
X51252648Y-136655500D01*
X51307435Y-136655500D01*
X51315237Y-136655742D01*
X51375862Y-136659503D01*
X51383078Y-136658263D01*
X51383079Y-136658263D01*
X51384947Y-136657942D01*
X51388568Y-136657320D01*
X51409904Y-136655500D01*
X67437435Y-136655500D01*
X67445237Y-136655742D01*
X67505862Y-136659503D01*
X67513077Y-136658263D01*
X67513080Y-136658263D01*
X67568724Y-136648701D01*
X67575473Y-136647729D01*
X67631554Y-136641191D01*
X67638828Y-136640343D01*
X67647548Y-136637178D01*
X67669200Y-136631437D01*
X67671122Y-136631107D01*
X67671127Y-136631106D01*
X67678340Y-136629866D01*
X67685076Y-136627000D01*
X67685082Y-136626998D01*
X67737036Y-136604891D01*
X67743380Y-136602392D01*
X67796450Y-136583129D01*
X67796452Y-136583128D01*
X67803331Y-136580631D01*
X67809454Y-136576617D01*
X67809459Y-136576614D01*
X67811095Y-136575542D01*
X67830839Y-136564977D01*
X67832638Y-136564212D01*
X67832640Y-136564211D01*
X67839373Y-136561346D01*
X67845268Y-136557008D01*
X67845271Y-136557006D01*
X67890753Y-136523535D01*
X67896351Y-136519644D01*
X67943566Y-136488689D01*
X67943567Y-136488688D01*
X67949685Y-136484677D01*
X67954716Y-136479366D01*
X67954721Y-136479362D01*
X67956066Y-136477942D01*
X67972858Y-136463112D01*
X67974427Y-136461958D01*
X67974434Y-136461952D01*
X67980324Y-136457617D01*
X67985059Y-136452043D01*
X67985066Y-136452037D01*
X68021618Y-136409013D01*
X68026168Y-136403941D01*
X68065006Y-136362942D01*
X68070040Y-136357628D01*
X68074703Y-136349599D01*
X68087634Y-136331305D01*
X68088889Y-136329828D01*
X68088890Y-136329827D01*
X68093632Y-136324245D01*
X68122634Y-136267447D01*
X68125895Y-136261465D01*
X68154263Y-136212627D01*
X68154264Y-136212626D01*
X68157939Y-136206298D01*
X68160627Y-136197422D01*
X68168999Y-136176649D01*
X68173219Y-136168384D01*
X68183815Y-136125082D01*
X68188380Y-136106426D01*
X68190179Y-136099851D01*
X68206545Y-136045815D01*
X68206546Y-136045811D01*
X68208667Y-136038807D01*
X68209242Y-136029543D01*
X68212609Y-136007414D01*
X68213481Y-136003849D01*
X68213482Y-136003842D01*
X68214815Y-135998394D01*
X68215500Y-135987352D01*
X68215500Y-135932565D01*
X68215742Y-135924763D01*
X68219049Y-135871449D01*
X68219503Y-135864138D01*
X68217320Y-135851432D01*
X68215500Y-135830096D01*
X68215500Y-122722565D01*
X68215742Y-122714763D01*
X68219049Y-122661449D01*
X68219503Y-122654138D01*
X68212374Y-122612648D01*
X68208701Y-122591276D01*
X68207729Y-122584527D01*
X68201191Y-122528446D01*
X68200343Y-122521172D01*
X68197178Y-122512452D01*
X68191437Y-122490800D01*
X68191107Y-122488878D01*
X68191106Y-122488873D01*
X68189866Y-122481660D01*
X68187000Y-122474924D01*
X68186998Y-122474918D01*
X68164891Y-122422964D01*
X68162392Y-122416620D01*
X68143129Y-122363550D01*
X68143128Y-122363548D01*
X68140631Y-122356669D01*
X68136617Y-122350546D01*
X68136614Y-122350541D01*
X68135542Y-122348905D01*
X68124977Y-122329161D01*
X68124212Y-122327362D01*
X68124211Y-122327360D01*
X68121346Y-122320627D01*
X68117006Y-122314729D01*
X68083535Y-122269247D01*
X68079644Y-122263649D01*
X68048689Y-122216434D01*
X68048688Y-122216433D01*
X68044677Y-122210315D01*
X68039366Y-122205284D01*
X68039362Y-122205279D01*
X68037942Y-122203934D01*
X68023112Y-122187142D01*
X68021958Y-122185573D01*
X68021952Y-122185566D01*
X68017617Y-122179676D01*
X68012043Y-122174941D01*
X68012037Y-122174934D01*
X67969013Y-122138382D01*
X67963941Y-122133832D01*
X67922942Y-122094994D01*
X67917628Y-122089960D01*
X67909599Y-122085297D01*
X67891305Y-122072366D01*
X67889828Y-122071111D01*
X67889827Y-122071110D01*
X67884245Y-122066368D01*
X67827447Y-122037366D01*
X67821465Y-122034105D01*
X67772627Y-122005737D01*
X67772626Y-122005736D01*
X67766298Y-122002061D01*
X67757422Y-121999373D01*
X67736649Y-121991001D01*
X67728384Y-121986781D01*
X67702165Y-121980366D01*
X67666426Y-121971620D01*
X67659851Y-121969821D01*
X67605815Y-121953455D01*
X67605811Y-121953454D01*
X67598807Y-121951333D01*
X67589929Y-121950782D01*
X67589543Y-121950758D01*
X67567414Y-121947391D01*
X67563849Y-121946519D01*
X67563842Y-121946518D01*
X67558394Y-121945185D01*
X67551077Y-121944731D01*
X67549291Y-121944620D01*
X67549282Y-121944620D01*
X67547352Y-121944500D01*
X67492565Y-121944500D01*
X67484763Y-121944258D01*
X67424138Y-121940497D01*
X67416922Y-121941737D01*
X67416921Y-121941737D01*
X67415053Y-121942058D01*
X67411432Y-121942680D01*
X67390096Y-121944500D01*
X51362565Y-121944500D01*
X51354763Y-121944258D01*
X51294138Y-121940497D01*
X51286923Y-121941737D01*
X51286920Y-121941737D01*
X51231276Y-121951299D01*
X51224526Y-121952271D01*
X51161172Y-121959657D01*
X51152452Y-121962822D01*
X51130800Y-121968563D01*
X51128878Y-121968893D01*
X51128873Y-121968894D01*
X51121660Y-121970134D01*
X51114924Y-121973000D01*
X51114918Y-121973002D01*
X51062964Y-121995109D01*
X51056620Y-121997608D01*
X51003550Y-122016871D01*
X51003548Y-122016872D01*
X50996669Y-122019369D01*
X50990546Y-122023383D01*
X50990541Y-122023386D01*
X50988905Y-122024458D01*
X50969161Y-122035023D01*
X50967362Y-122035788D01*
X50967360Y-122035789D01*
X50960627Y-122038654D01*
X50954732Y-122042992D01*
X50954729Y-122042994D01*
X50909247Y-122076465D01*
X50903655Y-122080352D01*
X50850315Y-122115323D01*
X50845284Y-122120634D01*
X50845279Y-122120638D01*
X50843934Y-122122058D01*
X50827142Y-122136888D01*
X50825573Y-122138042D01*
X50825566Y-122138048D01*
X50819676Y-122142383D01*
X50814941Y-122147957D01*
X50814934Y-122147963D01*
X50778382Y-122190987D01*
X50773832Y-122196059D01*
X50754531Y-122216434D01*
X50729960Y-122242372D01*
X50725297Y-122250401D01*
X50712366Y-122268695D01*
X50706368Y-122275755D01*
X50680017Y-122327362D01*
X50677368Y-122332549D01*
X50674107Y-122338532D01*
X50642061Y-122393702D01*
X50639939Y-122400708D01*
X50639373Y-122402577D01*
X50631001Y-122423351D01*
X50626781Y-122431616D01*
X50625040Y-122438732D01*
X50611620Y-122493574D01*
X50609821Y-122500149D01*
X50593455Y-122554185D01*
X50593454Y-122554189D01*
X50591333Y-122561193D01*
X50590880Y-122568497D01*
X50590758Y-122570457D01*
X50587391Y-122592586D01*
X50586519Y-122596151D01*
X50586518Y-122596158D01*
X50585185Y-122601606D01*
X50584500Y-122612648D01*
X50584500Y-122667435D01*
X50584258Y-122675237D01*
X50580497Y-122735862D01*
X50581737Y-122743078D01*
X50581737Y-122743079D01*
X50582680Y-122748565D01*
X50584500Y-122769904D01*
X50584500Y-135877435D01*
X50584258Y-135885237D01*
X50580497Y-135945862D01*
X50050500Y-135945862D01*
X50050500Y-109851486D01*
X55147123Y-109851486D01*
X55152468Y-110259790D01*
X55196923Y-110665702D01*
X55280078Y-111065484D01*
X55401167Y-111455456D01*
X55559076Y-111832027D01*
X55752351Y-112191729D01*
X55979212Y-112531250D01*
X55981111Y-112533574D01*
X55981116Y-112533581D01*
X56167183Y-112761316D01*
X56237570Y-112847465D01*
X56379414Y-112990552D01*
X56522917Y-113135313D01*
X56522924Y-113135320D01*
X56525047Y-113137461D01*
X56527374Y-113139396D01*
X56756989Y-113330365D01*
X56838995Y-113398569D01*
X57176524Y-113628384D01*
X57534525Y-113824790D01*
X57537296Y-113825981D01*
X57537297Y-113825981D01*
X57906921Y-113984784D01*
X57906925Y-113984786D01*
X57909703Y-113985979D01*
X57912586Y-113986902D01*
X57912589Y-113986903D01*
X58295726Y-114109546D01*
X58295731Y-114109547D01*
X58298604Y-114110467D01*
X58301551Y-114111107D01*
X58301559Y-114111109D01*
X58593916Y-114174586D01*
X58697645Y-114197108D01*
X58700636Y-114197462D01*
X59100575Y-114244798D01*
X59100578Y-114244798D01*
X59103153Y-114245103D01*
X59105752Y-114245194D01*
X59105755Y-114245194D01*
X59256577Y-114250461D01*
X59256599Y-114250461D01*
X59257705Y-114250500D01*
X59503451Y-114250500D01*
X59807869Y-114235878D01*
X60079673Y-114196468D01*
X60208983Y-114177719D01*
X60208986Y-114177718D01*
X60211982Y-114177284D01*
X60422369Y-114125803D01*
X60605681Y-114080947D01*
X60605687Y-114080945D01*
X60608618Y-114080228D01*
X60881927Y-113984784D01*
X60991264Y-113946602D01*
X60991268Y-113946601D01*
X60994127Y-113945602D01*
X61364957Y-113774647D01*
X61367569Y-113773124D01*
X61715067Y-113570470D01*
X61715073Y-113570466D01*
X61717695Y-113568937D01*
X62049092Y-113330365D01*
X62269056Y-113137461D01*
X62353827Y-113063119D01*
X62353830Y-113063116D01*
X62356097Y-113061128D01*
X62358163Y-113058932D01*
X62358168Y-113058927D01*
X62633816Y-112765905D01*
X62633822Y-112765898D01*
X62635884Y-112763706D01*
X62885876Y-112440837D01*
X63044738Y-112189056D01*
X63102156Y-112098055D01*
X63102160Y-112098047D01*
X63103772Y-112095493D01*
X63287564Y-111730855D01*
X63435562Y-111350280D01*
X63546402Y-110957272D01*
X63619063Y-110555450D01*
X63652877Y-110148514D01*
X63647532Y-109740210D01*
X63603077Y-109334298D01*
X63519922Y-108934516D01*
X63398833Y-108544544D01*
X63240924Y-108167973D01*
X63047649Y-107808271D01*
X62820788Y-107468750D01*
X62818889Y-107466426D01*
X62818884Y-107466419D01*
X62564338Y-107154870D01*
X62564336Y-107154867D01*
X62562430Y-107152535D01*
X62350623Y-106938872D01*
X62277083Y-106864687D01*
X62277076Y-106864680D01*
X62274953Y-106862539D01*
X62045405Y-106671626D01*
X61963344Y-106603376D01*
X61963340Y-106603373D01*
X61961005Y-106601431D01*
X61623476Y-106371616D01*
X61265475Y-106175210D01*
X60987231Y-106055667D01*
X60893079Y-106015216D01*
X60893075Y-106015214D01*
X60890297Y-106014021D01*
X60887414Y-106013098D01*
X60887411Y-106013097D01*
X60504274Y-105890454D01*
X60504269Y-105890453D01*
X60501396Y-105889533D01*
X60498449Y-105888893D01*
X60498441Y-105888891D01*
X60191655Y-105822281D01*
X60102355Y-105802892D01*
X60075735Y-105799741D01*
X59699425Y-105755202D01*
X59699422Y-105755202D01*
X59696847Y-105754897D01*
X59694248Y-105754806D01*
X59694245Y-105754806D01*
X59543423Y-105749539D01*
X59543401Y-105749539D01*
X59542295Y-105749500D01*
X59296549Y-105749500D01*
X58992131Y-105764122D01*
X58728717Y-105802315D01*
X58591017Y-105822281D01*
X58591014Y-105822282D01*
X58588018Y-105822716D01*
X58377631Y-105874197D01*
X58194319Y-105919053D01*
X58194313Y-105919055D01*
X58191382Y-105919772D01*
X57947493Y-106004942D01*
X57808736Y-106053398D01*
X57808732Y-106053399D01*
X57805873Y-106054398D01*
X57435043Y-106225353D01*
X57432435Y-106226874D01*
X57432431Y-106226876D01*
X57084933Y-106429530D01*
X57084927Y-106429534D01*
X57082305Y-106431063D01*
X56750908Y-106669635D01*
X56748638Y-106671626D01*
X56528495Y-106864687D01*
X56443903Y-106938872D01*
X56441837Y-106941068D01*
X56441832Y-106941073D01*
X56166184Y-107234095D01*
X56166178Y-107234102D01*
X56164116Y-107236294D01*
X55914124Y-107559163D01*
X55786325Y-107761712D01*
X55697844Y-107901945D01*
X55697840Y-107901953D01*
X55696228Y-107904507D01*
X55512436Y-108269145D01*
X55364438Y-108649720D01*
X55253598Y-109042728D01*
X55180937Y-109444550D01*
X55147123Y-109851486D01*
X50050500Y-109851486D01*
X50050500Y-90851486D01*
X55147123Y-90851486D01*
X55152468Y-91259790D01*
X55196923Y-91665702D01*
X55280078Y-92065484D01*
X55401167Y-92455456D01*
X55559076Y-92832027D01*
X55752351Y-93191729D01*
X55979212Y-93531250D01*
X55981111Y-93533574D01*
X55981116Y-93533581D01*
X56167183Y-93761316D01*
X56237570Y-93847465D01*
X56379414Y-93990552D01*
X56522917Y-94135313D01*
X56522924Y-94135320D01*
X56525047Y-94137461D01*
X56527374Y-94139396D01*
X56756989Y-94330365D01*
X56838995Y-94398569D01*
X57176524Y-94628384D01*
X57534525Y-94824790D01*
X57537296Y-94825981D01*
X57537297Y-94825981D01*
X57906921Y-94984784D01*
X57906925Y-94984786D01*
X57909703Y-94985979D01*
X57912586Y-94986902D01*
X57912589Y-94986903D01*
X58295726Y-95109546D01*
X58295731Y-95109547D01*
X58298604Y-95110467D01*
X58301551Y-95111107D01*
X58301559Y-95111109D01*
X58593916Y-95174586D01*
X58697645Y-95197108D01*
X58700636Y-95197462D01*
X59100575Y-95244798D01*
X59100578Y-95244798D01*
X59103153Y-95245103D01*
X59105752Y-95245194D01*
X59105755Y-95245194D01*
X59256577Y-95250461D01*
X59256599Y-95250461D01*
X59257705Y-95250500D01*
X59503451Y-95250500D01*
X59807869Y-95235878D01*
X60079673Y-95196468D01*
X60208983Y-95177719D01*
X60208986Y-95177718D01*
X60211982Y-95177284D01*
X60422369Y-95125803D01*
X60605681Y-95080947D01*
X60605687Y-95080945D01*
X60608618Y-95080228D01*
X60881927Y-94984784D01*
X60991264Y-94946602D01*
X60991268Y-94946601D01*
X60994127Y-94945602D01*
X61364957Y-94774647D01*
X61367569Y-94773124D01*
X61715067Y-94570470D01*
X61715073Y-94570466D01*
X61717695Y-94568937D01*
X62049092Y-94330365D01*
X62269056Y-94137461D01*
X62353827Y-94063119D01*
X62353830Y-94063116D01*
X62356097Y-94061128D01*
X62358163Y-94058932D01*
X62358168Y-94058927D01*
X62633816Y-93765905D01*
X62633822Y-93765898D01*
X62635884Y-93763706D01*
X62885876Y-93440837D01*
X63044738Y-93189056D01*
X63102156Y-93098055D01*
X63102160Y-93098047D01*
X63103772Y-93095493D01*
X63287564Y-92730855D01*
X63435562Y-92350280D01*
X63546402Y-91957272D01*
X63619063Y-91555450D01*
X63652877Y-91148514D01*
X63647532Y-90740210D01*
X63603077Y-90334298D01*
X63519922Y-89934516D01*
X63398833Y-89544544D01*
X63240924Y-89167973D01*
X63047649Y-88808271D01*
X62820788Y-88468750D01*
X62818889Y-88466426D01*
X62818884Y-88466419D01*
X62564338Y-88154870D01*
X62564336Y-88154867D01*
X62562430Y-88152535D01*
X62350623Y-87938872D01*
X62277083Y-87864687D01*
X62277076Y-87864680D01*
X62274953Y-87862539D01*
X62045405Y-87671626D01*
X61963344Y-87603376D01*
X61963340Y-87603373D01*
X61961005Y-87601431D01*
X61623476Y-87371616D01*
X61265475Y-87175210D01*
X60987231Y-87055667D01*
X60893079Y-87015216D01*
X60893075Y-87015214D01*
X60890297Y-87014021D01*
X60887414Y-87013098D01*
X60887411Y-87013097D01*
X60504274Y-86890454D01*
X60504269Y-86890453D01*
X60501396Y-86889533D01*
X60498449Y-86888893D01*
X60498441Y-86888891D01*
X60191655Y-86822281D01*
X60102355Y-86802892D01*
X60075735Y-86799741D01*
X59699425Y-86755202D01*
X59699422Y-86755202D01*
X59696847Y-86754897D01*
X59694248Y-86754806D01*
X59694245Y-86754806D01*
X59543423Y-86749539D01*
X59543401Y-86749539D01*
X59542295Y-86749500D01*
X59296549Y-86749500D01*
X58992131Y-86764122D01*
X58728717Y-86802315D01*
X58591017Y-86822281D01*
X58591014Y-86822282D01*
X58588018Y-86822716D01*
X58377631Y-86874197D01*
X58194319Y-86919053D01*
X58194313Y-86919055D01*
X58191382Y-86919772D01*
X57947493Y-87004942D01*
X57808736Y-87053398D01*
X57808732Y-87053399D01*
X57805873Y-87054398D01*
X57435043Y-87225353D01*
X57432435Y-87226874D01*
X57432431Y-87226876D01*
X57084933Y-87429530D01*
X57084927Y-87429534D01*
X57082305Y-87431063D01*
X56750908Y-87669635D01*
X56748638Y-87671626D01*
X56528495Y-87864687D01*
X56443903Y-87938872D01*
X56441837Y-87941068D01*
X56441832Y-87941073D01*
X56166184Y-88234095D01*
X56166178Y-88234102D01*
X56164116Y-88236294D01*
X55914124Y-88559163D01*
X55786325Y-88761712D01*
X55697844Y-88901945D01*
X55697840Y-88901953D01*
X55696228Y-88904507D01*
X55512436Y-89269145D01*
X55364438Y-89649720D01*
X55253598Y-90042728D01*
X55180937Y-90444550D01*
X55147123Y-90851486D01*
X50050500Y-90851486D01*
X50050500Y-71851486D01*
X55147123Y-71851486D01*
X55152468Y-72259790D01*
X55196923Y-72665702D01*
X55280078Y-73065484D01*
X55401167Y-73455456D01*
X55559076Y-73832027D01*
X55752351Y-74191729D01*
X55979212Y-74531250D01*
X55981111Y-74533574D01*
X55981116Y-74533581D01*
X56167183Y-74761316D01*
X56237570Y-74847465D01*
X56379414Y-74990552D01*
X56522917Y-75135313D01*
X56522924Y-75135320D01*
X56525047Y-75137461D01*
X56527374Y-75139396D01*
X56756989Y-75330365D01*
X56838995Y-75398569D01*
X57176524Y-75628384D01*
X57534525Y-75824790D01*
X57537296Y-75825981D01*
X57537297Y-75825981D01*
X57906921Y-75984784D01*
X57906925Y-75984786D01*
X57909703Y-75985979D01*
X57912586Y-75986902D01*
X57912589Y-75986903D01*
X58295726Y-76109546D01*
X58295731Y-76109547D01*
X58298604Y-76110467D01*
X58301551Y-76111107D01*
X58301559Y-76111109D01*
X58593916Y-76174586D01*
X58697645Y-76197108D01*
X58700636Y-76197462D01*
X59100575Y-76244798D01*
X59100578Y-76244798D01*
X59103153Y-76245103D01*
X59105752Y-76245194D01*
X59105755Y-76245194D01*
X59256577Y-76250461D01*
X59256599Y-76250461D01*
X59257705Y-76250500D01*
X59503451Y-76250500D01*
X59807869Y-76235878D01*
X60079673Y-76196468D01*
X60208983Y-76177719D01*
X60208986Y-76177718D01*
X60211982Y-76177284D01*
X60422369Y-76125803D01*
X60605681Y-76080947D01*
X60605687Y-76080945D01*
X60608618Y-76080228D01*
X60881927Y-75984784D01*
X60991264Y-75946602D01*
X60991268Y-75946601D01*
X60994127Y-75945602D01*
X61364957Y-75774647D01*
X61367569Y-75773124D01*
X61715067Y-75570470D01*
X61715073Y-75570466D01*
X61717695Y-75568937D01*
X62049092Y-75330365D01*
X62269056Y-75137461D01*
X62353827Y-75063119D01*
X62353830Y-75063116D01*
X62356097Y-75061128D01*
X62358163Y-75058932D01*
X62358168Y-75058927D01*
X62633816Y-74765905D01*
X62633822Y-74765898D01*
X62635884Y-74763706D01*
X62885876Y-74440837D01*
X63044738Y-74189056D01*
X63102156Y-74098055D01*
X63102160Y-74098047D01*
X63103772Y-74095493D01*
X63287564Y-73730855D01*
X63435562Y-73350280D01*
X63546402Y-72957272D01*
X63619063Y-72555450D01*
X63652877Y-72148514D01*
X63647532Y-71740210D01*
X63603077Y-71334298D01*
X63519922Y-70934516D01*
X63398833Y-70544544D01*
X63240924Y-70167973D01*
X63047649Y-69808271D01*
X62820788Y-69468750D01*
X62818889Y-69466426D01*
X62818884Y-69466419D01*
X62564338Y-69154870D01*
X62564336Y-69154867D01*
X62562430Y-69152535D01*
X62350623Y-68938872D01*
X62277083Y-68864687D01*
X62277076Y-68864680D01*
X62274953Y-68862539D01*
X62045405Y-68671626D01*
X61963344Y-68603376D01*
X61963340Y-68603373D01*
X61961005Y-68601431D01*
X61623476Y-68371616D01*
X61265475Y-68175210D01*
X60987231Y-68055667D01*
X60893079Y-68015216D01*
X60893075Y-68015214D01*
X60890297Y-68014021D01*
X60887414Y-68013098D01*
X60887411Y-68013097D01*
X60504274Y-67890454D01*
X60504269Y-67890453D01*
X60501396Y-67889533D01*
X60498449Y-67888893D01*
X60498441Y-67888891D01*
X60191655Y-67822281D01*
X60102355Y-67802892D01*
X60075735Y-67799741D01*
X59699425Y-67755202D01*
X59699422Y-67755202D01*
X59696847Y-67754897D01*
X59694248Y-67754806D01*
X59694245Y-67754806D01*
X59543423Y-67749539D01*
X59543401Y-67749539D01*
X59542295Y-67749500D01*
X59296549Y-67749500D01*
X58992131Y-67764122D01*
X58728717Y-67802315D01*
X58591017Y-67822281D01*
X58591014Y-67822282D01*
X58588018Y-67822716D01*
X58377631Y-67874197D01*
X58194319Y-67919053D01*
X58194313Y-67919055D01*
X58191382Y-67919772D01*
X57947493Y-68004942D01*
X57808736Y-68053398D01*
X57808732Y-68053399D01*
X57805873Y-68054398D01*
X57435043Y-68225353D01*
X57432435Y-68226874D01*
X57432431Y-68226876D01*
X57084933Y-68429530D01*
X57084927Y-68429534D01*
X57082305Y-68431063D01*
X56750908Y-68669635D01*
X56748638Y-68671626D01*
X56528495Y-68864687D01*
X56443903Y-68938872D01*
X56441837Y-68941068D01*
X56441832Y-68941073D01*
X56166184Y-69234095D01*
X56166178Y-69234102D01*
X56164116Y-69236294D01*
X55914124Y-69559163D01*
X55786325Y-69761712D01*
X55697844Y-69901945D01*
X55697840Y-69901953D01*
X55696228Y-69904507D01*
X55512436Y-70269145D01*
X55364438Y-70649720D01*
X55253598Y-71042728D01*
X55180937Y-71444550D01*
X55147123Y-71851486D01*
X50050500Y-71851486D01*
X50050500Y-53851486D01*
X55147123Y-53851486D01*
X55152468Y-54259790D01*
X55196923Y-54665702D01*
X55280078Y-55065484D01*
X55401167Y-55455456D01*
X55559076Y-55832027D01*
X55752351Y-56191729D01*
X55979212Y-56531250D01*
X55981111Y-56533574D01*
X55981116Y-56533581D01*
X56167183Y-56761316D01*
X56237570Y-56847465D01*
X56379414Y-56990552D01*
X56522917Y-57135313D01*
X56522924Y-57135320D01*
X56525047Y-57137461D01*
X56527374Y-57139396D01*
X56756989Y-57330365D01*
X56838995Y-57398569D01*
X57176524Y-57628384D01*
X57534525Y-57824790D01*
X57537296Y-57825981D01*
X57537297Y-57825981D01*
X57906921Y-57984784D01*
X57906925Y-57984786D01*
X57909703Y-57985979D01*
X57912586Y-57986902D01*
X57912589Y-57986903D01*
X58295726Y-58109546D01*
X58295731Y-58109547D01*
X58298604Y-58110467D01*
X58301551Y-58111107D01*
X58301559Y-58111109D01*
X58593916Y-58174586D01*
X58697645Y-58197108D01*
X58700636Y-58197462D01*
X59100575Y-58244798D01*
X59100578Y-58244798D01*
X59103153Y-58245103D01*
X59105752Y-58245194D01*
X59105755Y-58245194D01*
X59256577Y-58250461D01*
X59256599Y-58250461D01*
X59257705Y-58250500D01*
X59503451Y-58250500D01*
X59807869Y-58235878D01*
X60079673Y-58196468D01*
X60208983Y-58177719D01*
X60208986Y-58177718D01*
X60211982Y-58177284D01*
X60422369Y-58125803D01*
X60605681Y-58080947D01*
X60605687Y-58080945D01*
X60608618Y-58080228D01*
X60881927Y-57984784D01*
X60991264Y-57946602D01*
X60991268Y-57946601D01*
X60994127Y-57945602D01*
X61364957Y-57774647D01*
X61367569Y-57773124D01*
X61715067Y-57570470D01*
X61715073Y-57570466D01*
X61717695Y-57568937D01*
X62049092Y-57330365D01*
X62269056Y-57137461D01*
X62353827Y-57063119D01*
X62353830Y-57063116D01*
X62356097Y-57061128D01*
X62358163Y-57058932D01*
X62358168Y-57058927D01*
X62633816Y-56765905D01*
X62633822Y-56765898D01*
X62635884Y-56763706D01*
X62885876Y-56440837D01*
X63044738Y-56189056D01*
X63102156Y-56098055D01*
X63102160Y-56098047D01*
X63103772Y-56095493D01*
X63287564Y-55730855D01*
X63435562Y-55350280D01*
X63546402Y-54957272D01*
X63619063Y-54555450D01*
X63652877Y-54148514D01*
X63647532Y-53740210D01*
X63603077Y-53334298D01*
X63519922Y-52934516D01*
X63398833Y-52544544D01*
X63240924Y-52167973D01*
X63047649Y-51808271D01*
X62820788Y-51468750D01*
X62818889Y-51466426D01*
X62818884Y-51466419D01*
X62564338Y-51154870D01*
X62564336Y-51154867D01*
X62562430Y-51152535D01*
X62350623Y-50938872D01*
X62277083Y-50864687D01*
X62277076Y-50864680D01*
X62274953Y-50862539D01*
X62045405Y-50671626D01*
X61963344Y-50603376D01*
X61963340Y-50603373D01*
X61961005Y-50601431D01*
X61623476Y-50371616D01*
X61265475Y-50175210D01*
X60987231Y-50055667D01*
X60893079Y-50015216D01*
X60893075Y-50015214D01*
X60890297Y-50014021D01*
X60887414Y-50013098D01*
X60887411Y-50013097D01*
X60504274Y-49890454D01*
X60504269Y-49890453D01*
X60501396Y-49889533D01*
X60498449Y-49888893D01*
X60498441Y-49888891D01*
X60191655Y-49822281D01*
X60102355Y-49802892D01*
X60075735Y-49799741D01*
X59699425Y-49755202D01*
X59699422Y-49755202D01*
X59696847Y-49754897D01*
X59694248Y-49754806D01*
X59694245Y-49754806D01*
X59543423Y-49749539D01*
X59543401Y-49749539D01*
X59542295Y-49749500D01*
X59296549Y-49749500D01*
X58992131Y-49764122D01*
X58728717Y-49802315D01*
X58591017Y-49822281D01*
X58591014Y-49822282D01*
X58588018Y-49822716D01*
X58377631Y-49874197D01*
X58194319Y-49919053D01*
X58194313Y-49919055D01*
X58191382Y-49919772D01*
X57947493Y-50004942D01*
X57808736Y-50053398D01*
X57808732Y-50053399D01*
X57805873Y-50054398D01*
X57435043Y-50225353D01*
X57432435Y-50226874D01*
X57432431Y-50226876D01*
X57084933Y-50429530D01*
X57084927Y-50429534D01*
X57082305Y-50431063D01*
X56750908Y-50669635D01*
X56748638Y-50671626D01*
X56528495Y-50864687D01*
X56443903Y-50938872D01*
X56441837Y-50941068D01*
X56441832Y-50941073D01*
X56166184Y-51234095D01*
X56166178Y-51234102D01*
X56164116Y-51236294D01*
X55914124Y-51559163D01*
X55786325Y-51761712D01*
X55697844Y-51901945D01*
X55697840Y-51901953D01*
X55696228Y-51904507D01*
X55512436Y-52269145D01*
X55364438Y-52649720D01*
X55253598Y-53042728D01*
X55180937Y-53444550D01*
X55147123Y-53851486D01*
X50050500Y-53851486D01*
X50050500Y-46500000D01*
X50900000Y-46500000D01*
X53700000Y-46500000D01*
X55600000Y-46500000D01*
X58400000Y-46500000D01*
X60300000Y-46500000D01*
X63100000Y-46500000D01*
X65000000Y-46500000D01*
X67800000Y-46500000D01*
X67800000Y-44000000D01*
X65000000Y-44000000D01*
X65000000Y-46500000D01*
X63100000Y-46500000D01*
X63100000Y-44000000D01*
X60300000Y-44000000D01*
X60300000Y-46500000D01*
X58400000Y-46500000D01*
X58400000Y-44000000D01*
X55600000Y-44000000D01*
X55600000Y-46500000D01*
X53700000Y-46500000D01*
X53700000Y-44000000D01*
X50900000Y-44000000D01*
X50900000Y-46500000D01*
X50050500Y-46500000D01*
X50050500Y-35176500D01*
X50070502Y-35108379D01*
X50124158Y-35061886D01*
X50176500Y-35050500D01*
X59900461Y-35050500D01*
X59968582Y-35070502D01*
G37*
%TD.AperFunction*%
M02*
