%TF.GenerationSoftware,KiCad,Pcbnew,(6.0.11)*%
%TF.CreationDate,2023-03-29T15:24:13+01:00*%
%TF.ProjectId,QuadEnv_Panel,51756164-456e-4765-9f50-616e656c2e6b,rev?*%
%TF.SameCoordinates,Original*%
%TF.FileFunction,Soldermask,Top*%
%TF.FilePolarity,Negative*%
%FSLAX46Y46*%
G04 Gerber Fmt 4.6, Leading zero omitted, Abs format (unit mm)*
G04 Created by KiCad (PCBNEW (6.0.11)) date 2023-03-29 15:24:13*
%MOMM*%
%LPD*%
G01*
G04 APERTURE LIST*
%ADD10O,5.000000X3.200000*%
%ADD11C,7.000000*%
G04 APERTURE END LIST*
D10*
%TO.C,Ref\u002A\u002A*%
X62080000Y-37300000D03*
%TD*%
%TO.C,Ref\u002A\u002A*%
X56780000Y-159800000D03*
%TD*%
D11*
%TO.C,Ref\u002A\u002A*%
X59400000Y-110000000D03*
%TD*%
%TO.C,Ref\u002A\u002A*%
X59400000Y-91000000D03*
%TD*%
%TO.C,Ref\u002A\u002A*%
X59400000Y-54000000D03*
%TD*%
%TO.C,Ref\u002A\u002A*%
X59400000Y-72000000D03*
%TD*%
G36*
X58342121Y-44020002D02*
G01*
X58388614Y-44073658D01*
X58400000Y-44126000D01*
X58400000Y-46374000D01*
X58379998Y-46442121D01*
X58326342Y-46488614D01*
X58274000Y-46500000D01*
X55726000Y-46500000D01*
X55657879Y-46479998D01*
X55611386Y-46426342D01*
X55600000Y-46374000D01*
X55600000Y-44126000D01*
X55620002Y-44057879D01*
X55673658Y-44011386D01*
X55726000Y-44000000D01*
X58274000Y-44000000D01*
X58342121Y-44020002D01*
G37*
G36*
X67742121Y-44020002D02*
G01*
X67788614Y-44073658D01*
X67800000Y-44126000D01*
X67800000Y-46374000D01*
X67779998Y-46442121D01*
X67726342Y-46488614D01*
X67674000Y-46500000D01*
X65126000Y-46500000D01*
X65057879Y-46479998D01*
X65011386Y-46426342D01*
X65000000Y-46374000D01*
X65000000Y-44126000D01*
X65020002Y-44057879D01*
X65073658Y-44011386D01*
X65126000Y-44000000D01*
X67674000Y-44000000D01*
X67742121Y-44020002D01*
G37*
G36*
X63042121Y-44020002D02*
G01*
X63088614Y-44073658D01*
X63100000Y-44126000D01*
X63100000Y-46374000D01*
X63079998Y-46442121D01*
X63026342Y-46488614D01*
X62974000Y-46500000D01*
X60426000Y-46500000D01*
X60357879Y-46479998D01*
X60311386Y-46426342D01*
X60300000Y-46374000D01*
X60300000Y-44126000D01*
X60320002Y-44057879D01*
X60373658Y-44011386D01*
X60426000Y-44000000D01*
X62974000Y-44000000D01*
X63042121Y-44020002D01*
G37*
G36*
X53642121Y-44020002D02*
G01*
X53688614Y-44073658D01*
X53700000Y-44126000D01*
X53700000Y-46374000D01*
X53679998Y-46442121D01*
X53626342Y-46488614D01*
X53574000Y-46500000D01*
X51026000Y-46500000D01*
X50957879Y-46479998D01*
X50911386Y-46426342D01*
X50900000Y-46374000D01*
X50900000Y-44126000D01*
X50920002Y-44057879D01*
X50973658Y-44011386D01*
X51026000Y-44000000D01*
X53574000Y-44000000D01*
X53642121Y-44020002D01*
G37*
M02*
