%TF.GenerationSoftware,KiCad,Pcbnew,(6.0.11)*%
%TF.CreationDate,2023-03-11T14:34:30+00:00*%
%TF.ProjectId,QuadEnv_Panel,51756164-456e-4765-9f50-616e656c2e6b,rev?*%
%TF.SameCoordinates,Original*%
%TF.FileFunction,Copper,L2,Bot*%
%TF.FilePolarity,Positive*%
%FSLAX46Y46*%
G04 Gerber Fmt 4.6, Leading zero omitted, Abs format (unit mm)*
G04 Created by KiCad (PCBNEW (6.0.11)) date 2023-03-11 14:34:30*
%MOMM*%
%LPD*%
G01*
G04 APERTURE LIST*
%TA.AperFunction,NonConductor*%
%ADD10C,7.075000*%
%TD*%
%TA.AperFunction,NonConductor*%
%ADD11C,0.150000*%
%TD*%
G04 APERTURE END LIST*
D10*
X62937500Y-110000000D02*
G75*
G03*
X62937500Y-110000000I-3537500J0D01*
G01*
D11*
X49000000Y-117000000D02*
X59400000Y-117000000D01*
X59400000Y-117000000D02*
X59400000Y-103000000D01*
X59400000Y-103000000D02*
X49000000Y-103000000D01*
X49000000Y-103000000D02*
X49000000Y-117000000D01*
G36*
X49000000Y-117000000D02*
G01*
X59400000Y-117000000D01*
X59400000Y-103000000D01*
X49000000Y-103000000D01*
X49000000Y-117000000D01*
G37*
D10*
X62937500Y-72000000D02*
G75*
G03*
X62937500Y-72000000I-3537500J0D01*
G01*
D11*
X49000000Y-79000000D02*
X59400000Y-79000000D01*
X59400000Y-79000000D02*
X59400000Y-65000000D01*
X59400000Y-65000000D02*
X49000000Y-65000000D01*
X49000000Y-65000000D02*
X49000000Y-79000000D01*
G36*
X49000000Y-79000000D02*
G01*
X59400000Y-79000000D01*
X59400000Y-65000000D01*
X49000000Y-65000000D01*
X49000000Y-79000000D01*
G37*
D10*
X62937500Y-91000000D02*
G75*
G03*
X62937500Y-91000000I-3537500J0D01*
G01*
D11*
X69800000Y-84000000D02*
X59400000Y-84000000D01*
X59400000Y-84000000D02*
X59400000Y-98000000D01*
X59400000Y-98000000D02*
X69800000Y-98000000D01*
X69800000Y-98000000D02*
X69800000Y-84000000D01*
G36*
X69800000Y-84000000D02*
G01*
X59400000Y-84000000D01*
X59400000Y-98000000D01*
X69800000Y-98000000D01*
X69800000Y-84000000D01*
G37*
X69600000Y-47000000D02*
X59200000Y-47000000D01*
X59200000Y-47000000D02*
X59200000Y-61000000D01*
X59200000Y-61000000D02*
X69600000Y-61000000D01*
X69600000Y-61000000D02*
X69600000Y-47000000D01*
G36*
X69600000Y-47000000D02*
G01*
X59200000Y-47000000D01*
X59200000Y-61000000D01*
X69600000Y-61000000D01*
X69600000Y-47000000D01*
G37*
D10*
X62937500Y-54000000D02*
G75*
G03*
X62937500Y-54000000I-3537500J0D01*
G01*
%TA.AperFunction,NonConductor*%
G36*
X68900000Y-162799000D02*
G01*
X50000000Y-162799000D01*
X50000000Y-159842095D01*
X54025028Y-159842095D01*
X54050534Y-160109431D01*
X54114364Y-160370285D01*
X54215182Y-160619192D01*
X54350875Y-160850938D01*
X54353728Y-160854505D01*
X54465225Y-160993925D01*
X54518601Y-161060669D01*
X54714846Y-161243991D01*
X54807039Y-161307948D01*
X54931746Y-161394461D01*
X54931751Y-161394464D01*
X54935499Y-161397064D01*
X54939584Y-161399096D01*
X54939587Y-161399098D01*
X55055718Y-161456872D01*
X55175938Y-161516680D01*
X55180272Y-161518101D01*
X55180275Y-161518102D01*
X55426793Y-161598915D01*
X55426798Y-161598916D01*
X55431126Y-161600335D01*
X55435617Y-161601115D01*
X55435618Y-161601115D01*
X55691936Y-161645620D01*
X55691944Y-161645621D01*
X55695717Y-161646276D01*
X55699554Y-161646467D01*
X55778996Y-161650422D01*
X55779004Y-161650422D01*
X55780567Y-161650500D01*
X57748223Y-161650500D01*
X57750491Y-161650335D01*
X57750503Y-161650335D01*
X57880823Y-161640879D01*
X57947846Y-161636016D01*
X57952301Y-161635032D01*
X57952304Y-161635032D01*
X58205620Y-161579105D01*
X58205624Y-161579104D01*
X58210080Y-161578120D01*
X58377617Y-161514646D01*
X58456941Y-161484593D01*
X58456944Y-161484592D01*
X58461211Y-161482975D01*
X58695976Y-161352574D01*
X58838254Y-161243991D01*
X58905833Y-161192417D01*
X58905837Y-161192413D01*
X58909458Y-161189650D01*
X59097185Y-160997614D01*
X59255225Y-160780491D01*
X59342313Y-160614963D01*
X59378140Y-160546868D01*
X59378143Y-160546862D01*
X59380265Y-160542828D01*
X59439703Y-160374515D01*
X59468165Y-160293916D01*
X59468165Y-160293915D01*
X59469688Y-160289603D01*
X59521620Y-160026122D01*
X59521847Y-160021566D01*
X59534745Y-159762474D01*
X59534745Y-159762468D01*
X59534972Y-159757905D01*
X59509466Y-159490569D01*
X59445636Y-159229715D01*
X59344818Y-158980808D01*
X59209125Y-158749062D01*
X59098211Y-158610371D01*
X59044251Y-158542897D01*
X59044250Y-158542895D01*
X59041399Y-158539331D01*
X58845154Y-158356009D01*
X58685436Y-158245208D01*
X58628254Y-158205539D01*
X58628249Y-158205536D01*
X58624501Y-158202936D01*
X58620416Y-158200904D01*
X58620413Y-158200902D01*
X58448560Y-158115407D01*
X58384062Y-158083320D01*
X58379728Y-158081899D01*
X58379725Y-158081898D01*
X58133207Y-158001085D01*
X58133202Y-158001084D01*
X58128874Y-157999665D01*
X58124382Y-157998885D01*
X57868064Y-157954380D01*
X57868056Y-157954379D01*
X57864283Y-157953724D01*
X57855622Y-157953293D01*
X57781004Y-157949578D01*
X57780996Y-157949578D01*
X57779433Y-157949500D01*
X55811777Y-157949500D01*
X55809509Y-157949665D01*
X55809497Y-157949665D01*
X55679177Y-157959121D01*
X55612154Y-157963984D01*
X55607699Y-157964968D01*
X55607696Y-157964968D01*
X55354380Y-158020895D01*
X55354376Y-158020896D01*
X55349920Y-158021880D01*
X55224354Y-158069453D01*
X55103059Y-158115407D01*
X55103056Y-158115408D01*
X55098789Y-158117025D01*
X54864024Y-158247426D01*
X54860392Y-158250198D01*
X54654167Y-158407583D01*
X54654163Y-158407587D01*
X54650542Y-158410350D01*
X54462815Y-158602386D01*
X54304775Y-158819509D01*
X54302651Y-158823547D01*
X54181860Y-159053132D01*
X54181857Y-159053138D01*
X54179735Y-159057172D01*
X54178215Y-159061477D01*
X54178213Y-159061481D01*
X54118804Y-159229715D01*
X54090312Y-159310397D01*
X54038380Y-159573878D01*
X54038153Y-159578431D01*
X54038153Y-159578434D01*
X54028992Y-159762474D01*
X54025028Y-159842095D01*
X50000000Y-159842095D01*
X50000000Y-151705000D01*
X51333918Y-151705000D01*
X51334000Y-151705198D01*
X51334235Y-151705765D01*
X51335000Y-151706082D01*
X51335198Y-151706000D01*
X67464802Y-151706000D01*
X67465000Y-151706082D01*
X67465765Y-151705765D01*
X67466000Y-151705198D01*
X67466082Y-151705000D01*
X67466000Y-151704802D01*
X67466000Y-138495198D01*
X67466082Y-138495000D01*
X67465765Y-138494235D01*
X67465198Y-138494000D01*
X67465000Y-138493918D01*
X67464802Y-138494000D01*
X51335198Y-138494000D01*
X51335000Y-138493918D01*
X51334802Y-138494000D01*
X51334235Y-138494235D01*
X51333918Y-138495000D01*
X51334000Y-138495198D01*
X51334000Y-151704802D01*
X51333918Y-151705000D01*
X50000000Y-151705000D01*
X50000000Y-135905000D01*
X51333918Y-135905000D01*
X51334000Y-135905198D01*
X51334235Y-135905765D01*
X51335000Y-135906082D01*
X51335198Y-135906000D01*
X67464802Y-135906000D01*
X67465000Y-135906082D01*
X67465765Y-135905765D01*
X67466000Y-135905198D01*
X67466082Y-135905000D01*
X67466000Y-135904802D01*
X67466000Y-122695198D01*
X67466082Y-122695000D01*
X67465765Y-122694235D01*
X67465198Y-122694000D01*
X67465000Y-122693918D01*
X67464802Y-122694000D01*
X51335198Y-122694000D01*
X51335000Y-122693918D01*
X51334802Y-122694000D01*
X51334235Y-122694235D01*
X51333918Y-122695000D01*
X51334000Y-122695198D01*
X51334000Y-135904802D01*
X51333918Y-135905000D01*
X50000000Y-135905000D01*
X50000000Y-118471131D01*
X68900000Y-118471131D01*
X68900000Y-162799000D01*
G37*
%TD.AperFunction*%
%TA.AperFunction,NonConductor*%
G36*
X59968582Y-35070502D02*
G01*
X60015075Y-35124158D01*
X60025179Y-35194432D01*
X59995685Y-35259012D01*
X59970463Y-35281265D01*
X59749467Y-35428929D01*
X59749462Y-35428933D01*
X59746036Y-35431222D01*
X59742942Y-35433936D01*
X59742936Y-35433940D01*
X59517469Y-35631671D01*
X59514380Y-35634380D01*
X59511671Y-35637469D01*
X59313940Y-35862936D01*
X59313936Y-35862942D01*
X59311222Y-35866036D01*
X59140040Y-36122228D01*
X59003762Y-36398573D01*
X58904720Y-36690341D01*
X58844609Y-36992540D01*
X58824457Y-37300000D01*
X58844609Y-37607460D01*
X58904720Y-37909659D01*
X59003762Y-38201427D01*
X59140040Y-38477771D01*
X59311222Y-38733964D01*
X59313936Y-38737058D01*
X59313940Y-38737064D01*
X59511671Y-38962531D01*
X59514380Y-38965620D01*
X59517469Y-38968329D01*
X59742936Y-39166060D01*
X59742942Y-39166064D01*
X59746036Y-39168778D01*
X60002229Y-39339960D01*
X60005928Y-39341784D01*
X60005933Y-39341787D01*
X60147962Y-39411828D01*
X60278573Y-39476238D01*
X60282478Y-39477564D01*
X60282479Y-39477564D01*
X60566434Y-39573954D01*
X60566437Y-39573955D01*
X60570341Y-39575280D01*
X60574380Y-39576083D01*
X60574386Y-39576085D01*
X60868497Y-39634587D01*
X60868500Y-39634587D01*
X60872540Y-39635391D01*
X60876651Y-39635660D01*
X60876655Y-39635661D01*
X61101010Y-39650366D01*
X61101019Y-39650366D01*
X61103059Y-39650500D01*
X63056941Y-39650500D01*
X63058981Y-39650366D01*
X63058990Y-39650366D01*
X63283345Y-39635661D01*
X63283349Y-39635660D01*
X63287460Y-39635391D01*
X63291500Y-39634587D01*
X63291503Y-39634587D01*
X63585614Y-39576085D01*
X63585620Y-39576083D01*
X63589659Y-39575280D01*
X63593563Y-39573955D01*
X63593566Y-39573954D01*
X63877521Y-39477564D01*
X63877522Y-39477564D01*
X63881427Y-39476238D01*
X64012038Y-39411828D01*
X64154067Y-39341787D01*
X64154072Y-39341784D01*
X64157771Y-39339960D01*
X64413964Y-39168778D01*
X64417058Y-39166064D01*
X64417064Y-39166060D01*
X64642531Y-38968329D01*
X64645620Y-38965620D01*
X64648329Y-38962531D01*
X64846060Y-38737064D01*
X64846064Y-38737058D01*
X64848778Y-38733964D01*
X65019960Y-38477772D01*
X65156238Y-38201427D01*
X65255280Y-37909659D01*
X65315391Y-37607460D01*
X65335543Y-37300000D01*
X65315391Y-36992540D01*
X65255280Y-36690341D01*
X65156238Y-36398573D01*
X65019960Y-36122229D01*
X64848778Y-35866036D01*
X64846064Y-35862942D01*
X64846060Y-35862936D01*
X64648329Y-35637469D01*
X64645620Y-35634380D01*
X64642531Y-35631671D01*
X64417064Y-35433940D01*
X64417058Y-35433936D01*
X64413964Y-35431222D01*
X64410538Y-35428933D01*
X64410533Y-35428929D01*
X64189537Y-35281265D01*
X64144009Y-35226788D01*
X64135161Y-35156345D01*
X64165802Y-35092301D01*
X64226204Y-35054990D01*
X64259539Y-35050500D01*
X68723500Y-35050500D01*
X68791621Y-35070502D01*
X68838114Y-35124158D01*
X68849500Y-35176500D01*
X68849500Y-46048500D01*
X68829498Y-46116621D01*
X68775842Y-46163114D01*
X68723500Y-46174500D01*
X67926000Y-46174500D01*
X67857879Y-46154498D01*
X67811386Y-46100842D01*
X67800000Y-46048500D01*
X67800000Y-44000000D01*
X65000000Y-44000000D01*
X65000000Y-46048500D01*
X64979998Y-46116621D01*
X64926342Y-46163114D01*
X64874000Y-46174500D01*
X63226000Y-46174500D01*
X63157879Y-46154498D01*
X63111386Y-46100842D01*
X63100000Y-46048500D01*
X63100000Y-44000000D01*
X60300000Y-44000000D01*
X60300000Y-46048500D01*
X60279998Y-46116621D01*
X60226342Y-46163114D01*
X60174000Y-46174500D01*
X59679550Y-46174500D01*
X59675364Y-46174427D01*
X59673280Y-46174281D01*
X59276970Y-46174281D01*
X59256393Y-46172589D01*
X59254282Y-46172240D01*
X59253088Y-46172042D01*
X59253087Y-46172042D01*
X59246352Y-46170927D01*
X59239535Y-46171284D01*
X59239531Y-46171284D01*
X59185656Y-46174108D01*
X59179062Y-46174281D01*
X59126720Y-46174281D01*
X59124534Y-46174434D01*
X59124530Y-46174434D01*
X58652894Y-46207414D01*
X58581491Y-46212407D01*
X58579323Y-46212712D01*
X58579320Y-46212712D01*
X58543535Y-46217741D01*
X58473294Y-46207414D01*
X58419786Y-46160750D01*
X58400000Y-46092967D01*
X58400000Y-44000000D01*
X55600000Y-44000000D01*
X55600000Y-46500000D01*
X56412231Y-46500000D01*
X56480352Y-46520002D01*
X56526845Y-46573658D01*
X56536949Y-46643932D01*
X56507455Y-46708512D01*
X56463480Y-46741107D01*
X56230551Y-46844814D01*
X55967340Y-46962003D01*
X55484756Y-47218598D01*
X55482897Y-47219760D01*
X55482886Y-47219766D01*
X55220108Y-47383968D01*
X55021246Y-47508230D01*
X54579070Y-47829490D01*
X54577376Y-47830911D01*
X54577374Y-47830913D01*
X54162067Y-48179397D01*
X54162060Y-48179403D01*
X54160380Y-48180813D01*
X53767218Y-48560485D01*
X53765756Y-48562108D01*
X53765747Y-48562118D01*
X53465463Y-48895618D01*
X53401497Y-48966659D01*
X53065001Y-49397354D01*
X52759369Y-49850473D01*
X52486089Y-50323808D01*
X52246492Y-50815053D01*
X52245670Y-50817088D01*
X52245664Y-50817101D01*
X52042576Y-51319762D01*
X52041747Y-51321815D01*
X51872851Y-51841625D01*
X51740626Y-52371950D01*
X51645717Y-52910207D01*
X51588586Y-53453773D01*
X51569511Y-54000000D01*
X51588586Y-54546227D01*
X51645717Y-55089793D01*
X51740626Y-55628050D01*
X51872851Y-56158375D01*
X52041747Y-56678185D01*
X52042572Y-56680226D01*
X52042576Y-56680238D01*
X52245664Y-57182899D01*
X52245670Y-57182912D01*
X52246492Y-57184947D01*
X52486089Y-57676192D01*
X52759369Y-58149527D01*
X53065001Y-58602646D01*
X53401497Y-59033341D01*
X53402981Y-59034989D01*
X53765747Y-59437882D01*
X53765756Y-59437892D01*
X53767218Y-59439515D01*
X54160380Y-59819187D01*
X54162060Y-59820597D01*
X54162067Y-59820603D01*
X54577374Y-60169087D01*
X54579070Y-60170510D01*
X55021246Y-60491770D01*
X55484755Y-60781402D01*
X55967340Y-61037997D01*
X55969346Y-61038890D01*
X55969356Y-61038895D01*
X56464652Y-61259415D01*
X56464658Y-61259417D01*
X56466647Y-61260303D01*
X56468696Y-61261049D01*
X56468704Y-61261052D01*
X56652593Y-61327982D01*
X56980246Y-61447238D01*
X57505633Y-61597890D01*
X58040250Y-61711526D01*
X58581491Y-61787593D01*
X59097428Y-61823671D01*
X59103429Y-61824297D01*
X59107440Y-61825193D01*
X59112931Y-61825500D01*
X59120450Y-61825500D01*
X59124645Y-61825574D01*
X59126720Y-61825719D01*
X59127321Y-61825719D01*
X59142618Y-61827247D01*
X59146912Y-61827958D01*
X59146913Y-61827958D01*
X59153648Y-61829073D01*
X59160465Y-61828716D01*
X59160469Y-61828716D01*
X59214344Y-61825892D01*
X59220938Y-61825719D01*
X59673280Y-61825719D01*
X59675364Y-61825573D01*
X59679550Y-61825500D01*
X68723500Y-61825500D01*
X68791621Y-61845502D01*
X68838114Y-61899158D01*
X68849500Y-61951500D01*
X68849500Y-83048500D01*
X68829498Y-83116621D01*
X68775842Y-83163114D01*
X68723500Y-83174500D01*
X59679550Y-83174500D01*
X59675364Y-83174427D01*
X59673280Y-83174281D01*
X59476970Y-83174281D01*
X59456393Y-83172589D01*
X59454282Y-83172240D01*
X59453088Y-83172042D01*
X59453087Y-83172042D01*
X59446352Y-83170927D01*
X59439535Y-83171284D01*
X59439531Y-83171284D01*
X59385656Y-83174108D01*
X59379062Y-83174281D01*
X59126720Y-83174281D01*
X59124534Y-83174434D01*
X59124530Y-83174434D01*
X58583679Y-83212254D01*
X58581491Y-83212407D01*
X58040250Y-83288474D01*
X57505633Y-83402110D01*
X57503510Y-83402719D01*
X57503509Y-83402719D01*
X57171364Y-83497960D01*
X56980246Y-83552762D01*
X56667312Y-83666661D01*
X56468704Y-83738948D01*
X56468696Y-83738951D01*
X56466647Y-83739697D01*
X56464658Y-83740583D01*
X56464652Y-83740585D01*
X56180181Y-83867240D01*
X55967340Y-83962003D01*
X55484756Y-84218598D01*
X55482897Y-84219760D01*
X55482886Y-84219766D01*
X55220108Y-84383968D01*
X55021246Y-84508230D01*
X54579070Y-84829490D01*
X54577376Y-84830911D01*
X54577374Y-84830913D01*
X54162067Y-85179397D01*
X54162060Y-85179403D01*
X54160380Y-85180813D01*
X53767218Y-85560485D01*
X53765756Y-85562108D01*
X53765747Y-85562118D01*
X53465463Y-85895618D01*
X53401497Y-85966659D01*
X53065001Y-86397354D01*
X52759369Y-86850473D01*
X52486089Y-87323808D01*
X52246492Y-87815053D01*
X52245670Y-87817088D01*
X52245664Y-87817101D01*
X52042576Y-88319762D01*
X52041747Y-88321815D01*
X51872851Y-88841625D01*
X51740626Y-89371950D01*
X51645717Y-89910207D01*
X51588586Y-90453773D01*
X51569511Y-91000000D01*
X51588586Y-91546227D01*
X51645717Y-92089793D01*
X51740626Y-92628050D01*
X51872851Y-93158375D01*
X52041747Y-93678185D01*
X52042572Y-93680226D01*
X52042576Y-93680238D01*
X52245664Y-94182899D01*
X52245670Y-94182912D01*
X52246492Y-94184947D01*
X52486089Y-94676192D01*
X52759369Y-95149527D01*
X53065001Y-95602646D01*
X53401497Y-96033341D01*
X53402981Y-96034989D01*
X53765747Y-96437882D01*
X53765756Y-96437892D01*
X53767218Y-96439515D01*
X54160380Y-96819187D01*
X54162060Y-96820597D01*
X54162067Y-96820603D01*
X54577374Y-97169087D01*
X54579070Y-97170510D01*
X55021246Y-97491770D01*
X55484755Y-97781402D01*
X55967340Y-98037997D01*
X55969346Y-98038890D01*
X55969356Y-98038895D01*
X56464652Y-98259415D01*
X56464658Y-98259417D01*
X56466647Y-98260303D01*
X56468696Y-98261049D01*
X56468704Y-98261052D01*
X56652593Y-98327982D01*
X56980246Y-98447238D01*
X56982363Y-98447845D01*
X56982366Y-98447846D01*
X57503509Y-98597281D01*
X57505633Y-98597890D01*
X58040250Y-98711526D01*
X58581491Y-98787593D01*
X58583679Y-98787746D01*
X59124530Y-98825566D01*
X59124534Y-98825566D01*
X59126720Y-98825719D01*
X59323030Y-98825719D01*
X59343607Y-98827411D01*
X59345718Y-98827760D01*
X59346912Y-98827958D01*
X59346913Y-98827958D01*
X59353648Y-98829073D01*
X59360465Y-98828716D01*
X59360469Y-98828716D01*
X59414344Y-98825892D01*
X59420938Y-98825719D01*
X59673280Y-98825719D01*
X59675364Y-98825573D01*
X59679550Y-98825500D01*
X68723500Y-98825500D01*
X68791621Y-98845502D01*
X68838114Y-98899158D01*
X68849500Y-98951500D01*
X68849500Y-161923500D01*
X68829498Y-161991621D01*
X68775842Y-162038114D01*
X68723500Y-162049500D01*
X58959539Y-162049500D01*
X58891418Y-162029498D01*
X58844925Y-161975842D01*
X58834821Y-161905568D01*
X58864315Y-161840988D01*
X58889537Y-161818735D01*
X59110533Y-161671071D01*
X59110538Y-161671067D01*
X59113964Y-161668778D01*
X59117058Y-161666064D01*
X59117064Y-161666060D01*
X59342531Y-161468329D01*
X59345620Y-161465620D01*
X59348329Y-161462531D01*
X59546060Y-161237064D01*
X59546064Y-161237058D01*
X59548778Y-161233964D01*
X59719960Y-160977772D01*
X59856238Y-160701427D01*
X59955280Y-160409659D01*
X60015391Y-160107460D01*
X60035543Y-159800000D01*
X60015391Y-159492540D01*
X59955280Y-159190341D01*
X59856238Y-158898573D01*
X59719960Y-158622229D01*
X59548778Y-158366036D01*
X59546064Y-158362942D01*
X59546060Y-158362936D01*
X59348329Y-158137469D01*
X59345620Y-158134380D01*
X59342531Y-158131671D01*
X59117064Y-157933940D01*
X59117058Y-157933936D01*
X59113964Y-157931222D01*
X58857771Y-157760040D01*
X58854072Y-157758216D01*
X58854067Y-157758213D01*
X58712038Y-157688172D01*
X58581427Y-157623762D01*
X58577521Y-157622436D01*
X58293566Y-157526046D01*
X58293563Y-157526045D01*
X58289659Y-157524720D01*
X58285620Y-157523917D01*
X58285614Y-157523915D01*
X57991503Y-157465413D01*
X57991500Y-157465413D01*
X57987460Y-157464609D01*
X57983349Y-157464340D01*
X57983345Y-157464339D01*
X57758990Y-157449634D01*
X57758981Y-157449634D01*
X57756941Y-157449500D01*
X55803059Y-157449500D01*
X55801019Y-157449634D01*
X55801010Y-157449634D01*
X55576655Y-157464339D01*
X55576651Y-157464340D01*
X55572540Y-157464609D01*
X55568500Y-157465413D01*
X55568497Y-157465413D01*
X55274386Y-157523915D01*
X55274380Y-157523917D01*
X55270341Y-157524720D01*
X55266437Y-157526045D01*
X55266434Y-157526046D01*
X54982479Y-157622436D01*
X54978573Y-157623762D01*
X54847962Y-157688172D01*
X54705933Y-157758213D01*
X54705928Y-157758216D01*
X54702229Y-157760040D01*
X54446036Y-157931222D01*
X54442942Y-157933936D01*
X54442936Y-157933940D01*
X54217469Y-158131671D01*
X54214380Y-158134380D01*
X54211671Y-158137469D01*
X54013940Y-158362936D01*
X54013936Y-158362942D01*
X54011222Y-158366036D01*
X53840040Y-158622228D01*
X53703762Y-158898573D01*
X53604720Y-159190341D01*
X53544609Y-159492540D01*
X53524457Y-159800000D01*
X53544609Y-160107460D01*
X53604720Y-160409659D01*
X53703762Y-160701427D01*
X53840040Y-160977771D01*
X54011222Y-161233964D01*
X54013936Y-161237058D01*
X54013940Y-161237064D01*
X54211671Y-161462531D01*
X54214380Y-161465620D01*
X54217469Y-161468329D01*
X54442936Y-161666060D01*
X54442942Y-161666064D01*
X54446036Y-161668778D01*
X54449462Y-161671067D01*
X54449467Y-161671071D01*
X54670463Y-161818735D01*
X54715991Y-161873212D01*
X54724839Y-161943655D01*
X54694198Y-162007699D01*
X54633796Y-162045010D01*
X54600461Y-162049500D01*
X50176500Y-162049500D01*
X50108379Y-162029498D01*
X50061886Y-161975842D01*
X50050500Y-161923500D01*
X50050500Y-151745862D01*
X50580497Y-151745862D01*
X50581737Y-151753077D01*
X50581737Y-151753080D01*
X50591299Y-151808724D01*
X50592271Y-151815473D01*
X50599657Y-151878828D01*
X50602155Y-151885709D01*
X50602821Y-151887544D01*
X50608563Y-151909200D01*
X50608893Y-151911122D01*
X50608894Y-151911127D01*
X50610134Y-151918340D01*
X50613000Y-151925076D01*
X50613002Y-151925082D01*
X50635109Y-151977036D01*
X50637608Y-151983379D01*
X50659369Y-152043331D01*
X50663383Y-152049454D01*
X50663386Y-152049459D01*
X50664458Y-152051095D01*
X50675023Y-152070838D01*
X50678654Y-152079373D01*
X50682992Y-152085268D01*
X50682994Y-152085271D01*
X50716465Y-152130753D01*
X50720352Y-152136345D01*
X50755323Y-152189685D01*
X50760634Y-152194716D01*
X50760638Y-152194721D01*
X50762058Y-152196066D01*
X50776888Y-152212858D01*
X50778042Y-152214427D01*
X50778048Y-152214434D01*
X50782383Y-152220324D01*
X50787957Y-152225059D01*
X50787963Y-152225066D01*
X50830987Y-152261618D01*
X50836059Y-152266168D01*
X50839870Y-152269778D01*
X50882372Y-152310040D01*
X50890401Y-152314703D01*
X50908695Y-152327634D01*
X50915755Y-152333632D01*
X50922277Y-152336962D01*
X50922278Y-152336963D01*
X50972549Y-152362632D01*
X50978532Y-152365893D01*
X51033702Y-152397939D01*
X51040708Y-152400061D01*
X51042577Y-152400627D01*
X51063351Y-152408999D01*
X51071616Y-152413219D01*
X51097835Y-152419634D01*
X51133574Y-152428380D01*
X51140149Y-152430179D01*
X51194185Y-152446545D01*
X51194189Y-152446546D01*
X51201193Y-152448667D01*
X51210071Y-152449218D01*
X51210457Y-152449242D01*
X51232586Y-152452609D01*
X51236151Y-152453481D01*
X51236158Y-152453482D01*
X51241606Y-152454815D01*
X51248923Y-152455269D01*
X51250709Y-152455380D01*
X51250718Y-152455380D01*
X51252648Y-152455500D01*
X51307435Y-152455500D01*
X51315237Y-152455742D01*
X51375862Y-152459503D01*
X51383078Y-152458263D01*
X51383079Y-152458263D01*
X51384947Y-152457942D01*
X51388568Y-152457320D01*
X51409904Y-152455500D01*
X67437435Y-152455500D01*
X67445237Y-152455742D01*
X67505862Y-152459503D01*
X67513077Y-152458263D01*
X67513080Y-152458263D01*
X67568724Y-152448701D01*
X67575473Y-152447729D01*
X67631554Y-152441191D01*
X67638828Y-152440343D01*
X67647548Y-152437178D01*
X67669200Y-152431437D01*
X67671122Y-152431107D01*
X67671127Y-152431106D01*
X67678340Y-152429866D01*
X67685076Y-152427000D01*
X67685082Y-152426998D01*
X67737036Y-152404891D01*
X67743380Y-152402392D01*
X67796450Y-152383129D01*
X67796452Y-152383128D01*
X67803331Y-152380631D01*
X67809454Y-152376617D01*
X67809459Y-152376614D01*
X67811095Y-152375542D01*
X67830839Y-152364977D01*
X67832638Y-152364212D01*
X67832640Y-152364211D01*
X67839373Y-152361346D01*
X67845268Y-152357008D01*
X67845271Y-152357006D01*
X67890753Y-152323535D01*
X67896351Y-152319644D01*
X67943566Y-152288689D01*
X67943567Y-152288688D01*
X67949685Y-152284677D01*
X67954716Y-152279366D01*
X67954721Y-152279362D01*
X67956066Y-152277942D01*
X67972858Y-152263112D01*
X67974427Y-152261958D01*
X67974434Y-152261952D01*
X67980324Y-152257617D01*
X67985059Y-152252043D01*
X67985066Y-152252037D01*
X68021618Y-152209013D01*
X68026168Y-152203941D01*
X68065006Y-152162942D01*
X68070040Y-152157628D01*
X68074703Y-152149599D01*
X68087634Y-152131305D01*
X68088889Y-152129828D01*
X68088890Y-152129827D01*
X68093632Y-152124245D01*
X68122634Y-152067447D01*
X68125895Y-152061465D01*
X68154263Y-152012627D01*
X68154264Y-152012626D01*
X68157939Y-152006298D01*
X68160627Y-151997422D01*
X68168999Y-151976649D01*
X68173219Y-151968384D01*
X68183815Y-151925082D01*
X68188380Y-151906426D01*
X68190179Y-151899851D01*
X68206545Y-151845815D01*
X68206546Y-151845811D01*
X68208667Y-151838807D01*
X68209242Y-151829543D01*
X68212609Y-151807414D01*
X68213481Y-151803849D01*
X68213482Y-151803842D01*
X68214815Y-151798394D01*
X68215500Y-151787352D01*
X68215500Y-151732565D01*
X68215742Y-151724763D01*
X68219049Y-151671449D01*
X68219503Y-151664138D01*
X68217320Y-151651432D01*
X68215500Y-151630096D01*
X68215500Y-138522565D01*
X68215742Y-138514763D01*
X68219049Y-138461449D01*
X68219503Y-138454138D01*
X68212374Y-138412648D01*
X68208701Y-138391276D01*
X68207729Y-138384527D01*
X68201191Y-138328446D01*
X68200343Y-138321172D01*
X68197178Y-138312452D01*
X68191437Y-138290800D01*
X68191107Y-138288878D01*
X68191106Y-138288873D01*
X68189866Y-138281660D01*
X68187000Y-138274924D01*
X68186998Y-138274918D01*
X68164891Y-138222964D01*
X68162392Y-138216620D01*
X68143129Y-138163550D01*
X68143128Y-138163548D01*
X68140631Y-138156669D01*
X68136617Y-138150546D01*
X68136614Y-138150541D01*
X68135542Y-138148905D01*
X68124977Y-138129161D01*
X68124212Y-138127362D01*
X68124211Y-138127360D01*
X68121346Y-138120627D01*
X68117006Y-138114729D01*
X68083535Y-138069247D01*
X68079644Y-138063649D01*
X68048689Y-138016434D01*
X68048688Y-138016433D01*
X68044677Y-138010315D01*
X68039366Y-138005284D01*
X68039362Y-138005279D01*
X68037942Y-138003934D01*
X68023112Y-137987142D01*
X68021958Y-137985573D01*
X68021952Y-137985566D01*
X68017617Y-137979676D01*
X68012043Y-137974941D01*
X68012037Y-137974934D01*
X67969013Y-137938382D01*
X67963941Y-137933832D01*
X67922942Y-137894994D01*
X67917628Y-137889960D01*
X67909599Y-137885297D01*
X67891305Y-137872366D01*
X67889828Y-137871111D01*
X67889827Y-137871110D01*
X67884245Y-137866368D01*
X67827447Y-137837366D01*
X67821465Y-137834105D01*
X67772627Y-137805737D01*
X67772626Y-137805736D01*
X67766298Y-137802061D01*
X67757422Y-137799373D01*
X67736649Y-137791001D01*
X67728384Y-137786781D01*
X67702165Y-137780366D01*
X67666426Y-137771620D01*
X67659851Y-137769821D01*
X67605815Y-137753455D01*
X67605811Y-137753454D01*
X67598807Y-137751333D01*
X67589929Y-137750782D01*
X67589543Y-137750758D01*
X67567414Y-137747391D01*
X67563849Y-137746519D01*
X67563842Y-137746518D01*
X67558394Y-137745185D01*
X67551077Y-137744731D01*
X67549291Y-137744620D01*
X67549282Y-137744620D01*
X67547352Y-137744500D01*
X67492565Y-137744500D01*
X67484763Y-137744258D01*
X67424138Y-137740497D01*
X67416922Y-137741737D01*
X67416921Y-137741737D01*
X67415053Y-137742058D01*
X67411432Y-137742680D01*
X67390096Y-137744500D01*
X51362565Y-137744500D01*
X51354763Y-137744258D01*
X51294138Y-137740497D01*
X51286923Y-137741737D01*
X51286920Y-137741737D01*
X51231276Y-137751299D01*
X51224526Y-137752271D01*
X51161172Y-137759657D01*
X51152452Y-137762822D01*
X51130800Y-137768563D01*
X51128878Y-137768893D01*
X51128873Y-137768894D01*
X51121660Y-137770134D01*
X51114924Y-137773000D01*
X51114918Y-137773002D01*
X51062964Y-137795109D01*
X51056620Y-137797608D01*
X51003550Y-137816871D01*
X51003548Y-137816872D01*
X50996669Y-137819369D01*
X50990546Y-137823383D01*
X50990541Y-137823386D01*
X50988905Y-137824458D01*
X50969161Y-137835023D01*
X50967362Y-137835788D01*
X50967360Y-137835789D01*
X50960627Y-137838654D01*
X50954732Y-137842992D01*
X50954729Y-137842994D01*
X50909247Y-137876465D01*
X50903655Y-137880352D01*
X50850315Y-137915323D01*
X50845284Y-137920634D01*
X50845279Y-137920638D01*
X50843934Y-137922058D01*
X50827142Y-137936888D01*
X50825573Y-137938042D01*
X50825566Y-137938048D01*
X50819676Y-137942383D01*
X50814941Y-137947957D01*
X50814934Y-137947963D01*
X50778382Y-137990987D01*
X50773832Y-137996059D01*
X50754531Y-138016434D01*
X50729960Y-138042372D01*
X50725297Y-138050401D01*
X50712366Y-138068695D01*
X50706368Y-138075755D01*
X50680017Y-138127362D01*
X50677368Y-138132549D01*
X50674107Y-138138532D01*
X50642061Y-138193702D01*
X50639939Y-138200708D01*
X50639373Y-138202577D01*
X50631001Y-138223351D01*
X50626781Y-138231616D01*
X50625040Y-138238732D01*
X50611620Y-138293574D01*
X50609821Y-138300149D01*
X50593455Y-138354185D01*
X50593454Y-138354189D01*
X50591333Y-138361193D01*
X50590880Y-138368497D01*
X50590758Y-138370457D01*
X50587391Y-138392586D01*
X50586519Y-138396151D01*
X50586518Y-138396158D01*
X50585185Y-138401606D01*
X50584500Y-138412648D01*
X50584500Y-138467435D01*
X50584258Y-138475237D01*
X50580497Y-138535862D01*
X50581737Y-138543078D01*
X50581737Y-138543079D01*
X50582680Y-138548565D01*
X50584500Y-138569904D01*
X50584500Y-151677435D01*
X50584258Y-151685237D01*
X50580497Y-151745862D01*
X50050500Y-151745862D01*
X50050500Y-135945862D01*
X50580497Y-135945862D01*
X50581737Y-135953077D01*
X50581737Y-135953080D01*
X50591299Y-136008724D01*
X50592271Y-136015473D01*
X50599657Y-136078828D01*
X50602155Y-136085709D01*
X50602821Y-136087544D01*
X50608563Y-136109200D01*
X50608893Y-136111122D01*
X50608894Y-136111127D01*
X50610134Y-136118340D01*
X50613000Y-136125076D01*
X50613002Y-136125082D01*
X50635109Y-136177036D01*
X50637608Y-136183379D01*
X50659369Y-136243331D01*
X50663383Y-136249454D01*
X50663386Y-136249459D01*
X50664458Y-136251095D01*
X50675023Y-136270838D01*
X50678654Y-136279373D01*
X50682992Y-136285268D01*
X50682994Y-136285271D01*
X50716465Y-136330753D01*
X50720352Y-136336345D01*
X50755323Y-136389685D01*
X50760634Y-136394716D01*
X50760638Y-136394721D01*
X50762058Y-136396066D01*
X50776888Y-136412858D01*
X50778042Y-136414427D01*
X50778048Y-136414434D01*
X50782383Y-136420324D01*
X50787957Y-136425059D01*
X50787963Y-136425066D01*
X50830987Y-136461618D01*
X50836059Y-136466168D01*
X50839870Y-136469778D01*
X50882372Y-136510040D01*
X50890401Y-136514703D01*
X50908695Y-136527634D01*
X50915755Y-136533632D01*
X50922277Y-136536962D01*
X50922278Y-136536963D01*
X50972549Y-136562632D01*
X50978532Y-136565893D01*
X51033702Y-136597939D01*
X51040708Y-136600061D01*
X51042577Y-136600627D01*
X51063351Y-136608999D01*
X51071616Y-136613219D01*
X51097835Y-136619634D01*
X51133574Y-136628380D01*
X51140149Y-136630179D01*
X51194185Y-136646545D01*
X51194189Y-136646546D01*
X51201193Y-136648667D01*
X51210071Y-136649218D01*
X51210457Y-136649242D01*
X51232586Y-136652609D01*
X51236151Y-136653481D01*
X51236158Y-136653482D01*
X51241606Y-136654815D01*
X51248923Y-136655269D01*
X51250709Y-136655380D01*
X51250718Y-136655380D01*
X51252648Y-136655500D01*
X51307435Y-136655500D01*
X51315237Y-136655742D01*
X51375862Y-136659503D01*
X51383078Y-136658263D01*
X51383079Y-136658263D01*
X51384947Y-136657942D01*
X51388568Y-136657320D01*
X51409904Y-136655500D01*
X67437435Y-136655500D01*
X67445237Y-136655742D01*
X67505862Y-136659503D01*
X67513077Y-136658263D01*
X67513080Y-136658263D01*
X67568724Y-136648701D01*
X67575473Y-136647729D01*
X67631554Y-136641191D01*
X67638828Y-136640343D01*
X67647548Y-136637178D01*
X67669200Y-136631437D01*
X67671122Y-136631107D01*
X67671127Y-136631106D01*
X67678340Y-136629866D01*
X67685076Y-136627000D01*
X67685082Y-136626998D01*
X67737036Y-136604891D01*
X67743380Y-136602392D01*
X67796450Y-136583129D01*
X67796452Y-136583128D01*
X67803331Y-136580631D01*
X67809454Y-136576617D01*
X67809459Y-136576614D01*
X67811095Y-136575542D01*
X67830839Y-136564977D01*
X67832638Y-136564212D01*
X67832640Y-136564211D01*
X67839373Y-136561346D01*
X67845268Y-136557008D01*
X67845271Y-136557006D01*
X67890753Y-136523535D01*
X67896351Y-136519644D01*
X67943566Y-136488689D01*
X67943567Y-136488688D01*
X67949685Y-136484677D01*
X67954716Y-136479366D01*
X67954721Y-136479362D01*
X67956066Y-136477942D01*
X67972858Y-136463112D01*
X67974427Y-136461958D01*
X67974434Y-136461952D01*
X67980324Y-136457617D01*
X67985059Y-136452043D01*
X67985066Y-136452037D01*
X68021618Y-136409013D01*
X68026168Y-136403941D01*
X68065006Y-136362942D01*
X68070040Y-136357628D01*
X68074703Y-136349599D01*
X68087634Y-136331305D01*
X68088889Y-136329828D01*
X68088890Y-136329827D01*
X68093632Y-136324245D01*
X68122634Y-136267447D01*
X68125895Y-136261465D01*
X68154263Y-136212627D01*
X68154264Y-136212626D01*
X68157939Y-136206298D01*
X68160627Y-136197422D01*
X68168999Y-136176649D01*
X68173219Y-136168384D01*
X68183815Y-136125082D01*
X68188380Y-136106426D01*
X68190179Y-136099851D01*
X68206545Y-136045815D01*
X68206546Y-136045811D01*
X68208667Y-136038807D01*
X68209242Y-136029543D01*
X68212609Y-136007414D01*
X68213481Y-136003849D01*
X68213482Y-136003842D01*
X68214815Y-135998394D01*
X68215500Y-135987352D01*
X68215500Y-135932565D01*
X68215742Y-135924763D01*
X68219049Y-135871449D01*
X68219503Y-135864138D01*
X68217320Y-135851432D01*
X68215500Y-135830096D01*
X68215500Y-122722565D01*
X68215742Y-122714763D01*
X68219049Y-122661449D01*
X68219503Y-122654138D01*
X68212374Y-122612648D01*
X68208701Y-122591276D01*
X68207729Y-122584527D01*
X68201191Y-122528446D01*
X68200343Y-122521172D01*
X68197178Y-122512452D01*
X68191437Y-122490800D01*
X68191107Y-122488878D01*
X68191106Y-122488873D01*
X68189866Y-122481660D01*
X68187000Y-122474924D01*
X68186998Y-122474918D01*
X68164891Y-122422964D01*
X68162392Y-122416620D01*
X68143129Y-122363550D01*
X68143128Y-122363548D01*
X68140631Y-122356669D01*
X68136617Y-122350546D01*
X68136614Y-122350541D01*
X68135542Y-122348905D01*
X68124977Y-122329161D01*
X68124212Y-122327362D01*
X68124211Y-122327360D01*
X68121346Y-122320627D01*
X68117006Y-122314729D01*
X68083535Y-122269247D01*
X68079644Y-122263649D01*
X68048689Y-122216434D01*
X68048688Y-122216433D01*
X68044677Y-122210315D01*
X68039366Y-122205284D01*
X68039362Y-122205279D01*
X68037942Y-122203934D01*
X68023112Y-122187142D01*
X68021958Y-122185573D01*
X68021952Y-122185566D01*
X68017617Y-122179676D01*
X68012043Y-122174941D01*
X68012037Y-122174934D01*
X67969013Y-122138382D01*
X67963941Y-122133832D01*
X67922942Y-122094994D01*
X67917628Y-122089960D01*
X67909599Y-122085297D01*
X67891305Y-122072366D01*
X67889828Y-122071111D01*
X67889827Y-122071110D01*
X67884245Y-122066368D01*
X67827447Y-122037366D01*
X67821465Y-122034105D01*
X67772627Y-122005737D01*
X67772626Y-122005736D01*
X67766298Y-122002061D01*
X67757422Y-121999373D01*
X67736649Y-121991001D01*
X67728384Y-121986781D01*
X67702165Y-121980366D01*
X67666426Y-121971620D01*
X67659851Y-121969821D01*
X67605815Y-121953455D01*
X67605811Y-121953454D01*
X67598807Y-121951333D01*
X67589929Y-121950782D01*
X67589543Y-121950758D01*
X67567414Y-121947391D01*
X67563849Y-121946519D01*
X67563842Y-121946518D01*
X67558394Y-121945185D01*
X67551077Y-121944731D01*
X67549291Y-121944620D01*
X67549282Y-121944620D01*
X67547352Y-121944500D01*
X67492565Y-121944500D01*
X67484763Y-121944258D01*
X67424138Y-121940497D01*
X67416922Y-121941737D01*
X67416921Y-121941737D01*
X67415053Y-121942058D01*
X67411432Y-121942680D01*
X67390096Y-121944500D01*
X51362565Y-121944500D01*
X51354763Y-121944258D01*
X51294138Y-121940497D01*
X51286923Y-121941737D01*
X51286920Y-121941737D01*
X51231276Y-121951299D01*
X51224526Y-121952271D01*
X51161172Y-121959657D01*
X51152452Y-121962822D01*
X51130800Y-121968563D01*
X51128878Y-121968893D01*
X51128873Y-121968894D01*
X51121660Y-121970134D01*
X51114924Y-121973000D01*
X51114918Y-121973002D01*
X51062964Y-121995109D01*
X51056620Y-121997608D01*
X51003550Y-122016871D01*
X51003548Y-122016872D01*
X50996669Y-122019369D01*
X50990546Y-122023383D01*
X50990541Y-122023386D01*
X50988905Y-122024458D01*
X50969161Y-122035023D01*
X50967362Y-122035788D01*
X50967360Y-122035789D01*
X50960627Y-122038654D01*
X50954732Y-122042992D01*
X50954729Y-122042994D01*
X50909247Y-122076465D01*
X50903655Y-122080352D01*
X50850315Y-122115323D01*
X50845284Y-122120634D01*
X50845279Y-122120638D01*
X50843934Y-122122058D01*
X50827142Y-122136888D01*
X50825573Y-122138042D01*
X50825566Y-122138048D01*
X50819676Y-122142383D01*
X50814941Y-122147957D01*
X50814934Y-122147963D01*
X50778382Y-122190987D01*
X50773832Y-122196059D01*
X50754531Y-122216434D01*
X50729960Y-122242372D01*
X50725297Y-122250401D01*
X50712366Y-122268695D01*
X50706368Y-122275755D01*
X50680017Y-122327362D01*
X50677368Y-122332549D01*
X50674107Y-122338532D01*
X50642061Y-122393702D01*
X50639939Y-122400708D01*
X50639373Y-122402577D01*
X50631001Y-122423351D01*
X50626781Y-122431616D01*
X50625040Y-122438732D01*
X50611620Y-122493574D01*
X50609821Y-122500149D01*
X50593455Y-122554185D01*
X50593454Y-122554189D01*
X50591333Y-122561193D01*
X50590880Y-122568497D01*
X50590758Y-122570457D01*
X50587391Y-122592586D01*
X50586519Y-122596151D01*
X50586518Y-122596158D01*
X50585185Y-122601606D01*
X50584500Y-122612648D01*
X50584500Y-122667435D01*
X50584258Y-122675237D01*
X50580497Y-122735862D01*
X50581737Y-122743078D01*
X50581737Y-122743079D01*
X50582680Y-122748565D01*
X50584500Y-122769904D01*
X50584500Y-135877435D01*
X50584258Y-135885237D01*
X50580497Y-135945862D01*
X50050500Y-135945862D01*
X50050500Y-117951500D01*
X50070502Y-117883379D01*
X50124158Y-117836886D01*
X50176500Y-117825500D01*
X59120450Y-117825500D01*
X59124636Y-117825573D01*
X59126720Y-117825719D01*
X59323030Y-117825719D01*
X59343607Y-117827411D01*
X59345718Y-117827760D01*
X59346912Y-117827958D01*
X59346913Y-117827958D01*
X59353648Y-117829073D01*
X59360465Y-117828716D01*
X59360469Y-117828716D01*
X59414344Y-117825892D01*
X59420938Y-117825719D01*
X59673280Y-117825719D01*
X59675466Y-117825566D01*
X59675470Y-117825566D01*
X60216321Y-117787746D01*
X60218509Y-117787593D01*
X60759750Y-117711526D01*
X61294367Y-117597890D01*
X61459821Y-117550447D01*
X61817634Y-117447846D01*
X61817637Y-117447845D01*
X61819754Y-117447238D01*
X62208684Y-117305679D01*
X62331296Y-117261052D01*
X62331304Y-117261049D01*
X62333353Y-117260303D01*
X62335342Y-117259417D01*
X62335348Y-117259415D01*
X62830644Y-117038895D01*
X62830654Y-117038890D01*
X62832660Y-117037997D01*
X63315245Y-116781402D01*
X63778754Y-116491770D01*
X64220930Y-116170510D01*
X64222626Y-116169087D01*
X64637933Y-115820603D01*
X64637940Y-115820597D01*
X64639620Y-115819187D01*
X65032782Y-115439515D01*
X65034244Y-115437892D01*
X65034253Y-115437882D01*
X65397019Y-115034989D01*
X65398503Y-115033341D01*
X65734999Y-114602646D01*
X66040631Y-114149527D01*
X66313911Y-113676192D01*
X66553508Y-113184947D01*
X66554330Y-113182912D01*
X66554336Y-113182899D01*
X66757424Y-112680238D01*
X66757428Y-112680226D01*
X66758253Y-112678185D01*
X66927149Y-112158375D01*
X67059374Y-111628050D01*
X67154283Y-111089793D01*
X67211414Y-110546227D01*
X67230489Y-110000000D01*
X67211414Y-109453773D01*
X67154283Y-108910207D01*
X67059374Y-108371950D01*
X66927149Y-107841625D01*
X66758253Y-107321815D01*
X66757424Y-107319762D01*
X66554336Y-106817101D01*
X66554330Y-106817088D01*
X66553508Y-106815053D01*
X66313911Y-106323808D01*
X66040631Y-105850473D01*
X65734999Y-105397354D01*
X65398503Y-104966659D01*
X65334537Y-104895618D01*
X65034253Y-104562118D01*
X65034244Y-104562108D01*
X65032782Y-104560485D01*
X64639620Y-104180813D01*
X64637940Y-104179403D01*
X64637933Y-104179397D01*
X64222626Y-103830913D01*
X64222624Y-103830911D01*
X64220930Y-103829490D01*
X63778754Y-103508230D01*
X63315245Y-103218598D01*
X62832660Y-102962003D01*
X62830654Y-102961110D01*
X62830644Y-102961105D01*
X62335348Y-102740585D01*
X62335342Y-102740583D01*
X62333353Y-102739697D01*
X62331304Y-102738951D01*
X62331296Y-102738948D01*
X62132688Y-102666661D01*
X61819754Y-102552762D01*
X61382432Y-102427362D01*
X61296491Y-102402719D01*
X61296490Y-102402719D01*
X61294367Y-102402110D01*
X60759750Y-102288474D01*
X60218509Y-102212407D01*
X60216321Y-102212254D01*
X59675470Y-102174434D01*
X59675466Y-102174434D01*
X59673280Y-102174281D01*
X59476970Y-102174281D01*
X59456393Y-102172589D01*
X59454282Y-102172240D01*
X59453088Y-102172042D01*
X59453087Y-102172042D01*
X59446352Y-102170927D01*
X59439535Y-102171284D01*
X59439531Y-102171284D01*
X59385656Y-102174108D01*
X59379062Y-102174281D01*
X59126720Y-102174281D01*
X59124636Y-102174427D01*
X59120450Y-102174500D01*
X50176500Y-102174500D01*
X50108379Y-102154498D01*
X50061886Y-102100842D01*
X50050500Y-102048500D01*
X50050500Y-79951500D01*
X50070502Y-79883379D01*
X50124158Y-79836886D01*
X50176500Y-79825500D01*
X59120450Y-79825500D01*
X59124636Y-79825573D01*
X59126720Y-79825719D01*
X59323030Y-79825719D01*
X59343607Y-79827411D01*
X59345718Y-79827760D01*
X59346912Y-79827958D01*
X59346913Y-79827958D01*
X59353648Y-79829073D01*
X59360465Y-79828716D01*
X59360469Y-79828716D01*
X59414344Y-79825892D01*
X59420938Y-79825719D01*
X59673280Y-79825719D01*
X59675466Y-79825566D01*
X59675470Y-79825566D01*
X60216321Y-79787746D01*
X60218509Y-79787593D01*
X60759750Y-79711526D01*
X61294367Y-79597890D01*
X61459821Y-79550447D01*
X61817634Y-79447846D01*
X61817637Y-79447845D01*
X61819754Y-79447238D01*
X62208684Y-79305679D01*
X62331296Y-79261052D01*
X62331304Y-79261049D01*
X62333353Y-79260303D01*
X62335342Y-79259417D01*
X62335348Y-79259415D01*
X62830644Y-79038895D01*
X62830654Y-79038890D01*
X62832660Y-79037997D01*
X63315245Y-78781402D01*
X63778754Y-78491770D01*
X64220930Y-78170510D01*
X64222626Y-78169087D01*
X64637933Y-77820603D01*
X64637940Y-77820597D01*
X64639620Y-77819187D01*
X65032782Y-77439515D01*
X65034244Y-77437892D01*
X65034253Y-77437882D01*
X65397019Y-77034989D01*
X65398503Y-77033341D01*
X65734999Y-76602646D01*
X66040631Y-76149527D01*
X66313911Y-75676192D01*
X66553508Y-75184947D01*
X66554330Y-75182912D01*
X66554336Y-75182899D01*
X66757424Y-74680238D01*
X66757428Y-74680226D01*
X66758253Y-74678185D01*
X66927149Y-74158375D01*
X67059374Y-73628050D01*
X67154283Y-73089793D01*
X67211414Y-72546227D01*
X67230489Y-72000000D01*
X67211414Y-71453773D01*
X67154283Y-70910207D01*
X67059374Y-70371950D01*
X66927149Y-69841625D01*
X66758253Y-69321815D01*
X66757424Y-69319762D01*
X66554336Y-68817101D01*
X66554330Y-68817088D01*
X66553508Y-68815053D01*
X66313911Y-68323808D01*
X66040631Y-67850473D01*
X65734999Y-67397354D01*
X65398503Y-66966659D01*
X65334537Y-66895618D01*
X65034253Y-66562118D01*
X65034244Y-66562108D01*
X65032782Y-66560485D01*
X64639620Y-66180813D01*
X64637940Y-66179403D01*
X64637933Y-66179397D01*
X64222626Y-65830913D01*
X64222624Y-65830911D01*
X64220930Y-65829490D01*
X63778754Y-65508230D01*
X63315245Y-65218598D01*
X62832660Y-64962003D01*
X62830654Y-64961110D01*
X62830644Y-64961105D01*
X62335348Y-64740585D01*
X62335342Y-64740583D01*
X62333353Y-64739697D01*
X62331304Y-64738951D01*
X62331296Y-64738948D01*
X62132688Y-64666661D01*
X61819754Y-64552762D01*
X61382432Y-64427362D01*
X61296491Y-64402719D01*
X61296490Y-64402719D01*
X61294367Y-64402110D01*
X60759750Y-64288474D01*
X60218509Y-64212407D01*
X60216321Y-64212254D01*
X59675470Y-64174434D01*
X59675466Y-64174434D01*
X59673280Y-64174281D01*
X59476970Y-64174281D01*
X59456393Y-64172589D01*
X59454282Y-64172240D01*
X59453088Y-64172042D01*
X59453087Y-64172042D01*
X59446352Y-64170927D01*
X59439535Y-64171284D01*
X59439531Y-64171284D01*
X59385656Y-64174108D01*
X59379062Y-64174281D01*
X59126720Y-64174281D01*
X59124636Y-64174427D01*
X59120450Y-64174500D01*
X50176500Y-64174500D01*
X50108379Y-64154498D01*
X50061886Y-64100842D01*
X50050500Y-64048500D01*
X50050500Y-46500000D01*
X50900000Y-46500000D01*
X53700000Y-46500000D01*
X53700000Y-44000000D01*
X50900000Y-44000000D01*
X50900000Y-46500000D01*
X50050500Y-46500000D01*
X50050500Y-35176500D01*
X50070502Y-35108379D01*
X50124158Y-35061886D01*
X50176500Y-35050500D01*
X59900461Y-35050500D01*
X59968582Y-35070502D01*
G37*
%TD.AperFunction*%
M02*
