%TF.GenerationSoftware,KiCad,Pcbnew,(6.0.11)*%
%TF.CreationDate,2023-03-29T15:24:13+01:00*%
%TF.ProjectId,QuadEnv_Panel,51756164-456e-4765-9f50-616e656c2e6b,rev?*%
%TF.SameCoordinates,Original*%
%TF.FileFunction,Legend,Top*%
%TF.FilePolarity,Positive*%
%FSLAX46Y46*%
G04 Gerber Fmt 4.6, Leading zero omitted, Abs format (unit mm)*
G04 Created by KiCad (PCBNEW (6.0.11)) date 2023-03-29 15:24:13*
%MOMM*%
%LPD*%
G01*
G04 APERTURE LIST*
%ADD10C,0.150000*%
G04 APERTURE END LIST*
D10*
X54780952Y-117652380D02*
X54780952Y-118366666D01*
X54733333Y-118509523D01*
X54638095Y-118604761D01*
X54495238Y-118652380D01*
X54400000Y-118652380D01*
X55733333Y-118652380D02*
X55257142Y-118652380D01*
X55257142Y-117652380D01*
X56638095Y-118557142D02*
X56590476Y-118604761D01*
X56447619Y-118652380D01*
X56352380Y-118652380D01*
X56209523Y-118604761D01*
X56114285Y-118509523D01*
X56066666Y-118414285D01*
X56019047Y-118223809D01*
X56019047Y-118080952D01*
X56066666Y-117890476D01*
X56114285Y-117795238D01*
X56209523Y-117700000D01*
X56352380Y-117652380D01*
X56447619Y-117652380D01*
X56590476Y-117700000D01*
X56638095Y-117747619D01*
X57352380Y-117652380D02*
X57352380Y-118366666D01*
X57304761Y-118509523D01*
X57209523Y-118604761D01*
X57066666Y-118652380D01*
X56971428Y-118652380D01*
X58304761Y-118652380D02*
X57828571Y-118652380D01*
X57828571Y-117652380D01*
X59209523Y-118557142D02*
X59161904Y-118604761D01*
X59019047Y-118652380D01*
X58923809Y-118652380D01*
X58780952Y-118604761D01*
X58685714Y-118509523D01*
X58638095Y-118414285D01*
X58590476Y-118223809D01*
X58590476Y-118080952D01*
X58638095Y-117890476D01*
X58685714Y-117795238D01*
X58780952Y-117700000D01*
X58923809Y-117652380D01*
X59019047Y-117652380D01*
X59161904Y-117700000D01*
X59209523Y-117747619D01*
X59923809Y-117652380D02*
X59923809Y-118366666D01*
X59876190Y-118509523D01*
X59780952Y-118604761D01*
X59638095Y-118652380D01*
X59542857Y-118652380D01*
X60876190Y-118652380D02*
X60400000Y-118652380D01*
X60400000Y-117652380D01*
X61780952Y-118557142D02*
X61733333Y-118604761D01*
X61590476Y-118652380D01*
X61495238Y-118652380D01*
X61352380Y-118604761D01*
X61257142Y-118509523D01*
X61209523Y-118414285D01*
X61161904Y-118223809D01*
X61161904Y-118080952D01*
X61209523Y-117890476D01*
X61257142Y-117795238D01*
X61352380Y-117700000D01*
X61495238Y-117652380D01*
X61590476Y-117652380D01*
X61733333Y-117700000D01*
X61780952Y-117747619D01*
X62495238Y-117652380D02*
X62495238Y-118366666D01*
X62447619Y-118509523D01*
X62352380Y-118604761D01*
X62209523Y-118652380D01*
X62114285Y-118652380D01*
X63447619Y-118652380D02*
X62971428Y-118652380D01*
X62971428Y-117652380D01*
X64352380Y-118557142D02*
X64304761Y-118604761D01*
X64161904Y-118652380D01*
X64066666Y-118652380D01*
X63923809Y-118604761D01*
X63828571Y-118509523D01*
X63780952Y-118414285D01*
X63733333Y-118223809D01*
X63733333Y-118080952D01*
X63780952Y-117890476D01*
X63828571Y-117795238D01*
X63923809Y-117700000D01*
X64066666Y-117652380D01*
X64161904Y-117652380D01*
X64304761Y-117700000D01*
X64352380Y-117747619D01*
X50833333Y-62547380D02*
X50833333Y-61547380D01*
X51166666Y-62261666D01*
X51500000Y-61547380D01*
X51500000Y-62547380D01*
X52119047Y-62547380D02*
X52023809Y-62499761D01*
X51976190Y-62452142D01*
X51928571Y-62356904D01*
X51928571Y-62071190D01*
X51976190Y-61975952D01*
X52023809Y-61928333D01*
X52119047Y-61880714D01*
X52261904Y-61880714D01*
X52357142Y-61928333D01*
X52404761Y-61975952D01*
X52452380Y-62071190D01*
X52452380Y-62356904D01*
X52404761Y-62452142D01*
X52357142Y-62499761D01*
X52261904Y-62547380D01*
X52119047Y-62547380D01*
X53309523Y-61880714D02*
X53309523Y-62547380D01*
X52880952Y-61880714D02*
X52880952Y-62404523D01*
X52928571Y-62499761D01*
X53023809Y-62547380D01*
X53166666Y-62547380D01*
X53261904Y-62499761D01*
X53309523Y-62452142D01*
X53785714Y-61880714D02*
X53785714Y-62547380D01*
X53785714Y-61975952D02*
X53833333Y-61928333D01*
X53928571Y-61880714D01*
X54071428Y-61880714D01*
X54166666Y-61928333D01*
X54214285Y-62023571D01*
X54214285Y-62547380D01*
X54547619Y-61880714D02*
X54928571Y-61880714D01*
X54690476Y-61547380D02*
X54690476Y-62404523D01*
X54738095Y-62499761D01*
X54833333Y-62547380D01*
X54928571Y-62547380D01*
X55261904Y-61880714D02*
X55261904Y-62737857D01*
X55214285Y-62833095D01*
X55119047Y-62880714D01*
X55071428Y-62880714D01*
X55261904Y-61547380D02*
X55214285Y-61595000D01*
X55261904Y-61642619D01*
X55309523Y-61595000D01*
X55261904Y-61547380D01*
X55261904Y-61642619D01*
X55880952Y-62547380D02*
X55785714Y-62499761D01*
X55738095Y-62452142D01*
X55690476Y-62356904D01*
X55690476Y-62071190D01*
X55738095Y-61975952D01*
X55785714Y-61928333D01*
X55880952Y-61880714D01*
X56023809Y-61880714D01*
X56119047Y-61928333D01*
X56166666Y-61975952D01*
X56214285Y-62071190D01*
X56214285Y-62356904D01*
X56166666Y-62452142D01*
X56119047Y-62499761D01*
X56023809Y-62547380D01*
X55880952Y-62547380D01*
X56547619Y-61880714D02*
X56785714Y-62547380D01*
X57023809Y-61880714D02*
X56785714Y-62547380D01*
X56690476Y-62785476D01*
X56642857Y-62833095D01*
X56547619Y-62880714D01*
X58166666Y-62547380D02*
X58166666Y-61547380D01*
X58500000Y-62261666D01*
X58833333Y-61547380D01*
X58833333Y-62547380D01*
X59452380Y-62547380D02*
X59357142Y-62499761D01*
X59309523Y-62452142D01*
X59261904Y-62356904D01*
X59261904Y-62071190D01*
X59309523Y-61975952D01*
X59357142Y-61928333D01*
X59452380Y-61880714D01*
X59595238Y-61880714D01*
X59690476Y-61928333D01*
X59738095Y-61975952D01*
X59785714Y-62071190D01*
X59785714Y-62356904D01*
X59738095Y-62452142D01*
X59690476Y-62499761D01*
X59595238Y-62547380D01*
X59452380Y-62547380D01*
X60642857Y-62547380D02*
X60642857Y-61547380D01*
X60642857Y-62499761D02*
X60547619Y-62547380D01*
X60357142Y-62547380D01*
X60261904Y-62499761D01*
X60214285Y-62452142D01*
X60166666Y-62356904D01*
X60166666Y-62071190D01*
X60214285Y-61975952D01*
X60261904Y-61928333D01*
X60357142Y-61880714D01*
X60547619Y-61880714D01*
X60642857Y-61928333D01*
X61547619Y-61880714D02*
X61547619Y-62547380D01*
X61119047Y-61880714D02*
X61119047Y-62404523D01*
X61166666Y-62499761D01*
X61261904Y-62547380D01*
X61404761Y-62547380D01*
X61500000Y-62499761D01*
X61547619Y-62452142D01*
X62166666Y-62547380D02*
X62071428Y-62499761D01*
X62023809Y-62404523D01*
X62023809Y-61547380D01*
X62976190Y-62547380D02*
X62976190Y-62023571D01*
X62928571Y-61928333D01*
X62833333Y-61880714D01*
X62642857Y-61880714D01*
X62547619Y-61928333D01*
X62976190Y-62499761D02*
X62880952Y-62547380D01*
X62642857Y-62547380D01*
X62547619Y-62499761D01*
X62500000Y-62404523D01*
X62500000Y-62309285D01*
X62547619Y-62214047D01*
X62642857Y-62166428D01*
X62880952Y-62166428D01*
X62976190Y-62118809D01*
X63452380Y-62547380D02*
X63452380Y-61880714D01*
X63452380Y-62071190D02*
X63500000Y-61975952D01*
X63547619Y-61928333D01*
X63642857Y-61880714D01*
X63738095Y-61880714D01*
X64785714Y-61642619D02*
X64833333Y-61595000D01*
X64928571Y-61547380D01*
X65166666Y-61547380D01*
X65261904Y-61595000D01*
X65309523Y-61642619D01*
X65357142Y-61737857D01*
X65357142Y-61833095D01*
X65309523Y-61975952D01*
X64738095Y-62547380D01*
X65357142Y-62547380D01*
X65976190Y-61547380D02*
X66071428Y-61547380D01*
X66166666Y-61595000D01*
X66214285Y-61642619D01*
X66261904Y-61737857D01*
X66309523Y-61928333D01*
X66309523Y-62166428D01*
X66261904Y-62356904D01*
X66214285Y-62452142D01*
X66166666Y-62499761D01*
X66071428Y-62547380D01*
X65976190Y-62547380D01*
X65880952Y-62499761D01*
X65833333Y-62452142D01*
X65785714Y-62356904D01*
X65738095Y-62166428D01*
X65738095Y-61928333D01*
X65785714Y-61737857D01*
X65833333Y-61642619D01*
X65880952Y-61595000D01*
X65976190Y-61547380D01*
X66690476Y-61642619D02*
X66738095Y-61595000D01*
X66833333Y-61547380D01*
X67071428Y-61547380D01*
X67166666Y-61595000D01*
X67214285Y-61642619D01*
X67261904Y-61737857D01*
X67261904Y-61833095D01*
X67214285Y-61975952D01*
X66642857Y-62547380D01*
X67261904Y-62547380D01*
X67595238Y-61547380D02*
X68214285Y-61547380D01*
X67880952Y-61928333D01*
X68023809Y-61928333D01*
X68119047Y-61975952D01*
X68166666Y-62023571D01*
X68214285Y-62118809D01*
X68214285Y-62356904D01*
X68166666Y-62452142D01*
X68119047Y-62499761D01*
X68023809Y-62547380D01*
X67738095Y-62547380D01*
X67642857Y-62499761D01*
X67595238Y-62452142D01*
X52809523Y-64252619D02*
X52714285Y-64205000D01*
X52619047Y-64109761D01*
X52476190Y-63966904D01*
X52380952Y-63919285D01*
X52285714Y-63919285D01*
X52333333Y-64157380D02*
X52238095Y-64109761D01*
X52142857Y-64014523D01*
X52095238Y-63824047D01*
X52095238Y-63490714D01*
X52142857Y-63300238D01*
X52238095Y-63205000D01*
X52333333Y-63157380D01*
X52523809Y-63157380D01*
X52619047Y-63205000D01*
X52714285Y-63300238D01*
X52761904Y-63490714D01*
X52761904Y-63824047D01*
X52714285Y-64014523D01*
X52619047Y-64109761D01*
X52523809Y-64157380D01*
X52333333Y-64157380D01*
X53619047Y-63490714D02*
X53619047Y-64157380D01*
X53190476Y-63490714D02*
X53190476Y-64014523D01*
X53238095Y-64109761D01*
X53333333Y-64157380D01*
X53476190Y-64157380D01*
X53571428Y-64109761D01*
X53619047Y-64062142D01*
X54523809Y-64157380D02*
X54523809Y-63633571D01*
X54476190Y-63538333D01*
X54380952Y-63490714D01*
X54190476Y-63490714D01*
X54095238Y-63538333D01*
X54523809Y-64109761D02*
X54428571Y-64157380D01*
X54190476Y-64157380D01*
X54095238Y-64109761D01*
X54047619Y-64014523D01*
X54047619Y-63919285D01*
X54095238Y-63824047D01*
X54190476Y-63776428D01*
X54428571Y-63776428D01*
X54523809Y-63728809D01*
X55428571Y-64157380D02*
X55428571Y-63157380D01*
X55428571Y-64109761D02*
X55333333Y-64157380D01*
X55142857Y-64157380D01*
X55047619Y-64109761D01*
X55000000Y-64062142D01*
X54952380Y-63966904D01*
X54952380Y-63681190D01*
X55000000Y-63585952D01*
X55047619Y-63538333D01*
X55142857Y-63490714D01*
X55333333Y-63490714D01*
X55428571Y-63538333D01*
X55904761Y-63633571D02*
X56238095Y-63633571D01*
X56380952Y-64157380D02*
X55904761Y-64157380D01*
X55904761Y-63157380D01*
X56380952Y-63157380D01*
X56809523Y-63490714D02*
X56809523Y-64157380D01*
X56809523Y-63585952D02*
X56857142Y-63538333D01*
X56952380Y-63490714D01*
X57095238Y-63490714D01*
X57190476Y-63538333D01*
X57238095Y-63633571D01*
X57238095Y-64157380D01*
X57619047Y-63490714D02*
X57857142Y-64157380D01*
X58095238Y-63490714D01*
X59238095Y-64157380D02*
X59238095Y-63157380D01*
X59619047Y-63157380D01*
X59714285Y-63205000D01*
X59761904Y-63252619D01*
X59809523Y-63347857D01*
X59809523Y-63490714D01*
X59761904Y-63585952D01*
X59714285Y-63633571D01*
X59619047Y-63681190D01*
X59238095Y-63681190D01*
X60666666Y-64157380D02*
X60666666Y-63633571D01*
X60619047Y-63538333D01*
X60523809Y-63490714D01*
X60333333Y-63490714D01*
X60238095Y-63538333D01*
X60666666Y-64109761D02*
X60571428Y-64157380D01*
X60333333Y-64157380D01*
X60238095Y-64109761D01*
X60190476Y-64014523D01*
X60190476Y-63919285D01*
X60238095Y-63824047D01*
X60333333Y-63776428D01*
X60571428Y-63776428D01*
X60666666Y-63728809D01*
X61142857Y-63490714D02*
X61142857Y-64157380D01*
X61142857Y-63585952D02*
X61190476Y-63538333D01*
X61285714Y-63490714D01*
X61428571Y-63490714D01*
X61523809Y-63538333D01*
X61571428Y-63633571D01*
X61571428Y-64157380D01*
X62428571Y-64109761D02*
X62333333Y-64157380D01*
X62142857Y-64157380D01*
X62047619Y-64109761D01*
X62000000Y-64014523D01*
X62000000Y-63633571D01*
X62047619Y-63538333D01*
X62142857Y-63490714D01*
X62333333Y-63490714D01*
X62428571Y-63538333D01*
X62476190Y-63633571D01*
X62476190Y-63728809D01*
X62000000Y-63824047D01*
X63047619Y-64157380D02*
X62952380Y-64109761D01*
X62904761Y-64014523D01*
X62904761Y-63157380D01*
X64095238Y-63490714D02*
X64333333Y-64157380D01*
X64571428Y-63490714D01*
X65476190Y-64157380D02*
X64904761Y-64157380D01*
X65190476Y-64157380D02*
X65190476Y-63157380D01*
X65095238Y-63300238D01*
X65000000Y-63395476D01*
X64904761Y-63443095D01*
X65904761Y-64062142D02*
X65952380Y-64109761D01*
X65904761Y-64157380D01*
X65857142Y-64109761D01*
X65904761Y-64062142D01*
X65904761Y-64157380D01*
X66571428Y-63157380D02*
X66666666Y-63157380D01*
X66761904Y-63205000D01*
X66809523Y-63252619D01*
X66857142Y-63347857D01*
X66904761Y-63538333D01*
X66904761Y-63776428D01*
X66857142Y-63966904D01*
X66809523Y-64062142D01*
X66761904Y-64109761D01*
X66666666Y-64157380D01*
X66571428Y-64157380D01*
X66476190Y-64109761D01*
X66428571Y-64062142D01*
X66380952Y-63966904D01*
X66333333Y-63776428D01*
X66333333Y-63538333D01*
X66380952Y-63347857D01*
X66428571Y-63252619D01*
X66476190Y-63205000D01*
X66571428Y-63157380D01*
M02*
