%TF.GenerationSoftware,KiCad,Pcbnew,(6.0.11)*%
%TF.CreationDate,2023-03-11T14:37:33+00:00*%
%TF.ProjectId,QuadEnv_Controls,51756164-456e-4765-9f43-6f6e74726f6c,rev?*%
%TF.SameCoordinates,Original*%
%TF.FileFunction,Legend,Bot*%
%TF.FilePolarity,Positive*%
%FSLAX46Y46*%
G04 Gerber Fmt 4.6, Leading zero omitted, Abs format (unit mm)*
G04 Created by KiCad (PCBNEW (6.0.11)) date 2023-03-11 14:37:33*
%MOMM*%
%LPD*%
G01*
G04 APERTURE LIST*
%ADD10C,0.150000*%
%ADD11C,0.120000*%
%ADD12C,3.250000*%
G04 APERTURE END LIST*
D10*
%TO.C,RV4*%
X63209523Y-120204761D02*
X63066666Y-120252380D01*
X62828571Y-120252380D01*
X62733333Y-120204761D01*
X62685714Y-120157142D01*
X62638095Y-120061904D01*
X62638095Y-119966666D01*
X62685714Y-119871428D01*
X62733333Y-119823809D01*
X62828571Y-119776190D01*
X63019047Y-119728571D01*
X63114285Y-119680952D01*
X63161904Y-119633333D01*
X63209523Y-119538095D01*
X63209523Y-119442857D01*
X63161904Y-119347619D01*
X63114285Y-119300000D01*
X63019047Y-119252380D01*
X62780952Y-119252380D01*
X62638095Y-119300000D01*
X61780952Y-119585714D02*
X61780952Y-120252380D01*
X62209523Y-119585714D02*
X62209523Y-120109523D01*
X62161904Y-120204761D01*
X62066666Y-120252380D01*
X61923809Y-120252380D01*
X61828571Y-120204761D01*
X61780952Y-120157142D01*
X61352380Y-120204761D02*
X61257142Y-120252380D01*
X61066666Y-120252380D01*
X60971428Y-120204761D01*
X60923809Y-120109523D01*
X60923809Y-120061904D01*
X60971428Y-119966666D01*
X61066666Y-119919047D01*
X61209523Y-119919047D01*
X61304761Y-119871428D01*
X61352380Y-119776190D01*
X61352380Y-119728571D01*
X61304761Y-119633333D01*
X61209523Y-119585714D01*
X61066666Y-119585714D01*
X60971428Y-119633333D01*
X60638095Y-119585714D02*
X60257142Y-119585714D01*
X60495238Y-119252380D02*
X60495238Y-120109523D01*
X60447619Y-120204761D01*
X60352380Y-120252380D01*
X60257142Y-120252380D01*
X59495238Y-120252380D02*
X59495238Y-119728571D01*
X59542857Y-119633333D01*
X59638095Y-119585714D01*
X59828571Y-119585714D01*
X59923809Y-119633333D01*
X59495238Y-120204761D02*
X59590476Y-120252380D01*
X59828571Y-120252380D01*
X59923809Y-120204761D01*
X59971428Y-120109523D01*
X59971428Y-120014285D01*
X59923809Y-119919047D01*
X59828571Y-119871428D01*
X59590476Y-119871428D01*
X59495238Y-119823809D01*
X59019047Y-120252380D02*
X59019047Y-119585714D01*
X59019047Y-119252380D02*
X59066666Y-119300000D01*
X59019047Y-119347619D01*
X58971428Y-119300000D01*
X59019047Y-119252380D01*
X59019047Y-119347619D01*
X58542857Y-119585714D02*
X58542857Y-120252380D01*
X58542857Y-119680952D02*
X58495238Y-119633333D01*
X58400000Y-119585714D01*
X58257142Y-119585714D01*
X58161904Y-119633333D01*
X58114285Y-119728571D01*
X58114285Y-120252380D01*
X57638095Y-120252380D02*
X57638095Y-119252380D01*
X57257142Y-119252380D01*
X57161904Y-119300000D01*
X57114285Y-119347619D01*
X57066666Y-119442857D01*
X57066666Y-119585714D01*
X57114285Y-119680952D01*
X57161904Y-119728571D01*
X57257142Y-119776190D01*
X57638095Y-119776190D01*
X56495238Y-120252380D02*
X56590476Y-120204761D01*
X56638095Y-120157142D01*
X56685714Y-120061904D01*
X56685714Y-119776190D01*
X56638095Y-119680952D01*
X56590476Y-119633333D01*
X56495238Y-119585714D01*
X56352380Y-119585714D01*
X56257142Y-119633333D01*
X56209523Y-119680952D01*
X56161904Y-119776190D01*
X56161904Y-120061904D01*
X56209523Y-120157142D01*
X56257142Y-120204761D01*
X56352380Y-120252380D01*
X56495238Y-120252380D01*
X55876190Y-119585714D02*
X55495238Y-119585714D01*
X55733333Y-119252380D02*
X55733333Y-120109523D01*
X55685714Y-120204761D01*
X55590476Y-120252380D01*
X55495238Y-120252380D01*
%TO.C,RV3*%
X62733333Y-101152380D02*
X63066666Y-100676190D01*
X63304761Y-101152380D02*
X63304761Y-100152380D01*
X62923809Y-100152380D01*
X62828571Y-100200000D01*
X62780952Y-100247619D01*
X62733333Y-100342857D01*
X62733333Y-100485714D01*
X62780952Y-100580952D01*
X62828571Y-100628571D01*
X62923809Y-100676190D01*
X63304761Y-100676190D01*
X61923809Y-101104761D02*
X62019047Y-101152380D01*
X62209523Y-101152380D01*
X62304761Y-101104761D01*
X62352380Y-101009523D01*
X62352380Y-100628571D01*
X62304761Y-100533333D01*
X62209523Y-100485714D01*
X62019047Y-100485714D01*
X61923809Y-100533333D01*
X61876190Y-100628571D01*
X61876190Y-100723809D01*
X62352380Y-100819047D01*
X61304761Y-101152380D02*
X61400000Y-101104761D01*
X61447619Y-101009523D01*
X61447619Y-100152380D01*
X60542857Y-101104761D02*
X60638095Y-101152380D01*
X60828571Y-101152380D01*
X60923809Y-101104761D01*
X60971428Y-101009523D01*
X60971428Y-100628571D01*
X60923809Y-100533333D01*
X60828571Y-100485714D01*
X60638095Y-100485714D01*
X60542857Y-100533333D01*
X60495238Y-100628571D01*
X60495238Y-100723809D01*
X60971428Y-100819047D01*
X59638095Y-101152380D02*
X59638095Y-100628571D01*
X59685714Y-100533333D01*
X59780952Y-100485714D01*
X59971428Y-100485714D01*
X60066666Y-100533333D01*
X59638095Y-101104761D02*
X59733333Y-101152380D01*
X59971428Y-101152380D01*
X60066666Y-101104761D01*
X60114285Y-101009523D01*
X60114285Y-100914285D01*
X60066666Y-100819047D01*
X59971428Y-100771428D01*
X59733333Y-100771428D01*
X59638095Y-100723809D01*
X59209523Y-101104761D02*
X59114285Y-101152380D01*
X58923809Y-101152380D01*
X58828571Y-101104761D01*
X58780952Y-101009523D01*
X58780952Y-100961904D01*
X58828571Y-100866666D01*
X58923809Y-100819047D01*
X59066666Y-100819047D01*
X59161904Y-100771428D01*
X59209523Y-100676190D01*
X59209523Y-100628571D01*
X59161904Y-100533333D01*
X59066666Y-100485714D01*
X58923809Y-100485714D01*
X58828571Y-100533333D01*
X57971428Y-101104761D02*
X58066666Y-101152380D01*
X58257142Y-101152380D01*
X58352380Y-101104761D01*
X58400000Y-101009523D01*
X58400000Y-100628571D01*
X58352380Y-100533333D01*
X58257142Y-100485714D01*
X58066666Y-100485714D01*
X57971428Y-100533333D01*
X57923809Y-100628571D01*
X57923809Y-100723809D01*
X58400000Y-100819047D01*
X57495238Y-101152380D02*
X57495238Y-100152380D01*
X57114285Y-100152380D01*
X57019047Y-100200000D01*
X56971428Y-100247619D01*
X56923809Y-100342857D01*
X56923809Y-100485714D01*
X56971428Y-100580952D01*
X57019047Y-100628571D01*
X57114285Y-100676190D01*
X57495238Y-100676190D01*
X56352380Y-101152380D02*
X56447619Y-101104761D01*
X56495238Y-101057142D01*
X56542857Y-100961904D01*
X56542857Y-100676190D01*
X56495238Y-100580952D01*
X56447619Y-100533333D01*
X56352380Y-100485714D01*
X56209523Y-100485714D01*
X56114285Y-100533333D01*
X56066666Y-100580952D01*
X56019047Y-100676190D01*
X56019047Y-100961904D01*
X56066666Y-101057142D01*
X56114285Y-101104761D01*
X56209523Y-101152380D01*
X56352380Y-101152380D01*
X55733333Y-100485714D02*
X55352380Y-100485714D01*
X55590476Y-100152380D02*
X55590476Y-101009523D01*
X55542857Y-101104761D01*
X55447619Y-101152380D01*
X55352380Y-101152380D01*
%TO.C,J6*%
X62080476Y-149728571D02*
X61747142Y-149728571D01*
X61604285Y-150252380D02*
X62080476Y-150252380D01*
X62080476Y-149252380D01*
X61604285Y-149252380D01*
X61175714Y-149585714D02*
X61175714Y-150252380D01*
X61175714Y-149680952D02*
X61128095Y-149633333D01*
X61032857Y-149585714D01*
X60890000Y-149585714D01*
X60794761Y-149633333D01*
X60747142Y-149728571D01*
X60747142Y-150252380D01*
X60366190Y-149585714D02*
X60128095Y-150252380D01*
X59890000Y-149585714D01*
X59747142Y-150347619D02*
X58985238Y-150347619D01*
X58556666Y-149252380D02*
X58366190Y-149252380D01*
X58270952Y-149300000D01*
X58175714Y-149395238D01*
X58128095Y-149585714D01*
X58128095Y-149919047D01*
X58175714Y-150109523D01*
X58270952Y-150204761D01*
X58366190Y-150252380D01*
X58556666Y-150252380D01*
X58651904Y-150204761D01*
X58747142Y-150109523D01*
X58794761Y-149919047D01*
X58794761Y-149585714D01*
X58747142Y-149395238D01*
X58651904Y-149300000D01*
X58556666Y-149252380D01*
X57270952Y-149585714D02*
X57270952Y-150252380D01*
X57699523Y-149585714D02*
X57699523Y-150109523D01*
X57651904Y-150204761D01*
X57556666Y-150252380D01*
X57413809Y-150252380D01*
X57318571Y-150204761D01*
X57270952Y-150157142D01*
X56937619Y-149585714D02*
X56556666Y-149585714D01*
X56794761Y-149252380D02*
X56794761Y-150109523D01*
X56747142Y-150204761D01*
X56651904Y-150252380D01*
X56556666Y-150252380D01*
%TO.C,RV2*%
X62590476Y-82052380D02*
X62590476Y-81052380D01*
X62352380Y-81052380D01*
X62209523Y-81100000D01*
X62114285Y-81195238D01*
X62066666Y-81290476D01*
X62019047Y-81480952D01*
X62019047Y-81623809D01*
X62066666Y-81814285D01*
X62114285Y-81909523D01*
X62209523Y-82004761D01*
X62352380Y-82052380D01*
X62590476Y-82052380D01*
X61209523Y-82004761D02*
X61304761Y-82052380D01*
X61495238Y-82052380D01*
X61590476Y-82004761D01*
X61638095Y-81909523D01*
X61638095Y-81528571D01*
X61590476Y-81433333D01*
X61495238Y-81385714D01*
X61304761Y-81385714D01*
X61209523Y-81433333D01*
X61161904Y-81528571D01*
X61161904Y-81623809D01*
X61638095Y-81719047D01*
X60304761Y-82004761D02*
X60400000Y-82052380D01*
X60590476Y-82052380D01*
X60685714Y-82004761D01*
X60733333Y-81957142D01*
X60780952Y-81861904D01*
X60780952Y-81576190D01*
X60733333Y-81480952D01*
X60685714Y-81433333D01*
X60590476Y-81385714D01*
X60400000Y-81385714D01*
X60304761Y-81433333D01*
X59447619Y-82052380D02*
X59447619Y-81528571D01*
X59495238Y-81433333D01*
X59590476Y-81385714D01*
X59780952Y-81385714D01*
X59876190Y-81433333D01*
X59447619Y-82004761D02*
X59542857Y-82052380D01*
X59780952Y-82052380D01*
X59876190Y-82004761D01*
X59923809Y-81909523D01*
X59923809Y-81814285D01*
X59876190Y-81719047D01*
X59780952Y-81671428D01*
X59542857Y-81671428D01*
X59447619Y-81623809D01*
X59066666Y-81385714D02*
X58828571Y-82052380D01*
X58590476Y-81385714D02*
X58828571Y-82052380D01*
X58923809Y-82290476D01*
X58971428Y-82338095D01*
X59066666Y-82385714D01*
X58209523Y-82052380D02*
X58209523Y-81052380D01*
X57828571Y-81052380D01*
X57733333Y-81100000D01*
X57685714Y-81147619D01*
X57638095Y-81242857D01*
X57638095Y-81385714D01*
X57685714Y-81480952D01*
X57733333Y-81528571D01*
X57828571Y-81576190D01*
X58209523Y-81576190D01*
X57066666Y-82052380D02*
X57161904Y-82004761D01*
X57209523Y-81957142D01*
X57257142Y-81861904D01*
X57257142Y-81576190D01*
X57209523Y-81480952D01*
X57161904Y-81433333D01*
X57066666Y-81385714D01*
X56923809Y-81385714D01*
X56828571Y-81433333D01*
X56780952Y-81480952D01*
X56733333Y-81576190D01*
X56733333Y-81861904D01*
X56780952Y-81957142D01*
X56828571Y-82004761D01*
X56923809Y-82052380D01*
X57066666Y-82052380D01*
X56447619Y-81385714D02*
X56066666Y-81385714D01*
X56304761Y-81052380D02*
X56304761Y-81909523D01*
X56257142Y-82004761D01*
X56161904Y-82052380D01*
X56066666Y-82052380D01*
%TO.C,RV1*%
X62733333Y-63866666D02*
X62257142Y-63866666D01*
X62828571Y-64152380D02*
X62495238Y-63152380D01*
X62161904Y-64152380D01*
X61971428Y-63485714D02*
X61590476Y-63485714D01*
X61828571Y-63152380D02*
X61828571Y-64009523D01*
X61780952Y-64104761D01*
X61685714Y-64152380D01*
X61590476Y-64152380D01*
X61400000Y-63485714D02*
X61019047Y-63485714D01*
X61257142Y-63152380D02*
X61257142Y-64009523D01*
X61209523Y-64104761D01*
X61114285Y-64152380D01*
X61019047Y-64152380D01*
X60257142Y-64152380D02*
X60257142Y-63628571D01*
X60304761Y-63533333D01*
X60400000Y-63485714D01*
X60590476Y-63485714D01*
X60685714Y-63533333D01*
X60257142Y-64104761D02*
X60352380Y-64152380D01*
X60590476Y-64152380D01*
X60685714Y-64104761D01*
X60733333Y-64009523D01*
X60733333Y-63914285D01*
X60685714Y-63819047D01*
X60590476Y-63771428D01*
X60352380Y-63771428D01*
X60257142Y-63723809D01*
X59352380Y-64104761D02*
X59447619Y-64152380D01*
X59638095Y-64152380D01*
X59733333Y-64104761D01*
X59780952Y-64057142D01*
X59828571Y-63961904D01*
X59828571Y-63676190D01*
X59780952Y-63580952D01*
X59733333Y-63533333D01*
X59638095Y-63485714D01*
X59447619Y-63485714D01*
X59352380Y-63533333D01*
X58923809Y-64152380D02*
X58923809Y-63152380D01*
X58828571Y-63771428D02*
X58542857Y-64152380D01*
X58542857Y-63485714D02*
X58923809Y-63866666D01*
X58114285Y-64152380D02*
X58114285Y-63152380D01*
X57733333Y-63152380D01*
X57638095Y-63200000D01*
X57590476Y-63247619D01*
X57542857Y-63342857D01*
X57542857Y-63485714D01*
X57590476Y-63580952D01*
X57638095Y-63628571D01*
X57733333Y-63676190D01*
X58114285Y-63676190D01*
X56971428Y-64152380D02*
X57066666Y-64104761D01*
X57114285Y-64057142D01*
X57161904Y-63961904D01*
X57161904Y-63676190D01*
X57114285Y-63580952D01*
X57066666Y-63533333D01*
X56971428Y-63485714D01*
X56828571Y-63485714D01*
X56733333Y-63533333D01*
X56685714Y-63580952D01*
X56638095Y-63676190D01*
X56638095Y-63961904D01*
X56685714Y-64057142D01*
X56733333Y-64104761D01*
X56828571Y-64152380D01*
X56971428Y-64152380D01*
X56352380Y-63485714D02*
X55971428Y-63485714D01*
X56209523Y-63152380D02*
X56209523Y-64009523D01*
X56161904Y-64104761D01*
X56066666Y-64152380D01*
X55971428Y-64152380D01*
%TO.C,J5*%
X61957619Y-121210000D02*
X62052857Y-121162380D01*
X62195714Y-121162380D01*
X62338571Y-121210000D01*
X62433809Y-121305238D01*
X62481428Y-121400476D01*
X62529047Y-121590952D01*
X62529047Y-121733809D01*
X62481428Y-121924285D01*
X62433809Y-122019523D01*
X62338571Y-122114761D01*
X62195714Y-122162380D01*
X62100476Y-122162380D01*
X61957619Y-122114761D01*
X61910000Y-122067142D01*
X61910000Y-121733809D01*
X62100476Y-121733809D01*
X61052857Y-122162380D02*
X61052857Y-121638571D01*
X61100476Y-121543333D01*
X61195714Y-121495714D01*
X61386190Y-121495714D01*
X61481428Y-121543333D01*
X61052857Y-122114761D02*
X61148095Y-122162380D01*
X61386190Y-122162380D01*
X61481428Y-122114761D01*
X61529047Y-122019523D01*
X61529047Y-121924285D01*
X61481428Y-121829047D01*
X61386190Y-121781428D01*
X61148095Y-121781428D01*
X61052857Y-121733809D01*
X60719523Y-121495714D02*
X60338571Y-121495714D01*
X60576666Y-121162380D02*
X60576666Y-122019523D01*
X60529047Y-122114761D01*
X60433809Y-122162380D01*
X60338571Y-122162380D01*
X59624285Y-122114761D02*
X59719523Y-122162380D01*
X59910000Y-122162380D01*
X60005238Y-122114761D01*
X60052857Y-122019523D01*
X60052857Y-121638571D01*
X60005238Y-121543333D01*
X59910000Y-121495714D01*
X59719523Y-121495714D01*
X59624285Y-121543333D01*
X59576666Y-121638571D01*
X59576666Y-121733809D01*
X60052857Y-121829047D01*
X59386190Y-122257619D02*
X58624285Y-122257619D01*
X58195714Y-121162380D02*
X58005238Y-121162380D01*
X57910000Y-121210000D01*
X57814761Y-121305238D01*
X57767142Y-121495714D01*
X57767142Y-121829047D01*
X57814761Y-122019523D01*
X57910000Y-122114761D01*
X58005238Y-122162380D01*
X58195714Y-122162380D01*
X58290952Y-122114761D01*
X58386190Y-122019523D01*
X58433809Y-121829047D01*
X58433809Y-121495714D01*
X58386190Y-121305238D01*
X58290952Y-121210000D01*
X58195714Y-121162380D01*
X56910000Y-121495714D02*
X56910000Y-122162380D01*
X57338571Y-121495714D02*
X57338571Y-122019523D01*
X57290952Y-122114761D01*
X57195714Y-122162380D01*
X57052857Y-122162380D01*
X56957619Y-122114761D01*
X56910000Y-122067142D01*
X56576666Y-121495714D02*
X56195714Y-121495714D01*
X56433809Y-121162380D02*
X56433809Y-122019523D01*
X56386190Y-122114761D01*
X56290952Y-122162380D01*
X56195714Y-122162380D01*
D11*
%TO.C,D2*%
X58560000Y-45264000D02*
X58560000Y-45420000D01*
X58560000Y-47580000D02*
X58560000Y-47736000D01*
X58040961Y-45420000D02*
G75*
G03*
X55958870Y-45420163I-1040961J-1080000D01*
G01*
X58560000Y-45264484D02*
G75*
G03*
X55327665Y-45421392I-1560000J-1235517D01*
G01*
X55327665Y-47578608D02*
G75*
G03*
X58560000Y-47735516I1672335J1078609D01*
G01*
X55958870Y-47579837D02*
G75*
G03*
X58040961Y-47580000I1041130J1079837D01*
G01*
%TO.C,D1*%
X51220000Y-48060000D02*
X51064000Y-48060000D01*
X53536000Y-48060000D02*
X53380000Y-48060000D01*
X53380000Y-47540961D02*
G75*
G03*
X53379837Y-45458870I-1080000J1040961D01*
G01*
X51220163Y-45458870D02*
G75*
G03*
X51220000Y-47540961I1079837J-1041130D01*
G01*
X51221392Y-44827665D02*
G75*
G03*
X51064484Y-48060000I1078609J-1672335D01*
G01*
X53535516Y-48060000D02*
G75*
G03*
X53378608Y-44827665I-1235517J1560000D01*
G01*
%TO.C,RV4*%
X58575000Y-116560000D02*
X57725000Y-116560000D01*
X64361000Y-116560000D02*
X64361000Y-112694000D01*
X56075000Y-116560000D02*
X54440000Y-116560000D01*
X64361000Y-104440000D02*
X54440000Y-104440000D01*
X64361000Y-116560000D02*
X62725000Y-116560000D01*
X54440000Y-108305000D02*
X54440000Y-104440000D01*
X64361000Y-108305000D02*
X64361000Y-104440000D01*
X61075000Y-116560000D02*
X60225000Y-116560000D01*
X54440000Y-116560000D02*
X54440000Y-112694000D01*
X62162432Y-108828018D02*
G75*
G03*
X56638000Y-108827000I-2762432J-1171982D01*
G01*
X57102247Y-111928295D02*
G75*
G03*
X61698000Y-111928000I2297753J1928295D01*
G01*
%TO.C,D4*%
X67636000Y-48060000D02*
X67480000Y-48060000D01*
X65320000Y-48060000D02*
X65164000Y-48060000D01*
X65320163Y-45458870D02*
G75*
G03*
X65320000Y-47540961I1079837J-1041130D01*
G01*
X67480000Y-47540961D02*
G75*
G03*
X67479837Y-45458870I-1080000J1040961D01*
G01*
X65321392Y-44827665D02*
G75*
G03*
X65164484Y-48060000I1078609J-1672335D01*
G01*
X67635516Y-48060000D02*
G75*
G03*
X67478608Y-44827665I-1235517J1560000D01*
G01*
%TO.C,RV3*%
X58575000Y-97560000D02*
X57725000Y-97560000D01*
X54440000Y-89305000D02*
X54440000Y-85440000D01*
X54440000Y-97560000D02*
X54440000Y-93694000D01*
X64361000Y-97560000D02*
X62725000Y-97560000D01*
X56075000Y-97560000D02*
X54440000Y-97560000D01*
X64361000Y-97560000D02*
X64361000Y-93694000D01*
X64361000Y-89305000D02*
X64361000Y-85440000D01*
X64361000Y-85440000D02*
X54440000Y-85440000D01*
X61075000Y-97560000D02*
X60225000Y-97560000D01*
X62162432Y-89828018D02*
G75*
G03*
X56638000Y-89827000I-2762432J-1171982D01*
G01*
X57102247Y-92928295D02*
G75*
G03*
X61698000Y-92928000I2297753J1928295D01*
G01*
%TO.C,J6*%
X51350000Y-151700000D02*
X67450000Y-151700000D01*
X67450000Y-151700000D02*
X67450000Y-138500000D01*
X67450000Y-138500000D02*
X51350000Y-138500000D01*
X51350000Y-138500000D02*
X51350000Y-151700000D01*
%TO.C,RV2*%
X64361000Y-78560000D02*
X64361000Y-74694000D01*
X64361000Y-66440000D02*
X54440000Y-66440000D01*
X61075000Y-78560000D02*
X60225000Y-78560000D01*
X58575000Y-78560000D02*
X57725000Y-78560000D01*
X64361000Y-78560000D02*
X62725000Y-78560000D01*
X54440000Y-78560000D02*
X54440000Y-74694000D01*
X64361000Y-70305000D02*
X64361000Y-66440000D01*
X56075000Y-78560000D02*
X54440000Y-78560000D01*
X54440000Y-70305000D02*
X54440000Y-66440000D01*
X57102247Y-73928295D02*
G75*
G03*
X61698000Y-73928000I2297753J1928295D01*
G01*
X62162432Y-70828018D02*
G75*
G03*
X56638000Y-70827000I-2762432J-1171982D01*
G01*
%TO.C,D3*%
X60140000Y-45420000D02*
X60140000Y-45264000D01*
X60140000Y-47736000D02*
X60140000Y-47580000D01*
X60140000Y-47735516D02*
G75*
G03*
X63372335Y-47578608I1560000J1235517D01*
G01*
X62741130Y-45420163D02*
G75*
G03*
X60659039Y-45420000I-1041130J-1079837D01*
G01*
X63372335Y-45421392D02*
G75*
G03*
X60140000Y-45264484I-1672335J-1078609D01*
G01*
X60659039Y-47580000D02*
G75*
G03*
X62741130Y-47579837I1040961J1080000D01*
G01*
%TO.C,RV1*%
X54440000Y-52305000D02*
X54440000Y-48440000D01*
X58575000Y-60560000D02*
X57725000Y-60560000D01*
X56075000Y-60560000D02*
X54440000Y-60560000D01*
X61075000Y-60560000D02*
X60225000Y-60560000D01*
X64361000Y-60560000D02*
X62725000Y-60560000D01*
X54440000Y-60560000D02*
X54440000Y-56694000D01*
X64361000Y-52305000D02*
X64361000Y-48440000D01*
X64361000Y-48440000D02*
X54440000Y-48440000D01*
X64361000Y-60560000D02*
X64361000Y-56694000D01*
X62162432Y-52828018D02*
G75*
G03*
X56638000Y-52827000I-2762432J-1171982D01*
G01*
X57102247Y-55928295D02*
G75*
G03*
X61698000Y-55928000I2297753J1928295D01*
G01*
%TO.C,J5*%
X67450000Y-122700000D02*
X51350000Y-122700000D01*
X51350000Y-122700000D02*
X51350000Y-135900000D01*
X51350000Y-135900000D02*
X67450000Y-135900000D01*
X67450000Y-135900000D02*
X67450000Y-122700000D01*
%TD*%
D12*
%TO.C,J6*%
X53050000Y-140800000D03*
X65750000Y-140800000D03*
%TD*%
%TO.C,J5*%
X65750000Y-133600000D03*
X53050000Y-133600000D03*
%TD*%
M02*
