M48
; DRILL file {KiCad (6.0.11)} date Sat Mar 11 14:37:35 2023
; FORMAT={-:-/ absolute / inch / decimal}
; #@! TF.CreationDate,2023-03-11T14:37:35+00:00
; #@! TF.GenerationSoftware,Kicad,Pcbnew,(6.0.11)
; #@! TF.FileFunction,Plated,1,2,PTH
FMAT,2
INCH
; #@! TA.AperFunction,Plated,PTH,ViaDrill
T1C0.0157
; #@! TA.AperFunction,Plated,PTH,ComponentDrill
T2C0.0354
; #@! TA.AperFunction,Plated,PTH,ComponentDrill
T3C0.0394
%
G90
G05
T1
X2.4331Y-3.2953
X2.5276Y-3.4724
T2
X2.0591Y-1.7807
X2.0591Y-1.8807
X2.1941Y-1.8307
X2.1984Y-5.1248
X2.1988Y-5.5783
X2.239Y-5.2248
X2.239Y-5.6783
X2.2783Y-5.1248
X2.2787Y-5.5783
X2.2941Y-1.8307
X2.3185Y-5.2248
X2.3189Y-5.6783
X2.3583Y-5.1248
X2.3587Y-5.5783
X2.3791Y-1.8307
X2.3984Y-5.2248
X2.3988Y-5.6783
X2.4382Y-5.1248
X2.4382Y-5.5783
X2.4783Y-5.2248
X2.4787Y-5.6783
X2.4791Y-1.8307
X2.6142Y-1.7807
X2.6142Y-1.8807
T3
X2.0551Y-2.9291
X2.0551Y-3.0291
X2.0551Y-3.1291
X2.0551Y-3.2291
X2.0551Y-3.3291
X2.0551Y-3.4291
X2.1882Y-5.4016
X2.189Y-6.0118
X2.2402Y-2.4213
X2.2402Y-3.1299
X2.2402Y-3.878
X2.2402Y-4.626
X2.2882Y-5.4016
X2.289Y-6.0118
X2.3386Y-2.4213
X2.3386Y-3.1299
X2.3386Y-3.878
X2.3386Y-4.626
X2.3882Y-5.4016
X2.389Y-6.0118
X2.437Y-2.4213
X2.437Y-3.1299
X2.437Y-3.878
X2.437Y-4.626
X2.4882Y-5.4016
X2.489Y-6.0118
X2.622Y-2.9291
X2.622Y-3.0291
X2.622Y-3.1291
X2.622Y-3.2291
X2.622Y-3.3291
T0
M30
