%TF.GenerationSoftware,KiCad,Pcbnew,7.0.8*%
%TF.CreationDate,2023-10-17T17:14:39+01:00*%
%TF.ProjectId,QuadEnv_Components_3,51756164-456e-4765-9f43-6f6d706f6e65,rev?*%
%TF.SameCoordinates,Original*%
%TF.FileFunction,Paste,Top*%
%TF.FilePolarity,Positive*%
%FSLAX46Y46*%
G04 Gerber Fmt 4.6, Leading zero omitted, Abs format (unit mm)*
G04 Created by KiCad (PCBNEW 7.0.8) date 2023-10-17 17:14:39*
%MOMM*%
%LPD*%
G01*
G04 APERTURE LIST*
G04 Aperture macros list*
%AMRoundRect*
0 Rectangle with rounded corners*
0 $1 Rounding radius*
0 $2 $3 $4 $5 $6 $7 $8 $9 X,Y pos of 4 corners*
0 Add a 4 corners polygon primitive as box body*
4,1,4,$2,$3,$4,$5,$6,$7,$8,$9,$2,$3,0*
0 Add four circle primitives for the rounded corners*
1,1,$1+$1,$2,$3*
1,1,$1+$1,$4,$5*
1,1,$1+$1,$6,$7*
1,1,$1+$1,$8,$9*
0 Add four rect primitives between the rounded corners*
20,1,$1+$1,$2,$3,$4,$5,0*
20,1,$1+$1,$4,$5,$6,$7,0*
20,1,$1+$1,$6,$7,$8,$9,0*
20,1,$1+$1,$8,$9,$2,$3,0*%
G04 Aperture macros list end*
%ADD10RoundRect,0.200000X-0.200000X-0.275000X0.200000X-0.275000X0.200000X0.275000X-0.200000X0.275000X0*%
%ADD11R,0.600000X0.950000*%
%ADD12RoundRect,0.250000X-0.550000X1.050000X-0.550000X-1.050000X0.550000X-1.050000X0.550000X1.050000X0*%
%ADD13RoundRect,0.250000X0.550000X-1.050000X0.550000X1.050000X-0.550000X1.050000X-0.550000X-1.050000X0*%
%ADD14RoundRect,0.200000X0.275000X-0.200000X0.275000X0.200000X-0.275000X0.200000X-0.275000X-0.200000X0*%
%ADD15RoundRect,0.225000X0.250000X-0.225000X0.250000X0.225000X-0.250000X0.225000X-0.250000X-0.225000X0*%
%ADD16RoundRect,0.225000X-0.250000X0.225000X-0.250000X-0.225000X0.250000X-0.225000X0.250000X0.225000X0*%
%ADD17RoundRect,0.150000X-0.825000X-0.150000X0.825000X-0.150000X0.825000X0.150000X-0.825000X0.150000X0*%
%ADD18RoundRect,0.200000X0.200000X0.275000X-0.200000X0.275000X-0.200000X-0.275000X0.200000X-0.275000X0*%
%ADD19RoundRect,0.250000X0.275000X0.350000X-0.275000X0.350000X-0.275000X-0.350000X0.275000X-0.350000X0*%
%ADD20RoundRect,0.200000X-0.275000X0.200000X-0.275000X-0.200000X0.275000X-0.200000X0.275000X0.200000X0*%
%ADD21RoundRect,0.225000X-0.225000X-0.375000X0.225000X-0.375000X0.225000X0.375000X-0.225000X0.375000X0*%
%ADD22R,1.500000X2.000000*%
%ADD23R,3.800000X2.000000*%
%ADD24R,1.350000X0.400000*%
%ADD25RoundRect,0.225000X-0.225000X-0.250000X0.225000X-0.250000X0.225000X0.250000X-0.225000X0.250000X0*%
%ADD26RoundRect,0.100000X-0.637500X-0.100000X0.637500X-0.100000X0.637500X0.100000X-0.637500X0.100000X0*%
%ADD27RoundRect,0.075000X-0.662500X-0.075000X0.662500X-0.075000X0.662500X0.075000X-0.662500X0.075000X0*%
%ADD28RoundRect,0.075000X-0.075000X-0.662500X0.075000X-0.662500X0.075000X0.662500X-0.075000X0.662500X0*%
%ADD29RoundRect,0.225000X0.225000X0.250000X-0.225000X0.250000X-0.225000X-0.250000X0.225000X-0.250000X0*%
G04 APERTURE END LIST*
D10*
%TO.C,R22*%
X64975000Y-127500000D03*
X66625000Y-127500000D03*
%TD*%
D11*
%TO.C,U5*%
X60250000Y-129175000D03*
X59300000Y-129175000D03*
X58350000Y-129175000D03*
X58350000Y-131425000D03*
X59300000Y-131425000D03*
X60250000Y-131425000D03*
%TD*%
D12*
%TO.C,C4*%
X52800000Y-62800000D03*
X52800000Y-66400000D03*
%TD*%
D13*
%TO.C,C5*%
X65800000Y-66400000D03*
X65800000Y-62800000D03*
%TD*%
D14*
%TO.C,R3*%
X63000000Y-82625000D03*
X63000000Y-80975000D03*
%TD*%
D15*
%TO.C,C11*%
X57800000Y-111075000D03*
X57800000Y-109525000D03*
%TD*%
D10*
%TO.C,R16*%
X64975000Y-118500000D03*
X66625000Y-118500000D03*
%TD*%
D16*
%TO.C,C7*%
X61000000Y-109525000D03*
X61000000Y-111075000D03*
%TD*%
D17*
%TO.C,U4*%
X56925000Y-118290000D03*
X56925000Y-119560000D03*
X56925000Y-120830000D03*
X56925000Y-122100000D03*
X56925000Y-123370000D03*
X56925000Y-124640000D03*
X56925000Y-125910000D03*
X61875000Y-125910000D03*
X61875000Y-124640000D03*
X61875000Y-123370000D03*
X61875000Y-122100000D03*
X61875000Y-120830000D03*
X61875000Y-119560000D03*
X61875000Y-118290000D03*
%TD*%
D14*
%TO.C,R4*%
X61200000Y-82625000D03*
X61200000Y-80975000D03*
%TD*%
D18*
%TO.C,R9*%
X53825000Y-120300000D03*
X52175000Y-120300000D03*
%TD*%
D19*
%TO.C,L1*%
X53950000Y-70800000D03*
X51650000Y-70800000D03*
%TD*%
D12*
%TO.C,C8*%
X59400000Y-70800000D03*
X59400000Y-74400000D03*
%TD*%
D18*
%TO.C,R17*%
X53825000Y-116700000D03*
X52175000Y-116700000D03*
%TD*%
D20*
%TO.C,R5*%
X58100000Y-94375000D03*
X58100000Y-96025000D03*
%TD*%
D15*
%TO.C,C3*%
X66200000Y-99575000D03*
X66200000Y-98025000D03*
%TD*%
D10*
%TO.C,R24*%
X64975000Y-114900000D03*
X66625000Y-114900000D03*
%TD*%
%TO.C,R11*%
X64975000Y-123900000D03*
X66625000Y-123900000D03*
%TD*%
D15*
%TO.C,C12*%
X59400000Y-111075000D03*
X59400000Y-109525000D03*
%TD*%
D21*
%TO.C,D1*%
X51150000Y-58600000D03*
X54450000Y-58600000D03*
%TD*%
D10*
%TO.C,R12*%
X64975000Y-120300000D03*
X66625000Y-120300000D03*
%TD*%
D21*
%TO.C,D2*%
X64350000Y-58600000D03*
X67650000Y-58600000D03*
%TD*%
D20*
%TO.C,R6*%
X55800000Y-80975000D03*
X55800000Y-82625000D03*
%TD*%
D18*
%TO.C,R10*%
X53825000Y-123900000D03*
X52175000Y-123900000D03*
%TD*%
D22*
%TO.C,U2*%
X61700000Y-60250000D03*
X59400000Y-60250000D03*
D23*
X59400000Y-66550000D03*
D22*
X57100000Y-60250000D03*
%TD*%
D18*
%TO.C,R18*%
X53825000Y-114900000D03*
X52175000Y-114900000D03*
%TD*%
D16*
%TO.C,C1*%
X66200000Y-101425000D03*
X66200000Y-102975000D03*
%TD*%
D20*
%TO.C,R1*%
X57600000Y-80975000D03*
X57600000Y-82625000D03*
%TD*%
D24*
%TO.C,J7*%
X55485000Y-143900000D03*
X55485000Y-144550000D03*
X55485000Y-145200000D03*
X55485000Y-145850000D03*
X55485000Y-146500000D03*
%TD*%
D25*
%TO.C,C9*%
X52225000Y-122100000D03*
X53775000Y-122100000D03*
%TD*%
D15*
%TO.C,C6*%
X56500000Y-95975000D03*
X56500000Y-94425000D03*
%TD*%
D26*
%TO.C,U3*%
X56537500Y-85525000D03*
X56537500Y-86175000D03*
X56537500Y-86825000D03*
X56537500Y-87475000D03*
X56537500Y-88125000D03*
X56537500Y-88775000D03*
X56537500Y-89425000D03*
X56537500Y-90075000D03*
X62262500Y-90075000D03*
X62262500Y-89425000D03*
X62262500Y-88775000D03*
X62262500Y-88125000D03*
X62262500Y-87475000D03*
X62262500Y-86825000D03*
X62262500Y-86175000D03*
X62262500Y-85525000D03*
%TD*%
D10*
%TO.C,R13*%
X52175000Y-118500000D03*
X53825000Y-118500000D03*
%TD*%
D16*
%TO.C,C2*%
X64200000Y-109525000D03*
X64200000Y-111075000D03*
%TD*%
D18*
%TO.C,R14*%
X53825000Y-125700000D03*
X52175000Y-125700000D03*
%TD*%
%TO.C,R19*%
X53825000Y-129300000D03*
X52175000Y-129300000D03*
%TD*%
D27*
%TO.C,U1*%
X55237500Y-99850000D03*
X55237500Y-100350000D03*
X55237500Y-100850000D03*
X55237500Y-101350000D03*
X55237500Y-101850000D03*
X55237500Y-102350000D03*
X55237500Y-102850000D03*
X55237500Y-103350000D03*
X55237500Y-103850000D03*
X55237500Y-104350000D03*
X55237500Y-104850000D03*
X55237500Y-105350000D03*
D28*
X56650000Y-106762500D03*
X57150000Y-106762500D03*
X57650000Y-106762500D03*
X58150000Y-106762500D03*
X58650000Y-106762500D03*
X59150000Y-106762500D03*
X59650000Y-106762500D03*
X60150000Y-106762500D03*
X60650000Y-106762500D03*
X61150000Y-106762500D03*
X61650000Y-106762500D03*
X62150000Y-106762500D03*
D27*
X63562500Y-105350000D03*
X63562500Y-104850000D03*
X63562500Y-104350000D03*
X63562500Y-103850000D03*
X63562500Y-103350000D03*
X63562500Y-102850000D03*
X63562500Y-102350000D03*
X63562500Y-101850000D03*
X63562500Y-101350000D03*
X63562500Y-100850000D03*
X63562500Y-100350000D03*
X63562500Y-99850000D03*
D28*
X62150000Y-98437500D03*
X61650000Y-98437500D03*
X61150000Y-98437500D03*
X60650000Y-98437500D03*
X60150000Y-98437500D03*
X59650000Y-98437500D03*
X59150000Y-98437500D03*
X58650000Y-98437500D03*
X58150000Y-98437500D03*
X57650000Y-98437500D03*
X57150000Y-98437500D03*
X56650000Y-98437500D03*
%TD*%
D20*
%TO.C,R2*%
X59400000Y-80975000D03*
X59400000Y-82625000D03*
%TD*%
D10*
%TO.C,R23*%
X64975000Y-116700000D03*
X66625000Y-116700000D03*
%TD*%
D18*
%TO.C,R20*%
X53825000Y-127500000D03*
X52175000Y-127500000D03*
%TD*%
D10*
%TO.C,R21*%
X64975000Y-129300000D03*
X66625000Y-129300000D03*
%TD*%
D29*
%TO.C,C10*%
X66575000Y-122100000D03*
X65025000Y-122100000D03*
%TD*%
D15*
%TO.C,C13*%
X62600000Y-111075000D03*
X62600000Y-109525000D03*
%TD*%
D10*
%TO.C,R15*%
X64975000Y-125700000D03*
X66625000Y-125700000D03*
%TD*%
M02*
