%TF.GenerationSoftware,KiCad,Pcbnew,7.0.8*%
%TF.CreationDate,2023-10-17T17:14:39+01:00*%
%TF.ProjectId,QuadEnv_Components_3,51756164-456e-4765-9f43-6f6d706f6e65,rev?*%
%TF.SameCoordinates,Original*%
%TF.FileFunction,Copper,L1,Top*%
%TF.FilePolarity,Positive*%
%FSLAX46Y46*%
G04 Gerber Fmt 4.6, Leading zero omitted, Abs format (unit mm)*
G04 Created by KiCad (PCBNEW 7.0.8) date 2023-10-17 17:14:39*
%MOMM*%
%LPD*%
G01*
G04 APERTURE LIST*
G04 Aperture macros list*
%AMRoundRect*
0 Rectangle with rounded corners*
0 $1 Rounding radius*
0 $2 $3 $4 $5 $6 $7 $8 $9 X,Y pos of 4 corners*
0 Add a 4 corners polygon primitive as box body*
4,1,4,$2,$3,$4,$5,$6,$7,$8,$9,$2,$3,0*
0 Add four circle primitives for the rounded corners*
1,1,$1+$1,$2,$3*
1,1,$1+$1,$4,$5*
1,1,$1+$1,$6,$7*
1,1,$1+$1,$8,$9*
0 Add four rect primitives between the rounded corners*
20,1,$1+$1,$2,$3,$4,$5,0*
20,1,$1+$1,$4,$5,$6,$7,0*
20,1,$1+$1,$6,$7,$8,$9,0*
20,1,$1+$1,$8,$9,$2,$3,0*%
G04 Aperture macros list end*
%TA.AperFunction,SMDPad,CuDef*%
%ADD10RoundRect,0.200000X-0.200000X-0.275000X0.200000X-0.275000X0.200000X0.275000X-0.200000X0.275000X0*%
%TD*%
%TA.AperFunction,SMDPad,CuDef*%
%ADD11R,0.600000X0.950000*%
%TD*%
%TA.AperFunction,SMDPad,CuDef*%
%ADD12RoundRect,0.250000X-0.550000X1.050000X-0.550000X-1.050000X0.550000X-1.050000X0.550000X1.050000X0*%
%TD*%
%TA.AperFunction,SMDPad,CuDef*%
%ADD13RoundRect,0.250000X0.550000X-1.050000X0.550000X1.050000X-0.550000X1.050000X-0.550000X-1.050000X0*%
%TD*%
%TA.AperFunction,SMDPad,CuDef*%
%ADD14RoundRect,0.200000X0.275000X-0.200000X0.275000X0.200000X-0.275000X0.200000X-0.275000X-0.200000X0*%
%TD*%
%TA.AperFunction,SMDPad,CuDef*%
%ADD15RoundRect,0.225000X0.250000X-0.225000X0.250000X0.225000X-0.250000X0.225000X-0.250000X-0.225000X0*%
%TD*%
%TA.AperFunction,SMDPad,CuDef*%
%ADD16RoundRect,0.225000X-0.250000X0.225000X-0.250000X-0.225000X0.250000X-0.225000X0.250000X0.225000X0*%
%TD*%
%TA.AperFunction,SMDPad,CuDef*%
%ADD17RoundRect,0.150000X-0.825000X-0.150000X0.825000X-0.150000X0.825000X0.150000X-0.825000X0.150000X0*%
%TD*%
%TA.AperFunction,SMDPad,CuDef*%
%ADD18RoundRect,0.200000X0.200000X0.275000X-0.200000X0.275000X-0.200000X-0.275000X0.200000X-0.275000X0*%
%TD*%
%TA.AperFunction,ComponentPad*%
%ADD19C,1.700000*%
%TD*%
%TA.AperFunction,SMDPad,CuDef*%
%ADD20RoundRect,0.250000X0.275000X0.350000X-0.275000X0.350000X-0.275000X-0.350000X0.275000X-0.350000X0*%
%TD*%
%TA.AperFunction,SMDPad,CuDef*%
%ADD21RoundRect,0.200000X-0.275000X0.200000X-0.275000X-0.200000X0.275000X-0.200000X0.275000X0.200000X0*%
%TD*%
%TA.AperFunction,SMDPad,CuDef*%
%ADD22RoundRect,0.225000X-0.225000X-0.375000X0.225000X-0.375000X0.225000X0.375000X-0.225000X0.375000X0*%
%TD*%
%TA.AperFunction,SMDPad,CuDef*%
%ADD23R,1.500000X2.000000*%
%TD*%
%TA.AperFunction,SMDPad,CuDef*%
%ADD24R,3.800000X2.000000*%
%TD*%
%TA.AperFunction,ComponentPad*%
%ADD25R,1.700000X1.700000*%
%TD*%
%TA.AperFunction,ComponentPad*%
%ADD26O,1.700000X1.700000*%
%TD*%
%TA.AperFunction,ComponentPad*%
%ADD27O,0.950000X1.250000*%
%TD*%
%TA.AperFunction,ComponentPad*%
%ADD28O,1.550000X1.000000*%
%TD*%
%TA.AperFunction,SMDPad,CuDef*%
%ADD29R,1.350000X0.400000*%
%TD*%
%TA.AperFunction,SMDPad,CuDef*%
%ADD30RoundRect,0.225000X-0.225000X-0.250000X0.225000X-0.250000X0.225000X0.250000X-0.225000X0.250000X0*%
%TD*%
%TA.AperFunction,SMDPad,CuDef*%
%ADD31RoundRect,0.100000X-0.637500X-0.100000X0.637500X-0.100000X0.637500X0.100000X-0.637500X0.100000X0*%
%TD*%
%TA.AperFunction,SMDPad,CuDef*%
%ADD32RoundRect,0.075000X-0.662500X-0.075000X0.662500X-0.075000X0.662500X0.075000X-0.662500X0.075000X0*%
%TD*%
%TA.AperFunction,SMDPad,CuDef*%
%ADD33RoundRect,0.075000X-0.075000X-0.662500X0.075000X-0.662500X0.075000X0.662500X-0.075000X0.662500X0*%
%TD*%
%TA.AperFunction,SMDPad,CuDef*%
%ADD34RoundRect,0.225000X0.225000X0.250000X-0.225000X0.250000X-0.225000X-0.250000X0.225000X-0.250000X0*%
%TD*%
%TA.AperFunction,ViaPad*%
%ADD35C,0.800000*%
%TD*%
%TA.AperFunction,ViaPad*%
%ADD36C,1.000000*%
%TD*%
%TA.AperFunction,Conductor*%
%ADD37C,0.250000*%
%TD*%
%TA.AperFunction,Conductor*%
%ADD38C,0.350000*%
%TD*%
%TA.AperFunction,Conductor*%
%ADD39C,0.200000*%
%TD*%
G04 APERTURE END LIST*
D10*
%TO.P,R22,1*%
%TO.N,Net-(R15-Pad1)*%
X64975000Y-127500000D03*
%TO.P,R22,2*%
%TO.N,/Env3_Out*%
X66625000Y-127500000D03*
%TD*%
D11*
%TO.P,U5,1,VBUS*%
%TO.N,unconnected-(U5-VBUS-Pad1)*%
X60250000Y-129175000D03*
%TO.P,U5,2,D1_OUT*%
%TO.N,/USB_DP*%
X59300000Y-129175000D03*
%TO.P,U5,3,D2_OUT*%
%TO.N,/USB_DM*%
X58350000Y-129175000D03*
%TO.P,U5,4,D2_IN*%
%TO.N,/D-*%
X58350000Y-131425000D03*
%TO.P,U5,5,D1_IN*%
%TO.N,/D+*%
X59300000Y-131425000D03*
%TO.P,U5,6,GND*%
%TO.N,GND*%
X60250000Y-131425000D03*
%TD*%
D12*
%TO.P,C4,1*%
%TO.N,+12V*%
X52800000Y-62800000D03*
%TO.P,C4,2*%
%TO.N,GND*%
X52800000Y-66400000D03*
%TD*%
D13*
%TO.P,C5,1*%
%TO.N,GND*%
X65800000Y-66400000D03*
%TO.P,C5,2*%
%TO.N,-12V*%
X65800000Y-62800000D03*
%TD*%
D14*
%TO.P,R3,1*%
%TO.N,Net-(U3-D)*%
X63000000Y-82625000D03*
%TO.P,R3,2*%
%TO.N,/Gate4_In*%
X63000000Y-80975000D03*
%TD*%
D15*
%TO.P,C11,1*%
%TO.N,GND*%
X57800000Y-111075000D03*
%TO.P,C11,2*%
%TO.N,+3.3VA*%
X57800000Y-109525000D03*
%TD*%
D10*
%TO.P,R16,1*%
%TO.N,Net-(R16-Pad1)*%
X64975000Y-118500000D03*
%TO.P,R16,2*%
%TO.N,Net-(U4D--)*%
X66625000Y-118500000D03*
%TD*%
D16*
%TO.P,C7,1*%
%TO.N,+3.3VA*%
X61000000Y-109525000D03*
%TO.P,C7,2*%
%TO.N,GND*%
X61000000Y-111075000D03*
%TD*%
D17*
%TO.P,U4,1*%
%TO.N,Net-(R13-Pad1)*%
X56925000Y-118290000D03*
%TO.P,U4,2,-*%
%TO.N,Net-(U4A--)*%
X56925000Y-119560000D03*
%TO.P,U4,3,+*%
%TO.N,/Env1_DAC*%
X56925000Y-120830000D03*
%TO.P,U4,4,V+*%
%TO.N,+12V*%
X56925000Y-122100000D03*
%TO.P,U4,5,+*%
%TO.N,/Env2_DAC*%
X56925000Y-123370000D03*
%TO.P,U4,6,-*%
%TO.N,Net-(U4B--)*%
X56925000Y-124640000D03*
%TO.P,U4,7*%
%TO.N,Net-(R14-Pad1)*%
X56925000Y-125910000D03*
%TO.P,U4,8*%
%TO.N,Net-(R15-Pad1)*%
X61875000Y-125910000D03*
%TO.P,U4,9,-*%
%TO.N,Net-(U4C--)*%
X61875000Y-124640000D03*
%TO.P,U4,10,+*%
%TO.N,/Env3_DAC*%
X61875000Y-123370000D03*
%TO.P,U4,11,V-*%
%TO.N,-12V*%
X61875000Y-122100000D03*
%TO.P,U4,12,+*%
%TO.N,/Env4_DAC*%
X61875000Y-120830000D03*
%TO.P,U4,13,-*%
%TO.N,Net-(U4D--)*%
X61875000Y-119560000D03*
%TO.P,U4,14*%
%TO.N,Net-(R16-Pad1)*%
X61875000Y-118290000D03*
%TD*%
D14*
%TO.P,R4,1*%
%TO.N,Net-(U3-C)*%
X61200000Y-82625000D03*
%TO.P,R4,2*%
%TO.N,/Gate3_In*%
X61200000Y-80975000D03*
%TD*%
D18*
%TO.P,R9,1*%
%TO.N,Net-(U4A--)*%
X53825000Y-120300000D03*
%TO.P,R9,2*%
%TO.N,GND*%
X52175000Y-120300000D03*
%TD*%
D19*
%TO.P,TP5,1,1*%
%TO.N,GND*%
X52400000Y-107400000D03*
%TD*%
D20*
%TO.P,L1,1*%
%TO.N,+3.3V*%
X53950000Y-70800000D03*
%TO.P,L1,2*%
%TO.N,+3.3VA*%
X51650000Y-70800000D03*
%TD*%
D12*
%TO.P,C8,1*%
%TO.N,+3.3V*%
X59400000Y-70800000D03*
%TO.P,C8,2*%
%TO.N,GND*%
X59400000Y-74400000D03*
%TD*%
D18*
%TO.P,R17,1*%
%TO.N,/LED1*%
X53825000Y-116700000D03*
%TO.P,R17,2*%
%TO.N,/Led1_Out*%
X52175000Y-116700000D03*
%TD*%
D21*
%TO.P,R5,1*%
%TO.N,GND*%
X58100000Y-94375000D03*
%TO.P,R5,2*%
%TO.N,/BOOT0*%
X58100000Y-96025000D03*
%TD*%
D15*
%TO.P,C3,1*%
%TO.N,+3.3V*%
X66200000Y-99575000D03*
%TO.P,C3,2*%
%TO.N,GND*%
X66200000Y-98025000D03*
%TD*%
D10*
%TO.P,R24,1*%
%TO.N,Net-(R16-Pad1)*%
X64975000Y-114900000D03*
%TO.P,R24,2*%
%TO.N,/Env4_Out*%
X66625000Y-114900000D03*
%TD*%
%TO.P,R11,1*%
%TO.N,Net-(U4C--)*%
X64975000Y-123900000D03*
%TO.P,R11,2*%
%TO.N,GND*%
X66625000Y-123900000D03*
%TD*%
D15*
%TO.P,C12,1*%
%TO.N,GND*%
X59400000Y-111075000D03*
%TO.P,C12,2*%
%TO.N,+3.3VA*%
X59400000Y-109525000D03*
%TD*%
D22*
%TO.P,D1,1,K*%
%TO.N,+12V*%
X51150000Y-58600000D03*
%TO.P,D1,2,A*%
%TO.N,/+12V_IN*%
X54450000Y-58600000D03*
%TD*%
D10*
%TO.P,R12,1*%
%TO.N,Net-(U4D--)*%
X64975000Y-120300000D03*
%TO.P,R12,2*%
%TO.N,GND*%
X66625000Y-120300000D03*
%TD*%
D22*
%TO.P,D2,1,K*%
%TO.N,/-12V_IN*%
X64350000Y-58600000D03*
%TO.P,D2,2,A*%
%TO.N,-12V*%
X67650000Y-58600000D03*
%TD*%
D21*
%TO.P,R6,1*%
%TO.N,/Mode_Led*%
X55800000Y-80975000D03*
%TO.P,R6,2*%
%TO.N,Net-(U1-PC13)*%
X55800000Y-82625000D03*
%TD*%
D19*
%TO.P,TP3,1,1*%
%TO.N,+12V*%
X52400000Y-112400000D03*
%TD*%
D18*
%TO.P,R10,1*%
%TO.N,Net-(U4B--)*%
X53825000Y-123900000D03*
%TO.P,R10,2*%
%TO.N,GND*%
X52175000Y-123900000D03*
%TD*%
D23*
%TO.P,U2,1,GND*%
%TO.N,GND*%
X61700000Y-60250000D03*
%TO.P,U2,2,VO*%
%TO.N,+3.3V*%
X59400000Y-60250000D03*
D24*
X59400000Y-66550000D03*
D23*
%TO.P,U2,3,VI*%
%TO.N,+12V*%
X57100000Y-60250000D03*
%TD*%
D18*
%TO.P,R18,1*%
%TO.N,Net-(R13-Pad1)*%
X53825000Y-114900000D03*
%TO.P,R18,2*%
%TO.N,/Env1_Out*%
X52175000Y-114900000D03*
%TD*%
D25*
%TO.P,J6,1,Pin_1*%
%TO.N,/-12V_IN*%
X64480000Y-52660000D03*
D26*
%TO.P,J6,2,Pin_2*%
X64480000Y-55200000D03*
%TO.P,J6,3,Pin_3*%
%TO.N,GND*%
X61940000Y-52660000D03*
%TO.P,J6,4,Pin_4*%
X61940000Y-55200000D03*
%TO.P,J6,5,Pin_5*%
X59400000Y-52660000D03*
%TO.P,J6,6,Pin_6*%
X59400000Y-55200000D03*
%TO.P,J6,7,Pin_7*%
X56860000Y-52660000D03*
%TO.P,J6,8,Pin_8*%
X56860000Y-55200000D03*
%TO.P,J6,9,Pin_9*%
%TO.N,/+12V_IN*%
X54320000Y-52660000D03*
%TO.P,J6,10,Pin_10*%
X54320000Y-55200000D03*
%TD*%
D16*
%TO.P,C1,1*%
%TO.N,+3.3V*%
X66200000Y-101425000D03*
%TO.P,C1,2*%
%TO.N,GND*%
X66200000Y-102975000D03*
%TD*%
D21*
%TO.P,R1,1*%
%TO.N,/Gate1_In*%
X57600000Y-80975000D03*
%TO.P,R1,2*%
%TO.N,Net-(U3-A)*%
X57600000Y-82625000D03*
%TD*%
D27*
%TO.P,J7,*%
%TO.N,*%
X55485000Y-142700000D03*
X55485000Y-147700000D03*
D28*
X52785000Y-148700000D03*
D29*
%TO.P,J7,1,VBUS*%
%TO.N,unconnected-(J7-VBUS-Pad1)*%
X55485000Y-143900000D03*
%TO.P,J7,2,D-*%
%TO.N,/D-*%
X55485000Y-144550000D03*
%TO.P,J7,3,D+*%
%TO.N,/D+*%
X55485000Y-145200000D03*
%TO.P,J7,4,ID*%
%TO.N,unconnected-(J7-ID-Pad4)*%
X55485000Y-145850000D03*
%TO.P,J7,5,GND*%
%TO.N,GND*%
X55485000Y-146500000D03*
D28*
%TO.P,J7,6,Shield*%
%TO.N,unconnected-(J7-Shield-Pad6)*%
X52785000Y-141700000D03*
%TD*%
D30*
%TO.P,C9,1*%
%TO.N,GND*%
X52225000Y-122100000D03*
%TO.P,C9,2*%
%TO.N,+12V*%
X53775000Y-122100000D03*
%TD*%
D15*
%TO.P,C6,1*%
%TO.N,+3.3V*%
X56500000Y-95975000D03*
%TO.P,C6,2*%
%TO.N,GND*%
X56500000Y-94425000D03*
%TD*%
D31*
%TO.P,U3,1,Vcc*%
%TO.N,+3.3V*%
X56537500Y-85525000D03*
%TO.P,U3,2,EN_A*%
X56537500Y-86175000D03*
%TO.P,U3,3,A*%
%TO.N,Net-(U3-A)*%
X56537500Y-86825000D03*
%TO.P,U3,4,E*%
%TO.N,/Gate1*%
X56537500Y-87475000D03*
%TO.P,U3,5,F*%
%TO.N,/Gate2*%
X56537500Y-88125000D03*
%TO.P,U3,6,B*%
%TO.N,Net-(U3-B)*%
X56537500Y-88775000D03*
%TO.P,U3,7,EN_B*%
%TO.N,+3.3V*%
X56537500Y-89425000D03*
%TO.P,U3,8,Vss*%
%TO.N,GND*%
X56537500Y-90075000D03*
%TO.P,U3,9,EN_C*%
%TO.N,+3.3V*%
X62262500Y-90075000D03*
%TO.P,U3,10,C*%
%TO.N,Net-(U3-C)*%
X62262500Y-89425000D03*
%TO.P,U3,11,G*%
%TO.N,/Gate3*%
X62262500Y-88775000D03*
%TO.P,U3,12,NC*%
%TO.N,unconnected-(U3-NC-Pad12)*%
X62262500Y-88125000D03*
%TO.P,U3,13,H*%
%TO.N,/Gate4*%
X62262500Y-87475000D03*
%TO.P,U3,14,D*%
%TO.N,Net-(U3-D)*%
X62262500Y-86825000D03*
%TO.P,U3,15,EN_D*%
%TO.N,+3.3V*%
X62262500Y-86175000D03*
%TO.P,U3,16,Vdd*%
X62262500Y-85525000D03*
%TD*%
D10*
%TO.P,R13,1*%
%TO.N,Net-(R13-Pad1)*%
X52175000Y-118500000D03*
%TO.P,R13,2*%
%TO.N,Net-(U4A--)*%
X53825000Y-118500000D03*
%TD*%
D16*
%TO.P,C2,1*%
%TO.N,+3.3V*%
X64200000Y-109525000D03*
%TO.P,C2,2*%
%TO.N,GND*%
X64200000Y-111075000D03*
%TD*%
D18*
%TO.P,R14,1*%
%TO.N,Net-(R14-Pad1)*%
X53825000Y-125700000D03*
%TO.P,R14,2*%
%TO.N,Net-(U4B--)*%
X52175000Y-125700000D03*
%TD*%
%TO.P,R19,1*%
%TO.N,/LED2*%
X53825000Y-129300000D03*
%TO.P,R19,2*%
%TO.N,/Led2_Out*%
X52175000Y-129300000D03*
%TD*%
D25*
%TO.P,J5,1,Pin_1*%
%TO.N,+3.3V*%
X66600000Y-95610000D03*
D19*
%TO.P,J5,2,Pin_2*%
%TO.N,GND*%
X66600000Y-93070000D03*
%TO.P,J5,3,Pin_3*%
%TO.N,/SWIO*%
X66600000Y-90530000D03*
%TO.P,J5,4,Pin_4*%
%TO.N,/SWCLK*%
X66600000Y-87990000D03*
%TD*%
D32*
%TO.P,U1,1,VBAT*%
%TO.N,+3.3V*%
X55237500Y-99850000D03*
%TO.P,U1,2,PC13*%
%TO.N,Net-(U1-PC13)*%
X55237500Y-100350000D03*
%TO.P,U1,3,PC14-OSC32_IN*%
%TO.N,unconnected-(U1-PC14-OSC32_IN-Pad3)*%
X55237500Y-100850000D03*
%TO.P,U1,4,PC15-OSC32_OUT*%
%TO.N,unconnected-(U1-PC15-OSC32_OUT-Pad4)*%
X55237500Y-101350000D03*
%TO.P,U1,5,PF0-OSC_IN*%
%TO.N,/Mode_Btn*%
X55237500Y-101850000D03*
%TO.P,U1,6,PF1-OSC_OUT*%
%TO.N,unconnected-(U1-PF1-OSC_OUT-Pad6)*%
X55237500Y-102350000D03*
%TO.P,U1,7,PG10-NRST*%
%TO.N,unconnected-(U1-PG10-NRST-Pad7)*%
X55237500Y-102850000D03*
%TO.P,U1,8,PA0*%
%TO.N,/Attack_Pot*%
X55237500Y-103350000D03*
%TO.P,U1,9,PA1*%
%TO.N,/Decay_Pot*%
X55237500Y-103850000D03*
%TO.P,U1,10,PA2*%
%TO.N,/Env4_DAC*%
X55237500Y-104350000D03*
%TO.P,U1,11,PA3*%
%TO.N,/Release_Pot*%
X55237500Y-104850000D03*
%TO.P,U1,12,PA4*%
%TO.N,/Env1_DAC*%
X55237500Y-105350000D03*
D33*
%TO.P,U1,13,PA5*%
%TO.N,/Env2_DAC*%
X56650000Y-106762500D03*
%TO.P,U1,14,PA6*%
%TO.N,/LED1*%
X57150000Y-106762500D03*
%TO.P,U1,15,PA7*%
%TO.N,/LED2*%
X57650000Y-106762500D03*
%TO.P,U1,16,PB0*%
%TO.N,/Sustain_Pot*%
X58150000Y-106762500D03*
%TO.P,U1,17,PB1*%
%TO.N,/Env3_DAC*%
X58650000Y-106762500D03*
%TO.P,U1,18,PB2*%
%TO.N,unconnected-(U1-PB2-Pad18)*%
X59150000Y-106762500D03*
%TO.P,U1,19,VSSA*%
%TO.N,GND*%
X59650000Y-106762500D03*
%TO.P,U1,20,VREF+*%
%TO.N,+3.3VA*%
X60150000Y-106762500D03*
%TO.P,U1,21,VDDA*%
X60650000Y-106762500D03*
%TO.P,U1,22,PB10*%
%TO.N,unconnected-(U1-PB10-Pad22)*%
X61150000Y-106762500D03*
%TO.P,U1,23,VSS*%
%TO.N,GND*%
X61650000Y-106762500D03*
%TO.P,U1,24,VDD*%
%TO.N,+3.3V*%
X62150000Y-106762500D03*
D32*
%TO.P,U1,25,PB11*%
%TO.N,/LED4*%
X63562500Y-105350000D03*
%TO.P,U1,26,PB12*%
%TO.N,unconnected-(U1-PB12-Pad26)*%
X63562500Y-104850000D03*
%TO.P,U1,27,PB13*%
%TO.N,unconnected-(U1-PB13-Pad27)*%
X63562500Y-104350000D03*
%TO.P,U1,28,PB14*%
%TO.N,unconnected-(U1-PB14-Pad28)*%
X63562500Y-103850000D03*
%TO.P,U1,29,PB15*%
%TO.N,unconnected-(U1-PB15-Pad29)*%
X63562500Y-103350000D03*
%TO.P,U1,30,PA8*%
%TO.N,unconnected-(U1-PA8-Pad30)*%
X63562500Y-102850000D03*
%TO.P,U1,31,PA9*%
%TO.N,/LED3*%
X63562500Y-102350000D03*
%TO.P,U1,32,PA10*%
%TO.N,unconnected-(U1-PA10-Pad32)*%
X63562500Y-101850000D03*
%TO.P,U1,33,PA11*%
%TO.N,/USB_DM*%
X63562500Y-101350000D03*
%TO.P,U1,34,PA12*%
%TO.N,/USB_DP*%
X63562500Y-100850000D03*
%TO.P,U1,35,VSS*%
%TO.N,GND*%
X63562500Y-100350000D03*
%TO.P,U1,36,VDD*%
%TO.N,+3.3V*%
X63562500Y-99850000D03*
D33*
%TO.P,U1,37,PA13*%
%TO.N,/SWIO*%
X62150000Y-98437500D03*
%TO.P,U1,38,PA14*%
%TO.N,/SWCLK*%
X61650000Y-98437500D03*
%TO.P,U1,39,PA15*%
%TO.N,unconnected-(U1-PA15-Pad39)*%
X61150000Y-98437500D03*
%TO.P,U1,40,PB3*%
%TO.N,/Gate4*%
X60650000Y-98437500D03*
%TO.P,U1,41,PB4*%
%TO.N,/Gate3*%
X60150000Y-98437500D03*
%TO.P,U1,42,PB5*%
%TO.N,/Gate2*%
X59650000Y-98437500D03*
%TO.P,U1,43,PB6*%
%TO.N,/Gate1*%
X59150000Y-98437500D03*
%TO.P,U1,44,PB7*%
%TO.N,unconnected-(U1-PB7-Pad44)*%
X58650000Y-98437500D03*
%TO.P,U1,45,PB8-BOOT0*%
%TO.N,/BOOT0*%
X58150000Y-98437500D03*
%TO.P,U1,46,PB9*%
%TO.N,unconnected-(U1-PB9-Pad46)*%
X57650000Y-98437500D03*
%TO.P,U1,47,VSS*%
%TO.N,GND*%
X57150000Y-98437500D03*
%TO.P,U1,48,VDD*%
%TO.N,+3.3V*%
X56650000Y-98437500D03*
%TD*%
D19*
%TO.P,TP2,1,1*%
%TO.N,+3.3V*%
X66400000Y-107400000D03*
%TD*%
D21*
%TO.P,R2,1*%
%TO.N,/Gate2_In*%
X59400000Y-80975000D03*
%TO.P,R2,2*%
%TO.N,Net-(U3-B)*%
X59400000Y-82625000D03*
%TD*%
D10*
%TO.P,R23,1*%
%TO.N,/LED4*%
X64975000Y-116700000D03*
%TO.P,R23,2*%
%TO.N,/Led4_Out*%
X66625000Y-116700000D03*
%TD*%
D18*
%TO.P,R20,1*%
%TO.N,Net-(R14-Pad1)*%
X53825000Y-127500000D03*
%TO.P,R20,2*%
%TO.N,/Env2_Out*%
X52175000Y-127500000D03*
%TD*%
D10*
%TO.P,R21,1*%
%TO.N,/LED3*%
X64975000Y-129300000D03*
%TO.P,R21,2*%
%TO.N,/Led3_Out*%
X66625000Y-129300000D03*
%TD*%
D19*
%TO.P,TP1,1,1*%
%TO.N,GND*%
X64200000Y-70600000D03*
%TD*%
D34*
%TO.P,C10,1*%
%TO.N,GND*%
X66575000Y-122100000D03*
%TO.P,C10,2*%
%TO.N,-12V*%
X65025000Y-122100000D03*
%TD*%
D19*
%TO.P,TP4,1,1*%
%TO.N,-12V*%
X66400000Y-112400000D03*
%TD*%
D15*
%TO.P,C13,1*%
%TO.N,GND*%
X62600000Y-111075000D03*
%TO.P,C13,2*%
%TO.N,+3.3VA*%
X62600000Y-109525000D03*
%TD*%
D10*
%TO.P,R15,1*%
%TO.N,Net-(R15-Pad1)*%
X64975000Y-125700000D03*
%TO.P,R15,2*%
%TO.N,Net-(U4C--)*%
X66625000Y-125700000D03*
%TD*%
D25*
%TO.P,J1,1,Pin_1*%
%TO.N,+3.3VA*%
X52200000Y-75000000D03*
D26*
%TO.P,J1,2,Pin_2*%
%TO.N,GND*%
X52200000Y-77540000D03*
%TO.P,J1,3,Pin_3*%
%TO.N,/Mode_Led*%
X52200000Y-80080000D03*
%TO.P,J1,4,Pin_4*%
%TO.N,/Mode_Btn*%
X52200000Y-82620000D03*
%TO.P,J1,5,Pin_5*%
%TO.N,/Attack_Pot*%
X52200000Y-85160000D03*
%TO.P,J1,6,Pin_6*%
%TO.N,/Decay_Pot*%
X52200000Y-87700000D03*
%TO.P,J1,7,Pin_7*%
%TO.N,/Sustain_Pot*%
X52200000Y-90240000D03*
%TO.P,J1,8,Pin_8*%
%TO.N,/Release_Pot*%
X52200000Y-92780000D03*
%TD*%
D25*
%TO.P,J4,1,Pin_1*%
%TO.N,/Led3_Out*%
X55600000Y-152700000D03*
D26*
%TO.P,J4,2,Pin_2*%
%TO.N,/Env3_Out*%
X58140000Y-152700000D03*
%TO.P,J4,3,Pin_3*%
%TO.N,/Led4_Out*%
X60680000Y-152700000D03*
%TO.P,J4,4,Pin_4*%
%TO.N,/Env4_Out*%
X63220000Y-152700000D03*
%TD*%
D25*
%TO.P,J2,1,Pin_1*%
%TO.N,/Gate1_In*%
X66600000Y-75000000D03*
D26*
%TO.P,J2,2,Pin_2*%
%TO.N,/Gate2_In*%
X66600000Y-77540000D03*
%TO.P,J2,3,Pin_3*%
%TO.N,/Gate3_In*%
X66600000Y-80080000D03*
%TO.P,J2,4,Pin_4*%
%TO.N,/Gate4_In*%
X66600000Y-82620000D03*
%TD*%
D25*
%TO.P,J3,1,Pin_1*%
%TO.N,/Led2_Out*%
X64480000Y-137200000D03*
D26*
%TO.P,J3,2,Pin_2*%
%TO.N,/Env2_Out*%
X61940000Y-137200000D03*
%TO.P,J3,3,Pin_3*%
%TO.N,GND*%
X59400000Y-137200000D03*
%TO.P,J3,4,Pin_4*%
%TO.N,/Led1_Out*%
X56860000Y-137200000D03*
%TO.P,J3,5,Pin_5*%
%TO.N,/Env1_Out*%
X54320000Y-137200000D03*
%TD*%
D35*
%TO.N,GND*%
X55400000Y-97300000D03*
X66300000Y-109400000D03*
X57300000Y-143100000D03*
X61400000Y-131400000D03*
X65700000Y-132700000D03*
X58000000Y-127800000D03*
X57100000Y-130300000D03*
X55100000Y-130600000D03*
X58100000Y-133400000D03*
%TO.N,/LED1*%
X51000000Y-113800000D03*
D36*
%TO.N,+3.3V*%
X63900000Y-107700000D03*
X62000000Y-84800000D03*
X62000000Y-90800000D03*
X61000000Y-71600000D03*
D35*
X55400000Y-94700000D03*
%TO.N,GND*%
X60200000Y-103000000D03*
X59400000Y-76600000D03*
X66000000Y-121070000D03*
X58634972Y-112373270D03*
X54000000Y-146500000D03*
D36*
X60200000Y-105325500D03*
D35*
X63600000Y-60400000D03*
X57200000Y-139400000D03*
X57600000Y-103200000D03*
X56800000Y-116800000D03*
X67100000Y-103800000D03*
X52800000Y-121070000D03*
X54800000Y-66400000D03*
X56400000Y-72000000D03*
X55000000Y-77000000D03*
X57100000Y-146600000D03*
X63400000Y-127200000D03*
X63445024Y-139545024D03*
D36*
X62000000Y-100000000D03*
D35*
X63500000Y-135000000D03*
X57200000Y-99800000D03*
X51300000Y-151100000D03*
X60800000Y-93200000D03*
X59700000Y-126000000D03*
X57600000Y-74400000D03*
X64750000Y-86650000D03*
X61600000Y-62400000D03*
X58000000Y-68600000D03*
X52800000Y-68800000D03*
X52800000Y-123070000D03*
X63900000Y-130900000D03*
X55600000Y-127400000D03*
X51300000Y-136100000D03*
X64000000Y-66400000D03*
X57836413Y-90287948D03*
X57299992Y-93500000D03*
X66900000Y-152400000D03*
X55400000Y-62200000D03*
X65000000Y-98000000D03*
X61200000Y-68800000D03*
D36*
%TO.N,+12V*%
X54887500Y-120957500D03*
%TO.N,-12V*%
X63700000Y-120970000D03*
D35*
X68000000Y-65000000D03*
%TO.N,/Mode_Btn*%
X53700000Y-101800000D03*
%TO.N,/Sustain_Pot*%
X55295343Y-106595343D03*
%TO.N,/LED1*%
X55300000Y-109500006D03*
%TO.N,/USB_DM*%
X62000000Y-103200000D03*
X61900000Y-128500000D03*
%TO.N,/USB_DP*%
X59400000Y-127900000D03*
X61200000Y-101600000D03*
%TO.N,/LED3*%
X65200000Y-130500000D03*
X68100000Y-114800000D03*
D36*
%TO.N,+3.3VA*%
X59200000Y-108400000D03*
%TD*%
D37*
%TO.N,/LED2*%
X59400000Y-115700000D02*
X59400000Y-125200000D01*
X55330000Y-129270000D02*
X53825000Y-129270000D01*
X56200000Y-112500000D02*
X59400000Y-115700000D01*
X56200000Y-109152082D02*
X56200000Y-112500000D01*
X59400000Y-125200000D02*
X55330000Y-129270000D01*
X57650000Y-107702082D02*
X56200000Y-109152082D01*
X57650000Y-106762500D02*
X57650000Y-107702082D01*
%TO.N,/LED4*%
X66450000Y-105350000D02*
X63562500Y-105350000D01*
X67800000Y-113200000D02*
X67800000Y-106700000D01*
X67100000Y-113900000D02*
X67800000Y-113200000D01*
X66300000Y-113900000D02*
X67100000Y-113900000D01*
X65800000Y-114400000D02*
X66300000Y-113900000D01*
X65800000Y-115875000D02*
X65800000Y-114400000D01*
X67800000Y-106700000D02*
X66450000Y-105350000D01*
X64975000Y-116700000D02*
X65800000Y-115875000D01*
%TO.N,/LED3*%
X66586091Y-104613909D02*
X68300000Y-106327818D01*
X68300000Y-114600000D02*
X68100000Y-114800000D01*
X65613909Y-104613909D02*
X66586091Y-104613909D01*
X68300000Y-106327818D02*
X68300000Y-114600000D01*
X65100000Y-102800000D02*
X65100000Y-104100000D01*
X65100000Y-104100000D02*
X65613909Y-104613909D01*
X64650000Y-102350000D02*
X65100000Y-102800000D01*
X63562500Y-102350000D02*
X64650000Y-102350000D01*
%TO.N,/Led2_Out*%
X61880000Y-134600000D02*
X64480000Y-137200000D01*
X52175000Y-129425000D02*
X57350000Y-134600000D01*
X57350000Y-134600000D02*
X61880000Y-134600000D01*
X52175000Y-129270000D02*
X52175000Y-129425000D01*
%TO.N,/Env3_DAC*%
X60640000Y-123340000D02*
X61875000Y-123340000D01*
X59950000Y-122650000D02*
X60640000Y-123340000D01*
X56800000Y-109188478D02*
X56800000Y-112200000D01*
X57488478Y-108500000D02*
X56800000Y-109188478D01*
X59950000Y-115350000D02*
X59950000Y-122650000D01*
X57800000Y-108500000D02*
X57488478Y-108500000D01*
X58650000Y-107650000D02*
X57800000Y-108500000D01*
X56800000Y-112200000D02*
X59950000Y-115350000D01*
X58650000Y-106762500D02*
X58650000Y-107650000D01*
%TO.N,/LED1*%
X55300000Y-109415686D02*
X55300000Y-109500006D01*
X57150000Y-107565686D02*
X55300000Y-109415686D01*
X57150000Y-106762500D02*
X57150000Y-107565686D01*
%TO.N,/Env2_Out*%
X57000000Y-135700000D02*
X60440000Y-135700000D01*
X51450000Y-128225000D02*
X51450000Y-130150000D01*
X60440000Y-135700000D02*
X61940000Y-137200000D01*
X52175000Y-127500000D02*
X51450000Y-128225000D01*
X51450000Y-130150000D02*
X57000000Y-135700000D01*
%TO.N,+3.3VA*%
X60650000Y-106762500D02*
X60650000Y-108050000D01*
X60650000Y-108050000D02*
X61000000Y-108400000D01*
X61000000Y-108400000D02*
X61000000Y-109525000D01*
D38*
X59000000Y-108400000D02*
X57875000Y-109525000D01*
X57875000Y-109525000D02*
X57800000Y-109525000D01*
X59200000Y-108400000D02*
X59000000Y-108400000D01*
D37*
X57800000Y-109525000D02*
X59400000Y-109525000D01*
X60150000Y-106762500D02*
X60150000Y-108775000D01*
X60150000Y-108775000D02*
X59400000Y-109525000D01*
X59400000Y-109525000D02*
X62600000Y-109525000D01*
%TO.N,+3.3V*%
X64200000Y-109400000D02*
X64200000Y-109525000D01*
X62150000Y-107350000D02*
X64200000Y-109400000D01*
D38*
X64200000Y-108000000D02*
X63900000Y-107700000D01*
D37*
X62150000Y-106762500D02*
X62150000Y-107350000D01*
D38*
X64200000Y-109525000D02*
X64200000Y-108000000D01*
D37*
%TO.N,/Env1_Out*%
X50450000Y-116750000D02*
X50450000Y-133330000D01*
X52175000Y-115025000D02*
X50450000Y-116750000D01*
X52175000Y-114900000D02*
X52175000Y-115025000D01*
X50450000Y-133330000D02*
X54320000Y-137200000D01*
%TO.N,/Led1_Out*%
X52175000Y-116725000D02*
X51000000Y-117900000D01*
X52175000Y-116700000D02*
X52175000Y-116725000D01*
X51000000Y-117900000D02*
X51000000Y-131340000D01*
X51000000Y-131340000D02*
X56860000Y-137200000D01*
%TO.N,Net-(R13-Pad1)*%
X54800000Y-114900000D02*
X55300000Y-115400000D01*
X52975000Y-117700000D02*
X55300000Y-117700000D01*
X55300000Y-115400000D02*
X55300000Y-117700000D01*
X53825000Y-114900000D02*
X54800000Y-114900000D01*
X55300000Y-117700000D02*
X56335000Y-117700000D01*
X56335000Y-117700000D02*
X56925000Y-118290000D01*
X52175000Y-118500000D02*
X52975000Y-117700000D01*
X56925000Y-118290000D02*
X56925000Y-118225000D01*
X53825000Y-115125000D02*
X53825000Y-114900000D01*
%TO.N,/LED1*%
X52292462Y-113800000D02*
X51000000Y-113800000D01*
X53000000Y-115875000D02*
X53000000Y-114507538D01*
X53000000Y-114507538D02*
X52292462Y-113800000D01*
X53825000Y-116700000D02*
X53000000Y-115875000D01*
%TO.N,+3.3V*%
X59225000Y-89425000D02*
X56537500Y-89425000D01*
D38*
X56700000Y-85362500D02*
X56537500Y-85525000D01*
X59400000Y-70800000D02*
X60200000Y-70800000D01*
D37*
X63325000Y-85525000D02*
X62262500Y-85525000D01*
D38*
X67050000Y-100575000D02*
X66200000Y-101425000D01*
D37*
X62262500Y-90537500D02*
X62000000Y-90800000D01*
X55936979Y-85999417D02*
X56112562Y-86175000D01*
D38*
X53950000Y-70800000D02*
X59400000Y-70800000D01*
X59400000Y-66550000D02*
X59400000Y-70800000D01*
X56700000Y-73500000D02*
X56700000Y-85362500D01*
D37*
X56537500Y-85525000D02*
X56512500Y-85500000D01*
X62262500Y-90075000D02*
X62262500Y-90537500D01*
X55200000Y-99812500D02*
X55200000Y-99200000D01*
X55237500Y-99850000D02*
X55200000Y-99812500D01*
X56112562Y-86175000D02*
X56537500Y-86175000D01*
X55200000Y-99200000D02*
X55962500Y-98437500D01*
D38*
X56200000Y-95975000D02*
X55400000Y-95175000D01*
D37*
X62262500Y-86175000D02*
X63325000Y-86175000D01*
X59875000Y-90075000D02*
X59225000Y-89425000D01*
X62262500Y-85525000D02*
X62262500Y-85062500D01*
X63500000Y-85700000D02*
X63325000Y-85525000D01*
X55936979Y-85626625D02*
X55936979Y-85999417D01*
X56063604Y-85500000D02*
X55936979Y-85626625D01*
X62262500Y-85062500D02*
X62000000Y-84800000D01*
X56650000Y-98437500D02*
X56650000Y-96425000D01*
X66175000Y-99850000D02*
X66225000Y-99800000D01*
D38*
X59400000Y-60250000D02*
X59400000Y-66550000D01*
X55400000Y-95175000D02*
X55400000Y-94700000D01*
D37*
X63562500Y-99850000D02*
X66175000Y-99850000D01*
X63500000Y-86000000D02*
X63500000Y-85700000D01*
D38*
X67050000Y-96060000D02*
X67050000Y-100575000D01*
X66225000Y-101400000D02*
X66225000Y-99800000D01*
X66600000Y-95610000D02*
X67050000Y-96060000D01*
D37*
X56650000Y-96425000D02*
X56200000Y-95975000D01*
X62262500Y-90075000D02*
X59875000Y-90075000D01*
X55962500Y-98437500D02*
X56650000Y-98437500D01*
D38*
X59400000Y-70800000D02*
X56700000Y-73500000D01*
X60200000Y-70800000D02*
X61000000Y-71600000D01*
D37*
X56512500Y-85500000D02*
X56063604Y-85500000D01*
X63325000Y-86175000D02*
X63500000Y-86000000D01*
%TO.N,GND*%
X56537500Y-90075000D02*
X57623465Y-90075000D01*
X57150000Y-99750000D02*
X57200000Y-99800000D01*
X59650000Y-106762500D02*
X59650000Y-105875500D01*
X64000000Y-98000000D02*
X65000000Y-98000000D01*
X57150000Y-98437500D02*
X57150000Y-99750000D01*
X61650000Y-106762500D02*
X61650000Y-105959315D01*
X61650000Y-105959315D02*
X61016185Y-105325500D01*
D38*
X57000000Y-146500000D02*
X57100000Y-146600000D01*
X55485000Y-146500000D02*
X57000000Y-146500000D01*
D37*
X62350000Y-100350000D02*
X62000000Y-100000000D01*
X57299992Y-93574992D02*
X57299992Y-93500000D01*
X63562500Y-100350000D02*
X62350000Y-100350000D01*
X62000000Y-100000000D02*
X64000000Y-98000000D01*
X57623465Y-90075000D02*
X57836413Y-90287948D01*
X61016185Y-105325500D02*
X60200000Y-105325500D01*
X59650000Y-105875500D02*
X60200000Y-105325500D01*
D38*
%TO.N,+12V*%
X55350000Y-60250000D02*
X52800000Y-62800000D01*
X53805000Y-122070000D02*
X56895000Y-122070000D01*
X56895000Y-122070000D02*
X56925000Y-122100000D01*
X52200000Y-58600000D02*
X52800000Y-59200000D01*
X52800000Y-59200000D02*
X52800000Y-62800000D01*
X50725499Y-110725499D02*
X52400000Y-112400000D01*
X57100000Y-60250000D02*
X55350000Y-60250000D01*
X51150000Y-58600000D02*
X52200000Y-58600000D01*
X50725499Y-64874501D02*
X50725499Y-110725499D01*
X53775000Y-122100000D02*
X53775000Y-122070000D01*
X52800000Y-62800000D02*
X50725499Y-64874501D01*
X53775000Y-122070000D02*
X54887500Y-120957500D01*
X53775000Y-122100000D02*
X53805000Y-122070000D01*
%TO.N,-12V*%
X64995000Y-122070000D02*
X61905000Y-122070000D01*
X67650000Y-58600000D02*
X66800000Y-58600000D01*
X61905000Y-122070000D02*
X61875000Y-122100000D01*
X65800000Y-62800000D02*
X68000000Y-65000000D01*
X65800000Y-59600000D02*
X65800000Y-62800000D01*
X65025000Y-122100000D02*
X63895000Y-120970000D01*
X66800000Y-58600000D02*
X65800000Y-59600000D01*
X65025000Y-122100000D02*
X64995000Y-122070000D01*
X63895000Y-120970000D02*
X63700000Y-120970000D01*
D37*
%TO.N,/Gate1_In*%
X57600000Y-80000000D02*
X57600000Y-80975000D01*
X62600000Y-75000000D02*
X57600000Y-80000000D01*
X66600000Y-75000000D02*
X62600000Y-75000000D01*
%TO.N,/Gate2_In*%
X59400000Y-80175000D02*
X59400000Y-80975000D01*
X66600000Y-77540000D02*
X66560000Y-77500000D01*
X66560000Y-77500000D02*
X62075000Y-77500000D01*
X62075000Y-77500000D02*
X59400000Y-80175000D01*
%TO.N,/Gate3_In*%
X66600000Y-80080000D02*
X66420000Y-79900000D01*
X66420000Y-79900000D02*
X62275000Y-79900000D01*
X62275000Y-79900000D02*
X61200000Y-80975000D01*
%TO.N,/Gate4_In*%
X66600000Y-82620000D02*
X64955000Y-80975000D01*
X64955000Y-80975000D02*
X63000000Y-80975000D01*
%TO.N,/Led3_Out*%
X66625000Y-129300000D02*
X66725000Y-129400000D01*
X66725000Y-141575000D02*
X55600000Y-152700000D01*
X66725000Y-129400000D02*
X66725000Y-141575000D01*
%TO.N,/Led4_Out*%
X60700000Y-152700000D02*
X67799501Y-145600499D01*
X67799501Y-145600499D02*
X67799501Y-117874501D01*
X60680000Y-152700000D02*
X60700000Y-152700000D01*
X67799501Y-117874501D02*
X66625000Y-116700000D01*
D38*
%TO.N,/+12V_IN*%
X54320000Y-55200000D02*
X54320000Y-58470000D01*
X54320000Y-58470000D02*
X54450000Y-58600000D01*
X54320000Y-52660000D02*
X54320000Y-55200000D01*
%TO.N,/-12V_IN*%
X64480000Y-52660000D02*
X64480000Y-55200000D01*
X64480000Y-58470000D02*
X64350000Y-58600000D01*
X64480000Y-55200000D02*
X64480000Y-58470000D01*
D37*
%TO.N,/Mode_Btn*%
X53750000Y-101850000D02*
X53700000Y-101800000D01*
X55237500Y-101850000D02*
X53750000Y-101850000D01*
%TO.N,/Env3_Out*%
X67350000Y-128225000D02*
X67350000Y-143450000D01*
X67350000Y-143450000D02*
X58140000Y-152660000D01*
X58140000Y-152660000D02*
X58140000Y-152700000D01*
X66625000Y-127500000D02*
X67350000Y-128225000D01*
%TO.N,/Env4_Out*%
X63220000Y-152680000D02*
X63220000Y-152700000D01*
X68249002Y-147650998D02*
X63220000Y-152680000D01*
X66625000Y-114900000D02*
X68249002Y-116524002D01*
X68249002Y-116524002D02*
X68249002Y-147650998D01*
%TO.N,Net-(R14-Pad1)*%
X54122500Y-125880000D02*
X53912500Y-125670000D01*
X54035000Y-125910000D02*
X53825000Y-125700000D01*
X53825000Y-125700000D02*
X53825000Y-127500000D01*
X56925000Y-125910000D02*
X54035000Y-125910000D01*
%TO.N,Net-(R15-Pad1)*%
X64975000Y-125700000D02*
X64975000Y-127500000D01*
X61905000Y-125910000D02*
X64647500Y-125910000D01*
X64647500Y-125910000D02*
X64887500Y-125670000D01*
%TO.N,Net-(R16-Pad1)*%
X63400000Y-118300000D02*
X61885000Y-118300000D01*
X61885000Y-118300000D02*
X61875000Y-118290000D01*
X63400000Y-116475000D02*
X63400000Y-118300000D01*
X63600000Y-118500000D02*
X63400000Y-118300000D01*
X64975000Y-114900000D02*
X63400000Y-116475000D01*
X64975000Y-118500000D02*
X63600000Y-118500000D01*
%TO.N,Net-(U3-A)*%
X57600000Y-82625000D02*
X57600000Y-83400000D01*
X58000000Y-83800000D02*
X58000000Y-86400000D01*
X57575000Y-86825000D02*
X56537500Y-86825000D01*
X58000000Y-86400000D02*
X57575000Y-86825000D01*
X57600000Y-83400000D02*
X58000000Y-83800000D01*
%TO.N,Net-(U3-B)*%
X56562500Y-88800000D02*
X56537500Y-88775000D01*
X59400000Y-82625000D02*
X59400000Y-87600000D01*
X58200000Y-88800000D02*
X56562500Y-88800000D01*
X59400000Y-87600000D02*
X58200000Y-88800000D01*
%TO.N,Net-(U3-D)*%
X63000000Y-82625000D02*
X61100000Y-84525000D01*
X61100000Y-86351041D02*
X61573959Y-86825000D01*
X61100000Y-84525000D02*
X61100000Y-86351041D01*
X61573959Y-86825000D02*
X62262500Y-86825000D01*
%TO.N,/Env4_DAC*%
X60500000Y-116170000D02*
X60500000Y-120500000D01*
X63090685Y-106400000D02*
X64000000Y-106400000D01*
X65100000Y-111570000D02*
X60500000Y-116170000D01*
X61040685Y-104350000D02*
X63090685Y-106400000D01*
X60500000Y-120500000D02*
X60800000Y-120800000D01*
X60800000Y-120800000D02*
X61875000Y-120800000D01*
X55237500Y-104350000D02*
X61040685Y-104350000D01*
X65100000Y-107500000D02*
X65100000Y-111570000D01*
X64000000Y-106400000D02*
X65100000Y-107500000D01*
%TO.N,/Env1_DAC*%
X54000000Y-106587500D02*
X54000000Y-112100000D01*
X58400000Y-116500000D02*
X58400000Y-120470000D01*
X55237500Y-105350000D02*
X54000000Y-106587500D01*
X58040000Y-120830000D02*
X56925000Y-120830000D01*
X54000000Y-112100000D02*
X58400000Y-116500000D01*
X58400000Y-120470000D02*
X58040000Y-120830000D01*
%TO.N,/Env2_DAC*%
X56925000Y-123370000D02*
X58130000Y-123370000D01*
X54575000Y-108837500D02*
X56650000Y-106762500D01*
X58130000Y-123370000D02*
X58900000Y-122600000D01*
X58900000Y-116100000D02*
X54575000Y-111775000D01*
X58900000Y-122600000D02*
X58900000Y-116100000D01*
X54575000Y-111775000D02*
X54575000Y-108837500D01*
%TO.N,/Attack_Pot*%
X53250000Y-103350000D02*
X55237500Y-103350000D01*
X52900000Y-103000000D02*
X53250000Y-103350000D01*
X52900000Y-97200000D02*
X52900000Y-103000000D01*
X52200000Y-85160000D02*
X53950000Y-86910000D01*
X53950000Y-86910000D02*
X53950000Y-96150000D01*
X53950000Y-96150000D02*
X52900000Y-97200000D01*
%TO.N,/Decay_Pot*%
X52200000Y-103400000D02*
X52200000Y-96925499D01*
X55237500Y-103850000D02*
X52650000Y-103850000D01*
X52650000Y-103850000D02*
X52200000Y-103400000D01*
X53500000Y-89000000D02*
X52200000Y-87700000D01*
X53500000Y-95625499D02*
X53500000Y-89000000D01*
X52200000Y-96925499D02*
X53500000Y-95625499D01*
%TO.N,Net-(U3-C)*%
X60139372Y-88939372D02*
X60625000Y-89425000D01*
X61200000Y-82625000D02*
X61200000Y-82700000D01*
X60625000Y-89425000D02*
X62262500Y-89425000D01*
X61200000Y-82700000D02*
X60139372Y-83760628D01*
X60139372Y-83760628D02*
X60139372Y-88939372D01*
%TO.N,Net-(U4A--)*%
X54622500Y-119560000D02*
X56925000Y-119560000D01*
X53912500Y-120270000D02*
X54622500Y-119560000D01*
X53800000Y-118470000D02*
X53800000Y-120270000D01*
%TO.N,/Sustain_Pot*%
X56490685Y-105400000D02*
X55295343Y-106595343D01*
X58150000Y-106762500D02*
X58150000Y-105750000D01*
X57800000Y-105400000D02*
X56490685Y-105400000D01*
X58150000Y-105750000D02*
X57800000Y-105400000D01*
%TO.N,Net-(U4B--)*%
X56925000Y-124640000D02*
X54682500Y-124640000D01*
X54682500Y-124640000D02*
X53912500Y-123870000D01*
X53912500Y-123870000D02*
X52112500Y-125670000D01*
%TO.N,/Release_Pot*%
X52200000Y-92780000D02*
X51500000Y-93480000D01*
X51500000Y-93480000D02*
X51500000Y-104100000D01*
X52250000Y-104850000D02*
X55237500Y-104850000D01*
X51500000Y-104100000D02*
X52250000Y-104850000D01*
%TO.N,Net-(U4C--)*%
X64117500Y-124640000D02*
X64887500Y-123870000D01*
X64887500Y-123870000D02*
X66687500Y-125670000D01*
X61875000Y-124640000D02*
X64117500Y-124640000D01*
%TO.N,Net-(U4D--)*%
X61875000Y-119560000D02*
X64177500Y-119560000D01*
X64177500Y-119560000D02*
X64887500Y-120270000D01*
X64887500Y-120270000D02*
X66687500Y-118470000D01*
%TO.N,/SWCLK*%
X66600000Y-87990000D02*
X64500000Y-90090000D01*
X64500000Y-90090000D02*
X64500000Y-93100000D01*
X64500000Y-93100000D02*
X61650000Y-95950000D01*
X61650000Y-95950000D02*
X61650000Y-98437500D01*
%TO.N,/SWIO*%
X65000000Y-92130000D02*
X66600000Y-90530000D01*
X62150000Y-98437500D02*
X62150000Y-96250000D01*
X62150000Y-96250000D02*
X65000000Y-93400000D01*
X65000000Y-93400000D02*
X65000000Y-92130000D01*
%TO.N,/USB_DM*%
X62000000Y-101800000D02*
X62000000Y-103200000D01*
X63562500Y-101350000D02*
X62450000Y-101350000D01*
X61000000Y-130400000D02*
X58850000Y-130400000D01*
X58350000Y-129900000D02*
X58350000Y-129175000D01*
X61900000Y-129500000D02*
X61000000Y-130400000D01*
X61900000Y-128500000D02*
X61900000Y-129500000D01*
X62450000Y-101350000D02*
X62000000Y-101800000D01*
X58850000Y-130400000D02*
X58350000Y-129900000D01*
%TO.N,/USB_DP*%
X59300000Y-128000000D02*
X59400000Y-127900000D01*
X61950000Y-100850000D02*
X61200000Y-101600000D01*
X63562500Y-100850000D02*
X61950000Y-100850000D01*
X59300000Y-129175000D02*
X59300000Y-128000000D01*
%TO.N,/LED3*%
X65200000Y-129525000D02*
X64975000Y-129300000D01*
X65200000Y-130500000D02*
X65200000Y-129525000D01*
%TO.N,/Gate1*%
X59150000Y-93350000D02*
X59150000Y-98437500D01*
X57400000Y-91600000D02*
X59150000Y-93350000D01*
X55175000Y-87475000D02*
X54849501Y-87800499D01*
X54849501Y-87800499D02*
X54849501Y-90849501D01*
X55600000Y-91600000D02*
X57400000Y-91600000D01*
X56537500Y-87475000D02*
X55175000Y-87475000D01*
X54849501Y-90849501D02*
X55600000Y-91600000D01*
%TO.N,/Gate2*%
X59650000Y-92950000D02*
X59650000Y-98437500D01*
X55961979Y-91000000D02*
X57700000Y-91000000D01*
X55300000Y-88300000D02*
X55300000Y-90338021D01*
X55300000Y-90338021D02*
X55961979Y-91000000D01*
X55475000Y-88125000D02*
X55300000Y-88300000D01*
X57700000Y-91000000D02*
X59650000Y-92950000D01*
X56537500Y-88125000D02*
X55475000Y-88125000D01*
%TO.N,/Gate3*%
X63400000Y-92600000D02*
X60150000Y-95850000D01*
X63075000Y-88775000D02*
X63400000Y-89100000D01*
X60150000Y-95850000D02*
X60150000Y-98437500D01*
X62262500Y-88775000D02*
X63075000Y-88775000D01*
X63400000Y-89100000D02*
X63400000Y-92600000D01*
%TO.N,/Gate4*%
X62262500Y-87475000D02*
X63375000Y-87475000D01*
X60650000Y-96150000D02*
X60650000Y-98437500D01*
X63950499Y-88050499D02*
X63950499Y-92849501D01*
X63375000Y-87475000D02*
X63950499Y-88050499D01*
X63950499Y-92849501D02*
X60650000Y-96150000D01*
%TO.N,/BOOT0*%
X57800000Y-96025000D02*
X58150000Y-96375000D01*
X58150000Y-96375000D02*
X58150000Y-98437500D01*
D38*
%TO.N,+3.3VA*%
X51650000Y-70800000D02*
X51650000Y-72450000D01*
X51650000Y-72450000D02*
X52200000Y-73000000D01*
X52200000Y-73000000D02*
X52200000Y-75000000D01*
D37*
%TO.N,/Mode_Led*%
X53095000Y-80975000D02*
X52200000Y-80080000D01*
X55400000Y-80975000D02*
X53095000Y-80975000D01*
%TO.N,Net-(U1-PC13)*%
X54400000Y-96600000D02*
X53600000Y-97400000D01*
X54400000Y-84025000D02*
X54400000Y-96600000D01*
X53600000Y-97400000D02*
X53600000Y-99900000D01*
X54050000Y-100350000D02*
X55237500Y-100350000D01*
X55800000Y-82625000D02*
X54400000Y-84025000D01*
X53600000Y-99900000D02*
X54050000Y-100350000D01*
D39*
%TO.N,/D-*%
X59429999Y-144550000D02*
X55485000Y-144550000D01*
X58350000Y-131425000D02*
X58350000Y-132100000D01*
X65800000Y-138179999D02*
X59429999Y-144550000D01*
X60050000Y-133800000D02*
X64200000Y-133800000D01*
X64200000Y-133800000D02*
X65800000Y-135400000D01*
X58350000Y-132100000D02*
X60050000Y-133800000D01*
X65800000Y-135400000D02*
X65800000Y-138179999D01*
%TO.N,/D+*%
X66200000Y-134800000D02*
X66200000Y-138700000D01*
X59300000Y-132100000D02*
X60400000Y-133200000D01*
X66200000Y-138700000D02*
X59700000Y-145200000D01*
X59700000Y-145200000D02*
X55485000Y-145200000D01*
X59300000Y-131425000D02*
X59300000Y-132100000D01*
X60400000Y-133200000D02*
X64600000Y-133200000D01*
X64600000Y-133200000D02*
X66200000Y-134800000D01*
%TD*%
%TA.AperFunction,Conductor*%
%TO.N,GND*%
G36*
X50209012Y-133985370D02*
G01*
X50215595Y-133991499D01*
X52970132Y-136746036D01*
X53004158Y-136808348D01*
X53003182Y-136866061D01*
X52975436Y-136975628D01*
X52962801Y-137128111D01*
X52956844Y-137200000D01*
X52974232Y-137409844D01*
X52975437Y-137424375D01*
X53030702Y-137642612D01*
X53030703Y-137642613D01*
X53121141Y-137848793D01*
X53244275Y-138037265D01*
X53244279Y-138037270D01*
X53396762Y-138202908D01*
X53451331Y-138245381D01*
X53574424Y-138341189D01*
X53772426Y-138448342D01*
X53772427Y-138448342D01*
X53772428Y-138448343D01*
X53884227Y-138486723D01*
X53985365Y-138521444D01*
X54207431Y-138558500D01*
X54207435Y-138558500D01*
X54432565Y-138558500D01*
X54432569Y-138558500D01*
X54654635Y-138521444D01*
X54867574Y-138448342D01*
X55065576Y-138341189D01*
X55243240Y-138202906D01*
X55395722Y-138037268D01*
X55395927Y-138036955D01*
X55401115Y-138029012D01*
X55484518Y-137901354D01*
X55538520Y-137855268D01*
X55608868Y-137845692D01*
X55673225Y-137875669D01*
X55695480Y-137901353D01*
X55728607Y-137952058D01*
X55784275Y-138037265D01*
X55784279Y-138037270D01*
X55936762Y-138202908D01*
X55991331Y-138245381D01*
X56114424Y-138341189D01*
X56312426Y-138448342D01*
X56312427Y-138448342D01*
X56312428Y-138448343D01*
X56424227Y-138486723D01*
X56525365Y-138521444D01*
X56747431Y-138558500D01*
X56747435Y-138558500D01*
X56972565Y-138558500D01*
X56972569Y-138558500D01*
X57194635Y-138521444D01*
X57407574Y-138448342D01*
X57605576Y-138341189D01*
X57783240Y-138202906D01*
X57935722Y-138037268D01*
X57935927Y-138036955D01*
X57951122Y-138013695D01*
X58024816Y-137900898D01*
X58078819Y-137854810D01*
X58149167Y-137845235D01*
X58213524Y-137875212D01*
X58235782Y-137900898D01*
X58324674Y-138036958D01*
X58477097Y-138202534D01*
X58654698Y-138340767D01*
X58654699Y-138340768D01*
X58852628Y-138447882D01*
X58852630Y-138447883D01*
X59065483Y-138520955D01*
X59065492Y-138520957D01*
X59146000Y-138534391D01*
X59146000Y-137633674D01*
X59257685Y-137684680D01*
X59364237Y-137700000D01*
X59435763Y-137700000D01*
X59542315Y-137684680D01*
X59654000Y-137633674D01*
X59654000Y-138534390D01*
X59734507Y-138520957D01*
X59734516Y-138520955D01*
X59947369Y-138447883D01*
X59947371Y-138447882D01*
X60145300Y-138340768D01*
X60145301Y-138340767D01*
X60322902Y-138202534D01*
X60475327Y-138036955D01*
X60564217Y-137900899D01*
X60618220Y-137854810D01*
X60688568Y-137845235D01*
X60752925Y-137875212D01*
X60775183Y-137900898D01*
X60864279Y-138037270D01*
X61016762Y-138202908D01*
X61071331Y-138245381D01*
X61194424Y-138341189D01*
X61392426Y-138448342D01*
X61392427Y-138448342D01*
X61392428Y-138448343D01*
X61504227Y-138486723D01*
X61605365Y-138521444D01*
X61827431Y-138558500D01*
X61827435Y-138558500D01*
X62052565Y-138558500D01*
X62052569Y-138558500D01*
X62274635Y-138521444D01*
X62487574Y-138448342D01*
X62685576Y-138341189D01*
X62863240Y-138202906D01*
X62924245Y-138136637D01*
X62985096Y-138100067D01*
X63056061Y-138102200D01*
X63114606Y-138142362D01*
X63135000Y-138177941D01*
X63179111Y-138296204D01*
X63179112Y-138296207D01*
X63266738Y-138413261D01*
X63383792Y-138500887D01*
X63383794Y-138500888D01*
X63383796Y-138500889D01*
X63437600Y-138520957D01*
X63520795Y-138551988D01*
X63520803Y-138551990D01*
X63581350Y-138558499D01*
X63581355Y-138558499D01*
X63581362Y-138558500D01*
X64256760Y-138558500D01*
X64324881Y-138578502D01*
X64371374Y-138632158D01*
X64381478Y-138702432D01*
X64351984Y-138767012D01*
X64345855Y-138773595D01*
X59214855Y-143904595D01*
X59152543Y-143938621D01*
X59125760Y-143941500D01*
X56794500Y-143941500D01*
X56726379Y-143921498D01*
X56679886Y-143867842D01*
X56668500Y-143815500D01*
X56668500Y-143651367D01*
X56668499Y-143651350D01*
X56661990Y-143590803D01*
X56661988Y-143590795D01*
X56610889Y-143453797D01*
X56610887Y-143453792D01*
X56523261Y-143336738D01*
X56468755Y-143295936D01*
X56426208Y-143239101D01*
X56421143Y-143168285D01*
X56426342Y-143152044D01*
X56426322Y-143152038D01*
X56428231Y-143145951D01*
X56428235Y-143145942D01*
X56468500Y-142950012D01*
X56468500Y-142500123D01*
X56453336Y-142351002D01*
X56393456Y-142160151D01*
X56296384Y-141985260D01*
X56296382Y-141985256D01*
X56166098Y-141833496D01*
X56166093Y-141833490D01*
X56007919Y-141711054D01*
X56007915Y-141711052D01*
X56007914Y-141711051D01*
X55828338Y-141622965D01*
X55828336Y-141622964D01*
X55634697Y-141572828D01*
X55634694Y-141572827D01*
X55634691Y-141572827D01*
X55434930Y-141562696D01*
X55237214Y-141592985D01*
X55237212Y-141592986D01*
X55049639Y-141662456D01*
X54879889Y-141768261D01*
X54734909Y-141906075D01*
X54620644Y-142070243D01*
X54541766Y-142254054D01*
X54501500Y-142449986D01*
X54501500Y-142899876D01*
X54501501Y-142899895D01*
X54506598Y-142950013D01*
X54516664Y-143048998D01*
X54548993Y-143152038D01*
X54549765Y-143154498D01*
X54551073Y-143225482D01*
X54513796Y-143285905D01*
X54505053Y-143293084D01*
X54446739Y-143336738D01*
X54359112Y-143453792D01*
X54359110Y-143453797D01*
X54308011Y-143590795D01*
X54308009Y-143590803D01*
X54301500Y-143651350D01*
X54301500Y-144148649D01*
X54308261Y-144211532D01*
X54308261Y-144238468D01*
X54301500Y-144301350D01*
X54301500Y-144798649D01*
X54308261Y-144861532D01*
X54308261Y-144888468D01*
X54301500Y-144951350D01*
X54301500Y-145448649D01*
X54308261Y-145511532D01*
X54308261Y-145538468D01*
X54301500Y-145601350D01*
X54301500Y-146098632D01*
X54301501Y-146098652D01*
X54308513Y-146163884D01*
X54308513Y-146190818D01*
X54302001Y-146251394D01*
X54302000Y-146251414D01*
X54302000Y-146300001D01*
X54303294Y-146301295D01*
X54367003Y-146320002D01*
X54399750Y-146350491D01*
X54446738Y-146413261D01*
X54526716Y-146473132D01*
X54569263Y-146529968D01*
X54574327Y-146600784D01*
X54540302Y-146663096D01*
X54477990Y-146697121D01*
X54451207Y-146700000D01*
X54302000Y-146700000D01*
X54302000Y-146748597D01*
X54308505Y-146809093D01*
X54359555Y-146945964D01*
X54359555Y-146945965D01*
X54447095Y-147062904D01*
X54501446Y-147103590D01*
X54543993Y-147160425D01*
X54549058Y-147231241D01*
X54542197Y-147252679D01*
X54541766Y-147254052D01*
X54501500Y-147449986D01*
X54501500Y-147899876D01*
X54501501Y-147899895D01*
X54516663Y-148048993D01*
X54516664Y-148048998D01*
X54547081Y-148145945D01*
X54576543Y-148239847D01*
X54673617Y-148414743D01*
X54803133Y-148565608D01*
X54803907Y-148566510D01*
X54962081Y-148688946D01*
X55141664Y-148777036D01*
X55335303Y-148827172D01*
X55501775Y-148835614D01*
X55535069Y-148837303D01*
X55535069Y-148837302D01*
X55535070Y-148837303D01*
X55732788Y-148807014D01*
X55920361Y-148737544D01*
X56090111Y-148631739D01*
X56235087Y-148493929D01*
X56349355Y-148329756D01*
X56428235Y-148145942D01*
X56468500Y-147950012D01*
X56468500Y-147500123D01*
X56453336Y-147351002D01*
X56420075Y-147244994D01*
X56418767Y-147174013D01*
X56456043Y-147113590D01*
X56464788Y-147106408D01*
X56522906Y-147062901D01*
X56610444Y-146945965D01*
X56610444Y-146945964D01*
X56661494Y-146809093D01*
X56667999Y-146748597D01*
X56668000Y-146748585D01*
X56668000Y-146700000D01*
X56518793Y-146700000D01*
X56450672Y-146679998D01*
X56404179Y-146626342D01*
X56394075Y-146556068D01*
X56423569Y-146491488D01*
X56443284Y-146473132D01*
X56523261Y-146413261D01*
X56570250Y-146350491D01*
X56627085Y-146307944D01*
X56667314Y-146300686D01*
X56668000Y-146300001D01*
X56668000Y-146251414D01*
X56667999Y-146251404D01*
X56661485Y-146190821D01*
X56661485Y-146163880D01*
X56661987Y-146159204D01*
X56661989Y-146159201D01*
X56668500Y-146098638D01*
X56668500Y-145934500D01*
X56688502Y-145866379D01*
X56742158Y-145819886D01*
X56794500Y-145808500D01*
X59655988Y-145808500D01*
X59664219Y-145809040D01*
X59676549Y-145810662D01*
X59700000Y-145813750D01*
X59739880Y-145808500D01*
X59739885Y-145808500D01*
X59817791Y-145798243D01*
X59839457Y-145795391D01*
X59843335Y-145794880D01*
X59858851Y-145792838D01*
X60006876Y-145731524D01*
X60102072Y-145658477D01*
X60102072Y-145658476D01*
X60110291Y-145652170D01*
X60110300Y-145652162D01*
X60133987Y-145633987D01*
X60155965Y-145605344D01*
X60161384Y-145599163D01*
X65876407Y-139884141D01*
X65938717Y-139850117D01*
X66009532Y-139855182D01*
X66066368Y-139897729D01*
X66091179Y-139964249D01*
X66091500Y-139973238D01*
X66091500Y-141260405D01*
X66071498Y-141328526D01*
X66054595Y-141349500D01*
X56099500Y-151304595D01*
X56037188Y-151338621D01*
X56010405Y-151341500D01*
X54701350Y-151341500D01*
X54640803Y-151348009D01*
X54640795Y-151348011D01*
X54503797Y-151399110D01*
X54503792Y-151399112D01*
X54386738Y-151486738D01*
X54299112Y-151603792D01*
X54299110Y-151603797D01*
X54248011Y-151740795D01*
X54248009Y-151740803D01*
X54241500Y-151801350D01*
X54241500Y-153598649D01*
X54248009Y-153659196D01*
X54248011Y-153659204D01*
X54299110Y-153796202D01*
X54300449Y-153797991D01*
X54301229Y-153800084D01*
X54303432Y-153804118D01*
X54302852Y-153804434D01*
X54325259Y-153864512D01*
X54310167Y-153933886D01*
X54259965Y-153984088D01*
X54199580Y-153999500D01*
X50126500Y-153999500D01*
X50058379Y-153979498D01*
X50011886Y-153925842D01*
X50000500Y-153873500D01*
X50000500Y-148700003D01*
X51496620Y-148700003D01*
X51516090Y-148897694D01*
X51516091Y-148897700D01*
X51516092Y-148897701D01*
X51573759Y-149087804D01*
X51667405Y-149263004D01*
X51793432Y-149416568D01*
X51946996Y-149542595D01*
X52122196Y-149636241D01*
X52312299Y-149693908D01*
X52312303Y-149693908D01*
X52312305Y-149693909D01*
X52396513Y-149702202D01*
X52460453Y-149708500D01*
X52460462Y-149708500D01*
X53109538Y-149708500D01*
X53109547Y-149708500D01*
X53193761Y-149700205D01*
X53257694Y-149693909D01*
X53257695Y-149693908D01*
X53257701Y-149693908D01*
X53447804Y-149636241D01*
X53623004Y-149542595D01*
X53776568Y-149416568D01*
X53902595Y-149263004D01*
X53996241Y-149087804D01*
X54053908Y-148897701D01*
X54069683Y-148737544D01*
X54073380Y-148700003D01*
X54073380Y-148699996D01*
X54053909Y-148502305D01*
X54053908Y-148502303D01*
X54053908Y-148502299D01*
X53996241Y-148312196D01*
X53902595Y-148136996D01*
X53776568Y-147983432D01*
X53623004Y-147857405D01*
X53447804Y-147763759D01*
X53257701Y-147706092D01*
X53257700Y-147706091D01*
X53257694Y-147706090D01*
X53109553Y-147691500D01*
X53109547Y-147691500D01*
X52460453Y-147691500D01*
X52460446Y-147691500D01*
X52312305Y-147706090D01*
X52122195Y-147763759D01*
X51946995Y-147857405D01*
X51793432Y-147983432D01*
X51667405Y-148136995D01*
X51573759Y-148312195D01*
X51516090Y-148502305D01*
X51496620Y-148699996D01*
X51496620Y-148700003D01*
X50000500Y-148700003D01*
X50000500Y-141700003D01*
X51496620Y-141700003D01*
X51516090Y-141897694D01*
X51516091Y-141897700D01*
X51516092Y-141897701D01*
X51573759Y-142087804D01*
X51667405Y-142263004D01*
X51793432Y-142416568D01*
X51946996Y-142542595D01*
X52122196Y-142636241D01*
X52312299Y-142693908D01*
X52312303Y-142693908D01*
X52312305Y-142693909D01*
X52396513Y-142702202D01*
X52460453Y-142708500D01*
X52460462Y-142708500D01*
X53109538Y-142708500D01*
X53109547Y-142708500D01*
X53193761Y-142700205D01*
X53257694Y-142693909D01*
X53257695Y-142693908D01*
X53257701Y-142693908D01*
X53447804Y-142636241D01*
X53623004Y-142542595D01*
X53776568Y-142416568D01*
X53902595Y-142263004D01*
X53996241Y-142087804D01*
X54053908Y-141897701D01*
X54060233Y-141833490D01*
X54073380Y-141700003D01*
X54073380Y-141699996D01*
X54053909Y-141502305D01*
X54053908Y-141502303D01*
X54053908Y-141502299D01*
X53996241Y-141312196D01*
X53902595Y-141136996D01*
X53776568Y-140983432D01*
X53623004Y-140857405D01*
X53447804Y-140763759D01*
X53257701Y-140706092D01*
X53257700Y-140706091D01*
X53257694Y-140706090D01*
X53109553Y-140691500D01*
X53109547Y-140691500D01*
X52460453Y-140691500D01*
X52460446Y-140691500D01*
X52312305Y-140706090D01*
X52122195Y-140763759D01*
X51946995Y-140857405D01*
X51793432Y-140983432D01*
X51667405Y-141136995D01*
X51573759Y-141312195D01*
X51516090Y-141502305D01*
X51496620Y-141699996D01*
X51496620Y-141700003D01*
X50000500Y-141700003D01*
X50000500Y-134080594D01*
X50020502Y-134012473D01*
X50074158Y-133965980D01*
X50144432Y-133955876D01*
X50209012Y-133985370D01*
G37*
%TD.AperFunction*%
%TA.AperFunction,Conductor*%
G36*
X68717533Y-148182537D02*
G01*
X68774368Y-148225084D01*
X68799179Y-148291604D01*
X68799500Y-148300593D01*
X68799500Y-153873500D01*
X68779498Y-153941621D01*
X68725842Y-153988114D01*
X68673500Y-153999500D01*
X64129203Y-153999500D01*
X64061082Y-153979498D01*
X64014589Y-153925842D01*
X64004485Y-153855568D01*
X64033979Y-153790988D01*
X64051812Y-153774069D01*
X64143234Y-153702911D01*
X64143235Y-153702909D01*
X64143240Y-153702906D01*
X64295722Y-153537268D01*
X64418860Y-153348791D01*
X64509296Y-153142616D01*
X64564564Y-152924368D01*
X64583156Y-152700000D01*
X64564564Y-152475632D01*
X64532776Y-152350104D01*
X64535443Y-152279157D01*
X64565823Y-152230079D01*
X68584407Y-148211496D01*
X68646717Y-148177472D01*
X68717533Y-148182537D01*
G37*
%TD.AperFunction*%
%TA.AperFunction,Conductor*%
G36*
X63963882Y-134428502D02*
G01*
X63984856Y-134445405D01*
X65154595Y-135615144D01*
X65188621Y-135677456D01*
X65191500Y-135704239D01*
X65191500Y-135715500D01*
X65171498Y-135783621D01*
X65117842Y-135830114D01*
X65065500Y-135841500D01*
X64069595Y-135841500D01*
X64001474Y-135821498D01*
X63980500Y-135804595D01*
X62799500Y-134623595D01*
X62765474Y-134561283D01*
X62770539Y-134490468D01*
X62813086Y-134433632D01*
X62879606Y-134408821D01*
X62888595Y-134408500D01*
X63895761Y-134408500D01*
X63963882Y-134428502D01*
G37*
%TD.AperFunction*%
%TA.AperFunction,Conductor*%
G36*
X60242012Y-123835439D02*
G01*
X60245736Y-123838798D01*
X60264679Y-123856586D01*
X60264680Y-123856586D01*
X60264682Y-123856588D01*
X60282429Y-123866344D01*
X60298959Y-123877202D01*
X60304168Y-123881243D01*
X60314959Y-123889613D01*
X60335628Y-123898557D01*
X60358251Y-123908347D01*
X60363585Y-123910959D01*
X60404940Y-123933695D01*
X60423860Y-123938553D01*
X60484866Y-123974866D01*
X60516555Y-124038397D01*
X60508867Y-124108976D01*
X60500980Y-124124733D01*
X60440855Y-124226397D01*
X60394437Y-124386170D01*
X60391500Y-124423494D01*
X60391500Y-124856506D01*
X60394437Y-124893829D01*
X60440856Y-125053605D01*
X60525543Y-125196802D01*
X60526298Y-125197775D01*
X60526652Y-125198676D01*
X60529582Y-125203631D01*
X60528782Y-125204103D01*
X60552244Y-125263861D01*
X60538342Y-125333483D01*
X60526298Y-125352225D01*
X60525543Y-125353197D01*
X60440856Y-125496394D01*
X60394437Y-125656170D01*
X60391500Y-125693494D01*
X60391500Y-126126506D01*
X60394437Y-126163829D01*
X60440856Y-126323605D01*
X60525544Y-126466803D01*
X60525549Y-126466810D01*
X60643189Y-126584450D01*
X60643196Y-126584455D01*
X60786394Y-126669143D01*
X60786397Y-126669143D01*
X60786399Y-126669145D01*
X60946169Y-126715562D01*
X60953634Y-126716149D01*
X60983494Y-126718500D01*
X60983498Y-126718500D01*
X62766506Y-126718500D01*
X62791388Y-126716541D01*
X62803831Y-126715562D01*
X62963601Y-126669145D01*
X62963603Y-126669143D01*
X62963605Y-126669143D01*
X63075035Y-126603243D01*
X63106807Y-126584453D01*
X63106810Y-126584450D01*
X63110856Y-126580405D01*
X63173168Y-126546379D01*
X63199951Y-126543500D01*
X64150338Y-126543500D01*
X64218459Y-126563502D01*
X64264952Y-126617158D01*
X64275056Y-126687432D01*
X64245562Y-126752012D01*
X64239433Y-126758595D01*
X64213188Y-126784839D01*
X64213184Y-126784844D01*
X64124172Y-126932088D01*
X64124170Y-126932093D01*
X64072986Y-127096353D01*
X64066500Y-127167737D01*
X64066500Y-127832261D01*
X64072986Y-127903646D01*
X64072986Y-127903647D01*
X64124170Y-128067906D01*
X64124172Y-128067911D01*
X64213184Y-128215155D01*
X64213188Y-128215160D01*
X64308933Y-128310905D01*
X64342959Y-128373217D01*
X64337894Y-128444032D01*
X64308933Y-128489095D01*
X64213188Y-128584839D01*
X64213184Y-128584844D01*
X64124172Y-128732088D01*
X64124170Y-128732093D01*
X64072986Y-128896353D01*
X64066500Y-128967737D01*
X64066500Y-129632261D01*
X64072986Y-129703646D01*
X64072986Y-129703647D01*
X64124170Y-129867906D01*
X64124172Y-129867911D01*
X64124173Y-129867913D01*
X64153464Y-129916366D01*
X64213184Y-130015155D01*
X64213188Y-130015160D01*
X64301309Y-130103281D01*
X64335335Y-130165593D01*
X64332048Y-130231311D01*
X64306457Y-130310073D01*
X64286496Y-130500000D01*
X64306457Y-130689927D01*
X64310964Y-130703797D01*
X64365473Y-130871556D01*
X64365476Y-130871561D01*
X64460958Y-131036941D01*
X64460965Y-131036951D01*
X64588744Y-131178864D01*
X64649999Y-131223368D01*
X64743248Y-131291118D01*
X64917712Y-131368794D01*
X65104513Y-131408500D01*
X65295487Y-131408500D01*
X65482288Y-131368794D01*
X65656752Y-131291118D01*
X65811253Y-131178866D01*
X65871864Y-131111550D01*
X65932309Y-131074311D01*
X66003293Y-131075662D01*
X66062278Y-131115176D01*
X66090536Y-131180306D01*
X66091500Y-131195861D01*
X66091500Y-133526761D01*
X66071498Y-133594882D01*
X66017842Y-133641375D01*
X65947568Y-133651479D01*
X65882988Y-133621985D01*
X65876405Y-133615856D01*
X65520607Y-133260058D01*
X65061390Y-132800841D01*
X65055963Y-132794653D01*
X65033987Y-132766013D01*
X65002074Y-132741525D01*
X65002072Y-132741523D01*
X64960649Y-132709738D01*
X64906882Y-132668480D01*
X64906874Y-132668475D01*
X64758851Y-132607162D01*
X64739456Y-132604608D01*
X64704202Y-132599967D01*
X64638041Y-132591257D01*
X64638020Y-132591255D01*
X64600002Y-132586250D01*
X64599999Y-132586250D01*
X64564219Y-132590960D01*
X64555988Y-132591500D01*
X60848041Y-132591500D01*
X60779920Y-132571498D01*
X60733427Y-132517842D01*
X60723323Y-132447568D01*
X60752817Y-132382988D01*
X60789546Y-132357490D01*
X60788057Y-132354762D01*
X60795965Y-132350444D01*
X60912904Y-132262904D01*
X61000444Y-132145965D01*
X61000444Y-132145964D01*
X61051494Y-132009093D01*
X61057999Y-131948597D01*
X61058000Y-131948585D01*
X61058000Y-131679000D01*
X60234500Y-131679000D01*
X60166379Y-131658998D01*
X60119886Y-131605342D01*
X60108500Y-131553000D01*
X60108500Y-131297000D01*
X60128502Y-131228879D01*
X60182158Y-131182386D01*
X60234500Y-131171000D01*
X61058000Y-131171000D01*
X61058000Y-131142089D01*
X61078002Y-131073968D01*
X61131658Y-131027475D01*
X61152674Y-131020045D01*
X61158789Y-131018474D01*
X61158797Y-131018474D01*
X61202679Y-131001099D01*
X61208274Y-130999183D01*
X61236816Y-130990891D01*
X61253591Y-130986019D01*
X61253595Y-130986017D01*
X61271026Y-130975708D01*
X61288780Y-130967009D01*
X61307617Y-130959552D01*
X61345786Y-130931818D01*
X61350744Y-130928562D01*
X61391362Y-130904542D01*
X61405685Y-130890218D01*
X61420724Y-130877374D01*
X61437107Y-130865472D01*
X61467193Y-130829103D01*
X61471161Y-130824741D01*
X62288657Y-130007245D01*
X62301092Y-129997284D01*
X62300905Y-129997057D01*
X62307009Y-129992005D01*
X62307018Y-129992000D01*
X62354999Y-129940904D01*
X62376134Y-129919770D01*
X62380429Y-129914232D01*
X62384271Y-129909731D01*
X62416586Y-129875321D01*
X62426345Y-129857567D01*
X62437197Y-129841046D01*
X62449613Y-129825041D01*
X62468347Y-129781748D01*
X62470961Y-129776412D01*
X62486925Y-129747374D01*
X62493695Y-129735060D01*
X62498733Y-129715435D01*
X62505138Y-129696730D01*
X62513181Y-129678145D01*
X62520561Y-129631547D01*
X62521762Y-129625740D01*
X62533500Y-129580030D01*
X62533500Y-129559775D01*
X62535051Y-129540063D01*
X62538220Y-129520057D01*
X62535629Y-129492651D01*
X62533780Y-129473080D01*
X62533500Y-129467148D01*
X62533500Y-129202524D01*
X62553502Y-129134403D01*
X62565858Y-129118220D01*
X62639040Y-129036944D01*
X62734527Y-128871556D01*
X62793542Y-128689928D01*
X62813504Y-128500000D01*
X62793542Y-128310072D01*
X62734527Y-128128444D01*
X62639040Y-127963056D01*
X62639038Y-127963054D01*
X62639034Y-127963048D01*
X62511255Y-127821135D01*
X62356752Y-127708882D01*
X62182288Y-127631206D01*
X61995487Y-127591500D01*
X61804513Y-127591500D01*
X61617711Y-127631206D01*
X61443247Y-127708882D01*
X61288744Y-127821135D01*
X61160965Y-127963048D01*
X61160958Y-127963058D01*
X61065476Y-128128438D01*
X61065474Y-128128442D01*
X61035658Y-128220203D01*
X60995583Y-128278808D01*
X60930186Y-128306444D01*
X60860230Y-128294336D01*
X60840315Y-128282132D01*
X60796208Y-128249113D01*
X60796202Y-128249110D01*
X60659204Y-128198011D01*
X60659196Y-128198009D01*
X60598649Y-128191500D01*
X60598638Y-128191500D01*
X60422804Y-128191500D01*
X60354683Y-128171498D01*
X60308190Y-128117842D01*
X60297494Y-128052330D01*
X60306876Y-127963058D01*
X60313504Y-127900000D01*
X60293542Y-127710072D01*
X60234527Y-127528444D01*
X60139040Y-127363056D01*
X60139038Y-127363054D01*
X60139034Y-127363048D01*
X60011255Y-127221135D01*
X59856752Y-127108882D01*
X59682288Y-127031206D01*
X59495487Y-126991500D01*
X59304513Y-126991500D01*
X59117711Y-127031206D01*
X58943247Y-127108882D01*
X58788744Y-127221135D01*
X58660965Y-127363048D01*
X58660958Y-127363058D01*
X58565476Y-127528438D01*
X58565473Y-127528445D01*
X58506457Y-127710072D01*
X58486496Y-127900000D01*
X58502506Y-128052330D01*
X58489734Y-128122168D01*
X58441231Y-128174015D01*
X58377196Y-128191500D01*
X58001350Y-128191500D01*
X57940803Y-128198009D01*
X57940795Y-128198011D01*
X57803797Y-128249110D01*
X57803792Y-128249112D01*
X57686738Y-128336738D01*
X57599112Y-128453792D01*
X57599110Y-128453797D01*
X57548011Y-128590795D01*
X57548009Y-128590803D01*
X57541500Y-128651350D01*
X57541500Y-129698649D01*
X57548009Y-129759196D01*
X57548011Y-129759204D01*
X57599110Y-129896202D01*
X57599110Y-129896203D01*
X57599111Y-129896204D01*
X57686739Y-130013261D01*
X57686742Y-130013263D01*
X57696241Y-130020374D01*
X57737885Y-130074859D01*
X57748892Y-130102661D01*
X57750816Y-130108278D01*
X57763982Y-130153593D01*
X57774294Y-130171031D01*
X57782988Y-130188779D01*
X57790444Y-130207609D01*
X57790450Y-130207620D01*
X57818177Y-130245783D01*
X57821437Y-130250746D01*
X57845460Y-130291365D01*
X57846817Y-130292722D01*
X57847540Y-130294046D01*
X57850319Y-130297629D01*
X57849741Y-130298077D01*
X57880843Y-130355034D01*
X57875778Y-130425849D01*
X57833231Y-130482685D01*
X57811552Y-130494522D01*
X57811701Y-130494795D01*
X57803792Y-130499112D01*
X57686738Y-130586738D01*
X57599112Y-130703792D01*
X57599110Y-130703797D01*
X57548011Y-130840795D01*
X57548009Y-130840803D01*
X57541500Y-130901350D01*
X57541500Y-131948649D01*
X57548009Y-132009196D01*
X57548011Y-132009204D01*
X57599110Y-132146202D01*
X57599112Y-132146207D01*
X57686738Y-132263261D01*
X57763788Y-132320939D01*
X57804687Y-132373587D01*
X57818474Y-132406872D01*
X57818480Y-132406882D01*
X57891525Y-132502074D01*
X57916014Y-132533988D01*
X57944651Y-132555962D01*
X57950844Y-132561393D01*
X58649509Y-133260058D01*
X59140856Y-133751405D01*
X59174882Y-133813717D01*
X59169817Y-133884532D01*
X59127270Y-133941368D01*
X59060750Y-133966179D01*
X59051761Y-133966500D01*
X57664595Y-133966500D01*
X57596474Y-133946498D01*
X57575500Y-133929595D01*
X54125116Y-130479211D01*
X54091090Y-130416899D01*
X54096155Y-130346084D01*
X54138702Y-130289248D01*
X54176723Y-130269822D01*
X54317913Y-130225827D01*
X54465155Y-130136816D01*
X54586816Y-130015155D01*
X54617550Y-129964315D01*
X54669909Y-129916366D01*
X54725378Y-129903500D01*
X55246147Y-129903500D01*
X55261988Y-129905249D01*
X55262016Y-129904956D01*
X55269902Y-129905700D01*
X55269909Y-129905702D01*
X55339958Y-129903500D01*
X55369856Y-129903500D01*
X55376818Y-129902619D01*
X55382719Y-129902154D01*
X55429889Y-129900673D01*
X55449347Y-129895019D01*
X55468694Y-129891013D01*
X55488797Y-129888474D01*
X55532679Y-129871099D01*
X55538274Y-129869183D01*
X55566816Y-129860891D01*
X55583591Y-129856019D01*
X55583595Y-129856017D01*
X55601026Y-129845708D01*
X55618780Y-129837009D01*
X55637617Y-129829552D01*
X55675786Y-129801818D01*
X55680744Y-129798562D01*
X55721362Y-129774542D01*
X55735685Y-129760218D01*
X55750724Y-129747374D01*
X55767107Y-129735472D01*
X55797193Y-129699103D01*
X55801161Y-129694741D01*
X59788657Y-125707245D01*
X59801092Y-125697284D01*
X59800905Y-125697057D01*
X59807009Y-125692005D01*
X59807018Y-125692000D01*
X59854999Y-125640904D01*
X59876134Y-125619770D01*
X59880429Y-125614232D01*
X59884271Y-125609731D01*
X59916586Y-125575321D01*
X59926345Y-125557567D01*
X59937197Y-125541046D01*
X59949613Y-125525041D01*
X59968347Y-125481748D01*
X59970961Y-125476412D01*
X59993694Y-125435061D01*
X59993695Y-125435060D01*
X59998733Y-125415435D01*
X60005138Y-125396730D01*
X60013181Y-125378145D01*
X60020561Y-125331547D01*
X60021762Y-125325740D01*
X60033500Y-125280030D01*
X60033500Y-125259775D01*
X60035051Y-125240063D01*
X60038220Y-125220057D01*
X60035629Y-125192651D01*
X60033780Y-125173080D01*
X60033500Y-125167148D01*
X60033500Y-123930663D01*
X60053502Y-123862542D01*
X60107158Y-123816049D01*
X60177432Y-123805945D01*
X60242012Y-123835439D01*
G37*
%TD.AperFunction*%
%TA.AperFunction,Conductor*%
G36*
X55668170Y-126563502D02*
G01*
X55689144Y-126580405D01*
X55693189Y-126584450D01*
X55693196Y-126584455D01*
X55836394Y-126669143D01*
X55836397Y-126669143D01*
X55836399Y-126669145D01*
X55996169Y-126715562D01*
X56003634Y-126716149D01*
X56033494Y-126718500D01*
X56033498Y-126718500D01*
X56681405Y-126718500D01*
X56749526Y-126738502D01*
X56796019Y-126792158D01*
X56806123Y-126862432D01*
X56776629Y-126927012D01*
X56770500Y-126933595D01*
X55104500Y-128599595D01*
X55042188Y-128633621D01*
X55015405Y-128636500D01*
X54688634Y-128636500D01*
X54620513Y-128616498D01*
X54589444Y-128588201D01*
X54586819Y-128584850D01*
X54586816Y-128584845D01*
X54586810Y-128584839D01*
X54586808Y-128584836D01*
X54491067Y-128489095D01*
X54457041Y-128426783D01*
X54462106Y-128355968D01*
X54491067Y-128310905D01*
X54586811Y-128215160D01*
X54586816Y-128215155D01*
X54675827Y-128067913D01*
X54727013Y-127903649D01*
X54733500Y-127832265D01*
X54733499Y-127167736D01*
X54727013Y-127096351D01*
X54675827Y-126932087D01*
X54586816Y-126784845D01*
X54586815Y-126784844D01*
X54586811Y-126784839D01*
X54560567Y-126758595D01*
X54526541Y-126696283D01*
X54531606Y-126625468D01*
X54574153Y-126568632D01*
X54640673Y-126543821D01*
X54649662Y-126543500D01*
X55600049Y-126543500D01*
X55668170Y-126563502D01*
G37*
%TD.AperFunction*%
%TA.AperFunction,Conductor*%
G36*
X52371121Y-120066002D02*
G01*
X52417614Y-120119658D01*
X52429000Y-120172000D01*
X52429000Y-121077001D01*
X52442095Y-121090096D01*
X52476121Y-121152408D01*
X52479000Y-121179191D01*
X52479000Y-123020809D01*
X52458998Y-123088930D01*
X52442095Y-123109904D01*
X52429000Y-123122999D01*
X52429000Y-124028000D01*
X52408998Y-124096121D01*
X52355342Y-124142614D01*
X52303000Y-124154000D01*
X52047000Y-124154000D01*
X51978879Y-124133998D01*
X51932386Y-124080342D01*
X51921000Y-124028000D01*
X51921000Y-122979191D01*
X51941002Y-122911070D01*
X51957905Y-122890096D01*
X51971000Y-122877001D01*
X51971000Y-121322999D01*
X51957905Y-121309904D01*
X51923879Y-121247592D01*
X51921000Y-121220809D01*
X51921000Y-120172000D01*
X51941002Y-120103879D01*
X51994658Y-120057386D01*
X52047000Y-120046000D01*
X52303000Y-120046000D01*
X52371121Y-120066002D01*
G37*
%TD.AperFunction*%
%TA.AperFunction,Conductor*%
G36*
X66821121Y-120066002D02*
G01*
X66867614Y-120119658D01*
X66879000Y-120172000D01*
X66879000Y-121220809D01*
X66858998Y-121288930D01*
X66842095Y-121309904D01*
X66829000Y-121322999D01*
X66829000Y-122877001D01*
X66842095Y-122890096D01*
X66876121Y-122952408D01*
X66879000Y-122979191D01*
X66879000Y-124028000D01*
X66858998Y-124096121D01*
X66805342Y-124142614D01*
X66753000Y-124154000D01*
X66497000Y-124154000D01*
X66428879Y-124133998D01*
X66382386Y-124080342D01*
X66371000Y-124028000D01*
X66371000Y-123122999D01*
X66357905Y-123109904D01*
X66323879Y-123047592D01*
X66321000Y-123020809D01*
X66321000Y-121179191D01*
X66341002Y-121111070D01*
X66357905Y-121090096D01*
X66371000Y-121077001D01*
X66371000Y-120172000D01*
X66391002Y-120103879D01*
X66444658Y-120057386D01*
X66497000Y-120046000D01*
X66753000Y-120046000D01*
X66821121Y-120066002D01*
G37*
%TD.AperFunction*%
%TA.AperFunction,Conductor*%
G36*
X56098353Y-115103475D02*
G01*
X56131248Y-115127152D01*
X57729595Y-116725499D01*
X57763621Y-116787811D01*
X57766500Y-116814594D01*
X57766500Y-117355500D01*
X57746498Y-117423621D01*
X57692842Y-117470114D01*
X57640500Y-117481500D01*
X57064595Y-117481500D01*
X56996474Y-117461498D01*
X56975500Y-117444595D01*
X56842244Y-117311339D01*
X56832280Y-117298902D01*
X56832053Y-117299090D01*
X56827000Y-117292982D01*
X56775920Y-117245015D01*
X56754777Y-117223871D01*
X56754772Y-117223866D01*
X56749225Y-117219563D01*
X56744717Y-117215712D01*
X56710325Y-117183417D01*
X56710319Y-117183413D01*
X56692563Y-117173651D01*
X56676047Y-117162802D01*
X56660041Y-117150386D01*
X56629289Y-117137078D01*
X56616740Y-117131648D01*
X56611408Y-117129036D01*
X56570061Y-117106305D01*
X56550436Y-117101266D01*
X56531736Y-117094864D01*
X56513145Y-117086819D01*
X56513143Y-117086818D01*
X56513142Y-117086818D01*
X56466542Y-117079437D01*
X56460729Y-117078233D01*
X56415030Y-117066500D01*
X56394776Y-117066500D01*
X56375066Y-117064949D01*
X56355057Y-117061780D01*
X56355056Y-117061780D01*
X56308083Y-117066220D01*
X56302150Y-117066500D01*
X56059500Y-117066500D01*
X55991379Y-117046498D01*
X55944886Y-116992842D01*
X55933500Y-116940500D01*
X55933500Y-115483854D01*
X55935249Y-115468012D01*
X55934956Y-115467985D01*
X55935700Y-115460099D01*
X55935702Y-115460092D01*
X55933500Y-115390028D01*
X55933500Y-115360144D01*
X55932620Y-115353182D01*
X55932156Y-115347293D01*
X55930674Y-115300111D01*
X55925017Y-115280642D01*
X55921012Y-115261298D01*
X55918474Y-115241203D01*
X55918473Y-115241202D01*
X55917480Y-115233332D01*
X55920620Y-115232935D01*
X55922531Y-115176668D01*
X55962918Y-115118278D01*
X56028463Y-115090993D01*
X56098353Y-115103475D01*
G37*
%TD.AperFunction*%
%TA.AperFunction,Conductor*%
G36*
X64396121Y-110841002D02*
G01*
X64442614Y-110894658D01*
X64454000Y-110947000D01*
X64454000Y-111203000D01*
X64433998Y-111271121D01*
X64380342Y-111317614D01*
X64328000Y-111329000D01*
X62854000Y-111329000D01*
X62854000Y-112033000D01*
X62898853Y-112033000D01*
X62898852Y-112032999D01*
X62999229Y-112022744D01*
X62999241Y-112022742D01*
X63161884Y-111968847D01*
X63307727Y-111878890D01*
X63310899Y-111875719D01*
X63373209Y-111841690D01*
X63444025Y-111846751D01*
X63489101Y-111875719D01*
X63492272Y-111878890D01*
X63605858Y-111948951D01*
X63653336Y-112001737D01*
X63664739Y-112071812D01*
X63636447Y-112136927D01*
X63628806Y-112145287D01*
X60707023Y-115067070D01*
X60644711Y-115101096D01*
X60573896Y-115096031D01*
X60517060Y-115053484D01*
X60512675Y-115046683D01*
X60509553Y-115042386D01*
X60509552Y-115042383D01*
X60481812Y-115004203D01*
X60478564Y-114999258D01*
X60454542Y-114958638D01*
X60440214Y-114944310D01*
X60427384Y-114929289D01*
X60415472Y-114912893D01*
X60415469Y-114912891D01*
X60415469Y-114912890D01*
X60379107Y-114882808D01*
X60374726Y-114878822D01*
X57582905Y-112087000D01*
X57548879Y-112024688D01*
X57546000Y-111997905D01*
X57546000Y-111329000D01*
X58054000Y-111329000D01*
X58054000Y-112033000D01*
X58098853Y-112033000D01*
X58098852Y-112032999D01*
X58199229Y-112022744D01*
X58199241Y-112022742D01*
X58361884Y-111968847D01*
X58507727Y-111878890D01*
X58510899Y-111875719D01*
X58573209Y-111841690D01*
X58644025Y-111846751D01*
X58689101Y-111875719D01*
X58692272Y-111878890D01*
X58838115Y-111968847D01*
X59000758Y-112022742D01*
X59000770Y-112022744D01*
X59101147Y-112032999D01*
X59101147Y-112033000D01*
X59146000Y-112033000D01*
X59146000Y-111329000D01*
X59654000Y-111329000D01*
X59654000Y-112033000D01*
X59698853Y-112033000D01*
X59698852Y-112032999D01*
X59799229Y-112022744D01*
X59799241Y-112022742D01*
X59961884Y-111968847D01*
X60107727Y-111878890D01*
X60110899Y-111875719D01*
X60173209Y-111841690D01*
X60244025Y-111846751D01*
X60289101Y-111875719D01*
X60292272Y-111878890D01*
X60438115Y-111968847D01*
X60600758Y-112022742D01*
X60600770Y-112022744D01*
X60701147Y-112032999D01*
X60701147Y-112033000D01*
X60746000Y-112033000D01*
X60746000Y-111329000D01*
X61254000Y-111329000D01*
X61254000Y-112033000D01*
X61298853Y-112033000D01*
X61298852Y-112032999D01*
X61399229Y-112022744D01*
X61399241Y-112022742D01*
X61561884Y-111968847D01*
X61707727Y-111878890D01*
X61710899Y-111875719D01*
X61773209Y-111841690D01*
X61844025Y-111846751D01*
X61889101Y-111875719D01*
X61892272Y-111878890D01*
X62038115Y-111968847D01*
X62200758Y-112022742D01*
X62200770Y-112022744D01*
X62301147Y-112032999D01*
X62301147Y-112033000D01*
X62346000Y-112033000D01*
X62346000Y-111329000D01*
X61254000Y-111329000D01*
X60746000Y-111329000D01*
X59654000Y-111329000D01*
X59146000Y-111329000D01*
X58054000Y-111329000D01*
X57546000Y-111329000D01*
X57546000Y-110947000D01*
X57566002Y-110878879D01*
X57619658Y-110832386D01*
X57672000Y-110821000D01*
X64328000Y-110821000D01*
X64396121Y-110841002D01*
G37*
%TD.AperFunction*%
%TA.AperFunction,Conductor*%
G36*
X67116387Y-108640736D02*
G01*
X67158720Y-108697731D01*
X67166500Y-108741320D01*
X67166500Y-111058679D01*
X67146498Y-111126800D01*
X67092842Y-111173293D01*
X67022568Y-111183397D01*
X66980532Y-111169493D01*
X66947579Y-111151660D01*
X66947571Y-111151656D01*
X66734639Y-111078557D01*
X66734630Y-111078555D01*
X66687970Y-111070769D01*
X66512569Y-111041500D01*
X66287431Y-111041500D01*
X66139211Y-111066233D01*
X66065369Y-111078555D01*
X66065360Y-111078557D01*
X65900412Y-111135184D01*
X65829487Y-111138384D01*
X65768092Y-111102732D01*
X65735718Y-111039546D01*
X65733500Y-111016011D01*
X65733500Y-108783988D01*
X65753502Y-108715867D01*
X65807158Y-108669374D01*
X65877432Y-108659270D01*
X65900406Y-108664813D01*
X66065365Y-108721444D01*
X66287431Y-108758500D01*
X66287435Y-108758500D01*
X66512565Y-108758500D01*
X66512569Y-108758500D01*
X66734635Y-108721444D01*
X66947574Y-108648342D01*
X66980530Y-108630506D01*
X67049960Y-108615676D01*
X67116387Y-108640736D01*
G37*
%TD.AperFunction*%
%TA.AperFunction,Conductor*%
G36*
X62194000Y-56534390D02*
G01*
X62274507Y-56520957D01*
X62274516Y-56520955D01*
X62487369Y-56447883D01*
X62487371Y-56447882D01*
X62685300Y-56340768D01*
X62685301Y-56340767D01*
X62862902Y-56202534D01*
X63015327Y-56036955D01*
X63104217Y-55900899D01*
X63158220Y-55854810D01*
X63228568Y-55845235D01*
X63292925Y-55875212D01*
X63315183Y-55900898D01*
X63404279Y-56037270D01*
X63556765Y-56202911D01*
X63734417Y-56341184D01*
X63734420Y-56341186D01*
X63734424Y-56341189D01*
X63734427Y-56341191D01*
X63738788Y-56344040D01*
X63737478Y-56346043D01*
X63780796Y-56388945D01*
X63796500Y-56449862D01*
X63796500Y-57495490D01*
X63776498Y-57563611D01*
X63736648Y-57602730D01*
X63666962Y-57645713D01*
X63666953Y-57645720D01*
X63545720Y-57766953D01*
X63545715Y-57766959D01*
X63455698Y-57912899D01*
X63401763Y-58075666D01*
X63391500Y-58176119D01*
X63391500Y-59023880D01*
X63391499Y-59023880D01*
X63401763Y-59124333D01*
X63401764Y-59124336D01*
X63455698Y-59287101D01*
X63462286Y-59297781D01*
X63545715Y-59433040D01*
X63545720Y-59433046D01*
X63666953Y-59554279D01*
X63666959Y-59554284D01*
X63666960Y-59554285D01*
X63812899Y-59644302D01*
X63975664Y-59698236D01*
X63995756Y-59700288D01*
X64076120Y-59708500D01*
X64076128Y-59708500D01*
X64623880Y-59708500D01*
X64696936Y-59701035D01*
X64724336Y-59698236D01*
X64887101Y-59644302D01*
X64924356Y-59621322D01*
X64992830Y-59602586D01*
X65060569Y-59623844D01*
X65106062Y-59678350D01*
X65116500Y-59728564D01*
X65116500Y-60904193D01*
X65096498Y-60972314D01*
X65042842Y-61018807D01*
X65030139Y-61023795D01*
X64972781Y-61042801D01*
X64927261Y-61057885D01*
X64776347Y-61150970D01*
X64776341Y-61150975D01*
X64650975Y-61276341D01*
X64650970Y-61276347D01*
X64557885Y-61427262D01*
X64502113Y-61595572D01*
X64502112Y-61595579D01*
X64491500Y-61699446D01*
X64491500Y-63900544D01*
X64502112Y-64004425D01*
X64557885Y-64172738D01*
X64650970Y-64323652D01*
X64650975Y-64323658D01*
X64776341Y-64449024D01*
X64776347Y-64449029D01*
X64776348Y-64449030D01*
X64847721Y-64493054D01*
X64895199Y-64545839D01*
X64906602Y-64615914D01*
X64878310Y-64681030D01*
X64847721Y-64707535D01*
X64776660Y-64751365D01*
X64776654Y-64751370D01*
X64651370Y-64876654D01*
X64651365Y-64876660D01*
X64558342Y-65027474D01*
X64502606Y-65195678D01*
X64502605Y-65195681D01*
X64492000Y-65299483D01*
X64492000Y-66146000D01*
X67108000Y-66146000D01*
X67108000Y-65695306D01*
X67128002Y-65627185D01*
X67181658Y-65580692D01*
X67251932Y-65570588D01*
X67316512Y-65600082D01*
X67327633Y-65610993D01*
X67388747Y-65678866D01*
X67543248Y-65791118D01*
X67717712Y-65868794D01*
X67904513Y-65908500D01*
X68095487Y-65908500D01*
X68282288Y-65868794D01*
X68456752Y-65791118D01*
X68599440Y-65687448D01*
X68666306Y-65663591D01*
X68735458Y-65679671D01*
X68784938Y-65730585D01*
X68799500Y-65789385D01*
X68799500Y-105627223D01*
X68779498Y-105695344D01*
X68725842Y-105741837D01*
X68655568Y-105751941D01*
X68590988Y-105722447D01*
X68584405Y-105716318D01*
X67093335Y-104225248D01*
X67083370Y-104212810D01*
X67083143Y-104212999D01*
X67078092Y-104206893D01*
X67078091Y-104206891D01*
X67027012Y-104158925D01*
X67005868Y-104137780D01*
X67005863Y-104137775D01*
X67000316Y-104133472D01*
X66995808Y-104129621D01*
X66961416Y-104097326D01*
X66961410Y-104097322D01*
X66943654Y-104087560D01*
X66927138Y-104076711D01*
X66911132Y-104064295D01*
X66880380Y-104050987D01*
X66867831Y-104045557D01*
X66862500Y-104042945D01*
X66849521Y-104035810D01*
X66799461Y-103985466D01*
X66784566Y-103916050D01*
X66809565Y-103849600D01*
X66844073Y-103818152D01*
X66907731Y-103778888D01*
X67028885Y-103657734D01*
X67028890Y-103657728D01*
X67118847Y-103511884D01*
X67172742Y-103349241D01*
X67172744Y-103349229D01*
X67182999Y-103248852D01*
X67183000Y-103248852D01*
X67183000Y-103229000D01*
X66072000Y-103229000D01*
X66003879Y-103208998D01*
X65957386Y-103155342D01*
X65946000Y-103103000D01*
X65946000Y-102847000D01*
X65966002Y-102778879D01*
X66019658Y-102732386D01*
X66072000Y-102721000D01*
X67183000Y-102721000D01*
X67183000Y-102701147D01*
X67172744Y-102600770D01*
X67172742Y-102600758D01*
X67118847Y-102438115D01*
X67028890Y-102292271D01*
X67028885Y-102292265D01*
X67026067Y-102289447D01*
X67024749Y-102287034D01*
X67024338Y-102286514D01*
X67024426Y-102286443D01*
X66992041Y-102227135D01*
X66997106Y-102156320D01*
X67026073Y-102111251D01*
X67029285Y-102108040D01*
X67119302Y-101962101D01*
X67173236Y-101799336D01*
X67178399Y-101748801D01*
X67183500Y-101698880D01*
X67183500Y-101460305D01*
X67203502Y-101392184D01*
X67220400Y-101371214D01*
X67517379Y-101074234D01*
X67520109Y-101071664D01*
X67565365Y-101031573D01*
X67599707Y-100981817D01*
X67601944Y-100978778D01*
X67639223Y-100931197D01*
X67643095Y-100922592D01*
X67654298Y-100902729D01*
X67659654Y-100894971D01*
X67681094Y-100838434D01*
X67682531Y-100834965D01*
X67707344Y-100779836D01*
X67709043Y-100770559D01*
X67715166Y-100748596D01*
X67718513Y-100739774D01*
X67725799Y-100679758D01*
X67726368Y-100676023D01*
X67737264Y-100616572D01*
X67733614Y-100556246D01*
X67733500Y-100552443D01*
X67733500Y-96946040D01*
X67753502Y-96877919D01*
X67783990Y-96845172D01*
X67813261Y-96823261D01*
X67900889Y-96706204D01*
X67951989Y-96569201D01*
X67952485Y-96564593D01*
X67958499Y-96508649D01*
X67958500Y-96508632D01*
X67958500Y-94711367D01*
X67958499Y-94711350D01*
X67951990Y-94650803D01*
X67951988Y-94650795D01*
X67900889Y-94513797D01*
X67900887Y-94513792D01*
X67813261Y-94396738D01*
X67696207Y-94309112D01*
X67696202Y-94309110D01*
X67559204Y-94258011D01*
X67559196Y-94258009D01*
X67498649Y-94251500D01*
X67498638Y-94251500D01*
X67474481Y-94251500D01*
X67406360Y-94231498D01*
X67385386Y-94214595D01*
X66727588Y-93556797D01*
X66742315Y-93554680D01*
X66873100Y-93494952D01*
X66981761Y-93400798D01*
X67059493Y-93279844D01*
X67084360Y-93195151D01*
X67723076Y-93833867D01*
X67723077Y-93833866D01*
X67798419Y-93718551D01*
X67888820Y-93512456D01*
X67888823Y-93512449D01*
X67944067Y-93294292D01*
X67962653Y-93070000D01*
X67944067Y-92845707D01*
X67888823Y-92627550D01*
X67888820Y-92627543D01*
X67798422Y-92421456D01*
X67798417Y-92421448D01*
X67723076Y-92306132D01*
X67084360Y-92944848D01*
X67059493Y-92860156D01*
X66981761Y-92739202D01*
X66873100Y-92645048D01*
X66742315Y-92585320D01*
X66727586Y-92583202D01*
X67365689Y-91945100D01*
X67365688Y-91945099D01*
X67345306Y-91929235D01*
X67345294Y-91929227D01*
X67311792Y-91911097D01*
X67261402Y-91861084D01*
X67246050Y-91791767D01*
X67270611Y-91725154D01*
X67311790Y-91689472D01*
X67345576Y-91671189D01*
X67523240Y-91532906D01*
X67675722Y-91367268D01*
X67798860Y-91178791D01*
X67889296Y-90972616D01*
X67944564Y-90754368D01*
X67963156Y-90530000D01*
X67944564Y-90305632D01*
X67889296Y-90087384D01*
X67798860Y-89881209D01*
X67792140Y-89870924D01*
X67675724Y-89692734D01*
X67675720Y-89692729D01*
X67523237Y-89527091D01*
X67441382Y-89463381D01*
X67345576Y-89388811D01*
X67312319Y-89370813D01*
X67261929Y-89320802D01*
X67246576Y-89251485D01*
X67271136Y-89184872D01*
X67312320Y-89149186D01*
X67345576Y-89131189D01*
X67523240Y-88992906D01*
X67675722Y-88827268D01*
X67798860Y-88638791D01*
X67889296Y-88432616D01*
X67944564Y-88214368D01*
X67963156Y-87990000D01*
X67944564Y-87765632D01*
X67906390Y-87614885D01*
X67889297Y-87547387D01*
X67889296Y-87547386D01*
X67889296Y-87547384D01*
X67798860Y-87341209D01*
X67765711Y-87290470D01*
X67675724Y-87152734D01*
X67675720Y-87152729D01*
X67553547Y-87020016D01*
X67523240Y-86987094D01*
X67523239Y-86987093D01*
X67523237Y-86987091D01*
X67408011Y-86897407D01*
X67345576Y-86848811D01*
X67147574Y-86741658D01*
X67147572Y-86741657D01*
X67147571Y-86741656D01*
X66934639Y-86668557D01*
X66934630Y-86668555D01*
X66872610Y-86658206D01*
X66712569Y-86631500D01*
X66487431Y-86631500D01*
X66339211Y-86656233D01*
X66265369Y-86668555D01*
X66265360Y-86668557D01*
X66052428Y-86741656D01*
X66052426Y-86741658D01*
X65889116Y-86830037D01*
X65854426Y-86848810D01*
X65854424Y-86848811D01*
X65676762Y-86987091D01*
X65524279Y-87152729D01*
X65524275Y-87152734D01*
X65401141Y-87341206D01*
X65310703Y-87547386D01*
X65310702Y-87547387D01*
X65255437Y-87765624D01*
X65255436Y-87765630D01*
X65255436Y-87765632D01*
X65236844Y-87990000D01*
X65251469Y-88166500D01*
X65255437Y-88214375D01*
X65283181Y-88323934D01*
X65280514Y-88394881D01*
X65250133Y-88443960D01*
X64799095Y-88894999D01*
X64736782Y-88929024D01*
X64665967Y-88923960D01*
X64609131Y-88881413D01*
X64584320Y-88814893D01*
X64583999Y-88805904D01*
X64583999Y-88134348D01*
X64585748Y-88118511D01*
X64585454Y-88118484D01*
X64586200Y-88110591D01*
X64583999Y-88040558D01*
X64583999Y-88010650D01*
X64583999Y-88010643D01*
X64583119Y-88003684D01*
X64582654Y-87997779D01*
X64581172Y-87950609D01*
X64575521Y-87931162D01*
X64571511Y-87911799D01*
X64568973Y-87891702D01*
X64551599Y-87847822D01*
X64549683Y-87842224D01*
X64536517Y-87796905D01*
X64526199Y-87779460D01*
X64517504Y-87761708D01*
X64510052Y-87742884D01*
X64510049Y-87742878D01*
X64482317Y-87704709D01*
X64479061Y-87699752D01*
X64455041Y-87659136D01*
X64455039Y-87659134D01*
X64455039Y-87659133D01*
X64440717Y-87644811D01*
X64427876Y-87629778D01*
X64417056Y-87614886D01*
X64415971Y-87613392D01*
X64379607Y-87583309D01*
X64375235Y-87579330D01*
X63882244Y-87086339D01*
X63872279Y-87073901D01*
X63872052Y-87074090D01*
X63867001Y-87067984D01*
X63867000Y-87067982D01*
X63815921Y-87020016D01*
X63794777Y-86998871D01*
X63794772Y-86998866D01*
X63789225Y-86994563D01*
X63784717Y-86990712D01*
X63750325Y-86958417D01*
X63750319Y-86958413D01*
X63732563Y-86948651D01*
X63716047Y-86937802D01*
X63700041Y-86925386D01*
X63696363Y-86923794D01*
X63693940Y-86921778D01*
X63693216Y-86921350D01*
X63693285Y-86921233D01*
X63641790Y-86878383D01*
X63620430Y-86810676D01*
X63639067Y-86742169D01*
X63682270Y-86699702D01*
X63706938Y-86685115D01*
X63716356Y-86679546D01*
X63716357Y-86679544D01*
X63716362Y-86679542D01*
X63730685Y-86665218D01*
X63745724Y-86652374D01*
X63762107Y-86640472D01*
X63792193Y-86604103D01*
X63796161Y-86599741D01*
X63888657Y-86507245D01*
X63901092Y-86497284D01*
X63900905Y-86497057D01*
X63907009Y-86492005D01*
X63907018Y-86492000D01*
X63954999Y-86440904D01*
X63976134Y-86419770D01*
X63980429Y-86414232D01*
X63984271Y-86409731D01*
X64016586Y-86375321D01*
X64026345Y-86357567D01*
X64037197Y-86341046D01*
X64049613Y-86325041D01*
X64068347Y-86281748D01*
X64070961Y-86276412D01*
X64093694Y-86235061D01*
X64093695Y-86235060D01*
X64098733Y-86215435D01*
X64105138Y-86196730D01*
X64113181Y-86178145D01*
X64120563Y-86131525D01*
X64121761Y-86125744D01*
X64133500Y-86080030D01*
X64133500Y-86059769D01*
X64135051Y-86040058D01*
X64138219Y-86020056D01*
X64133780Y-85973089D01*
X64133500Y-85967157D01*
X64133500Y-85783849D01*
X64135249Y-85768012D01*
X64134955Y-85767985D01*
X64135701Y-85760092D01*
X64135439Y-85751771D01*
X64133500Y-85690059D01*
X64133500Y-85660144D01*
X64132620Y-85653185D01*
X64132155Y-85647280D01*
X64130673Y-85600110D01*
X64125022Y-85580663D01*
X64121012Y-85561300D01*
X64118474Y-85541203D01*
X64101100Y-85497323D01*
X64099184Y-85491725D01*
X64086018Y-85446406D01*
X64075700Y-85428961D01*
X64067005Y-85411209D01*
X64059553Y-85392385D01*
X64059550Y-85392379D01*
X64031818Y-85354210D01*
X64028562Y-85349253D01*
X64004542Y-85308637D01*
X64004540Y-85308635D01*
X64004540Y-85308634D01*
X63990218Y-85294312D01*
X63977377Y-85279279D01*
X63965471Y-85262892D01*
X63958029Y-85256735D01*
X63929108Y-85232810D01*
X63924736Y-85228831D01*
X63832244Y-85136339D01*
X63822279Y-85123901D01*
X63822052Y-85124090D01*
X63817001Y-85117984D01*
X63817000Y-85117982D01*
X63765921Y-85070016D01*
X63744777Y-85048871D01*
X63744772Y-85048866D01*
X63739225Y-85044563D01*
X63734717Y-85040712D01*
X63700325Y-85008417D01*
X63700319Y-85008413D01*
X63682563Y-84998651D01*
X63666047Y-84987802D01*
X63650041Y-84975386D01*
X63619289Y-84962078D01*
X63606740Y-84956648D01*
X63601408Y-84954036D01*
X63560061Y-84931305D01*
X63540436Y-84926266D01*
X63521736Y-84919864D01*
X63503145Y-84911819D01*
X63503143Y-84911818D01*
X63503142Y-84911818D01*
X63456542Y-84904437D01*
X63450729Y-84903233D01*
X63405030Y-84891500D01*
X63384776Y-84891500D01*
X63365066Y-84889949D01*
X63345057Y-84886780D01*
X63345056Y-84886780D01*
X63298083Y-84891220D01*
X63292150Y-84891500D01*
X63227168Y-84891500D01*
X63178950Y-84881909D01*
X63084521Y-84842795D01*
X63029240Y-84798246D01*
X63007346Y-84738736D01*
X62993909Y-84602305D01*
X62993908Y-84602303D01*
X62993908Y-84602299D01*
X62936241Y-84412196D01*
X62842595Y-84236996D01*
X62716568Y-84083432D01*
X62685396Y-84057850D01*
X62670738Y-84045820D01*
X62630769Y-83987143D01*
X62628869Y-83916172D01*
X62661574Y-83859329D01*
X62950502Y-83570401D01*
X63012812Y-83536378D01*
X63039595Y-83533499D01*
X63332262Y-83533499D01*
X63332264Y-83533499D01*
X63403649Y-83527013D01*
X63567913Y-83475827D01*
X63715155Y-83386816D01*
X63836816Y-83265155D01*
X63925827Y-83117913D01*
X63977013Y-82953649D01*
X63983500Y-82882265D01*
X63983499Y-82367736D01*
X63977013Y-82296351D01*
X63925827Y-82132087D01*
X63836816Y-81984845D01*
X63836815Y-81984844D01*
X63836811Y-81984839D01*
X63741067Y-81889095D01*
X63707041Y-81826783D01*
X63712106Y-81755968D01*
X63741067Y-81710905D01*
X63806567Y-81645405D01*
X63868879Y-81611379D01*
X63895662Y-81608500D01*
X64640406Y-81608500D01*
X64708527Y-81628502D01*
X64729501Y-81645405D01*
X65250132Y-82166036D01*
X65284158Y-82228348D01*
X65283182Y-82286061D01*
X65255436Y-82395628D01*
X65236844Y-82620000D01*
X65255437Y-82844375D01*
X65310702Y-83062612D01*
X65310703Y-83062613D01*
X65310704Y-83062616D01*
X65353699Y-83160636D01*
X65401141Y-83268793D01*
X65524275Y-83457265D01*
X65524279Y-83457270D01*
X65676762Y-83622908D01*
X65723774Y-83659499D01*
X65854424Y-83761189D01*
X66052426Y-83868342D01*
X66052427Y-83868342D01*
X66052428Y-83868343D01*
X66134124Y-83896389D01*
X66265365Y-83941444D01*
X66487431Y-83978500D01*
X66487435Y-83978500D01*
X66712565Y-83978500D01*
X66712569Y-83978500D01*
X66934635Y-83941444D01*
X67147574Y-83868342D01*
X67345576Y-83761189D01*
X67523240Y-83622906D01*
X67675722Y-83457268D01*
X67798860Y-83268791D01*
X67889296Y-83062616D01*
X67944564Y-82844368D01*
X67963156Y-82620000D01*
X67944564Y-82395632D01*
X67902202Y-82228348D01*
X67889297Y-82177387D01*
X67889296Y-82177386D01*
X67889296Y-82177384D01*
X67798860Y-81971209D01*
X67790840Y-81958933D01*
X67675724Y-81782734D01*
X67675720Y-81782729D01*
X67533742Y-81628502D01*
X67523240Y-81617094D01*
X67523239Y-81617093D01*
X67523237Y-81617091D01*
X67441382Y-81553381D01*
X67345576Y-81478811D01*
X67312319Y-81460813D01*
X67261929Y-81410802D01*
X67246576Y-81341485D01*
X67271136Y-81274872D01*
X67312320Y-81239186D01*
X67345576Y-81221189D01*
X67523240Y-81082906D01*
X67675722Y-80917268D01*
X67798860Y-80728791D01*
X67889296Y-80522616D01*
X67944564Y-80304368D01*
X67963156Y-80080000D01*
X67944564Y-79855632D01*
X67930395Y-79799679D01*
X67889297Y-79637387D01*
X67889296Y-79637386D01*
X67889296Y-79637384D01*
X67798860Y-79431209D01*
X67775503Y-79395458D01*
X67675724Y-79242734D01*
X67675720Y-79242729D01*
X67523237Y-79077091D01*
X67441382Y-79013381D01*
X67345576Y-78938811D01*
X67312319Y-78920813D01*
X67261929Y-78870802D01*
X67246576Y-78801485D01*
X67271136Y-78734872D01*
X67312320Y-78699186D01*
X67312847Y-78698901D01*
X67345576Y-78681189D01*
X67523240Y-78542906D01*
X67675722Y-78377268D01*
X67798860Y-78188791D01*
X67889296Y-77982616D01*
X67944564Y-77764368D01*
X67963156Y-77540000D01*
X67944564Y-77315632D01*
X67944562Y-77315624D01*
X67889297Y-77097387D01*
X67889296Y-77097386D01*
X67889296Y-77097384D01*
X67798860Y-76891209D01*
X67783291Y-76867379D01*
X67675724Y-76702734D01*
X67675719Y-76702729D01*
X67658584Y-76684116D01*
X67532524Y-76547179D01*
X67501103Y-76483514D01*
X67509090Y-76412968D01*
X67553948Y-76357939D01*
X67581183Y-76343789D01*
X67696204Y-76300889D01*
X67813261Y-76213261D01*
X67900889Y-76096204D01*
X67951989Y-75959201D01*
X67955845Y-75923339D01*
X67958499Y-75898649D01*
X67958500Y-75898632D01*
X67958500Y-74101367D01*
X67958499Y-74101350D01*
X67951990Y-74040803D01*
X67951988Y-74040795D01*
X67900889Y-73903797D01*
X67900887Y-73903792D01*
X67813261Y-73786738D01*
X67696207Y-73699112D01*
X67696202Y-73699110D01*
X67559204Y-73648011D01*
X67559196Y-73648009D01*
X67498649Y-73641500D01*
X67498638Y-73641500D01*
X65701362Y-73641500D01*
X65701350Y-73641500D01*
X65640803Y-73648009D01*
X65640795Y-73648011D01*
X65503797Y-73699110D01*
X65503792Y-73699112D01*
X65386738Y-73786738D01*
X65299112Y-73903792D01*
X65299110Y-73903797D01*
X65248011Y-74040795D01*
X65248009Y-74040803D01*
X65241500Y-74101350D01*
X65241500Y-74240500D01*
X65221498Y-74308621D01*
X65167842Y-74355114D01*
X65115500Y-74366500D01*
X62683853Y-74366500D01*
X62668011Y-74364750D01*
X62667984Y-74365044D01*
X62660091Y-74364297D01*
X62590028Y-74366500D01*
X62560144Y-74366500D01*
X62560140Y-74366500D01*
X62560129Y-74366501D01*
X62553190Y-74367377D01*
X62547277Y-74367843D01*
X62500114Y-74369325D01*
X62500107Y-74369327D01*
X62480649Y-74374979D01*
X62461304Y-74378985D01*
X62441206Y-74381525D01*
X62441197Y-74381527D01*
X62397331Y-74398894D01*
X62391716Y-74400817D01*
X62346408Y-74413981D01*
X62328964Y-74424297D01*
X62311218Y-74432990D01*
X62292382Y-74440448D01*
X62254209Y-74468181D01*
X62249248Y-74471440D01*
X62208638Y-74495458D01*
X62194311Y-74509784D01*
X62179285Y-74522617D01*
X62162895Y-74534525D01*
X62162893Y-74534527D01*
X62132808Y-74570892D01*
X62128812Y-74575283D01*
X60873905Y-75830189D01*
X60811593Y-75864215D01*
X60740778Y-75859150D01*
X60683942Y-75816603D01*
X60659131Y-75750083D01*
X60665206Y-75701461D01*
X60697392Y-75604330D01*
X60697394Y-75604318D01*
X60707999Y-75500516D01*
X60708000Y-75500516D01*
X60708000Y-74654000D01*
X59654000Y-74654000D01*
X59654000Y-76208000D01*
X60000517Y-76208000D01*
X60000516Y-76207999D01*
X60104318Y-76197394D01*
X60104330Y-76197392D01*
X60201461Y-76165206D01*
X60272415Y-76162765D01*
X60333426Y-76199073D01*
X60365121Y-76262602D01*
X60357439Y-76333181D01*
X60330189Y-76373905D01*
X57598595Y-79105500D01*
X57536283Y-79139526D01*
X57465468Y-79134461D01*
X57408632Y-79091914D01*
X57383821Y-79025394D01*
X57383500Y-79016405D01*
X57383500Y-74654000D01*
X58092000Y-74654000D01*
X58092000Y-75500516D01*
X58102605Y-75604318D01*
X58102606Y-75604321D01*
X58158342Y-75772525D01*
X58251365Y-75923339D01*
X58251370Y-75923345D01*
X58376654Y-76048629D01*
X58376660Y-76048634D01*
X58527474Y-76141657D01*
X58695678Y-76197393D01*
X58695681Y-76197394D01*
X58799483Y-76207999D01*
X58799483Y-76208000D01*
X59146000Y-76208000D01*
X59146000Y-74654000D01*
X58092000Y-74654000D01*
X57383500Y-74654000D01*
X57383500Y-73835305D01*
X57403502Y-73767184D01*
X57420399Y-73746214D01*
X57876907Y-73289707D01*
X57939217Y-73255684D01*
X58010032Y-73260748D01*
X58066868Y-73303295D01*
X58091679Y-73369815D01*
X58092000Y-73378804D01*
X58092000Y-74146000D01*
X60708000Y-74146000D01*
X60708000Y-73299483D01*
X60697394Y-73195681D01*
X60697393Y-73195678D01*
X60641657Y-73027474D01*
X60548634Y-72876660D01*
X60548629Y-72876654D01*
X60423345Y-72751370D01*
X60423336Y-72751363D01*
X60352279Y-72707535D01*
X60304800Y-72654750D01*
X60293397Y-72584675D01*
X60321689Y-72519559D01*
X60352274Y-72493056D01*
X60373782Y-72479790D01*
X60442258Y-72461053D01*
X60499321Y-72475908D01*
X60612196Y-72536241D01*
X60802299Y-72593908D01*
X60802303Y-72593908D01*
X60802305Y-72593909D01*
X60999997Y-72613380D01*
X61000000Y-72613380D01*
X61000003Y-72613380D01*
X61197694Y-72593909D01*
X61197695Y-72593908D01*
X61197701Y-72593908D01*
X61387804Y-72536241D01*
X61563004Y-72442595D01*
X61716568Y-72316568D01*
X61842595Y-72163004D01*
X61936241Y-71987804D01*
X61993908Y-71797701D01*
X61998703Y-71749024D01*
X62013380Y-71600003D01*
X62013380Y-71599996D01*
X61993909Y-71402305D01*
X61993908Y-71402303D01*
X61993908Y-71402299D01*
X61936241Y-71212196D01*
X61842595Y-71036996D01*
X61716568Y-70883432D01*
X61563004Y-70757405D01*
X61387804Y-70663759D01*
X61197701Y-70606092D01*
X61197700Y-70606091D01*
X61197694Y-70606090D01*
X61135859Y-70600000D01*
X62837346Y-70600000D01*
X62855932Y-70824292D01*
X62911176Y-71042449D01*
X62911179Y-71042456D01*
X63001580Y-71248548D01*
X63076922Y-71363866D01*
X63715638Y-70725149D01*
X63740507Y-70809844D01*
X63818239Y-70930798D01*
X63926900Y-71024952D01*
X64057685Y-71084680D01*
X64072412Y-71086797D01*
X63434310Y-71724898D01*
X63454694Y-71740763D01*
X63454696Y-71740765D01*
X63652632Y-71847883D01*
X63865483Y-71920955D01*
X63865490Y-71920957D01*
X64087477Y-71958000D01*
X64312523Y-71958000D01*
X64534509Y-71920957D01*
X64534516Y-71920955D01*
X64747369Y-71847883D01*
X64747371Y-71847882D01*
X64945298Y-71740768D01*
X64945302Y-71740766D01*
X64965689Y-71724898D01*
X64327588Y-71086797D01*
X64342315Y-71084680D01*
X64473100Y-71024952D01*
X64581761Y-70930798D01*
X64659493Y-70809844D01*
X64684360Y-70725151D01*
X65323076Y-71363867D01*
X65323077Y-71363866D01*
X65398419Y-71248551D01*
X65488820Y-71042456D01*
X65488823Y-71042449D01*
X65544067Y-70824292D01*
X65562653Y-70600000D01*
X65544067Y-70375707D01*
X65488823Y-70157550D01*
X65488820Y-70157543D01*
X65398422Y-69951456D01*
X65398417Y-69951448D01*
X65323076Y-69836132D01*
X64684360Y-70474848D01*
X64659493Y-70390156D01*
X64581761Y-70269202D01*
X64473100Y-70175048D01*
X64342315Y-70115320D01*
X64327587Y-70113202D01*
X64965689Y-69475100D01*
X64965688Y-69475099D01*
X64945306Y-69459235D01*
X64945299Y-69459230D01*
X64747371Y-69352118D01*
X64747369Y-69352116D01*
X64534516Y-69279044D01*
X64534509Y-69279042D01*
X64312523Y-69242000D01*
X64087477Y-69242000D01*
X63865490Y-69279042D01*
X63865483Y-69279044D01*
X63652630Y-69352116D01*
X63652628Y-69352118D01*
X63454700Y-69459230D01*
X63434310Y-69475099D01*
X63434310Y-69475101D01*
X64072411Y-70113202D01*
X64057685Y-70115320D01*
X63926900Y-70175048D01*
X63818239Y-70269202D01*
X63740507Y-70390156D01*
X63715638Y-70474849D01*
X63076921Y-69836132D01*
X63001580Y-69951451D01*
X62911179Y-70157543D01*
X62911176Y-70157550D01*
X62855932Y-70375707D01*
X62837346Y-70600000D01*
X61135859Y-70600000D01*
X60993840Y-70586013D01*
X60994107Y-70583296D01*
X60937304Y-70566618D01*
X60916330Y-70549715D01*
X60745404Y-70378789D01*
X60711378Y-70316477D01*
X60708499Y-70289694D01*
X60708499Y-69699455D01*
X60697887Y-69595574D01*
X60687922Y-69565500D01*
X60642115Y-69427262D01*
X60549030Y-69276348D01*
X60549029Y-69276347D01*
X60549024Y-69276341D01*
X60423658Y-69150975D01*
X60423652Y-69150970D01*
X60272738Y-69057885D01*
X60169865Y-69023797D01*
X60111496Y-68983384D01*
X60084240Y-68917827D01*
X60083500Y-68904193D01*
X60083500Y-68184500D01*
X60103502Y-68116379D01*
X60157158Y-68069886D01*
X60209500Y-68058500D01*
X61348632Y-68058500D01*
X61348638Y-68058500D01*
X61348645Y-68058499D01*
X61348649Y-68058499D01*
X61409196Y-68051990D01*
X61409199Y-68051989D01*
X61409201Y-68051989D01*
X61418210Y-68048629D01*
X61428045Y-68044960D01*
X61546204Y-68000889D01*
X61581201Y-67974691D01*
X61663261Y-67913261D01*
X61750887Y-67796207D01*
X61750887Y-67796206D01*
X61750889Y-67796204D01*
X61801989Y-67659201D01*
X61807890Y-67604318D01*
X61808499Y-67598649D01*
X61808500Y-67598632D01*
X61808500Y-66654000D01*
X64492000Y-66654000D01*
X64492000Y-67500516D01*
X64502605Y-67604318D01*
X64502606Y-67604321D01*
X64558342Y-67772525D01*
X64651365Y-67923339D01*
X64651370Y-67923345D01*
X64776654Y-68048629D01*
X64776660Y-68048634D01*
X64927474Y-68141657D01*
X65095678Y-68197393D01*
X65095681Y-68197394D01*
X65199483Y-68207999D01*
X65199483Y-68208000D01*
X65546000Y-68208000D01*
X65546000Y-66654000D01*
X66054000Y-66654000D01*
X66054000Y-68208000D01*
X66400517Y-68208000D01*
X66400516Y-68207999D01*
X66504318Y-68197394D01*
X66504321Y-68197393D01*
X66672525Y-68141657D01*
X66823339Y-68048634D01*
X66823345Y-68048629D01*
X66948629Y-67923345D01*
X66948634Y-67923339D01*
X67041657Y-67772525D01*
X67097393Y-67604321D01*
X67097394Y-67604318D01*
X67107999Y-67500516D01*
X67108000Y-67500516D01*
X67108000Y-66654000D01*
X66054000Y-66654000D01*
X65546000Y-66654000D01*
X64492000Y-66654000D01*
X61808500Y-66654000D01*
X61808500Y-65501367D01*
X61808499Y-65501350D01*
X61801990Y-65440803D01*
X61801988Y-65440795D01*
X61750889Y-65303797D01*
X61750887Y-65303792D01*
X61663261Y-65186738D01*
X61546207Y-65099112D01*
X61546202Y-65099110D01*
X61409204Y-65048011D01*
X61409196Y-65048009D01*
X61348649Y-65041500D01*
X61348638Y-65041500D01*
X60209500Y-65041500D01*
X60141379Y-65021498D01*
X60094886Y-64967842D01*
X60083500Y-64915500D01*
X60083500Y-61884058D01*
X60103502Y-61815937D01*
X60157158Y-61769444D01*
X60196033Y-61758780D01*
X60259196Y-61751990D01*
X60259199Y-61751989D01*
X60259201Y-61751989D01*
X60396204Y-61700889D01*
X60474910Y-61641969D01*
X60541425Y-61617160D01*
X60610799Y-61632250D01*
X60625926Y-61641971D01*
X60704036Y-61700445D01*
X60840906Y-61751494D01*
X60901402Y-61757999D01*
X60901415Y-61758000D01*
X61446000Y-61758000D01*
X61446000Y-60504000D01*
X61954000Y-60504000D01*
X61954000Y-61758000D01*
X62498585Y-61758000D01*
X62498597Y-61757999D01*
X62559093Y-61751494D01*
X62695964Y-61700444D01*
X62695965Y-61700444D01*
X62812904Y-61612904D01*
X62900444Y-61495965D01*
X62900444Y-61495964D01*
X62951494Y-61359093D01*
X62957999Y-61298597D01*
X62958000Y-61298585D01*
X62958000Y-60504000D01*
X61954000Y-60504000D01*
X61446000Y-60504000D01*
X61446000Y-58742000D01*
X61954000Y-58742000D01*
X61954000Y-59996000D01*
X62958000Y-59996000D01*
X62958000Y-59201414D01*
X62957999Y-59201402D01*
X62951494Y-59140906D01*
X62900444Y-59004035D01*
X62900444Y-59004034D01*
X62812904Y-58887095D01*
X62695965Y-58799555D01*
X62559093Y-58748505D01*
X62498597Y-58742000D01*
X61954000Y-58742000D01*
X61446000Y-58742000D01*
X60901402Y-58742000D01*
X60840906Y-58748505D01*
X60704035Y-58799555D01*
X60625924Y-58858028D01*
X60559404Y-58882838D01*
X60490030Y-58867746D01*
X60474907Y-58858027D01*
X60396207Y-58799112D01*
X60396202Y-58799110D01*
X60259204Y-58748011D01*
X60259196Y-58748009D01*
X60198649Y-58741500D01*
X60198638Y-58741500D01*
X58601362Y-58741500D01*
X58601350Y-58741500D01*
X58540803Y-58748009D01*
X58540795Y-58748011D01*
X58403797Y-58799110D01*
X58403792Y-58799113D01*
X58325509Y-58857715D01*
X58258989Y-58882526D01*
X58189614Y-58867434D01*
X58174491Y-58857715D01*
X58096207Y-58799113D01*
X58096202Y-58799110D01*
X57959204Y-58748011D01*
X57959196Y-58748009D01*
X57898649Y-58741500D01*
X57898638Y-58741500D01*
X56301362Y-58741500D01*
X56301350Y-58741500D01*
X56240803Y-58748009D01*
X56240795Y-58748011D01*
X56103797Y-58799110D01*
X56103792Y-58799112D01*
X55986738Y-58886738D01*
X55899112Y-59003792D01*
X55899110Y-59003797D01*
X55848011Y-59140795D01*
X55848009Y-59140803D01*
X55841500Y-59201350D01*
X55841500Y-59440500D01*
X55821498Y-59508621D01*
X55767842Y-59555114D01*
X55715500Y-59566500D01*
X55397724Y-59566500D01*
X55329603Y-59546498D01*
X55283110Y-59492842D01*
X55273006Y-59422568D01*
X55290484Y-59374352D01*
X55337714Y-59297781D01*
X55344302Y-59287101D01*
X55398236Y-59124336D01*
X55401035Y-59096936D01*
X55408500Y-59023880D01*
X55408500Y-58176119D01*
X55399153Y-58084636D01*
X55398236Y-58075664D01*
X55344302Y-57912899D01*
X55254285Y-57766960D01*
X55254283Y-57766958D01*
X55254279Y-57766953D01*
X55133046Y-57645720D01*
X55133037Y-57645713D01*
X55063352Y-57602730D01*
X55015874Y-57549944D01*
X55003500Y-57495490D01*
X55003500Y-56449862D01*
X55023502Y-56381741D01*
X55062335Y-56345760D01*
X55061212Y-56344040D01*
X55065566Y-56341194D01*
X55065576Y-56341189D01*
X55243240Y-56202906D01*
X55395722Y-56037268D01*
X55395927Y-56036955D01*
X55484816Y-55900899D01*
X55538819Y-55854810D01*
X55609167Y-55845235D01*
X55673524Y-55875212D01*
X55695782Y-55900898D01*
X55784674Y-56036958D01*
X55937097Y-56202534D01*
X56114698Y-56340767D01*
X56114699Y-56340768D01*
X56312628Y-56447882D01*
X56312630Y-56447883D01*
X56525483Y-56520955D01*
X56525492Y-56520957D01*
X56606000Y-56534391D01*
X56606000Y-55633674D01*
X56717685Y-55684680D01*
X56824237Y-55700000D01*
X56895763Y-55700000D01*
X57002315Y-55684680D01*
X57114000Y-55633674D01*
X57114000Y-56534390D01*
X57194507Y-56520957D01*
X57194516Y-56520955D01*
X57407369Y-56447883D01*
X57407371Y-56447882D01*
X57605300Y-56340768D01*
X57605301Y-56340767D01*
X57782902Y-56202534D01*
X57935327Y-56036955D01*
X58024517Y-55900441D01*
X58078521Y-55854352D01*
X58148868Y-55844777D01*
X58213226Y-55874754D01*
X58235483Y-55900441D01*
X58324672Y-56036955D01*
X58477097Y-56202534D01*
X58654698Y-56340767D01*
X58654699Y-56340768D01*
X58852628Y-56447882D01*
X58852630Y-56447883D01*
X59065483Y-56520955D01*
X59065492Y-56520957D01*
X59146000Y-56534391D01*
X59146000Y-55633674D01*
X59257685Y-55684680D01*
X59364237Y-55700000D01*
X59435763Y-55700000D01*
X59542315Y-55684680D01*
X59654000Y-55633674D01*
X59654000Y-56534390D01*
X59734507Y-56520957D01*
X59734516Y-56520955D01*
X59947369Y-56447883D01*
X59947371Y-56447882D01*
X60145300Y-56340768D01*
X60145301Y-56340767D01*
X60322902Y-56202534D01*
X60475327Y-56036955D01*
X60564517Y-55900441D01*
X60618521Y-55854352D01*
X60688868Y-55844777D01*
X60753226Y-55874754D01*
X60775483Y-55900441D01*
X60864672Y-56036955D01*
X61017097Y-56202534D01*
X61194698Y-56340767D01*
X61194699Y-56340768D01*
X61392628Y-56447882D01*
X61392630Y-56447883D01*
X61605483Y-56520955D01*
X61605492Y-56520957D01*
X61686000Y-56534391D01*
X61686000Y-55633674D01*
X61797685Y-55684680D01*
X61904237Y-55700000D01*
X61975763Y-55700000D01*
X62082315Y-55684680D01*
X62194000Y-55633674D01*
X62194000Y-56534390D01*
G37*
%TD.AperFunction*%
%TA.AperFunction,Conductor*%
G36*
X60794211Y-105003502D02*
G01*
X60815185Y-105020405D01*
X61098675Y-105303895D01*
X61132701Y-105366207D01*
X61127636Y-105437022D01*
X61085089Y-105493858D01*
X61026027Y-105517912D01*
X60916447Y-105532339D01*
X60883554Y-105532339D01*
X60763246Y-105516500D01*
X60763244Y-105516500D01*
X60536756Y-105516500D01*
X60536753Y-105516500D01*
X60416446Y-105532339D01*
X60383554Y-105532339D01*
X60263246Y-105516500D01*
X60263244Y-105516500D01*
X60036756Y-105516500D01*
X60036753Y-105516500D01*
X59914531Y-105532591D01*
X59881638Y-105532591D01*
X59800000Y-105521843D01*
X59796658Y-105524774D01*
X59779998Y-105581514D01*
X59750704Y-105613355D01*
X59726704Y-105631771D01*
X59660484Y-105657372D01*
X59590935Y-105643108D01*
X59573296Y-105631771D01*
X59549296Y-105613355D01*
X59507429Y-105556017D01*
X59501738Y-105523368D01*
X59499999Y-105521842D01*
X59418361Y-105532591D01*
X59385468Y-105532591D01*
X59263246Y-105516500D01*
X59263244Y-105516500D01*
X59036756Y-105516500D01*
X59036753Y-105516500D01*
X58916446Y-105532339D01*
X58883554Y-105532339D01*
X58854282Y-105528485D01*
X58810995Y-105522786D01*
X58746069Y-105494065D01*
X58713779Y-105449106D01*
X58713371Y-105449331D01*
X58711512Y-105445950D01*
X58710291Y-105444250D01*
X58709552Y-105442383D01*
X58681812Y-105404203D01*
X58678564Y-105399258D01*
X58654542Y-105358638D01*
X58640214Y-105344310D01*
X58627384Y-105329289D01*
X58615472Y-105312893D01*
X58615469Y-105312891D01*
X58615469Y-105312890D01*
X58579109Y-105282809D01*
X58574728Y-105278823D01*
X58494500Y-105198595D01*
X58460474Y-105136283D01*
X58465539Y-105065468D01*
X58508086Y-105008632D01*
X58574606Y-104983821D01*
X58583595Y-104983500D01*
X60726090Y-104983500D01*
X60794211Y-105003502D01*
G37*
%TD.AperFunction*%
%TA.AperFunction,Conductor*%
G36*
X57209065Y-99556892D02*
G01*
X57226704Y-99568229D01*
X57250704Y-99586645D01*
X57292571Y-99643983D01*
X57298261Y-99676631D01*
X57299999Y-99678155D01*
X57381638Y-99667408D01*
X57414531Y-99667408D01*
X57422673Y-99668479D01*
X57422676Y-99668481D01*
X57536756Y-99683500D01*
X57536763Y-99683500D01*
X57763237Y-99683500D01*
X57763244Y-99683500D01*
X57877324Y-99668481D01*
X57877327Y-99668479D01*
X57883553Y-99667660D01*
X57916447Y-99667660D01*
X57922672Y-99668479D01*
X57922676Y-99668481D01*
X58036756Y-99683500D01*
X58036763Y-99683500D01*
X58263237Y-99683500D01*
X58263244Y-99683500D01*
X58377324Y-99668481D01*
X58377327Y-99668479D01*
X58383553Y-99667660D01*
X58416447Y-99667660D01*
X58422672Y-99668479D01*
X58422676Y-99668481D01*
X58536756Y-99683500D01*
X58536763Y-99683500D01*
X58763237Y-99683500D01*
X58763244Y-99683500D01*
X58877324Y-99668481D01*
X58877327Y-99668479D01*
X58883553Y-99667660D01*
X58916447Y-99667660D01*
X58922672Y-99668479D01*
X58922676Y-99668481D01*
X59036756Y-99683500D01*
X59036763Y-99683500D01*
X59263237Y-99683500D01*
X59263244Y-99683500D01*
X59377324Y-99668481D01*
X59377327Y-99668479D01*
X59383553Y-99667660D01*
X59416447Y-99667660D01*
X59422672Y-99668479D01*
X59422676Y-99668481D01*
X59536756Y-99683500D01*
X59536763Y-99683500D01*
X59763237Y-99683500D01*
X59763244Y-99683500D01*
X59877324Y-99668481D01*
X59877327Y-99668479D01*
X59883553Y-99667660D01*
X59916447Y-99667660D01*
X59922672Y-99668479D01*
X59922676Y-99668481D01*
X60036756Y-99683500D01*
X60036763Y-99683500D01*
X60263237Y-99683500D01*
X60263244Y-99683500D01*
X60377324Y-99668481D01*
X60377327Y-99668479D01*
X60383553Y-99667660D01*
X60416447Y-99667660D01*
X60422672Y-99668479D01*
X60422676Y-99668481D01*
X60536756Y-99683500D01*
X60536763Y-99683500D01*
X60763237Y-99683500D01*
X60763244Y-99683500D01*
X60877324Y-99668481D01*
X60877327Y-99668479D01*
X60883553Y-99667660D01*
X60916447Y-99667660D01*
X60922672Y-99668479D01*
X60922676Y-99668481D01*
X61036756Y-99683500D01*
X61036763Y-99683500D01*
X61263237Y-99683500D01*
X61263244Y-99683500D01*
X61377324Y-99668481D01*
X61377327Y-99668479D01*
X61383553Y-99667660D01*
X61416447Y-99667660D01*
X61422672Y-99668479D01*
X61422676Y-99668481D01*
X61536756Y-99683500D01*
X61536763Y-99683500D01*
X61763237Y-99683500D01*
X61763244Y-99683500D01*
X61877324Y-99668481D01*
X61877327Y-99668479D01*
X61883553Y-99667660D01*
X61916447Y-99667660D01*
X61922672Y-99668479D01*
X61922676Y-99668481D01*
X62036756Y-99683500D01*
X62036763Y-99683500D01*
X62190500Y-99683500D01*
X62258621Y-99703502D01*
X62305114Y-99757158D01*
X62316500Y-99809500D01*
X62316500Y-99963244D01*
X62331088Y-100074055D01*
X62320150Y-100144202D01*
X62273022Y-100197301D01*
X62206167Y-100216500D01*
X62033853Y-100216500D01*
X62018011Y-100214750D01*
X62017984Y-100215044D01*
X62010092Y-100214298D01*
X62010091Y-100214298D01*
X61940042Y-100216500D01*
X61910144Y-100216500D01*
X61910140Y-100216500D01*
X61910130Y-100216501D01*
X61903179Y-100217379D01*
X61897267Y-100217844D01*
X61850112Y-100219326D01*
X61850110Y-100219327D01*
X61830655Y-100224978D01*
X61811302Y-100228986D01*
X61791210Y-100231524D01*
X61791202Y-100231526D01*
X61747336Y-100248893D01*
X61741721Y-100250816D01*
X61696407Y-100263982D01*
X61696402Y-100263984D01*
X61678963Y-100274297D01*
X61661218Y-100282990D01*
X61642380Y-100290449D01*
X61620278Y-100306507D01*
X61604212Y-100318180D01*
X61599261Y-100321433D01*
X61558640Y-100345455D01*
X61544307Y-100359787D01*
X61529281Y-100372620D01*
X61512895Y-100384526D01*
X61512894Y-100384526D01*
X61482822Y-100420875D01*
X61478827Y-100425266D01*
X61249500Y-100654595D01*
X61187188Y-100688620D01*
X61160404Y-100691500D01*
X61104513Y-100691500D01*
X60917711Y-100731206D01*
X60743247Y-100808882D01*
X60588744Y-100921135D01*
X60460965Y-101063048D01*
X60460958Y-101063058D01*
X60365476Y-101228438D01*
X60365473Y-101228444D01*
X60362770Y-101236763D01*
X60306457Y-101410072D01*
X60286496Y-101600000D01*
X60306457Y-101789927D01*
X60321221Y-101835364D01*
X60365473Y-101971556D01*
X60365476Y-101971561D01*
X60460958Y-102136941D01*
X60460965Y-102136951D01*
X60588744Y-102278864D01*
X60599989Y-102287034D01*
X60743248Y-102391118D01*
X60917712Y-102468794D01*
X61104513Y-102508500D01*
X61131954Y-102508500D01*
X61200075Y-102528502D01*
X61246568Y-102582158D01*
X61256672Y-102652432D01*
X61241073Y-102697500D01*
X61165476Y-102828438D01*
X61165473Y-102828445D01*
X61106457Y-103010072D01*
X61086496Y-103200000D01*
X61106457Y-103389928D01*
X61157955Y-103548420D01*
X61159983Y-103619387D01*
X61123320Y-103680185D01*
X61059608Y-103711511D01*
X61049981Y-103712797D01*
X61013769Y-103716220D01*
X61007836Y-103716500D01*
X56593834Y-103716500D01*
X56525713Y-103696498D01*
X56479220Y-103642842D01*
X56468912Y-103574054D01*
X56477096Y-103511884D01*
X56483500Y-103463244D01*
X56483500Y-103236756D01*
X56468481Y-103122676D01*
X56468479Y-103122672D01*
X56467660Y-103116447D01*
X56467660Y-103083553D01*
X56468479Y-103077327D01*
X56468481Y-103077324D01*
X56483500Y-102963244D01*
X56483500Y-102736756D01*
X56468481Y-102622676D01*
X56468479Y-102622672D01*
X56467660Y-102616447D01*
X56467660Y-102583553D01*
X56468479Y-102577327D01*
X56468481Y-102577324D01*
X56483500Y-102463244D01*
X56483500Y-102236756D01*
X56468481Y-102122676D01*
X56468479Y-102122672D01*
X56467660Y-102116447D01*
X56467660Y-102083553D01*
X56468479Y-102077327D01*
X56468481Y-102077324D01*
X56483500Y-101963244D01*
X56483500Y-101736756D01*
X56468481Y-101622676D01*
X56468479Y-101622672D01*
X56467660Y-101616447D01*
X56467660Y-101583553D01*
X56468479Y-101577327D01*
X56468481Y-101577324D01*
X56483500Y-101463244D01*
X56483500Y-101236756D01*
X56468481Y-101122676D01*
X56468479Y-101122672D01*
X56467660Y-101116447D01*
X56467660Y-101083553D01*
X56468479Y-101077327D01*
X56468481Y-101077324D01*
X56483500Y-100963244D01*
X56483500Y-100736756D01*
X56468481Y-100622676D01*
X56468479Y-100622672D01*
X56467660Y-100616447D01*
X56467660Y-100583553D01*
X56468479Y-100577327D01*
X56468481Y-100577324D01*
X56483500Y-100463244D01*
X56483500Y-100236756D01*
X56468481Y-100122676D01*
X56468479Y-100122672D01*
X56467660Y-100116447D01*
X56467660Y-100083553D01*
X56468479Y-100077327D01*
X56468481Y-100077324D01*
X56483500Y-99963244D01*
X56483500Y-99809500D01*
X56503502Y-99741379D01*
X56557158Y-99694886D01*
X56609500Y-99683500D01*
X56763237Y-99683500D01*
X56763244Y-99683500D01*
X56877324Y-99668481D01*
X56877326Y-99668479D01*
X56885468Y-99667408D01*
X56918361Y-99667408D01*
X57000000Y-99678155D01*
X57003342Y-99675225D01*
X57020002Y-99618486D01*
X57049296Y-99586645D01*
X57073296Y-99568229D01*
X57139516Y-99542628D01*
X57209065Y-99556892D01*
G37*
%TD.AperFunction*%
%TA.AperFunction,Conductor*%
G36*
X55242012Y-95984081D02*
G01*
X55248595Y-95990210D01*
X55485855Y-96227470D01*
X55519881Y-96289782D01*
X55522107Y-96303758D01*
X55526763Y-96349333D01*
X55526764Y-96349336D01*
X55580698Y-96512101D01*
X55647287Y-96620057D01*
X55670715Y-96658040D01*
X55670720Y-96658046D01*
X55791953Y-96779279D01*
X55791959Y-96779284D01*
X55791960Y-96779285D01*
X55937899Y-96869302D01*
X55937914Y-96869307D01*
X55943744Y-96872026D01*
X55997032Y-96918941D01*
X56016500Y-96986224D01*
X56016500Y-97573516D01*
X56008326Y-97614607D01*
X56008657Y-97614696D01*
X56007304Y-97619743D01*
X56006909Y-97621733D01*
X56006520Y-97622671D01*
X56006519Y-97622675D01*
X55996744Y-97696920D01*
X55968021Y-97761847D01*
X55908755Y-97800938D01*
X55875787Y-97806411D01*
X55862615Y-97806825D01*
X55862607Y-97806827D01*
X55843149Y-97812479D01*
X55823804Y-97816485D01*
X55803706Y-97819025D01*
X55803697Y-97819027D01*
X55759831Y-97836394D01*
X55754216Y-97838317D01*
X55708908Y-97851481D01*
X55691464Y-97861797D01*
X55673718Y-97870490D01*
X55654882Y-97877948D01*
X55616709Y-97905681D01*
X55611748Y-97908940D01*
X55571138Y-97932958D01*
X55556811Y-97947284D01*
X55541785Y-97960117D01*
X55525395Y-97972025D01*
X55525393Y-97972027D01*
X55495308Y-98008392D01*
X55491312Y-98012783D01*
X54811340Y-98692754D01*
X54798903Y-98702719D01*
X54799091Y-98702946D01*
X54792982Y-98707999D01*
X54745015Y-98759079D01*
X54723866Y-98780227D01*
X54719560Y-98785777D01*
X54715714Y-98790279D01*
X54683417Y-98824674D01*
X54683411Y-98824683D01*
X54673651Y-98842435D01*
X54662803Y-98858950D01*
X54650386Y-98874958D01*
X54631645Y-98918264D01*
X54629034Y-98923594D01*
X54606305Y-98964939D01*
X54606303Y-98964944D01*
X54601267Y-98984559D01*
X54594864Y-99003262D01*
X54586819Y-99021852D01*
X54579437Y-99068457D01*
X54578232Y-99074271D01*
X54569706Y-99107477D01*
X54533391Y-99168483D01*
X54469858Y-99200171D01*
X54464114Y-99201063D01*
X54422674Y-99206519D01*
X54407717Y-99212715D01*
X54337127Y-99220304D01*
X54273640Y-99188524D01*
X54237414Y-99127465D01*
X54233500Y-99096306D01*
X54233500Y-97714594D01*
X54253502Y-97646473D01*
X54270400Y-97625503D01*
X54788659Y-97107243D01*
X54801097Y-97097282D01*
X54800908Y-97097054D01*
X54807019Y-97091999D01*
X54854984Y-97040920D01*
X54876128Y-97019777D01*
X54876128Y-97019776D01*
X54876135Y-97019770D01*
X54880445Y-97014212D01*
X54884274Y-97009729D01*
X54916586Y-96975321D01*
X54926346Y-96957565D01*
X54937195Y-96941050D01*
X54949614Y-96925041D01*
X54968363Y-96881710D01*
X54970953Y-96876423D01*
X54993695Y-96835060D01*
X54998733Y-96815434D01*
X55005137Y-96796732D01*
X55013180Y-96778147D01*
X55013179Y-96778147D01*
X55013181Y-96778145D01*
X55020561Y-96731547D01*
X55021762Y-96725740D01*
X55033500Y-96680030D01*
X55033500Y-96659775D01*
X55035051Y-96640063D01*
X55038220Y-96620057D01*
X55035629Y-96592651D01*
X55033780Y-96573080D01*
X55033500Y-96567148D01*
X55033500Y-96079305D01*
X55053502Y-96011184D01*
X55107158Y-95964691D01*
X55177432Y-95954587D01*
X55242012Y-95984081D01*
G37*
%TD.AperFunction*%
%TA.AperFunction,Conductor*%
G36*
X66140507Y-93279844D02*
G01*
X66218239Y-93400798D01*
X66326900Y-93494952D01*
X66457685Y-93554680D01*
X66472412Y-93556797D01*
X65814613Y-94214596D01*
X65752301Y-94248621D01*
X65725518Y-94251500D01*
X65701350Y-94251500D01*
X65640803Y-94258009D01*
X65640795Y-94258011D01*
X65503797Y-94309110D01*
X65503792Y-94309112D01*
X65386738Y-94396738D01*
X65299112Y-94513792D01*
X65299110Y-94513797D01*
X65248011Y-94650795D01*
X65248009Y-94650803D01*
X65241500Y-94711350D01*
X65241500Y-96508649D01*
X65248009Y-96569196D01*
X65248011Y-96569204D01*
X65299110Y-96706202D01*
X65299112Y-96706207D01*
X65386738Y-96823261D01*
X65503792Y-96910887D01*
X65503794Y-96910887D01*
X65503796Y-96910889D01*
X65568636Y-96935073D01*
X65625469Y-96977618D01*
X65650280Y-97044138D01*
X65635189Y-97113512D01*
X65590748Y-97160367D01*
X65492277Y-97221105D01*
X65492265Y-97221114D01*
X65371114Y-97342265D01*
X65371109Y-97342271D01*
X65281152Y-97488115D01*
X65227257Y-97650758D01*
X65227255Y-97650770D01*
X65217000Y-97751147D01*
X65217000Y-97771000D01*
X66240500Y-97771000D01*
X66308621Y-97791002D01*
X66355114Y-97844658D01*
X66366500Y-97897000D01*
X66366500Y-98153000D01*
X66346498Y-98221121D01*
X66292842Y-98267614D01*
X66240500Y-98279000D01*
X65217000Y-98279000D01*
X65217000Y-98298852D01*
X65227255Y-98399229D01*
X65227257Y-98399241D01*
X65281152Y-98561884D01*
X65371109Y-98707728D01*
X65371114Y-98707734D01*
X65373932Y-98710552D01*
X65375248Y-98712963D01*
X65375662Y-98713486D01*
X65375572Y-98713556D01*
X65407958Y-98772864D01*
X65402893Y-98843679D01*
X65373932Y-98888742D01*
X65370720Y-98891953D01*
X65370715Y-98891959D01*
X65290596Y-99021852D01*
X65280698Y-99037899D01*
X65251020Y-99127465D01*
X65250136Y-99130132D01*
X65209722Y-99188504D01*
X65144166Y-99215760D01*
X65130531Y-99216500D01*
X64426484Y-99216500D01*
X64385391Y-99208326D01*
X64385303Y-99208657D01*
X64380266Y-99207307D01*
X64378268Y-99206910D01*
X64377324Y-99206519D01*
X64377323Y-99206518D01*
X64263246Y-99191500D01*
X64263244Y-99191500D01*
X62934500Y-99191500D01*
X62866379Y-99171498D01*
X62819886Y-99117842D01*
X62808500Y-99065500D01*
X62808500Y-97736763D01*
X62808500Y-97736756D01*
X62793481Y-97622676D01*
X62793479Y-97622671D01*
X62793091Y-97621733D01*
X62792695Y-97619743D01*
X62791343Y-97614696D01*
X62791673Y-97614607D01*
X62783500Y-97573516D01*
X62783500Y-96564593D01*
X62803502Y-96496472D01*
X62820400Y-96475503D01*
X65388657Y-93907245D01*
X65401092Y-93897284D01*
X65400905Y-93897057D01*
X65407011Y-93892004D01*
X65407018Y-93892000D01*
X65420225Y-93877934D01*
X65450850Y-93859939D01*
X66115638Y-93195150D01*
X66140507Y-93279844D01*
G37*
%TD.AperFunction*%
%TA.AperFunction,Conductor*%
G36*
X55220198Y-92114123D02*
G01*
X55242424Y-92126341D01*
X55258953Y-92137198D01*
X55274959Y-92149614D01*
X55316686Y-92167670D01*
X55318262Y-92168352D01*
X55323583Y-92170958D01*
X55364940Y-92193695D01*
X55364948Y-92193697D01*
X55384558Y-92198732D01*
X55403267Y-92205137D01*
X55421855Y-92213181D01*
X55468477Y-92220564D01*
X55474262Y-92221763D01*
X55519970Y-92233500D01*
X55540224Y-92233500D01*
X55559934Y-92235051D01*
X55562141Y-92235400D01*
X55579943Y-92238220D01*
X55613870Y-92235012D01*
X55626917Y-92233780D01*
X55632850Y-92233500D01*
X57085406Y-92233500D01*
X57153527Y-92253502D01*
X57174501Y-92270405D01*
X58317095Y-93412999D01*
X58351121Y-93475311D01*
X58354000Y-93502094D01*
X58354000Y-94503000D01*
X58333998Y-94571121D01*
X58280342Y-94617614D01*
X58228000Y-94629000D01*
X57522999Y-94629000D01*
X57509904Y-94642095D01*
X57447592Y-94676121D01*
X57420809Y-94679000D01*
X56424748Y-94679000D01*
X56356627Y-94658998D01*
X56310134Y-94605342D01*
X56299438Y-94566170D01*
X56293542Y-94510071D01*
X56252167Y-94382732D01*
X56246000Y-94343796D01*
X56246000Y-94171000D01*
X56754000Y-94171000D01*
X57077001Y-94171000D01*
X57090096Y-94157905D01*
X57152408Y-94123879D01*
X57179191Y-94121000D01*
X57846000Y-94121000D01*
X57846000Y-93466999D01*
X57767778Y-93467000D01*
X57696446Y-93473481D01*
X57532293Y-93524633D01*
X57385159Y-93613578D01*
X57385149Y-93613586D01*
X57381773Y-93616963D01*
X57319461Y-93650989D01*
X57248646Y-93645924D01*
X57214709Y-93624114D01*
X57213486Y-93625662D01*
X57207728Y-93621109D01*
X57061884Y-93531152D01*
X56899241Y-93477257D01*
X56899229Y-93477255D01*
X56798852Y-93467000D01*
X56754000Y-93467000D01*
X56754000Y-94171000D01*
X56246000Y-94171000D01*
X56246000Y-93467000D01*
X56201147Y-93467000D01*
X56100770Y-93477255D01*
X56100758Y-93477257D01*
X55938115Y-93531152D01*
X55792271Y-93621109D01*
X55792265Y-93621114D01*
X55671115Y-93742264D01*
X55671103Y-93742279D01*
X55670503Y-93743253D01*
X55669917Y-93743779D01*
X55666560Y-93748026D01*
X55665833Y-93747451D01*
X55617711Y-93790724D01*
X55547634Y-93802118D01*
X55537076Y-93800339D01*
X55495489Y-93791500D01*
X55495487Y-93791500D01*
X55304513Y-93791500D01*
X55185697Y-93816755D01*
X55114906Y-93811353D01*
X55058274Y-93768536D01*
X55033780Y-93701898D01*
X55033500Y-93693508D01*
X55033500Y-92224539D01*
X55053502Y-92156418D01*
X55107158Y-92109925D01*
X55177432Y-92099821D01*
X55220198Y-92114123D01*
G37*
%TD.AperFunction*%
%TA.AperFunction,Conductor*%
G36*
X58978526Y-90078502D02*
G01*
X58999501Y-90095405D01*
X59367757Y-90463662D01*
X59377719Y-90476096D01*
X59377946Y-90475909D01*
X59383000Y-90482018D01*
X59434079Y-90529984D01*
X59455223Y-90551129D01*
X59455227Y-90551132D01*
X59455230Y-90551135D01*
X59460782Y-90555442D01*
X59465269Y-90559273D01*
X59487959Y-90580581D01*
X59499677Y-90591585D01*
X59499679Y-90591586D01*
X59517428Y-90601343D01*
X59533953Y-90612198D01*
X59549959Y-90624614D01*
X59591686Y-90642670D01*
X59593262Y-90643352D01*
X59598583Y-90645958D01*
X59639940Y-90668695D01*
X59639948Y-90668697D01*
X59659558Y-90673732D01*
X59678267Y-90680137D01*
X59696855Y-90688181D01*
X59743477Y-90695564D01*
X59749262Y-90696763D01*
X59794970Y-90708500D01*
X59815224Y-90708500D01*
X59834934Y-90710051D01*
X59837141Y-90710400D01*
X59854943Y-90713220D01*
X59888870Y-90710012D01*
X59901917Y-90708780D01*
X59907850Y-90708500D01*
X60863408Y-90708500D01*
X60931529Y-90728502D01*
X60978022Y-90782158D01*
X60988801Y-90822150D01*
X61006090Y-90997694D01*
X61006091Y-90997700D01*
X61006092Y-90997701D01*
X61063759Y-91187804D01*
X61157405Y-91363004D01*
X61283432Y-91516568D01*
X61436996Y-91642595D01*
X61612196Y-91736241D01*
X61802299Y-91793908D01*
X61802303Y-91793908D01*
X61802305Y-91793909D01*
X61999997Y-91813380D01*
X62000000Y-91813380D01*
X62000003Y-91813380D01*
X62197694Y-91793909D01*
X62197695Y-91793908D01*
X62197701Y-91793908D01*
X62387804Y-91736241D01*
X62563004Y-91642595D01*
X62563005Y-91642593D01*
X62563007Y-91642593D01*
X62568153Y-91639155D01*
X62569310Y-91640887D01*
X62625886Y-91616844D01*
X62695867Y-91628811D01*
X62748269Y-91676712D01*
X62766500Y-91741994D01*
X62766500Y-92285405D01*
X62746498Y-92353526D01*
X62729595Y-92374500D01*
X60498595Y-94605500D01*
X60436283Y-94639526D01*
X60365468Y-94634461D01*
X60308632Y-94591914D01*
X60283821Y-94525394D01*
X60283500Y-94516405D01*
X60283500Y-93033849D01*
X60285249Y-93018012D01*
X60284955Y-93017985D01*
X60285701Y-93010092D01*
X60283500Y-92940059D01*
X60283500Y-92910151D01*
X60283500Y-92910144D01*
X60282620Y-92903185D01*
X60282155Y-92897280D01*
X60280673Y-92850110D01*
X60275022Y-92830663D01*
X60271012Y-92811300D01*
X60268474Y-92791203D01*
X60251100Y-92747323D01*
X60249184Y-92741725D01*
X60236018Y-92696406D01*
X60225700Y-92678961D01*
X60217005Y-92661209D01*
X60209553Y-92642385D01*
X60209550Y-92642379D01*
X60181818Y-92604210D01*
X60178562Y-92599253D01*
X60154542Y-92558637D01*
X60154540Y-92558635D01*
X60154540Y-92558634D01*
X60140218Y-92544312D01*
X60127377Y-92529279D01*
X60115471Y-92512892D01*
X60108029Y-92506735D01*
X60079108Y-92482810D01*
X60074736Y-92478831D01*
X58207244Y-90611339D01*
X58197279Y-90598901D01*
X58197052Y-90599090D01*
X58192001Y-90592984D01*
X58192000Y-90592982D01*
X58190513Y-90591586D01*
X58140921Y-90545016D01*
X58119777Y-90523871D01*
X58119772Y-90523866D01*
X58114225Y-90519563D01*
X58109717Y-90515712D01*
X58075325Y-90483417D01*
X58075319Y-90483413D01*
X58057563Y-90473651D01*
X58041047Y-90462802D01*
X58025041Y-90450386D01*
X57994289Y-90437078D01*
X57981740Y-90431648D01*
X57976408Y-90429036D01*
X57935061Y-90406305D01*
X57915436Y-90401266D01*
X57896736Y-90394864D01*
X57878145Y-90386819D01*
X57878142Y-90386818D01*
X57870533Y-90384608D01*
X57871359Y-90381763D01*
X57819811Y-90357304D01*
X57782305Y-90297023D01*
X57778786Y-90246850D01*
X57782999Y-90214846D01*
X57783000Y-90214840D01*
X57783000Y-90184500D01*
X57803002Y-90116379D01*
X57856658Y-90069886D01*
X57909000Y-90058500D01*
X58910405Y-90058500D01*
X58978526Y-90078502D01*
G37*
%TD.AperFunction*%
%TA.AperFunction,Conductor*%
G36*
X52891760Y-71213604D02*
G01*
X52923876Y-71276921D01*
X52925346Y-71287142D01*
X52927111Y-71304420D01*
X52927112Y-71304422D01*
X52927112Y-71304424D01*
X52927113Y-71304426D01*
X52959544Y-71402299D01*
X52982885Y-71472738D01*
X53075970Y-71623652D01*
X53075975Y-71623658D01*
X53201341Y-71749024D01*
X53201347Y-71749029D01*
X53201348Y-71749030D01*
X53352262Y-71842115D01*
X53520574Y-71897887D01*
X53624455Y-71908500D01*
X54275544Y-71908499D01*
X54379426Y-71897887D01*
X54547738Y-71842115D01*
X54698652Y-71749030D01*
X54824030Y-71623652D01*
X54873559Y-71543352D01*
X54926345Y-71495875D01*
X54980800Y-71483500D01*
X57445695Y-71483500D01*
X57513816Y-71503502D01*
X57560309Y-71557158D01*
X57570413Y-71627432D01*
X57540919Y-71692012D01*
X57534805Y-71698579D01*
X56553358Y-72680026D01*
X56232650Y-73000734D01*
X56229879Y-73003342D01*
X56184636Y-73043425D01*
X56150304Y-73093162D01*
X56148050Y-73096226D01*
X56110774Y-73143807D01*
X56106903Y-73152408D01*
X56095710Y-73172255D01*
X56090347Y-73180025D01*
X56090345Y-73180030D01*
X56068914Y-73236538D01*
X56067458Y-73240053D01*
X56042656Y-73295162D01*
X56040956Y-73304439D01*
X56034834Y-73326401D01*
X56031485Y-73335230D01*
X56024201Y-73395224D01*
X56023628Y-73398986D01*
X56012736Y-73458425D01*
X56016385Y-73518750D01*
X56016500Y-73522555D01*
X56016500Y-79940500D01*
X55996498Y-80008621D01*
X55942842Y-80055114D01*
X55890500Y-80066500D01*
X55467738Y-80066500D01*
X55396353Y-80072986D01*
X55396352Y-80072986D01*
X55232093Y-80124170D01*
X55232088Y-80124172D01*
X55084844Y-80213184D01*
X55084839Y-80213188D01*
X54993433Y-80304595D01*
X54931121Y-80338621D01*
X54904338Y-80341500D01*
X53678360Y-80341500D01*
X53610239Y-80321498D01*
X53563746Y-80267842D01*
X53552790Y-80205095D01*
X53563156Y-80080000D01*
X53544564Y-79855632D01*
X53530395Y-79799679D01*
X53489297Y-79637387D01*
X53489296Y-79637386D01*
X53489296Y-79637384D01*
X53398860Y-79431209D01*
X53375503Y-79395458D01*
X53275724Y-79242734D01*
X53275720Y-79242729D01*
X53123237Y-79077091D01*
X53041382Y-79013381D01*
X52945576Y-78938811D01*
X52911792Y-78920528D01*
X52861402Y-78870516D01*
X52846050Y-78801199D01*
X52870610Y-78734586D01*
X52911793Y-78698901D01*
X52945300Y-78680767D01*
X52945301Y-78680767D01*
X53122902Y-78542534D01*
X53275325Y-78376958D01*
X53398419Y-78188548D01*
X53488820Y-77982456D01*
X53488823Y-77982449D01*
X53536544Y-77794000D01*
X52631116Y-77794000D01*
X52659493Y-77749844D01*
X52700000Y-77611889D01*
X52700000Y-77468111D01*
X52659493Y-77330156D01*
X52631116Y-77286000D01*
X53536544Y-77286000D01*
X53536544Y-77285999D01*
X53488823Y-77097550D01*
X53488820Y-77097543D01*
X53398419Y-76891451D01*
X53275325Y-76703041D01*
X53132018Y-76547367D01*
X53100598Y-76483702D01*
X53108585Y-76413156D01*
X53153444Y-76358127D01*
X53180679Y-76343977D01*
X53296204Y-76300889D01*
X53413261Y-76213261D01*
X53500889Y-76096204D01*
X53551989Y-75959201D01*
X53555845Y-75923339D01*
X53558499Y-75898649D01*
X53558500Y-75898632D01*
X53558500Y-74101367D01*
X53558499Y-74101350D01*
X53551990Y-74040803D01*
X53551988Y-74040795D01*
X53500889Y-73903797D01*
X53500887Y-73903792D01*
X53413261Y-73786738D01*
X53296207Y-73699112D01*
X53296202Y-73699110D01*
X53159204Y-73648011D01*
X53159196Y-73648009D01*
X53098649Y-73641500D01*
X53098638Y-73641500D01*
X53009500Y-73641500D01*
X52941379Y-73621498D01*
X52894886Y-73567842D01*
X52883500Y-73515500D01*
X52883500Y-73022554D01*
X52883615Y-73018749D01*
X52884623Y-73002088D01*
X52887264Y-72958427D01*
X52876368Y-72898973D01*
X52875798Y-72895230D01*
X52868513Y-72835226D01*
X52865166Y-72826402D01*
X52859042Y-72804430D01*
X52857344Y-72795163D01*
X52837635Y-72751370D01*
X52832536Y-72740041D01*
X52831084Y-72736534D01*
X52829094Y-72731287D01*
X52809654Y-72680029D01*
X52804295Y-72672265D01*
X52793093Y-72652402D01*
X52789223Y-72643802D01*
X52769838Y-72619060D01*
X52751945Y-72596220D01*
X52749689Y-72593154D01*
X52715366Y-72543428D01*
X52715360Y-72543421D01*
X52670119Y-72503342D01*
X52667364Y-72500749D01*
X52370405Y-72203790D01*
X52336379Y-72141478D01*
X52333500Y-72114695D01*
X52333500Y-71859539D01*
X52353502Y-71791418D01*
X52393351Y-71752299D01*
X52398652Y-71749030D01*
X52524030Y-71623652D01*
X52617115Y-71472738D01*
X52672887Y-71304426D01*
X52674653Y-71287142D01*
X52701471Y-71221412D01*
X52759574Y-71180612D01*
X52830510Y-71177701D01*
X52891760Y-71213604D01*
G37*
%TD.AperFunction*%
%TA.AperFunction,Conductor*%
G36*
X55783621Y-60953502D02*
G01*
X55830114Y-61007158D01*
X55841500Y-61059500D01*
X55841500Y-61298649D01*
X55848009Y-61359196D01*
X55848011Y-61359204D01*
X55899110Y-61496202D01*
X55899112Y-61496207D01*
X55986738Y-61613261D01*
X56103792Y-61700887D01*
X56103794Y-61700888D01*
X56103796Y-61700889D01*
X56162875Y-61722924D01*
X56240795Y-61751988D01*
X56240803Y-61751990D01*
X56301350Y-61758499D01*
X56301355Y-61758499D01*
X56301362Y-61758500D01*
X56301368Y-61758500D01*
X57898632Y-61758500D01*
X57898638Y-61758500D01*
X57898645Y-61758499D01*
X57898649Y-61758499D01*
X57959196Y-61751990D01*
X57959199Y-61751989D01*
X57959201Y-61751989D01*
X58096204Y-61700889D01*
X58174491Y-61642283D01*
X58241011Y-61617473D01*
X58310385Y-61632564D01*
X58325503Y-61642279D01*
X58401868Y-61699446D01*
X58403796Y-61700889D01*
X58540795Y-61751988D01*
X58540803Y-61751990D01*
X58603967Y-61758780D01*
X58669560Y-61785948D01*
X58710051Y-61844266D01*
X58716500Y-61884058D01*
X58716500Y-64915500D01*
X58696498Y-64983621D01*
X58642842Y-65030114D01*
X58590500Y-65041500D01*
X57451350Y-65041500D01*
X57390803Y-65048009D01*
X57390795Y-65048011D01*
X57253797Y-65099110D01*
X57253792Y-65099112D01*
X57136738Y-65186738D01*
X57049112Y-65303792D01*
X57049110Y-65303797D01*
X56998011Y-65440795D01*
X56998009Y-65440803D01*
X56991500Y-65501350D01*
X56991500Y-67598649D01*
X56998009Y-67659196D01*
X56998011Y-67659204D01*
X57049110Y-67796202D01*
X57049112Y-67796207D01*
X57136738Y-67913261D01*
X57253792Y-68000887D01*
X57253794Y-68000888D01*
X57253796Y-68000889D01*
X57312875Y-68022924D01*
X57390795Y-68051988D01*
X57390803Y-68051990D01*
X57451350Y-68058499D01*
X57451355Y-68058499D01*
X57451362Y-68058500D01*
X58590500Y-68058500D01*
X58658621Y-68078502D01*
X58705114Y-68132158D01*
X58716500Y-68184500D01*
X58716500Y-68904193D01*
X58696498Y-68972314D01*
X58642842Y-69018807D01*
X58630139Y-69023795D01*
X58572781Y-69042801D01*
X58527261Y-69057885D01*
X58376347Y-69150970D01*
X58376341Y-69150975D01*
X58250975Y-69276341D01*
X58250970Y-69276347D01*
X58157885Y-69427262D01*
X58102113Y-69595572D01*
X58102112Y-69595579D01*
X58091500Y-69699446D01*
X58091500Y-69990500D01*
X58071498Y-70058621D01*
X58017842Y-70105114D01*
X57965500Y-70116500D01*
X54980800Y-70116500D01*
X54912679Y-70096498D01*
X54873559Y-70056647D01*
X54824029Y-69976347D01*
X54824024Y-69976341D01*
X54698658Y-69850975D01*
X54698652Y-69850970D01*
X54674596Y-69836132D01*
X54547738Y-69757885D01*
X54463582Y-69729999D01*
X54379427Y-69702113D01*
X54379420Y-69702112D01*
X54275553Y-69691500D01*
X53624455Y-69691500D01*
X53520574Y-69702112D01*
X53352261Y-69757885D01*
X53201347Y-69850970D01*
X53201341Y-69850975D01*
X53075975Y-69976341D01*
X53075970Y-69976347D01*
X52982885Y-70127262D01*
X52927113Y-70295572D01*
X52927112Y-70295578D01*
X52925347Y-70312857D01*
X52898524Y-70378591D01*
X52840420Y-70419389D01*
X52769483Y-70422297D01*
X52708235Y-70386391D01*
X52676122Y-70323073D01*
X52674652Y-70312852D01*
X52672887Y-70295575D01*
X52672886Y-70295572D01*
X52617115Y-70127262D01*
X52524030Y-69976348D01*
X52524029Y-69976347D01*
X52524024Y-69976341D01*
X52398658Y-69850975D01*
X52398652Y-69850970D01*
X52374596Y-69836132D01*
X52247738Y-69757885D01*
X52163582Y-69729999D01*
X52079427Y-69702113D01*
X52079420Y-69702112D01*
X51975553Y-69691500D01*
X51975545Y-69691500D01*
X51534999Y-69691500D01*
X51466878Y-69671498D01*
X51420385Y-69617842D01*
X51408999Y-69565500D01*
X51408999Y-67974691D01*
X51429001Y-67906570D01*
X51482657Y-67860077D01*
X51552931Y-67849973D01*
X51617511Y-67879467D01*
X51642240Y-67908545D01*
X51651363Y-67923336D01*
X51651370Y-67923345D01*
X51776654Y-68048629D01*
X51776660Y-68048634D01*
X51927474Y-68141657D01*
X52095678Y-68197393D01*
X52095681Y-68197394D01*
X52199483Y-68207999D01*
X52199483Y-68208000D01*
X52546000Y-68208000D01*
X52546000Y-66654000D01*
X53054000Y-66654000D01*
X53054000Y-68208000D01*
X53400517Y-68208000D01*
X53400516Y-68207999D01*
X53504318Y-68197394D01*
X53504321Y-68197393D01*
X53672525Y-68141657D01*
X53823339Y-68048634D01*
X53823345Y-68048629D01*
X53948629Y-67923345D01*
X53948634Y-67923339D01*
X54041657Y-67772525D01*
X54097393Y-67604321D01*
X54097394Y-67604318D01*
X54107999Y-67500516D01*
X54108000Y-67500516D01*
X54108000Y-66654000D01*
X53054000Y-66654000D01*
X52546000Y-66654000D01*
X52546000Y-66272000D01*
X52566002Y-66203879D01*
X52619658Y-66157386D01*
X52672000Y-66146000D01*
X54108000Y-66146000D01*
X54108000Y-65299483D01*
X54097394Y-65195681D01*
X54097393Y-65195678D01*
X54041657Y-65027474D01*
X53948634Y-64876660D01*
X53948629Y-64876654D01*
X53823345Y-64751370D01*
X53823336Y-64751363D01*
X53752279Y-64707535D01*
X53704800Y-64654750D01*
X53693397Y-64584675D01*
X53721689Y-64519559D01*
X53752277Y-64493054D01*
X53823652Y-64449030D01*
X53949030Y-64323652D01*
X54042115Y-64172738D01*
X54097887Y-64004426D01*
X54108500Y-63900545D01*
X54108499Y-62510303D01*
X54128501Y-62442183D01*
X54145395Y-62421218D01*
X55596212Y-60970402D01*
X55658522Y-60936379D01*
X55685305Y-60933500D01*
X55715500Y-60933500D01*
X55783621Y-60953502D01*
G37*
%TD.AperFunction*%
%TA.AperFunction,Conductor*%
G36*
X68741621Y-50020502D02*
G01*
X68788114Y-50074158D01*
X68799500Y-50126500D01*
X68799500Y-57902218D01*
X68779498Y-57970339D01*
X68725842Y-58016832D01*
X68655568Y-58026936D01*
X68590988Y-57997442D01*
X68553896Y-57941852D01*
X68544302Y-57912899D01*
X68454285Y-57766960D01*
X68454283Y-57766958D01*
X68454279Y-57766953D01*
X68333046Y-57645720D01*
X68333040Y-57645715D01*
X68263351Y-57602730D01*
X68187101Y-57555698D01*
X68024336Y-57501764D01*
X68024333Y-57501763D01*
X67923880Y-57491500D01*
X67923872Y-57491500D01*
X67376128Y-57491500D01*
X67376120Y-57491500D01*
X67275666Y-57501763D01*
X67112899Y-57555698D01*
X66966959Y-57645715D01*
X66966953Y-57645720D01*
X66845720Y-57766953D01*
X66845716Y-57766958D01*
X66784898Y-57865557D01*
X66732111Y-57913034D01*
X66692847Y-57924489D01*
X66635230Y-57931485D01*
X66630381Y-57933324D01*
X66626397Y-57934835D01*
X66604440Y-57940955D01*
X66599862Y-57941794D01*
X66595162Y-57942656D01*
X66540053Y-57967458D01*
X66536538Y-57968914D01*
X66480030Y-57990345D01*
X66480025Y-57990347D01*
X66472255Y-57995710D01*
X66452408Y-58006903D01*
X66443807Y-58010774D01*
X66396226Y-58048050D01*
X66393162Y-58050304D01*
X66343425Y-58084636D01*
X66303342Y-58129879D01*
X66300740Y-58132644D01*
X65523593Y-58909790D01*
X65461283Y-58943814D01*
X65390468Y-58938750D01*
X65333632Y-58896203D01*
X65308821Y-58829683D01*
X65308500Y-58820694D01*
X65308500Y-58176119D01*
X65299153Y-58084636D01*
X65298236Y-58075664D01*
X65244302Y-57912899D01*
X65182258Y-57812311D01*
X65163500Y-57746165D01*
X65163500Y-56449862D01*
X65183502Y-56381741D01*
X65222335Y-56345760D01*
X65221212Y-56344040D01*
X65225566Y-56341194D01*
X65225576Y-56341189D01*
X65403240Y-56202906D01*
X65555722Y-56037268D01*
X65555927Y-56036955D01*
X65644816Y-55900899D01*
X65678860Y-55848791D01*
X65769296Y-55642616D01*
X65824564Y-55424368D01*
X65843156Y-55200000D01*
X65824564Y-54975632D01*
X65769296Y-54757384D01*
X65678860Y-54551209D01*
X65661597Y-54524786D01*
X65555724Y-54362734D01*
X65555719Y-54362729D01*
X65412524Y-54207179D01*
X65381103Y-54143514D01*
X65389090Y-54072968D01*
X65433948Y-54017939D01*
X65461183Y-54003789D01*
X65576204Y-53960889D01*
X65693261Y-53873261D01*
X65722066Y-53834782D01*
X65780887Y-53756207D01*
X65780887Y-53756206D01*
X65780889Y-53756204D01*
X65831989Y-53619201D01*
X65838500Y-53558638D01*
X65838500Y-51761362D01*
X65836141Y-51739419D01*
X65831990Y-51700803D01*
X65831988Y-51700795D01*
X65780889Y-51563797D01*
X65780887Y-51563792D01*
X65693261Y-51446738D01*
X65576207Y-51359112D01*
X65576202Y-51359110D01*
X65439204Y-51308011D01*
X65439196Y-51308009D01*
X65378649Y-51301500D01*
X65378638Y-51301500D01*
X63581362Y-51301500D01*
X63581350Y-51301500D01*
X63520803Y-51308009D01*
X63520795Y-51308011D01*
X63383797Y-51359110D01*
X63383792Y-51359112D01*
X63266738Y-51446738D01*
X63179112Y-51563792D01*
X63179111Y-51563795D01*
X63134804Y-51682584D01*
X63092257Y-51739419D01*
X63025736Y-51764229D01*
X62956362Y-51749137D01*
X62924047Y-51723887D01*
X62862902Y-51657465D01*
X62685301Y-51519232D01*
X62685300Y-51519231D01*
X62487371Y-51412117D01*
X62487369Y-51412116D01*
X62274512Y-51339043D01*
X62274501Y-51339040D01*
X62194000Y-51325606D01*
X62194000Y-52226325D01*
X62082315Y-52175320D01*
X61975763Y-52160000D01*
X61904237Y-52160000D01*
X61797685Y-52175320D01*
X61686000Y-52226325D01*
X61686000Y-51325607D01*
X61685999Y-51325606D01*
X61605498Y-51339040D01*
X61605487Y-51339043D01*
X61392630Y-51412116D01*
X61392628Y-51412117D01*
X61194699Y-51519231D01*
X61194698Y-51519232D01*
X61017097Y-51657465D01*
X60864674Y-51823042D01*
X60775483Y-51959559D01*
X60721479Y-52005647D01*
X60651131Y-52015222D01*
X60586774Y-51985244D01*
X60564517Y-51959559D01*
X60475325Y-51823042D01*
X60322902Y-51657465D01*
X60145301Y-51519232D01*
X60145300Y-51519231D01*
X59947371Y-51412117D01*
X59947369Y-51412116D01*
X59734512Y-51339043D01*
X59734501Y-51339040D01*
X59654000Y-51325606D01*
X59654000Y-52226325D01*
X59542315Y-52175320D01*
X59435763Y-52160000D01*
X59364237Y-52160000D01*
X59257685Y-52175320D01*
X59146000Y-52226325D01*
X59146000Y-51325607D01*
X59145999Y-51325606D01*
X59065498Y-51339040D01*
X59065487Y-51339043D01*
X58852630Y-51412116D01*
X58852628Y-51412117D01*
X58654699Y-51519231D01*
X58654698Y-51519232D01*
X58477097Y-51657465D01*
X58324674Y-51823042D01*
X58235483Y-51959559D01*
X58181479Y-52005647D01*
X58111131Y-52015222D01*
X58046774Y-51985244D01*
X58024517Y-51959559D01*
X57935325Y-51823042D01*
X57782902Y-51657465D01*
X57605301Y-51519232D01*
X57605300Y-51519231D01*
X57407371Y-51412117D01*
X57407369Y-51412116D01*
X57194512Y-51339043D01*
X57194501Y-51339040D01*
X57114000Y-51325606D01*
X57114000Y-52226325D01*
X57002315Y-52175320D01*
X56895763Y-52160000D01*
X56824237Y-52160000D01*
X56717685Y-52175320D01*
X56606000Y-52226325D01*
X56606000Y-51325607D01*
X56605999Y-51325606D01*
X56525498Y-51339040D01*
X56525487Y-51339043D01*
X56312630Y-51412116D01*
X56312628Y-51412117D01*
X56114699Y-51519231D01*
X56114698Y-51519232D01*
X55937097Y-51657465D01*
X55784670Y-51823045D01*
X55695780Y-51959101D01*
X55641776Y-52005189D01*
X55571428Y-52014764D01*
X55507071Y-51984786D01*
X55484816Y-51959101D01*
X55445884Y-51899511D01*
X55395724Y-51822734D01*
X55395720Y-51822729D01*
X55266705Y-51682584D01*
X55243240Y-51657094D01*
X55243239Y-51657093D01*
X55243237Y-51657091D01*
X55123372Y-51563796D01*
X55065576Y-51518811D01*
X54867574Y-51411658D01*
X54867572Y-51411657D01*
X54867571Y-51411656D01*
X54654639Y-51338557D01*
X54654630Y-51338555D01*
X54577029Y-51325606D01*
X54432569Y-51301500D01*
X54207431Y-51301500D01*
X54062971Y-51325606D01*
X53985369Y-51338555D01*
X53985360Y-51338557D01*
X53772428Y-51411656D01*
X53772426Y-51411658D01*
X53574426Y-51518810D01*
X53574424Y-51518811D01*
X53396762Y-51657091D01*
X53244279Y-51822729D01*
X53244275Y-51822734D01*
X53121141Y-52011206D01*
X53030703Y-52217386D01*
X53030702Y-52217387D01*
X52975437Y-52435624D01*
X52975436Y-52435630D01*
X52975436Y-52435632D01*
X52956844Y-52660000D01*
X52974232Y-52869844D01*
X52975437Y-52884375D01*
X53030702Y-53102612D01*
X53030703Y-53102613D01*
X53121141Y-53308793D01*
X53244275Y-53497265D01*
X53244279Y-53497270D01*
X53396765Y-53662911D01*
X53574417Y-53801184D01*
X53574420Y-53801186D01*
X53574424Y-53801189D01*
X53574427Y-53801191D01*
X53578788Y-53804040D01*
X53577478Y-53806043D01*
X53620796Y-53848945D01*
X53636500Y-53909862D01*
X53636500Y-53950137D01*
X53616498Y-54018258D01*
X53577689Y-54054280D01*
X53578787Y-54055961D01*
X53574424Y-54058811D01*
X53396762Y-54197091D01*
X53244279Y-54362729D01*
X53244275Y-54362734D01*
X53121141Y-54551206D01*
X53030703Y-54757386D01*
X53030702Y-54757387D01*
X52975437Y-54975624D01*
X52975436Y-54975630D01*
X52975436Y-54975632D01*
X52956844Y-55200000D01*
X52974232Y-55409844D01*
X52975437Y-55424375D01*
X53030702Y-55642612D01*
X53030703Y-55642613D01*
X53121141Y-55848793D01*
X53244275Y-56037265D01*
X53244279Y-56037270D01*
X53396765Y-56202911D01*
X53574417Y-56341184D01*
X53574420Y-56341186D01*
X53574424Y-56341189D01*
X53574427Y-56341191D01*
X53578788Y-56344040D01*
X53577478Y-56346043D01*
X53620796Y-56388945D01*
X53636500Y-56449862D01*
X53636500Y-57746165D01*
X53617741Y-57812312D01*
X53555698Y-57912899D01*
X53501763Y-58075666D01*
X53491500Y-58176119D01*
X53491500Y-58619508D01*
X53471498Y-58687629D01*
X53417842Y-58734122D01*
X53347568Y-58744226D01*
X53282988Y-58714732D01*
X53281948Y-58713821D01*
X53270120Y-58703343D01*
X53267365Y-58700750D01*
X52699241Y-58132626D01*
X52696649Y-58129872D01*
X52656571Y-58084633D01*
X52629448Y-58065911D01*
X52606819Y-58050292D01*
X52603766Y-58048045D01*
X52556196Y-58010776D01*
X52556193Y-58010774D01*
X52547599Y-58006907D01*
X52527735Y-57995704D01*
X52519973Y-57990346D01*
X52519970Y-57990345D01*
X52463458Y-57968913D01*
X52459941Y-57967456D01*
X52404839Y-57942656D01*
X52404836Y-57942655D01*
X52395554Y-57940954D01*
X52373600Y-57934833D01*
X52364778Y-57931488D01*
X52364769Y-57931485D01*
X52304774Y-57924201D01*
X52301011Y-57923628D01*
X52241573Y-57912736D01*
X52241572Y-57912736D01*
X52181247Y-57916385D01*
X52177444Y-57916500D01*
X52116846Y-57916500D01*
X52048725Y-57896498D01*
X52009606Y-57856648D01*
X51954286Y-57766961D01*
X51954279Y-57766953D01*
X51833046Y-57645720D01*
X51833040Y-57645715D01*
X51763351Y-57602730D01*
X51687101Y-57555698D01*
X51524336Y-57501764D01*
X51524333Y-57501763D01*
X51423880Y-57491500D01*
X51423872Y-57491500D01*
X50876128Y-57491500D01*
X50876120Y-57491500D01*
X50775666Y-57501763D01*
X50612899Y-57555698D01*
X50466959Y-57645715D01*
X50466953Y-57645720D01*
X50345720Y-57766953D01*
X50345715Y-57766959D01*
X50255698Y-57912898D01*
X50255698Y-57912899D01*
X50246103Y-57941852D01*
X50205691Y-58000222D01*
X50140134Y-58027478D01*
X50070249Y-58014965D01*
X50018223Y-57966655D01*
X50000500Y-57902218D01*
X50000500Y-50126500D01*
X50020502Y-50058379D01*
X50074158Y-50011886D01*
X50126500Y-50000500D01*
X68673500Y-50000500D01*
X68741621Y-50020502D01*
G37*
%TD.AperFunction*%
%TA.AperFunction,Conductor*%
G36*
X58940507Y-54990156D02*
G01*
X58900000Y-55128111D01*
X58900000Y-55271889D01*
X58940507Y-55409844D01*
X58968884Y-55454000D01*
X57291116Y-55454000D01*
X57319493Y-55409844D01*
X57360000Y-55271889D01*
X57360000Y-55128111D01*
X57319493Y-54990156D01*
X57291116Y-54946000D01*
X58968884Y-54946000D01*
X58940507Y-54990156D01*
G37*
%TD.AperFunction*%
%TA.AperFunction,Conductor*%
G36*
X61480507Y-54990156D02*
G01*
X61440000Y-55128111D01*
X61440000Y-55271889D01*
X61480507Y-55409844D01*
X61508884Y-55454000D01*
X59831116Y-55454000D01*
X59859493Y-55409844D01*
X59900000Y-55271889D01*
X59900000Y-55128111D01*
X59859493Y-54990156D01*
X59831116Y-54946000D01*
X61508884Y-54946000D01*
X61480507Y-54990156D01*
G37*
%TD.AperFunction*%
%TA.AperFunction,Conductor*%
G36*
X57114000Y-54766325D02*
G01*
X57002315Y-54715320D01*
X56895763Y-54700000D01*
X56824237Y-54700000D01*
X56717685Y-54715320D01*
X56606000Y-54766325D01*
X56606000Y-53093674D01*
X56717685Y-53144680D01*
X56824237Y-53160000D01*
X56895763Y-53160000D01*
X57002315Y-53144680D01*
X57114000Y-53093674D01*
X57114000Y-54766325D01*
G37*
%TD.AperFunction*%
%TA.AperFunction,Conductor*%
G36*
X59654000Y-54766325D02*
G01*
X59542315Y-54715320D01*
X59435763Y-54700000D01*
X59364237Y-54700000D01*
X59257685Y-54715320D01*
X59146000Y-54766325D01*
X59146000Y-53093674D01*
X59257685Y-53144680D01*
X59364237Y-53160000D01*
X59435763Y-53160000D01*
X59542315Y-53144680D01*
X59654000Y-53093674D01*
X59654000Y-54766325D01*
G37*
%TD.AperFunction*%
%TA.AperFunction,Conductor*%
G36*
X62194000Y-54766325D02*
G01*
X62082315Y-54715320D01*
X61975763Y-54700000D01*
X61904237Y-54700000D01*
X61797685Y-54715320D01*
X61686000Y-54766325D01*
X61686000Y-53093674D01*
X61797685Y-53144680D01*
X61904237Y-53160000D01*
X61975763Y-53160000D01*
X62082315Y-53144680D01*
X62194000Y-53093674D01*
X62194000Y-54766325D01*
G37*
%TD.AperFunction*%
%TA.AperFunction,Conductor*%
G36*
X58940507Y-52450156D02*
G01*
X58900000Y-52588111D01*
X58900000Y-52731889D01*
X58940507Y-52869844D01*
X58968884Y-52914000D01*
X57291116Y-52914000D01*
X57319493Y-52869844D01*
X57360000Y-52731889D01*
X57360000Y-52588111D01*
X57319493Y-52450156D01*
X57291116Y-52406000D01*
X58968884Y-52406000D01*
X58940507Y-52450156D01*
G37*
%TD.AperFunction*%
%TA.AperFunction,Conductor*%
G36*
X61480507Y-52450156D02*
G01*
X61440000Y-52588111D01*
X61440000Y-52731889D01*
X61480507Y-52869844D01*
X61508884Y-52914000D01*
X59831116Y-52914000D01*
X59859493Y-52869844D01*
X59900000Y-52731889D01*
X59900000Y-52588111D01*
X59859493Y-52450156D01*
X59831116Y-52406000D01*
X61508884Y-52406000D01*
X61480507Y-52450156D01*
G37*
%TD.AperFunction*%
%TD*%
M02*
